<?xml version="1.0" standalone="no"?>
<!DOCTYPE svg PUBLIC "-//W3C//DTD SVG 1.1//EN" "http://www.w3.org/Graphics/SVG/1.1/DTD/svg11.dtd" >
<svg xmlns="http://www.w3.org/2000/svg" xmlns:xlink="http://www.w3.org/1999/xlink" version="1.1">
<metadata>
Created by FontForge 20201107 at Fri May  5 14:18:33 2017
 By 
Copyright 2015 The Arima Project Authors (info@ndiscovered.com)
</metadata>
<defs>
<font id="ArimaMadurai-ExtraBold" horiz-adv-x="0" >
  <font-face 
    font-family="Arima Madurai ExtraBold"
    font-weight="800"
    font-stretch="normal"
    units-per-em="1000"
    panose-1="0 0 9 0 0 0 0 0 0 0"
    ascent="800"
    descent="-200"
    x-height="524"
    cap-height="708"
    bbox="-627 -419 2631 1060"
    underline-thickness="50"
    underline-position="-100"
    unicode-range="U+0020-FB02"
  />
<missing-glyph horiz-adv-x="600" 
d="M492 -400h-380v1200h380v-1200zM202 720v-40h78v-44h-80v-40h200v40h-80v44h80v40h-198zM200 565v-125h200v41h-80v84h-120zM280 481h-40v43h40v-43zM200 408v-40h80v-44h-80v-40h120v84h80v40h-200zM360 336v-80h-160v-40h200v120h-40zM280 189v-67h40v28h40v-57h-120
v96h-40v-135h200v135h-120zM200 -18v-136h200v136h-200zM360 -114h-120v56h120v-56zM200 -182v-39h84l-84 -57v-39h200v39h-123l84 57h39v39h-200z" />
    <glyph glyph-name="fi" unicode="fi" horiz-adv-x="586" 
d="M232 513q16 0 47 1.5t38 2.5l-1 -29q-1 -14 -10 -22t-22 -8h-80v-322q0 -76 17 -123q-29 -27 -67 -27q-30 0 -49 17t-19 46v409h-11q-40 0 -60 -3l1 29q1 14 9.5 21.5t22.5 7.5h38v14q0 215 228 215q93 0 146 -23.5t53 -67.5q0 -28 -22.5 -46.5t-54.5 -18.5q-35 0 -53 18
q11 12 15 24t4 27q0 24 -25.5 36t-62.5 12q-51 0 -74.5 -23.5t-29.5 -61.5t-6 -105h28zM519.5 69q3.5 -30 14.5 -56q-30 -27 -68 -27q-29 0 -48 17t-19 46v330q0 75 -18 123q32 26 67 26q30 0 48.5 -16.5t18.5 -45.5l1 -330q0 -37 3.5 -67z" />
    <glyph glyph-name="fl" unicode="fl" horiz-adv-x="627" 
d="M610 55q0 -28 -25.5 -46.5t-60.5 -18.5q-54 0 -83.5 35t-29.5 97v466q0 61 -27 88t-78 27q-48 0 -70 -23.5t-27 -59t-5 -101.5v-6h28q14 0 42 1.5t35 2.5l-1 -29q-1 -15 -9.5 -22.5t-21.5 -7.5h-73v-322q0 -76 17 -123q-29 -27 -67 -27q-30 0 -49 17t-19 46v409h-11
q-40 0 -60 -3l1 29q1 14 9.5 21.5t22.5 7.5h38v27q0 202 219 202q109 0 166.5 -39t57.5 -109v-462q0 -53 36 -53q22 0 32 15q13 -19 13 -39z" />
    <glyph glyph-name=".notdef" horiz-adv-x="600" 
d="M492 -400h-380v1200h380v-1200zM202 720v-40h78v-44h-80v-40h200v40h-80v44h80v40h-198zM200 565v-125h200v41h-80v84h-120zM280 481h-40v43h40v-43zM200 408v-40h80v-44h-80v-40h120v84h80v40h-200zM360 336v-80h-160v-40h200v120h-40zM280 189v-67h40v28h40v-57h-120
v96h-40v-135h200v135h-120zM200 -18v-136h200v136h-200zM360 -114h-120v56h120v-56zM200 -182v-39h84l-84 -57v-39h200v39h-123l84 57h39v39h-200z" />
    <glyph glyph-name=".null" 
 />
    <glyph glyph-name="nonmarkingreturn" horiz-adv-x="333" 
 />
    <glyph glyph-name="space" unicode=" " horiz-adv-x="215" 
 />
    <glyph glyph-name="exclam" unicode="!" horiz-adv-x="321" 
d="M122 195h82l26 523q-32 11 -69 11q-38 0 -70 -11zM109.5 6.5q-20.5 20.5 -20.5 49.5t20.5 49.5t50.5 20.5q29 0 49 -20.5t20 -49.5t-20 -49.5t-49 -20.5q-30 0 -50.5 20.5z" />
    <glyph glyph-name="quotedbl" unicode="&#x22;" horiz-adv-x="335" 
d="M215 546h51l30 179q-20 8 -52 8t-55 -8zM66 546h51l30 179q-20 8 -52 8t-55 -8z" />
    <glyph glyph-name="numbersign" unicode="#" horiz-adv-x="626" 
d="M464 409l-24 -131h155l-10 -69h-157l-38 -209h-80l38 209h-120l-38 -209h-80l38 209h-146l10 69h148l24 131h-150l10 69h153l39 218h80l-39 -218h120l39 218h80l-39 -218h150l-10 -69h-153zM384 409h-120l-24 -131h120z" />
    <glyph glyph-name="dollar" unicode="$" horiz-adv-x="564" 
d="M472 49q-55 -53 -162 -62q0 -53 6 -74q-10 -8 -23 -8q-21 0 -21 22v59q-115 1 -173.5 40.5t-58.5 102.5q0 32 17.5 51t57.5 19q6 0 26 -2q-3 -10 -3 -24q0 -8 2 -26q6 -46 39.5 -78.5t92.5 -36.5l-1 264l-5 3q-72 41 -113.5 72t-65 70.5t-23.5 94.5q0 82 57.5 125
t148.5 48q-2 46 -6 65q10 8 22 8q22 0 22 -22v-50q90 -2 143.5 -33t53.5 -86t-62 -58h-9q-9 0 -27 2q1 5 1 14q0 22 -7 40q-6 30 -30 50t-63 25l1 -241l23 -13q61 -33 101.5 -62.5t67 -71.5t26.5 -97q0 -77 -55 -130zM197.5 509q21.5 -29 73.5 -63l-1 220q-39 -3 -66.5 -24
t-27.5 -65q0 -39 21.5 -68zM382.5 64q27.5 27 27.5 75q0 42 -24 72t-77 63l1 -242q45 5 72.5 32z" />
    <glyph glyph-name="percent" unicode="%" horiz-adv-x="1081" 
d="M690 711q40 0 55 -27l-342 -698q-5 -1 -14 -1q-32 0 -54 23l340 702q5 1 15 1zM92 364.5q-49 50.5 -49 148.5q0 97 49 147t144 50t143.5 -49.5t48.5 -147.5t-48.5 -148.5t-143.5 -50.5t-144 50.5zM299 388q20 39 20 125q0 85 -20 123.5t-63 38.5q-44 0 -63.5 -38.5
t-19.5 -123.5q0 -86 19.5 -125t63.5 -39q43 0 63 39zM702 40q-49 50 -49 148t49 148t144 50t143.5 -50t48.5 -148t-48.5 -148t-143.5 -50t-144 50zM909.5 64q20.5 39 20.5 124t-20.5 123.5t-62.5 38.5q-44 0 -64 -38.5t-20 -123.5q0 -86 20 -124.5t64 -38.5q42 0 62.5 39z
" />
    <glyph glyph-name="ampersand" unicode="&#x26;" horiz-adv-x="891" 
d="M850.5 651.5q19.5 -15.5 19.5 -42.5q0 -32 -28 -69q-39 -56 -98 -110q13 -57 13 -105q0 -99 -45.5 -176.5t-126.5 -120.5t-183 -43q-104 0 -182.5 39t-121 109t-42.5 159q0 66 30 121t86.5 87t132.5 32q84 0 129.5 -39.5t45.5 -101.5q0 -80 -79 -148q47 33 112 91.5
t129 124.5q-39 80 -113 127.5t-167 44.5q0 38 20.5 59t70.5 21q80 0 146.5 -50t107.5 -132q73 85 105 138q19 0 38.5 -15.5zM670 368q-89 -69 -193 -124t-196 -82l-9 38q53 44 81 86.5t28 92.5q0 45 -19.5 72t-57.5 27q-49 0 -82.5 -47t-33.5 -130q0 -72 26.5 -131.5
t77.5 -95t121 -35.5q69 0 129 34.5t96 97.5t36 145q0 29 -4 52z" />
    <glyph glyph-name="quotesingle" unicode="'" horiz-adv-x="187" 
d="M66 546h51l30 179q-20 8 -52 8t-55 -8z" />
    <glyph glyph-name="parenleft" unicode="(" horiz-adv-x="444" 
d="M257.5 -122.5q-61.5 50.5 -106 154.5t-44.5 254t45 254t106.5 155t108.5 51q20 0 29 -8.5t9 -15.5q-91 -72 -132 -177t-41 -253q0 -307 173 -440q0 -9 -9 -17t-29 -8q-48 0 -109.5 50.5z" />
    <glyph glyph-name="parenright" unicode=")" horiz-adv-x="444" 
d="M48.5 -164.5q-9.5 8.5 -9.5 16.5q171 130 174 434q0 150 -41.5 256.5t-132.5 179.5q0 7 9.5 15.5t29.5 8.5q47 0 108.5 -51t106.5 -155t45 -254t-44.5 -254t-106 -154.5t-109.5 -50.5q-20 0 -29.5 8.5z" />
    <glyph glyph-name="asterisk" unicode="*" horiz-adv-x="501" 
d="M331 481q-12 -24 -17 -43q42 -15 68.5 -44t26.5 -59q0 -23 -16.5 -38.5t-41.5 -15.5q-38 0 -61 36.5t-23 81.5v10q-6 1 -18 1q-10 0 -15 -1q0 -51 -27.5 -91t-71.5 -40q-23 0 -39.5 13t-16.5 38q0 36 32 67.5t80 44.5q-4 21 -14 42q-33 -10 -60 -10q-39 0 -65.5 17.5
t-26.5 48.5q0 23 15.5 39.5t45.5 16.5q31 0 59.5 -18t49.5 -48q18 11 33 24q-42 48 -42 98q0 30 16.5 46t48.5 16q64 0 64 -62q0 -49 -35 -94q13 -15 35 -28q22 30 49 47.5t54 17.5q26 0 40.5 -15t14.5 -41q0 -33 -23 -50t-61 -17q-26 0 -58 10zM234 652q0 -34 22 -67
q23 33 23 63q0 13 -6 21t-17 8q-22 0 -22 -25zM159 513q-14 20 -31 32t-34 12q-9 0 -15 -5.5t-6 -13.5q0 -15 12.5 -23t33.5 -8q20 0 40 6zM351 512q20 -6 39 -6q20 0 33 7t13 22q0 9 -5.5 14.5t-15.5 5.5q-31 0 -64 -43zM295 498q-25 13 -43 30q-20 -18 -40 -29
q12 -24 18 -51q6 1 18 1q10 0 26 -2q8 29 21 51zM177.5 340.5q14.5 26.5 16.5 59.5q-30 -11 -49.5 -30t-19.5 -38q0 -8 5.5 -13t13.5 -5q19 0 33.5 26.5zM354 370.5q-18 17.5 -46 28.5q0 -28 11 -54.5t32 -26.5q9 0 15 5t6 13q0 17 -18 34.5z" />
    <glyph glyph-name="plus" unicode="+" horiz-adv-x="550" 
d="M480 347q0 -15 -6 -32h-167v-167q-17 -5 -32 -5q-14 0 -32 5v167h-167q-6 17 -6 32q0 17 6 33h166v167q17 6 33 6q15 0 32 -6v-167h167q6 -16 6 -33z" />
    <glyph glyph-name="comma" unicode="," horiz-adv-x="303" 
d="M106 -84q35 40 35 75q0 31 -16.5 44t-44.5 21q0 28 20.5 49t51.5 21q30 0 50.5 -21.5t20.5 -65.5q0 -75 -78 -145q-21 3 -39 22z" />
    <glyph glyph-name="hyphen" unicode="-" horiz-adv-x="399" 
d="M359 293v-70h-320v70h320z" />
    <glyph glyph-name="period" unicode="." horiz-adv-x="300" 
d="M100.5 6.5q-20.5 20.5 -20.5 49.5t20.5 49.5t49.5 20.5t49.5 -20.5t20.5 -49.5t-20.5 -49.5t-49.5 -20.5t-49.5 20.5z" />
    <glyph glyph-name="slash" unicode="/" horiz-adv-x="485" 
d="M3 -142l325 874h119l-326 -874h-118z" />
    <glyph glyph-name="zero" unicode="0" horiz-adv-x="635" 
d="M123.5 77q-65.5 91 -65.5 271q0 181 65.5 271.5t193.5 90.5t194 -90.5t66 -271.5q0 -180 -66 -271t-194 -91t-193.5 91zM413 106.5q31 76.5 31 241.5t-31 241.5t-96 76.5t-96 -76.5t-31 -241.5t31 -241.5t96 -76.5t96 76.5z" />
    <glyph glyph-name="one" unicode="1" horiz-adv-x="450" 
d="M355 13q-9 -10 -26.5 -18.5t-40.5 -8.5q-29 0 -47.5 17t-18.5 46l-1 505q0 26 -3 48q-33 -41 -74.5 -78t-63.5 -37q-26 0 -37 15t-12.5 28t-1.5 31q5 2 79 52t115 78q22 13 47 13q30 0 48.5 -16.5t18.5 -45.5l1 -506q0 -76 17 -123z" />
    <glyph glyph-name="two" unicode="2" horiz-adv-x="558" 
d="M43.5 18.5q-5.5 12.5 -5.5 26.5q0 10 3 20q17 17 61 54q76 64 132 120t98.5 129.5t42.5 152.5q0 62 -28 105t-83 43q-64 0 -89.5 -52.5t-26.5 -121.5q-54 0 -76 23t-22 54q0 36 27.5 67.5t78 51t116.5 19.5q101 0 165 -49.5t64 -146.5q0 -108 -67.5 -199t-145 -147.5
t-164.5 -106.5q80 2 205 22t179 42q10 -8 16 -26.5t6 -39.5q0 -24 -7.5 -41t-21.5 -18h-444q-8 6 -13.5 18.5z" />
    <glyph glyph-name="three" unicode="3" horiz-adv-x="562" 
d="M117 9q-52 21 -71 48.5t-19 50.5q0 25 19 45t67 20q5 -58 31.5 -101.5t107.5 -43.5q64 0 102 41t38 110q0 86 -66 125.5t-168 41.5l1 44q104 4 155 51t51 111q0 55 -25 86t-78 31q-63 0 -89 -42.5t-28 -100.5q-51 -1 -69 17t-18 39q0 33 24 62.5t72.5 47.5t117.5 18
q89 0 157 -38t68 -127q0 -63 -47 -110t-124 -67q198 -33 198 -178q0 -94 -72 -148t-192 -54q-91 0 -143 21z" />
    <glyph glyph-name="four" unicode="4" horiz-adv-x="615" 
d="M586 221q0 -26 -14 -48h-87v-37q0 -79 17 -123q-10 -10 -27.5 -18.5t-39.5 -8.5q-29 0 -48.5 17t-19.5 46v124h-301q-17 2 -26.5 14.5t-9.5 28.5q0 14 7 24l313 436q8 11 27.5 20t38.5 9q30 0 48.5 -17t18.5 -45l2 -403q58 6 94 16q7 -15 7 -35zM367 238v360l-256 -360
h256z" />
    <glyph glyph-name="five" unicode="5" horiz-adv-x="568" 
d="M155.5 11q-49.5 23 -74.5 58t-25 70q0 30 18.5 48t51.5 18q9 0 14 -1q1 -62 30.5 -113.5t95.5 -51.5q65 0 96.5 46.5t31.5 124.5q0 70 -38 115.5t-107 45.5q-51 0 -90.5 -9.5t-45.5 -10.5q-25 0 -25 25l12 271q1 21 15.5 34.5t36.5 13.5q129 0 198.5 2t129.5 9
q6 -12 6 -29q0 -24 -11.5 -47.5t-28.5 -30.5q-175 0 -260 7l-9 -196q67 15 118 15q109 0 170 -55t61 -152q0 -81 -36 -132.5t-93 -74.5t-123 -23q-69 0 -118.5 23z" />
    <glyph glyph-name="six" unicode="6" horiz-adv-x="589" 
d="M444.5 406q46.5 -24 74 -72t27.5 -116q0 -104 -62 -167t-181 -63q-113 0 -179 71.5t-66 256.5q0 197 68.5 295t215.5 98q62 0 112 -21.5t50 -59.5q0 -21 -16 -41t-27 -24q-31 52 -61.5 73.5t-63.5 21.5q-82 0 -112.5 -78.5t-33.5 -218.5q57 69 151 69q57 0 103.5 -24z
M392 85q25 54 25 138q0 74 -24 113t-77 39q-41 0 -75 -24.5t-52 -70.5q3 -116 29.5 -182.5t89.5 -66.5q59 0 84 54z" />
    <glyph glyph-name="seven" unicode="7" horiz-adv-x="511" 
d="M214 -6q-28 0 -62 8q6 83 37 205t78 233.5t100 168.5q-56 -8 -113 -10.5t-135 -2.5h-69q-9 8 -13.5 27t-4.5 40q0 27 7 40q95 -7 196 -7h233q7 -14 7 -34q0 -31 -17 -52q-53 -73 -96 -187.5t-67.5 -230.5t-24.5 -192q-27 -6 -56 -6z" />
    <glyph glyph-name="eight" unicode="8" horiz-adv-x="617" 
d="M512 284q56 -52 56 -121q0 -44 -25.5 -84.5t-83.5 -66.5t-149 -26q-92 0 -149 26t-81.5 66t-24.5 84q0 43 22 83t62.5 68.5t92.5 38.5q-66 38 -106 83.5t-40 109.5q0 41 22 78.5t71.5 62t126.5 24.5q76 0 127.5 -23t76.5 -60t25 -79q0 -38 -20 -74t-57.5 -62t-87.5 -34
q86 -42 142 -94zM237.5 636q-28.5 -31 -28.5 -82q0 -62 32 -96t91 -62h0.5t0.5 -1q46 28 62.5 68t16.5 86q-1 55 -29 86.5t-73 31.5q-44 0 -72.5 -31zM403 62.5q35 34.5 35 87.5q0 59 -42 98.5t-126 82.5q-35 -25 -60 -64.5t-25 -96.5q0 -72 37 -107t91 -35q55 0 90 34.5z
" />
    <glyph glyph-name="nine" unicode="9" horiz-adv-x="600" 
d="M477.5 635.5q64.5 -74.5 64.5 -253.5q0 -202 -67.5 -299t-214.5 -97q-74 0 -128.5 23.5t-54.5 66.5q0 22 16 41.5t27 22.5q38 -57 73.5 -80.5t72.5 -23.5q81 0 111 77.5t33 222.5q-56 -68 -148 -68q-56 0 -101.5 24.5t-72.5 73t-27 117.5q0 103 60.5 165t177.5 62
q114 0 178.5 -74.5zM359 347q33 24 51 70q-3 119 -27.5 184.5t-88.5 65.5q-58 0 -83 -53t-25 -135q0 -76 23.5 -116t75.5 -40q41 0 74 24z" />
    <glyph glyph-name="colon" unicode=":" horiz-adv-x="272" 
d="M87.5 370.5q-20.5 20.5 -20.5 49.5t20.5 49.5t49.5 20.5t49.5 -20.5t20.5 -49.5t-20.5 -49.5t-49.5 -20.5t-49.5 20.5zM87.5 6.5q-20.5 20.5 -20.5 49.5t20.5 49.5t49.5 20.5t49.5 -20.5t20.5 -49.5t-20.5 -49.5t-49.5 -20.5t-49.5 20.5z" />
    <glyph glyph-name="semicolon" unicode=";" horiz-adv-x="276" 
d="M89.5 370.5q-20.5 20.5 -20.5 49.5t20.5 49.5t49.5 20.5t49.5 -20.5t20.5 -49.5t-20.5 -49.5t-49.5 -20.5t-49.5 20.5zM93 -84q35 40 35 75q0 31 -16.5 44t-44.5 21q0 28 20.5 49t51.5 21q30 0 50.5 -21.5t20.5 -65.5q0 -75 -78 -145q-21 3 -39 22z" />
    <glyph glyph-name="less" unicode="&#x3c;" horiz-adv-x="494" 
d="M40 351q0 5 4 11l360 176q6 3 11 3q10 0 17.5 -9.5t7.5 -26.5q0 -13 -4 -26l-294 -128l294 -128q5 -17 5 -28q0 -16 -6.5 -25t-17.5 -9q-5 0 -13 3l-360 176q-4 8 -4 11z" />
    <glyph glyph-name="equal" unicode="=" horiz-adv-x="544" 
d="M471 474q6 -15 6 -32q0 -15 -6 -32h-398q-6 17 -6 32q0 17 6 32h398zM471 276q6 -16 6 -32t-6 -33h-398q-6 17 -6 33t6 32h398z" />
    <glyph glyph-name="greater" unicode="&#x3e;" horiz-adv-x="495" 
d="M91 164q-7 -3 -13 -3q-11 0 -17.5 10t-6.5 26q0 13 4 26l294 128l-294 128q-3 14 -3 24q0 18 7.5 28t17.5 10q5 0 11 -3l359 -176q4 -4 4 -11q0 -6 -4 -11z" />
    <glyph glyph-name="question" unicode="?" horiz-adv-x="518" 
d="M171 351q79 3 133 50t54 133q0 66 -32.5 110t-97.5 44q-63 0 -88.5 -44.5t-27.5 -107.5q-97 0 -97 63q0 36 27 66.5t77.5 48.5t117.5 18q110 0 178.5 -49t68.5 -153q0 -71 -34 -121t-86 -75.5t-106 -29.5v-110h-87v157zM155 6.5q-20 20.5 -20 49.5t20 49.5t50 20.5
q29 0 49 -20.5t20 -49.5t-20 -49.5t-49 -20.5q-30 0 -50 20.5z" />
    <glyph glyph-name="at" unicode="@" horiz-adv-x="880" 
d="M674.5 601.5q81.5 -57.5 117 -143.5t35.5 -174q0 -83 -23 -138.5t-61 -82t-85 -26.5q-41 0 -74.5 25.5t-40.5 63.5q-44 -76 -118 -76q-93 0 -123 57t-30 135q0 114 48.5 178t141.5 64q97 0 136 -53t39 -129l-1 -116q-1 -41 10.5 -67.5t37.5 -26.5q35 0 57.5 49.5
t22.5 146.5q0 75 -29 147t-95 120.5t-172 48.5q-105 0 -175.5 -47.5t-104 -125t-33.5 -169.5q0 -95 34.5 -166t91 -108.5t121.5 -37.5q17 0 25 1q8 -13 8 -23q0 -16 -18 -25.5t-50 -9.5q-66 0 -141 39.5t-127.5 122t-52.5 203.5q0 104 45 195.5t139.5 148.5t235.5 57
q127 0 208.5 -57.5zM479.5 118.5q26.5 27.5 41 75.5t14.5 109q0 67 -20 103t-70 36q-60 0 -92 -50t-32 -149q0 -63 19 -107.5t79 -44.5q34 0 60.5 27.5z" />
    <glyph glyph-name="A" unicode="A" horiz-adv-x="616" 
d="M611 14q-23 -27 -70 -27q-29 0 -48.5 12t-24.5 35l-48 174h-234l-37 -137q-7 -24 -7 -42q0 -20 10 -29q-33 -13 -66 -13q-35 0 -51 12t-16 39q0 20 12 63l200 593q54 17 101 17q54 0 66 -40l183 -598q13 -40 30 -59zM401 274l-100 364l-98 -364h198z" />
    <glyph glyph-name="B" unicode="B" horiz-adv-x="595" 
d="M505 317q43 -46 43 -122q0 -99 -73 -147t-211 -48h-107q-31 0 -50 16.5t-20 45.5v498q0 77 -17 122q58 28 173 28q133 0 202 -40t69 -128q0 -63 -33.5 -107.5t-93.5 -60.5q75 -11 118 -57zM208 665v-274h58q59 -1 90 36.5t31 104.5q0 65 -34 99.5t-110 34.5q-26 0 -35 -1
zM379 83q38 39 38 110q0 86 -40 119.5t-114 33.5h-55v-302h53q80 0 118 39z" />
    <glyph glyph-name="C" unicode="C" horiz-adv-x="611" 
d="M124 80.5q-73 94.5 -73 267.5t75 267.5t210 94.5q55 0 105.5 -14t81.5 -40t31 -60q0 -28 -25.5 -49t-70.5 -20q-16 139 -120 139q-78 0 -116.5 -79t-38.5 -239t37.5 -239t114.5 -79q54 0 90 39t46 115q6 1 19 1q34 0 58 -16t24 -45q0 -42 -35 -73t-91 -48t-118 -17
q-131 0 -204 94.5z" />
    <glyph glyph-name="D" unicode="D" horiz-adv-x="650" 
d="M102 16.5q-19 16.5 -19 45.5l-1 498v36t-3 57t-9 45q69 9 218 9q150 0 230.5 -88.5t80.5 -262.5q0 -182 -78.5 -269t-225.5 -87h-142q-32 0 -51 16.5zM288 44q93 0 135.5 70t42.5 234q0 163 -43.5 238.5t-134.5 75.5h-85v-618h85z" />
    <glyph glyph-name="E" unicode="E" horiz-adv-x="549" 
d="M497 84q6 -16 6 -35q0 -20 -7.5 -34.5t-21.5 -14.5h-318q-30 0 -49 16.5t-19 45.5l-1 483q0 72 -17 121q21 19 43 24.5t64 5.5h294q19 0 19 -32q0 -22 -9 -44.5t-23 -28.5q-120 43 -251 46v-242h223q4 -15 4 -33q0 -20 -4 -33h-222v-270q65 1 144.5 16t128.5 32
q10 -7 16 -23z" />
    <glyph glyph-name="F" unicode="F" horiz-adv-x="529" 
d="M490 664q0 -22 -9 -44.5t-23 -28.5q-120 43 -251 46v-244h223q3 -10 3 -30t-3 -37h-222v-190q0 -79 17 -123q-10 -10 -28 -18.5t-41 -8.5q-30 0 -49 17t-19 46l-1 496q0 72 -17 121q21 19 43 24.5t64 5.5h294q19 0 19 -32z" />
    <glyph glyph-name="G" unicode="G" horiz-adv-x="646" 
d="M127 80.5q-76 94.5 -76 267.5t78.5 267.5t220.5 94.5q52 0 101 -14t80 -40t31 -59q0 -29 -25.5 -50t-70.5 -20q-7 70 -36.5 104.5t-77.5 34.5q-86 0 -127.5 -79t-41.5 -239t40.5 -239t125.5 -79q71 0 98 57.5t27 134.5q0 110 -64 135q8 19 28 28.5t45 9.5
q51 0 82.5 -36.5t31.5 -108.5q0 -82 -32.5 -141.5t-90.5 -91t-131 -31.5q-140 0 -216 94.5z" />
    <glyph glyph-name="H" unicode="H" horiz-adv-x="694" 
d="M624 13q-10 -10 -28 -18.5t-41 -8.5q-30 0 -49.5 17t-19.5 46v283h-278v-196q0 -79 17 -123q-10 -10 -28 -18.5t-41 -8.5q-30 0 -49 17t-19 46l-1 511q0 73 -17 122q10 10 28 18t41 8q30 0 49.5 -16.5t19.5 -44.5v-250h278v163q0 73 -17 122q10 10 28 18t41 8
q30 0 49.5 -16.5t19.5 -44.5v-511q0 -79 17 -123z" />
    <glyph glyph-name="I" unicode="I" horiz-adv-x="295" 
d="M107 3q-19 17 -19 46l-1 511q0 73 -17 122q10 10 28 18t41 8q30 0 49.5 -16.5t19.5 -44.5v-511q0 -79 17 -123q-10 -10 -28 -18.5t-41 -8.5q-30 0 -49 17z" />
    <glyph glyph-name="J" unicode="J" horiz-adv-x="485" 
d="M80.5 19.5q-40.5 33.5 -40.5 81.5q0 32 17.5 55.5t51.5 23.5q18 0 30 -6t20 -19q-14 -27 -14 -56t18 -49t44 -20q44 0 59 39t15 110v419q0 24 1.5 38t6.5 23q-15 0 -49 2l-42 1q-20 0 -33 -9.5t-13 -30.5q0 -39 31 -57q-18 -14 -50 -14q-29 0 -51.5 21t-22.5 57
q0 37 28 59t80 22q27 0 61 -3l82 -3q47 0 97 6q-5 -28 -5 -77v-441q0 -206 -195 -206q-86 0 -126.5 33.5z" />
    <glyph glyph-name="K" unicode="K" horiz-adv-x="609" 
d="M593 50q0 -29 -22.5 -48.5t-58.5 -19.5q-50 0 -77.5 36.5t-49.5 98.5l-32 98q-16 47 -43 74.5t-84 27.5h-18v-181q0 -79 17 -123q-10 -10 -28 -18.5t-41 -8.5q-30 0 -49 17t-19 46l-1 511q0 73 -17 122q10 10 28 18t41 8q30 0 49 -16.5t19 -44.5l1 -284q12 1 24 5
q57 14 97.5 54.5t61 92.5t20.5 99q0 27 -5.5 47.5t-12.5 31.5q26 12 50 12q36 0 60.5 -21t24.5 -76q0 -76 -51.5 -147t-155.5 -110q57 -6 89 -30.5t50 -68.5l45 -113q17 -36 28 -49.5t27 -14.5h4q11 0 21 9q8 -19 8 -34z" />
    <glyph glyph-name="L" unicode="L" horiz-adv-x="499" 
d="M208 65q64 1 134 15.5t115 33.5q11 -7 17 -24.5t6 -37.5q0 -22 -7.5 -37t-21.5 -15h-295q-30 0 -49 16.5t-19 45.5l-1 498q0 73 -17 122q10 10 28 18t41 8q30 0 49 -16.5t19 -44.5z" />
    <glyph glyph-name="M" unicode="M" horiz-adv-x="851" 
d="M781 13q-10 -10 -28 -18.5t-41 -8.5q-28 0 -46.5 17t-18.5 46l-1 511l-183 -472q-39 -13 -65 -13q-23 0 -46 9q-52 108 -105.5 235.5t-95.5 246.5l1 -431q0 -85 18 -133q-18 -16 -44 -16q-40 0 -40 49v527q0 79 -7 131q15 15 82 15q42 0 63 -22l57 -141q69 -174 145 -356
q121 319 187 508q31 11 76 11q27 0 49 -8t25 -19l1 -545q0 -79 17 -123z" />
    <glyph glyph-name="N" unicode="N" horiz-adv-x="697" 
d="M70 2q18 48 18 134l-1 423q0 82 -7 134q6 7 22 11t33 4q23 0 30 -7q44 -63 131 -179q99 -132 162 -222t89 -143l-30 459q-1 5 -1 15q0 32 14 52t40 23q29 2 50 -11q-10 -35 -10 -112l-1 -450q0 -87 6 -131q-6 -7 -21 -11t-30 -4q-19 0 -30 6q-257 302 -379 527l25 -464
q2 -30 -17 -50t-43 -20q-25 0 -50 16z" />
    <glyph glyph-name="O" unicode="O" horiz-adv-x="661" 
d="M122 77q-71 91 -71 271t71 271t209 91q137 0 208 -91t71 -271t-71 -271t-208 -91q-138 0 -209 91zM442.5 106.5q35.5 76.5 35.5 241.5t-35.5 241.5t-111.5 76.5t-112 -76.5t-36 -241.5t36 -241.5t112 -76.5t111.5 76.5z" />
    <glyph glyph-name="P" unicode="P" horiz-adv-x="577" 
d="M465 660.5q75 -49.5 75 -156.5q0 -112 -79.5 -172t-228.5 -60h-24v-143q0 -74 18 -116q-11 -10 -29 -18.5t-40 -8.5q-30 0 -49.5 17t-20.5 46v511q0 77 -17 122q58 28 171 28q149 0 224 -49.5zM366 362q42 47 42 134q0 82 -39 126t-127 44q-26 0 -34 -2v-349h21
q95 0 137 47z" />
    <glyph glyph-name="Q" unicode="Q" horiz-adv-x="669" 
d="M392 -124.5q-80 36.5 -153 90.5q-91 65 -139.5 154t-48.5 227q0 180 73.5 271.5t209.5 91.5t209.5 -91.5t73.5 -270.5q0 -114 -35 -195.5t-99 -124t-150 -42.5q-30 0 -55 7q35 -29 82.5 -45.5t94.5 -16.5q50 0 86.5 16.5t44.5 46.5q30 -4 47.5 -21.5t17.5 -45.5
q0 -37 -31 -62.5t-84 -25.5q-64 0 -144 36.5zM442 106.5q36 76.5 36 242.5q0 164 -35.5 240.5t-109.5 76.5q-77 0 -110.5 -82t-33.5 -256q0 -143 32.5 -220.5t109.5 -77.5q75 0 111 76.5z" />
    <glyph glyph-name="R" unicode="R" horiz-adv-x="620" 
d="M607 55q0 -32 -24.5 -50t-50.5 -18q-36 0 -59 15.5t-38 42.5t-35 77l-35 90q-13 33 -24 51.5t-32 31.5t-56 13l-45 1v-180q0 -74 18 -116q-11 -10 -29 -18.5t-40 -8.5q-30 0 -49.5 17t-20.5 46v511q0 77 -17 122q58 28 176 28q146 0 218.5 -43.5t72.5 -140.5
q0 -72 -42.5 -122.5t-115.5 -69.5q35 -10 56.5 -31.5t40.5 -56.5l44 -102q14 -34 27 -49t27 -16q15 0 25 10q8 -17 8 -34zM259 352q69 1 107.5 47t38.5 119q0 70 -36 109.5t-114 39.5q-23 0 -47 -2v-312q32 -2 51 -1z" />
    <glyph glyph-name="S" unicode="S" horiz-adv-x="564" 
d="M99 25.5q-59 39.5 -59 103.5q0 32 17.5 51t57.5 19q6 0 26 -2q-3 -10 -3 -24q0 -8 2 -26q7 -49 45 -82.5t105 -33.5q53 0 86.5 27.5t33.5 80.5q0 50 -32.5 83t-111.5 77q-72 41 -113.5 72t-65 70.5t-23.5 94.5q0 88 65 131t166 43q95 0 152.5 -30.5t57.5 -88.5
q0 -55 -62 -58h-9q-9 0 -27 2q1 5 1 14q0 22 -7 40q-7 35 -38 56t-82 21q-42 0 -73.5 -21t-31.5 -68q0 -33 15 -58.5t48 -50.5t93 -58q61 -33 101.5 -62.5t67 -71.5t26.5 -97q0 -53 -27.5 -97t-84.5 -70t-141 -26q-116 0 -175 39.5z" />
    <glyph glyph-name="T" unicode="T" horiz-adv-x="547" 
d="M530 686.5q5 -9.5 5 -23.5q0 -22 -9.5 -44t-23.5 -28q-100 44 -168 56l1 -511q0 -79 17 -123q-10 -10 -28 -18.5t-41 -8.5q-30 0 -49.5 17t-19.5 46v598q-64 -12 -168 -56q-14 6 -23 28.5t-9 44.5q0 32 19 32h482q10 0 15 -9.5z" />
    <glyph glyph-name="U" unicode="U" horiz-adv-x="670" 
d="M593 306q0 -320 -258 -320q-126 0 -188.5 78t-62.5 242v254q0 74 -18 122q11 10 29 18t40 8q29 0 48.5 -16.5t19.5 -44.5v-346q0 -142 31.5 -206.5t100.5 -64.5q71 0 105 68t34 203v259q0 77 -17 122q10 10 27.5 18t40.5 8q29 0 48.5 -16.5t19.5 -44.5v-341z" />
    <glyph glyph-name="V" unicode="V" horiz-adv-x="602" 
d="M566.5 698q16.5 -12 16.5 -38q0 -24 -13 -63l-196 -594q-44 -17 -80 -17q-33 0 -51.5 8.5t-23.5 26.5l-184 604q-13 41 -30 59q26 26 72 26q65 0 77 -46l156 -592l142 555q7 23 7 41q0 21 -9 30q31 12 65 12q35 0 51.5 -12z" />
    <glyph glyph-name="W" unicode="W" horiz-adv-x="949" 
d="M907.5 695.5q16.5 -11.5 16.5 -36.5q0 -19 -13 -64l-164 -592q-44 -17 -80 -17q-60 0 -70 35l-119 463l-127 -481q-45 -17 -78 -17q-68 0 -75 35l-152 604q-4 14 -12 31t-18 28q26 26 72 26q67 0 77 -46l125 -579l119 465q3 17 3 30q0 25 -8 39q17 9 41 14t44 5
q24 0 40.5 -8t20.5 -23l134 -521l110 537q1 8 3.5 21t2.5 21q0 19 -9 31q33 11 65 11q35 0 51.5 -11.5z" />
    <glyph glyph-name="X" unicode="X" horiz-adv-x="628" 
d="M601.5 99.5q10.5 -14.5 10.5 -33.5q0 -32 -27.5 -55.5t-71.5 -23.5q-45 0 -72.5 26t-57.5 83l-87 166l-149 -239q-11 -17 -24.5 -26t-35.5 -9q-29 0 -44 17.5t-19 54.5q28 8 49.5 27.5t45.5 52.5l138 197l-121 227q-11 19 -20 27t-20 8q-12 0 -21 -8t-11 -20
q-16 8 -26 22.5t-10 34.5q0 32 23.5 54.5t70.5 22.5t76 -26t59 -83l79 -156l135 230q19 36 59 36q29 0 44 -17.5t19 -55.5q-29 -9 -51.5 -29t-43.5 -50l-127 -180l133 -246q9 -17 20 -26t22 -9q10 0 18.5 8.5t10.5 19.5q16 -7 26.5 -21.5z" />
    <glyph glyph-name="Y" unicode="Y" horiz-adv-x="584" 
d="M352 259v-123q0 -76 18 -123q-10 -10 -28.5 -18.5t-40.5 -8.5q-30 0 -49.5 17t-19.5 46v211q-8 10 -19 32l-160 315q-21 37 -46 62q13 14 35 26t50 12q33 0 50.5 -16.5t33.5 -50.5l139 -302l129 282q10 24 10 42q0 19 -12 33q31 12 68 12q27 0 41 -15t15 -38
q0 -27 -28 -74z" />
    <glyph glyph-name="Z" unicode="Z" horiz-adv-x="589" 
d="M547 167q17 -26 17 -60q0 -50 -38 -80t-113 -29l-254 6q-31 1 -51 -1t-46 -10l-17 30q0 32 6.5 53.5t25.5 43.5l353 486l-211 -14q-29 -1 -50.5 -11t-29.5 -28q-7 -17 -7 -31t9 -29q-31 3 -55 19q-19 10 -31 31.5t-12 46.5q0 50 41.5 80.5t123.5 28.5l198 -6
q81 -2 118 10l17 -35q0 -31 -7 -52.5t-25 -45.5l-356 -479l228 14q36 1 58 14t30 31q7 15 7 31q0 17 -6 30q13 -2 30 -8q30 -10 47 -36z" />
    <glyph glyph-name="bracketleft" unicode="[" horiz-adv-x="363" 
d="M277 737v-56h-79v-795h79v-55h-190v906h190z" />
    <glyph glyph-name="backslash" unicode="\" horiz-adv-x="533" 
d="M63 732h119l324 -874h-118z" />
    <glyph glyph-name="bracketright" unicode="]" horiz-adv-x="363" 
d="M266 -169h-189v55h78v795h-78v56h189v-906z" />
    <glyph glyph-name="asciicircum" unicode="^" horiz-adv-x="543" 
d="M81.5 257q-13.5 5 -14.5 9l173 165q8 4 34 4q22 0 30 -4l173 -165q-1 -4 -15.5 -9.5t-22.5 -5.5l-167 105l-169 -105q-8 1 -21.5 6z" />
    <glyph glyph-name="underscore" unicode="_" horiz-adv-x="386" 
d="M416 -69v-61l-446 2v61z" />
    <glyph glyph-name="grave" unicode="`" horiz-adv-x="600" 
d="M217 727q38 9 59 6l90 -156q-5 -3 -18.5 -5.5t-25.5 -2.5l-153 141q10 8 48 17z" />
    <glyph glyph-name="a" unicode="a" horiz-adv-x="562" 
d="M555 55q0 -28 -24 -46.5t-63 -18.5q-48 0 -74 32.5t-29 105.5q-29 -63 -80 -100.5t-118 -37.5q-58 0 -93.5 31t-35.5 86q0 64 48.5 105t123.5 62q67 19 148 19v26q0 85 -22.5 126t-74.5 41q-35 0 -57 -18.5t-22 -58.5q0 -23 8.5 -43t28.5 -30q-10 -11 -27.5 -16.5
t-37.5 -5.5q-42 0 -67.5 26t-25.5 65q0 59 55.5 91t151.5 32q110 0 161 -51.5t51 -165.5v-179q0 -53 34 -53q7 0 15 3.5t13 11.5q13 -19 13 -39zM285 93q33 25 55 67.5t22 92.5q-80 2 -127 -21q-31 -15 -49 -40t-18 -57q0 -29 13 -48t40 -19q31 0 64 25z" />
    <glyph glyph-name="b" unicode="b" horiz-adv-x="551" 
d="M154.5 3.5q-57.5 17.5 -91.5 49.5v617q0 29 18 45.5t46 16.5q38 0 73 -26q-19 -78 -19 -194v-93q17 50 58 79.5t98 29.5q83 0 130 -61t47 -190q0 -137 -58 -214t-181 -77q-63 0 -120.5 17.5zM361.5 100.5q25.5 64.5 25.5 176.5q0 98 -18.5 142.5t-58.5 44.5
q-63 0 -96 -64.5t-33 -156.5v-180q14 -12 36.5 -19.5t46.5 -7.5q72 0 97.5 64.5z" />
    <glyph glyph-name="c" unicode="c" horiz-adv-x="511" 
d="M101.5 56.5q-64.5 70.5 -64.5 200.5q0 127 66 199t186 72q87 0 133.5 -36t46.5 -92q0 -38 -24 -61.5t-61 -23.5q-19 0 -36.5 5.5t-26.5 16.5q29 22 29 73q0 39 -19.5 57t-51.5 18q-53 0 -84 -55t-31 -154q0 -111 40.5 -163t114.5 -52q53 0 90 26t48 69q17 -7 17 -31
q0 -12 -4 -27q-15 -53 -65 -82.5t-121 -29.5q-118 0 -182.5 70.5z" />
    <glyph glyph-name="d" unicode="d" horiz-adv-x="584" 
d="M564 53q0 -27 -23 -44.5t-57 -17.5q-45 0 -70.5 33.5t-30.5 95.5q-23 -66 -65.5 -100t-104.5 -34q-92 0 -134 69.5t-42 181.5q0 139 55.5 215t157.5 76q47 0 79.5 -17t46.5 -49v71q0 105 -20 173q32 26 69 26q29 0 48.5 -17t19.5 -45l-1 -538q0 -52 33 -52q19 0 27 13
q12 -19 12 -40zM341.5 129.5q32.5 77.5 32.5 187.5q0 68 -20 109t-76 41q-114 0 -114 -227q0 -94 18.5 -141t65.5 -47q61 0 93.5 77.5z" />
    <glyph glyph-name="e" unicode="e" horiz-adv-x="522" 
d="M479 115q0 -12 -7 -30q-19 -47 -68.5 -73t-118.5 -26q-115 0 -181.5 71t-66.5 200q0 127 65 199t186 72q87 0 142.5 -39t55.5 -111q0 -73 -59.5 -112.5t-159.5 -39.5q-57 0 -101 5q7 -91 46 -130.5t106 -39.5q53 0 91 22t54 58q16 -7 16 -26zM195.5 429
q-31.5 -56 -31.5 -156q28 -2 44 -2q66 0 108 26t42 100q0 88 -75 88q-56 0 -87.5 -56z" />
    <glyph glyph-name="f" unicode="f" horiz-adv-x="400" 
d="M381 719.5q39 -22.5 39 -64.5q0 -29 -20.5 -47t-49.5 -18q-37 0 -53 17q19 27 19 52q0 44 -46 44q-31 0 -45.5 -24.5t-17.5 -60.5t-3 -99v-6h28q19 0 58.5 1.5t45.5 2.5l-1 -29q-1 -14 -9 -22t-21 -8h-101v-322q0 -76 17 -123q-29 -27 -67 -27q-30 0 -49 17t-19 46v409
h-11q-40 0 -60 -3l1 29q1 14 9.5 21.5t22.5 7.5h38v27q0 202 186 202q70 0 109 -22.5z" />
    <glyph glyph-name="g" unicode="g" horiz-adv-x="544" 
d="M93.5 -198q-52.5 29 -52.5 88q0 36 23.5 58t60.5 22q40 0 55 -20q-29 -25 -29 -66q0 -34 20 -53t58 -19q69 0 104 58t35 162q0 49 1 72q-18 -50 -57.5 -77t-96.5 -27q-84 0 -131 59.5t-47 189.5q0 126 56.5 202.5t184.5 76.5q61 0 116.5 -17t91.5 -49v-418
q0 -143 -70 -207t-191 -64q-79 0 -131.5 29zM337.5 109.5q29.5 52.5 29.5 139.5l1 210q-14 12 -37 19t-48 7q-69 0 -94.5 -63.5t-25.5 -184.5q0 -99 19.5 -139.5t67.5 -40.5q58 0 87.5 52.5z" />
    <glyph glyph-name="h" unicode="h" horiz-adv-x="568" 
d="M520 13q-29 -27 -67 -27q-30 0 -49 17t-19 46v258q0 83 -18 123.5t-64 40.5q-50 0 -83 -59.5t-33 -174.5q0 -114 3 -152t17 -73q-32 -26 -67 -26q-30 0 -49.5 18.5t-19.5 49.5v616q-1 28 14.5 43.5t41.5 17.5q24 3 45.5 -6t34.5 -19q-12 -39 -16 -88.5t-5 -127.5v-68
q21 51 60.5 78.5t95.5 27.5q82 0 121.5 -51t39.5 -152v-189q0 -76 17 -123z" />
    <glyph glyph-name="i" unicode="i" horiz-adv-x="269" 
d="M83.5 604q-20.5 20 -20.5 49q0 30 20.5 50t49.5 20t49.5 -20t20.5 -50q0 -29 -20.5 -49t-49.5 -20t-49.5 20zM214 13q-10 -10 -27.5 -18.5t-40.5 -8.5q-28 0 -47 17t-19 46l-1 330q0 74 -17 123q29 26 66 26q30 0 48.5 -16.5t18.5 -45.5l2 -330q0 -79 17 -123z" />
    <glyph glyph-name="j" unicode="j" horiz-adv-x="266" 
d="M85.5 615.5q-19.5 19.5 -19.5 47.5t19.5 48t47.5 20q29 0 48.5 -19.5t19.5 -48.5q0 -28 -20 -47.5t-48 -19.5t-47.5 19.5zM-69 -205.5q-31 23.5 -31 62.5q0 25 16 43t46 18q16 0 25.5 -6t16.5 -19q-13 -23 -13 -43t10.5 -29.5t25.5 -9.5q34 0 43.5 45t9.5 136l1 386
q0 76 -18 124q32 26 67 26q29 0 48 -17t19 -46v-494q0 -89 -41.5 -144.5t-133.5 -55.5q-60 0 -91 23.5z" />
    <glyph glyph-name="k" unicode="k" horiz-adv-x="550" 
d="M531 57q0 -30 -25.5 -50.5t-63.5 -20.5q-32 0 -57.5 18.5t-40.5 55.5l-70 156q-45 -14 -86 -22q0 -87 3 -118.5t17 -63.5q-15 -12 -31 -19t-41 -7q-37 0 -51 18t-14 50v616q-1 29 18 45.5t49 16.5q39 0 68 -26q-10 -50 -13 -84t-4 -80l-2 -53l-1 -92q23 61 70 96t114 35
q63 0 94.5 -31t31.5 -81q0 -57 -40 -101t-102 -73q15 -3 27 -16t27 -36l37 -64q13 -24 20.5 -32t21.5 -8q16 0 28 10q16 -16 16 -39zM321 304q55 43 55 104q0 59 -52 59q-38 0 -69 -30.5t-49 -82.5t-18 -115q78 22 133 65z" />
    <glyph glyph-name="l" unicode="l" horiz-adv-x="285" 
d="M99 25q-30 35 -30 97v548q0 29 19.5 45.5t49.5 16.5q38 0 67 -26q-11 -39 -14 -80.5t-3 -114.5l-1 -379q0 -26 9.5 -39.5t26.5 -13.5q10 0 19 3.5t13 11.5q13 -17 13 -39q0 -28 -25 -46.5t-59 -18.5q-55 0 -85 35z" />
    <glyph glyph-name="m" unicode="m" horiz-adv-x="871" 
d="M823 13q-31 -27 -68 -27q-30 0 -49 17t-19 46l-1 258q0 81 -14 122.5t-57 41.5q-28 0 -53 -25.5t-41 -77t-17 -125.5v-107q0 -76 18 -123q-31 -27 -67 -27q-28 0 -47 17t-19 46v258q0 84 -16.5 124t-59.5 40q-46 0 -76 -60t-30 -177q0 -112 3 -149.5t17 -72.5
q-14 -11 -29 -18.5t-39 -7.5q-30 0 -49 18.5t-19 49.5l-1 331q0 53 -31 53q-8 0 -16 -4t-12 -12q-12 17 -12 39q0 30 20.5 48t55.5 18q45 0 70.5 -30.5t27.5 -91.5q19 58 59 90.5t100 32.5t94.5 -29.5t48.5 -89.5q19 56 59.5 87.5t98.5 31.5q152 0 152 -203v-189
q0 -76 18 -123z" />
    <glyph glyph-name="n" unicode="n" horiz-adv-x="583" 
d="M536 13q-31 -27 -69 -27q-30 0 -49 17t-19 46v258q-1 82 -18.5 121t-63.5 39q-50 0 -83 -58.5t-33 -171.5q0 -114 3 -152t17 -73q-11 -10 -28.5 -18t-38.5 -8q-31 0 -50.5 18.5t-19.5 49.5v332q-1 28 -7 40t-20 12q-19 0 -26 -13q-12 20 -12 40q0 28 19.5 45t54.5 17
q45 0 69.5 -29.5t25.5 -89.5q21 58 63 89t105 31q82 0 121.5 -51t39.5 -152v-189q3 -83 19 -123z" />
    <glyph glyph-name="o" unicode="o" horiz-adv-x="557" 
d="M100.5 57.5q-63.5 71.5 -63.5 199.5t63.5 199.5t178.5 71.5q114 0 177.5 -71.5t63.5 -199.5t-63.5 -199.5t-177.5 -71.5q-115 0 -178.5 71.5zM392 257q0 228 -113 228q-115 0 -115 -228t115 -228q113 0 113 228z" />
    <glyph glyph-name="p" unicode="p" horiz-adv-x="578" 
d="M498.5 457q41.5 -71 41.5 -180q0 -140 -57 -215.5t-158 -75.5q-46 0 -78 16.5t-47 48.5v-66q0 -110 20 -177q-11 -10 -28.5 -18t-40.5 -8q-29 0 -48.5 16.5t-19.5 44.5l1 540q0 27 -6.5 39t-20.5 12q-19 0 -26 -12q-12 20 -12 39q0 28 21 45t54 17q88 0 99 -130
q46 135 170 135q94 0 135.5 -71zM414 278q0 89 -18.5 137t-67.5 48q-60 0 -93 -76t-33 -179q0 -79 21 -119t73 -40q118 0 118 229z" />
    <glyph glyph-name="q" unicode="q" horiz-adv-x="547" 
d="M379 -218.5q-16 7.5 -30 19.5q11 36 15 79.5t4 96.5v44v74q-17 -51 -58 -80.5t-98 -29.5q-83 0 -129 62.5t-46 193.5q0 128 57 207.5t179 79.5q65 0 123 -18.5t91 -48.5v-624q0 -28 -18.5 -45t-51.5 -18q-22 0 -38 7.5zM312.5 83q28.5 33 42.5 83t14 102v183
q-16 11 -40 18.5t-50 7.5q-66 0 -90.5 -60t-24.5 -170q0 -100 18.5 -148.5t61.5 -48.5q40 0 68.5 33z" />
    <glyph glyph-name="r" unicode="r" horiz-adv-x="462" 
d="M410.5 498q34.5 -30 34.5 -82q0 -36 -22 -60.5t-54 -25.5q-18 0 -32 5t-22 13q11 19 14.5 33.5t3.5 34.5q0 55 -46 55q-39 0 -62.5 -59t-23.5 -175q0 -112 3 -149.5t17 -71.5q-10 -10 -27.5 -18t-40.5 -8q-29 0 -49 18t-20 50v328q0 28 -6.5 40t-20.5 12q-19 0 -26 -13
q-12 20 -12 40q0 28 19.5 45t54.5 17q42 0 67 -27.5t28 -81.5q35 110 132 110q56 0 90.5 -30z" />
    <glyph glyph-name="s" unicode="s" horiz-adv-x="474" 
d="M80 18.5q-48 32.5 -48 85.5q0 27 16.5 47t51.5 20q6 0 22 -2q-3 -12 -3 -25q0 -11 3 -25q5 -37 34.5 -62t80.5 -25q44 0 71.5 16.5t27.5 49.5t-24.5 53t-77.5 45q-13 5 -22 10q-53 25 -85 45t-55 53.5t-23 82.5q0 71 55 106.5t139 35.5q83 0 132 -25.5t49 -72.5
q0 -24 -13.5 -40.5t-42.5 -17.5h-10q-9 0 -23 2q2 36 -7 54q-7 26 -30 41t-59 15q-35 0 -59 -14.5t-24 -44.5q0 -27 16.5 -46.5t40 -33.5t67.5 -35q56 -27 88 -45.5t55.5 -49t23.5 -73.5q0 -66 -54.5 -111.5t-170.5 -45.5q-94 0 -142 32.5z" />
    <glyph glyph-name="t" unicode="t" horiz-adv-x="350" 
d="M277 514.5q42 1.5 48 2.5l-1 -29q-1 -15 -9.5 -22.5t-21.5 -7.5h-91v-32v-294q0 -53 46 -53q13 0 25.5 3.5t15.5 11.5q14 -18 14 -39q0 -29 -28 -47t-74 -18q-56 0 -86.5 35t-30.5 97v336h-15q-41 0 -60 -3l1 29q1 14 9.5 21.5t21.5 7.5h43v72q0 29 19 45.5t49 16.5
q23 0 40 -8t27 -18q-13 -52 -16 -108h12q20 0 62 1.5z" />
    <glyph glyph-name="u" unicode="u" horiz-adv-x="578" 
d="M561 50q0 -28 -19.5 -45.5t-54.5 -17.5q-46 0 -70.5 30.5t-24.5 89.5q-42 -121 -165 -121q-82 0 -119.5 47t-38.5 157v188q0 75 -17 124q30 26 68 26q30 0 49 -17t19 -46v-257q0 -88 17 -127t61 -39q49 0 80.5 60t31.5 176q0 113 -3 151t-16 73q29 26 68 26
q29 0 48.5 -18.5t19.5 -49.5l1 -332q0 -28 6.5 -40t19.5 -12q19 0 27 13q12 -19 12 -39z" />
    <glyph glyph-name="v" unicode="v" horiz-adv-x="505" 
d="M474.5 512.5q15.5 -12.5 15.5 -38.5q0 -32 -12 -63l-155 -407q-40 -18 -80 -18q-51 0 -63 40l-142 413q-1 2 -8.5 23.5t-20.5 35.5q25 27 68 27q28 0 46.5 -12t23.5 -35l117 -418l102 381q6 28 6 41q0 20 -8 30q30 13 61 13q34 0 49.5 -12.5z" />
    <glyph glyph-name="w" unicode="w" horiz-adv-x="818" 
d="M168 26l-125 413q-2 5 -10 25.5t-20 33.5q27 27 68 27q28 0 46.5 -12t23.5 -35l100 -410l85 373q5 33 5 41q0 20 -8 30q33 13 77 13q67 0 80 -42l97 -415l87 373q6 28 6 41q0 20 -8 30q16 7 29 10t32 3q34 0 50 -12.5t16 -38.5q0 -30 -13 -63l-138 -407q-42 -18 -80 -18
q-24 0 -41.5 9.5t-22.5 30.5l-94 381l-93 -403q-43 -18 -86 -18q-51 0 -63 40z" />
    <glyph glyph-name="x" unicode="x" horiz-adv-x="515" 
d="M496.5 96.5q11.5 -14.5 11.5 -34.5q0 -30 -25.5 -53.5t-67.5 -23.5q-29 0 -49 12.5t-35.5 35t-37.5 63.5l-48 87l-96 -162q-20 -35 -59 -35q-27 0 -45 17.5t-22 54.5q33 8 56 27.5t44 51.5l81 119l-76 130q-20 36 -40 36q-11 0 -20 -8t-11 -20q-17 7 -27.5 21.5
t-10.5 35.5q0 31 24.5 54t70.5 23q28 0 47 -11t34 -33t39 -67l41 -76l89 150q20 37 61 37q31 0 48 -17.5t21 -55.5q-33 -10 -55.5 -29.5t-44.5 -51.5l-79 -107l82 -141q10 -17 21.5 -26t21.5 -9q9 0 18 9t10 19q17 -8 28.5 -22.5z" />
    <glyph glyph-name="y" unicode="y" horiz-adv-x="555" 
d="M496 52q0 -148 -67.5 -213.5t-185.5 -65.5q-81 0 -133 24.5t-52 81.5q0 31 23 51t60 20q39 0 54 -20q-13 -9 -20 -23t-7 -27q0 -31 21 -49.5t56 -18.5q69 0 104.5 59t35.5 166q0 28 7 80q-43 -125 -168 -125q-78 0 -116 47.5t-39 156.5v182q0 75 -17 124q30 26 68 26
q30 0 49 -17t19 -46v-251q0 -86 16 -125t59 -39q51 0 83 58.5t32 171.5q0 112 -3 149.5t-16 72.5q29 26 68 26q29 0 48.5 -18.5t19.5 -49.5z" />
    <glyph glyph-name="z" unicode="z" horiz-adv-x="501" 
d="M471.5 136.5q14.5 -25.5 14.5 -48.5q0 -41 -36.5 -67.5t-100.5 -25.5l-210 5q-58 2 -92 -10l-15 26q0 28 5.5 45t21.5 34l293 338l-166 -13q-21 -1 -37 -10t-25 -21q-12 -16 -12 -33q0 -4 2 -12q-21 2 -31 7q-27 12 -41.5 35t-14.5 44q0 42 35.5 67.5t107.5 23.5l182 -6
q62 -2 92 9l13 -30q0 -28 -5 -45t-22 -37l-270 -318l164 6q26 1 43.5 11.5t25.5 25.5q8 14 8 28q0 9 -3 16q20 -3 31 -7q28 -12 42.5 -37.5z" />
    <glyph glyph-name="braceleft" unicode="{" horiz-adv-x="414" 
d="M154.5 -141q-44.5 36 -44.5 111q0 30 7 88q9 81 9 114q0 41 -15 61.5t-52 35.5v38q37 14 52 36.5t15 64.5q0 36 -9 115q-7 49 -7 75q0 75 44.5 111.5t127.5 36.5q33 0 59 -5.5t37 -12.5q5 -3 5 -15q0 -8 -2.5 -15t-7.5 -8q-27 9 -54 9q-44 0 -66.5 -21t-22.5 -70
q0 -25 7 -78q10 -70 10 -114q0 -108 -51 -125v-6q23 -7 37 -38t14 -85q0 -30 -4 -66.5t-5 -44.5q-8 -64 -8 -86q0 -48 23 -72t66 -24q24 0 54 10q5 -1 7.5 -8t2.5 -15q0 -12 -5 -15q-11 -7 -37 -12.5t-59 -5.5q-83 0 -127.5 36z" />
    <glyph glyph-name="bar" unicode="|" horiz-adv-x="338" 
d="M113 730h111v-867h-111v867z" />
    <glyph glyph-name="braceright" unicode="}" horiz-adv-x="413" 
d="M71.5 -171.5q-25.5 5.5 -37.5 12.5q-5 3 -5 14q0 8 3 15.5t8 8.5q28 -10 54 -10q43 0 66 24t23 72q0 22 -8 86q-1 8 -5 44.5t-4 66.5q0 54 14 85t37 38v6q-51 17 -51 125q0 44 10 114q7 53 7 78q0 49 -22.5 70t-66.5 21q-28 0 -54 -9q-5 1 -8 8.5t-3 15.5q0 11 5 14
q12 7 37.5 12.5t59.5 5.5q83 0 127 -36.5t44 -111.5q0 -26 -7 -75q-9 -79 -9 -115q0 -42 15 -64.5t52 -36.5v-38q-36 -15 -51.5 -35.5t-15.5 -61.5q0 -33 9 -114q7 -58 7 -88q0 -75 -44.5 -111t-126.5 -36q-34 0 -59.5 5.5z" />
    <glyph glyph-name="asciitilde" unicode="~" horiz-adv-x="505" 
d="M407.5 309q-26.5 -29 -67.5 -29q-23 0 -42.5 7.5t-47.5 23.5q-26 14 -44.5 21.5t-39.5 7.5q-50 0 -70 -47h-5q-15 0 -28 9q5 55 36 80t74 25q24 0 44.5 -7.5t46.5 -22.5t45 -22t41 -7q25 0 36.5 11t23.5 36q20 0 32 -9q-8 -48 -34.5 -77z" />
    <glyph glyph-name="uni00A0" unicode="&#xa0;" horiz-adv-x="287" 
 />
    <glyph glyph-name="exclamdown" unicode="&#xa1;" horiz-adv-x="308" 
d="M202 507.5q20 -20.5 20 -49.5t-20 -49.5t-49 -20.5q-30 0 -50.5 20.5t-20.5 49.5t20.5 49.5t50.5 20.5q29 0 49 -20.5zM152 -215q35 0 71 11l-25 523h-82l-31 -523q35 -11 67 -11z" />
    <glyph glyph-name="cent" unicode="&#xa2;" horiz-adv-x="515" 
d="M475 221q0 -12 -4 -27q-9 -33 -32.5 -57t-58.5 -38l20 -64q17 -55 30 -82q-6 -10 -18 -14q-3 -1 -9 -1q-13 0 -18 15l-42 135q-27 -6 -58 -6q-118 0 -182 70.5t-64 200.5q0 95 37 160t107 93l-14 46q-15 48 -31 82q3 4 7 7.5t12 6.5q3 1 9 1q12 0 18 -15l36 -117
q31 7 70 7q87 0 133.5 -36t46.5 -92q0 -39 -23.5 -62t-61.5 -23q-19 0 -36 5.5t-27 16.5q30 23 30 73q0 39 -19.5 57t-52.5 18q-25 0 -45 -12l126 -407q37 8 63 32t35 58q16 -7 16 -31zM322 157l-118 382q-39 -55 -39 -167q0 -111 40.5 -163t114.5 -52h2z" />
    <glyph glyph-name="sterling" unicode="&#xa3;" horiz-adv-x="510" 
d="M483 66q0 -27 -11 -46.5t-32 -19.5h-406v35q48 68 65.5 110t17.5 94q0 13 -2 41h-30q-34 0 -60 -2l1 28q1 14 9.5 22t21.5 8h53l-3 22q-10 78 -10 111q0 131 64 181t155 50q69 0 108 -27t39 -64q0 -62 -58 -62q-13 0 -24 3q0 52 -21.5 80.5t-55.5 28.5q-41 0 -65.5 -30.5
t-24.5 -113.5q0 -39 4 -76.5t5 -45.5l6 -57h33q21 0 59 1t59 2l-1 -29q-1 -14 -10 -22t-22 -8h-115v-3q0 -88 -32 -144t-103 -87q102 0 193.5 21t179.5 64q13 -23 13 -65z" />
    <glyph glyph-name="currency" unicode="&#xa4;" horiz-adv-x="605" 
d="M545 151q-2 -6 -5 -12t-10 -13q-10 -12 -21 -12q-8 0 -14 7l-56 54q-61 -44 -138 -44q-40 0 -76.5 13t-65.5 36l-3 -3q-47 -47 -57 -66q-2 1 -10.5 4.5t-15.5 11.5q-12 11 -12 20q0 5 7 14l54 55q-46 60 -46 139q0 82 50 143l-1 1q-21 20 -39 36t-27 21q6 17 16 27
q11 11 21 11q7 0 14 -7l55 -53q59 45 138 45q82 0 144 -49l1 1q48 53 56 66q7 -2 13 -5t13 -10q12 -12 12 -22q0 -7 -7 -14l-52 -53q45 -59 45 -138q0 -83 -51 -144l2 -2q44 -44 66 -58zM374 216.5q33 20.5 52 56.5t19 82t-19.5 82t-52.5 56.5t-72 20.5t-71.5 -20.5
t-52 -56.5t-19.5 -82t19.5 -82t53 -56.5t72.5 -20.5q38 0 71 20.5z" />
    <glyph glyph-name="yen" unicode="&#xa5;" horiz-adv-x="583" 
d="M538 580l-158 -273l42 1q21 1 42.5 1t33.5 1l-1 -29q0 -9 -5 -16h6l-1 -28q-1 -14 -10 -22t-22 -8h-113v-71q0 -76 18 -123q-10 -10 -28.5 -18.5t-40.5 -8.5q-30 0 -49.5 17t-19.5 46v158h-90q-13 0 -30 -1t-30 -3l1 29q0 10 5 17h-6l1 29q1 14 9.5 21.5t21.5 7.5h91
l-152 300q-21 37 -46 62q13 14 35 26t50 12q33 0 50.5 -16.5t33.5 -50.5l139 -302l129 282q10 24 10 42q0 19 -12 33q31 12 68 12q27 0 41 -15t15 -38q0 -27 -28 -74z" />
    <glyph glyph-name="brokenbar" unicode="&#xa6;" horiz-adv-x="338" 
d="M113 730h111v-366h-111v366zM113 228h111v-365h-111v365z" />
    <glyph glyph-name="section" unicode="&#xa7;" horiz-adv-x="472" 
d="M80 -81q-48 33 -48 86q0 27 16 46.5t50 19.5q5 0 21 -2q-3 -12 -3 -23q0 -12 3 -26q5 -39 35 -64t82 -25q45 0 73 17t28 50q0 26 -16.5 45t-39.5 31t-70 33q-54 26 -85.5 46t-54 53t-22.5 82q0 51 27.5 84t75.5 47q-49 27 -76 62.5t-27 88.5q0 71 54.5 105.5t139.5 34.5
q82 0 130.5 -25.5t48.5 -72.5q0 -23 -13 -39.5t-41 -17.5h-9q-8 0 -24 2q1 5 1 15q0 23 -7 38q-7 27 -30.5 42t-61.5 15q-36 0 -60 -15t-24 -45q0 -27 16.5 -47t40 -34t67.5 -35q58 -28 89 -46t55 -48t24 -73q0 -46 -28 -84.5t-88 -54.5q56 -30 86 -62t30 -81
q0 -41 -22.5 -76.5t-72.5 -57.5t-129 -22q-93 0 -141 33zM317 234.5q20 16.5 20 46.5q0 34 -29 55.5t-90 50.5q-30 -2 -47.5 -18t-17.5 -44q0 -36 29 -60t84 -49q31 2 51 18.5z" />
    <glyph glyph-name="dieresis" unicode="&#xa8;" horiz-adv-x="600" 
d="M155 602q-17 17 -17 40q0 24 17 40.5t41 16.5q23 0 40 -16.5t17 -40.5q0 -23 -17 -40t-40 -17q-24 0 -41 17zM341 602q-17 17 -17 40q0 24 17 40.5t40 16.5q24 0 41 -16.5t17 -40.5q0 -23 -17.5 -40t-40.5 -17t-40 17z" />
    <glyph glyph-name="copyright" unicode="&#xa9;" horiz-adv-x="810" 
d="M225.5 36.5q-82.5 48.5 -130.5 132t-48 181.5t48 180.5t130.5 131t180.5 48.5q97 0 179.5 -48.5t130.5 -131.5t48 -180q0 -98 -48 -181.5t-130.5 -132t-179.5 -48.5q-98 0 -180.5 48.5zM560.5 76.5q71.5 42.5 113 115t41.5 158.5t-41.5 158t-113 114t-155.5 42
q-85 0 -156 -42t-113 -114t-42 -158q0 -87 42 -159.5t113 -114.5t156 -42q84 0 155.5 42.5zM271.5 187.5q-48.5 57.5 -48.5 162.5q0 104 50 161.5t140 57.5q56 0 99.5 -19.5t43.5 -52.5q0 -18 -17 -32.5t-46 -13.5q-5 46 -25 67.5t-55 21.5q-102 0 -102 -190
q0 -96 24.5 -143t74.5 -47q37 0 61.5 24t31.5 72q4 1 13 1q21 0 36 -11t15 -31q0 -40 -48 -62.5t-113 -22.5q-86 0 -134.5 57.5z" />
    <glyph glyph-name="ordfeminine" unicode="&#xaa;" horiz-adv-x="400" 
d="M395 412q0 -21 -17 -34.5t-46 -13.5q-30 0 -54.5 19.5t-24.5 51.5q0 7 1 11q-21 -38 -55.5 -60.5t-79.5 -22.5q-42 0 -67 20t-25 57q0 44 35 71.5t87 40.5q48 11 103 13v17q0 53 -15 78.5t-50 25.5q-23 0 -37.5 -11.5t-14.5 -35.5q0 -34 25 -48q-16 -16 -48 -16
q-31 0 -49.5 17.5t-18.5 43.5q0 39 39.5 60.5t108.5 21.5q80 0 115.5 -33t35.5 -109v-108q0 -34 24 -34q5 0 10.5 2t8.5 5q9 -12 9 -29zM202 439.5q22 14.5 37 39.5t15 56q-57 0 -85 -13q-21 -9 -33 -24.5t-12 -33.5q0 -17 8.5 -28t26.5 -11q21 0 43 14.5z" />
    <glyph glyph-name="guillemotleft" unicode="&#xab;" horiz-adv-x="720" 
d="M407 243v-5l268 -189l-31 -42l-353 197q-3 8 -3 32q0 30 3 37l353 213l31 -46zM140 243v-5l268 -189l-31 -42l-353 197q-3 8 -3 32q0 30 3 37l353 213l31 -46z" />
    <glyph glyph-name="logicalnot" unicode="&#xac;" horiz-adv-x="538" 
d="M461 395v-165q-17 -7 -30 -7t-31 7v101h-338q-6 17 -6 32q0 17 6 32h399z" />
    <glyph glyph-name="uni00AD" unicode="&#xad;" horiz-adv-x="399" 
d="M359 293v-70h-320v70h320z" />
    <glyph glyph-name="registered" unicode="&#xae;" horiz-adv-x="810" 
d="M585.5 661.5q82.5 -48.5 130.5 -131.5t48 -180q0 -98 -48 -181.5t-130.5 -132t-179.5 -48.5q-98 0 -180.5 48.5t-130.5 132t-48 181.5t48 180.5t130.5 131t180.5 48.5q97 0 179.5 -48.5zM560.5 76.5q71.5 42.5 113 115t41.5 158.5q0 85 -42 157t-113 114.5t-155 42.5
q-85 0 -156 -42t-113 -114t-42 -158q0 -87 42 -159.5t113 -114.5t156 -42q84 0 155.5 42.5zM587 189q8 0 14 5q5 -13 5 -22q0 -20 -15.5 -33t-38.5 -13q-31 0 -48 22t-37 67l-23 51q-13 31 -29.5 44t-46.5 13l-31 1v-106q0 -48 11 -74q-22 -19 -47 -19q-19 0 -32 11.5
t-13 30.5v309q0 49 -11 79q41 18 117 18q100 0 148 -27t48 -88q0 -44 -27.5 -74.5t-74.5 -41.5q22 -6 35.5 -19t24.5 -34l30 -58q13 -24 20.5 -32.5t16.5 -9.5h4zM372 353q46 2 73 29.5t27 70.5q0 89 -104 90h-31v-189q11 -1 35 -1z" />
    <glyph glyph-name="macron" unicode="&#xaf;" horiz-adv-x="600" 
d="M409 656q4 -18 4 -28q0 -9 -4 -27h-276q-4 12 -4 27q0 16 4 28h276z" />
    <glyph glyph-name="degree" unicode="&#xb0;" horiz-adv-x="375" 
d="M121.5 472q-30.5 17 -48.5 46.5t-18 64.5q0 34 18 63t48.5 46.5t66.5 17.5t66.5 -17.5t48.5 -46.5t18 -63q0 -35 -18 -64.5t-48.5 -46.5t-66.5 -17t-66.5 17zM235 533q20 21 20 50t-20 49.5t-47 20.5q-28 0 -47.5 -20.5t-19.5 -49.5t19.5 -50t47.5 -21q27 0 47 21z" />
    <glyph glyph-name="plusminus" unicode="&#xb1;" horiz-adv-x="577" 
d="M90 352q-6 17 -6 32q0 17 6 32h166v117q17 6 32 6q17 0 32 -6v-117h167q6 -15 6 -32q0 -15 -6 -32h-167v-117q-15 -6 -32 -6q-15 0 -32 6v117h-166zM487 182q6 -15 6 -32q0 -15 -6 -32h-397q-6 17 -6 32q0 17 6 32h397z" />
    <glyph glyph-name="uni00B2" unicode="&#xb2;" horiz-adv-x="415" 
d="M33 247q-4 10 -4 21q0 9 3 18q50 32 97.5 70t93.5 102.5t46 137.5q0 33 -18.5 57t-54.5 24q-45 0 -61.5 -38t-18.5 -93q-43 0 -61.5 21t-18.5 47q0 41 46 68.5t122 27.5q75 0 122 -31.5t47 -92.5q0 -75 -52.5 -142t-120 -111t-102.5 -51q57 2 150 21.5t126 40.5
q8 -7 13 -24t5 -36q0 -22 -6.5 -37t-17.5 -16h-325q-6 6 -10 16z" />
    <glyph glyph-name="uni00B3" unicode="&#xb3;" horiz-adv-x="424" 
d="M64.5 248q-37.5 25 -37.5 53q0 21 15.5 38.5t54.5 17.5q4 -42 22 -72.5t74 -30.5q43 0 69 26.5t26 70.5q0 57 -48 83t-120 26v34q75 5 111.5 38t36.5 73q0 35 -16 53.5t-51 18.5q-77 0 -79 -100q-42 -1 -56.5 14.5t-14.5 32.5q0 39 40.5 62.5t116.5 23.5q67 0 117.5 -25
t50.5 -87q0 -41 -35 -73.5t-89 -46.5q144 -21 144 -116q0 -64 -53.5 -101.5t-143.5 -37.5q-97 0 -134.5 25z" />
    <glyph glyph-name="uni00B5" unicode="&#xb5;" horiz-adv-x="584" 
d="M567 50q0 -28 -20 -45.5t-55 -17.5q-44 0 -69 30t-26 88q-21 -58 -62.5 -88.5t-102.5 -30.5q-30 0 -54 6v-28q4 -97 33 -156q-10 -10 -27.5 -18t-40.5 -8q-30 0 -49 16.5t-19 44.5v535q0 76 -18 124q32 26 68 26q30 0 49 -17t19 -46l1 -257q0 -89 16.5 -127.5t61.5 -38.5
q49 0 80.5 60t31.5 176q0 113 -3 151t-17 73q32 26 68 26q29 0 48.5 -18.5t19.5 -49.5l1 -332q0 -28 6.5 -40t20.5 -12q18 0 26 13q13 -19 13 -39z" />
    <glyph glyph-name="paragraph" unicode="&#xb6;" horiz-adv-x="774" 
d="M686 -120q11 -42 30 -46q-8 -14 -31 -21.5t-49 -7.5q-29 0 -53.5 27t-24.5 70v511q0 116 -52.5 182.5t-149.5 66.5q-99 0 -143.5 -57.5t-44.5 -135.5q0 -85 41 -129t105 -39v105q0 74 -17 123q29 26 66 26q27 0 44 -16.5t17 -45.5v-357q0 -76 18 -123q-9 -10 -25 -18.5
t-36 -8.5q-29 0 -48 17t-19 46v203q-10 -1 -30 -1q-62 0 -115.5 25t-86 74t-32.5 118q0 94 64.5 168t241.5 74q153 0 236 -74.5t83 -215.5v-444q0 -54 11 -96z" />
    <glyph glyph-name="periodcentered" unicode="&#xb7;" horiz-adv-x="300" 
d="M100.5 239.5q-20.5 20.5 -20.5 49.5t20.5 49.5t49.5 20.5t49.5 -20.5t20.5 -49.5t-20.5 -49.5t-49.5 -20.5t-49.5 20.5z" />
    <glyph glyph-name="cedilla" unicode="&#xb8;" horiz-adv-x="600" 
d="M295 -54q49 1 78 -19t29 -55q0 -42 -31.5 -67t-87.5 -25q-67 0 -96 33q-2 9 2.5 23t9.5 17q13 -11 24.5 -17.5t34.5 -6.5q21 0 32 11t11 31q0 19 -13 31.5t-38 12.5l-13 -1l19 100h51z" />
    <glyph glyph-name="uni00B9" unicode="&#xb9;" horiz-adv-x="347" 
d="M188 239q-15 14 -15 38v318q0 18 -2 28q-26 -29 -54.5 -53t-45.5 -24q-41 0 -41 66q3 1 111 70q13 8 20.5 13l10.5 7q18 8 38 8q25 0 40.5 -14t15.5 -39v-317q0 -53 14 -93q-22 -22 -55 -22q-22 0 -37 14z" />
    <glyph glyph-name="ordmasculine" unicode="&#xba;" horiz-adv-x="397" 
d="M71 406.5q-45 47.5 -45 132.5q0 84 45.5 131.5t126.5 47.5t126.5 -47.5t45.5 -131.5q0 -85 -45.5 -132.5t-126.5 -47.5q-82 0 -127 47.5zM274 539q0 146 -75 146q-40 0 -58.5 -36t-18.5 -110t19 -111t58 -37q75 0 75 148z" />
    <glyph glyph-name="guillemotright" unicode="&#xbb;" horiz-adv-x="720" 
d="M343 486l353 -213q3 -7 3 -37q0 -24 -3 -32l-353 -197l-31 42l268 189v5l-268 197zM76 486l353 -213q3 -7 3 -37q0 -24 -3 -32l-353 -197l-31 42l268 189v5l-268 197z" />
    <glyph glyph-name="onequarter" unicode="&#xbc;" horiz-adv-x="965" 
d="M188 239q-15 14 -15 38v318q0 18 -2 28q-26 -29 -54.5 -53t-45.5 -24q-41 0 -41 66q3 1 111 70q13 8 20.5 13l10.5 7q18 8 38 8q25 0 40.5 -14t15.5 -39v-317q0 -53 14 -93q-22 -22 -55 -22q-22 0 -37 14zM598 711q40 0 56 -27l-343 -698q-5 -1 -13 -1q-32 0 -54 23
l339 702q5 1 15 1zM875 107v-2q0 -53 13 -92q-8 -9 -22 -16.5t-32 -7.5q-23 0 -37.5 14.5t-14.5 39.5v64h-215q-13 1 -21.5 12t-8.5 24q0 11 6 20l222 289q7 9 23 16t31 7q25 0 40.5 -14t15.5 -39v-255q35 3 68 13q6 -13 6 -29q0 -23 -12 -44h-62zM782 165v227l-180 -227
h180z" />
    <glyph glyph-name="onehalf" unicode="&#xbd;" horiz-adv-x="1001" 
d="M188 239q-15 14 -15 38v318q0 18 -2 28q-26 -29 -54.5 -53t-45.5 -24q-41 0 -41 66q3 1 111 70q13 8 20.5 13l10.5 7q18 8 38 8q25 0 40.5 -14t15.5 -39v-317q0 -53 14 -93q-22 -22 -55 -22q-22 0 -37 14zM609 711q40 0 56 -27l-343 -698q-5 -1 -13 -1q-32 0 -54 23
l339 702q5 1 15 1zM614.5 16q-4.5 10 -4.5 21q0 9 3 18q50 32 97.5 70t93.5 102.5t46 137.5q0 34 -18.5 58t-54.5 24q-45 0 -61.5 -38t-18.5 -94q-43 0 -61.5 21t-18.5 47q0 42 46 69t122 27t122.5 -31t46.5 -93q0 -75 -52.5 -142t-120 -111t-102.5 -51q58 2 151 22.5
t125 40.5q8 -7 13 -24.5t5 -36.5q0 -22 -6.5 -37t-17.5 -16h-324q-6 6 -10.5 16z" />
    <glyph glyph-name="threequarters" unicode="&#xbe;" horiz-adv-x="1040" 
d="M64.5 248q-37.5 25 -37.5 53q0 21 15.5 38.5t54.5 17.5q4 -42 22 -72.5t74 -30.5q43 0 69 26.5t26 70.5q0 57 -48 83t-120 26v34q75 5 111.5 38t36.5 73q0 35 -16 53.5t-51 18.5q-77 0 -79 -100q-42 -1 -56.5 14.5t-14.5 32.5q0 39 40.5 62.5t116.5 23.5q67 0 117.5 -25
t50.5 -87q0 -41 -35 -73.5t-89 -46.5q144 -21 144 -116q0 -64 -53.5 -101.5t-143.5 -37.5q-97 0 -134.5 25zM676 711q40 0 56 -27l-343 -698q-5 -1 -13 -1q-32 0 -54 23l339 702q5 1 15 1zM954 107v-2q0 -53 13 -92q-8 -9 -22 -16.5t-32 -7.5q-23 0 -37.5 14.5t-14.5 39.5
v64h-215q-13 1 -21.5 12t-8.5 24q0 11 6 20l222 289q7 9 23 16t31 7q25 0 40.5 -14t15.5 -39v-255q35 3 68 13q6 -13 6 -29q0 -23 -12 -44h-62zM861 165v227l-180 -227h180z" />
    <glyph glyph-name="questiondown" unicode="&#xbf;" horiz-adv-x="500" 
d="M365 512.5q20 -20.5 20 -49.5t-20 -49.5t-50 -20.5q-29 0 -49 20.5t-20 49.5t20 49.5t49 20.5q30 0 50 -20.5zM350 168q-50 -2 -92.5 -22.5t-68.5 -61.5t-26 -99q0 -66 32.5 -110t97.5 -44q62 0 87.5 45t27.5 107q55 0 76 -17t21 -46q0 -36 -26.5 -66.5t-77 -48.5
t-117.5 -18q-111 0 -179.5 49t-68.5 154q0 71 34.5 120.5t86 75t105.5 29.5v110h88v-157z" />
    <glyph glyph-name="Agrave" unicode="&#xc0;" horiz-adv-x="616" 
d="M611 14q-23 -27 -70 -27q-29 0 -48.5 12t-24.5 35l-48 174h-234l-37 -137q-7 -24 -7 -42q0 -20 10 -29q-33 -13 -66 -13q-35 0 -51 12t-16 39q0 20 12 63l200 593q54 17 101 17q54 0 66 -40l183 -598q13 -40 30 -59zM401 274l-100 364l-98 -364h198zM188 867.5
q22 23.5 39 31.5l143 -128q0 -4 -7 -14.5t-13 -13.5l-191 81q7 20 29 43.5z" />
    <glyph glyph-name="Aacute" unicode="&#xc1;" horiz-adv-x="616" 
d="M611 14q-23 -27 -70 -27q-29 0 -48.5 12t-24.5 35l-48 174h-234l-37 -137q-7 -24 -7 -42q0 -20 10 -29q-33 -13 -66 -13q-35 0 -51 12t-16 39q0 20 12 63l200 593q54 17 101 17q54 0 66 -40l183 -598q13 -40 30 -59zM401 274l-100 364l-98 -364h198zM274 743
q-6 3 -13 13.5t-6 14.5l142 128q17 -8 39 -31.5t30 -43.5z" />
    <glyph glyph-name="Acircumflex" unicode="&#xc2;" horiz-adv-x="616" 
d="M611 14q-23 -27 -70 -27q-29 0 -48.5 12t-24.5 35l-48 174h-234l-37 -137q-7 -24 -7 -42q0 -20 10 -29q-33 -13 -66 -13q-35 0 -51 12t-16 39q0 20 12 63l200 593q54 17 101 17q54 0 66 -40l183 -598q13 -40 30 -59zM401 274l-100 364l-98 -364h198zM476 763
q-1 -5 -9 -14.5t-14 -12.5l-143 79l-144 -79q-6 3 -13.5 12.5t-9.5 14.5l135 127q8 4 33 4q22 0 30 -4z" />
    <glyph glyph-name="Atilde" unicode="&#xc3;" horiz-adv-x="616" 
d="M611 14q-23 -27 -70 -27q-29 0 -48.5 12t-24.5 35l-48 174h-234l-37 -137q-7 -24 -7 -42q0 -20 10 -29q-33 -13 -66 -13q-35 0 -51 12t-16 39q0 20 12 63l200 593q54 17 101 17q54 0 66 -40l183 -598q13 -40 30 -59zM401 274l-100 364l-98 -364h198zM437 784
q-23 -27 -59 -27q-17 0 -32.5 5.5t-37.5 16.5q-21 11 -35.5 16t-29.5 5q-25 0 -39 -10.5t-23 -28.5l-4 -1q-12 0 -24 10q6 53 32.5 76.5t63.5 23.5q17 0 32.5 -5.5t37.5 -16.5t36.5 -16t31.5 -5q22 0 32.5 9.5t20.5 28.5q11 0 16.5 -1.5t11.5 -6.5q-8 -46 -31 -73z" />
    <glyph glyph-name="Adieresis" unicode="&#xc4;" horiz-adv-x="616" 
d="M611 14q-23 -27 -70 -27q-29 0 -48.5 12t-24.5 35l-48 174h-234l-37 -137q-7 -24 -7 -42q0 -20 10 -29q-33 -13 -66 -13q-35 0 -51 12t-16 39q0 20 12 63l200 593q54 17 101 17q54 0 66 -40l183 -598q13 -40 30 -59zM401 274l-100 364l-98 -364h198zM165.5 775.5
q-18.5 18.5 -18.5 45.5t18.5 46t45.5 19t46 -19.5t19 -45.5q0 -27 -19 -45.5t-46 -18.5t-45.5 18.5zM371 775.5q-19 18.5 -19 45.5q0 26 19 45.5t46 19.5q26 0 45 -19.5t19 -45.5q0 -27 -19 -45.5t-45 -18.5q-27 0 -46 18.5z" />
    <glyph glyph-name="Aring" unicode="&#xc5;" horiz-adv-x="616" 
d="M611 14q-23 -27 -70 -27q-29 0 -48.5 12t-24.5 35l-48 174h-234l-37 -137q-7 -24 -7 -42q0 -20 10 -29q-33 -13 -66 -13q-35 0 -51 12t-16 39q0 20 12 63l200 593q54 17 101 17q54 0 66 -40l183 -598q13 -40 30 -59zM401 274l-100 364l-98 -364h198zM386.5 892.5
q26.5 -23.5 26.5 -61.5q-1 -40 -28.5 -64t-71.5 -24q-43 0 -69.5 23t-26.5 61q0 40 27.5 64.5t72.5 24.5q43 0 69.5 -23.5zM285.5 868q-10.5 -14 -10.5 -39t10.5 -39t29.5 -14t29.5 13.5t10.5 39.5t-10.5 39.5t-29.5 13.5t-29.5 -14z" />
    <glyph glyph-name="AE" unicode="&#xc6;" horiz-adv-x="862" 
d="M811 84q6 -16 6 -35q0 -20 -7.5 -34.5t-21.5 -14.5h-318q-30 0 -49 16.5t-19 45.5v146h-187l-62 -137q-7 -14 -7 -42q0 -19 8 -29q-16 -6 -30 -9.5t-34 -3.5q-34 0 -52.5 15.5t-18.5 42.5q0 24 16 56l303 576q28 8 78.5 13.5t86.5 5.5h282q9 0 14 -9t5 -24
q0 -21 -9 -43.5t-23 -28.5q-118 43 -251 46v-242h223q4 -13 4 -31q0 -15 -4 -35h-222v-270q65 1 144.5 15.5t128.5 32.5q10 -7 16 -23zM402 274l-1 271q0 40 -4 63l-152 -334h157z" />
    <glyph glyph-name="Ccedilla" unicode="&#xc7;" horiz-adv-x="611" 
d="M538.5 52q-33.5 -31 -88 -48t-114.5 -18l-7 -40q49 1 78 -19t29 -55q0 -42 -31.5 -67t-87.5 -25q-67 0 -96 33q-2 9 2.5 23t9.5 17q13 -11 24.5 -17.5t34.5 -6.5q21 0 32 11t11 31q0 19 -13 31.5t-38 12.5l-13 -1l14 75q-112 15 -173 108t-61 251q0 173 75 267.5
t210 94.5q55 0 105.5 -14t81.5 -40t31 -60q0 -28 -25.5 -49t-70.5 -20q-16 139 -120 139q-78 0 -116.5 -79t-38.5 -239t37.5 -239t114.5 -79q54 0 90 39t46 115q6 1 19 1q34 0 58 -16t24 -45q0 -41 -33.5 -72z" />
    <glyph glyph-name="Egrave" unicode="&#xc8;" horiz-adv-x="549" 
d="M497 84q6 -16 6 -35q0 -20 -7.5 -34.5t-21.5 -14.5h-318q-30 0 -49 16.5t-19 45.5l-1 483q0 72 -17 121q21 19 43 24.5t64 5.5h294q19 0 19 -32q0 -22 -9 -44.5t-23 -28.5q-120 43 -251 46v-242h223q4 -15 4 -33q0 -20 -4 -33h-222v-270q65 1 144.5 16t128.5 32
q10 -7 16 -23zM154 867.5q22 23.5 39 31.5l143 -128q0 -4 -7 -14.5t-13 -13.5l-191 81q7 20 29 43.5z" />
    <glyph glyph-name="Eacute" unicode="&#xc9;" horiz-adv-x="549" 
d="M497 84q6 -16 6 -35q0 -20 -7.5 -34.5t-21.5 -14.5h-318q-30 0 -49 16.5t-19 45.5l-1 483q0 72 -17 121q21 19 43 24.5t64 5.5h294q19 0 19 -32q0 -22 -9 -44.5t-23 -28.5q-120 43 -251 46v-242h223q4 -15 4 -33q0 -20 -4 -33h-222v-270q65 1 144.5 16t128.5 32
q10 -7 16 -23zM240 743q-6 3 -13 13.5t-6 14.5l142 128q17 -8 39 -31.5t30 -43.5z" />
    <glyph glyph-name="Ecircumflex" unicode="&#xca;" horiz-adv-x="549" 
d="M497 84q6 -16 6 -35q0 -20 -7.5 -34.5t-21.5 -14.5h-318q-30 0 -49 16.5t-19 45.5l-1 483q0 72 -17 121q21 19 43 24.5t64 5.5h294q19 0 19 -32q0 -22 -9 -44.5t-23 -28.5q-120 43 -251 46v-242h223q4 -15 4 -33q0 -20 -4 -33h-222v-270q65 1 144.5 16t128.5 32
q10 -7 16 -23zM442 763q-1 -5 -9 -14.5t-14 -12.5l-143 79l-144 -79q-6 3 -13.5 12.5t-9.5 14.5l135 127q8 4 33 4q22 0 30 -4z" />
    <glyph glyph-name="Edieresis" unicode="&#xcb;" horiz-adv-x="549" 
d="M497 84q6 -16 6 -35q0 -20 -7.5 -34.5t-21.5 -14.5h-318q-30 0 -49 16.5t-19 45.5l-1 483q0 72 -17 121q21 19 43 24.5t64 5.5h294q19 0 19 -32q0 -22 -9 -44.5t-23 -28.5q-120 43 -251 46v-242h223q4 -15 4 -33q0 -20 -4 -33h-222v-270q65 1 144.5 16t128.5 32
q10 -7 16 -23zM131.5 775.5q-18.5 18.5 -18.5 45.5t18.5 46t45.5 19t46 -19.5t19 -45.5q0 -27 -19 -45.5t-46 -18.5t-45.5 18.5zM337 775.5q-19 18.5 -19 45.5q0 26 19 45.5t46 19.5q26 0 45 -19.5t19 -45.5q0 -27 -19 -45.5t-45 -18.5q-27 0 -46 18.5z" />
    <glyph glyph-name="Igrave" unicode="&#xcc;" horiz-adv-x="295" 
d="M107 3q-19 17 -19 46l-1 511q0 73 -17 122q10 10 28 18t41 8q30 0 49.5 -16.5t19.5 -44.5v-511q0 -79 17 -123q-10 -10 -28 -18.5t-41 -8.5q-30 0 -49 17zM10 867.5q22 23.5 39 31.5l143 -128q0 -4 -7 -14.5t-13 -13.5l-191 81q7 20 29 43.5z" />
    <glyph glyph-name="Iacute" unicode="&#xcd;" horiz-adv-x="295" 
d="M107 3q-19 17 -19 46l-1 511q0 73 -17 122q10 10 28 18t41 8q30 0 49.5 -16.5t19.5 -44.5v-511q0 -79 17 -123q-10 -10 -28 -18.5t-41 -8.5q-30 0 -49 17zM96 743q-6 3 -13 13.5t-6 14.5l142 128q17 -8 39 -31.5t30 -43.5z" />
    <glyph glyph-name="Icircumflex" unicode="&#xce;" horiz-adv-x="295" 
d="M107 3q-19 17 -19 46l-1 511q0 73 -17 122q10 10 28 18t41 8q30 0 49.5 -16.5t19.5 -44.5v-511q0 -79 17 -123q-10 -10 -28 -18.5t-41 -8.5q-30 0 -49 17zM298 763q-1 -5 -9 -14.5t-14 -12.5l-143 79l-144 -79q-6 3 -13.5 12.5t-9.5 14.5l135 127q8 4 33 4q22 0 30 -4z
" />
    <glyph glyph-name="Idieresis" unicode="&#xcf;" horiz-adv-x="295" 
d="M107 3q-19 17 -19 46l-1 511q0 73 -17 122q10 10 28 18t41 8q30 0 49.5 -16.5t19.5 -44.5v-511q0 -79 17 -123q-10 -10 -28 -18.5t-41 -8.5q-30 0 -49 17zM-12.5 775.5q-18.5 18.5 -18.5 45.5t18.5 46t45.5 19t46 -19.5t19 -45.5q0 -27 -19 -45.5t-46 -18.5t-45.5 18.5z
M193 775.5q-19 18.5 -19 45.5q0 26 19 45.5t46 19.5q26 0 45 -19.5t19 -45.5q0 -27 -19 -45.5t-45 -18.5q-27 0 -46 18.5z" />
    <glyph glyph-name="Eth" unicode="&#xd0;" horiz-adv-x="651" 
d="M518.5 618.5q80.5 -88.5 80.5 -262.5q0 -182 -78.5 -269t-225.5 -87h-142q-32 0 -51 16.5t-19 45.5l-1 264h-60q-4 11 -4 24q0 12 4 23h60v187v36t-3 57t-9 45q69 9 218 9q150 0 230.5 -88.5zM423.5 114q42.5 70 42.5 234q0 163 -43.5 238.5t-134.5 75.5h-85v-289h133
q3 -12 3 -23q0 -12 -3 -24h-133v-282h85q93 0 135.5 70z" />
    <glyph glyph-name="Ntilde" unicode="&#xd1;" horiz-adv-x="697" 
d="M70 2q18 48 18 134l-1 423q0 82 -7 134q6 7 22 11t33 4q23 0 30 -7q44 -63 131 -179q99 -132 162 -222t89 -143l-30 459q-1 5 -1 15q0 32 14 52t40 23q29 2 50 -11q-10 -35 -10 -112l-1 -450q0 -87 6 -131q-6 -7 -21 -11t-30 -4q-19 0 -30 6q-257 302 -379 527l25 -464
q2 -30 -17 -50t-43 -20q-25 0 -50 16zM473 784q-23 -27 -59 -27q-17 0 -32.5 5.5t-37.5 16.5q-21 11 -35.5 16t-29.5 5q-25 0 -39 -10.5t-23 -28.5l-4 -1q-12 0 -24 10q6 53 32.5 76.5t63.5 23.5q17 0 32.5 -5.5t37.5 -16.5t36.5 -16t31.5 -5q22 0 32.5 9.5t20.5 28.5
q11 0 16.5 -1.5t11.5 -6.5q-8 -46 -31 -73z" />
    <glyph glyph-name="Ograve" unicode="&#xd2;" horiz-adv-x="661" 
d="M122 77q-71 91 -71 271t71 271t209 91q137 0 208 -91t71 -271t-71 -271t-208 -91q-138 0 -209 91zM442.5 106.5q35.5 76.5 35.5 241.5t-35.5 241.5t-111.5 76.5t-112 -76.5t-36 -241.5t36 -241.5t112 -76.5t111.5 76.5zM205 867.5q22 23.5 39 31.5l143 -128
q0 -4 -7 -14.5t-13 -13.5l-191 81q7 20 29 43.5z" />
    <glyph glyph-name="Oacute" unicode="&#xd3;" horiz-adv-x="661" 
d="M122 77q-71 91 -71 271t71 271t209 91q137 0 208 -91t71 -271t-71 -271t-208 -91q-138 0 -209 91zM442.5 106.5q35.5 76.5 35.5 241.5t-35.5 241.5t-111.5 76.5t-112 -76.5t-36 -241.5t36 -241.5t112 -76.5t111.5 76.5zM291 743q-6 3 -13 13.5t-6 14.5l142 128
q17 -8 39 -31.5t30 -43.5z" />
    <glyph glyph-name="Ocircumflex" unicode="&#xd4;" horiz-adv-x="661" 
d="M122 77q-71 91 -71 271t71 271t209 91q137 0 208 -91t71 -271t-71 -271t-208 -91q-138 0 -209 91zM442.5 106.5q35.5 76.5 35.5 241.5t-35.5 241.5t-111.5 76.5t-112 -76.5t-36 -241.5t36 -241.5t112 -76.5t111.5 76.5zM493 763q-1 -5 -9 -14.5t-14 -12.5l-143 79
l-144 -79q-6 3 -13.5 12.5t-9.5 14.5l135 127q8 4 33 4q22 0 30 -4z" />
    <glyph glyph-name="Otilde" unicode="&#xd5;" horiz-adv-x="661" 
d="M122 77q-71 91 -71 271t71 271t209 91q137 0 208 -91t71 -271t-71 -271t-208 -91q-138 0 -209 91zM442.5 106.5q35.5 76.5 35.5 241.5t-35.5 241.5t-111.5 76.5t-112 -76.5t-36 -241.5t36 -241.5t112 -76.5t111.5 76.5zM455 784q-23 -27 -59 -27q-17 0 -32.5 5.5
t-37.5 16.5q-21 11 -35.5 16t-29.5 5q-25 0 -39 -10.5t-23 -28.5l-4 -1q-12 0 -24 10q6 53 32.5 76.5t63.5 23.5q17 0 32.5 -5.5t37.5 -16.5t36.5 -16t31.5 -5q22 0 32.5 9.5t20.5 28.5q11 0 16.5 -1.5t11.5 -6.5q-8 -46 -31 -73z" />
    <glyph glyph-name="Odieresis" unicode="&#xd6;" horiz-adv-x="661" 
d="M122 77q-71 91 -71 271t71 271t209 91q137 0 208 -91t71 -271t-71 -271t-208 -91q-138 0 -209 91zM442.5 106.5q35.5 76.5 35.5 241.5t-35.5 241.5t-111.5 76.5t-112 -76.5t-36 -241.5t36 -241.5t112 -76.5t111.5 76.5zM182.5 775.5q-18.5 18.5 -18.5 45.5t18.5 46
t45.5 19t46 -19.5t19 -45.5q0 -27 -19 -45.5t-46 -18.5t-45.5 18.5zM388 775.5q-19 18.5 -19 45.5q0 26 19 45.5t46 19.5q26 0 45 -19.5t19 -45.5q0 -27 -19 -45.5t-45 -18.5q-27 0 -46 18.5z" />
    <glyph glyph-name="multiply" unicode="&#xd7;" horiz-adv-x="500" 
d="M295 348l132 -133q-13 -31 -44 -46l-133 133l-133 -133q-30 15 -44 46l132 132l-132 132q13 30 45 46l132 -133l133 133q31 -15 44 -45z" />
    <glyph glyph-name="Oslash" unicode="&#xd8;" horiz-adv-x="654" 
d="M610 348q0 -180 -71 -271t-208 -91q-107 0 -175 56l-34 -57q-25 0 -39 23l40 67q-72 93 -72 273t71 271t209 91q88 0 149 -37l32 53q26 1 39 -23l-35 -58q94 -89 94 -297zM194 194l243 406q-35 66 -106 66q-76 0 -112 -76.5t-36 -241.5q0 -88 11 -154zM442.5 106.5
q35.5 76.5 35.5 241.5q0 122 -20 199l-249 -416q35 -101 122 -101q76 0 111.5 76.5z" />
    <glyph glyph-name="Ugrave" unicode="&#xd9;" horiz-adv-x="670" 
d="M593 306q0 -320 -258 -320q-126 0 -188.5 78t-62.5 242v254q0 74 -18 122q11 10 29 18t40 8q29 0 48.5 -16.5t19.5 -44.5v-346q0 -142 31.5 -206.5t100.5 -64.5q71 0 105 68t34 203v259q0 77 -17 122q10 10 27.5 18t40.5 8q29 0 48.5 -16.5t19.5 -44.5v-341zM210 867.5
q22 23.5 39 31.5l143 -128q0 -4 -7 -14.5t-13 -13.5l-191 81q7 20 29 43.5z" />
    <glyph glyph-name="Uacute" unicode="&#xda;" horiz-adv-x="670" 
d="M593 306q0 -320 -258 -320q-126 0 -188.5 78t-62.5 242v254q0 74 -18 122q11 10 29 18t40 8q29 0 48.5 -16.5t19.5 -44.5v-346q0 -142 31.5 -206.5t100.5 -64.5q71 0 105 68t34 203v259q0 77 -17 122q10 10 27.5 18t40.5 8q29 0 48.5 -16.5t19.5 -44.5v-341zM296 743
q-6 3 -13 13.5t-6 14.5l142 128q17 -8 39 -31.5t30 -43.5z" />
    <glyph glyph-name="Ucircumflex" unicode="&#xdb;" horiz-adv-x="670" 
d="M593 306q0 -320 -258 -320q-126 0 -188.5 78t-62.5 242v254q0 74 -18 122q11 10 29 18t40 8q29 0 48.5 -16.5t19.5 -44.5v-346q0 -142 31.5 -206.5t100.5 -64.5q71 0 105 68t34 203v259q0 77 -17 122q10 10 27.5 18t40.5 8q29 0 48.5 -16.5t19.5 -44.5v-341zM498 763
q-1 -5 -9 -14.5t-14 -12.5l-143 79l-144 -79q-6 3 -13.5 12.5t-9.5 14.5l135 127q8 4 33 4q22 0 30 -4z" />
    <glyph glyph-name="Udieresis" unicode="&#xdc;" horiz-adv-x="670" 
d="M593 306q0 -320 -258 -320q-126 0 -188.5 78t-62.5 242v254q0 74 -18 122q11 10 29 18t40 8q29 0 48.5 -16.5t19.5 -44.5v-346q0 -142 31.5 -206.5t100.5 -64.5q71 0 105 68t34 203v259q0 77 -17 122q10 10 27.5 18t40.5 8q29 0 48.5 -16.5t19.5 -44.5v-341zM187.5 775.5
q-18.5 18.5 -18.5 45.5t18.5 46t45.5 19t46 -19.5t19 -45.5q0 -27 -19 -45.5t-46 -18.5t-45.5 18.5zM393 775.5q-19 18.5 -19 45.5q0 26 19 45.5t46 19.5q26 0 45 -19.5t19 -45.5q0 -27 -19 -45.5t-45 -18.5q-27 0 -46 18.5z" />
    <glyph glyph-name="Yacute" unicode="&#xdd;" horiz-adv-x="584" 
d="M352 259v-123q0 -76 18 -123q-10 -10 -28.5 -18.5t-40.5 -8.5q-30 0 -49.5 17t-19.5 46v211q-8 10 -19 32l-160 315q-21 37 -46 62q13 14 35 26t50 12q33 0 50.5 -16.5t33.5 -50.5l139 -302l129 282q10 24 10 42q0 19 -12 33q31 12 68 12q27 0 41 -15t15 -38
q0 -27 -28 -74zM273 743q-6 3 -13 13.5t-6 14.5l142 128q17 -8 39 -31.5t30 -43.5z" />
    <glyph glyph-name="Thorn" unicode="&#xde;" horiz-adv-x="577" 
d="M464.5 530.5q74.5 -49.5 74.5 -156.5q0 -112 -79 -172t-228 -60h-24v-6q0 -79 17 -123q-10 -10 -28 -18.5t-41 -8.5q-30 0 -49 17t-19 46l-1 511q0 73 -17 122q10 10 28 18t41 8q30 0 49 -16.5t19 -44.5v-67h34q149 0 223.5 -49.5zM365.5 232q41.5 47 41.5 134
q0 82 -38.5 126t-126.5 44h-35l1 -351h21q95 0 136.5 47z" />
    <glyph glyph-name="germandbls" unicode="&#xdf;" horiz-adv-x="612" 
d="M90.5 8q-19.5 18 -19.5 50v351q-1 164 63 243.5t187 79.5q91 0 138.5 -40t47.5 -106q0 -44 -17.5 -73.5t-50.5 -63.5q-23 -24 -33 -38.5t-10 -31.5q0 -22 17 -38.5t55 -40.5l19 -12q46 -29 72 -61t26 -83q0 -66 -46.5 -111t-141.5 -45q-75 0 -112.5 29.5t-37.5 79.5
q0 23 10 41.5t38 19.5h6q9 0 13 -1q-3 -16 -3 -36q0 -37 20 -58t55 -21t55.5 21t20.5 55q0 35 -19.5 55.5t-56.5 42.5q-37 21 -58 37t-34.5 39t-13.5 56q0 45 21.5 74t62.5 63q36 30 53.5 53t17.5 54q0 41 -29.5 69.5t-83.5 28.5q-60 0 -89 -35.5t-37 -88.5t-8 -134v-140
q0 -117 1 -162.5t5 -67t14 -46.5q-10 -9 -29.5 -17.5t-40.5 -8.5q-28 0 -47.5 18z" />
    <glyph glyph-name="agrave" unicode="&#xe0;" horiz-adv-x="562" 
d="M555 55q0 -28 -24 -46.5t-63 -18.5q-48 0 -74 32.5t-29 105.5q-29 -63 -80 -100.5t-118 -37.5q-58 0 -93.5 31t-35.5 86q0 64 48.5 105t123.5 62q67 19 148 19v26q0 85 -22.5 126t-74.5 41q-35 0 -57 -18.5t-22 -58.5q0 -23 8.5 -43t28.5 -30q-10 -11 -27.5 -16.5
t-37.5 -5.5q-42 0 -67.5 26t-25.5 65q0 59 55.5 91t151.5 32q110 0 161 -51.5t51 -165.5v-179q0 -53 34 -53q7 0 15 3.5t13 11.5q13 -19 13 -39zM285 93q33 25 55 67.5t22 92.5q-80 2 -127 -21q-31 -15 -49 -40t-18 -57q0 -29 13 -48t40 -19q31 0 64 25zM163 727q38 9 59 6
l90 -156q-5 -3 -18.5 -5.5t-25.5 -2.5l-153 141q10 8 48 17z" />
    <glyph glyph-name="aacute" unicode="&#xe1;" horiz-adv-x="562" 
d="M555 55q0 -28 -24 -46.5t-63 -18.5q-48 0 -74 32.5t-29 105.5q-29 -63 -80 -100.5t-118 -37.5q-58 0 -93.5 31t-35.5 86q0 64 48.5 105t123.5 62q67 19 148 19v26q0 85 -22.5 126t-74.5 41q-35 0 -57 -18.5t-22 -58.5q0 -23 8.5 -43t28.5 -30q-10 -11 -27.5 -16.5
t-37.5 -5.5q-42 0 -67.5 26t-25.5 65q0 59 55.5 91t151.5 32q110 0 161 -51.5t51 -165.5v-179q0 -53 34 -53q7 0 15 3.5t13 11.5q13 -19 13 -39zM285 93q33 25 55 67.5t22 92.5q-80 2 -127 -21q-31 -15 -49 -40t-18 -57q0 -29 13 -48t40 -19q31 0 64 25zM277 569
q-12 0 -25.5 2.5t-18.5 5.5l90 156q21 3 59.5 -6t47.5 -17z" />
    <glyph glyph-name="acircumflex" unicode="&#xe2;" horiz-adv-x="562" 
d="M555 55q0 -28 -24 -46.5t-63 -18.5q-48 0 -74 32.5t-29 105.5q-29 -63 -80 -100.5t-118 -37.5q-58 0 -93.5 31t-35.5 86q0 64 48.5 105t123.5 62q67 19 148 19v26q0 85 -22.5 126t-74.5 41q-35 0 -57 -18.5t-22 -58.5q0 -23 8.5 -43t28.5 -30q-10 -11 -27.5 -16.5
t-37.5 -5.5q-42 0 -67.5 26t-25.5 65q0 59 55.5 91t151.5 32q110 0 161 -51.5t51 -165.5v-179q0 -53 34 -53q7 0 15 3.5t13 11.5q13 -19 13 -39zM285 93q33 25 55 67.5t22 92.5q-80 2 -127 -21q-31 -15 -49 -40t-18 -57q0 -29 13 -48t40 -19q31 0 64 25zM122.5 571
q-13.5 5 -14.5 9l127 152q8 4 33 4q22 0 30 -4l127 -152q-1 -4 -15.5 -9t-22.5 -5l-120 84l-123 -84q-8 0 -21.5 5z" />
    <glyph glyph-name="atilde" unicode="&#xe3;" horiz-adv-x="562" 
d="M555 55q0 -28 -24 -46.5t-63 -18.5q-48 0 -74 32.5t-29 105.5q-29 -63 -80 -100.5t-118 -37.5q-58 0 -93.5 31t-35.5 86q0 64 48.5 105t123.5 62q67 19 148 19v26q0 85 -22.5 126t-74.5 41q-35 0 -57 -18.5t-22 -58.5q0 -23 8.5 -43t28.5 -30q-10 -11 -27.5 -16.5
t-37.5 -5.5q-42 0 -67.5 26t-25.5 65q0 59 55.5 91t151.5 32q110 0 161 -51.5t51 -165.5v-179q0 -53 34 -53q7 0 15 3.5t13 11.5q13 -19 13 -39zM285 93q33 25 55 67.5t22 92.5q-80 2 -127 -21q-31 -15 -49 -40t-18 -57q0 -29 13 -48t40 -19q31 0 64 25zM388 607
q-22 -27 -57 -27q-16 0 -30.5 6t-33.5 17q-18 11 -32 16.5t-29 5.5q-43 0 -60 -40h-2q-5 0 -12.5 2.5t-11.5 6.5q5 51 30.5 74.5t60.5 23.5q17 0 32 -6t34 -18q21 -11 34 -16.5t28 -5.5q22 0 33 10.5t19 30.5q9 0 14.5 -1.5t10.5 -6.5q-6 -45 -28 -72z" />
    <glyph glyph-name="adieresis" unicode="&#xe4;" horiz-adv-x="562" 
d="M555 55q0 -28 -24 -46.5t-63 -18.5q-48 0 -74 32.5t-29 105.5q-29 -63 -80 -100.5t-118 -37.5q-58 0 -93.5 31t-35.5 86q0 64 48.5 105t123.5 62q67 19 148 19v26q0 85 -22.5 126t-74.5 41q-35 0 -57 -18.5t-22 -58.5q0 -23 8.5 -43t28.5 -30q-10 -11 -27.5 -16.5
t-37.5 -5.5q-42 0 -67.5 26t-25.5 65q0 59 55.5 91t151.5 32q110 0 161 -51.5t51 -165.5v-179q0 -53 34 -53q7 0 15 3.5t13 11.5q13 -19 13 -39zM285 93q33 25 55 67.5t22 92.5q-80 2 -127 -21q-31 -15 -49 -40t-18 -57q0 -29 13 -48t40 -19q31 0 64 25zM138 602
q-17 17 -17 40q0 24 17 40.5t41 16.5q23 0 40 -16.5t17 -40.5q0 -23 -17 -40t-40 -17q-24 0 -41 17zM324 602q-17 17 -17 40q0 24 17 40.5t40 16.5q24 0 41 -16.5t17 -40.5q0 -23 -17.5 -40t-40.5 -17t-40 17z" />
    <glyph glyph-name="aring" unicode="&#xe5;" horiz-adv-x="562" 
d="M555 55q0 -28 -24 -46.5t-63 -18.5q-48 0 -74 32.5t-29 105.5q-29 -63 -80 -100.5t-118 -37.5q-58 0 -93.5 31t-35.5 86q0 64 48.5 105t123.5 62q67 19 148 19v26q0 85 -22.5 126t-74.5 41q-35 0 -57 -18.5t-22 -58.5q0 -23 8.5 -43t28.5 -30q-10 -11 -27.5 -16.5
t-37.5 -5.5q-42 0 -67.5 26t-25.5 65q0 59 55.5 91t151.5 32q110 0 161 -51.5t51 -165.5v-179q0 -53 34 -53q7 0 15 3.5t13 11.5q13 -19 13 -39zM285 93q33 25 55 67.5t22 92.5q-80 2 -127 -21q-31 -15 -49 -40t-18 -57q0 -29 13 -48t40 -19q31 0 64 25zM343.5 709.5
q26.5 -23.5 26.5 -61.5q-1 -40 -28.5 -64t-71.5 -24q-43 0 -69.5 23t-26.5 61q0 40 27.5 64.5t72.5 24.5q43 0 69.5 -23.5zM242.5 685q-10.5 -14 -10.5 -39t10.5 -39t29.5 -14t29.5 13.5t10.5 39.5t-10.5 39.5t-29.5 13.5t-29.5 -14z" />
    <glyph glyph-name="ae" unicode="&#xe6;" horiz-adv-x="850" 
d="M807 116q0 -10 -8 -31q-19 -47 -68 -73t-118 -26q-89 0 -150 43t-84 124q-29 -74 -83.5 -118.5t-128.5 -44.5q-58 0 -93.5 31t-35.5 86q0 64 48.5 105t123.5 62q67 19 152 19v26q0 85 -22.5 126t-75.5 41q-37 0 -59.5 -18.5t-22.5 -58.5q0 -23 8.5 -43t28.5 -30
q-10 -11 -27.5 -16.5t-37.5 -5.5q-42 0 -67.5 26t-25.5 65q0 59 56 91t155 32q109 0 158 -71q66 71 185 71q87 0 142.5 -39t55.5 -111q0 -73 -59 -112.5t-160 -39.5q-57 0 -101 5q7 -91 46 -130.5t106 -39.5q53 0 91 21.5t55 58.5q16 -8 16 -25zM522.5 429
q-31.5 -56 -31.5 -156q28 -2 45 -2q65 0 107.5 26.5t42.5 99.5q0 48 -21.5 68t-54.5 20q-56 0 -87.5 -56zM285.5 93q33.5 25 56.5 67.5t23 92.5q-83 2 -130 -21q-31 -15 -49 -40t-18 -57q0 -29 13 -48t40 -19q31 0 64.5 25z" />
    <glyph glyph-name="ccedilla" unicode="&#xe7;" horiz-adv-x="511" 
d="M474 125q0 -12 -4 -27q-14 -50 -59.5 -79t-111.5 -33l-7 -40q49 1 78 -19t29 -55q0 -42 -31.5 -67t-87.5 -25q-67 0 -96 33q-2 9 2.5 23t9.5 17q13 -11 24.5 -17.5t34.5 -6.5q21 0 32 11t11 31q0 19 -13 31.5t-38 12.5l-13 -1l14 74q-102 11 -156.5 80t-54.5 189
q0 127 66 199t186 72q87 0 133.5 -36t46.5 -92q0 -38 -24 -61.5t-61 -23.5q-19 0 -36.5 5.5t-26.5 16.5q29 22 29 73q0 39 -19.5 57t-51.5 18q-53 0 -84 -55t-31 -154q0 -111 40.5 -163t114.5 -52q53 0 90 26t48 69q17 -7 17 -31z" />
    <glyph glyph-name="egrave" unicode="&#xe8;" horiz-adv-x="522" 
d="M479 115q0 -12 -7 -30q-19 -47 -68.5 -73t-118.5 -26q-115 0 -181.5 71t-66.5 200q0 127 65 199t186 72q87 0 142.5 -39t55.5 -111q0 -73 -59.5 -112.5t-159.5 -39.5q-57 0 -101 5q7 -91 46 -130.5t106 -39.5q53 0 91 22t54 58q16 -7 16 -26zM195.5 429
q-31.5 -56 -31.5 -156q28 -2 44 -2q66 0 108 26t42 100q0 88 -75 88q-56 0 -87.5 -56zM164 727q38 9 59 6l90 -156q-5 -3 -18.5 -5.5t-25.5 -2.5l-153 141q10 8 48 17z" />
    <glyph glyph-name="eacute" unicode="&#xe9;" horiz-adv-x="522" 
d="M479 115q0 -12 -7 -30q-19 -47 -68.5 -73t-118.5 -26q-115 0 -181.5 71t-66.5 200q0 127 65 199t186 72q87 0 142.5 -39t55.5 -111q0 -73 -59.5 -112.5t-159.5 -39.5q-57 0 -101 5q7 -91 46 -130.5t106 -39.5q53 0 91 22t54 58q16 -7 16 -26zM195.5 429
q-31.5 -56 -31.5 -156q28 -2 44 -2q66 0 108 26t42 100q0 88 -75 88q-56 0 -87.5 -56zM278 569q-12 0 -25.5 2.5t-18.5 5.5l90 156q21 3 59.5 -6t47.5 -17z" />
    <glyph glyph-name="ecircumflex" unicode="&#xea;" horiz-adv-x="522" 
d="M479 115q0 -12 -7 -30q-19 -47 -68.5 -73t-118.5 -26q-115 0 -181.5 71t-66.5 200q0 127 65 199t186 72q87 0 142.5 -39t55.5 -111q0 -73 -59.5 -112.5t-159.5 -39.5q-57 0 -101 5q7 -91 46 -130.5t106 -39.5q53 0 91 22t54 58q16 -7 16 -26zM195.5 429
q-31.5 -56 -31.5 -156q28 -2 44 -2q66 0 108 26t42 100q0 88 -75 88q-56 0 -87.5 -56zM123.5 571q-13.5 5 -14.5 9l127 152q8 4 33 4q22 0 30 -4l127 -152q-1 -4 -15.5 -9t-22.5 -5l-120 84l-123 -84q-8 0 -21.5 5z" />
    <glyph glyph-name="edieresis" unicode="&#xeb;" horiz-adv-x="522" 
d="M479 115q0 -12 -7 -30q-19 -47 -68.5 -73t-118.5 -26q-115 0 -181.5 71t-66.5 200q0 127 65 199t186 72q87 0 142.5 -39t55.5 -111q0 -73 -59.5 -112.5t-159.5 -39.5q-57 0 -101 5q7 -91 46 -130.5t106 -39.5q53 0 91 22t54 58q16 -7 16 -26zM195.5 429
q-31.5 -56 -31.5 -156q28 -2 44 -2q66 0 108 26t42 100q0 88 -75 88q-56 0 -87.5 -56zM139 602q-17 17 -17 40q0 24 17 40.5t41 16.5q23 0 40 -16.5t17 -40.5q0 -23 -17 -40t-40 -17q-24 0 -41 17zM325 602q-17 17 -17 40q0 24 17 40.5t40 16.5q24 0 41 -16.5t17 -40.5
q0 -23 -17.5 -40t-40.5 -17t-40 17z" />
    <glyph glyph-name="igrave" unicode="&#xec;" horiz-adv-x="262" 
d="M210 13q-30 -27 -69 -27q-28 0 -47 17t-19 46v330q0 75 -18 123q32 26 67 26q30 0 48.5 -16.5t18.5 -45.5l1 -330q0 -79 18 -123zM15 727q38 9 59 6l90 -156q-5 -3 -18.5 -5.5t-25.5 -2.5l-153 141q10 8 48 17z" />
    <glyph glyph-name="iacute" unicode="&#xed;" horiz-adv-x="262" 
d="M210 13q-30 -27 -69 -27q-28 0 -47 17t-19 46v330q0 75 -18 123q32 26 67 26q30 0 48.5 -16.5t18.5 -45.5l1 -330q0 -79 18 -123zM130 569q-12 0 -25.5 2.5t-18.5 5.5l90 156q21 3 59.5 -6t47.5 -17z" />
    <glyph glyph-name="icircumflex" unicode="&#xee;" horiz-adv-x="262" 
d="M210 13q-30 -27 -69 -27q-28 0 -47 17t-19 46v330q0 75 -18 123q32 26 67 26q30 0 48.5 -16.5t18.5 -45.5l1 -330q0 -79 18 -123zM-24.5 571q-13.5 5 -14.5 9l127 152q8 4 33 4q22 0 30 -4l127 -152q-1 -4 -15.5 -9t-22.5 -5l-120 84l-123 -84q-8 0 -21.5 5z" />
    <glyph glyph-name="idieresis" unicode="&#xef;" horiz-adv-x="262" 
d="M210 13q-30 -27 -69 -27q-28 0 -47 17t-19 46v330q0 75 -18 123q32 26 67 26q30 0 48.5 -16.5t18.5 -45.5l1 -330q0 -79 18 -123zM-9 602q-17 17 -17 40q0 24 17 40.5t41 16.5q23 0 40 -16.5t17 -40.5q0 -23 -17 -40t-40 -17q-24 0 -41 17zM177 602q-17 17 -17 40
q0 24 17 40.5t40 16.5q24 0 41 -16.5t17 -40.5q0 -23 -17.5 -40t-40.5 -17t-40 17z" />
    <glyph glyph-name="eth" unicode="&#xf0;" horiz-adv-x="540" 
d="M476 491.5q26 -91.5 26 -199.5q0 -137 -61.5 -221.5t-181.5 -84.5q-122 0 -172 69t-50 186q0 119 56 191t156 72q43 0 74.5 -13t51.5 -36q-13 74 -69 132l-70 -41q-21 13 -24 39l56 33q-25 19 -52.5 29t-51.5 10q-14 0 -22 -2q7 78 78 78q84 0 148 -56l72 43
q24 -10 24 -40l-63 -37q49 -60 75 -151.5zM348 106q26 54 26 169q0 78 -21 123t-75 45q-58 0 -86 -53t-28 -143q0 -98 22 -146.5t79 -48.5t83 54z" />
    <glyph glyph-name="ntilde" unicode="&#xf1;" horiz-adv-x="583" 
d="M536 13q-31 -27 -69 -27q-30 0 -49 17t-19 46v258q-1 82 -18.5 121t-63.5 39q-50 0 -83 -58.5t-33 -171.5q0 -114 3 -152t17 -73q-11 -10 -28.5 -18t-38.5 -8q-31 0 -50.5 18.5t-19.5 49.5v332q-1 28 -7 40t-20 12q-19 0 -26 -13q-12 20 -12 40q0 28 19.5 45t54.5 17
q45 0 69.5 -29.5t25.5 -89.5q21 58 63 89t105 31q82 0 121.5 -51t39.5 -152v-189q3 -83 19 -123zM425 607q-22 -27 -57 -27q-16 0 -30.5 6t-33.5 17q-18 11 -32 16.5t-29 5.5q-43 0 -60 -40h-2q-5 0 -12.5 2.5t-11.5 6.5q5 51 30.5 74.5t60.5 23.5q17 0 32 -6t34 -18
q21 -11 34 -16.5t28 -5.5q22 0 33 10.5t19 30.5q9 0 14.5 -1.5t10.5 -6.5q-6 -45 -28 -72z" />
    <glyph glyph-name="ograve" unicode="&#xf2;" horiz-adv-x="557" 
d="M100.5 57.5q-63.5 71.5 -63.5 199.5t63.5 199.5t178.5 71.5q114 0 177.5 -71.5t63.5 -199.5t-63.5 -199.5t-177.5 -71.5q-115 0 -178.5 71.5zM392 257q0 228 -113 228q-115 0 -115 -228t115 -228q113 0 113 228zM171 727q38 9 59 6l90 -156q-5 -3 -18.5 -5.5t-25.5 -2.5
l-153 141q10 8 48 17z" />
    <glyph glyph-name="oacute" unicode="&#xf3;" horiz-adv-x="557" 
d="M100.5 57.5q-63.5 71.5 -63.5 199.5t63.5 199.5t178.5 71.5q114 0 177.5 -71.5t63.5 -199.5t-63.5 -199.5t-177.5 -71.5q-115 0 -178.5 71.5zM392 257q0 228 -113 228q-115 0 -115 -228t115 -228q113 0 113 228zM285 569q-12 0 -25.5 2.5t-18.5 5.5l90 156q21 3 59.5 -6
t47.5 -17z" />
    <glyph glyph-name="ocircumflex" unicode="&#xf4;" horiz-adv-x="557" 
d="M100.5 57.5q-63.5 71.5 -63.5 199.5t63.5 199.5t178.5 71.5q114 0 177.5 -71.5t63.5 -199.5t-63.5 -199.5t-177.5 -71.5q-115 0 -178.5 71.5zM392 257q0 228 -113 228q-115 0 -115 -228t115 -228q113 0 113 228zM130.5 571q-13.5 5 -14.5 9l127 152q8 4 33 4q22 0 30 -4
l127 -152q-1 -4 -15.5 -9t-22.5 -5l-120 84l-123 -84q-8 0 -21.5 5z" />
    <glyph glyph-name="otilde" unicode="&#xf5;" horiz-adv-x="557" 
d="M100.5 57.5q-63.5 71.5 -63.5 199.5t63.5 199.5t178.5 71.5q114 0 177.5 -71.5t63.5 -199.5t-63.5 -199.5t-177.5 -71.5q-115 0 -178.5 71.5zM392 257q0 228 -113 228q-115 0 -115 -228t115 -228q113 0 113 228zM396 607q-22 -27 -57 -27q-16 0 -30.5 6t-33.5 17
q-18 11 -32 16.5t-29 5.5q-43 0 -60 -40h-2q-5 0 -12.5 2.5t-11.5 6.5q5 51 30.5 74.5t60.5 23.5q17 0 32 -6t34 -18q21 -11 34 -16.5t28 -5.5q22 0 33 10.5t19 30.5q9 0 14.5 -1.5t10.5 -6.5q-6 -45 -28 -72z" />
    <glyph glyph-name="odieresis" unicode="&#xf6;" horiz-adv-x="557" 
d="M100.5 57.5q-63.5 71.5 -63.5 199.5t63.5 199.5t178.5 71.5q114 0 177.5 -71.5t63.5 -199.5t-63.5 -199.5t-177.5 -71.5q-115 0 -178.5 71.5zM392 257q0 228 -113 228q-115 0 -115 -228t115 -228q113 0 113 228zM146 602q-17 17 -17 40q0 24 17 40.5t41 16.5
q23 0 40 -16.5t17 -40.5q0 -23 -17 -40t-40 -17q-24 0 -41 17zM332 602q-17 17 -17 40q0 24 17 40.5t40 16.5q24 0 41 -16.5t17 -40.5q0 -23 -17.5 -40t-40.5 -17t-40 17z" />
    <glyph glyph-name="divide" unicode="&#xf7;" horiz-adv-x="544" 
d="M238 480q-14 14 -14 34q0 21 14 35t34 14q21 0 35 -14t14 -35q0 -20 -14 -34t-35 -14q-20 0 -34 14zM471 380q6 -16 6 -33q0 -15 -6 -32h-398q-6 17 -6 32q0 17 6 33h398zM238 145q-14 14 -14 35q0 20 14 34.5t34 14.5q21 0 35 -14.5t14 -34.5q0 -21 -14 -35t-35 -14
q-20 0 -34 14z" />
    <glyph glyph-name="oslash" unicode="&#xf8;" horiz-adv-x="557" 
d="M500.5 380q19.5 -54 19.5 -123q0 -128 -63.5 -199.5t-177.5 -71.5q-69 0 -122 28l-23 -36q-30 2 -40 23l25 39q-40 35 -61 90t-21 127q0 128 63.5 199.5t178.5 71.5q73 0 127 -31l18 28q26 0 40 -23l-20 -32q37 -36 56.5 -90zM177 132l186 297q-27 56 -84 56
q-115 0 -115 -228q0 -76 13 -125zM392 257q0 69 -10 115l-185 -294q29 -49 82 -49q113 0 113 228z" />
    <glyph glyph-name="ugrave" unicode="&#xf9;" horiz-adv-x="578" 
d="M561 50q0 -28 -19.5 -45.5t-54.5 -17.5q-46 0 -70.5 30.5t-24.5 89.5q-42 -121 -165 -121q-82 0 -119.5 47t-38.5 157v188q0 75 -17 124q30 26 68 26q30 0 49 -17t19 -46v-257q0 -88 17 -127t61 -39q49 0 80.5 60t31.5 176q0 113 -3 151t-16 73q29 26 68 26
q29 0 48.5 -18.5t19.5 -49.5l1 -332q0 -28 6.5 -40t19.5 -12q19 0 27 13q12 -19 12 -39zM164 727q38 9 59 6l90 -156q-5 -3 -18.5 -5.5t-25.5 -2.5l-153 141q10 8 48 17z" />
    <glyph glyph-name="uacute" unicode="&#xfa;" horiz-adv-x="578" 
d="M561 50q0 -28 -19.5 -45.5t-54.5 -17.5q-46 0 -70.5 30.5t-24.5 89.5q-42 -121 -165 -121q-82 0 -119.5 47t-38.5 157v188q0 75 -17 124q30 26 68 26q30 0 49 -17t19 -46v-257q0 -88 17 -127t61 -39q49 0 80.5 60t31.5 176q0 113 -3 151t-16 73q29 26 68 26
q29 0 48.5 -18.5t19.5 -49.5l1 -332q0 -28 6.5 -40t19.5 -12q19 0 27 13q12 -19 12 -39zM278 569q-12 0 -25.5 2.5t-18.5 5.5l90 156q21 3 59.5 -6t47.5 -17z" />
    <glyph glyph-name="ucircumflex" unicode="&#xfb;" horiz-adv-x="578" 
d="M561 50q0 -28 -19.5 -45.5t-54.5 -17.5q-46 0 -70.5 30.5t-24.5 89.5q-42 -121 -165 -121q-82 0 -119.5 47t-38.5 157v188q0 75 -17 124q30 26 68 26q30 0 49 -17t19 -46v-257q0 -88 17 -127t61 -39q49 0 80.5 60t31.5 176q0 113 -3 151t-16 73q29 26 68 26
q29 0 48.5 -18.5t19.5 -49.5l1 -332q0 -28 6.5 -40t19.5 -12q19 0 27 13q12 -19 12 -39zM123.5 571q-13.5 5 -14.5 9l127 152q8 4 33 4q22 0 30 -4l127 -152q-1 -4 -15.5 -9t-22.5 -5l-120 84l-123 -84q-8 0 -21.5 5z" />
    <glyph glyph-name="udieresis" unicode="&#xfc;" horiz-adv-x="578" 
d="M561 50q0 -28 -19.5 -45.5t-54.5 -17.5q-46 0 -70.5 30.5t-24.5 89.5q-42 -121 -165 -121q-82 0 -119.5 47t-38.5 157v188q0 75 -17 124q30 26 68 26q30 0 49 -17t19 -46v-257q0 -88 17 -127t61 -39q49 0 80.5 60t31.5 176q0 113 -3 151t-16 73q29 26 68 26
q29 0 48.5 -18.5t19.5 -49.5l1 -332q0 -28 6.5 -40t19.5 -12q19 0 27 13q12 -19 12 -39zM139 602q-17 17 -17 40q0 24 17 40.5t41 16.5q23 0 40 -16.5t17 -40.5q0 -23 -17 -40t-40 -17q-24 0 -41 17zM325 602q-17 17 -17 40q0 24 17 40.5t40 16.5q24 0 41 -16.5t17 -40.5
q0 -23 -17.5 -40t-40.5 -17t-40 17z" />
    <glyph glyph-name="yacute" unicode="&#xfd;" horiz-adv-x="555" 
d="M496 52q0 -148 -67.5 -213.5t-185.5 -65.5q-81 0 -133 24.5t-52 81.5q0 31 23 51t60 20q39 0 54 -20q-13 -9 -20 -23t-7 -27q0 -31 21 -49.5t56 -18.5q69 0 104.5 59t35.5 166q0 28 7 80q-43 -125 -168 -125q-78 0 -116 47.5t-39 156.5v182q0 75 -17 124q30 26 68 26
q30 0 49 -17t19 -46v-251q0 -86 16 -125t59 -39q51 0 83 58.5t32 171.5q0 112 -3 149.5t-16 72.5q29 26 68 26q29 0 48.5 -18.5t19.5 -49.5zM287 569q-12 0 -25.5 2.5t-18.5 5.5l90 156q21 3 59.5 -6t47.5 -17z" />
    <glyph glyph-name="thorn" unicode="&#xfe;" horiz-adv-x="565" 
d="M485.5 457q41.5 -71 41.5 -180q0 -139 -57 -214.5t-157 -75.5q-46 0 -78 16.5t-47 47.5v-66q0 -109 19 -177q-10 -10 -27.5 -18t-40.5 -8q-30 0 -49 16.5t-19 44.5v827q0 29 14 44t39 17q24 3 45.5 -5.5t35.5 -19.5q-12 -39 -16 -88.5t-5 -127.5v-87q23 61 65 93t101 32
q94 0 135.5 -71zM401 278q0 89 -18.5 137t-67.5 48q-60 0 -93 -76t-33 -179q0 -79 21 -119t73 -40q118 0 118 229z" />
    <glyph glyph-name="ydieresis" unicode="&#xff;" horiz-adv-x="555" 
d="M496 52q0 -148 -67.5 -213.5t-185.5 -65.5q-81 0 -133 24.5t-52 81.5q0 31 23 51t60 20q39 0 54 -20q-13 -9 -20 -23t-7 -27q0 -31 21 -49.5t56 -18.5q69 0 104.5 59t35.5 166q0 28 7 80q-43 -125 -168 -125q-78 0 -116 47.5t-39 156.5v182q0 75 -17 124q30 26 68 26
q30 0 49 -17t19 -46v-251q0 -86 16 -125t59 -39q51 0 83 58.5t32 171.5q0 112 -3 149.5t-16 72.5q29 26 68 26q29 0 48.5 -18.5t19.5 -49.5zM148 602q-17 17 -17 40q0 24 17 40.5t41 16.5q23 0 40 -16.5t17 -40.5q0 -23 -17 -40t-40 -17q-24 0 -41 17zM334 602
q-17 17 -17 40q0 24 17 40.5t40 16.5q24 0 41 -16.5t17 -40.5q0 -23 -17.5 -40t-40.5 -17t-40 17z" />
    <glyph glyph-name="Amacron" unicode="&#x100;" horiz-adv-x="616" 
d="M611 14q-23 -27 -70 -27q-29 0 -48.5 12t-24.5 35l-48 174h-234l-37 -137q-7 -24 -7 -42q0 -20 10 -29q-33 -13 -66 -13q-35 0 -51 12t-16 39q0 20 12 63l200 593q54 17 101 17q54 0 66 -40l183 -598q13 -40 30 -59zM401 274l-100 364l-98 -364h198zM452 832q4 -18 4 -27
q0 -8 -4 -28h-276q-4 13 -4 28t4 27h276z" />
    <glyph glyph-name="amacron" unicode="&#x101;" horiz-adv-x="562" 
d="M555 55q0 -28 -24 -46.5t-63 -18.5q-48 0 -74 32.5t-29 105.5q-29 -63 -80 -100.5t-118 -37.5q-58 0 -93.5 31t-35.5 86q0 64 48.5 105t123.5 62q67 19 148 19v26q0 85 -22.5 126t-74.5 41q-35 0 -57 -18.5t-22 -58.5q0 -23 8.5 -43t28.5 -30q-10 -11 -27.5 -16.5
t-37.5 -5.5q-42 0 -67.5 26t-25.5 65q0 59 55.5 91t151.5 32q110 0 161 -51.5t51 -165.5v-179q0 -53 34 -53q7 0 15 3.5t13 11.5q13 -19 13 -39zM285 93q33 25 55 67.5t22 92.5q-80 2 -127 -21q-31 -15 -49 -40t-18 -57q0 -29 13 -48t40 -19q31 0 64 25zM409 656
q4 -18 4 -28q0 -9 -4 -27h-276q-4 12 -4 27q0 16 4 28h276z" />
    <glyph glyph-name="Abreve" unicode="&#x102;" horiz-adv-x="616" 
d="M611 14q-23 -27 -70 -27q-29 0 -48.5 12t-24.5 35l-48 174h-234l-37 -137q-7 -24 -7 -42q0 -20 10 -29q-33 -13 -66 -13q-35 0 -51 12t-16 39q0 20 12 63l200 593q54 17 101 17q54 0 66 -40l183 -598q13 -40 30 -59zM401 274l-100 364l-98 -364h198zM404.5 779
q-34.5 -35 -92.5 -35q-59 0 -93.5 36t-44.5 90q26 6 39 10q11 -37 38 -54t65 -17q77 0 102 71q19 -6 34 -9q-13 -57 -47.5 -92z" />
    <glyph glyph-name="abreve" unicode="&#x103;" horiz-adv-x="562" 
d="M555 55q0 -28 -24 -46.5t-63 -18.5q-48 0 -74 32.5t-29 105.5q-29 -63 -80 -100.5t-118 -37.5q-58 0 -93.5 31t-35.5 86q0 64 48.5 105t123.5 62q67 19 148 19v26q0 85 -22.5 126t-74.5 41q-35 0 -57 -18.5t-22 -58.5q0 -23 8.5 -43t28.5 -30q-10 -11 -27.5 -16.5
t-37.5 -5.5q-42 0 -67.5 26t-25.5 65q0 59 55.5 91t151.5 32q110 0 161 -51.5t51 -165.5v-179q0 -53 34 -53q7 0 15 3.5t13 11.5q13 -19 13 -39zM285 93q33 25 55 67.5t22 92.5q-80 2 -127 -21q-31 -15 -49 -40t-18 -57q0 -29 13 -48t40 -19q31 0 64 25zM385 728
q21 -5 35 -13q-36 -141 -151 -141q-66 0 -102 39.5t-49 100.5q15 10 38 14q15 -37 45.5 -57t70.5 -20q77 0 113 77z" />
    <glyph glyph-name="Aogonek" unicode="&#x104;" horiz-adv-x="616" 
d="M661 -98q0 -7 -2 -11q-12 -31 -45 -52t-79 -21q-37 0 -67.5 19t-30.5 60q0 58 69 96q-31 11 -38 41l-48 174h-234l-37 -137q-7 -24 -7 -42q0 -20 10 -29q-33 -13 -66 -13q-35 0 -51 12t-16 39q0 20 12 63l200 593q54 17 101 17q54 0 66 -40l183 -598q13 -40 30 -59
q-13 -15 -32 -21q-32 -18 -47.5 -37.5t-15.5 -44.5q0 -45 47 -45q53 0 84 56q14 -7 14 -20zM401 274l-100 364l-98 -364h198z" />
    <glyph glyph-name="aogonek" unicode="&#x105;" horiz-adv-x="562" 
d="M588 -96q0 -7 -2 -11q-12 -31 -45 -52t-79 -21q-37 0 -67.5 19t-30.5 60q0 58 69 96q-64 20 -68 133q-29 -63 -80 -100.5t-118 -37.5q-58 0 -93.5 31t-35.5 86q0 64 48.5 105t123.5 62q67 19 148 19v26q0 85 -22.5 126t-74.5 41q-35 0 -57 -18.5t-22 -58.5q0 -23 8.5 -43
t28.5 -30q-10 -11 -27.5 -16.5t-37.5 -5.5q-42 0 -67.5 26t-25.5 65q0 59 55.5 91t151.5 32q110 0 161 -51.5t51 -165.5v-179q0 -53 34 -53q7 0 15 3.5t13 11.5q13 -19 13 -39q0 -18 -11.5 -33.5t-30.5 -23.5q-35 -18 -52.5 -38t-17.5 -47q0 -45 47 -45q53 0 84 56
q14 -7 14 -20zM285 93q33 25 55 67.5t22 92.5q-80 2 -127 -21q-31 -15 -49 -40t-18 -57q0 -29 13 -48t40 -19q31 0 64 25z" />
    <glyph glyph-name="Cacute" unicode="&#x106;" horiz-adv-x="611" 
d="M124 80.5q-73 94.5 -73 267.5t75 267.5t210 94.5q55 0 105.5 -14t81.5 -40t31 -60q0 -28 -25.5 -49t-70.5 -20q-16 139 -120 139q-78 0 -116.5 -79t-38.5 -239t37.5 -239t114.5 -79q54 0 90 39t46 115q6 1 19 1q34 0 58 -16t24 -45q0 -42 -35 -73t-91 -48t-118 -17
q-131 0 -204 94.5zM295 743q-6 3 -13 13.5t-6 14.5l142 128q17 -8 39 -31.5t30 -43.5z" />
    <glyph glyph-name="cacute" unicode="&#x107;" horiz-adv-x="511" 
d="M101.5 56.5q-64.5 70.5 -64.5 200.5q0 127 66 199t186 72q87 0 133.5 -36t46.5 -92q0 -38 -24 -61.5t-61 -23.5q-19 0 -36.5 5.5t-26.5 16.5q29 22 29 73q0 39 -19.5 57t-51.5 18q-53 0 -84 -55t-31 -154q0 -111 40.5 -163t114.5 -52q53 0 90 26t48 69q17 -7 17 -31
q0 -12 -4 -27q-15 -53 -65 -82.5t-121 -29.5q-118 0 -182.5 70.5zM283 569q-12 0 -25.5 2.5t-18.5 5.5l90 156q21 3 59.5 -6t47.5 -17z" />
    <glyph glyph-name="Ccircumflex" unicode="&#x108;" horiz-adv-x="611" 
d="M124 80.5q-73 94.5 -73 267.5t75 267.5t210 94.5q55 0 105.5 -14t81.5 -40t31 -60q0 -28 -25.5 -49t-70.5 -20q-16 139 -120 139q-78 0 -116.5 -79t-38.5 -239t37.5 -239t114.5 -79q54 0 90 39t46 115q6 1 19 1q34 0 58 -16t24 -45q0 -42 -35 -73t-91 -48t-118 -17
q-131 0 -204 94.5zM497 763q-1 -5 -9 -14.5t-14 -12.5l-143 79l-144 -79q-6 3 -13.5 12.5t-9.5 14.5l135 127q8 4 33 4q22 0 30 -4z" />
    <glyph glyph-name="ccircumflex" unicode="&#x109;" horiz-adv-x="511" 
d="M101.5 56.5q-64.5 70.5 -64.5 200.5q0 127 66 199t186 72q87 0 133.5 -36t46.5 -92q0 -38 -24 -61.5t-61 -23.5q-19 0 -36.5 5.5t-26.5 16.5q29 22 29 73q0 39 -19.5 57t-51.5 18q-53 0 -84 -55t-31 -154q0 -111 40.5 -163t114.5 -52q53 0 90 26t48 69q17 -7 17 -31
q0 -12 -4 -27q-15 -53 -65 -82.5t-121 -29.5q-118 0 -182.5 70.5zM128.5 571q-13.5 5 -14.5 9l127 152q8 4 33 4q22 0 30 -4l127 -152q-1 -4 -15.5 -9t-22.5 -5l-120 84l-123 -84q-8 0 -21.5 5z" />
    <glyph glyph-name="Cdotaccent" unicode="&#x10a;" horiz-adv-x="611" 
d="M124 80.5q-73 94.5 -73 267.5t75 267.5t210 94.5q55 0 105.5 -14t81.5 -40t31 -60q0 -28 -25.5 -49t-70.5 -20q-16 139 -120 139q-78 0 -116.5 -79t-38.5 -239t37.5 -239t114.5 -79q54 0 90 39t46 115q6 1 19 1q34 0 58 -16t24 -45q0 -42 -35 -73t-91 -48t-118 -17
q-131 0 -204 94.5zM288.5 773q-19.5 19 -19.5 45q0 27 19 45.5t46 18.5q26 0 45 -18.5t19 -45.5q0 -26 -19 -45t-45 -19t-45.5 19z" />
    <glyph glyph-name="cdotaccent" unicode="&#x10b;" horiz-adv-x="511" 
d="M101.5 56.5q-64.5 70.5 -64.5 200.5q0 127 66 199t186 72q87 0 133.5 -36t46.5 -92q0 -38 -24 -61.5t-61 -23.5q-19 0 -36.5 5.5t-26.5 16.5q29 22 29 73q0 39 -19.5 57t-51.5 18q-53 0 -84 -55t-31 -154q0 -111 40.5 -163t114.5 -52q53 0 90 26t48 69q17 -7 17 -31
q0 -12 -4 -27q-15 -53 -65 -82.5t-121 -29.5q-118 0 -182.5 70.5zM230 592.5q-19 18.5 -19 45.5t19 46t46 19q26 0 45 -19t19 -46t-19 -45.5t-45 -18.5q-27 0 -46 18.5z" />
    <glyph glyph-name="Ccaron" unicode="&#x10c;" horiz-adv-x="611" 
d="M124 80.5q-73 94.5 -73 267.5t75 267.5t210 94.5q55 0 105.5 -14t81.5 -40t31 -60q0 -28 -25.5 -49t-70.5 -20q-16 139 -120 139q-78 0 -116.5 -79t-38.5 -239t37.5 -239t114.5 -79q54 0 90 39t46 115q6 1 19 1q34 0 58 -16t24 -45q0 -42 -35 -73t-91 -48t-118 -17
q-131 0 -204 94.5zM335 745q-25 0 -33 4l-134 127q1 5 8.5 14.5t13.5 12.5l144 -79l143 79q7 -3 15 -12.5t8 -14.5l-135 -127q-8 -4 -30 -4z" />
    <glyph glyph-name="ccaron" unicode="&#x10d;" horiz-adv-x="511" 
d="M101.5 56.5q-64.5 70.5 -64.5 200.5q0 127 66 199t186 72q87 0 133.5 -36t46.5 -92q0 -38 -24 -61.5t-61 -23.5q-19 0 -36.5 5.5t-26.5 16.5q29 22 29 73q0 39 -19.5 57t-51.5 18q-53 0 -84 -55t-31 -154q0 -111 40.5 -163t114.5 -52q53 0 90 26t48 69q17 -7 17 -31
q0 -12 -4 -27q-15 -53 -65 -82.5t-121 -29.5q-118 0 -182.5 70.5zM276 657l120 84q8 0 22.5 -5t15.5 -9l-127 -153q-9 -3 -29 -3q-25 0 -34 3l-127 153q1 4 14.5 9t21.5 5z" />
    <glyph glyph-name="Dcaron" unicode="&#x10e;" horiz-adv-x="650" 
d="M102 16.5q-19 16.5 -19 45.5l-1 498v36t-3 57t-9 45q69 9 218 9q150 0 230.5 -88.5t80.5 -262.5q0 -182 -78.5 -269t-225.5 -87h-142q-32 0 -51 16.5zM288 44q93 0 135.5 70t42.5 234q0 163 -43.5 238.5t-134.5 75.5h-85v-618h85zM315 745q-25 0 -33 4l-134 127
q1 5 8.5 14.5t13.5 12.5l144 -79l143 79q7 -3 15 -12.5t8 -14.5l-135 -127q-8 -4 -30 -4z" />
    <glyph glyph-name="dcaron" unicode="&#x10f;" horiz-adv-x="659" 
d="M640 662.5q-11 -46.5 -29 -86.5h-52q2 28 2 48q0 74 -18 128q27 8 55 8t52 -8q1 -43 -10 -89.5zM552 93q12 -19 12 -40q0 -27 -23 -44.5t-57 -17.5q-45 0 -70.5 33.5t-30.5 95.5q-23 -66 -65.5 -100t-104.5 -34q-92 0 -134 69.5t-42 181.5q0 139 55.5 215t157.5 76
q47 0 79.5 -17t46.5 -49v71q0 105 -20 173q32 26 69 26q29 0 48.5 -17t19.5 -45l-1 -538q0 -52 33 -52q19 0 27 13zM341.5 129.5q32.5 77.5 32.5 187.5q0 68 -20 109t-76 41q-114 0 -114 -227q0 -94 18.5 -141t65.5 -47q61 0 93.5 77.5z" />
    <glyph glyph-name="Dcroat" unicode="&#x110;" horiz-adv-x="651" 
d="M518.5 618.5q80.5 -88.5 80.5 -262.5q0 -182 -78.5 -269t-225.5 -87h-142q-32 0 -51 16.5t-19 45.5l-1 264h-60q-4 11 -4 24q0 12 4 23h60v187v36t-3 57t-9 45q69 9 218 9q150 0 230.5 -88.5zM423.5 114q42.5 70 42.5 234q0 163 -43.5 238.5t-134.5 75.5h-85v-289h133
q3 -12 3 -23q0 -12 -3 -24h-133v-282h85q93 0 135.5 70z" />
    <glyph glyph-name="dcroat" unicode="&#x111;" horiz-adv-x="584" 
d="M552 93q12 -19 12 -40q0 -27 -23 -44.5t-57 -17.5q-45 0 -70.5 33.5t-30.5 95.5q-23 -66 -65.5 -100t-104.5 -34q-92 0 -134 69.5t-42 181.5q0 139 55.5 215t157.5 76q47 0 79.5 -17t46.5 -49v71q0 29 -1 45h-102q-4 16 -4 24q0 7 4 23h98q-6 50 -15 81q32 26 69 26
q29 0 48.5 -17t19.5 -45v-45h68q4 -11 4 -23q0 -13 -4 -24h-68l-1 -446q0 -52 33 -52q19 0 27 13zM341.5 129.5q32.5 77.5 32.5 187.5q0 68 -20 109t-76 41q-114 0 -114 -227q0 -94 18.5 -141t65.5 -47q61 0 93.5 77.5z" />
    <glyph glyph-name="Emacron" unicode="&#x112;" horiz-adv-x="549" 
d="M497 84q6 -16 6 -35q0 -20 -7.5 -34.5t-21.5 -14.5h-318q-30 0 -49 16.5t-19 45.5l-1 483q0 72 -17 121q21 19 43 24.5t64 5.5h294q19 0 19 -32q0 -22 -9 -44.5t-23 -28.5q-120 43 -251 46v-242h223q4 -15 4 -33q0 -20 -4 -33h-222v-270q65 1 144.5 16t128.5 32
q10 -7 16 -23zM418 832q4 -18 4 -27q0 -8 -4 -28h-276q-4 13 -4 28t4 27h276z" />
    <glyph glyph-name="emacron" unicode="&#x113;" horiz-adv-x="522" 
d="M479 115q0 -12 -7 -30q-19 -47 -68.5 -73t-118.5 -26q-115 0 -181.5 71t-66.5 200q0 127 65 199t186 72q87 0 142.5 -39t55.5 -111q0 -73 -59.5 -112.5t-159.5 -39.5q-57 0 -101 5q7 -91 46 -130.5t106 -39.5q53 0 91 22t54 58q16 -7 16 -26zM195.5 429
q-31.5 -56 -31.5 -156q28 -2 44 -2q66 0 108 26t42 100q0 88 -75 88q-56 0 -87.5 -56zM410 656q4 -18 4 -28q0 -9 -4 -27h-276q-4 12 -4 27q0 16 4 28h276z" />
    <glyph glyph-name="Ebreve" unicode="&#x114;" horiz-adv-x="549" 
d="M497 84q6 -16 6 -35q0 -20 -7.5 -34.5t-21.5 -14.5h-318q-30 0 -49 16.5t-19 45.5l-1 483q0 72 -17 121q21 19 43 24.5t64 5.5h294q19 0 19 -32q0 -22 -9 -44.5t-23 -28.5q-120 43 -251 46v-242h223q4 -15 4 -33q0 -20 -4 -33h-222v-270q65 1 144.5 16t128.5 32
q10 -7 16 -23zM370.5 779q-34.5 -35 -92.5 -35q-59 0 -93.5 36t-44.5 90q26 6 39 10q11 -37 38 -54t65 -17q77 0 102 71q19 -6 34 -9q-13 -57 -47.5 -92z" />
    <glyph glyph-name="ebreve" unicode="&#x115;" horiz-adv-x="522" 
d="M479 115q0 -12 -7 -30q-19 -47 -68.5 -73t-118.5 -26q-115 0 -181.5 71t-66.5 200q0 127 65 199t186 72q87 0 142.5 -39t55.5 -111q0 -73 -59.5 -112.5t-159.5 -39.5q-57 0 -101 5q7 -91 46 -130.5t106 -39.5q53 0 91 22t54 58q16 -7 16 -26zM195.5 429
q-31.5 -56 -31.5 -156q28 -2 44 -2q66 0 108 26t42 100q0 88 -75 88q-56 0 -87.5 -56zM386 728q21 -5 35 -13q-36 -141 -151 -141q-66 0 -102 39.5t-49 100.5q15 10 38 14q15 -37 45.5 -57t70.5 -20q77 0 113 77z" />
    <glyph glyph-name="Edotaccent" unicode="&#x116;" horiz-adv-x="549" 
d="M497 84q6 -16 6 -35q0 -20 -7.5 -34.5t-21.5 -14.5h-318q-30 0 -49 16.5t-19 45.5l-1 483q0 72 -17 121q21 19 43 24.5t64 5.5h294q19 0 19 -32q0 -22 -9 -44.5t-23 -28.5q-120 43 -251 46v-242h223q4 -15 4 -33q0 -20 -4 -33h-222v-270q65 1 144.5 16t128.5 32
q10 -7 16 -23zM233.5 773q-19.5 19 -19.5 45q0 27 19 45.5t46 18.5q26 0 45 -18.5t19 -45.5q0 -26 -19 -45t-45 -19t-45.5 19z" />
    <glyph glyph-name="edotaccent" unicode="&#x117;" horiz-adv-x="522" 
d="M479 115q0 -12 -7 -30q-19 -47 -68.5 -73t-118.5 -26q-115 0 -181.5 71t-66.5 200q0 127 65 199t186 72q87 0 142.5 -39t55.5 -111q0 -73 -59.5 -112.5t-159.5 -39.5q-57 0 -101 5q7 -91 46 -130.5t106 -39.5q53 0 91 22t54 58q16 -7 16 -26zM195.5 429
q-31.5 -56 -31.5 -156q28 -2 44 -2q66 0 108 26t42 100q0 88 -75 88q-56 0 -87.5 -56zM224 592.5q-19 18.5 -19 45.5t19 46t46 19q26 0 45 -19t19 -46t-19 -45.5t-45 -18.5q-27 0 -46 18.5z" />
    <glyph glyph-name="Eogonek" unicode="&#x118;" horiz-adv-x="549" 
d="M530 -95q0 -7 -2 -11q-12 -31 -45 -52t-79 -21q-37 0 -67.5 19t-30.5 60q0 61 77 100h-227q-30 0 -49 16.5t-19 45.5l-1 483q0 72 -17 121q21 19 43 24.5t64 5.5h294q19 0 19 -32q0 -22 -9 -44.5t-23 -28.5q-120 43 -251 46v-242h223q4 -15 4 -33q0 -20 -4 -33h-222v-270
q65 1 144.5 16t128.5 32q10 -7 16 -23t6 -35q0 -20 -7.5 -34.5t-21.5 -14.5h-18q-35 -18 -53 -38.5t-18 -47.5q0 -45 47 -45q53 0 84 56q14 -7 14 -20z" />
    <glyph glyph-name="eogonek" unicode="&#x119;" horiz-adv-x="522" 
d="M480 -82q0 -7 -2 -11q-12 -31 -45 -52t-79 -21q-37 0 -67.5 19t-30.5 60q0 42 36 73h-7q-115 0 -181.5 71t-66.5 200q0 127 65 199t186 72q87 0 142.5 -39t55.5 -111q0 -73 -59.5 -112.5t-159.5 -39.5q-57 0 -101 5q7 -91 46 -130.5t106 -39.5q53 0 91 22t54 58
q16 -7 16 -26q0 -12 -7 -30q-19 -45 -62 -69v-1q-37 -19 -56 -40t-19 -48q0 -45 47 -45q53 0 84 56q14 -7 14 -20zM195.5 429q-31.5 -56 -31.5 -156q28 -2 44 -2q66 0 108 26t42 100q0 88 -75 88q-56 0 -87.5 -56z" />
    <glyph glyph-name="Ecaron" unicode="&#x11a;" horiz-adv-x="549" 
d="M497 84q6 -16 6 -35q0 -20 -7.5 -34.5t-21.5 -14.5h-318q-30 0 -49 16.5t-19 45.5l-1 483q0 72 -17 121q21 19 43 24.5t64 5.5h294q19 0 19 -32q0 -22 -9 -44.5t-23 -28.5q-120 43 -251 46v-242h223q4 -15 4 -33q0 -20 -4 -33h-222v-270q65 1 144.5 16t128.5 32
q10 -7 16 -23zM281 745q-25 0 -33 4l-134 127q1 5 8.5 14.5t13.5 12.5l144 -79l143 79q7 -3 15 -12.5t8 -14.5l-135 -127q-8 -4 -30 -4z" />
    <glyph glyph-name="ecaron" unicode="&#x11b;" horiz-adv-x="522" 
d="M479 115q0 -12 -7 -30q-19 -47 -68.5 -73t-118.5 -26q-115 0 -181.5 71t-66.5 200q0 127 65 199t186 72q87 0 142.5 -39t55.5 -111q0 -73 -59.5 -112.5t-159.5 -39.5q-57 0 -101 5q7 -91 46 -130.5t106 -39.5q53 0 91 22t54 58q16 -7 16 -26zM195.5 429
q-31.5 -56 -31.5 -156q28 -2 44 -2q66 0 108 26t42 100q0 88 -75 88q-56 0 -87.5 -56zM271 657l120 84q8 0 22.5 -5t15.5 -9l-127 -153q-9 -3 -29 -3q-25 0 -34 3l-127 153q1 4 14.5 9t21.5 5z" />
    <glyph glyph-name="Gcircumflex" unicode="&#x11c;" horiz-adv-x="646" 
d="M127 80.5q-76 94.5 -76 267.5t78.5 267.5t220.5 94.5q52 0 101 -14t80 -40t31 -59q0 -29 -25.5 -50t-70.5 -20q-7 70 -36.5 104.5t-77.5 34.5q-86 0 -127.5 -79t-41.5 -239t40.5 -239t125.5 -79q71 0 98 57.5t27 134.5q0 110 -64 135q8 19 28 28.5t45 9.5
q51 0 82.5 -36.5t31.5 -108.5q0 -82 -32.5 -141.5t-90.5 -91t-131 -31.5q-140 0 -216 94.5zM503 763q-1 -5 -9 -14.5t-14 -12.5l-143 79l-144 -79q-6 3 -13.5 12.5t-9.5 14.5l135 127q8 4 33 4q22 0 30 -4z" />
    <glyph glyph-name="gcircumflex" unicode="&#x11d;" horiz-adv-x="544" 
d="M93.5 -198q-52.5 29 -52.5 88q0 36 23.5 58t60.5 22q40 0 55 -20q-29 -25 -29 -66q0 -34 20 -53t58 -19q69 0 104 58t35 162q0 49 1 72q-18 -50 -57.5 -77t-96.5 -27q-84 0 -131 59.5t-47 189.5q0 126 56.5 202.5t184.5 76.5q61 0 116.5 -17t91.5 -49v-418
q0 -143 -70 -207t-191 -64q-79 0 -131.5 29zM337.5 109.5q29.5 52.5 29.5 139.5l1 210q-14 12 -37 19t-48 7q-69 0 -94.5 -63.5t-25.5 -184.5q0 -99 19.5 -139.5t67.5 -40.5q58 0 87.5 52.5zM134.5 576q-13.5 5 -14.5 9l127 152q8 4 33 4q22 0 30 -4l127 -152
q-1 -4 -15.5 -9t-22.5 -5l-120 84l-123 -84q-8 0 -21.5 5z" />
    <glyph glyph-name="Gbreve" unicode="&#x11e;" horiz-adv-x="646" 
d="M127 80.5q-76 94.5 -76 267.5t78.5 267.5t220.5 94.5q52 0 101 -14t80 -40t31 -59q0 -29 -25.5 -50t-70.5 -20q-7 70 -36.5 104.5t-77.5 34.5q-86 0 -127.5 -79t-41.5 -239t40.5 -239t125.5 -79q71 0 98 57.5t27 134.5q0 110 -64 135q8 19 28 28.5t45 9.5
q51 0 82.5 -36.5t31.5 -108.5q0 -82 -32.5 -141.5t-90.5 -91t-131 -31.5q-140 0 -216 94.5zM431.5 779q-34.5 -35 -92.5 -35q-59 0 -93.5 36t-44.5 90q26 6 39 10q11 -37 38 -54t65 -17q77 0 102 71q19 -6 34 -9q-13 -57 -47.5 -92z" />
    <glyph glyph-name="gbreve" unicode="&#x11f;" horiz-adv-x="544" 
d="M93.5 -198q-52.5 29 -52.5 88q0 36 23.5 58t60.5 22q40 0 55 -20q-29 -25 -29 -66q0 -34 20 -53t58 -19q69 0 104 58t35 162q0 49 1 72q-18 -50 -57.5 -77t-96.5 -27q-84 0 -131 59.5t-47 189.5q0 126 56.5 202.5t184.5 76.5q61 0 116.5 -17t91.5 -49v-418
q0 -143 -70 -207t-191 -64q-79 0 -131.5 29zM337.5 109.5q29.5 52.5 29.5 139.5l1 210q-14 12 -37 19t-48 7q-69 0 -94.5 -63.5t-25.5 -184.5q0 -99 19.5 -139.5t67.5 -40.5q58 0 87.5 52.5zM397 733q21 -5 35 -13q-36 -141 -151 -141q-66 0 -102 39.5t-49 100.5
q15 10 38 14q15 -37 45.5 -57t70.5 -20q77 0 113 77z" />
    <glyph glyph-name="Gdotaccent" unicode="&#x120;" horiz-adv-x="646" 
d="M127 80.5q-76 94.5 -76 267.5t78.5 267.5t220.5 94.5q52 0 101 -14t80 -40t31 -59q0 -29 -25.5 -50t-70.5 -20q-7 70 -36.5 104.5t-77.5 34.5q-86 0 -127.5 -79t-41.5 -239t40.5 -239t125.5 -79q71 0 98 57.5t27 134.5q0 110 -64 135q8 19 28 28.5t45 9.5
q51 0 82.5 -36.5t31.5 -108.5q0 -82 -32.5 -141.5t-90.5 -91t-131 -31.5q-140 0 -216 94.5zM294.5 773q-19.5 19 -19.5 45q0 27 19 45.5t46 18.5q26 0 45 -18.5t19 -45.5q0 -26 -19 -45t-45 -19t-45.5 19z" />
    <glyph glyph-name="gdotaccent" unicode="&#x121;" horiz-adv-x="544" 
d="M93.5 -198q-52.5 29 -52.5 88q0 36 23.5 58t60.5 22q40 0 55 -20q-29 -25 -29 -66q0 -34 20 -53t58 -19q69 0 104 58t35 162q0 49 1 72q-18 -50 -57.5 -77t-96.5 -27q-84 0 -131 59.5t-47 189.5q0 126 56.5 202.5t184.5 76.5q61 0 116.5 -17t91.5 -49v-418
q0 -143 -70 -207t-191 -64q-79 0 -131.5 29zM337.5 109.5q29.5 52.5 29.5 139.5l1 210q-14 12 -37 19t-48 7q-69 0 -94.5 -63.5t-25.5 -184.5q0 -99 19.5 -139.5t67.5 -40.5q58 0 87.5 52.5zM235 597.5q-19 18.5 -19 45.5t19 46t46 19q26 0 45 -19t19 -46t-19 -45.5
t-45 -18.5q-27 0 -46 18.5z" />
    <glyph glyph-name="Gcommaaccent" unicode="&#x122;" horiz-adv-x="646" 
d="M127 80.5q-76 94.5 -76 267.5t78.5 267.5t220.5 94.5q52 0 101 -14t80 -40t31 -59q0 -29 -25.5 -50t-70.5 -20q-7 70 -36.5 104.5t-77.5 34.5q-86 0 -127.5 -79t-41.5 -239t40.5 -239t125.5 -79q71 0 98 57.5t27 134.5q0 110 -64 135q8 19 28 28.5t45 9.5
q51 0 82.5 -36.5t31.5 -108.5q0 -82 -32.5 -141.5t-90.5 -91t-131 -31.5q-140 0 -216 94.5zM301 -244q36 41 36 75q0 32 -17 45t-44 20q0 28 20 49t51 21q30 0 50.5 -21t20.5 -66q0 -37 -18 -72.5t-59 -72.5q-22 4 -40 22z" />
    <glyph glyph-name="gcommaaccent" unicode="&#x123;" horiz-adv-x="544" 
d="M324 774q-27 -38 -27 -71q0 -24 14.5 -38t35.5 -19q0 -28 -19.5 -48t-48.5 -20q-28 0 -48.5 19t-20.5 59q0 30 15.5 61.5t54.5 78.5q27 -3 44 -22zM93.5 -198q-52.5 29 -52.5 88q0 36 23.5 58t60.5 22q40 0 55 -20q-29 -25 -29 -66q0 -34 20 -53t58 -19q69 0 104 58
t35 162q0 49 1 72q-18 -50 -57.5 -77t-96.5 -27q-84 0 -131 59.5t-47 189.5q0 126 56.5 202.5t184.5 76.5q61 0 116.5 -17t91.5 -49v-418q0 -143 -70 -207t-191 -64q-79 0 -131.5 29zM337.5 109.5q29.5 52.5 29.5 139.5l1 210q-14 12 -37 19t-48 7q-69 0 -94.5 -63.5
t-25.5 -184.5q0 -99 19.5 -139.5t67.5 -40.5q58 0 87.5 52.5z" />
    <glyph glyph-name="Hcircumflex" unicode="&#x124;" horiz-adv-x="694" 
d="M624 13q-10 -10 -28 -18.5t-41 -8.5q-30 0 -49.5 17t-19.5 46v283h-278v-196q0 -79 17 -123q-10 -10 -28 -18.5t-41 -8.5q-30 0 -49 17t-19 46l-1 511q0 73 -17 122q10 10 28 18t41 8q30 0 49.5 -16.5t19.5 -44.5v-250h278v163q0 73 -17 122q10 10 28 18t41 8
q30 0 49.5 -16.5t19.5 -44.5v-511q0 -79 17 -123zM510 763q-1 -5 -9 -14.5t-14 -12.5l-143 79l-144 -79q-6 3 -13.5 12.5t-9.5 14.5l135 127q8 4 33 4q22 0 30 -4z" />
    <glyph glyph-name="hcircumflex" unicode="&#x125;" horiz-adv-x="568" 
d="M520 13q-29 -27 -67 -27q-30 0 -49 17t-19 46v258q0 83 -18 123.5t-64 40.5q-50 0 -83 -59.5t-33 -174.5q0 -114 3 -152t17 -73q-32 -26 -67 -26q-30 0 -49.5 18.5t-19.5 49.5v616q-1 28 14.5 43.5t41.5 17.5q24 3 45.5 -6t34.5 -19q-12 -39 -16 -88.5t-5 -127.5v-68
q21 51 60.5 78.5t95.5 27.5q82 0 121.5 -51t39.5 -152v-189q0 -76 17 -123zM-2.5 747q-13.5 5 -14.5 9l127 152q8 4 33 4q22 0 30 -4l127 -152q-1 -4 -15.5 -9t-22.5 -5l-120 84l-123 -84q-8 0 -21.5 5z" />
    <glyph glyph-name="Hbar" unicode="&#x126;" horiz-adv-x="694" 
d="M607 522v-386q0 -79 17 -123q-10 -10 -28 -18.5t-41 -8.5q-30 0 -49.5 17t-19.5 46v283h-278v-196q0 -79 17 -123q-10 -10 -28 -18.5t-41 -8.5q-30 0 -49 17t-19 46l-1 473h-51q-4 16 -4 23q0 9 4 23h51q0 66 -17 114q10 10 28 18t41 8q30 0 49.5 -16.5t19.5 -44.5v-79
h278q0 66 -17 114q10 10 28 18t41 8q30 0 49.5 -16.5t19.5 -44.5v-79h44q5 -12 5 -23q0 -10 -5 -23h-44zM486 522h-278v-125h278v125z" />
    <glyph glyph-name="hbar" unicode="&#x127;" horiz-adv-x="571" 
d="M520 13q-29 -27 -67 -27q-30 0 -49 17t-19 46v258q0 83 -18 123.5t-64 40.5q-50 0 -83 -59.5t-33 -174.5q0 -114 3 -152t17 -73q-32 -26 -67 -26q-30 0 -49.5 18.5t-19.5 49.5v516h-68q-3 12 -3 23q0 12 3 22h68v55q-1 28 14.5 43.5t41.5 17.5q24 3 45.5 -6t34.5 -19
q-11 -38 -16 -91h109q4 -9 4 -22q0 -12 -4 -23h-112q-2 -50 -2 -80v-68q21 51 60.5 78.5t95.5 27.5q82 0 121.5 -51t39.5 -152v-189q0 -76 17 -123z" />
    <glyph glyph-name="Itilde" unicode="&#x128;" horiz-adv-x="295" 
d="M107 3q-19 17 -19 46l-1 511q0 73 -17 122q10 10 28 18t41 8q30 0 49.5 -16.5t19.5 -44.5v-511q0 -79 17 -123q-10 -10 -28 -18.5t-41 -8.5q-30 0 -49 17zM260 784q-23 -27 -59 -27q-17 0 -32.5 5.5t-37.5 16.5q-21 11 -35.5 16t-29.5 5q-25 0 -39 -10.5t-23 -28.5l-4 -1
q-12 0 -24 10q6 53 32.5 76.5t63.5 23.5q17 0 32.5 -5.5t37.5 -16.5t36.5 -16t31.5 -5q22 0 32.5 9.5t20.5 28.5q11 0 16.5 -1.5t11.5 -6.5q-8 -46 -31 -73z" />
    <glyph glyph-name="itilde" unicode="&#x129;" horiz-adv-x="262" 
d="M210 13q-30 -27 -69 -27q-28 0 -47 17t-19 46v330q0 75 -18 123q32 26 67 26q30 0 48.5 -16.5t18.5 -45.5l1 -330q0 -79 18 -123zM241 607q-22 -27 -57 -27q-16 0 -30.5 6t-33.5 17q-18 11 -32 16.5t-29 5.5q-43 0 -60 -40h-2q-5 0 -12.5 2.5t-11.5 6.5q5 51 30.5 74.5
t60.5 23.5q17 0 32 -6t34 -18q21 -11 34 -16.5t28 -5.5q22 0 33 10.5t19 30.5q9 0 14.5 -1.5t10.5 -6.5q-6 -45 -28 -72z" />
    <glyph glyph-name="Imacron" unicode="&#x12a;" horiz-adv-x="295" 
d="M107 3q-19 17 -19 46l-1 511q0 73 -17 122q10 10 28 18t41 8q30 0 49.5 -16.5t19.5 -44.5v-511q0 -79 17 -123q-10 -10 -28 -18.5t-41 -8.5q-30 0 -49 17zM274 832q4 -18 4 -27q0 -8 -4 -28h-276q-4 13 -4 28t4 27h276z" />
    <glyph glyph-name="imacron" unicode="&#x12b;" horiz-adv-x="262" 
d="M210 13q-30 -27 -69 -27q-28 0 -47 17t-19 46v330q0 75 -18 123q32 26 67 26q30 0 48.5 -16.5t18.5 -45.5l1 -330q0 -79 18 -123zM262 656q4 -18 4 -28q0 -9 -4 -27h-276q-4 12 -4 27q0 16 4 28h276z" />
    <glyph glyph-name="Iogonek" unicode="&#x12e;" horiz-adv-x="295" 
d="M280 -94q0 -7 -2 -11q-12 -31 -45 -52t-79 -21q-37 0 -67.5 19t-30.5 60q0 57 64 93q-15 8 -23.5 22t-8.5 33l-1 511q0 73 -17 122q10 10 28 18t41 8q30 0 49.5 -16.5t19.5 -44.5v-511q0 -79 17 -123q-13 -13 -35 -21q-55 -33 -55 -77q0 -45 47 -45q53 0 84 56
q14 -7 14 -20z" />
    <glyph glyph-name="iogonek" unicode="&#x12f;" horiz-adv-x="269" 
d="M83.5 604q-20.5 20 -20.5 49q0 30 20.5 50t49.5 20t49.5 -20t20.5 -50q0 -29 -20.5 -49t-49.5 -20t-49.5 20zM266 -92q0 -6 -2 -10q-13 -31 -45.5 -52.5t-79.5 -21.5q-37 0 -67.5 19t-30.5 60q0 58 65 94q-26 18 -26 52l-1 330q0 74 -17 123q29 26 66 26q30 0 48.5 -16.5
t18.5 -45.5l2 -330q0 -79 17 -123q-20 -20 -50 -25q-44 -31 -44 -71q0 -19 11 -32t36 -13q29 0 50.5 16t34.5 41q14 -7 14 -21z" />
    <glyph glyph-name="Idotaccent" unicode="&#x130;" horiz-adv-x="295" 
d="M107 3q-19 17 -19 46l-1 511q0 73 -17 122q10 10 28 18t41 8q30 0 49.5 -16.5t19.5 -44.5v-511q0 -79 17 -123q-10 -10 -28 -18.5t-41 -8.5q-30 0 -49 17zM90.5 773q-19.5 19 -19.5 45q0 27 19 45.5t46 18.5q26 0 45 -18.5t19 -45.5q0 -26 -19 -45t-45 -19t-45.5 19z" />
    <glyph glyph-name="dotlessi" unicode="&#x131;" horiz-adv-x="262" 
d="M210 13q-30 -27 -69 -27q-28 0 -47 17t-19 46v330q0 75 -18 123q32 26 67 26q30 0 48.5 -16.5t18.5 -45.5l1 -330q0 -79 18 -123z" />
    <glyph glyph-name="Jcircumflex" unicode="&#x134;" horiz-adv-x="485" 
d="M80.5 19.5q-40.5 33.5 -40.5 81.5q0 32 17.5 55.5t51.5 23.5q18 0 30 -6t20 -19q-14 -27 -14 -56t18 -49t44 -20q44 0 59 39t15 110v419q0 24 1.5 38t6.5 23q-15 0 -49 2l-42 1q-20 0 -33 -9.5t-13 -30.5q0 -39 31 -57q-18 -14 -50 -14q-29 0 -51.5 21t-22.5 57
q0 37 28 59t80 22q27 0 61 -3l82 -3q47 0 97 6q-5 -28 -5 -77v-441q0 -206 -195 -206q-86 0 -126.5 33.5zM408 763q-1 -5 -9 -14.5t-14 -12.5l-143 79l-144 -79q-6 3 -13.5 12.5t-9.5 14.5l135 127q8 4 33 4q22 0 30 -4z" />
    <glyph glyph-name="jcircumflex" unicode="&#x135;" horiz-adv-x="260" 
d="M-69 -205.5q-31 23.5 -31 62.5q0 25 16 43t46 18q16 0 25.5 -6t16.5 -19q-13 -23 -13 -43t10.5 -29.5t25.5 -9.5q34 0 43.5 45t9.5 136l1 386q0 76 -18 124q32 26 67 26q29 0 48 -17t19 -46v-494q0 -89 -41.5 -144.5t-133.5 -55.5q-60 0 -91 23.5zM-16.5 571
q-13.5 5 -14.5 9l127 152q8 4 33 4q22 0 30 -4l127 -152q-1 -4 -15.5 -9t-22.5 -5l-120 84l-123 -84q-8 0 -21.5 5z" />
    <glyph glyph-name="Kcommaaccent" unicode="&#x136;" horiz-adv-x="609" 
d="M593 50q0 -29 -22.5 -48.5t-58.5 -19.5q-50 0 -77.5 36.5t-49.5 98.5l-32 98q-16 47 -43 74.5t-84 27.5h-18v-181q0 -79 17 -123q-10 -10 -28 -18.5t-41 -8.5q-30 0 -49 17t-19 46l-1 511q0 73 -17 122q10 10 28 18t41 8q30 0 49 -16.5t19 -44.5l1 -284q12 1 24 5
q57 14 97.5 54.5t61 92.5t20.5 99q0 27 -5.5 47.5t-12.5 31.5q26 12 50 12q36 0 60.5 -21t24.5 -76q0 -76 -51.5 -147t-155.5 -110q57 -6 89 -30.5t50 -68.5l45 -113q17 -36 28 -49.5t27 -14.5h4q11 0 21 9q8 -19 8 -34zM285 -244q36 41 36 75q0 32 -17 45t-44 20
q0 28 20 49t51 21q30 0 50.5 -21t20.5 -66q0 -37 -18 -72.5t-59 -72.5q-22 4 -40 22z" />
    <glyph glyph-name="kcommaaccent" unicode="&#x137;" horiz-adv-x="550" 
d="M531 57q0 -30 -25.5 -50.5t-63.5 -20.5q-32 0 -57.5 18.5t-40.5 55.5l-70 156q-45 -14 -86 -22q0 -87 3 -118.5t17 -63.5q-15 -12 -31 -19t-41 -7q-37 0 -51 18t-14 50v616q-1 29 18 45.5t49 16.5q39 0 68 -26q-10 -50 -13 -84t-4 -80l-2 -53l-1 -92q23 61 70 96t114 35
q63 0 94.5 -31t31.5 -81q0 -57 -40 -101t-102 -73q15 -3 27 -16t27 -36l37 -64q13 -24 20.5 -32t21.5 -8q16 0 28 10q16 -16 16 -39zM321 304q55 43 55 104q0 59 -52 59q-38 0 -69 -30.5t-49 -82.5t-18 -115q78 22 133 65zM234 -244q36 41 36 75q0 32 -17 45t-44 20
q0 28 20 49t51 21q30 0 50.5 -21t20.5 -66q0 -37 -18 -72.5t-59 -72.5q-22 4 -40 22z" />
    <glyph glyph-name="kgreenlandic" unicode="&#x138;" horiz-adv-x="590" 
d="M556 49q0 -27 -19 -44.5t-54 -17.5q-41 0 -70 24.5t-40 63.5l-20 70q-12 42 -37.5 68t-76.5 26h-37v-103q0 -79 17 -123q-30 -27 -69 -27q-30 0 -49.5 17t-19.5 46v329q0 76 -18 124q36 26 70 26q31 0 50 -17t19 -46v-180q11 1 21.5 2.5t18.5 2.5q73 14 112 58t39 95
q0 21 -5.5 42.5t-11.5 29.5q25 13 49 13q30 0 57.5 -21t27.5 -65q0 -53 -40.5 -98t-105.5 -66q31 -9 56.5 -36.5t37.5 -63.5l14 -45q19 -56 51 -58h3q13 0 22 9q8 -16 8 -35z" />
    <glyph glyph-name="Lacute" unicode="&#x139;" horiz-adv-x="499" 
d="M208 65q64 1 134 15.5t115 33.5q11 -7 17 -24.5t6 -37.5q0 -22 -7.5 -37t-21.5 -15h-295q-30 0 -49 16.5t-19 45.5l-1 498q0 73 -17 122q10 10 28 18t41 8q30 0 49 -16.5t19 -44.5zM121 743q-6 3 -13 13.5t-6 14.5l142 128q17 -8 39 -31.5t30 -43.5z" />
    <glyph glyph-name="lacute" unicode="&#x13a;" horiz-adv-x="285" 
d="M99 25q-30 35 -30 97v548q0 29 19.5 45.5t49.5 16.5q38 0 67 -26q-11 -39 -14 -80.5t-3 -114.5l-1 -379q0 -26 9.5 -39.5t26.5 -13.5q10 0 19 3.5t13 11.5q13 -17 13 -39q0 -28 -25 -46.5t-59 -18.5q-55 0 -85 35z" />
    <glyph glyph-name="Lcommaaccent" unicode="&#x13b;" horiz-adv-x="499" 
d="M208 65q64 1 134 15.5t115 33.5q11 -7 17 -24.5t6 -37.5q0 -22 -7.5 -37t-21.5 -15h-295q-30 0 -49 16.5t-19 45.5l-1 498q0 73 -17 122q10 10 28 18t41 8q30 0 49 -16.5t19 -44.5zM238 -244q36 41 36 75q0 32 -17 45t-44 20q0 28 20 49t51 21q30 0 50.5 -21t20.5 -66
q0 -37 -18 -72.5t-59 -72.5q-22 4 -40 22z" />
    <glyph glyph-name="lcommaaccent" unicode="&#x13c;" horiz-adv-x="285" 
d="M99 25q-30 35 -30 97v548q0 29 19.5 45.5t49.5 16.5q38 0 67 -26q-11 -39 -14 -80.5t-3 -114.5l-1 -379q0 -26 9.5 -39.5t26.5 -13.5q10 0 19 3.5t13 11.5q13 -17 13 -39q0 -28 -25 -46.5t-59 -18.5q-55 0 -85 35zM130 -244q36 41 36 75q0 32 -17 45t-44 20q0 28 20 49
t51 21q30 0 50.5 -21t20.5 -66q0 -37 -18 -72.5t-59 -72.5q-22 4 -40 22z" />
    <glyph glyph-name="Lcaron" unicode="&#x13d;" horiz-adv-x="499" 
d="M300 618q0 -20 -2 -48h51q18 39 29 85t11 90q-22 9 -54 9q-29 0 -53 -9q18 -54 18 -127zM208 65q64 1 134 15.5t115 33.5q11 -7 17 -24.5t6 -37.5q0 -22 -7.5 -37t-21.5 -15h-295q-30 0 -49 16.5t-19 45.5l-1 498q0 73 -17 122q10 10 28 18t41 8q30 0 49 -16.5t19 -44.5z
" />
    <glyph glyph-name="lcaron" unicode="&#x13e;" horiz-adv-x="373" 
d="M267 627q0 -28 -3 -51h52q18 38 29 85t11 91q-24 8 -52 8q-29 0 -56 -8q19 -52 19 -125zM99 25q-30 35 -30 97v548q0 29 19.5 45.5t49.5 16.5q38 0 67 -26q-11 -39 -14 -80.5t-3 -114.5l-1 -379q0 -26 9.5 -39.5t26.5 -13.5q10 0 19 3.5t13 11.5q13 -17 13 -39
q0 -28 -25 -46.5t-59 -18.5q-55 0 -85 35z" />
    <glyph glyph-name="Ldot" unicode="&#x13f;" horiz-adv-x="499" 
d="M208 65q64 1 134 15.5t115 33.5q11 -7 17 -24.5t6 -37.5q0 -22 -7.5 -37t-21.5 -15h-295q-30 0 -49 16.5t-19 45.5l-1 498q0 73 -17 122q10 10 28 18t41 8q30 0 49 -16.5t19 -44.5zM338.5 284.5q-20.5 20.5 -20.5 49.5t20.5 49.5t49.5 20.5t49.5 -20.5t20.5 -49.5
t-20.5 -49.5t-49.5 -20.5t-49.5 20.5z" />
    <glyph glyph-name="ldot" unicode="&#x140;" horiz-adv-x="371" 
d="M99 25q-30 35 -30 97v548q0 29 19.5 45.5t49.5 16.5q38 0 67 -26q-11 -39 -14 -80.5t-3 -114.5l-1 -379q0 -26 9.5 -39.5t26.5 -13.5q10 0 19 3.5t13 11.5q13 -17 13 -39q0 -28 -25 -46.5t-59 -18.5q-55 0 -85 35zM264.5 295.5q-20.5 20.5 -20.5 49.5t20.5 49.5
t49.5 20.5t49.5 -20.5t20.5 -49.5t-20.5 -49.5t-49.5 -20.5t-49.5 20.5z" />
    <glyph glyph-name="Lslash" unicode="&#x141;" horiz-adv-x="499" 
d="M474 89.5q6 -17.5 6 -37.5q0 -22 -7.5 -37t-21.5 -15h-295q-30 0 -49 16.5t-19 45.5v124l-50 -50q-25 6 -32 33l82 82l-1 309q0 73 -17 122q10 10 28 18t41 8q30 0 49 -16.5t19 -44.5v-276l101 101q28 -8 32 -33l-132 -133v-241q64 1 134 15.5t115 33.5q11 -7 17 -24.5z
" />
    <glyph glyph-name="lslash" unicode="&#x142;" horiz-adv-x="286" 
d="M242 82.5q9 3.5 13 11.5q13 -17 13 -39q0 -28 -25 -46.5t-59 -18.5q-55 0 -85 35t-30 97v91l-51 -68l-38 26l89 118v381q0 29 19.5 45.5t49.5 16.5q38 0 67 -26q-11 -39 -14 -80.5t-3 -114.5v-64l67 89l38 -26l-105 -140l-1 -238q0 -26 9.5 -39.5t26.5 -13.5q10 0 19 3.5
z" />
    <glyph glyph-name="Nacute" unicode="&#x143;" horiz-adv-x="697" 
d="M70 2q18 48 18 134l-1 423q0 82 -7 134q6 7 22 11t33 4q23 0 30 -7q44 -63 131 -179q99 -132 162 -222t89 -143l-30 459q-1 5 -1 15q0 32 14 52t40 23q29 2 50 -11q-10 -35 -10 -112l-1 -450q0 -87 6 -131q-6 -7 -21 -11t-30 -4q-19 0 -30 6q-257 302 -379 527l25 -464
q2 -30 -17 -50t-43 -20q-25 0 -50 16zM309 743q-6 3 -13 13.5t-6 14.5l142 128q17 -8 39 -31.5t30 -43.5z" />
    <glyph glyph-name="nacute" unicode="&#x144;" horiz-adv-x="583" 
d="M536 13q-31 -27 -69 -27q-30 0 -49 17t-19 46v258q-1 82 -18.5 121t-63.5 39q-50 0 -83 -58.5t-33 -171.5q0 -114 3 -152t17 -73q-11 -10 -28.5 -18t-38.5 -8q-31 0 -50.5 18.5t-19.5 49.5v332q-1 28 -7 40t-20 12q-19 0 -26 -13q-12 20 -12 40q0 28 19.5 45t54.5 17
q45 0 69.5 -29.5t25.5 -89.5q21 58 63 89t105 31q82 0 121.5 -51t39.5 -152v-189q3 -83 19 -123zM314 569q-12 0 -25.5 2.5t-18.5 5.5l90 156q21 3 59.5 -6t47.5 -17z" />
    <glyph glyph-name="Ncommaaccent" unicode="&#x145;" horiz-adv-x="697" 
d="M70 2q18 48 18 134l-1 423q0 82 -7 134q6 7 22 11t33 4q23 0 30 -7q44 -63 131 -179q99 -132 162 -222t89 -143l-30 459q-1 5 -1 15q0 32 14 52t40 23q29 2 50 -11q-10 -35 -10 -112l-1 -450q0 -87 6 -131q-6 -7 -21 -11t-30 -4q-19 0 -30 6q-257 302 -379 527l25 -464
q2 -30 -17 -50t-43 -20q-25 0 -50 16zM308 -244q36 41 36 75q0 32 -17 45t-44 20q0 28 20 49t51 21q30 0 50.5 -21t20.5 -66q0 -37 -18 -72.5t-59 -72.5q-22 4 -40 22z" />
    <glyph glyph-name="ncommaaccent" unicode="&#x146;" horiz-adv-x="583" 
d="M536 13q-31 -27 -69 -27q-30 0 -49 17t-19 46v258q-1 82 -18.5 121t-63.5 39q-50 0 -83 -58.5t-33 -171.5q0 -114 3 -152t17 -73q-11 -10 -28.5 -18t-38.5 -8q-31 0 -50.5 18.5t-19.5 49.5v332q-1 28 -7 40t-20 12q-19 0 -26 -13q-12 20 -12 40q0 28 19.5 45t54.5 17
q45 0 69.5 -29.5t25.5 -89.5q21 58 63 89t105 31q82 0 121.5 -51t39.5 -152v-189q3 -83 19 -123zM267 -244q36 41 36 75q0 32 -17 45t-44 20q0 28 20 49t51 21q30 0 50.5 -21t20.5 -66q0 -37 -18 -72.5t-59 -72.5q-22 4 -40 22z" />
    <glyph glyph-name="Ncaron" unicode="&#x147;" horiz-adv-x="697" 
d="M70 2q18 48 18 134l-1 423q0 82 -7 134q6 7 22 11t33 4q23 0 30 -7q44 -63 131 -179q99 -132 162 -222t89 -143l-30 459q-1 5 -1 15q0 32 14 52t40 23q29 2 50 -11q-10 -35 -10 -112l-1 -450q0 -87 6 -131q-6 -7 -21 -11t-30 -4q-19 0 -30 6q-257 302 -379 527l25 -464
q2 -30 -17 -50t-43 -20q-25 0 -50 16zM350 745q-25 0 -33 4l-134 127q1 5 8.5 14.5t13.5 12.5l144 -79l143 79q7 -3 15 -12.5t8 -14.5l-135 -127q-8 -4 -30 -4z" />
    <glyph glyph-name="ncaron" unicode="&#x148;" horiz-adv-x="583" 
d="M536 13q-31 -27 -69 -27q-30 0 -49 17t-19 46v258q-1 82 -18.5 121t-63.5 39q-50 0 -83 -58.5t-33 -171.5q0 -114 3 -152t17 -73q-11 -10 -28.5 -18t-38.5 -8q-31 0 -50.5 18.5t-19.5 49.5v332q-1 28 -7 40t-20 12q-19 0 -26 -13q-12 20 -12 40q0 28 19.5 45t54.5 17
q45 0 69.5 -29.5t25.5 -89.5q21 58 63 89t105 31q82 0 121.5 -51t39.5 -152v-189q3 -83 19 -123zM306 657l120 84q8 0 22.5 -5t15.5 -9l-127 -153q-9 -3 -29 -3q-25 0 -34 3l-127 153q1 4 14.5 9t21.5 5z" />
    <glyph glyph-name="napostrophe" unicode="&#x149;" horiz-adv-x="709" 
d="M33 438h50l31 179q-20 8 -52 8t-55 -8zM645 13q-31 -27 -69 -27q-30 0 -49 17t-19 46v258q-1 82 -18.5 121t-63.5 39q-50 0 -83 -58.5t-33 -171.5q0 -114 3 -152t17 -73q-11 -10 -28.5 -18t-38.5 -8q-31 0 -50.5 18.5t-19.5 49.5v332q-1 28 -7 40t-20 12q-19 0 -26 -13
q-12 20 -12 40q0 28 19.5 45t54.5 17q45 0 69.5 -29.5t25.5 -89.5q21 58 63 89t105 31q82 0 121.5 -51t39.5 -152v-189q3 -83 19 -123z" />
    <glyph glyph-name="Omacron" unicode="&#x14c;" horiz-adv-x="661" 
d="M122 77q-71 91 -71 271t71 271t209 91q137 0 208 -91t71 -271t-71 -271t-208 -91q-138 0 -209 91zM442.5 106.5q35.5 76.5 35.5 241.5t-35.5 241.5t-111.5 76.5t-112 -76.5t-36 -241.5t36 -241.5t112 -76.5t111.5 76.5zM469 832q4 -18 4 -27q0 -8 -4 -28h-276
q-4 13 -4 28t4 27h276z" />
    <glyph glyph-name="omacron" unicode="&#x14d;" horiz-adv-x="557" 
d="M100.5 57.5q-63.5 71.5 -63.5 199.5t63.5 199.5t178.5 71.5q114 0 177.5 -71.5t63.5 -199.5t-63.5 -199.5t-177.5 -71.5q-115 0 -178.5 71.5zM392 257q0 228 -113 228q-115 0 -115 -228t115 -228q113 0 113 228zM417 656q4 -18 4 -28q0 -9 -4 -27h-276q-4 12 -4 27
q0 16 4 28h276z" />
    <glyph glyph-name="Ohungarumlaut" unicode="&#x150;" horiz-adv-x="661" 
d="M122 77q-71 91 -71 271t71 271t209 91q137 0 208 -91t71 -271t-71 -271t-208 -91q-138 0 -209 91zM442.5 106.5q35.5 76.5 35.5 241.5t-35.5 241.5t-111.5 76.5t-112 -76.5t-36 -241.5t36 -241.5t112 -76.5t111.5 76.5zM239 735q-5 1 -14.5 9t-11.5 12l104 158
q19 -2 45.5 -19t40.5 -35zM389 732q-5 1 -14.5 9t-11.5 12l105 158q19 -2 45.5 -19t39.5 -35z" />
    <glyph glyph-name="ohungarumlaut" unicode="&#x151;" horiz-adv-x="557" 
d="M100.5 57.5q-63.5 71.5 -63.5 199.5t63.5 199.5t178.5 71.5q114 0 177.5 -71.5t63.5 -199.5t-63.5 -199.5t-177.5 -71.5q-115 0 -178.5 71.5zM392 257q0 228 -113 228q-115 0 -115 -228t115 -228q113 0 113 228zM185 550q-6 1 -15 8.5t-13 12.5l116 166q19 -2 42.5 -14.5
t36.5 -30.5zM343 550q-6 2 -15 9.5t-13 12.5l117 165q18 -2 41 -14.5t37 -29.5z" />
    <glyph glyph-name="OE" unicode="&#x152;" horiz-adv-x="912" 
d="M861 84.5q6 -16.5 6 -35.5q0 -20 -7.5 -34.5t-21.5 -14.5h-318q-21 0 -37.5 8.5t-24.5 23.5q-46 -46 -127 -46q-138 0 -209 91t-71 271t71 271t209 91q74 0 117 -33q17 11 37 15t56 4h293q10 0 15 -9.5t5 -23.5q0 -22 -9.5 -44t-23.5 -28q-120 43 -251 46v-242h223
q5 -17 5 -31q0 -18 -5 -35h-222v-270q65 1 144.5 15.5t128.5 32.5q11 -6 17 -22.5zM404 57.5q30 27.5 47 86.5v377q-12 80 -40 112.5t-80 32.5q-76 0 -112 -76.5t-36 -241.5t36 -241.5t112 -76.5q43 0 73 27.5z" />
    <glyph glyph-name="oe" unicode="&#x153;" horiz-adv-x="877" 
d="M100.5 57.5q-63.5 71.5 -63.5 199.5t63.5 199.5t178.5 71.5q58 0 105 -25.5t73 -69.5q24 43 74 69t112 26q87 0 142.5 -39t55.5 -111q0 -73 -59 -112.5t-160 -39.5q-58 0 -101 5q6 -91 45.5 -130.5t106.5 -39.5q54 0 92 21.5t54 58.5q16 -7 16 -25q0 -13 -7 -31
q-20 -47 -69 -73t-118 -26q-60 0 -109 25t-74 68q-27 -43 -74 -68t-105 -25q-115 0 -178.5 71.5zM392 257q0 228 -113 228q-115 0 -115 -228t115 -228q113 0 113 228zM570 271q65 0 105 31t40 95q0 48 -21.5 68t-53.5 20q-55 0 -88 -58t-31 -152q34 -4 49 -4z" />
    <glyph glyph-name="Racute" unicode="&#x154;" horiz-adv-x="620" 
d="M607 55q0 -32 -24.5 -50t-50.5 -18q-36 0 -59 15.5t-38 42.5t-35 77l-35 90q-13 33 -24 51.5t-32 31.5t-56 13l-45 1v-180q0 -74 18 -116q-11 -10 -29 -18.5t-40 -8.5q-30 0 -49.5 17t-20.5 46v511q0 77 -17 122q58 28 176 28q146 0 218.5 -43.5t72.5 -140.5
q0 -72 -42.5 -122.5t-115.5 -69.5q35 -10 56.5 -31.5t40.5 -56.5l44 -102q14 -34 27 -49t27 -16q15 0 25 10q8 -17 8 -34zM259 352q69 1 107.5 47t38.5 119q0 70 -36 109.5t-114 39.5q-23 0 -47 -2v-312q32 -2 51 -1zM260 743q-6 3 -13 13.5t-6 14.5l142 128q17 -8 39 -31.5
t30 -43.5z" />
    <glyph glyph-name="racute" unicode="&#x155;" horiz-adv-x="462" 
d="M410.5 498q34.5 -30 34.5 -82q0 -36 -22 -60.5t-54 -25.5q-18 0 -32 5t-22 13q11 19 14.5 33.5t3.5 34.5q0 55 -46 55q-39 0 -62.5 -59t-23.5 -175q0 -112 3 -149.5t17 -71.5q-10 -10 -27.5 -18t-40.5 -8q-29 0 -49 18t-20 50v328q0 28 -6.5 40t-20.5 12q-19 0 -26 -13
q-12 20 -12 40q0 28 19.5 45t54.5 17q42 0 67 -27.5t28 -81.5q35 110 132 110q56 0 90.5 -30zM218 569q-12 0 -25.5 2.5t-18.5 5.5l90 156q21 3 59.5 -6t47.5 -17z" />
    <glyph glyph-name="Rcommaaccent" unicode="&#x156;" horiz-adv-x="620" 
d="M607 55q0 -32 -24.5 -50t-50.5 -18q-36 0 -59 15.5t-38 42.5t-35 77l-35 90q-13 33 -24 51.5t-32 31.5t-56 13l-45 1v-180q0 -74 18 -116q-11 -10 -29 -18.5t-40 -8.5q-30 0 -49.5 17t-20.5 46v511q0 77 -17 122q58 28 176 28q146 0 218.5 -43.5t72.5 -140.5
q0 -72 -42.5 -122.5t-115.5 -69.5q35 -10 56.5 -31.5t40.5 -56.5l44 -102q14 -34 27 -49t27 -16q15 0 25 10q8 -17 8 -34zM259 352q69 1 107.5 47t38.5 119q0 70 -36 109.5t-114 39.5q-23 0 -47 -2v-312q32 -2 51 -1zM293 -244q36 41 36 75q0 32 -17 45t-44 20q0 28 20 49
t51 21q30 0 50.5 -21t20.5 -66q0 -37 -18 -72.5t-59 -72.5q-22 4 -40 22z" />
    <glyph glyph-name="rcommaaccent" unicode="&#x157;" horiz-adv-x="462" 
d="M410.5 498q34.5 -30 34.5 -82q0 -36 -22 -60.5t-54 -25.5q-18 0 -32 5t-22 13q11 19 14.5 33.5t3.5 34.5q0 55 -46 55q-39 0 -62.5 -59t-23.5 -175q0 -112 3 -149.5t17 -71.5q-10 -10 -27.5 -18t-40.5 -8q-29 0 -49 18t-20 50v328q0 28 -6.5 40t-20.5 12q-19 0 -26 -13
q-12 20 -12 40q0 28 19.5 45t54.5 17q42 0 67 -27.5t28 -81.5q35 110 132 110q56 0 90.5 -30zM112 -244q36 41 36 75q0 32 -17 45t-44 20q0 28 20 49t51 21q30 0 50.5 -21t20.5 -66q0 -37 -18 -72.5t-59 -72.5q-22 4 -40 22z" />
    <glyph glyph-name="Rcaron" unicode="&#x158;" horiz-adv-x="620" 
d="M607 55q0 -32 -24.5 -50t-50.5 -18q-36 0 -59 15.5t-38 42.5t-35 77l-35 90q-13 33 -24 51.5t-32 31.5t-56 13l-45 1v-180q0 -74 18 -116q-11 -10 -29 -18.5t-40 -8.5q-30 0 -49.5 17t-20.5 46v511q0 77 -17 122q58 28 176 28q146 0 218.5 -43.5t72.5 -140.5
q0 -72 -42.5 -122.5t-115.5 -69.5q35 -10 56.5 -31.5t40.5 -56.5l44 -102q14 -34 27 -49t27 -16q15 0 25 10q8 -17 8 -34zM259 352q69 1 107.5 47t38.5 119q0 70 -36 109.5t-114 39.5q-23 0 -47 -2v-312q32 -2 51 -1zM300 745q-25 0 -33 4l-134 127q1 5 8.5 14.5t13.5 12.5
l144 -79l143 79q7 -3 15 -12.5t8 -14.5l-135 -127q-8 -4 -30 -4z" />
    <glyph glyph-name="rcaron" unicode="&#x159;" horiz-adv-x="462" 
d="M410.5 498q34.5 -30 34.5 -82q0 -36 -22 -60.5t-54 -25.5q-18 0 -32 5t-22 13q11 19 14.5 33.5t3.5 34.5q0 55 -46 55q-39 0 -62.5 -59t-23.5 -175q0 -112 3 -149.5t17 -71.5q-10 -10 -27.5 -18t-40.5 -8q-29 0 -49 18t-20 50v328q0 28 -6.5 40t-20.5 12q-19 0 -26 -13
q-12 20 -12 40q0 28 19.5 45t54.5 17q42 0 67 -27.5t28 -81.5q35 110 132 110q56 0 90.5 -30zM211 657l120 84q8 0 22.5 -5t15.5 -9l-127 -153q-9 -3 -29 -3q-25 0 -34 3l-127 153q1 4 14.5 9t21.5 5z" />
    <glyph glyph-name="Sacute" unicode="&#x15a;" horiz-adv-x="564" 
d="M99 25.5q-59 39.5 -59 103.5q0 32 17.5 51t57.5 19q6 0 26 -2q-3 -10 -3 -24q0 -8 2 -26q7 -49 45 -82.5t105 -33.5q53 0 86.5 27.5t33.5 80.5q0 50 -32.5 83t-111.5 77q-72 41 -113.5 72t-65 70.5t-23.5 94.5q0 88 65 131t166 43q95 0 152.5 -30.5t57.5 -88.5
q0 -55 -62 -58h-9q-9 0 -27 2q1 5 1 14q0 22 -7 40q-7 35 -38 56t-82 21q-42 0 -73.5 -21t-31.5 -68q0 -33 15 -58.5t48 -50.5t93 -58q61 -33 101.5 -62.5t67 -71.5t26.5 -97q0 -53 -27.5 -97t-84.5 -70t-141 -26q-116 0 -175 39.5zM247 743q-6 3 -13 13.5t-6 14.5l142 128
q17 -8 39 -31.5t30 -43.5z" />
    <glyph glyph-name="sacute" unicode="&#x15b;" horiz-adv-x="474" 
d="M80 18.5q-48 32.5 -48 85.5q0 27 16.5 47t51.5 20q6 0 22 -2q-3 -12 -3 -25q0 -11 3 -25q5 -37 34.5 -62t80.5 -25q44 0 71.5 16.5t27.5 49.5t-24.5 53t-77.5 45q-13 5 -22 10q-53 25 -85 45t-55 53.5t-23 82.5q0 71 55 106.5t139 35.5q83 0 132 -25.5t49 -72.5
q0 -24 -13.5 -40.5t-42.5 -17.5h-10q-9 0 -23 2q2 36 -7 54q-7 26 -30 41t-59 15q-35 0 -59 -14.5t-24 -44.5q0 -27 16.5 -46.5t40 -33.5t67.5 -35q56 -27 88 -45.5t55.5 -49t23.5 -73.5q0 -66 -54.5 -111.5t-170.5 -45.5q-94 0 -142 32.5zM243 570q-12 0 -25.5 2.5
t-18.5 5.5l90 156q21 3 59.5 -6t47.5 -17z" />
    <glyph glyph-name="Scircumflex" unicode="&#x15c;" horiz-adv-x="564" 
d="M99 25.5q-59 39.5 -59 103.5q0 32 17.5 51t57.5 19q6 0 26 -2q-3 -10 -3 -24q0 -8 2 -26q7 -49 45 -82.5t105 -33.5q53 0 86.5 27.5t33.5 80.5q0 50 -32.5 83t-111.5 77q-72 41 -113.5 72t-65 70.5t-23.5 94.5q0 88 65 131t166 43q95 0 152.5 -30.5t57.5 -88.5
q0 -55 -62 -58h-9q-9 0 -27 2q1 5 1 14q0 22 -7 40q-7 35 -38 56t-82 21q-42 0 -73.5 -21t-31.5 -68q0 -33 15 -58.5t48 -50.5t93 -58q61 -33 101.5 -62.5t67 -71.5t26.5 -97q0 -53 -27.5 -97t-84.5 -70t-141 -26q-116 0 -175 39.5zM449 763q-1 -5 -9 -14.5t-14 -12.5
l-143 79l-144 -79q-6 3 -13.5 12.5t-9.5 14.5l135 127q8 4 33 4q22 0 30 -4z" />
    <glyph glyph-name="scircumflex" unicode="&#x15d;" horiz-adv-x="474" 
d="M80 18.5q-48 32.5 -48 85.5q0 27 16.5 47t51.5 20q6 0 22 -2q-3 -12 -3 -25q0 -11 3 -25q5 -37 34.5 -62t80.5 -25q44 0 71.5 16.5t27.5 49.5t-24.5 53t-77.5 45q-13 5 -22 10q-53 25 -85 45t-55 53.5t-23 82.5q0 71 55 106.5t139 35.5q83 0 132 -25.5t49 -72.5
q0 -24 -13.5 -40.5t-42.5 -17.5h-10q-9 0 -23 2q2 36 -7 54q-7 26 -30 41t-59 15q-35 0 -59 -14.5t-24 -44.5q0 -27 16.5 -46.5t40 -33.5t67.5 -35q56 -27 88 -45.5t55.5 -49t23.5 -73.5q0 -66 -54.5 -111.5t-170.5 -45.5q-94 0 -142 32.5zM88.5 572q-13.5 5 -14.5 9
l127 152q8 4 33 4q22 0 30 -4l127 -152q-1 -4 -15.5 -9t-22.5 -5l-120 84l-123 -84q-8 0 -21.5 5z" />
    <glyph glyph-name="Scedilla" unicode="&#x15e;" horiz-adv-x="564" 
d="M470 47q-57 -54 -167 -60l-7 -41q49 1 78 -19t29 -55q0 -42 -31.5 -67t-87.5 -25q-67 0 -96 33q-2 9 2.5 23t9.5 17q13 -11 24.5 -17.5t34.5 -6.5q21 0 32 11t11 31q0 19 -13 31.5t-38 12.5l-13 -1l14 72q-105 4 -158.5 43.5t-53.5 99.5q0 32 17.5 51t57.5 19q6 0 26 -2
q-3 -10 -3 -24q0 -8 2 -26q7 -49 45 -82.5t105 -33.5q53 0 86.5 27.5t33.5 80.5q0 50 -32.5 83t-111.5 77q-72 41 -113.5 72t-65 70.5t-23.5 94.5q0 88 65 131t166 43q95 0 152.5 -30.5t57.5 -88.5q0 -55 -62 -58h-9q-9 0 -27 2q1 5 1 14q0 22 -7 40q-7 35 -38 56t-82 21
q-42 0 -73.5 -21t-31.5 -68q0 -33 15 -58.5t48 -50.5t93 -58q61 -33 101.5 -62.5t67 -71.5t26.5 -97q0 -78 -57 -132z" />
    <glyph glyph-name="scedilla" unicode="&#x15f;" horiz-adv-x="474" 
d="M401 39q-46 -44 -143 -52l-7 -41q49 1 78 -19t29 -55q0 -42 -31.5 -67t-87.5 -25q-67 0 -96 33q-2 9 2.5 23t9.5 17q13 -11 24.5 -17.5t34.5 -6.5q21 0 32 11t11 31q0 19 -13 31.5t-38 12.5l-13 -1l14 72q-87 3 -131 35t-44 83q0 27 16.5 47t51.5 20q6 0 22 -2
q-3 -12 -3 -25q0 -11 3 -25q5 -37 34.5 -62t80.5 -25q44 0 71.5 16.5t27.5 49.5t-24.5 53t-77.5 45q-13 5 -22 10q-53 25 -85 45t-55 53.5t-23 82.5q0 71 55 106.5t139 35.5q83 0 132 -25.5t49 -72.5q0 -24 -13.5 -40.5t-42.5 -17.5h-10q-9 0 -23 2q2 36 -7 54q-7 26 -30 41
t-59 15q-35 0 -59 -14.5t-24 -44.5q0 -27 16.5 -46.5t40 -33.5t67.5 -35q56 -27 88 -45.5t55.5 -49t23.5 -73.5q0 -60 -46 -104z" />
    <glyph glyph-name="Scaron" unicode="&#x160;" horiz-adv-x="564" 
d="M99 25.5q-59 39.5 -59 103.5q0 32 17.5 51t57.5 19q6 0 26 -2q-3 -10 -3 -24q0 -8 2 -26q7 -49 45 -82.5t105 -33.5q53 0 86.5 27.5t33.5 80.5q0 50 -32.5 83t-111.5 77q-72 41 -113.5 72t-65 70.5t-23.5 94.5q0 88 65 131t166 43q95 0 152.5 -30.5t57.5 -88.5
q0 -55 -62 -58h-9q-9 0 -27 2q1 5 1 14q0 22 -7 40q-7 35 -38 56t-82 21q-42 0 -73.5 -21t-31.5 -68q0 -33 15 -58.5t48 -50.5t93 -58q61 -33 101.5 -62.5t67 -71.5t26.5 -97q0 -53 -27.5 -97t-84.5 -70t-141 -26q-116 0 -175 39.5zM287 745q-25 0 -33 4l-134 127
q1 5 8.5 14.5t13.5 12.5l144 -79l143 79q7 -3 15 -12.5t8 -14.5l-135 -127q-8 -4 -30 -4z" />
    <glyph glyph-name="scaron" unicode="&#x161;" horiz-adv-x="474" 
d="M80 18.5q-48 32.5 -48 85.5q0 27 16.5 47t51.5 20q6 0 22 -2q-3 -12 -3 -25q0 -11 3 -25q5 -37 34.5 -62t80.5 -25q44 0 71.5 16.5t27.5 49.5t-24.5 53t-77.5 45q-13 5 -22 10q-53 25 -85 45t-55 53.5t-23 82.5q0 71 55 106.5t139 35.5q83 0 132 -25.5t49 -72.5
q0 -24 -13.5 -40.5t-42.5 -17.5h-10q-9 0 -23 2q2 36 -7 54q-7 26 -30 41t-59 15q-35 0 -59 -14.5t-24 -44.5q0 -27 16.5 -46.5t40 -33.5t67.5 -35q56 -27 88 -45.5t55.5 -49t23.5 -73.5q0 -66 -54.5 -111.5t-170.5 -45.5q-94 0 -142 32.5zM236 658l120 84q8 0 22.5 -5
t15.5 -9l-127 -153q-9 -3 -29 -3q-25 0 -34 3l-127 153q1 4 14.5 9t21.5 5z" />
    <glyph glyph-name="uni0162" unicode="&#x162;" horiz-adv-x="547" 
d="M530 686.5q5 -9.5 5 -23.5q0 -22 -9.5 -44t-23.5 -28q-100 44 -168 56l1 -511q0 -79 17 -123q-17 -17 -42 -23l-8 -44q49 1 78 -19t29 -55q0 -42 -31.5 -67t-87.5 -25q-67 0 -96 33q-2 9 2.5 23t9.5 17q13 -11 24.5 -17.5t34.5 -6.5q21 0 32 11t11 31q0 19 -13 31.5
t-38 12.5l-13 -1l14 75q-20 6 -32 22t-12 38v598q-64 -12 -168 -56q-14 6 -23 28.5t-9 44.5q0 32 19 32h482q10 0 15 -9.5z" />
    <glyph glyph-name="uni0163" unicode="&#x163;" horiz-adv-x="350" 
d="M277 514.5q42 1.5 48 2.5l-1 -29q-1 -15 -9.5 -22.5t-21.5 -7.5h-91v-32v-294q0 -53 46 -53q13 0 25.5 3.5t15.5 11.5q14 -18 14 -39q0 -27 -23.5 -44.5t-63.5 -19.5l-8 -45q49 1 78 -19t29 -55q0 -42 -31.5 -67t-87.5 -25q-67 0 -96 33q-2 9 2.5 23t9.5 17
q13 -11 24.5 -17.5t34.5 -6.5q21 0 32 11t11 31q0 19 -13 31.5t-38 12.5l-13 -1l15 80q-39 10 -60 43.5t-21 84.5v336h-15q-41 0 -60 -3l1 29q1 14 9.5 21.5t21.5 7.5h43v72q0 29 19 45.5t49 16.5q23 0 40 -8t27 -18q-13 -52 -16 -108h12q20 0 62 1.5z" />
    <glyph glyph-name="Tcaron" unicode="&#x164;" horiz-adv-x="547" 
d="M530 686.5q5 -9.5 5 -23.5q0 -22 -9.5 -44t-23.5 -28q-100 44 -168 56l1 -511q0 -79 17 -123q-10 -10 -28 -18.5t-41 -8.5q-30 0 -49.5 17t-19.5 46v598q-64 -12 -168 -56q-14 6 -23 28.5t-9 44.5q0 32 19 32h482q10 0 15 -9.5zM276 745q-25 0 -33 4l-134 127
q1 5 8.5 14.5t13.5 12.5l144 -79l143 79q7 -3 15 -12.5t8 -14.5l-135 -127q-8 -4 -30 -4z" />
    <glyph glyph-name="tcaron" unicode="&#x165;" horiz-adv-x="392" 
d="M267 612q0 71 -18 124q26 8 53 8q30 0 54 -8q0 -44 -11 -91t-29 -86h-52q3 24 3 53zM215 513q20 0 62 1.5t48 2.5l-1 -29q-1 -15 -9.5 -22.5t-21.5 -7.5h-91v-32v-294q0 -53 46 -53q13 0 25.5 3.5t15.5 11.5q14 -18 14 -39q0 -29 -28 -47t-74 -18q-56 0 -86.5 35
t-30.5 97v336h-15q-41 0 -60 -3l1 29q1 14 9.5 21.5t21.5 7.5h43v72q0 29 19 45.5t49 16.5q23 0 40 -8t27 -18q-13 -52 -16 -108h12z" />
    <glyph glyph-name="Utilde" unicode="&#x168;" horiz-adv-x="670" 
d="M593 306q0 -320 -258 -320q-126 0 -188.5 78t-62.5 242v254q0 74 -18 122q11 10 29 18t40 8q29 0 48.5 -16.5t19.5 -44.5v-346q0 -142 31.5 -206.5t100.5 -64.5q71 0 105 68t34 203v259q0 77 -17 122q10 10 27.5 18t40.5 8q29 0 48.5 -16.5t19.5 -44.5v-341zM459 784
q-23 -27 -59 -27q-17 0 -32.5 5.5t-37.5 16.5q-21 11 -35.5 16t-29.5 5q-25 0 -39 -10.5t-23 -28.5l-4 -1q-12 0 -24 10q6 53 32.5 76.5t63.5 23.5q17 0 32.5 -5.5t37.5 -16.5t36.5 -16t31.5 -5q22 0 32.5 9.5t20.5 28.5q11 0 16.5 -1.5t11.5 -6.5q-8 -46 -31 -73z" />
    <glyph glyph-name="utilde" unicode="&#x169;" horiz-adv-x="578" 
d="M561 50q0 -28 -19.5 -45.5t-54.5 -17.5q-46 0 -70.5 30.5t-24.5 89.5q-42 -121 -165 -121q-82 0 -119.5 47t-38.5 157v188q0 75 -17 124q30 26 68 26q30 0 49 -17t19 -46v-257q0 -88 17 -127t61 -39q49 0 80.5 60t31.5 176q0 113 -3 151t-16 73q29 26 68 26
q29 0 48.5 -18.5t19.5 -49.5l1 -332q0 -28 6.5 -40t19.5 -12q19 0 27 13q12 -19 12 -39zM389 607q-22 -27 -57 -27q-16 0 -30.5 6t-33.5 17q-18 11 -32 16.5t-29 5.5q-43 0 -60 -40h-2q-5 0 -12.5 2.5t-11.5 6.5q5 51 30.5 74.5t60.5 23.5q17 0 32 -6t34 -18
q21 -11 34 -16.5t28 -5.5q22 0 33 10.5t19 30.5q9 0 14.5 -1.5t10.5 -6.5q-6 -45 -28 -72z" />
    <glyph glyph-name="Umacron" unicode="&#x16a;" horiz-adv-x="670" 
d="M593 306q0 -320 -258 -320q-126 0 -188.5 78t-62.5 242v254q0 74 -18 122q11 10 29 18t40 8q29 0 48.5 -16.5t19.5 -44.5v-346q0 -142 31.5 -206.5t100.5 -64.5q71 0 105 68t34 203v259q0 77 -17 122q10 10 27.5 18t40.5 8q29 0 48.5 -16.5t19.5 -44.5v-341zM474 832
q4 -18 4 -27q0 -8 -4 -28h-276q-4 13 -4 28t4 27h276z" />
    <glyph glyph-name="umacron" unicode="&#x16b;" horiz-adv-x="578" 
d="M561 50q0 -28 -19.5 -45.5t-54.5 -17.5q-46 0 -70.5 30.5t-24.5 89.5q-42 -121 -165 -121q-82 0 -119.5 47t-38.5 157v188q0 75 -17 124q30 26 68 26q30 0 49 -17t19 -46v-257q0 -88 17 -127t61 -39q49 0 80.5 60t31.5 176q0 113 -3 151t-16 73q29 26 68 26
q29 0 48.5 -18.5t19.5 -49.5l1 -332q0 -28 6.5 -40t19.5 -12q19 0 27 13q12 -19 12 -39zM410 656q4 -18 4 -28q0 -9 -4 -27h-276q-4 12 -4 27q0 16 4 28h276z" />
    <glyph glyph-name="Ubreve" unicode="&#x16c;" horiz-adv-x="670" 
d="M593 306q0 -320 -258 -320q-126 0 -188.5 78t-62.5 242v254q0 74 -18 122q11 10 29 18t40 8q29 0 48.5 -16.5t19.5 -44.5v-346q0 -142 31.5 -206.5t100.5 -64.5q71 0 105 68t34 203v259q0 77 -17 122q10 10 27.5 18t40.5 8q29 0 48.5 -16.5t19.5 -44.5v-341zM426.5 779
q-34.5 -35 -92.5 -35q-59 0 -93.5 36t-44.5 90q26 6 39 10q11 -37 38 -54t65 -17q77 0 102 71q19 -6 34 -9q-13 -57 -47.5 -92z" />
    <glyph glyph-name="ubreve" unicode="&#x16d;" horiz-adv-x="578" 
d="M561 50q0 -28 -19.5 -45.5t-54.5 -17.5q-46 0 -70.5 30.5t-24.5 89.5q-42 -121 -165 -121q-82 0 -119.5 47t-38.5 157v188q0 75 -17 124q30 26 68 26q30 0 49 -17t19 -46v-257q0 -88 17 -127t61 -39q49 0 80.5 60t31.5 176q0 113 -3 151t-16 73q29 26 68 26
q29 0 48.5 -18.5t19.5 -49.5l1 -332q0 -28 6.5 -40t19.5 -12q19 0 27 13q12 -19 12 -39zM386 728q21 -5 35 -13q-36 -141 -151 -141q-66 0 -102 39.5t-49 100.5q15 10 38 14q15 -37 45.5 -57t70.5 -20q77 0 113 77z" />
    <glyph glyph-name="Uring" unicode="&#x16e;" horiz-adv-x="670" 
d="M593 306q0 -320 -258 -320q-126 0 -188.5 78t-62.5 242v254q0 74 -18 122q11 10 29 18t40 8q29 0 48.5 -16.5t19.5 -44.5v-346q0 -142 31.5 -206.5t100.5 -64.5q71 0 105 68t34 203v259q0 77 -17 122q10 10 27.5 18t40.5 8q29 0 48.5 -16.5t19.5 -44.5v-341zM408.5 892.5
q26.5 -23.5 26.5 -61.5q-1 -40 -28.5 -64t-71.5 -24q-43 0 -69.5 23t-26.5 61q0 40 27.5 64.5t72.5 24.5q43 0 69.5 -23.5zM307.5 868q-10.5 -14 -10.5 -39t10.5 -39t29.5 -14t29.5 13.5t10.5 39.5t-10.5 39.5t-29.5 13.5t-29.5 -14z" />
    <glyph glyph-name="uring" unicode="&#x16f;" horiz-adv-x="578" 
d="M561 50q0 -28 -19.5 -45.5t-54.5 -17.5q-46 0 -70.5 30.5t-24.5 89.5q-42 -121 -165 -121q-82 0 -119.5 47t-38.5 157v188q0 75 -17 124q30 26 68 26q30 0 49 -17t19 -46v-257q0 -88 17 -127t61 -39q49 0 80.5 60t31.5 176q0 113 -3 151t-16 73q29 26 68 26
q29 0 48.5 -18.5t19.5 -49.5l1 -332q0 -28 6.5 -40t19.5 -12q19 0 27 13q12 -19 12 -39zM345.5 709.5q26.5 -23.5 26.5 -61.5q-1 -40 -28.5 -64t-71.5 -24q-43 0 -69.5 23t-26.5 61q0 40 27.5 64.5t72.5 24.5q43 0 69.5 -23.5zM244.5 685q-10.5 -14 -10.5 -39t10.5 -39
t29.5 -14t29.5 13.5t10.5 39.5t-10.5 39.5t-29.5 13.5t-29.5 -14z" />
    <glyph glyph-name="Uhungarumlaut" unicode="&#x170;" horiz-adv-x="670" 
d="M593 306q0 -320 -258 -320q-126 0 -188.5 78t-62.5 242v254q0 74 -18 122q11 10 29 18t40 8q29 0 48.5 -16.5t19.5 -44.5v-346q0 -142 31.5 -206.5t100.5 -64.5q71 0 105 68t34 203v259q0 77 -17 122q10 10 27.5 18t40.5 8q29 0 48.5 -16.5t19.5 -44.5v-341zM244 735
q-5 1 -14.5 9t-11.5 12l104 158q19 -2 45.5 -19t40.5 -35zM394 732q-5 1 -14.5 9t-11.5 12l105 158q19 -2 45.5 -19t39.5 -35z" />
    <glyph glyph-name="uhungarumlaut" unicode="&#x171;" horiz-adv-x="578" 
d="M561 50q0 -28 -19.5 -45.5t-54.5 -17.5q-46 0 -70.5 30.5t-24.5 89.5q-42 -121 -165 -121q-82 0 -119.5 47t-38.5 157v188q0 75 -17 124q30 26 68 26q30 0 49 -17t19 -46v-257q0 -88 17 -127t61 -39q49 0 80.5 60t31.5 176q0 113 -3 151t-16 73q29 26 68 26
q29 0 48.5 -18.5t19.5 -49.5l1 -332q0 -28 6.5 -40t19.5 -12q19 0 27 13q12 -19 12 -39zM178 550q-6 1 -15 8.5t-13 12.5l116 166q19 -2 42.5 -14.5t36.5 -30.5zM336 550q-6 2 -15 9.5t-13 12.5l117 165q18 -2 41 -14.5t37 -29.5z" />
    <glyph glyph-name="Uogonek" unicode="&#x172;" horiz-adv-x="670" 
d="M573.5 691.5q19.5 -16.5 19.5 -44.5v-341q0 -244 -152 -303q-37 -18 -55.5 -39t-18.5 -48q0 -45 47 -45q53 0 84 56q14 -7 14 -20q0 -7 -2 -11q-12 -31 -45 -52t-79 -21q-37 0 -67.5 19t-30.5 60q0 49 50 84h-3q-126 0 -188.5 78t-62.5 242v254q0 74 -18 122q11 10 29 18
t40 8q29 0 48.5 -16.5t19.5 -44.5v-346q0 -142 31.5 -206.5t100.5 -64.5q71 0 105 68t34 203v259q0 77 -17 122q10 10 27.5 18t40.5 8q29 0 48.5 -16.5z" />
    <glyph glyph-name="uogonek" unicode="&#x173;" horiz-adv-x="578" 
d="M594 -103q0 -7 -2 -11q-12 -31 -45 -52t-79 -21q-37 0 -67.5 19t-30.5 60q0 34 21.5 59t58.5 42q-58 22 -58 114q-42 -121 -165 -121q-82 0 -119.5 47t-38.5 157v188q0 75 -17 124q30 26 68 26q30 0 49 -17t19 -46v-257q0 -88 17 -127t61 -39q49 0 80.5 60t31.5 176
q0 113 -3 151t-16 73q29 26 68 26q29 0 48.5 -18.5t19.5 -49.5l1 -332q0 -28 6.5 -40t19.5 -12q19 0 27 13q12 -19 12 -39t-10 -35t-29 -22q-36 -19 -54.5 -39.5t-18.5 -47.5q0 -45 47 -45q53 0 84 56q14 -7 14 -20z" />
    <glyph glyph-name="Wcircumflex" unicode="&#x174;" horiz-adv-x="949" 
d="M907.5 695.5q16.5 -11.5 16.5 -36.5q0 -19 -13 -64l-164 -592q-44 -17 -80 -17q-60 0 -70 35l-119 463l-127 -481q-45 -17 -78 -17q-68 0 -75 35l-152 604q-4 14 -12 31t-18 28q26 26 72 26q67 0 77 -46l125 -579l119 465q3 17 3 30q0 25 -8 39q17 9 41 14t44 5
q24 0 40.5 -8t20.5 -23l134 -521l110 537q1 8 3.5 21t2.5 21q0 19 -9 31q33 11 65 11q35 0 51.5 -11.5zM644 763q-1 -5 -9 -14.5t-14 -12.5l-143 79l-144 -79q-6 3 -13.5 12.5t-9.5 14.5l135 127q8 4 33 4q22 0 30 -4z" />
    <glyph glyph-name="wcircumflex" unicode="&#x175;" horiz-adv-x="818" 
d="M168 26l-125 413q-2 5 -10 25.5t-20 33.5q27 27 68 27q28 0 46.5 -12t23.5 -35l100 -410l85 373q5 33 5 41q0 20 -8 30q33 13 77 13q67 0 80 -42l97 -415l87 373q6 28 6 41q0 20 -8 30q16 7 29 10t32 3q34 0 50 -12.5t16 -38.5q0 -30 -13 -63l-138 -407q-42 -18 -80 -18
q-24 0 -41.5 9.5t-22.5 30.5l-94 381l-93 -403q-43 -18 -86 -18q-51 0 -63 40zM260.5 571q-13.5 5 -14.5 9l127 152q8 4 33 4q22 0 30 -4l127 -152q-1 -4 -15.5 -9t-22.5 -5l-120 84l-123 -84q-8 0 -21.5 5z" />
    <glyph glyph-name="Ycircumflex" unicode="&#x176;" horiz-adv-x="584" 
d="M352 259v-123q0 -76 18 -123q-10 -10 -28.5 -18.5t-40.5 -8.5q-30 0 -49.5 17t-19.5 46v211q-8 10 -19 32l-160 315q-21 37 -46 62q13 14 35 26t50 12q33 0 50.5 -16.5t33.5 -50.5l139 -302l129 282q10 24 10 42q0 19 -12 33q31 12 68 12q27 0 41 -15t15 -38
q0 -27 -28 -74zM475 763q-1 -5 -9 -14.5t-14 -12.5l-143 79l-144 -79q-6 3 -13.5 12.5t-9.5 14.5l135 127q8 4 33 4q22 0 30 -4z" />
    <glyph glyph-name="ycircumflex" unicode="&#x177;" horiz-adv-x="555" 
d="M496 52q0 -148 -67.5 -213.5t-185.5 -65.5q-81 0 -133 24.5t-52 81.5q0 31 23 51t60 20q39 0 54 -20q-13 -9 -20 -23t-7 -27q0 -31 21 -49.5t56 -18.5q69 0 104.5 59t35.5 166q0 28 7 80q-43 -125 -168 -125q-78 0 -116 47.5t-39 156.5v182q0 75 -17 124q30 26 68 26
q30 0 49 -17t19 -46v-251q0 -86 16 -125t59 -39q51 0 83 58.5t32 171.5q0 112 -3 149.5t-16 72.5q29 26 68 26q29 0 48.5 -18.5t19.5 -49.5zM132.5 571q-13.5 5 -14.5 9l127 152q8 4 33 4q22 0 30 -4l127 -152q-1 -4 -15.5 -9t-22.5 -5l-120 84l-123 -84q-8 0 -21.5 5z" />
    <glyph glyph-name="Ydieresis" unicode="&#x178;" horiz-adv-x="584" 
d="M352 259v-123q0 -76 18 -123q-10 -10 -28.5 -18.5t-40.5 -8.5q-30 0 -49.5 17t-19.5 46v211q-8 10 -19 32l-160 315q-21 37 -46 62q13 14 35 26t50 12q33 0 50.5 -16.5t33.5 -50.5l139 -302l129 282q10 24 10 42q0 19 -12 33q31 12 68 12q27 0 41 -15t15 -38
q0 -27 -28 -74zM164.5 775.5q-18.5 18.5 -18.5 45.5t18.5 46t45.5 19t46 -19.5t19 -45.5q0 -27 -19 -45.5t-46 -18.5t-45.5 18.5zM370 775.5q-19 18.5 -19 45.5q0 26 19 45.5t46 19.5q26 0 45 -19.5t19 -45.5q0 -27 -19 -45.5t-45 -18.5q-27 0 -46 18.5z" />
    <glyph glyph-name="Zacute" unicode="&#x179;" horiz-adv-x="589" 
d="M547 167q17 -26 17 -60q0 -50 -38 -80t-113 -29l-254 6q-31 1 -51 -1t-46 -10l-17 30q0 32 6.5 53.5t25.5 43.5l353 486l-211 -14q-29 -1 -50.5 -11t-29.5 -28q-7 -17 -7 -31t9 -29q-31 3 -55 19q-19 10 -31 31.5t-12 46.5q0 50 41.5 80.5t123.5 28.5l198 -6
q81 -2 118 10l17 -35q0 -31 -7 -52.5t-25 -45.5l-356 -479l228 14q36 1 58 14t30 31q7 15 7 31q0 17 -6 30q13 -2 30 -8q30 -10 47 -36zM257 743q-6 3 -13 13.5t-6 14.5l142 128q17 -8 39 -31.5t30 -43.5z" />
    <glyph glyph-name="zacute" unicode="&#x17a;" horiz-adv-x="501" 
d="M471.5 136.5q14.5 -25.5 14.5 -48.5q0 -41 -36.5 -67.5t-100.5 -25.5l-210 5q-58 2 -92 -10l-15 26q0 28 5.5 45t21.5 34l293 338l-166 -13q-21 -1 -37 -10t-25 -21q-12 -16 -12 -33q0 -4 2 -12q-21 2 -31 7q-27 12 -41.5 35t-14.5 44q0 42 35.5 67.5t107.5 23.5l182 -6
q62 -2 92 9l13 -30q0 -28 -5 -45t-22 -37l-270 -318l164 6q26 1 43.5 11.5t25.5 25.5q8 14 8 28q0 9 -3 16q20 -3 31 -7q28 -12 42.5 -37.5zM257 571q-12 0 -25.5 2.5t-18.5 5.5l90 156q21 3 59.5 -6t47.5 -17z" />
    <glyph glyph-name="Zdotaccent" unicode="&#x17b;" horiz-adv-x="589" 
d="M547 167q17 -26 17 -60q0 -50 -38 -80t-113 -29l-254 6q-31 1 -51 -1t-46 -10l-17 30q0 32 6.5 53.5t25.5 43.5l353 486l-211 -14q-29 -1 -50.5 -11t-29.5 -28q-7 -17 -7 -31t9 -29q-31 3 -55 19q-19 10 -31 31.5t-12 46.5q0 50 41.5 80.5t123.5 28.5l198 -6
q81 -2 118 10l17 -35q0 -31 -7 -52.5t-25 -45.5l-356 -479l228 14q36 1 58 14t30 31q7 15 7 31q0 17 -6 30q13 -2 30 -8q30 -10 47 -36zM250.5 773q-19.5 19 -19.5 45q0 27 19 45.5t46 18.5q26 0 45 -18.5t19 -45.5q0 -26 -19 -45t-45 -19t-45.5 19z" />
    <glyph glyph-name="zdotaccent" unicode="&#x17c;" horiz-adv-x="501" 
d="M471.5 136.5q14.5 -25.5 14.5 -48.5q0 -41 -36.5 -67.5t-100.5 -25.5l-210 5q-58 2 -92 -10l-15 26q0 28 5.5 45t21.5 34l293 338l-166 -13q-21 -1 -37 -10t-25 -21q-12 -16 -12 -33q0 -4 2 -12q-21 2 -31 7q-27 12 -41.5 35t-14.5 44q0 42 35.5 67.5t107.5 23.5l182 -6
q62 -2 92 9l13 -30q0 -28 -5 -45t-22 -37l-270 -318l164 6q26 1 43.5 11.5t25.5 25.5q8 14 8 28q0 9 -3 16q20 -3 31 -7q28 -12 42.5 -37.5zM204 594.5q-19 18.5 -19 45.5t19 46t46 19q26 0 45 -19t19 -46t-19 -45.5t-45 -18.5q-27 0 -46 18.5z" />
    <glyph glyph-name="Zcaron" unicode="&#x17d;" horiz-adv-x="589" 
d="M547 167q17 -26 17 -60q0 -50 -38 -80t-113 -29l-254 6q-31 1 -51 -1t-46 -10l-17 30q0 32 6.5 53.5t25.5 43.5l353 486l-211 -14q-29 -1 -50.5 -11t-29.5 -28q-7 -17 -7 -31t9 -29q-31 3 -55 19q-19 10 -31 31.5t-12 46.5q0 50 41.5 80.5t123.5 28.5l198 -6
q81 -2 118 10l17 -35q0 -31 -7 -52.5t-25 -45.5l-356 -479l228 14q36 1 58 14t30 31q7 15 7 31q0 17 -6 30q13 -2 30 -8q30 -10 47 -36zM298 745q-25 0 -33 4l-134 127q1 5 8.5 14.5t13.5 12.5l144 -79l143 79q7 -3 15 -12.5t8 -14.5l-135 -127q-8 -4 -30 -4z" />
    <glyph glyph-name="zcaron" unicode="&#x17e;" horiz-adv-x="501" 
d="M471.5 136.5q14.5 -25.5 14.5 -48.5q0 -41 -36.5 -67.5t-100.5 -25.5l-210 5q-58 2 -92 -10l-15 26q0 28 5.5 45t21.5 34l293 338l-166 -13q-21 -1 -37 -10t-25 -21q-12 -16 -12 -33q0 -4 2 -12q-21 2 -31 7q-27 12 -41.5 35t-14.5 44q0 42 35.5 67.5t107.5 23.5l182 -6
q62 -2 92 9l13 -30q0 -28 -5 -45t-22 -37l-270 -318l164 6q26 1 43.5 11.5t25.5 25.5q8 14 8 28q0 9 -3 16q20 -3 31 -7q28 -12 42.5 -37.5zM250 659l120 84q8 0 22.5 -5t15.5 -9l-127 -153q-9 -3 -29 -3q-25 0 -34 3l-127 153q1 4 14.5 9t21.5 5z" />
    <glyph glyph-name="uni018F" unicode="&#x18f;" horiz-adv-x="612" 
d="M489 615q76 -95 76 -269q0 -169 -74 -264.5t-212 -95.5q-103 0 -167.5 50.5t-64.5 145.5q0 97 65 150t174 53q95 0 151 -10q-6 141 -54 200.5t-136 59.5q-61 0 -108 -23t-67 -63q-7 3 -11.5 10t-4.5 17q0 12 7 29q22 50 80.5 77.5t134.5 27.5q135 0 211 -95zM396 108
q41 80 42 225q-35 6 -67 6q-79 0 -138 -40.5t-59 -138.5q0 -71 31 -101.5t77 -30.5q73 0 114 80z" />
    <glyph glyph-name="florin" unicode="&#x192;" horiz-adv-x="397" 
d="M395.5 720.5q37.5 -21.5 37.5 -61.5q0 -31 -22 -50t-52 -19q-38 0 -52 17q13 16 17.5 29t4.5 28q0 39 -43 39q-31 0 -46.5 -24.5t-21 -60.5t-8.5 -99v-6h27q19 0 59 1.5t46 2.5l-3 -29q-1 -15 -10 -22.5t-22 -7.5h-100l-25 -461q-1 -9 -1 -31q0 -54 12 -91
q-31 -27 -69 -27q-30 0 -47.5 16.5t-15.5 45.5l27 548h-10q-40 0 -60 -3l2 29q1 14 10.5 21.5t22.5 7.5h38l1 27q11 202 197 202q69 0 106.5 -21.5z" />
    <glyph glyph-name="Ohorn" unicode="&#x1a0;" horiz-adv-x="661" 
d="M529 631q81 -90 81 -283q0 -180 -71 -271t-208 -91q-138 0 -209 91t-71 271t71 271t209 91q98 0 163 -47q42 20 42 58q0 14 -6.5 29t-15.5 27q13 9 39 20.5t42 14.5q10 -11 18.5 -34t8.5 -45q0 -61 -93 -102zM442.5 106.5q35.5 76.5 35.5 241.5t-35.5 241.5t-111.5 76.5
t-112 -76.5t-36 -241.5t36 -241.5t112 -76.5t111.5 76.5z" />
    <glyph glyph-name="ohorn" unicode="&#x1a1;" horiz-adv-x="557" 
d="M530 490.5q-24 -25.5 -65 -44.5q55 -70 55 -189q0 -128 -63.5 -199.5t-177.5 -71.5q-115 0 -178.5 71.5t-63.5 199.5t63.5 199.5t178.5 71.5q91 0 153 -48q36 20 36 55q0 14 -6.5 29t-15.5 27q13 9 39 20.5t42 14.5q10 -11 18.5 -34t8.5 -45q0 -31 -24 -56.5zM392 257
q0 228 -113 228q-115 0 -115 -228t115 -228q113 0 113 228z" />
    <glyph glyph-name="Uhorn" unicode="&#x1af;" horiz-adv-x="670" 
d="M575 690q18 -16 18 -43v-341q0 -320 -258 -320q-126 0 -188.5 78t-62.5 242v254q0 74 -18 122q11 10 29 18t40 8q29 0 48.5 -16.5t19.5 -44.5v-346q0 -142 31.5 -206.5t100.5 -64.5q71 0 105 68t34 203v259q0 77 -17 122q7 7 20.5 14t29.5 10q53 21 53 63q0 14 -6.5 29
t-15.5 27q13 9 39 20.5t42 14.5q10 -11 18.5 -34t8.5 -45q0 -52 -71 -91z" />
    <glyph glyph-name="uhorn" unicode="&#x1b0;" horiz-adv-x="578" 
d="M561 50q0 -28 -19.5 -45.5t-54.5 -17.5q-46 0 -70.5 30.5t-24.5 89.5q-42 -121 -165 -121q-82 0 -119.5 47t-38.5 157v188q0 75 -17 124q30 26 68 26q30 0 49 -17t19 -46v-257q0 -88 17 -127t61 -39q49 0 80.5 60t31.5 176q0 113 -3 151t-16 73q29 26 68 26
q29 0 48.5 -18.5t19.5 -49.5l1 -332q0 -28 6.5 -40t19.5 -12q19 0 27 13q12 -19 12 -39zM527 522q57 20 57 64q0 14 -6.5 29t-15.5 27q13 9 39 20.5t42 14.5q10 -11 18.5 -34t8.5 -45q0 -37 -35.5 -66.5t-92.5 -49.5z" />
    <glyph glyph-name="uni01CD" unicode="&#x1cd;" horiz-adv-x="616" 
d="M611 14q-23 -27 -70 -27q-29 0 -48.5 12t-24.5 35l-48 174h-234l-37 -137q-7 -24 -7 -42q0 -20 10 -29q-33 -13 -66 -13q-35 0 -51 12t-16 39q0 20 12 63l200 593q54 17 101 17q54 0 66 -40l183 -598q13 -40 30 -59zM401 274l-100 364l-98 -364h198zM314 745q-25 0 -33 4
l-134 127q1 5 8.5 14.5t13.5 12.5l144 -79l143 79q7 -3 15 -12.5t8 -14.5l-135 -127q-8 -4 -30 -4z" />
    <glyph glyph-name="uni01CE" unicode="&#x1ce;" horiz-adv-x="562" 
d="M555 55q0 -28 -24 -46.5t-63 -18.5q-48 0 -74 32.5t-29 105.5q-29 -63 -80 -100.5t-118 -37.5q-58 0 -93.5 31t-35.5 86q0 64 48.5 105t123.5 62q67 19 148 19v26q0 85 -22.5 126t-74.5 41q-35 0 -57 -18.5t-22 -58.5q0 -23 8.5 -43t28.5 -30q-10 -11 -27.5 -16.5
t-37.5 -5.5q-42 0 -67.5 26t-25.5 65q0 59 55.5 91t151.5 32q110 0 161 -51.5t51 -165.5v-179q0 -53 34 -53q7 0 15 3.5t13 11.5q13 -19 13 -39zM285 93q33 25 55 67.5t22 92.5q-80 2 -127 -21q-31 -15 -49 -40t-18 -57q0 -29 13 -48t40 -19q31 0 64 25zM270 657l120 84
q8 0 22.5 -5t15.5 -9l-127 -153q-9 -3 -29 -3q-25 0 -34 3l-127 153q1 4 14.5 9t21.5 5z" />
    <glyph glyph-name="uni01CF" unicode="&#x1cf;" horiz-adv-x="295" 
d="M107 3q-19 17 -19 46l-1 511q0 73 -17 122q10 10 28 18t41 8q30 0 49.5 -16.5t19.5 -44.5v-511q0 -79 17 -123q-10 -10 -28 -18.5t-41 -8.5q-30 0 -49 17zM137 745q-25 0 -33 4l-134 127q1 5 8.5 14.5t13.5 12.5l144 -79l143 79q7 -3 15 -12.5t8 -14.5l-135 -127
q-8 -4 -30 -4z" />
    <glyph glyph-name="uni01D0" unicode="&#x1d0;" horiz-adv-x="262" 
d="M210 13q-30 -27 -69 -27q-28 0 -47 17t-19 46v330q0 75 -18 123q32 26 67 26q30 0 48.5 -16.5t18.5 -45.5l1 -330q0 -79 18 -123zM122 657l120 84q8 0 22.5 -5t15.5 -9l-127 -153q-9 -3 -29 -3q-25 0 -34 3l-127 153q1 4 14.5 9t21.5 5z" />
    <glyph glyph-name="uni01D1" unicode="&#x1d1;" horiz-adv-x="661" 
d="M122 77q-71 91 -71 271t71 271t209 91q137 0 208 -91t71 -271t-71 -271t-208 -91q-138 0 -209 91zM442.5 106.5q35.5 76.5 35.5 241.5t-35.5 241.5t-111.5 76.5t-112 -76.5t-36 -241.5t36 -241.5t112 -76.5t111.5 76.5zM332 745q-25 0 -33 4l-134 127q1 5 8.5 14.5
t13.5 12.5l144 -79l143 79q7 -3 15 -12.5t8 -14.5l-135 -127q-8 -4 -30 -4z" />
    <glyph glyph-name="uni01D2" unicode="&#x1d2;" horiz-adv-x="557" 
d="M100.5 57.5q-63.5 71.5 -63.5 199.5t63.5 199.5t178.5 71.5q114 0 177.5 -71.5t63.5 -199.5t-63.5 -199.5t-177.5 -71.5q-115 0 -178.5 71.5zM392 257q0 228 -113 228q-115 0 -115 -228t115 -228q113 0 113 228zM278 657l120 84q8 0 22.5 -5t15.5 -9l-127 -153
q-9 -3 -29 -3q-25 0 -34 3l-127 153q1 4 14.5 9t21.5 5z" />
    <glyph glyph-name="uni01D3" unicode="&#x1d3;" horiz-adv-x="670" 
d="M593 306q0 -320 -258 -320q-126 0 -188.5 78t-62.5 242v254q0 74 -18 122q11 10 29 18t40 8q29 0 48.5 -16.5t19.5 -44.5v-346q0 -142 31.5 -206.5t100.5 -64.5q71 0 105 68t34 203v259q0 77 -17 122q10 10 27.5 18t40.5 8q29 0 48.5 -16.5t19.5 -44.5v-341zM336 745
q-25 0 -33 4l-134 127q1 5 8.5 14.5t13.5 12.5l144 -79l143 79q7 -3 15 -12.5t8 -14.5l-135 -127q-8 -4 -30 -4z" />
    <glyph glyph-name="uni01D4" unicode="&#x1d4;" horiz-adv-x="578" 
d="M561 50q0 -28 -19.5 -45.5t-54.5 -17.5q-46 0 -70.5 30.5t-24.5 89.5q-42 -121 -165 -121q-82 0 -119.5 47t-38.5 157v188q0 75 -17 124q30 26 68 26q30 0 49 -17t19 -46v-257q0 -88 17 -127t61 -39q49 0 80.5 60t31.5 176q0 113 -3 151t-16 73q29 26 68 26
q29 0 48.5 -18.5t19.5 -49.5l1 -332q0 -28 6.5 -40t19.5 -12q19 0 27 13q12 -19 12 -39zM271 657l120 84q8 0 22.5 -5t15.5 -9l-127 -153q-9 -3 -29 -3q-25 0 -34 3l-127 153q1 4 14.5 9t21.5 5z" />
    <glyph glyph-name="uni01D5" unicode="&#x1d5;" horiz-adv-x="670" 
d="M593 306q0 -320 -258 -320q-126 0 -188.5 78t-62.5 242v254q0 74 -18 122q11 10 29 18t40 8q29 0 48.5 -16.5t19.5 -44.5v-346q0 -142 31.5 -206.5t100.5 -64.5q71 0 105 68t34 203v259q0 77 -17 122q10 10 27.5 18t40.5 8q29 0 48.5 -16.5t19.5 -44.5v-341zM187.5 775.5
q-18.5 18.5 -18.5 45.5t18.5 46t45.5 19t46 -19.5t19 -45.5q0 -27 -19 -45.5t-46 -18.5t-45.5 18.5zM393 775.5q-19 18.5 -19 45.5q0 26 19 45.5t46 19.5q26 0 45 -19.5t19 -45.5q0 -27 -19 -45.5t-45 -18.5q-27 0 -46 18.5zM474 989q4 -18 4 -27q0 -8 -4 -28h-276
q-4 13 -4 28t4 27h276z" />
    <glyph glyph-name="uni01D6" unicode="&#x1d6;" horiz-adv-x="578" 
d="M561 50q0 -28 -19.5 -45.5t-54.5 -17.5q-46 0 -70.5 30.5t-24.5 89.5q-42 -121 -165 -121q-82 0 -119.5 47t-38.5 157v188q0 75 -17 124q30 26 68 26q30 0 49 -17t19 -46v-257q0 -88 17 -127t61 -39q49 0 80.5 60t31.5 176q0 113 -3 151t-16 73q29 26 68 26
q29 0 48.5 -18.5t19.5 -49.5l1 -332q0 -28 6.5 -40t19.5 -12q19 0 27 13q12 -19 12 -39zM139 602q-17 17 -17 40q0 24 17 40.5t41 16.5q23 0 40 -16.5t17 -40.5q0 -23 -17 -40t-40 -17q-24 0 -41 17zM325 602q-17 17 -17 40q0 24 17 40.5t40 16.5q24 0 41 -16.5t17 -40.5
q0 -23 -17.5 -40t-40.5 -17t-40 17zM410 813q4 -18 4 -28q0 -9 -4 -27h-276q-4 12 -4 27q0 16 4 28h276z" />
    <glyph glyph-name="uni01D7" unicode="&#x1d7;" horiz-adv-x="670" 
d="M593 306q0 -320 -258 -320q-126 0 -188.5 78t-62.5 242v254q0 74 -18 122q11 10 29 18t40 8q29 0 48.5 -16.5t19.5 -44.5v-346q0 -142 31.5 -206.5t100.5 -64.5q71 0 105 68t34 203v259q0 77 -17 122q10 10 27.5 18t40.5 8q29 0 48.5 -16.5t19.5 -44.5v-341zM187.5 775.5
q-18.5 18.5 -18.5 45.5t18.5 46t45.5 19t46 -19.5t19 -45.5q0 -27 -19 -45.5t-46 -18.5t-45.5 18.5zM393 775.5q-19 18.5 -19 45.5q0 26 19 45.5t46 19.5q26 0 45 -19.5t19 -45.5q0 -27 -19 -45.5t-45 -18.5q-27 0 -46 18.5zM296 900q-6 3 -13 13.5t-6 14.5l142 128
q17 -8 39 -31.5t30 -43.5z" />
    <glyph glyph-name="uni01D8" unicode="&#x1d8;" horiz-adv-x="578" 
d="M561 50q0 -28 -19.5 -45.5t-54.5 -17.5q-46 0 -70.5 30.5t-24.5 89.5q-42 -121 -165 -121q-82 0 -119.5 47t-38.5 157v188q0 75 -17 124q30 26 68 26q30 0 49 -17t19 -46v-257q0 -88 17 -127t61 -39q49 0 80.5 60t31.5 176q0 113 -3 151t-16 73q29 26 68 26
q29 0 48.5 -18.5t19.5 -49.5l1 -332q0 -28 6.5 -40t19.5 -12q19 0 27 13q12 -19 12 -39zM139 602q-17 17 -17 40q0 24 17 40.5t41 16.5q23 0 40 -16.5t17 -40.5q0 -23 -17 -40t-40 -17q-24 0 -41 17zM325 602q-17 17 -17 40q0 24 17 40.5t40 16.5q24 0 41 -16.5t17 -40.5
q0 -23 -17.5 -40t-40.5 -17t-40 17zM278 726q-12 0 -25.5 2.5t-18.5 5.5l90 156q21 3 59.5 -6t47.5 -17z" />
    <glyph glyph-name="uni01D9" unicode="&#x1d9;" horiz-adv-x="670" 
d="M593 306q0 -320 -258 -320q-126 0 -188.5 78t-62.5 242v254q0 74 -18 122q11 10 29 18t40 8q29 0 48.5 -16.5t19.5 -44.5v-346q0 -142 31.5 -206.5t100.5 -64.5q71 0 105 68t34 203v259q0 77 -17 122q10 10 27.5 18t40.5 8q29 0 48.5 -16.5t19.5 -44.5v-341zM187.5 775.5
q-18.5 18.5 -18.5 45.5t18.5 46t45.5 19t46 -19.5t19 -45.5q0 -27 -19 -45.5t-46 -18.5t-45.5 18.5zM393 775.5q-19 18.5 -19 45.5q0 26 19 45.5t46 19.5q26 0 45 -19.5t19 -45.5q0 -27 -19 -45.5t-45 -18.5q-27 0 -46 18.5zM336 902q-25 0 -33 4l-134 127q1 5 8.5 14.5
t13.5 12.5l144 -79l143 79q7 -3 15 -12.5t8 -14.5l-135 -127q-8 -4 -30 -4z" />
    <glyph glyph-name="uni01DA" unicode="&#x1da;" horiz-adv-x="578" 
d="M561 50q0 -28 -19.5 -45.5t-54.5 -17.5q-46 0 -70.5 30.5t-24.5 89.5q-42 -121 -165 -121q-82 0 -119.5 47t-38.5 157v188q0 75 -17 124q30 26 68 26q30 0 49 -17t19 -46v-257q0 -88 17 -127t61 -39q49 0 80.5 60t31.5 176q0 113 -3 151t-16 73q29 26 68 26
q29 0 48.5 -18.5t19.5 -49.5l1 -332q0 -28 6.5 -40t19.5 -12q19 0 27 13q12 -19 12 -39zM139 602q-17 17 -17 40q0 24 17 40.5t41 16.5q23 0 40 -16.5t17 -40.5q0 -23 -17 -40t-40 -17q-24 0 -41 17zM325 602q-17 17 -17 40q0 24 17 40.5t40 16.5q24 0 41 -16.5t17 -40.5
q0 -23 -17.5 -40t-40.5 -17t-40 17zM271 814l120 84q8 0 22.5 -5t15.5 -9l-127 -153q-9 -3 -29 -3q-25 0 -34 3l-127 153q1 4 14.5 9t21.5 5z" />
    <glyph glyph-name="uni01DB" unicode="&#x1db;" horiz-adv-x="670" 
d="M593 306q0 -320 -258 -320q-126 0 -188.5 78t-62.5 242v254q0 74 -18 122q11 10 29 18t40 8q29 0 48.5 -16.5t19.5 -44.5v-346q0 -142 31.5 -206.5t100.5 -64.5q71 0 105 68t34 203v259q0 77 -17 122q10 10 27.5 18t40.5 8q29 0 48.5 -16.5t19.5 -44.5v-341zM187.5 775.5
q-18.5 18.5 -18.5 45.5t18.5 46t45.5 19t46 -19.5t19 -45.5q0 -27 -19 -45.5t-46 -18.5t-45.5 18.5zM393 775.5q-19 18.5 -19 45.5q0 26 19 45.5t46 19.5q26 0 45 -19.5t19 -45.5q0 -27 -19 -45.5t-45 -18.5q-27 0 -46 18.5zM210 1024.5q22 23.5 39 31.5l143 -128
q0 -4 -7 -14.5t-13 -13.5l-191 81q7 20 29 43.5z" />
    <glyph glyph-name="uni01DC" unicode="&#x1dc;" horiz-adv-x="578" 
d="M561 50q0 -28 -19.5 -45.5t-54.5 -17.5q-46 0 -70.5 30.5t-24.5 89.5q-42 -121 -165 -121q-82 0 -119.5 47t-38.5 157v188q0 75 -17 124q30 26 68 26q30 0 49 -17t19 -46v-257q0 -88 17 -127t61 -39q49 0 80.5 60t31.5 176q0 113 -3 151t-16 73q29 26 68 26
q29 0 48.5 -18.5t19.5 -49.5l1 -332q0 -28 6.5 -40t19.5 -12q19 0 27 13q12 -19 12 -39zM139 602q-17 17 -17 40q0 24 17 40.5t41 16.5q23 0 40 -16.5t17 -40.5q0 -23 -17 -40t-40 -17q-24 0 -41 17zM325 602q-17 17 -17 40q0 24 17 40.5t40 16.5q24 0 41 -16.5t17 -40.5
q0 -23 -17.5 -40t-40.5 -17t-40 17zM164 884q38 9 59 6l90 -156q-5 -3 -18.5 -5.5t-25.5 -2.5l-153 141q10 8 48 17z" />
    <glyph glyph-name="Gcaron" unicode="&#x1e6;" horiz-adv-x="646" 
d="M127 80.5q-76 94.5 -76 267.5t78.5 267.5t220.5 94.5q52 0 101 -14t80 -40t31 -59q0 -29 -25.5 -50t-70.5 -20q-7 70 -36.5 104.5t-77.5 34.5q-86 0 -127.5 -79t-41.5 -239t40.5 -239t125.5 -79q71 0 98 57.5t27 134.5q0 110 -64 135q8 19 28 28.5t45 9.5
q51 0 82.5 -36.5t31.5 -108.5q0 -82 -32.5 -141.5t-90.5 -91t-131 -31.5q-140 0 -216 94.5zM341 745q-25 0 -33 4l-134 127q1 5 8.5 14.5t13.5 12.5l144 -79l143 79q7 -3 15 -12.5t8 -14.5l-135 -127q-8 -4 -30 -4z" />
    <glyph glyph-name="gcaron" unicode="&#x1e7;" horiz-adv-x="544" 
d="M93.5 -198q-52.5 29 -52.5 88q0 36 23.5 58t60.5 22q40 0 55 -20q-29 -25 -29 -66q0 -34 20 -53t58 -19q69 0 104 58t35 162q0 49 1 72q-18 -50 -57.5 -77t-96.5 -27q-84 0 -131 59.5t-47 189.5q0 126 56.5 202.5t184.5 76.5q61 0 116.5 -17t91.5 -49v-418
q0 -143 -70 -207t-191 -64q-79 0 -131.5 29zM337.5 109.5q29.5 52.5 29.5 139.5l1 210q-14 12 -37 19t-48 7q-69 0 -94.5 -63.5t-25.5 -184.5q0 -99 19.5 -139.5t67.5 -40.5q58 0 87.5 52.5zM282 662l120 84q8 0 22.5 -5t15.5 -9l-127 -153q-9 -3 -29 -3q-25 0 -34 3
l-127 153q1 4 14.5 9t21.5 5z" />
    <glyph glyph-name="Scommaaccent" unicode="&#x218;" horiz-adv-x="564" 
d="M99 25.5q-59 39.5 -59 103.5q0 32 17.5 51t57.5 19q6 0 26 -2q-3 -10 -3 -24q0 -8 2 -26q7 -49 45 -82.5t105 -33.5q53 0 86.5 27.5t33.5 80.5q0 50 -32.5 83t-111.5 77q-72 41 -113.5 72t-65 70.5t-23.5 94.5q0 88 65 131t166 43q95 0 152.5 -30.5t57.5 -88.5
q0 -55 -62 -58h-9q-9 0 -27 2q1 5 1 14q0 22 -7 40q-7 35 -38 56t-82 21q-42 0 -73.5 -21t-31.5 -68q0 -33 15 -58.5t48 -50.5t93 -58q61 -33 101.5 -62.5t67 -71.5t26.5 -97q0 -53 -27.5 -97t-84.5 -70t-141 -26q-116 0 -175 39.5zM242 -244q36 41 36 75q0 32 -17 45
t-44 20q0 28 20 49t51 21q30 0 50.5 -21t20.5 -66q0 -37 -18 -72.5t-59 -72.5q-22 4 -40 22z" />
    <glyph glyph-name="scommaaccent" unicode="&#x219;" horiz-adv-x="474" 
d="M80 18.5q-48 32.5 -48 85.5q0 27 16.5 47t51.5 20q6 0 22 -2q-3 -12 -3 -25q0 -11 3 -25q5 -37 34.5 -62t80.5 -25q44 0 71.5 16.5t27.5 49.5t-24.5 53t-77.5 45q-13 5 -22 10q-53 25 -85 45t-55 53.5t-23 82.5q0 71 55 106.5t139 35.5q83 0 132 -25.5t49 -72.5
q0 -24 -13.5 -40.5t-42.5 -17.5h-10q-9 0 -23 2q2 36 -7 54q-7 26 -30 41t-59 15q-35 0 -59 -14.5t-24 -44.5q0 -27 16.5 -46.5t40 -33.5t67.5 -35q56 -27 88 -45.5t55.5 -49t23.5 -73.5q0 -66 -54.5 -111.5t-170.5 -45.5q-94 0 -142 32.5zM196 -244q36 41 36 75
q0 32 -17 45t-44 20q0 28 20 49t51 21q30 0 50.5 -21t20.5 -66q0 -37 -18 -72.5t-59 -72.5q-22 4 -40 22z" />
    <glyph glyph-name="uni021A" unicode="&#x21a;" horiz-adv-x="547" 
d="M530 686.5q5 -9.5 5 -23.5q0 -22 -9.5 -44t-23.5 -28q-100 44 -168 56l1 -511q0 -79 17 -123q-10 -10 -28 -18.5t-41 -8.5q-30 0 -49.5 17t-19.5 46v598q-64 -12 -168 -56q-14 6 -23 28.5t-9 44.5q0 32 19 32h482q10 0 15 -9.5zM247 -244q36 41 36 75q0 32 -17 45t-44 20
q0 28 20 49t51 21q30 0 50.5 -21t20.5 -66q0 -37 -18 -72.5t-59 -72.5q-22 4 -40 22z" />
    <glyph glyph-name="uni021B" unicode="&#x21b;" horiz-adv-x="350" 
d="M277 514.5q42 1.5 48 2.5l-1 -29q-1 -15 -9.5 -22.5t-21.5 -7.5h-91v-32v-294q0 -53 46 -53q13 0 25.5 3.5t15.5 11.5q14 -18 14 -39q0 -29 -28 -47t-74 -18q-56 0 -86.5 35t-30.5 97v336h-15q-41 0 -60 -3l1 29q1 14 9.5 21.5t21.5 7.5h43v72q0 29 19 45.5t49 16.5
q23 0 40 -8t27 -18q-13 -52 -16 -108h12q20 0 62 1.5zM153 -244q36 41 36 75q0 32 -17 45t-44 20q0 28 20 49t51 21q30 0 50.5 -21t20.5 -66q0 -37 -18 -72.5t-59 -72.5q-22 4 -40 22z" />
    <glyph glyph-name="uni0237" unicode="&#x237;" horiz-adv-x="260" 
d="M-69 -205.5q-31 23.5 -31 62.5q0 25 16 43t46 18q16 0 25.5 -6t16.5 -19q-13 -23 -13 -43t10.5 -29.5t25.5 -9.5q34 0 43.5 45t9.5 136l1 386q0 76 -18 124q32 26 67 26q29 0 48 -17t19 -46v-494q0 -89 -41.5 -144.5t-133.5 -55.5q-60 0 -91 23.5z" />
    <glyph glyph-name="uni0251" unicode="&#x251;" horiz-adv-x="584" 
d="M564 53q0 -27 -23 -44.5t-57 -17.5q-45 0 -70.5 33.5t-30.5 95.5q-23 -66 -65.5 -100t-104.5 -34q-92 0 -134 69.5t-42 181.5q0 138 55.5 213.5t158.5 75.5q47 0 79 -16t46 -47q5 21 7 52q15 12 39 12q32 0 51.5 -17t19.5 -45l-1 -333q0 -52 33 -52q19 0 27 13
q12 -19 12 -40zM341.5 129.5q32.5 77.5 32.5 186.5q0 67 -19.5 108t-74.5 41q-61 0 -88.5 -56.5t-27.5 -168.5q0 -94 18.5 -141t65.5 -47q61 0 93.5 77.5z" />
    <glyph glyph-name="uni0259" unicode="&#x259;" horiz-adv-x="528" 
d="M424.5 457q66.5 -71 66.5 -201q0 -126 -65.5 -198t-184.5 -72q-88 0 -143 38.5t-55 110.5q0 74 58.5 113.5t159.5 39.5q56 0 100 -5q-6 90 -45 129.5t-106 39.5q-54 0 -91.5 -21t-54.5 -58q-16 7 -16 26q0 13 7 30q20 47 69.5 73t117.5 26q116 0 182.5 -71zM331.5 84
q31.5 56 31.5 156q-28 2 -44 2q-66 0 -108 -26t-42 -100q0 -48 21.5 -68t53.5 -20q56 0 87.5 56z" />
    <glyph glyph-name="uni0261" unicode="&#x261;" horiz-adv-x="544" 
d="M93.5 -198q-52.5 29 -52.5 88q0 36 23.5 58t60.5 22q40 0 55 -20q-29 -25 -29 -66q0 -34 20 -53t58 -19q69 0 104 58t35 162q0 49 1 72q-18 -50 -57.5 -77t-96.5 -27q-84 0 -131 59.5t-47 189.5q0 126 56.5 202.5t184.5 76.5q61 0 116.5 -17t91.5 -49v-418
q0 -143 -70 -207t-191 -64q-79 0 -131.5 29zM337.5 109.5q29.5 52.5 29.5 139.5l1 210q-14 12 -37 19t-48 7q-69 0 -94.5 -63.5t-25.5 -184.5q0 -99 19.5 -139.5t67.5 -40.5q58 0 87.5 52.5z" />
    <glyph glyph-name="uni02BC" unicode="&#x2bc;" horiz-adv-x="600" 
d="M163 524h50l31 179q-20 8 -52 8t-55 -8z" />
    <glyph glyph-name="circumflex" unicode="&#x2c6;" horiz-adv-x="600" 
d="M155.5 571q-13.5 5 -14.5 9l127 152q8 4 33 4q22 0 30 -4l127 -152q-1 -4 -15.5 -9t-22.5 -5l-120 84l-123 -84q-8 0 -21.5 5z" />
    <glyph glyph-name="caron" unicode="&#x2c7;" horiz-adv-x="600" 
d="M300 657l120 84q8 0 22.5 -5t15.5 -9l-127 -153q-9 -3 -29 -3q-25 0 -34 3l-127 153q1 4 14.5 9t21.5 5z" />
    <glyph glyph-name="breve" unicode="&#x2d8;" horiz-adv-x="600" 
d="M408 728q21 -5 35 -13q-36 -141 -151 -141q-66 0 -102 39.5t-49 100.5q15 10 38 14q15 -37 45.5 -57t70.5 -20q77 0 113 77z" />
    <glyph glyph-name="dotaccent" unicode="&#x2d9;" horiz-adv-x="600" 
d="M253 592.5q-19 18.5 -19 45.5t19 46t46 19q26 0 45 -19t19 -46t-19 -45.5t-45 -18.5q-27 0 -46 18.5z" />
    <glyph glyph-name="ring" unicode="&#x2da;" horiz-adv-x="600" 
d="M371.5 709.5q26.5 -23.5 26.5 -61.5q-1 -40 -28.5 -64t-71.5 -24q-43 0 -69.5 23t-26.5 61q0 40 27.5 64.5t72.5 24.5q43 0 69.5 -23.5zM270.5 685q-10.5 -14 -10.5 -39t10.5 -39t29.5 -14t29.5 13.5t10.5 39.5t-10.5 39.5t-29.5 13.5t-29.5 -14z" />
    <glyph glyph-name="ogonek" unicode="&#x2db;" horiz-adv-x="600" 
d="M235.5 -152q-30.5 19 -30.5 60q0 47 41.5 78t104.5 46l8 -22q-37 -19 -56 -40t-19 -48q0 -45 47 -45q53 0 84 56q14 -7 14 -20q0 -7 -2 -11q-12 -31 -45 -52t-79 -21q-37 0 -67.5 19z" />
    <glyph glyph-name="tilde" unicode="&#x2dc;" horiz-adv-x="600" 
d="M418 611q-22 -27 -57 -27q-16 0 -30.5 6t-33.5 17q-18 11 -32 16.5t-29 5.5q-43 0 -60 -40h-2q-5 0 -12.5 2.5t-11.5 6.5q5 51 30.5 74.5t60.5 23.5q17 0 32 -6t34 -18q21 -11 34 -16.5t28 -5.5q22 0 33 10.5t19 30.5q9 0 14.5 -1.5t10.5 -6.5q-6 -45 -28 -72z" />
    <glyph glyph-name="hungarumlaut" unicode="&#x2dd;" horiz-adv-x="600" 
d="M161 550q-6 1 -15 8.5t-13 12.5l116 166q19 -2 42.5 -14.5t36.5 -30.5zM319 550q-6 2 -15 9.5t-13 12.5l117 165q18 -2 41 -14.5t37 -29.5z" />
    <glyph glyph-name="gravecomb" unicode="&#x300;" 
d="M-383 727q38 9 59 6l90 -156q-5 -3 -18.5 -5.5t-25.5 -2.5l-153 141q10 8 48 17z" />
    <glyph glyph-name="acutecomb" unicode="&#x301;" 
d="M-352 569q-12 0 -25.5 2.5t-18.5 5.5l90 156q21 3 59.5 -6t47.5 -17z" />
    <glyph glyph-name="uni0302" unicode="&#x302;" 
d="M-444.5 571q-13.5 5 -14.5 9l127 152q8 4 33 4q22 0 30 -4l127 -152q-1 -4 -15.5 -9t-22.5 -5l-120 84l-123 -84q-8 0 -21.5 5z" />
    <glyph glyph-name="tildecomb" unicode="&#x303;" 
d="M-182 611q-22 -27 -57 -27q-16 0 -30.5 6t-33.5 17q-18 11 -32 16.5t-29 5.5q-43 0 -60 -40h-2q-5 0 -12.5 2.5t-11.5 6.5q5 51 30.5 74.5t60.5 23.5q17 0 32 -6t34 -18q21 -11 34 -16.5t28 -5.5q22 0 33 10.5t19 30.5q9 0 14.5 -1.5t10.5 -6.5q-6 -45 -28 -72z" />
    <glyph glyph-name="uni0304" unicode="&#x304;" 
d="M-191 656q4 -18 4 -28q0 -9 -4 -27h-276q-4 12 -4 27q0 16 4 28h276z" />
    <glyph glyph-name="uni0306" unicode="&#x306;" 
d="M-192 728q21 -5 35 -13q-36 -141 -151 -141q-66 0 -102 39.5t-49 100.5q15 10 38 14q15 -37 45.5 -57t70.5 -20q77 0 113 77z" />
    <glyph glyph-name="uni0307" unicode="&#x307;" 
d="M-347 592.5q-19 18.5 -19 45.5t19 46t46 19q26 0 45 -19t19 -46t-19 -45.5t-45 -18.5q-27 0 -46 18.5z" />
    <glyph glyph-name="uni0308" unicode="&#x308;" 
d="M-445 602q-17 17 -17 40q0 24 17 40.5t41 16.5q23 0 40 -16.5t17 -40.5q0 -23 -17 -40t-40 -17q-24 0 -41 17zM-259 602q-17 17 -17 40q0 24 17 40.5t40 16.5q24 0 41 -16.5t17 -40.5q0 -23 -17.5 -40t-40.5 -17t-40 17z" />
    <glyph glyph-name="hookabovecomb" unicode="&#x309;" 
d="M-423 600q26 8 36.5 17t10.5 23q0 25 -66 25l-2 45q57 3 101 -11t44 -54q0 -32 -27 -51.5t-89 -27.5z" />
    <glyph glyph-name="uni030A" unicode="&#x30a;" 
d="M-228.5 709.5q26.5 -23.5 26.5 -61.5q-1 -40 -28.5 -64t-71.5 -24q-43 0 -69.5 23t-26.5 61q0 40 27.5 64.5t72.5 24.5q43 0 69.5 -23.5zM-329.5 685q-10.5 -14 -10.5 -39t10.5 -39t29.5 -14t29.5 13.5t10.5 39.5t-10.5 39.5t-29.5 13.5t-29.5 -14z" />
    <glyph glyph-name="uni030B" unicode="&#x30b;" 
d="M-439 550q-6 1 -15 8.5t-13 12.5l116 166q19 -2 42.5 -14.5t36.5 -30.5zM-281 550q-6 2 -15 9.5t-13 12.5l117 165q18 -2 41 -14.5t37 -29.5z" />
    <glyph glyph-name="uni030C" unicode="&#x30c;" 
d="M-300 657l120 84q8 0 22.5 -5t15.5 -9l-127 -153q-9 -3 -29 -3q-25 0 -34 3l-127 153q1 4 14.5 9t21.5 5z" />
    <glyph glyph-name="uni031B" unicode="&#x31b;" 
d="M-436 522q57 20 57 64q0 14 -6.5 29t-15.5 27q13 9 39 20.5t42 14.5q10 -11 18.5 -34t8.5 -45q0 -37 -35.5 -66.5t-92.5 -49.5z" />
    <glyph glyph-name="dotbelowcomb" unicode="&#x323;" 
d="M-349.5 -156q-20.5 20 -20.5 49t20.5 49.5t49.5 20.5t49 -20.5t20 -49.5t-20 -49t-49 -20t-49.5 20z" />
    <glyph glyph-name="uni0324" unicode="&#x324;" 
d="M-455.5 -181.5q-20.5 20.5 -20.5 49.5t20.5 49.5t49.5 20.5t49.5 -20.5t20.5 -49.5t-20.5 -49.5t-49.5 -20.5t-49.5 20.5zM-243.5 -181.5q-20.5 20.5 -20.5 49.5t20.5 49.5t49.5 20.5t49.5 -20.5t20.5 -49.5t-20.5 -49.5t-49.5 -20.5t-49.5 20.5z" />
    <glyph glyph-name="uni0326" unicode="&#x326;" 
d="M-344 -244q36 41 36 75q0 32 -17 45t-44 20q0 28 20 49t51 21q30 0 50.5 -21t20.5 -66q0 -37 -18 -72.5t-59 -72.5q-22 4 -40 22z" />
    <glyph glyph-name="uni0327" unicode="&#x327;" 
d="M-305 -54q49 1 78 -19t29 -55q0 -42 -31.5 -67t-87.5 -25q-67 0 -96 33q-2 9 2.5 23t9.5 17q13 -11 24.5 -17.5t34.5 -6.5q21 0 32 11t11 31q0 19 -13 31.5t-38 12.5l-13 -1l19 100h51z" />
    <glyph glyph-name="uni0328" unicode="&#x328;" 
d="M-364.5 -152q-30.5 19 -30.5 60q0 47 41.5 78t104.5 46l8 -22q-37 -19 -56 -40t-19 -48q0 -45 47 -45q53 0 84 56q14 -7 14 -20q0 -7 -2 -11q-12 -31 -45 -52t-79 -21q-37 0 -67.5 19z" />
    <glyph glyph-name="uni032E" unicode="&#x32e;" 
d="M-229.5 -120.5q27.5 20.5 39.5 56.5l34 -6q-12 -59 -48 -97t-97 -38q-65 0 -100.5 39.5t-42.5 93.5l38 9q9 -37 38.5 -57.5t70.5 -20.5q40 0 67.5 20.5z" />
    <glyph glyph-name="uni0331" unicode="&#x331;" 
d="M-162 -62q4 -16 4 -24t-4 -24h-276q-4 11 -4 24t4 24h276z" />
    <glyph glyph-name="uni03A9" unicode="&#x3a9;" horiz-adv-x="668" 
d="M647 53q0 -22 -11.5 -37.5t-27.5 -15.5h-243v24h-1q117 78 117 367q0 143 -36 209t-111 66q-76 0 -111.5 -66t-35.5 -209q0 -140 30.5 -233.5t86.5 -133.5h-1l1 -24h-244q-16 0 -27 16t-11 38q0 24 14 45l194 -55q-78 44 -127 141t-49 206q0 159 71 239t209 80
q137 0 208 -80t71 -239q0 -112 -46.5 -207.5t-126.5 -138.5l192 54q15 -20 15 -46z" />
    <glyph glyph-name="pi" unicode="&#x3c0;" horiz-adv-x="621" 
d="M481 514.5q116 1.5 122 2.5l-1 -29q-1 -15 -9.5 -22.5t-21.5 -7.5h-67v-326q0 -53 36 -53q22 0 32 15q13 -19 13 -39q0 -28 -25 -46.5t-60 -18.5q-55 0 -84.5 35t-29.5 97v336h-178l1 -322q0 -79 18 -123q-30 -27 -68 -27q-29 0 -48 17t-19 46v409h-14q-40 0 -60 -3l1 29
q1 14 9.5 21.5t22.5 7.5h267q47 0 163 1.5z" />
    <glyph glyph-name="uni0964" unicode="&#x964;" horiz-adv-x="270" 
d="M79 730h111v-862l-111 -10v872z" />
    <glyph glyph-name="uni0965" unicode="&#x965;" horiz-adv-x="501" 
d="M310 730h111v-862l-111 -10v872zM79 730h111v-862l-111 -10v872z" />
    <glyph glyph-name="uni0B82" unicode="&#xb82;" 
d="M-82 666.5q-31 29.5 -31 77.5q0 47 31 76.5t82 29.5t82 -29.5t31 -76.5q0 -48 -31 -77.5t-82 -29.5t-82 29.5zM47.5 696q18.5 18 18.5 47q0 30 -18.5 48.5t-47.5 18.5q-31 0 -48 -17.5t-17 -49.5q0 -29 18.5 -47t46.5 -18q29 0 47.5 18z" />
    <glyph glyph-name="uni0B83" unicode="&#xb83;" horiz-adv-x="745" 
d="M264 326.5q-39 37.5 -39 102.5q0 60 39.5 95t108.5 35t108.5 -35t39.5 -95q0 -65 -39 -102.5t-109 -37.5t-109 37.5zM426 429q0 98 -53 98t-53 -98q0 -108 53 -108t53 108zM81 19q-39 36 -39 99t39 99t109 36q69 0 108 -36t39 -99t-39 -99t-108 -36q-70 0 -109 36z
M447 19q-39 36 -39 99t39 99t108 36q70 0 109 -36t39 -99t-39 -99t-109 -36q-69 0 -108 36zM243 118q0 103 -53 103q-54 0 -54 -103t54 -103q53 0 53 103zM609 118q0 103 -54 103q-53 0 -53 -103t53 -103q54 0 54 103z" />
    <glyph glyph-name="uni0B85" unicode="&#xb85;" horiz-adv-x="1111" 
d="M1019 13q0 -37 1 -60.5t3.5 -30t8.5 -8.5q-30 -23 -70 -23q-35 0 -52 20.5t-17 75.5v157h-140q-52 -111 -172 -167t-273 -56q-134 0 -206 41.5t-72 109.5q0 116 223 116h388q14 48 14 105q0 102 -42.5 153.5t-112.5 51.5q-36 0 -67 -13.5t-50 -43.5q24 17 59 17
q53 0 83.5 -29t30.5 -77q0 -52 -34 -83t-90 -31q-62 0 -90 36t-28 90t26.5 98.5t78 70.5t123.5 26q103 0 173 -58t70 -197q0 -60 -16 -116h124v173q0 104 -17 166q10 10 29.5 20.5t44.5 10.5q30 0 49.5 -18.5t19.5 -52.5v-341v-133zM373 398.5q-14 -19.5 -14 -51.5
q0 -30 13.5 -50t40.5 -20q30 0 43.5 22t13.5 50t-13.5 48.5t-41.5 20.5t-42 -19.5zM490.5 21q90.5 38 133.5 123h-340q-94 0 -139 -17t-45 -55q0 -42 50.5 -65.5t138.5 -23.5q111 0 201.5 38z" />
    <glyph glyph-name="uni0B86" unicode="&#xb86;" horiz-adv-x="1316" 
d="M1245.5 164q32.5 -47 32.5 -136q0 -142 -109 -243.5t-275.5 -152.5t-334.5 -51q-115 0 -189.5 22t-108.5 59t-34 82q0 52 41.5 84.5t103 46.5t125.5 14q60 0 102.5 -11.5t63.5 -30t21 -37.5t-9 -32t-36 -21q-13 29 -47.5 50.5t-101.5 21.5q-68 0 -116 -23t-48 -68
q0 -44 55.5 -73.5t179.5 -29.5q135 0 270.5 40t226.5 126.5t91 218.5q0 108 -46 108q-42 0 -66 -45t-26 -124q1 -12 4 -16t8 -5q-29 -23 -70 -23q-35 0 -51.5 20.5t-16.5 75.5v133h-134q-51 -111 -170.5 -167t-272.5 -56q-134 0 -206 41.5t-72 109.5q0 116 223 116h387
q14 47 14 102q0 103 -43 155.5t-113 52.5q-36 0 -67 -13.5t-50 -43.5q24 17 59 17q53 0 83.5 -29t30.5 -77q0 -52 -34 -83t-90 -31q-62 0 -90 36t-28 90t26.5 98.5t78 70.5t124.5 26q103 0 172.5 -59.5t69.5 -196.5q0 -59 -16 -115h117v173q0 106 -17 166q10 10 29.5 20.5
t44.5 10.5q30 0 49.5 -18.5t19.5 -52.5v-359q23 38 59 60.5t84 22.5q60 0 92.5 -47zM371.5 398.5q-14.5 -19.5 -14.5 -51.5q0 -30 13.5 -50t41.5 -20q30 0 43 22t13 50t-13.5 48.5t-41.5 20.5q-27 0 -41.5 -19.5zM490 20.5q90 37.5 133 123.5h-339q-94 0 -139 -17t-45 -55
q0 -42 50 -65.5t139 -23.5q111 0 201 37.5z" />
    <glyph glyph-name="uni0B87" unicode="&#xb87;" horiz-adv-x="1026" 
d="M763 655q96 -43 149 -127t53 -205q0 -60 -11 -99q-8 -27 -25.5 -42t-44.5 -15q-26 0 -56 13q2 6 9 30.5t11.5 56t4.5 64.5q0 103 -43 176t-114 110t-155 37q-83 0 -149 -36t-104 -105t-38 -164q0 -88 33 -170q90 21 183 21q83 0 161 -16q20 62 20 127q0 66 -19.5 113.5
t-54 72.5t-76.5 25q-20 0 -32 -4l11 1q25 0 49 -14.5t38.5 -40t14.5 -58.5q0 -52 -36 -83t-92 -31q-55 0 -85.5 31.5t-30.5 83.5q0 49 27.5 83.5t71.5 52.5t92 18q57 0 112.5 -24.5t92.5 -78.5t37 -139q0 -81 -37 -166q78 -32 123 -82t45 -111q0 -59 -47.5 -98.5
t-149.5 -39.5q-119 0 -235 57q-111 -57 -220 -57q-88 0 -146 37.5t-58 108.5q0 60 39 104.5t106 75.5q-49 96 -49 192q0 76 32 156.5t121.5 141t248.5 60.5q127 0 223 -43zM478 461q-15 19 -41 19t-41 -19t-15 -52t15 -52t41 -19t41 19t15 52t-15 52zM306 130
q59 -110 159 -183q45 36 82 84t62 104q-64 22 -140 22q-93 0 -163 -27zM750.5 22.5q-19.5 36.5 -55.5 65.5q-67 -105 -175 -176q83 -46 156 -46q46 0 70 20t24 60t-19.5 76.5zM412 -91q-113 70 -186 175q-55 -50 -55 -121q0 -49 28 -73t75 -24q63 0 138 43z" />
    <glyph glyph-name="uni0B88" unicode="&#xb88;" horiz-adv-x="752" 
d="M716 526q0 -17 -10 -21.5t-32 -4.5h-164v-362q0 -52 4 -77.5t12 -47.5q-31 -22 -71 -22q-36 0 -53.5 19t-17.5 69v421l-254 1v-501h-49v544h632q3 -10 3 -18zM297 293.5q17 -17.5 17 -41.5t-17 -41.5t-41 -17.5q-23 0 -39.5 18.5t-16.5 42.5q0 23 16.5 40t39.5 17
q24 0 41 -17.5zM667 293q17 -18 17 -41q0 -24 -16.5 -41.5t-39.5 -17.5q-24 0 -41 17.5t-17 41.5t17 41.5t41 17.5q22 0 39 -18z" />
    <glyph glyph-name="uni0B89" unicode="&#xb89;" horiz-adv-x="1012" 
d="M72 22q-32 22 -32 63q0 51 42.5 73.5t138.5 24.5q67 2 107 16t59.5 48t19.5 94q0 157 -140 157q-46 0 -79 -14.5t-50 -40.5q24 15 57 15q53 0 83.5 -28.5t30.5 -74.5q0 -50 -34 -81t-92 -31q-60 0 -90 36.5t-30 91.5q0 52 26.5 94.5t80.5 68t131 25.5q97 0 166 -45.5
t69 -154.5q0 -113 -77 -165.5t-239 -55.5q-45 -1 -68.5 -5t-34 -14.5t-10.5 -30.5t17 -32t70 -12l807 1v-44l-811 -1q-86 0 -118 22zM210 308.5q13 18.5 13 43.5q0 27 -13 46.5t-41 19.5q-26 0 -40 -18t-14 -48q0 -28 13 -45t40 -17q29 0 42 18.5z" />
    <glyph glyph-name="uni0B8A" unicode="&#xb8a;" horiz-adv-x="1511" 
d="M663 154q-53 51 -53 164q0 123 64 182t166 59q80 0 136 -36t74 -99q0 45 11 72t40 40t83 13h284q3 -9 3 -15q0 -25 -39 -25h-46l2 -276q1 -46 3.5 -67t8.5 -38q-25 -17 -60 -17q-31 0 -45.5 15.5t-14.5 59.5v322h-74q-26 0 -38.5 -7.5t-16.5 -22t-4 -43.5l2 -204
q0 -44 2.5 -65t8.5 -38q-23 -17 -66 -17q-26 0 -39 15.5t-13 59.5v104q0 49 -19 101t-63 88t-115 36t-124.5 -45t-53.5 -160q0 -78 23.5 -119.5t60.5 -48.5q-19 20 -27 48t-8 55q0 67 31 103t87 36q63 0 96.5 -39t33.5 -100q0 -73 -45 -107.5t-112 -34.5q-91 0 -144 51z
M1497 45v-44l-1307 -1q-86 0 -117.5 22t-31.5 63q0 51 42.5 73.5t138.5 24.5q66 2 106.5 16.5t60 48t19.5 93.5q0 157 -141 157q-45 0 -78 -14.5t-50 -40.5q24 15 57 15q53 0 83.5 -29t30.5 -74q0 -50 -34 -81t-92 -31q-60 0 -90.5 36.5t-30.5 91.5q0 52 27 94.5t81 68
t131 25.5q97 0 166 -45.5t69 -154.5q0 -113 -77 -165.5t-239 -55.5q-45 -1 -68.5 -5t-34 -14.5t-10.5 -30.5t17 -32t70 -12zM130 400q-14 -18 -14 -48q0 -28 13 -45t39 -17q30 0 43 18t13 44q0 27 -13 46.5t-41 19.5q-26 0 -40 -18zM775 310.5q-13 -27.5 -13 -73.5
q0 -45 12.5 -69.5t34.5 -24.5t34.5 24.5t12.5 73.5q0 43 -11 70t-34 27t-36 -27.5z" />
    <glyph glyph-name="uni0B8E" unicode="&#xb8e;" horiz-adv-x="874" 
d="M871 526q0 -17 -11 -21.5t-33 -4.5h-121v-354q0 -58 3.5 -84.5t12.5 -48.5q-31 -22 -71 -22q-37 0 -54 20t-17 76v413h-156q-139 0 -229 -61.5t-90 -213.5q0 -87 29.5 -136.5t74.5 -59.5q-49 50 -49 138q0 85 39.5 128.5t113.5 43.5q80 0 122 -48.5t42 -125.5
q0 -92 -56 -135.5t-142 -43.5q-101 0 -166 61t-65 189q0 162 102.5 235t284.5 73h434q2 -7 2 -18zM233.5 251q-17.5 -36 -17.5 -96t17 -93t48 -33q32 0 49.5 32.5t17.5 97.5q0 58 -15 93t-49 35q-33 0 -50.5 -36z" />
    <glyph glyph-name="uni0B8F" unicode="&#xb8f;" horiz-adv-x="874" 
d="M872 526q0 -17 -10.5 -21.5t-32.5 -4.5h-124l2 -373q0 -118 -66.5 -190t-155.5 -102.5t-160 -31.5q-15 0 -24.5 11.5t-11.5 26.5q19 0 42 8q71 22 124 53t89 89t36 148v361h-156q-139 0 -229 -61.5t-90 -213.5q0 -87 29 -137t74 -60q-45 51 -45 137q0 84 39 129t111 45
q80 0 122 -48.5t42 -125.5q0 -92 -56 -136t-140 -44q-104 0 -168.5 60.5t-64.5 185.5q0 167 100.5 240t286.5 73h434q3 -10 3 -18zM233.5 251q-17.5 -36 -17.5 -97q0 -59 17 -92t48 -33q32 0 49.5 32t17.5 98q0 58 -15 93t-49 35q-33 0 -50.5 -36z" />
    <glyph glyph-name="uni0B90" unicode="&#xb90;" horiz-adv-x="884" 
d="M90.5 -135.5q-45.5 42.5 -45.5 114.5q0 73 48.5 118.5t131.5 69.5t211 41q147 20 211 65t64 130q0 48 -21 72.5t-62 24.5q-57 0 -80.5 -51.5t-32.5 -155.5h-134q2 97 -34 154t-111 57q-39 0 -70 -16t-43 -50q25 16 57 16q53 0 84 -27t31 -71q0 -47 -34.5 -75t-91.5 -28
q-63 0 -91 33t-28 86t25 95.5t73.5 67t115.5 24.5q170 0 196 -159q13 74 61 116.5t136 42.5q89 0 136 -42.5t47 -121.5q0 -81 -47.5 -125.5t-122.5 -64.5t-199 -35q-111 -14 -176 -38t-93.5 -61t-28.5 -92q0 -48 22 -72.5t63 -24.5q62 0 90 59.5t32 148.5h134
q-2 -93 25 -154t86 -61q39 0 61 27.5t22 73.5q0 40 -18.5 71t-55.5 42q11 18 32.5 32.5t49.5 14.5q32 0 59.5 -18t44 -51t16.5 -75q0 -78 -54.5 -124t-146.5 -46t-135.5 43.5t-57.5 114.5q-19 -77 -77.5 -117.5t-141.5 -40.5q-87 0 -132.5 42.5zM187 309q12 20 12 45
q0 26 -11.5 44.5t-37.5 18.5q-24 0 -36.5 -18t-12.5 -47q0 -27 11.5 -45t36.5 -18q26 0 38 20z" />
    <glyph glyph-name="uni0B92" unicode="&#xb92;" horiz-adv-x="796" 
d="M504 177.5q-35 30.5 -35 78.5q0 19 6 38.5t15 28.5q-13 -3 -28.5 -18t-26.5 -41t-11 -60q0 -69 44 -105.5t116 -36.5q55 0 92 14l10 -9q-19 -73 -69 -128.5t-115.5 -86t-131.5 -30.5q-67 0 -114 31t-47 90q0 36 17.5 53t41.5 17q15 0 24 -6l-1 -19q0 -53 28 -79.5
t82 -26.5q61 0 109.5 29.5t74.5 67.5q-20 -4 -44 -4q-55 0 -101.5 21.5t-74.5 63t-28 98.5q0 65 33.5 110.5t81.5 68t89 22.5l9 -17q-13 -8 -18 -28t-5 -40q0 -34 13 -49.5t32 -15.5q25 0 40 29t15 73q0 96 -74 144.5t-190 48.5q-109 0 -179 -42.5t-92 -116.5q30 21 77 21
q57 0 87.5 -26.5t30.5 -69.5q0 -48 -34 -76.5t-93 -28.5q-66 0 -95 35.5t-29 95.5q0 71 36 130.5t113 96t194 36.5q100 0 186 -27.5t138.5 -83t52.5 -135.5q0 -73 -42 -119.5t-116 -46.5q-59 0 -94 30.5zM106.5 311.5q-12.5 -17.5 -12.5 -47.5q0 -27 11.5 -45t36.5 -18
q26 0 37.5 20t11.5 45q0 26 -11.5 44.5t-36.5 18.5q-24 0 -36.5 -17.5z" />
    <glyph glyph-name="uni0B93" unicode="&#xb93;" horiz-adv-x="806" 
d="M513 177.5q-35 30.5 -35 78.5q0 20 5.5 38.5t15.5 28.5q-13 -3 -28.5 -18t-26.5 -40.5t-11 -59.5q0 -70 46.5 -106.5t118.5 -36.5q42 0 87 14l10 -9q-26 -72 -81 -128.5t-130 -88t-160 -31.5q-93 0 -154 38.5t-61 109.5q0 52 32 85.5t93 33.5q52 0 81.5 -26t29.5 -69
q0 -36 -20.5 -67.5t-69.5 -31.5h-2q37 -15 93 -15q87 0 150 30t98 71q-21 -3 -43 -3q-53 0 -100 21.5t-76 63.5t-29 100q0 64 34 109t81.5 67.5t88.5 22.5l11 -17q-13 -9 -19 -31t-6 -43q0 -29 13 -44t32 -15q28 0 42 32.5t14 73.5q0 92 -74 140.5t-192 48.5
q-110 0 -179.5 -42t-91.5 -116q30 21 77 21q57 0 87.5 -26.5t30.5 -70.5q0 -48 -34 -76t-93 -28q-66 0 -95 35.5t-29 94.5q0 71 36.5 130.5t113.5 96t193 36.5q100 0 186.5 -27.5t139.5 -83t53 -135.5q0 -72 -42 -119t-117 -47q-59 0 -94 30.5zM114.5 312
q-12.5 -18 -12.5 -47q0 -27 11.5 -45t36.5 -18q26 0 37.5 20t11.5 45q0 26 -11.5 44.5t-36.5 18.5q-24 0 -36.5 -18zM226.5 28.5q-11.5 -16.5 -11.5 -43.5t11 -43t30 -16q21 0 33.5 16.5t12.5 44.5q0 26 -12 42t-31 16q-21 0 -32.5 -16.5zM213 32l7 7q-3 -1 -7 -7z" />
    <glyph glyph-name="uni0B94" unicode="&#xb94;" horiz-adv-x="1998" 
d="M504 177.5q-35 30.5 -35 78.5q0 19 6 38.5t15 28.5q-13 -3 -28.5 -18t-26.5 -41t-11 -60q0 -69 44 -105.5t116 -36.5q55 0 92 14l10 -9q-19 -73 -69 -128.5t-115.5 -86t-131.5 -30.5q-67 0 -114 31t-47 90q0 36 17.5 53t41.5 17q15 0 24 -6l-1 -19q0 -53 28 -79.5
t82 -26.5q61 0 109.5 29.5t74.5 67.5q-20 -4 -44 -4q-55 0 -101.5 21.5t-74.5 63t-28 98.5q0 65 33.5 110.5t81.5 68t89 22.5l9 -17q-13 -8 -18 -28t-5 -40q0 -34 13 -49.5t32 -15.5q25 0 40 29t15 73q0 96 -74 144.5t-190 48.5q-109 0 -179 -42.5t-92 -116.5q30 21 77 21
q57 0 87.5 -26.5t30.5 -69.5q0 -48 -34 -76.5t-93 -28.5q-66 0 -95 35.5t-29 95.5q0 71 36 130.5t113 96t194 36.5q100 0 186 -27.5t138.5 -83t52.5 -135.5q0 -73 -42 -119.5t-116 -46.5q-59 0 -94 30.5zM106.5 311.5q-12.5 -17.5 -12.5 -47.5q0 -27 11.5 -45t36.5 -18
q26 0 37.5 20t11.5 45q0 26 -11.5 44.5t-36.5 18.5q-24 0 -36.5 -17.5zM1995 526q0 -16 -11 -20.5t-34 -4.5h-121v-355q1 -58 5 -84.5t11 -48.5q-29 -22 -71 -22q-36 0 -53 20t-17 76v414h-106q-46 0 -66 -20.5t-20 -72.5l2 -265q1 -56 4 -82t11 -48q-31 -22 -73 -22
q-33 0 -49 20t-16 76v155q0 60 -25 122.5t-83.5 106t-153.5 43.5q-92 0 -160.5 -59t-68.5 -212q0 -99 32 -151.5t82 -62.5q-25 27 -35.5 63.5t-10.5 72.5q0 84 39 129t111 45q80 0 121.5 -48.5t41.5 -125.5q0 -92 -56 -135.5t-142 -43.5q-111 0 -175 63t-64 204
q0 158 79 232t205 74q106 0 177.5 -46t95.5 -126q0 57 14 90.5t50.5 50t104.5 16.5h421q4 -9 4 -18zM1037.5 251q-17.5 -36 -17.5 -97q0 -60 17 -92.5t49 -32.5q31 0 48.5 32.5t17.5 97.5q0 58 -15 93t-49 35q-33 0 -50.5 -36z" />
    <glyph glyph-name="uni0B95" unicode="&#xb95;" horiz-adv-x="852" 
d="M802 164q0 -83 -56.5 -130.5t-145.5 -47.5q-37 0 -57 9t-20 25q0 8 3.5 15t7.5 8q11 -2 33 -2q52 0 79 28t27 87q0 61 -30.5 95t-105.5 34h-21v-48q0 -82 -34.5 -138.5t-92.5 -84.5t-131 -28q-66 0 -113 24t-71 65t-24 91q0 56 29.5 97.5t88.5 57.5v182q0 22 9 31.5
t28 9.5h473q5 -9 5 -18q0 -17 -11 -21.5t-34 -4.5h-122v-170h37q249 0 249 -166zM211 329q10 1 30 1h150v170h-163q-17 0 -17 -18v-153zM391 285h-151q-67 0 -100.5 -33.5t-33.5 -85.5q0 -53 36.5 -85.5t99.5 -32.5q149 0 149 180v57z" />
    <glyph glyph-name="uni0B99" unicode="&#xb99;" horiz-adv-x="1076" 
d="M972 539q16 -15 16 -43l-1 -496h-649v36q116 13 201.5 61.5t85.5 143.5q0 41 -17 66t-52 25q-47 0 -75.5 -42t-29.5 -114v-9q-23 -23 -69 -23q-25 0 -41.5 5.5t-16.5 14.5v336h-197v-500h-46v544h523q5 -9 5 -19q0 -17 -12.5 -21t-36.5 -4h-109v-159q47 74 143 74
q78 0 119 -45t41 -119q0 -71 -41.5 -129t-112.5 -82h258l1 441q0 47 -7 64q13 4 32 6.5t35 2.5q37 0 53 -15z" />
    <glyph glyph-name="uni0B9A" unicode="&#xb9a;" horiz-adv-x="739" 
d="M703 317q0 -12 -7.5 -22t-20.5 -10h-162v-48q0 -83 -34 -139.5t-91.5 -84.5t-126.5 -28q-65 0 -113 24.5t-73 66.5t-25 93q0 53 29 94t88 57v183q0 41 38 41h471q4 -7 4 -14q0 -30 -41 -30h-126v-171h188q2 -3 2 -12zM209 328q9 1 28 1h151v171h-162q-17 0 -17 -18v-154z
M388 285h-133q-78 0 -113.5 -32t-35.5 -84q0 -60 38.5 -90.5t98.5 -30.5q77 0 111 49.5t34 130.5v57z" />
    <glyph glyph-name="uni0B9C" unicode="&#xb9c;" horiz-adv-x="885" 
d="M786 83.5q49 -41.5 49 -111.5q0 -68 -46.5 -108.5t-130.5 -40.5t-117.5 43.5t-33.5 104.5q0 16 3 36q-21 -16 -60 -61q-34 -40 -61 -64.5t-67.5 -42t-94.5 -17.5q-82 0 -132 40t-50 116q0 77 53.5 122t125.5 65t180 38l28 5q101 17 161 39.5t89.5 59t29.5 95.5
q0 97 -81 97q-39 0 -62 -22.5t-35.5 -66.5t-19.5 -118h-132q-1 211 -145 211q-41 0 -71 -17t-42 -48q22 15 56 15q53 0 84 -27t31 -70q0 -47 -34.5 -75t-92.5 -28q-63 0 -90.5 33.5t-27.5 85.5t25 94.5t73.5 67.5t116.5 25q83 0 133 -39.5t62 -119.5q14 76 60.5 117.5
t136.5 41.5q91 0 137.5 -43t46.5 -120q0 -79 -45.5 -123t-112 -62.5t-172.5 -33.5q-12 -3 -44 -7q-107 -17 -169.5 -39.5t-93 -58.5t-30.5 -93q0 -47 20.5 -71t58.5 -24q42 0 73.5 24.5t77.5 75.5q41 46 71.5 73.5t75 47.5t102.5 20q84 0 133 -41.5zM114.5 398
q-13.5 -18 -13.5 -47q0 -26 12.5 -44t35.5 -18q26 0 38 20t12 46q0 25 -11 43t-36 18q-24 0 -37.5 -18zM696.5 -98.5q15.5 31.5 15.5 69.5q0 47 -17 71.5t-49 24.5q-37 0 -53 -27t-16 -65q0 -49 17 -77t52 -28t50.5 31.5z" />
    <glyph glyph-name="uni0B9E" unicode="&#xb9e;" horiz-adv-x="1331" 
d="M1246 347q35 -63 35 -153q0 -206 -158.5 -294t-461.5 -88q-332 0 -472.5 114t-140.5 291q0 103 39.5 176t97.5 112.5t115 47.5l12 1q10 0 17.5 -5t13.5 -19q-72 -34 -123.5 -104.5t-51.5 -206.5q0 -190 124 -275t366 -85q165 0 272 29t164.5 101t57.5 199
q0 74 -18.5 106.5t-55.5 32.5q-51 0 -77.5 -51.5t-28.5 -119.5v-17q1 -56 4.5 -80.5t10.5 -45.5q-29 -22 -72 -22q-37 0 -54 20t-17 76v413h-139q-146 0 -236 -60t-90 -215q0 -87 31 -137t81 -59q-42 48 -42 136q0 85 37 129.5t109 44.5q79 0 120.5 -49t41.5 -126
q0 -92 -56.5 -135t-146.5 -43q-110 0 -184 61.5t-74 193.5q0 303 420 303h404q4 -9 4 -20q0 -16 -12 -20t-36 -4h-106l1 -188q44 98 151 98q89 0 124 -63zM513.5 251q-17.5 -36 -17.5 -97q0 -59 17.5 -92t48.5 -33t48.5 32.5t17.5 97.5q0 58 -15 93t-48 35q-34 0 -51.5 -36z
" />
    <glyph glyph-name="uni0B9F" unicode="&#xb9f;" horiz-adv-x="827" 
d="M817 0h-694q-35 0 -35 39v440q0 48 -7 66q12 3 30.5 6t29.5 3q40 0 56 -14t16 -45v-451h604v-44z" />
    <glyph glyph-name="uni0BA3" unicode="&#xba3;" horiz-adv-x="1700" 
d="M1697 524q0 -16 -12 -20t-36 -4h-117v-354q0 -48 5 -82.5t11 -50.5q-29 -22 -71 -22q-36 0 -53 20t-17 76v413h-72q-82 0 -145 -22q55 -45 83.5 -112.5t28.5 -152.5q0 -105 -46.5 -166t-132.5 -61q-82 0 -123 53t-41 156q0 182 118 272q-61 45 -158 45t-167 -33
q68 -45 104.5 -114.5t36.5 -157.5q0 -99 -47 -160t-134 -61q-80 0 -121 53t-41 157q0 84 25.5 150.5t73.5 112.5q-77 52 -207 52q-147 0 -242.5 -65.5t-95.5 -217.5q0 -88 32.5 -139t81.5 -60q-24 25 -35 61.5t-11 74.5q0 85 38.5 129.5t111.5 44.5q78 0 119.5 -49
t41.5 -126q0 -92 -56 -135t-141 -43q-106 0 -172 61t-66 188q0 159 108 241t296 82q149 0 257 -54q90 54 222 54q126 0 215 -50q86 36 200 36h347q4 -9 4 -20zM1110 435q-101 -75 -101 -237q0 -73 21.5 -103.5t59.5 -30.5q47 0 65.5 37t18.5 104q0 153 -64 230zM683 432
q-83 -80 -83 -233q0 -74 21.5 -104.5t59.5 -30.5q46 0 64.5 36t18.5 99q0 154 -81 233zM240.5 251q-17.5 -36 -17.5 -97q0 -60 17 -92.5t49 -32.5q30 0 47.5 32.5t17.5 97.5q0 58 -15 93t-48 35t-50.5 -36z" />
    <glyph glyph-name="uni0BA4" unicode="&#xba4;" horiz-adv-x="805" 
d="M696.5 273.5q58.5 -54.5 58.5 -161.5q0 -82 -40 -140t-113.5 -88.5t-171.5 -30.5h-171q-48 0 -71 -15.5t-24 -39.5q-2 -13 2.5 -23.5t18.5 -24.5q-3 -19 -19.5 -31.5t-41.5 -12.5q-33 0 -47 20t-14 50q0 58 51 89.5t150 31.5h123q128 0 184 60t56 159q0 81 -25.5 123
t-87.5 46v-48q0 -82 -35.5 -138.5t-94 -84.5t-128.5 -28q-62 0 -109 24.5t-72 66t-25 92.5q0 53 28 93.5t86 57.5v183q0 41 38 41h473q4 -9 4 -20q0 -16 -11.5 -20t-35.5 -4h-119l1 -171h11q113 -1 171.5 -55.5zM209 328q22 2 35 2l144 -1v171h-162q-17 0 -17 -18v-154z
M352.5 93q35.5 45 35.5 118v74l-126 1q-83 -1 -119.5 -33.5t-36.5 -83.5q0 -60 37.5 -90.5t98.5 -30.5q75 0 110.5 45z" />
    <glyph glyph-name="uni0BA8" unicode="&#xba8;" horiz-adv-x="832" 
d="M746 345.5q35 -64.5 35 -168.5q0 -110 -30 -180.5t-99.5 -107t-188.5 -36.5h-197q-48 0 -70.5 -15.5t-24.5 -39.5q-2 -12 2.5 -22.5t18.5 -25.5q-2 -19 -18.5 -31.5t-42.5 -12.5q-33 0 -47 20t-14 50q0 58 51 89.5t150 31.5h191q75 0 116.5 32t57.5 91.5t16 152.5
q0 73 -16.5 113.5t-57.5 40.5q-27 0 -49.5 -24t-35 -61.5t-12.5 -76.5v-6q0 -104 16 -146q-31 -22 -73 -22q-35 0 -52 20t-17 76v413h-196v-500h-50v544h524q4 -9 4 -19q0 -16 -11 -20.5t-34 -4.5h-111v-171q46 81 138 81t127 -64.5z" />
    <glyph glyph-name="uni0BA9" unicode="&#xba9;" horiz-adv-x="1293" 
d="M1290 524q0 -16 -12 -20t-36 -4h-119v-354q0 -53 3.5 -81.5t12.5 -51.5q-31 -22 -72 -22q-35 0 -52 20t-17 76v413h-69q-92 0 -163 -29q61 -46 94 -113.5t33 -150.5q0 -100 -47.5 -160.5t-134.5 -60.5q-80 0 -121 53t-41 156q0 87 28 152.5t80 109.5q-80 58 -216 58
q-145 0 -241 -68t-96 -222q0 -87 32.5 -137t81.5 -59q-46 48 -46 137q0 84 38.5 128.5t110.5 44.5q79 0 120.5 -49t41.5 -126q0 -92 -56 -135t-143 -43q-105 0 -170.5 60.5t-65.5 186.5q0 162 107 245t294 83q160 0 273 -61q93 44 218 44h346q4 -7 4 -20zM691 427
q-91 -77 -91 -229q0 -73 21.5 -103.5t59.5 -30.5q46 0 64.5 36t18.5 101q0 147 -73 226zM240.5 251q-17.5 -36 -17.5 -97q0 -60 17 -92.5t49 -32.5q30 0 47.5 32.5t17.5 97.5q0 58 -15 93t-48 35t-50.5 -36z" />
    <glyph glyph-name="uni0BAA" unicode="&#xbaa;" horiz-adv-x="852" 
d="M88 39v442q0 46 -7 64q12 3 30.5 6t29.5 3q40 0 56 -14t16 -45v-451h425v437q0 15 -1 33.5t-6 30.5q12 3 30.5 6t29.5 3q40 0 56.5 -14t16.5 -45v-456q0 -39 -35 -39h-606q-35 0 -35 39z" />
    <glyph glyph-name="uni0BAE" unicode="&#xbae;" horiz-adv-x="891" 
d="M728 519q56 -40 84.5 -108.5t28.5 -151.5q0 -119 -43.5 -189t-157.5 -70h-517q-35 0 -35 39v440q0 48 -7 66q13 4 33 6.5t34 2.5q37 0 51 -15t14 -44v-451h213v325q0 105 43 147.5t125 42.5q78 0 134 -40zM551 45h75q67 0 102.5 22.5t49 66t13.5 115.5q0 77 -22 136
t-61 91t-87 32q-27 0 -42 -10.5t-21.5 -37t-6.5 -76.5v-339z" />
    <glyph glyph-name="uni0BAF" unicode="&#xbaf;" horiz-adv-x="1035" 
d="M947 495v-456q0 -39 -35 -39h-468q-35 0 -35 39v2q-59 -55 -152 -55q-87 0 -128 41t-41 126v328q0 46 -7 64q13 4 32.5 6.5t33.5 2.5q66 0 66 -59v-314q0 -46 6.5 -73t24.5 -40.5t54 -13.5q34 0 61 13.5t50 41.5v372q0 46 -7 64q13 4 32.5 6.5t33.5 2.5q66 0 66 -59v-455
h287v441q0 15 -1 33.5t-6 30.5q13 4 33 6.5t34 2.5q66 0 66 -59z" />
    <glyph glyph-name="uni0BB0" unicode="&#xbb0;" horiz-adv-x="662" 
d="M659 524q0 -16 -12 -20t-36 -4h-120l2 -379q0 -117 -63 -188t-147.5 -100t-154.5 -30q-15 0 -24.5 11.5t-10.5 26.5q18 0 41 8q70 22 118.5 51.5t80.5 85.5t32 146v368h-231v-500h-49v544h570q4 -9 4 -20z" />
    <glyph glyph-name="uni0BB1" unicode="&#xbb1;" horiz-adv-x="873" 
d="M88 0v319q0 109 39 174.5t148 65.5q65 0 106.5 -37t49.5 -114q16 76 59.5 113.5t116.5 37.5q81 0 126.5 -40.5t62.5 -112t17 -176.5q0 -149 -32 -229.5t-107.5 -114t-214.5 -33.5h-198q-48 0 -70.5 -15.5t-24.5 -39.5q-2 -12 2.5 -22.5t18.5 -25.5q-2 -19 -18.5 -31.5
t-42.5 -12.5q-33 0 -47 20t-14 50q0 58 51 89.5t150 31.5h197q98 0 144 26.5t61.5 90.5t15.5 196q0 97 -7.5 158t-28 94t-59.5 33q-98 0 -98 -207v-145q0 -39 5 -77t11 -53q-29 -22 -71 -22q-36 0 -53 20t-17 76v249q0 160 -76 160q-47 0 -61.5 -41t-14.5 -134v-321h-126z
" />
    <glyph glyph-name="uni0BB2" unicode="&#xbb2;" horiz-adv-x="978" 
d="M113 48q-65 62 -65 200q0 155 87 233t258 78q93 0 150 -26.5t85.5 -85t31.5 -156.5v-49q1 -66 5 -104.5t22.5 -65.5t57.5 -27q65 0 98 70t33 165q0 106 -36.5 155t-87.5 72q-3 7 2 19.5t18 22.5t32 10q31 0 60 -29t48 -89t19 -148q0 -122 -46 -214.5t-172 -92.5
q-108 0 -143 68t-35 174q0 97 -9.5 153.5t-50 94.5t-126.5 38q-108 0 -176.5 -65t-68.5 -210q0 -98 31.5 -148.5t82.5 -61.5q-24 22 -35.5 60.5t-11.5 80.5q0 77 39 122t116 45q81 0 119.5 -47t38.5 -122q0 -95 -56 -138.5t-144 -43.5q-106 0 -171 62zM337.5 62.5
q17.5 32.5 17.5 97.5q0 58 -15 93t-49 35q-33 0 -50.5 -36t-17.5 -97q0 -59 17.5 -92t48.5 -33t48.5 32.5z" />
    <glyph glyph-name="uni0BB3" unicode="&#xbb3;" horiz-adv-x="1201" 
d="M1199 526q0 -16 -11 -20.5t-34 -4.5h-121v-355q1 -58 5 -84.5t11 -48.5q-29 -22 -71 -22q-36 0 -53 20t-17 76v414h-106q-46 0 -66 -20.5t-20 -72.5l2 -265q1 -56 4 -82t11 -48q-31 -22 -73 -22q-33 0 -49 20t-16 76v155q0 60 -25 122.5t-83.5 106t-153.5 43.5
q-92 0 -160.5 -59t-68.5 -212q0 -99 32 -151.5t82 -62.5q-25 27 -35.5 63.5t-10.5 72.5q0 84 39 129t111 45q80 0 121.5 -48.5t41.5 -125.5q0 -92 -56 -135.5t-142 -43.5q-111 0 -175 63t-64 204q0 158 79 232t205 74q106 0 177.5 -46t95.5 -126q0 57 14 90.5t50.5 50
t104.5 16.5h421q4 -9 4 -18zM241.5 251q-17.5 -36 -17.5 -97q0 -60 17 -92.5t49 -32.5q31 0 48.5 32.5t17.5 97.5q0 58 -15 93t-49 35q-33 0 -50.5 -36z" />
    <glyph glyph-name="uni0BB4" unicode="&#xbb4;" horiz-adv-x="904" 
d="M118 -263q-31 40 -31 87q0 45 25.5 69.5t61.5 24.5q31 0 49 -17.5t18 -41.5q0 -18 -10 -31q-12 2 -18 2q-18 0 -29 -9.5t-11 -29.5q0 -21 15.5 -33.5t46.5 -12.5q37 0 70.5 15.5t77.5 44.5q34 22 53 32t38 12q-23 10 -29.5 40t-6.5 90v21h-303q-35 0 -35 39v440
q0 48 -7 66q13 4 33.5 6.5t34.5 2.5q36 0 50.5 -15t14.5 -44v-451h212v325q0 103 42.5 146.5t121.5 43.5q81 0 137.5 -39t85.5 -109t29 -162q0 -249 -201 -249h-89v-21q0 -47 5.5 -73.5t23.5 -40.5t54 -14h86v-47h-231q-29 0 -53 -11t-58 -35q-43 -30 -78 -45.5t-85 -15.5
q-79 0 -110 40zM638 44q94 0 129.5 46.5t35.5 144.5q0 87 -22 148.5t-60.5 93t-87.5 31.5q-26 0 -41 -10.5t-21.5 -37t-6.5 -75.5v-341h74z" />
    <glyph glyph-name="uni0BB5" unicode="&#xbb5;" horiz-adv-x="1115" 
d="M113 47q-65 61 -65 192q0 156 94.5 238t256.5 82q105 0 182 -35t118 -100.5t41 -156.5q0 -69 -22.5 -127.5t-62.5 -95.5h246l1 429q0 46 -7 64q13 4 32.5 6t33.5 2q66 0 66 -58l-1 -487h-526v33q51 31 81 95t30 148q0 107 -54.5 171t-175.5 64q-118 0 -197.5 -65.5
t-79.5 -213.5q0 -92 32.5 -142.5t82.5 -60.5q-46 45 -46 137q0 83 38.5 128t111.5 45q79 0 120.5 -49t41.5 -126q0 -95 -56.5 -138t-143.5 -40q-107 0 -172 61zM339 59.5q17 32.5 17 99.5q0 58 -15 93t-48 35t-50.5 -36t-17.5 -97t17 -94t49 -31q31 -2 48 30.5z" />
    <glyph glyph-name="uni0BB6" unicode="&#xbb6;" horiz-adv-x="1186" 
d="M1090 544v-44l-2 -314q-1 -73 -37.5 -118t-86.5 -63.5t-95 -18.5q-117 0 -161 59t-45 158l-3 297h-135l-3 -314q0 -73 -37 -118t-87.5 -63.5t-96.5 -18.5q-119 0 -164.5 59t-46.5 158l-2 274q0 43 -7 60q11 3 30.5 5.5t29.5 2.5q40 0 56.5 -14t16.5 -44l1 -277
q1 -82 19 -121.5t73 -39.5q49 0 69.5 36.5t20.5 112.5v346h693zM963 500h-177l2 -290q0 -81 17.5 -121t69.5 -40q47 0 67.5 37t20.5 112v302z" />
    <glyph glyph-name="uni0BB7" unicode="&#xbb7;" horiz-adv-x="1476" 
d="M1391 403v-403h-281v-246h-112v246h-502v33q52 31 81.5 95t29.5 150q0 234 -228 234q-119 0 -197 -65.5t-78 -213.5q0 -93 32.5 -143.5t82.5 -60.5q-46 46 -46 137q0 83 38.5 128t111.5 45q79 0 120.5 -49t41.5 -126q0 -94 -56.5 -137t-144.5 -41q-106 0 -171 61t-65 194
q0 156 94 237t265 81q158 0 243.5 -72t85.5 -216q0 -75 -22.5 -132t-62.5 -95h347v150q-97 4 -150.5 49t-53.5 131q0 82 46 124t119 42q79 0 115 -57t36 -191v-35q49 17 81.5 50t72.5 93v3h127zM998 243v42q0 82 -6 125t-20.5 60.5t-41.5 17.5q-39 0 -62 -29t-24 -80
q0 -129 154 -136zM1264 44v258q-58 -75 -154 -98v-160h154zM242.5 251q-17.5 -36 -17.5 -97t17 -93.5t49 -31.5q31 -2 48 30.5t17 99.5q0 58 -15 93t-48 35t-50.5 -36z" />
    <glyph glyph-name="uni0BB8" unicode="&#xbb8;" horiz-adv-x="1313" 
d="M111 49.5q-63 63.5 -63 203.5q0 106 36.5 174.5t98 100.5t137.5 32q98 0 165.5 -48.5t102.5 -132.5q0 77 41 129t158 52q96 0 140.5 -38t55.5 -99.5t11 -174.5v-49q0 -56 5 -88t21 -49t49 -17q43 0 74.5 35t48 92t16.5 119q0 99 -38 148t-85 69q-3 6 2 19t17.5 23
t31.5 10q30 0 59.5 -29t48.5 -84.5t19 -131.5q0 -127 -50.5 -228t-182.5 -101q-75 0 -109.5 33t-42.5 86t-8 152l1 83q0 80 -16.5 122.5t-68.5 42.5q-88 0 -86 -124l1 -238q1 -54 4.5 -81.5t10.5 -48.5q-29 -22 -72 -22q-33 0 -49.5 20t-16.5 76v127q0 71 -25 140
t-81.5 115.5t-145.5 46.5q-92 0 -161 -60t-69 -213q0 -99 31.5 -151.5t81.5 -62.5q-42 49 -42 138q0 82 38 126t110 44q78 0 119.5 -48t41.5 -125q0 -92 -56 -135t-142 -43q-104 0 -167 63.5zM329.5 61.5q17.5 32.5 17.5 97.5q0 58 -15 93t-49 35q-33 0 -50.5 -36t-17.5 -97
q0 -60 17 -92.5t49 -32.5q31 0 48.5 32.5z" />
    <glyph glyph-name="uni0BB9" unicode="&#xbb9;" horiz-adv-x="1651" 
d="M107 -306.5q-14 20.5 -14 49.5q0 58 51 89.5t150 31.5h958q89 0 131.5 26.5t58.5 95t16 209.5q0 105 -8 169t-29.5 97.5t-61.5 33.5q-92 0 -92 -180v-172q0 -39 5 -77t11 -53q-29 -22 -71 -22q-36 0 -52.5 20t-16.5 76v248q0 161 -79 161q-46 0 -60.5 -46.5t-14.5 -151.5
v-298h-494v33q51 31 81 95t30 149q0 109 -56.5 173t-181.5 64q-121 0 -192 -67t-71 -212q0 -98 31 -146.5t81 -59.5q-45 41 -45 120q0 76 38.5 115.5t111.5 39.5q80 0 121 -44t41 -113q0 -85 -56 -123t-145 -38q-235 0 -235 262q0 158 87 234.5t260 76.5q167 0 253.5 -71.5
t86.5 -216.5q0 -76 -23 -134.5t-62 -96.5h214v303q0 91 39 153.5t143 62.5q64 0 107.5 -33.5t53.5 -118.5q16 77 60 114.5t119 37.5q80 0 124 -41.5t60.5 -116t16.5 -189.5q0 -166 -33 -250t-103 -114.5t-198 -30.5h-964q-48 0 -70.5 -14.5t-24.5 -37.5q-2 -12 2.5 -22.5
t18.5 -25.5q-2 -19 -18.5 -31.5t-42.5 -12.5q-33 0 -47 20.5zM338 57.5q17 28.5 17 85.5q0 50 -15 80.5t-48 30.5t-50.5 -31.5t-17.5 -84.5q0 -52 17 -80.5t49 -28.5q31 0 48 28.5z" />
    <glyph glyph-name="uni0BBE" unicode="&#xbbe;" horiz-adv-x="674" 
d="M672 524q0 -16 -11.5 -20t-36.5 -4h-119v-361q0 -51 4 -76t12 -49q-29 -22 -71 -22q-36 0 -53 19t-17 69v420l-231 1v-501h-50v544h569q4 -16 4 -20z" />
    <glyph glyph-name="uni0BBF" unicode="&#xbbf;" horiz-adv-x="323" 
d="M116 11q-17 20 -17 76v349q0 163 -46 258.5t-170 95.5q-65 0 -98.5 -32t-33.5 -89q0 -56 25 -86t62 -39q3 -7 -9 -18.5t-20 -10.5q-74 14 -116 52t-42 101q0 50 28.5 89t82.5 60.5t129 21.5q154 0 243.5 -98.5t89.5 -303.5v-294q0 -86 16 -130q-29 -22 -71 -22
q-36 0 -53 20z" />
    <glyph glyph-name="uni0BC0" unicode="&#xbc0;" 
d="M-418 568.5q-59 43.5 -59 125.5q0 84 64 127t159 43q94 0 139 -38.5t45 -95.5q0 -50 -33.5 -76.5t-84.5 -26.5q-55 0 -84 29t-29 73q0 34 18 60.5t55 35.5q-14 2 -22 2q-64 -2 -100 -31.5t-36 -90.5q0 -75 40.5 -114.5t95.5 -46.5l-12 -19q-97 0 -156 43.5zM-128 678
q13 18 13 51q0 30 -12 47.5t-36 17.5q-26 0 -39.5 -18.5t-13.5 -48.5q0 -31 13.5 -49t37.5 -18t37 18z" />
    <glyph glyph-name="uni0BC1" unicode="&#xbc1;" horiz-adv-x="407" 
d="M98 308.5q-34 35.5 -34 89.5q0 33 13 60t38 42h-302v44h336q100 0 149 -39t49 -101q0 -67 -45.5 -99t-104.5 -32q-65 0 -99 35.5zM220.5 334q16.5 23 16.5 65q0 37 -15.5 59t-45.5 22q-32 0 -50 -23t-18 -61t18 -61.5t45 -23.5q33 0 49.5 23z" />
    <glyph glyph-name="uni0BC2" unicode="&#xbc2;" horiz-adv-x="627" 
d="M106.5 312q-33.5 39 -33.5 101q0 47 20 87h-272v44h299q82 101 222 101q94 0 159.5 -47t65.5 -143q0 -64 -29 -105.5t-65 -60.5t-55 -19q-11 0 -17 7.5t-5 15.5q43 12 62 53t19 93q0 74 -37 118t-109 44q-39 0 -79.5 -13.5t-70.5 -43.5h14q85 0 123 -37.5t38 -97.5
q0 -71 -45 -103.5t-104 -32.5q-67 0 -100.5 39zM230 334.5q17 23.5 17 68.5q0 42 -16 64.5t-47 22.5t-49 -24.5t-18 -66.5q0 -41 17.5 -64.5t48.5 -23.5q30 0 47 23.5z" />
    <glyph glyph-name="uni0BC6" unicode="&#xbc6;" horiz-adv-x="835" 
d="M125.5 63.5q-73.5 77.5 -73.5 269.5q0 169 77.5 291.5t287.5 122.5q157 0 238 -69t81 -206v-330q0 -54 4 -80t12 -50q-31 -22 -71 -22q-36 0 -53 20t-17 76v383q0 93 -44 166.5t-167 73.5q-164 0 -228 -112.5t-64 -265.5q0 -158 40 -225t107 -77q-49 50 -49 138
q0 85 39.5 128.5t113.5 43.5q81 0 122.5 -48.5t41.5 -126.5q0 -92 -56.5 -135t-144.5 -43q-123 0 -196.5 77.5zM376.5 61.5q17.5 32.5 17.5 97.5q0 58 -15 93t-49 35q-33 0 -50.5 -36t-17.5 -97q0 -60 17 -92.5t49 -32.5q31 0 48.5 32.5z" />
    <glyph glyph-name="uni0BC7" unicode="&#xbc7;" horiz-adv-x="691" 
d="M160 76.5q-97 90.5 -97 289.5q0 195 95.5 289t264.5 94q88 0 144 -43t56 -135q0 -71 -41.5 -118t-121.5 -47q-72 0 -110.5 41.5t-38.5 120.5q0 87 45 137q-72 -13 -122 -88t-50 -241q0 -181 51.5 -257t123.5 -90q-45 47 -45 137q0 79 38.5 121t111.5 42q79 0 121 -47
t42 -119q0 -91 -56 -134t-144 -43q-170 0 -267 90.5zM479.5 491.5q15.5 33.5 15.5 83.5q0 65 -17.5 97.5t-48.5 32.5q-32 0 -49 -32.5t-17 -92.5q0 -55 17.5 -88.5t50.5 -33.5t48.5 33.5zM480.5 61.5q17.5 32.5 17.5 97.5q0 51 -15 84.5t-48 33.5t-51 -34.5t-18 -89.5
q0 -59 17 -91.5t49 -32.5q31 0 48.5 32.5z" />
    <glyph glyph-name="uni0BC8" unicode="&#xbc8;" horiz-adv-x="1254" 
d="M1047.5 519.5q73.5 -39.5 115 -111.5t41.5 -166q0 -80 -30 -138t-81 -88t-111 -30q-9 0 -17 7.5t-10 18.5q60 16 93 74.5t33 151.5q0 142 -62 209t-155 67q-65 0 -122 -30q71 -46 108.5 -116.5t37.5 -160.5q0 -100 -47 -160.5t-134 -60.5q-159 0 -159 212q0 84 24 151
t69 114q-76 49 -201 49q-144 0 -240 -67.5t-96 -218.5q0 -87 32.5 -137.5t81.5 -59.5q-46 47 -46 137q0 81 38.5 126t111.5 45q78 0 119.5 -49t41.5 -126q0 -91 -56 -133.5t-143 -42.5q-105 0 -170.5 61t-65.5 187q0 159 107.5 242t293.5 83q146 0 248 -50q79 50 183 50
q94 0 167.5 -39.5zM740.5 100q18.5 36 18.5 100q0 156 -82 235q-79 -82 -79 -232q0 -77 21 -108t58 -31q45 0 63.5 36zM240.5 248.5q-17.5 -36.5 -17.5 -96.5q0 -58 17 -90.5t49 -32.5q30 0 47.5 32.5t17.5 95.5q0 58 -15 93t-48 35t-50.5 -36.5z" />
    <glyph glyph-name="uni0BCA" unicode="&#xbca;" horiz-adv-x="2122" 
d="M731 142q0 -54 4 -80t12 -50q-31 -22 -71 -22q-36 0 -53 20t-17 76v383q0 93 -44.5 166.5t-166.5 73.5q-164 0 -228 -112.5t-64 -265.5q0 -158 40 -225t107 -77q-49 49 -49 138q0 85 39.5 128.5t113.5 43.5q81 0 122.5 -48.5t41.5 -126.5q0 -92 -56.5 -135t-144.5 -43
q-123 0 -196.5 77.5t-73.5 269.5q0 169 77.5 291.5t287.5 122.5q156 0 237.5 -69.5t81.5 -205.5v-330zM1150 548q8 -8 8 -20t-8 -20t-19 -8q-12 0 -20 8t-8 20t8 20t20 8q11 0 19 -8zM2123 524q0 -16 -12 -20t-36 -4h-119v-361q0 -51 4 -76t12 -49q-29 -22 -71 -22
q-36 0 -53 19t-17 69v420l-231 1v-501h-50v544h569q4 -16 4 -20zM1012 489q-8 8 -8 20t8 20t19 8q12 0 20 -8t8 -20t-8 -20t-20 -8q-11 0 -19 8zM1250 529q8 -8 8 -20t-8 -20t-19 -8q-12 0 -20 8t-8 20t8 20t20 8q11 0 19 -8zM968 473q8 -8 8 -20t-8 -20t-20 -8q-11 0 -19 8
t-8 20t8 20t19 8q12 0 20 -8zM1294 433q-8 8 -8 20t8 20t20 8q11 0 19 -8t8 -20t-8 -20t-19 -8q-12 0 -20 8zM872 349q-8 8 -8 20t8 20t19 8q12 0 20 -8t8 -20t-8 -20t-20 -8q-11 0 -19 8zM1351 349q-8 8 -8 20t8 20t20 8q11 0 19 -8t8 -20t-8 -20t-19 -8q-12 0 -20 8z
M892 249q-8 -8 -20 -8q-11 0 -19 8t-8 20t8 20t19 8q12 0 20 -8t8 -20t-8 -20zM1409 289q8 -8 8 -20t-8 -20t-19 -8q-12 0 -20 8t-8 20t8 20t20 8q11 0 19 -8zM274.5 251q-17.5 -36 -17.5 -97q0 -60 17 -92.5t49 -32.5q31 0 48.5 32.5t17.5 97.5q0 58 -15 93t-49 35
q-33 0 -50.5 -36zM913 191q8 -8 8 -20t-8 -20t-20 -8q-11 0 -19 8t-8 20t8 20t19 8q12 0 20 -8zM1388 191q8 -8 8 -20t-8 -20t-19 -8q-12 0 -20 8t-8 20t8 20t20 8q11 0 19 -8zM968 108q8 -8 8 -20t-8 -20t-20 -8q-11 0 -19 8t-8 20t8 20t19 8q12 0 20 -8zM1333 108
q8 -8 8 -20t-8 -20t-19 -8q-12 0 -20 8t-8 20t8 20t20 8q11 0 19 -8zM1053 51q8 -8 8 -20t-8 -20t-20 -8q-11 0 -19 8t-8 20t8 20t19 8q12 0 20 -8zM1248 51q8 -8 8 -20t-8 -20t-19 -8q-12 0 -20 8t-8 20t8 20t20 8q11 0 19 -8zM1150 32q8 -8 8 -20t-8 -20t-19 -8
q-12 0 -20 8t-8 20t8 20t20 8q11 0 19 -8z" />
    <glyph glyph-name="uni0BCB" unicode="&#xbcb;" horiz-adv-x="1979" 
d="M585 282q42 -47 42 -119q0 -91 -56 -134t-144 -43q-170 0 -267 90.5t-97 289.5q0 195 95.5 289t264.5 94q88 0 144 -43t56 -135q0 -71 -41.5 -118t-121.5 -47q-72 0 -110.5 41.5t-38.5 120.5q0 87 45 137q-72 -13 -122 -88t-50 -241q0 -181 51.5 -257t123.5 -90
q-45 47 -45 137q0 79 38.5 121t111.5 42q79 0 121 -47zM380 672.5q-17 -32.5 -17 -92.5q0 -55 17.5 -88.5t50.5 -33.5t48.5 33.5t15.5 83.5q0 65 -17.5 97.5t-48.5 32.5q-32 0 -49 -32.5zM1002 545q8 -8 8 -20t-8 -20t-19 -8q-12 0 -20 8t-8 20t8 20t20 8q11 0 19 -8z
M1964 524q0 -16 -11.5 -20t-35.5 -4h-119v-361q0 -52 4 -77.5t12 -47.5q-31 -22 -71 -22q-36 0 -53.5 19t-17.5 69v420l-231 1v-501h-50v544h569q4 -16 4 -20zM864 486q-8 8 -8 20t8 20t19 8q12 0 20 -8t8 -20t-8 -20t-20 -8q-11 0 -19 8zM1102 526q8 -8 8 -20t-8 -20
t-19 -8q-12 0 -20 8t-8 20t8 20t20 8q11 0 19 -8zM820 470q8 -8 8 -20t-8 -20t-20 -8q-11 0 -19 8t-8 20t8 20t19 8q12 0 20 -8zM1146 430q-8 8 -8 20t8 20t20 8q11 0 19 -8t8 -20t-8 -20t-19 -8q-12 0 -20 8zM724 346q-8 8 -8 20t8 20t19 8q12 0 20 -8t8 -20t-8 -20t-20 -8
q-11 0 -19 8zM1203 346q-8 8 -8 20t8 20t20 8q11 0 19 -8t8 -20t-8 -20t-19 -8q-12 0 -20 8zM744 246q-8 -8 -20 -8q-11 0 -19 8t-8 20t8 20t19 8q12 0 20 -8t8 -20t-8 -20zM1261 286q8 -8 8 -20t-8 -20t-19 -8q-12 0 -20 8t-8 20t8 20t20 8q11 0 19 -8zM480.5 61.5
q17.5 32.5 17.5 97.5q0 51 -15 84.5t-48 33.5t-51 -34.5t-18 -89.5q0 -59 17 -91.5t49 -32.5q31 0 48.5 32.5zM765 188q8 -8 8 -20t-8 -20t-20 -8q-11 0 -19 8t-8 20t8 20t19 8q12 0 20 -8zM1240 188q8 -8 8 -20t-8 -20t-19 -8q-12 0 -20 8t-8 20t8 20t20 8q11 0 19 -8z
M820 105q8 -8 8 -20t-8 -20t-20 -8q-11 0 -19 8t-8 20t8 20t19 8q12 0 20 -8zM1185 105q8 -8 8 -20t-8 -20t-19 -8q-12 0 -20 8t-8 20t8 20t20 8q11 0 19 -8zM905 48q8 -8 8 -20t-8 -20t-20 -8q-11 0 -19 8t-8 20t8 20t19 8q12 0 20 -8zM1100 48q8 -8 8 -20t-8 -20t-19 -8
q-12 0 -20 8t-8 20t8 20t20 8q11 0 19 -8zM1002 29q8 -8 8 -20t-8 -20t-19 -8q-12 0 -20 8t-8 20t8 20t20 8q11 0 19 -8z" />
    <glyph glyph-name="uni0BCC" unicode="&#xbcc;" horiz-adv-x="2636" 
d="M730 142q0 -54 4 -80t12 -50q-31 -22 -71 -22q-36 0 -53 20t-17 76v383q0 93 -44 166.5t-167 73.5q-164 0 -228 -112.5t-64 -265.5q0 -158 40 -225t107 -77q-49 50 -49 138q0 85 39.5 128.5t113.5 43.5q81 0 122.5 -48.5t41.5 -126.5q0 -92 -56.5 -135t-144.5 -43
q-123 0 -196.5 77.5t-73.5 269.5q0 169 77.5 291.5t287.5 122.5q157 0 238 -69t81 -206v-330zM2631 526q0 -16 -11 -20.5t-34 -4.5h-120v-355q1 -59 4.5 -85.5t11.5 -47.5q-31 -22 -71 -22q-37 0 -54 20t-17 76v414h-105q-47 0 -67 -20.5t-20 -72.5l2 -265q1 -56 4 -82
t11 -48q-29 -22 -73 -22q-32 0 -48.5 20.5t-16.5 75.5v155q0 60 -25 122.5t-83.5 106t-153.5 43.5q-92 0 -160 -59t-68 -212q0 -99 32 -151.5t82 -62.5q-26 27 -36 63.5t-10 72.5q0 84 38.5 129t110.5 45q80 0 121.5 -48.5t41.5 -125.5q0 -92 -56 -135.5t-141 -43.5
q-111 0 -175.5 63t-64.5 204q0 158 79 232t205 74q106 0 178 -46t95 -126q0 57 14 90.5t50.5 50t104.5 16.5h421q4 -9 4 -18zM1119 545q8 -8 8 -20t-8 -20t-19 -8q-12 0 -20 8t-8 20t8 20t20 8q11 0 19 -8zM981 486q-8 8 -8 20t8 20t19 8q12 0 20 -8t8 -20t-8 -20t-20 -8
q-11 0 -19 8zM1219 526q8 -8 8 -20t-8 -20t-19 -8q-12 0 -20 8t-8 20t8 20t20 8q11 0 19 -8zM937 470q8 -8 8 -20t-8 -20t-20 -8q-11 0 -19 8t-8 20t8 20t19 8q12 0 20 -8zM1263 430q-8 8 -8 20t8 20t20 8q11 0 19 -8t8 -20t-8 -20t-19 -8q-12 0 -20 8zM841 346q-8 8 -8 20
t8 20t19 8q12 0 20 -8t8 -20t-8 -20t-20 -8q-11 0 -19 8zM1320 346q-8 8 -8 20t8 20t20 8q11 0 19 -8t8 -20t-8 -20t-19 -8q-12 0 -20 8zM861 246q-8 -8 -20 -8q-11 0 -19 8t-8 20t8 20t19 8q12 0 20 -8t8 -20t-8 -20zM1378 286q8 -8 8 -20t-8 -20t-19 -8q-12 0 -20 8t-8 20
t8 20t20 8q11 0 19 -8zM273.5 251q-17.5 -36 -17.5 -97q0 -60 17 -92.5t49 -32.5q31 0 48.5 32.5t17.5 97.5q0 58 -15 93t-49 35q-33 0 -50.5 -36zM1673.5 251q-17.5 -36 -17.5 -97q0 -59 17.5 -92t49.5 -33q30 0 47.5 32.5t17.5 97.5q0 58 -15 93t-48 35q-34 0 -51.5 -36z
M882 188q8 -8 8 -20t-8 -20t-20 -8q-11 0 -19 8t-8 20t8 20t19 8q12 0 20 -8zM1357 188q8 -8 8 -20t-8 -20t-19 -8q-12 0 -20 8t-8 20t8 20t20 8q11 0 19 -8zM937 105q8 -8 8 -20t-8 -20t-20 -8q-11 0 -19 8t-8 20t8 20t19 8q12 0 20 -8zM1302 105q8 -8 8 -20t-8 -20t-19 -8
q-12 0 -20 8t-8 20t8 20t20 8q11 0 19 -8zM1022 48q8 -8 8 -20t-8 -20t-20 -8q-11 0 -19 8t-8 20t8 20t19 8q12 0 20 -8zM1217 48q8 -8 8 -20t-8 -20t-19 -8q-12 0 -20 8t-8 20t8 20t20 8q11 0 19 -8zM1119 29q8 -8 8 -20t-8 -20t-19 -8q-12 0 -20 8t-8 20t8 20t20 8
q11 0 19 -8z" />
    <glyph glyph-name="uni0BCD" unicode="&#xbcd;" 
d="M-76.5 700.5q-16.5 16.5 -16.5 40.5t16.5 40.5t40.5 16.5q23 0 40 -16.5t17 -40.5t-17 -40.5t-40 -16.5q-24 0 -40.5 16.5z" />
    <glyph glyph-name="uni0BD0" unicode="&#xbd0;" horiz-adv-x="805" 
d="M513 177.5q-35 30.5 -35 78.5q0 19 6 38.5t15 28.5q-13 -3 -28.5 -18t-26.5 -41t-11 -60q0 -69 44 -105.5t116 -36.5q55 0 92 14l10 -9q-54 -114 -155.5 -179.5t-223.5 -65.5q-73 0 -125.5 23.5t-79.5 64t-27 88.5q0 35 13 58t31 33.5t35 11.5q22 0 31 -15
q-9 -17 -14 -35.5t-5 -44.5q0 -63 33.5 -95.5t127.5 -32.5t162.5 30.5t95.5 70.5q-20 -4 -44 -4q-55 0 -101.5 21.5t-74.5 63t-28 98.5q0 65 33.5 110.5t81.5 68t89 22.5l9 -17q-13 -8 -18 -28t-5 -40q0 -34 13 -49.5t32 -15.5q26 0 41 29t15 73q0 97 -74.5 145t-191.5 48
q-109 0 -179 -42.5t-92 -116.5q30 21 77 21q57 0 87.5 -26.5t30.5 -69.5q0 -48 -34 -76.5t-93 -28.5q-66 0 -95 36t-29 96q0 71 36 130t113 95.5t194 36.5q100 0 186 -27t139 -82.5t53 -136.5q0 -73 -42 -119.5t-116 -46.5q-59 0 -94 30.5zM114.5 311.5
q-12.5 -17.5 -12.5 -47.5q0 -27 11.5 -45t36.5 -18q26 0 37.5 20t11.5 45q0 26 -11.5 44.5t-36.5 18.5q-24 0 -36.5 -17.5zM300 69q-4 -4 -10 -4t-10 4t-4 10t4 10t10 4t10 -4t4 -10t-4 -10zM259 45v-93h34v62q0 21 11.5 29.5t29.5 8.5q28 0 40.5 -19.5t12.5 -48.5
q0 -22 -7.5 -37.5t-35.5 -15.5h-105q-8 0 -9.5 3t-1.5 7v5v87q0 11 -2 15q10 2 17 2q16 0 16 -5zM326 -48h16q12 0 12 31q0 48 -18 48q-10 0 -10 -15v-64z" />
    <glyph glyph-name="uni0BD7" unicode="&#xbd7;" horiz-adv-x="1201" 
d="M1199 526q0 -16 -11 -20.5t-34 -4.5h-121v-355q1 -58 5 -84.5t11 -48.5q-29 -22 -71 -22q-36 0 -53 20t-17 76v414h-106q-46 0 -66 -20.5t-20 -72.5l2 -265q1 -56 4 -82t11 -48q-31 -22 -73 -22q-33 0 -49 20t-16 76v155q0 60 -25 122.5t-83.5 106t-153.5 43.5
q-92 0 -160.5 -59t-68.5 -212q0 -99 32 -151.5t82 -62.5q-25 27 -35.5 63.5t-10.5 72.5q0 84 39 129t111 45q80 0 121.5 -48.5t41.5 -125.5q0 -92 -56 -135.5t-142 -43.5q-111 0 -175 63t-64 204q0 158 79 232t205 74q106 0 177.5 -46t95.5 -126q0 57 14 90.5t50.5 50
t104.5 16.5h421q4 -9 4 -18zM241.5 251q-17.5 -36 -17.5 -97q0 -60 17 -92.5t49 -32.5q31 0 48.5 32.5t17.5 97.5q0 58 -15 93t-49 35q-33 0 -50.5 -36z" />
    <glyph glyph-name="uni0BE6" unicode="&#xbe6;" horiz-adv-x="629" 
d="M128.5 62q-66.5 76 -66.5 211q0 136 66.5 212t186.5 76q119 0 185.5 -76t66.5 -212q0 -135 -66.5 -211t-185.5 -76q-120 0 -186.5 76zM438 268q0 125 -34.5 186.5t-93.5 61.5q-119 0 -119 -243q0 -123 31 -183t93 -60q123 0 123 238z" />
    <glyph glyph-name="uni0BE7" unicode="&#xbe7;" horiz-adv-x="855" 
d="M756 293q62 -45 62 -120q0 -59 -36 -102.5t-92 -65.5t-114 -22q-13 0 -23.5 10t-9.5 21q79 24 112.5 62t33.5 99q0 46 -32 82.5t-108 36.5h-35v-57q0 -82 -34.5 -138.5t-92 -84.5t-126.5 -28q-66 0 -113.5 24t-72.5 65.5t-25 93.5q0 56 28.5 99t86.5 60v175q0 22 9 31.5
t28 9.5h493q4 -9 4 -19q0 -16 -12 -20.5t-39 -4.5h-134v-162h45q135 0 197 -45zM206 336q20 2 32 2h150v162h-165q-17 -2 -17 -18v-146zM388 294h-133q-78 0 -113.5 -34.5t-35.5 -89.5q0 -60 38.5 -91t98.5 -31q77 0 111 49.5t34 130.5v66z" />
    <glyph glyph-name="uni0BE8" unicode="&#xbe8;" horiz-adv-x="1029" 
d="M1017 45v-44l-811 -1q-85 0 -117.5 22t-32.5 62t29.5 63.5t84.5 24.5q23 0 36 1q-38 8 -67 35.5t-44.5 64.5t-15.5 71q0 101 60 158.5t178 57.5q59 0 112.5 -19.5t88.5 -64t35 -116.5q0 -113 -76.5 -165.5t-239.5 -56.5q-64 -1 -88.5 -10.5t-24.5 -39.5q0 -20 17 -32
t70 -12zM147.5 270.5q16.5 -35.5 49 -59t79.5 -23.5q73 0 110 40.5t37 114.5q0 83 -41 119.5t-103 36.5q-56 0 -102 -36t-46 -120q0 -37 16.5 -72.5z" />
    <glyph glyph-name="uni0BE9" unicode="&#xbe9;" horiz-adv-x="933" 
d="M917 40v-40h-563v36q122 13 210 61.5t88 143.5q0 41 -18.5 66t-57.5 25q-50 0 -80.5 -42t-31.5 -114v-2q-25 -23 -69 -23q-24 0 -41 5.5t-17 14.5v329h-210v-500h-46v544h557q4 -9 4 -19q0 -16 -12 -20.5t-39 -4.5h-127v-161q47 76 150 76q81 0 124 -45t43 -119
q0 -71 -40 -129t-110 -82h286z" />
    <glyph glyph-name="uni0BEA" unicode="&#xbea;" horiz-adv-x="792" 
d="M728 544v-205q0 -19 -13 -31.5t-31 -12.5h-168v-66q0 -80 -34.5 -134.5t-92.5 -81.5t-128 -27q-67 0 -114.5 24t-72 65.5t-24.5 93.5q0 57 29 100.5t88 60.5v173q0 22 9 31.5t28 9.5h431q4 -7 4 -19q0 -17 -12 -21t-43 -4h-68v-161h158q6 0 9.5 3.5t3.5 8.5v193h41z
M208 337q20 2 32 2h150v161h-163q-19 0 -19 -18v-145zM390 295h-133q-80 0 -115.5 -34.5t-35.5 -91.5q0 -60 38.5 -90.5t99.5 -30.5q78 0 112 47t34 125v75z" />
    <glyph glyph-name="uni0BEB" unicode="&#xbeb;" horiz-adv-x="1096" 
d="M1010 347.5q35 -62.5 35 -154.5q0 -135 -63.5 -221.5t-170 -126t-238.5 -39.5q-175 0 -293 60t-175 162.5t-57 229.5q0 151 57 261.5t174 171t294 60.5q82 0 154 -18.5t121 -43.5t69 -46q1 -15 -12 -24.5t-25 -9.5q-77 58 -145.5 77.5t-160.5 19.5q-208 0 -307.5 -113
t-99.5 -334q0 -198 102.5 -302t308.5 -104q147 0 242.5 76.5t95.5 257.5q0 76 -18.5 108t-55.5 32q-52 0 -78.5 -53t-27.5 -119q0 -101 16 -145q-31 -21 -73 -21q-35 0 -52 20t-17 76v415h-237v-500h-49v544h571q3 -10 3 -18q0 -17 -10.5 -21.5t-32.5 -4.5h-119v-186
q43 96 149 96q90 0 125 -62.5z" />
    <glyph glyph-name="uni0BEC" unicode="&#xbec;" horiz-adv-x="1214" 
d="M1204 40v-40h-304v40q53 18 74.5 60.5t21.5 92.5q0 107 -85 107q-71 0 -101 -53t-30 -139v-22q0 -56 -18 -76t-55 -20q-40 0 -71 22q10 25 14 46q9 47 9 94q0 142 -116 142h-29v-57q0 -82 -34.5 -138.5t-92 -84.5t-126.5 -28q-66 0 -113.5 24t-72.5 65.5t-25 93.5
q0 56 28.5 99t86.5 60v175q0 22 9 31.5t28 9.5h472q4 -9 4 -19q0 -16 -12 -20.5t-39 -4.5h-113v-162h62q66 0 110.5 -23.5t69.5 -61.5q52 92 180 92q86 0 137.5 -40t51.5 -111q0 -47 -23 -90t-65 -64h167zM206 336q20 2 32 2h150v162h-165q-17 -2 -17 -18v-146zM388 294
h-133q-78 0 -113.5 -34.5t-35.5 -90.5q0 -59 38.5 -90t98.5 -31q77 0 111 49.5t34 130.5v66z" />
    <glyph glyph-name="uni0BED" unicode="&#xbed;" horiz-adv-x="874" 
d="M871 526q0 -17 -11 -21.5t-33 -4.5h-121v-354q0 -58 3.5 -84.5t12.5 -48.5q-31 -22 -71 -22q-37 0 -54 20t-17 76v413h-156q-139 0 -229 -61.5t-90 -213.5q0 -87 29.5 -136.5t74.5 -59.5q-49 50 -49 138q0 85 39.5 128.5t113.5 43.5q80 0 122 -48.5t42 -125.5
q0 -92 -56 -135.5t-142 -43.5q-101 0 -166 61t-65 189q0 162 102.5 235t284.5 73h434q2 -7 2 -18zM233.5 251q-17.5 -36 -17.5 -96t17 -93t48 -33q32 0 49.5 32.5t17.5 97.5q0 58 -15 93t-49 35q-33 0 -50.5 -36z" />
    </font>
</defs>
</svg>
