<?xml version="1.0" standalone="no"?>
<!DOCTYPE svg PUBLIC "-//W3C//DTD SVG 1.1//EN" "http://www.w3.org/Graphics/SVG/1.1/DTD/svg11.dtd" >
<svg xmlns="http://www.w3.org/2000/svg" xmlns:xlink="http://www.w3.org/1999/xlink" version="1.1">
<metadata>
Created by FontForge 20201107 at Fri May  5 14:18:33 2017
 By 
Copyright 2015 The Arima Project Authors (info@ndiscovered.com)
</metadata>
<defs>
<font id="ArimaMadurai-Thin" horiz-adv-x="534" >
  <font-face 
    font-family="Arima Madurai Thin"
    font-weight="250"
    font-stretch="normal"
    units-per-em="1000"
    panose-1="0 0 3 0 0 0 0 0 0 0"
    ascent="800"
    descent="-200"
    x-height="500"
    cap-height="695"
    bbox="-503 -400 2330 956"
    underline-thickness="50"
    underline-position="-100"
    unicode-range="U+0020-FB02"
  />
<missing-glyph horiz-adv-x="600" 
d="M492 -400h-380v1200h380v-1200zM202 720v-40h78v-44h-80v-40h200v40h-80v44h80v40h-198zM200 565v-125h200v41h-80v84h-120zM280 481h-40v43h40v-43zM200 408v-40h80v-44h-80v-40h120v84h80v40h-200zM360 336v-80h-160v-40h200v120h-40zM280 189v-67h40v28h40v-57h-120
v96h-40v-135h200v135h-120zM200 -18v-136h200v136h-200zM360 -114h-120v56h120v-56zM200 -182v-39h84l-84 -57v-39h200v39h-123l84 57h39v39h-200z" />
    <glyph glyph-name="fi" unicode="fi" horiz-adv-x="571" 
d="M457 599.5q-15 -17.5 -28 -17.5q-4 0 -6 1q20 24 20 53q0 40 -38.5 58t-96.5 18q-93 0 -126.5 -44.5t-33.5 -133.5v-34h105q32 0 52 2l-1 -14q-2 -14 -11 -14h-145l-1 -387q0 -63 6 -87q-8 -8 -18 -8q-17 0 -17 22l-1 460h-21q-34 0 -60 -2l1 14q2 14 11 14h69v37
q0 84 38 143.5t151 59.5q70 0 118 -25.5t48 -71.5q0 -26 -15 -43.5zM477 0q-8 -8 -18 -8q-17 0 -17 22l-2 403q0 63 -6 87q8 8 18 8q17 0 17 -22l2 -403q0 -63 6 -87z" />
    <glyph glyph-name="fl" unicode="fl" horiz-adv-x="598" 
d="M566 24q0 -16 -16 -25t-38 -9q-32 0 -51 21.5t-19 61.5v505q0 73 -40 103.5t-110 30.5q-84 0 -114 -36t-30 -102v-74h105q32 0 52 2l-1 -14q-2 -14 -11 -14h-145l-1 -387q0 -63 6 -87q-8 -8 -18 -8q-17 0 -17 22l-1 460h-21q-34 0 -60 -2l1 14q2 14 11 14h69v77
q0 70 37.5 116.5t134.5 46.5q89 0 136 -41.5t47 -112.5v-515q0 -25 10.5 -39t30.5 -14q14 0 26 7t18 20q9 -10 9 -21z" />
    <glyph glyph-name=".notdef" horiz-adv-x="600" 
d="M492 -400h-380v1200h380v-1200zM202 720v-40h78v-44h-80v-40h200v40h-80v44h80v40h-198zM200 565v-125h200v41h-80v84h-120zM280 481h-40v43h40v-43zM200 408v-40h80v-44h-80v-40h120v84h80v40h-200zM360 336v-80h-160v-40h200v120h-40zM280 189v-67h40v28h40v-57h-120
v96h-40v-135h200v135h-120zM200 -18v-136h200v136h-200zM360 -114h-120v56h120v-56zM200 -182v-39h84l-84 -57v-39h200v39h-123l84 57h39v39h-200z" />
    <glyph glyph-name=".null" horiz-adv-x="0" 
 />
    <glyph glyph-name="nonmarkingreturn" horiz-adv-x="333" 
 />
    <glyph glyph-name="space" unicode=" " horiz-adv-x="225" 
 />
    <glyph glyph-name="exclam" unicode="!" horiz-adv-x="268" 
d="M119 163h30l4 555q-6 2 -19 2t-19 -2zM110.5 -1.5q-10.5 10.5 -10.5 23.5q0 14 10.5 24t23.5 10q14 0 24 -10t10 -24q0 -13 -10 -23.5t-24 -10.5q-13 0 -23.5 10.5z" />
    <glyph glyph-name="quotedbl" unicode="&#x22;" horiz-adv-x="211" 
d="M143 610h22l6 117q-5 2 -17 2q-11 0 -17 -2zM46 610h22l6 117q-5 2 -17 2q-11 0 -17 -2z" />
    <glyph glyph-name="numbersign" unicode="#" horiz-adv-x="680" 
d="M467 432l-32 -174h181l-4 -26h-182l-42 -232h-30l42 232h-170l-42 -232h-30l42 232h-171l4 26h172l32 174h-176l4 26h177l42 230h30l-42 -230h170l42 230h30l-42 -230h176l-4 -26h-177zM437 432h-170l-32 -174h170z" />
    <glyph glyph-name="dollar" unicode="$" horiz-adv-x="543" 
d="M441 41q-43 -48 -146 -53q2 -49 6 -68q-8 -8 -16 -8q-15 0 -15 22v54q-103 1 -153.5 45t-50.5 109q0 25 8.5 35.5t29.5 8.5q-5 -17 -5 -33q0 -68 46 -102t125 -35l-1 336q-65 36 -100 60.5t-57 58t-22 79.5q0 72 49.5 109.5t128.5 40.5q-2 48 -6 67q8 8 16 8q15 0 15 -22
v-53q78 -3 125 -38t47 -92q0 -12 -3 -19.5t-10 -11.5q-6 -3 -12 -3l-12 2q6 11 6 26q0 50 -39.5 77.5t-101.5 30.5l1 -298q98 -53 144 -101t46 -118q0 -66 -43 -114zM142.5 483q20.5 -30 49.5 -50t77 -46l-1 285q-63 -3 -104.5 -31t-41.5 -87q0 -41 20.5 -71zM410 56.5
q42 35.5 42 98.5q0 59 -37 97.5t-121 85.5l1 -321q73 4 115 39.5z" />
    <glyph glyph-name="percent" unicode="%" horiz-adv-x="956" 
d="M699 700q7 0 11.5 -3.5t4.5 -10.5l-454 -698q-16 0 -20 14l454 698h4zM88 363q-39 48 -39 145t39 144.5t113 47.5q151 0 151 -192q0 -193 -151 -193q-74 0 -113 48zM293.5 378.5q32.5 42.5 32.5 129.5q0 86 -32.5 128.5t-92.5 42.5q-61 0 -93 -42t-32 -129t32 -129.5
t93 -42.5q60 0 92.5 42.5zM643 40q-39 48 -39 145t39 144.5t113 47.5q151 0 151 -192q0 -193 -151 -193q-74 0 -113 48zM848.5 55.5q32.5 42.5 32.5 129.5q0 86 -32.5 128.5t-92.5 42.5q-61 0 -93 -42t-32 -129t32 -129.5t93 -42.5q60 0 92.5 42.5z" />
    <glyph glyph-name="ampersand" unicode="&#x26;" horiz-adv-x="792" 
d="M743 582.5q7 -4.5 7 -11.5q0 -5 -3 -10q-39 -61 -94 -119q21 -69 21 -130q0 -94 -42.5 -168.5t-115 -116.5t-158.5 -42q-89 0 -154.5 43t-100 112t-34.5 146q0 69 27.5 120.5t73 78.5t97.5 27q46 0 77.5 -21t47 -54t15.5 -70q0 -53 -29 -89t-85 -70q78 35 165.5 99.5
t159.5 140.5q-32 95 -97 156t-146 57q0 15 8 21t27 6q72 0 134 -61t98 -153q53 61 83 113q11 0 18 -4.5zM499.5 49q64.5 36 103.5 103.5t39 159.5q0 51 -14 105q-93 -92 -203.5 -159.5t-196.5 -93.5l-5 20q55 31 86.5 54.5t50.5 53.5t19 70q0 52 -29.5 87t-86.5 35
q-43 0 -80 -22.5t-59.5 -66.5t-22.5 -105q0 -70 31 -134t89.5 -103.5t138.5 -39.5q75 0 139.5 36z" />
    <glyph glyph-name="quotesingle" unicode="'" horiz-adv-x="114" 
d="M46 610h22l6 117q-5 2 -17 2q-11 0 -17 -2z" />
    <glyph glyph-name="parenleft" unicode="(" horiz-adv-x="404" 
d="M255 -120.5q-54 51.5 -94.5 155.5t-40.5 253t40.5 253t94.5 155.5t91 51.5q12 0 15 -4.5t3 -14.5q-57 -14 -106 -77.5t-78 -160t-29 -203.5t29 -203.5t78 -160t106 -77.5q0 -10 -3 -14.5t-15 -4.5q-37 0 -91 51.5z" />
    <glyph glyph-name="parenright" unicode=")" horiz-adv-x="404" 
d="M43 -167.5q-3 4.5 -3 14.5q57 14 106 77.5t78 160t29 203.5t-29 203.5t-78 160t-106 77.5q0 10 3 14.5t15 4.5q37 0 91 -51.5t94.5 -155.5t40.5 -253t-40.5 -253t-94.5 -155.5t-91 -51.5q-12 0 -15 4.5z" />
    <glyph glyph-name="asterisk" unicode="*" horiz-adv-x="513" 
d="M333 475q-13 -25 -22 -59q45 -12 73.5 -38.5t28.5 -55.5q0 -22 -16.5 -37.5t-39.5 -15.5q-34 0 -54 33.5t-20 76.5q0 7 2 23q-20 2 -29 2q-10 0 -26 -2v-9q0 -49 -22.5 -88t-58.5 -39q-22 0 -38 15t-16 38q0 31 31 59t78 39q-3 28 -17 62q-36 -13 -66 -13
q-36 0 -59.5 15.5t-23.5 45.5q0 23 14 39t41 16q30 0 57.5 -21t47.5 -55q23 12 46 32q-20 24 -31.5 50.5t-11.5 52.5q0 29 14 44.5t43 15.5q28 0 42.5 -16.5t14.5 -45.5q0 -52 -42 -100q23 -23 49 -36q21 33 47.5 53.5t53.5 20.5q24 0 38 -16.5t14 -39.5q0 -29 -21.5 -44
t-56.5 -15q-31 0 -64 13zM225 642q0 -46 35 -87q35 42 35 83q0 43 -37 43q-33 0 -33 -39zM178 497q-16 29 -37.5 46.5t-43.5 17.5q-17 0 -26 -10t-9 -25q0 -20 16 -30t43 -10t57 11zM381.5 539.5q-20.5 -17.5 -38.5 -46.5q27 -11 54 -11q26 0 41.5 10t15.5 30q0 15 -8.5 25
t-23.5 10q-20 0 -40.5 -17.5zM311 484q-34 20 -53 40q-22 -20 -50 -36q16 -33 20 -67q18 2 27 2q11 0 33 -2q8 32 23 63zM206 397q-38 -11 -63 -32.5t-25 -44.5q0 -14 9 -23.5t22 -9.5q24 0 40.5 33t16.5 73v4zM369 365q-24 21 -61 32q-1 -6 -1 -18q0 -32 13 -60t38 -28
q14 0 24.5 9t10.5 23q0 21 -24 42z" />
    <glyph glyph-name="plus" unicode="+" horiz-adv-x="557" 
d="M477 353q0 -7 -3 -15h-181v-181q-8 -2 -13 -2q-8 0 -16 3v180h-181q-3 8 -3 15q0 8 3 15h180v181q7 3 15 3t15 -3v-181h181q3 -7 3 -15z" />
    <glyph glyph-name="comma" unicode="," horiz-adv-x="236" 
d="M81 -76q26 27 26 57q0 17 -7 26.5t-20 14.5q0 10 9.5 22t27.5 12q15 0 27 -10t12 -37q0 -53 -57 -99q-12 4 -18 14z" />
    <glyph glyph-name="hyphen" unicode="-" horiz-adv-x="399" 
d="M339 270v-28h-279v28h279z" />
    <glyph glyph-name="period" unicode="." horiz-adv-x="228" 
d="M90.5 -1.5q-10.5 10.5 -10.5 23.5q0 14 10.5 24t23.5 10q14 0 24 -10t10 -24q0 -13 -10 -23.5t-24 -10.5q-13 0 -23.5 10.5z" />
    <glyph glyph-name="slash" unicode="/" horiz-adv-x="391" 
d="M7 -142l323 872h32l-323 -872h-32z" />
    <glyph glyph-name="zero" unicode="0" horiz-adv-x="608" 
d="M134 76q-59 88 -59 268t59 268t170 88t170 -88t59 -268t-59 -268t-170 -88t-170 88zM450 97q51 81 51 247t-51 247t-146 81t-146 -81t-51 -247t51 -247t146 -81t146 81z" />
    <glyph glyph-name="one" unicode="1" horiz-adv-x="397" 
d="M259 0q-8 -8 -18 -8q-17 0 -17 22l-2 584q0 26 -2 58q-42 -36 -97 -75.5t-66 -39.5q-12 0 -14.5 5t-2 10t0.5 7q9 2 76 49t103 77q8 4 14 4q17 0 17 -22l2 -584q0 -63 6 -87z" />
    <glyph glyph-name="two" unicode="2" horiz-adv-x="533" 
d="M53 29q124 98 201.5 171t124 147t46.5 148q0 77 -44.5 127t-126.5 50q-53 0 -87.5 -21.5t-51 -50t-19.5 -50.5q-10 0 -16 6t-6 18q0 24 22 53.5t63 51t96 21.5q53 0 99 -21t74.5 -65.5t28.5 -111.5q0 -86 -50 -167.5t-129 -154t-190 -154.5h410q6 -3 6 -13t-6 -13h-435
q-12 5 -10 29z" />
    <glyph glyph-name="three" unicode="3" horiz-adv-x="541" 
d="M130.5 11.5q-45.5 23.5 -65 54t-19.5 50.5q0 11 6.5 16.5t16.5 5.5q9 -47 48 -84.5t133 -37.5t143.5 43t49.5 118q0 91 -70 132.5t-182 44.5v27q105 2 167 44.5t62 113.5q0 57 -42 95t-119 38q-57 0 -93 -21t-53 -49t-20 -52q-10 0 -16.5 5.5t-6.5 17.5q0 23 21 53
t64.5 52t107.5 22q81 0 136 -38t55 -121q0 -70 -42.5 -112.5t-121.5 -59.5q89 -18 137.5 -62.5t48.5 -127.5q0 -93 -61.5 -142t-163.5 -49q-75 0 -120.5 23.5z" />
    <glyph glyph-name="four" unicode="4" horiz-adv-x="577" 
d="M542 212q0 -11 -6 -13h-100v-112q0 -63 6 -87q-8 -8 -18 -8q-17 0 -17 22l-1 185h-359q-7 8 -7 15q0 6 7 15l352 457q7 9 18 9q8 0 12.5 -6t4.5 -16l2 -449q51 2 100 6q6 -6 6 -18zM406 224l-2 422l-323 -422h325z" />
    <glyph glyph-name="five" unicode="5" horiz-adv-x="551" 
d="M162.5 8q-42.5 20 -65.5 50t-23 60q0 9 7.5 15.5t17.5 6.5q2 -24 18.5 -53t52 -51t89.5 -22q195 0 195 205q0 90 -48.5 137t-128.5 47q-47 0 -91 -15.5t-68 -29.5q-18 0 -18 20l13 293q0 8 5 12.5t13 4.5h125q124 0 185 2q1 -3 1 -9q0 -8 -3 -19h-297l-12 -269
q39 18 72 27t78 9q94 0 150 -56t56 -150q0 -124 -62.5 -179.5t-164.5 -55.5q-54 0 -96.5 20z" />
    <glyph glyph-name="six" unicode="6" horiz-adv-x="568" 
d="M452.5 373.5q53.5 -52.5 53.5 -151.5q0 -71 -25.5 -124t-72 -81.5t-107.5 -28.5q-95 0 -160.5 71.5t-65.5 238.5q0 212 62 307t186 95q30 0 61.5 -9.5t52.5 -23.5t21 -27q0 -7 -4.5 -11t-10.5 -3q-29 28 -57.5 38t-59.5 10q-130 0 -175 -107t-46 -258q30 48 84 82.5
t122 34.5q88 0 141.5 -52.5zM398 43.5q39 29.5 57.5 77t18.5 100.5q0 82 -44.5 130.5t-118.5 48.5q-67 0 -121.5 -39t-83.5 -96q6 -116 54.5 -183.5t140.5 -67.5q58 0 97 29.5z" />
    <glyph glyph-name="seven" unicode="7" horiz-adv-x="499" 
d="M209 -4q-8 0 -15 4q0 88 31.5 220t83 255t107.5 187h-370q-6 3 -6 13t6 13h191h204q6 0 10 -5t4 -12q0 -6 -4 -12q-64 -78 -116.5 -201.5t-82 -249t-29.5 -208.5q-7 -4 -14 -4z" />
    <glyph glyph-name="eight" unicode="8" horiz-adv-x="575" 
d="M463.5 272q46.5 -46 46.5 -110q0 -43 -22 -82.5t-72.5 -65.5t-130.5 -26t-129 25.5t-70 64.5t-21 82q0 73 53 128.5t134 79.5q-78 33 -120.5 74t-42.5 106q0 34 19.5 69t63.5 59t112 24q95 0 145.5 -42.5t50.5 -107.5q0 -61 -40.5 -108t-115.5 -78q93 -46 139.5 -92z
M139.5 478q18.5 -27 51.5 -47t96 -49l8 -4q153 70 153 173q0 35 -21 63t-58 44.5t-84 16.5q-69 0 -116.5 -33t-47.5 -97q0 -40 18.5 -67zM379.5 29q44.5 17 71.5 50t27 79q0 66 -54 112t-142 85q-185 -65 -185 -193q0 -49 26.5 -82.5t69.5 -50.5t92 -17q50 0 94.5 17z" />
    <glyph glyph-name="nine" unicode="9" horiz-adv-x="568" 
d="M432.5 629.5q60.5 -70.5 60.5 -239.5q0 -150 -27 -238.5t-80 -126t-134 -37.5q-56 0 -95.5 18.5t-58.5 42.5q-6 8 -6 15q0 8 5.5 12.5t13.5 3.5q34 -38 68 -51.5t71 -13.5q88 0 135 53t62 131t16 178q-29 -47 -81.5 -81t-117.5 -34q-86 0 -138.5 55t-52.5 159
q0 68 25 118.5t70.5 78t105.5 27.5q98 0 158.5 -70.5zM381.5 326.5q52.5 38.5 80.5 96.5q-10 251 -188 251q-56 0 -94.5 -28t-56.5 -73t-18 -96q0 -87 43 -138t116 -51q65 0 117.5 38.5z" />
    <glyph glyph-name="colon" unicode=":" horiz-adv-x="228" 
d="M90.5 336.5q-10.5 10.5 -10.5 23.5q0 14 10.5 24t23.5 10q14 0 24 -10t10 -24q0 -13 -10 -23.5t-24 -10.5q-13 0 -23.5 10.5zM90.5 -1.5q-10.5 10.5 -10.5 23.5q0 14 10.5 24t23.5 10q14 0 24 -10t10 -24q0 -13 -10 -23.5t-24 -10.5q-13 0 -23.5 10.5z" />
    <glyph glyph-name="semicolon" unicode=";" horiz-adv-x="237" 
d="M99.5 336.5q-10.5 10.5 -10.5 23.5q0 14 10.5 24t23.5 10q14 0 24 -10t10 -24q0 -13 -10 -23.5t-24 -10.5q-13 0 -23.5 10.5zM81 -76q26 27 26 57q0 17 -7 26.5t-20 14.5q0 10 9.5 22t27.5 12q15 0 27 -10t12 -37q0 -53 -57 -99q-12 4 -18 14z" />
    <glyph glyph-name="less" unicode="&#x3c;" horiz-adv-x="477" 
d="M37 351q0 5 4 11l366 172q5 2 9.5 -3.5t4.5 -15.5q0 -6 -1 -10l-342 -154l342 -154q1 -3 1 -9q0 -10 -4.5 -16t-9.5 -4l-366 172q-4 8 -4 11z" />
    <glyph glyph-name="equal" unicode="=" horiz-adv-x="557" 
d="M474 472q3 -7 3 -15q0 -7 -3 -15h-391q-3 8 -3 15q0 8 3 15h391zM474 262q3 -7 3 -15q0 -7 -3 -15h-391q-3 8 -3 15q0 8 3 15h391z" />
    <glyph glyph-name="greater" unicode="&#x3e;" horiz-adv-x="478" 
d="M71 168q-5 -2 -9.5 4t-4.5 16q0 6 1 9l342 154l-342 154q-1 4 -1 10q0 10 4.5 15.5t9.5 3.5l366 -172q4 -4 4 -11q0 -6 -4 -11z" />
    <glyph glyph-name="question" unicode="?" horiz-adv-x="486" 
d="M174 307q45 0 97.5 23.5t89.5 70t37 112.5q0 85 -49 137t-142 52q-53 0 -87.5 -21.5t-51 -50t-19.5 -50.5q-10 0 -16 6t-6 18q0 24 21.5 53.5t63.5 51t100 21.5q56 0 105.5 -21.5t81 -69t31.5 -119.5q0 -95 -62.5 -160.5t-164.5 -81.5v-115h-29v144zM147.5 -1.5
q-10.5 10.5 -10.5 23.5q0 14 10.5 24t23.5 10q14 0 24 -10t10 -24q0 -13 -10 -23.5t-24 -10.5q-13 0 -23.5 10.5z" />
    <glyph glyph-name="at" unicode="@" horiz-adv-x="829" 
d="M619 579.5q72 -54.5 101 -134.5t29 -167q0 -79 -19.5 -133t-49.5 -80t-62 -26t-55.5 24.5t-23.5 65.5v44q-20 -55 -57.5 -88t-95.5 -33q-80 0 -107 57t-27 129q0 110 43.5 172t126.5 62q80 0 114 -50.5t34 -117.5l-1 -172q0 -30 12.5 -48.5t35.5 -18.5q27 0 50.5 23.5
t38 73t14.5 121.5q0 130 -65.5 227t-226.5 97q-106 0 -177 -47.5t-105 -125.5t-34 -170q0 -102 37 -177.5t94 -115.5t115 -40q11 0 16 1q3 -6 3 -11q0 -15 -36 -15q-51 0 -112.5 39.5t-105 119.5t-43.5 195q0 97 37 182t115 138.5t194 53.5q121 0 193 -54.5zM467 106.5
q34 28.5 53 78t19 112.5q0 148 -116 148q-70 0 -106.5 -51.5t-36.5 -154.5q0 -161 108 -161q45 0 79 28.5z" />
    <glyph glyph-name="A" unicode="A" horiz-adv-x="562" 
d="M547 1q-8 -9 -17 -9q-8 0 -14 3.5t-8 10.5l-78 228h-296l-70 -205q-5 -12 -5 -21q0 -10 2 -14q-6 -2 -16 -2q-8 0 -13.5 5t-4.5 13q0 5 2.5 13t3.5 11l227 658q11 8 22 8q19 0 25 -17l224 -652q8 -20 16 -30zM421 260l-140 408l-139 -408h279z" />
    <glyph glyph-name="B" unicode="B" horiz-adv-x="559" 
d="M446 300.5q38 -44.5 38 -122.5q0 -71 -31 -110t-90 -53.5t-154 -14.5h-82q-17 0 -19 22v578q0 15 -2 45.5t-5 41.5q6 4 29 8.5t75 4.5q125 0 184.5 -40.5t59.5 -129.5q0 -63 -30 -107.5t-90 -64.5q79 -13 117 -57.5zM138 672v-302h116q68 0 115.5 40t47.5 121
q0 80 -52 112.5t-170 32.5q-44 0 -57 -4zM347 39.5q49 11.5 77 44.5t28 96q0 91 -58.5 127.5t-174.5 36.5h-81v-316h82q78 0 127 11.5z" />
    <glyph glyph-name="C" unicode="C" horiz-adv-x="576" 
d="M135 79q-65 91 -65 265t65 265t184 91q50 0 90.5 -12.5t63 -32t22.5 -38.5q0 -8 -8 -13t-17 -1q-9 31 -49.5 50t-101.5 19q-103 0 -160 -84t-57 -244t57 -244t160 -84q58 0 109 27t64 71q11 0 17.5 -3t6.5 -12q0 -23 -27 -49t-72.5 -44t-97.5 -18q-119 0 -184 91z" />
    <glyph glyph-name="D" unicode="D" horiz-adv-x="629" 
d="M109 22l-2 578q0 71 -6 95q87 5 194 5q128 0 196 -88t68 -268q0 -178 -67 -261t-197 -83h-169q-17 0 -17 22zM295 28q113 0 172.5 76t59.5 240q0 166 -60 247t-172 81h-159l2 -644h157z" />
    <glyph glyph-name="E" unicode="E" horiz-adv-x="523" 
d="M449 20.5q2 -4.5 2 -9.5q0 -11 -8 -11h-317q-17 0 -17 22l-2 578q0 56 -6 80q6 8 18 8h314q8 0 8 -9q0 -5 -3.5 -10.5t-7.5 -6.5h-294l1 -282h274q2 -4 2 -13q0 -8 -2 -13h-274l1 -329l305 1q4 -1 6 -5.5z" />
    <glyph glyph-name="F" unicode="F" horiz-adv-x="505" 
d="M441 679q0 -5 -3.5 -10.5t-7.5 -6.5h-294l1 -290h272q2 -4 2 -13q0 -8 -2 -13h-272l1 -259q0 -63 6 -87q-8 -8 -18 -8q-17 0 -17 22l-2 586q0 56 -6 80q6 8 18 8h314q8 0 8 -9z" />
    <glyph glyph-name="G" unicode="G" horiz-adv-x="599" 
d="M135.5 78q-65.5 90 -65.5 265t65 266t187 91q48 0 87.5 -12.5t62.5 -32t23 -36.5q0 -8 -5 -13t-12 -5l-8 2q-8 30 -49.5 49.5t-96.5 19.5q-108 0 -165 -83.5t-57 -244.5q0 -162 57 -245t167 -83q104 0 140.5 62t36.5 142q0 72 -23 105.5t-64 33.5q-1 21 27 21
q37 0 64 -37.5t27 -124.5t-41.5 -158.5t-165.5 -71.5q-126 0 -191.5 90z" />
    <glyph glyph-name="H" unicode="H" horiz-adv-x="662" 
d="M561 0q-8 -8 -18 -8q-17 0 -17 22l-1 340h-387v-267q0 -63 6 -87q-8 -8 -18 -8q-17 0 -17 22l-2 586q0 63 -6 87q8 8 18 8q8 0 13.5 -6t5.5 -16v-293h387l-1 220q0 63 -6 87q8 8 18 8q8 0 13.5 -6t5.5 -16v-586q0 -63 6 -87z" />
    <glyph glyph-name="I" unicode="I" horiz-adv-x="245" 
d="M109 14l-2 586q0 63 -6 87q8 8 18 8q8 0 13.5 -6t5.5 -16v-586q0 -63 6 -87q-8 -8 -18 -8q-17 0 -17 22z" />
    <glyph glyph-name="J" unicode="J" horiz-adv-x="419" 
d="M85 18q-32 30 -32 72q0 12 6.5 22t19.5 10h3q-2 -8 -2 -22q0 -44 28.5 -64t63.5 -20q66 0 90.5 36.5t24.5 111.5v469v39q-28 -1 -97 3l-27 2q-51 5 -51 -37q0 -16 6.5 -25.5t20.5 -15.5q-6 -5 -18 -5q-15 0 -26 14.5t-11 37.5q0 21 16 37.5t45 16.5l49 -2q54 -4 75 -4
q25 0 51 4q-3 -22 -3 -67v-470q0 -72 -28.5 -122.5t-114.5 -50.5q-57 0 -89 30z" />
    <glyph glyph-name="K" unicode="K" horiz-adv-x="554" 
d="M536 22q0 -14 -14 -22t-28 -8q-18 0 -35.5 14.5t-24.5 38.5l-55 176q-15 39 -32.5 62t-59 37.5t-116.5 14.5h-34l1 -248q0 -63 6 -87q-8 -8 -18 -8q-17 0 -17 22l-2 586q0 63 -6 87q8 8 18 8q17 0 17 -22l1 -312h34q76 0 132.5 38.5t86.5 97.5t30 117q0 45 -18 73
q10 12 20 12q13 0 21.5 -19.5t8.5 -58.5q0 -83 -46 -158.5t-139 -110.5q60 -10 93 -43t50 -86l50 -162q13 -41 38 -41q23 0 33 17q5 -6 5 -15z" />
    <glyph glyph-name="L" unicode="L" horiz-adv-x="456" 
d="M138 25l275 1q4 -1 6 -5.5t2 -9.5q0 -11 -8 -11h-287q-17 0 -17 22l-2 578q0 63 -6 87q8 8 18 8q17 0 17 -22z" />
    <glyph glyph-name="M" unicode="M" horiz-adv-x="850" 
d="M749 0q-8 -8 -18 -8q-17 0 -17 22l-2 620l-266 -498q-8 -5 -15 -5q-8 0 -16 5q-94 162 -140 243l-141 243l2 -535q0 -63 6 -87q-8 -8 -18 -8q-15 0 -15 22l-2 586q0 63 -6 87q8 8 16 8q11 0 15 -9l299 -520q34 63 75 141.5t91 170.5q21 40 112 213q5 4 15 4q17 0 17 -22
l2 -586q0 -63 6 -87z" />
    <glyph glyph-name="N" unicode="N" horiz-adv-x="667" 
d="M103 0q6 24 6 87l-2 503q0 73 -6 97q6 5 17 5t15 -4q60 -90 193 -305q134 -216 209 -330l-2 547q0 63 -6 87q8 8 18 8q17 0 17 -22l2 -586q0 -71 2 -87q-3 -4 -11 -5.5t-13 0.5q-35 48 -132 200.5t-188 297.5q-100 158 -86 136l2 -615q0 -22 -17 -22q-10 0 -18 8z" />
    <glyph glyph-name="O" unicode="O" horiz-adv-x="638" 
d="M134.5 76.5q-64.5 88.5 -64.5 267.5t64.5 267.5t184.5 88.5t184.5 -88.5t64.5 -267.5t-64.5 -267.5t-184.5 -88.5t-184.5 88.5zM480 97q56 81 56 247t-56 247t-161 81t-161 -81t-56 -247t56 -247t161 -81t161 81z" />
    <glyph glyph-name="P" unicode="P" horiz-adv-x="535" 
d="M410 650.5q64 -49.5 64 -151.5q0 -113 -74.5 -165t-230.5 -52h-31v-195q0 -15 2 -45.5t5 -41.5q-8 -8 -18 -8q-17 0 -19 22v586q0 15 -2 45.5t-5 41.5q6 4 29 8.5t73 4.5q143 0 207 -49.5zM378 353q64 46 64 145q0 94 -58.5 135t-189.5 41q-43 0 -56 -4v-363h42
q134 0 198 46z" />
    <glyph glyph-name="Q" unicode="Q" horiz-adv-x="638" 
d="M392.5 -116q-42.5 18 -78 42.5t-84.5 64.5l-38 30q-122 93 -122 323q0 179 64.5 267.5t184.5 88.5t184.5 -88.5t64.5 -267.5t-64.5 -267.5t-184.5 -88.5q-28 0 -48 5q68 -49 113 -74t93 -25q43 0 70.5 19t27.5 53q0 8 -1 12q13 3 21 -5t8 -19q0 -42 -33 -65t-91 -23
q-44 0 -86.5 18zM480 97q56 81 56 247t-56 247t-161 81t-161 -81t-56 -247t56 -247t161 -81t161 81z" />
    <glyph glyph-name="R" unicode="R" horiz-adv-x="572" 
d="M555 22q0 -14 -14 -22t-28 -8q-17 0 -33.5 14.5t-26.5 38.5l-62 155q-14 36 -26 55t-39.5 33t-76.5 14h-111v-215q0 -15 2 -45.5t5 -41.5q-8 -8 -18 -8q-17 0 -19 22v586q0 15 -2 45.5t-5 41.5q6 4 32 8.5t76 4.5q141 0 203 -45.5t62 -149.5q0 -70 -38.5 -119.5
t-101.5 -68.5q31 -9 50 -37.5t38 -77.5l57 -141q10 -23 18 -32t20 -9q23 0 33 17q5 -6 5 -15zM249 328q51 0 95.5 20t71 59t26.5 93q0 66 -24.5 103.5t-76 54t-135.5 16.5q-52 0 -68 -4v-341q28 -1 111 -1z" />
    <glyph glyph-name="S" unicode="S" horiz-adv-x="543" 
d="M118 32q-52 44 -52 110q0 25 8.5 35.5t29.5 8.5q-5 -17 -5 -33q0 -69 47.5 -103t127.5 -34q83 0 130.5 35.5t47.5 103.5q0 43 -20.5 75t-57 58.5t-103.5 62.5q-66 36 -101.5 60.5t-57.5 58t-22 80.5q0 75 53.5 112.5t136.5 37.5t134 -35.5t51 -94.5q0 -12 -3 -19.5
t-10 -11.5q-6 -3 -12 -3l-12 2q6 11 6 26q0 53 -44.5 80.5t-111.5 27.5q-66 0 -111 -28t-45 -90q0 -44 23.5 -76t52 -49.5t90.5 -51.5q101 -54 148.5 -102.5t47.5 -119.5q0 -69 -47 -118t-161 -49q-106 0 -158 44z" />
    <glyph glyph-name="T" unicode="T" horiz-adv-x="503" 
d="M483 679q0 -5 -3.5 -10.5t-7.5 -6.5h-205l1 -575q0 -63 6 -87q-8 -8 -18 -8q-17 0 -17 22l-2 648h-205q-4 1 -7.5 6.5t-3.5 10.5q0 9 8 9h446q8 0 8 -9z" />
    <glyph glyph-name="U" unicode="U" horiz-adv-x="642" 
d="M547 304q0 -156 -57.5 -236t-169.5 -80q-113 0 -166 76.5t-53 239.5v296q0 63 -6 87q8 8 18 8q17 0 17 -22v-369q0 -148 46.5 -218t143.5 -70t147.5 73t50.5 215v296q0 63 -6 87q8 8 18 8q17 0 17 -22v-369z" />
    <glyph glyph-name="V" unicode="V" horiz-adv-x="553" 
d="M520 695q6 -5 5 -13q0 -5 -2.5 -13t-3.5 -11l-222 -658q-11 -8 -22 -8q-19 0 -25 17l-219 652q-5 17 -16 30q9 9 20 9q15 0 20 -14l221 -659l211 636q5 13 5 21q0 10 -2 14q5 2 14 2q10 0 16 -5z" />
    <glyph glyph-name="W" unicode="W" horiz-adv-x="887" 
d="M861 695q6 -5 5 -13q0 -5 -2.5 -13t-3.5 -11l-187 -658q-9 -8 -21 -8q-9 0 -16 4.5t-9 12.5l-176 565l-179 -574q-11 -8 -22 -8q-9 0 -16 4.5t-9 12.5l-184 652q-5 17 -16 30q9 9 20 9q15 0 20 -14l186 -662l180 578q2 5 2 13t-1 10q8 5 19 5q9 0 13 -1l189 -605l175 639
q5 13 5 21q0 10 -2 14q5 2 14 2q10 0 16 -5z" />
    <glyph glyph-name="X" unicode="X" horiz-adv-x="574" 
d="M554 47.5q6 -6.5 6 -16.5q0 -15 -14 -26.5t-36 -11.5q-48 0 -78 58l-148 276l-216 -321q-8 -11 -18 -11q-16 0 -19 21q15 13 51 65l186 275l-144 267q-12 22 -23 32t-26 10q-16 0 -22.5 -9.5t-4.5 -22.5q-11 1 -17 7.5t-6 16.5q0 15 14 26.5t36 11.5q46 0 77 -58
l138 -257l198 309q8 11 18 11q15 0 19 -21q-22 -18 -53 -66l-167 -259l156 -289q11 -20 22.5 -31t26.5 -11q16 0 23 10.5t4 21.5q11 -1 17 -7.5z" />
    <glyph glyph-name="Y" unicode="Y" horiz-adv-x="512" 
d="M480 655l-208 -419l1 -149q0 -63 6 -87q-8 -8 -18 -8q-17 0 -17 22l-1 224l-202 423q-4 9 -11.5 17.5t-9.5 10.5q9 11 23 11t20 -14l196 -417l187 386q10 21 10 28q0 11 -2 15q5 2 14 2t14.5 -6t5.5 -16q0 -7 -8 -23z" />
    <glyph glyph-name="Z" unicode="Z" horiz-adv-x="553" 
d="M505 158.5q15 -30.5 15 -61.5q0 -43 -31.5 -70t-94.5 -27h-207q-84 0 -124 -5l-11 14q0 16 19 44l391 610h-286q-46 0 -67.5 -17t-21.5 -44q0 -25 12 -41.5t37 -31.5q-5 -10 -20 -10q-24 0 -40.5 26.5t-16.5 57.5q0 36 30.5 61t83.5 25h174q46 0 79.5 1t48.5 4l17 -9
q0 -28 -15 -52l-391 -607h297q107 0 107 72q0 27 -13.5 49t-32.5 34q3 2 8 5t11 3q27 0 42 -30.5z" />
    <glyph glyph-name="bracketleft" unicode="[" horiz-adv-x="310" 
d="M210 730v-24h-80v-842h80v-24h-110v890h110z" />
    <glyph glyph-name="backslash" unicode="\" horiz-adv-x="391" 
d="M51 730h32l323 -872h-32z" />
    <glyph glyph-name="bracketright" unicode="]" horiz-adv-x="310" 
d="M180 -160h-110v24h80v842h-80v24h110v-890z" />
    <glyph glyph-name="asciicircum" unicode="^" horiz-adv-x="535" 
d="M90.5 278q-8.5 2 -10.5 6l170 158q12 2 18 2q5 0 17 -2l170 -158q-8 -8 -24 -8l-163 132l-163 -132q-6 0 -14.5 2z" />
    <glyph glyph-name="underscore" unicode="_" horiz-adv-x="373" 
d="M403 -69v-26l-433 2v26z" />
    <glyph glyph-name="grave" unicode="`" horiz-adv-x="600" 
d="M233 702l91 -140q-1 -3 -10 -4.5t-15 -0.5l-111 132q18 12 45 13z" />
    <glyph glyph-name="a" unicode="a" 
d="M521 24q0 -15 -15 -24.5t-33 -9.5q-34 0 -50.5 22t-16.5 61v87q-37 -81 -101 -126.5t-132 -45.5q-58 0 -88 31.5t-30 82.5q0 54 39.5 95t117.5 62q60 16 136 16q30 0 58 -3v26q0 94 -39.5 140t-125.5 46q-55 0 -95.5 -19.5t-40.5 -67.5q0 -22 13 -42.5t37 -26.5
q-5 -9 -13 -12.5t-14 -3.5q-21 0 -36.5 26.5t-15.5 56.5q0 58 45.5 87.5t125.5 29.5q189 0 189 -214v-227q0 -53 38 -53q10 0 21 7.5t17 19.5q9 -10 9 -21zM281.5 50q52.5 35 88 90t36.5 111q-10 1 -34 1q-39 0 -83 -5.5t-75 -14.5q-127 -38 -127 -128q0 -38 22 -63.5
t70 -25.5q50 0 102.5 35z" />
    <glyph glyph-name="b" unicode="b" horiz-adv-x="529" 
d="M169 2.5q-50 14.5 -81 53.5v650q0 22 19 22q10 0 18 -8q-2 -7 -3.5 -36t-1.5 -49l-1 -270q21 62 71 104.5t116 42.5q84 0 127 -58t43 -179q0 -123 -51 -205t-158 -82q-48 0 -98 14.5zM406 93q39 77 39 183t-35.5 157t-101.5 51q-67 0 -110 -43.5t-61.5 -104.5t-18.5 -116
v-150q14 -22 57 -38t88 -16q104 0 143 77z" />
    <glyph glyph-name="c" unicode="c" horiz-adv-x="499" 
d="M109.5 53q-56.5 65 -56.5 190t59 197t165 72q72 0 114.5 -33.5t42.5 -91.5q0 -30 -12 -49t-31 -19q-17 0 -26 16q18 0 27.5 14.5t9.5 37.5q0 48 -38 73.5t-92 25.5q-84 0 -135.5 -61t-51.5 -178q0 -122 52.5 -176t130.5 -54q59 0 102.5 28.5t56.5 89.5q14 -5 14 -19
q0 -9 -6 -24q-18 -52 -62.5 -78t-107.5 -26q-99 0 -155.5 65z" />
    <glyph glyph-name="d" unicode="d" horiz-adv-x="544" 
d="M508 17q0 -11 -11 -17.5t-29 -6.5q-57 0 -57 80v65q-26 -67 -73.5 -108.5t-118.5 -41.5q-100 0 -133 72t-33 162q0 136 53 213t153 77q57 0 96 -25.5t56 -72.5l-1 214q0 72 -5 92q8 8 18 8q19 0 19 -22l-1 -635q0 -50 30 -50q19 0 27 18q10 -11 10 -22zM320.5 50.5
q43.5 34.5 67 96t23.5 139.5q0 82 -35.5 140t-122.5 58q-78 0 -123 -65.5t-45 -194.5q0 -82 27 -145t109 -63q56 0 99.5 34.5z" />
    <glyph glyph-name="e" unicode="e" horiz-adv-x="497" 
d="M441 95q0 -8 -6 -23q-18 -41 -63 -62.5t-104 -21.5q-102 0 -158.5 65t-56.5 190q0 126 57.5 197.5t165.5 71.5q75 0 118.5 -36t43.5 -101q0 -75 -60.5 -113t-176.5 -38q-52 0 -116 10q3 -115 55 -166t131 -51q57 0 100 24.5t56 73.5q14 -5 14 -20zM139 428
q-51 -57 -54 -169q63 -10 128 -10q95 0 144.5 31.5t49.5 94.5q0 58 -38.5 84t-94.5 26q-84 0 -135 -57z" />
    <glyph glyph-name="f" unicode="f" horiz-adv-x="372" 
d="M340 718q32 -22 32 -62q0 -29 -14.5 -46.5t-28.5 -17.5q-4 0 -6 1q20 24 20 55q0 64 -86 64q-64 0 -86.5 -38t-22.5 -100v-74h105q32 0 52 2l-1 -14q-2 -14 -11 -14h-145l-1 -387q0 -63 6 -87q-8 -8 -18 -8q-17 0 -17 22l-1 460h-21q-34 0 -60 -2l1 14q2 14 11 14h69v77
q0 66 29.5 114.5t112.5 48.5q49 0 81 -22z" />
    <glyph glyph-name="g" unicode="g" horiz-adv-x="529" 
d="M99.5 -207.5q-43.5 32.5 -43.5 91.5q0 29 11 47t25 18q13 0 19 -9q-26 -15 -26 -53q0 -51 35.5 -75t89.5 -24q106 0 153.5 66t47.5 208v63q-20 -63 -68 -99t-114 -36q-86 0 -131 63.5t-45 193.5q0 104 43 184.5t170 80.5q49 0 97 -14t79 -52v-400q0 -286 -234 -286
q-65 0 -108.5 32.5zM337 55q40 37 57 89.5t17 102.5l1 186q-20 25 -61.5 38t-93.5 13q-101 0 -136.5 -72.5t-35.5 -166.5q0 -227 146 -227q66 0 106 37z" />
    <glyph glyph-name="h" unicode="h" horiz-adv-x="554" 
d="M470 0q-8 -8 -18 -8q-17 0 -17 22l-1 284q0 95 -31.5 140.5t-101.5 45.5q-39 0 -79 -22.5t-67.5 -75.5t-27.5 -139q0 -150 1 -190t5 -57q-8 -8 -18 -8q-17 0 -17 22l-1 692q0 22 19 22q10 0 18 -8q-5 -18 -6 -80l-1 -257q21 60 70 94.5t107 34.5q159 0 159 -215l1 -210
q0 -63 6 -87z" />
    <glyph glyph-name="i" unicode="i" horiz-adv-x="248" 
d="M96.5 630.5q-10.5 10.5 -10.5 23.5q0 14 10.5 24t23.5 10q14 0 24 -10t10 -24q0 -13 -10 -23.5t-24 -10.5q-13 0 -23.5 10.5zM145 0q-8 -8 -18 -8q-17 0 -17 22l-2 403q0 63 -6 87q8 8 18 8q17 0 17 -22l2 -403q0 -63 6 -87z" />
    <glyph glyph-name="j" unicode="j" horiz-adv-x="254" 
d="M106.5 646.5q-10.5 10.5 -10.5 23.5q0 14 10.5 24t23.5 10q14 0 24 -10t10 -24q0 -13 -10 -23.5t-24 -10.5q-13 0 -23.5 10.5zM-32 -217q-23 19 -23 53q0 12 6 22t18 10h3q-2 -8 -2 -22q0 -54 62 -54q49 0 67 31.5t18 96.5l1 497q0 63 -6 87q8 8 18 8q17 0 17 -22l1 -573
q0 -153 -114 -153q-43 0 -66 19z" />
    <glyph glyph-name="k" unicode="k" horiz-adv-x="540" 
d="M502 22q0 -14 -13 -22t-27 -8q-16 0 -30 11t-23 28l-105 187q-78 -31 -177 -57q0 -94 1 -119t5 -42q-8 -8 -18 -8q-17 0 -17 22l-1 692q0 22 19 22q10 0 18 -8q-2 -7 -4 -30.5t-2 -49.5l-1 -305q23 80 81 128.5t134 48.5q56 0 89 -30t33 -87t-38 -98t-97 -68q3 -4 16 -24
l88 -158q8 -15 16 -21t19 -6q19 0 29 17q5 -6 5 -15zM286.5 238q63.5 25 105.5 63.5t42 92.5q0 46 -25.5 68t-68.5 22q-65 0 -113 -37t-74 -105t-26 -157q96 28 159.5 53z" />
    <glyph glyph-name="l" unicode="l" horiz-adv-x="250" 
d="M113 11.5q-19 21.5 -19 61.5v633q0 22 19 22q10 0 18 -8q-4 -10 -5 -63.5t-1 -132.5l-1 -453q0 -25 10.5 -39t30.5 -14q14 0 26 7t18 20q9 -10 9 -21q0 -16 -16 -25t-38 -9q-32 0 -51 21.5z" />
    <glyph glyph-name="m" unicode="m" horiz-adv-x="873" 
d="M789 0q-8 -8 -18 -8q-17 0 -17 22l-1 284q0 96 -29 141t-97 45q-36 0 -71.5 -20.5t-61.5 -69t-28 -127.5l1 -180q0 -63 6 -87q-8 -8 -18 -8q-17 0 -17 22l-1 284q0 96 -29 141t-97 45q-37 0 -73.5 -23t-62 -78.5t-25.5 -145.5q0 -143 1 -182t5 -55q-8 -8 -18 -8
q-17 0 -17 22l-1 415q0 25 -10.5 39t-30.5 14q-11 0 -20.5 -7t-13.5 -20q-9 10 -9 21q0 15 13.5 24.5t30.5 9.5q32 0 51 -21.5t19 -61.5v-51q21 64 65.5 100t98.5 36q126 0 148 -139q18 64 64 101.5t104 37.5q79 0 115.5 -54t36.5 -161l1 -210q0 -63 6 -87z" />
    <glyph glyph-name="n" unicode="n" horiz-adv-x="562" 
d="M478 0q-8 -8 -18 -8q-19 0 -19 22v284q-1 95 -32.5 140.5t-101.5 45.5q-39 0 -79 -22.5t-67.5 -75.5t-27.5 -139q0 -150 1 -190t5 -57q-8 -8 -18 -8q-18 0 -18 22v418q-1 28 -7.5 39t-22.5 11q-19 0 -27 -18q-10 11 -10 22t11 17.5t29 6.5q30 0 43.5 -19.5t13.5 -59.5
v-48q21 60 70 94.5t107 34.5q161 0 161 -215v-210q2 -66 7 -87z" />
    <glyph glyph-name="o" unicode="o" 
d="M109.5 57q-56.5 69 -56.5 193t56.5 193t157.5 69t157.5 -69t56.5 -193t-56.5 -193t-157.5 -69t-157.5 69zM401 78q48 62 48 172t-48 172t-134 62t-134 -62t-48 -172t48 -172t134 -62t134 62z" />
    <glyph glyph-name="p" unicode="p" horiz-adv-x="544" 
d="M458 440q33 -72 33 -162q0 -136 -53 -213t-153 -77q-57 0 -96 25.5t-56 72.5v-192q0 -33 2 -68.5t4 -45.5q-8 -8 -18 -8q-19 0 -19 22l1 638q0 28 -6.5 39t-23.5 11q-19 0 -27 -18q-10 11 -10 22t11 17.5t29 6.5q30 0 43.5 -19.5t13.5 -59.5v-69q26 67 73.5 108.5
t118.5 41.5q100 0 133 -72zM412.5 81q46.5 65 46.5 195q0 82 -27 145t-109 63q-56 0 -99.5 -34.5t-67 -96t-23.5 -139.5q0 -83 32.5 -140.5t116.5 -57.5t130.5 65z" />
    <glyph glyph-name="q" unicode="q" horiz-adv-x="532" 
d="M405 -220q6 24 6 136v223q-19 -66 -69.5 -109t-115.5 -43q-173 0 -173 250q0 59 18.5 122t64 108t121.5 45q62 0 111 -18.5t74 -49.5v-650q0 -22 -19 -22q-10 0 -18 8zM334 60q41 45 59.5 106t18.5 108v159q-18 19 -62 35t-91 16q-102 0 -138 -82.5t-36 -167.5
q0 -113 36.5 -166t107.5 -53q64 0 105 45z" />
    <glyph glyph-name="r" unicode="r" horiz-adv-x="413" 
d="M340 487.5q28 -24.5 28 -69.5q0 -26 -11.5 -43.5t-25.5 -20.5q-7 -1 -12 1q12 15 16 29t4 30q0 70 -73 70q-53 0 -92.5 -55t-39.5 -182v-115q0 -56 1 -87t4 -45q-8 -8 -19 -8q-17 0 -17 22v418q0 27 -7 38.5t-23 11.5q-19 0 -27 -18q-10 11 -10 22t11 17.5t29 6.5
q29 0 42.5 -20.5t13.5 -62.5v-35q16 58 51 89t83 31q46 0 74 -24.5z" />
    <glyph glyph-name="s" unicode="s" horiz-adv-x="460" 
d="M89 23.5q-44 35.5 -44 90.5q0 24 9 34t28 8q-6 -15 -6 -32q0 -54 40 -81t108 -27q71 0 114.5 25t43.5 70q0 29 -15 48.5t-37.5 32t-63.5 30.5q-15 6 -45 20q-9 4 -57 27.5t-71.5 55.5t-23.5 75q0 58 45.5 85.5t116.5 27.5q81 0 123.5 -27.5t42.5 -75.5q0 -23 -13 -31
q-4 -3 -11 -3q-4 0 -12 2q5 11 5 26q0 41 -35.5 61t-101.5 20q-56 0 -92 -19.5t-36 -62.5q0 -35 18 -58.5t42 -37.5t76 -38l35 -16q48 -21 76 -36.5t47 -41t19 -62.5q0 -51 -42.5 -88t-144.5 -37q-94 0 -138 35.5z" />
    <glyph glyph-name="t" unicode="t" horiz-adv-x="325" 
d="M270 502l-1 -14q-2 -14 -11 -14h-117v-46l-1 -357q0 -25 13 -40t38 -15q18 0 33 7.5t21 19.5q9 -10 9 -21q0 -16 -19 -25t-45 -9q-37 0 -58.5 21.5t-21.5 61.5v403h-14q-34 0 -60 -2l1 14q2 14 11 14h62v110q0 22 19 22q10 0 18 -8q-6 -14 -6 -124h77q32 0 52 2z" />
    <glyph glyph-name="u" unicode="u" horiz-adv-x="551" 
d="M515 18q0 -11 -11 -17.5t-29 -6.5q-30 0 -43.5 19.5t-13.5 59.5v46q-21 -61 -69 -96t-104 -35q-81 0 -117.5 49.5t-37.5 169.5l-1 210q0 63 -6 87q8 8 18 8q17 0 17 -22l1 -284q0 -73 13 -114.5t41 -58.5t75 -17q38 0 77 22.5t66 76.5t27 142q0 150 -1 190t-5 57
q8 8 18 8q17 0 17 -22l1 -418q0 -28 6.5 -39t23.5 -11q19 0 27 18q10 -11 10 -22z" />
    <glyph glyph-name="v" unicode="v" horiz-adv-x="464" 
d="M440 495q6 -5 5 -13q0 -10 -6 -24l-182 -458q-11 -8 -22 -8q-19 0 -25 17l-179 452q-3 7 -7 15.5t-9 14.5q9 9 20 9q15 0 20 -14l181 -467l171 444q5 13 5 21q0 10 -2 14q5 2 14 2q10 0 16 -5z" />
    <glyph glyph-name="w" unicode="w" horiz-adv-x="733" 
d="M185 9l-149 452q-3 7 -7 15.5t-9 14.5q9 9 20 9q15 0 20 -14l151 -467l133 444q4 16 4 21q0 10 -2 14q10 6 24 6q8 0 15 -4l143 -481l143 444q5 13 5 21q0 10 -2 14q5 2 14 2q10 0 16 -5t5 -13q0 -10 -6 -24l-152 -458q-11 -8 -21 -8q-9 0 -17 4.5t-10 12.5l-133 452
l-137 -461q-11 -8 -24 -8q-18 0 -24 17z" />
    <glyph glyph-name="x" unicode="x" horiz-adv-x="483" 
d="M464 40.5q6 -6.5 6 -16.5q0 -14 -13.5 -25.5t-35.5 -11.5q-26 0 -44 15t-33 42l-109 190l-166 -235q-8 -11 -18 -11q-15 0 -18 20q12 10 51 65l135 188l-103 180q-13 23 -24 32.5t-25 9.5q-16 0 -22.5 -9.5t-4.5 -22.5q-11 1 -17 7.5t-6 15.5q0 15 13.5 26.5t35.5 11.5
q26 0 44 -15.5t33 -41.5l98 -173l159 219q8 11 18 11q14 0 18 -20q-10 -8 -37 -46l-15 -20l-128 -170l115 -198q12 -21 23 -31.5t27 -10.5t22.5 10.5t3.5 21.5q11 -1 17 -7.5z" />
    <glyph glyph-name="y" unicode="y" horiz-adv-x="536" 
d="M449 46q0 -286 -214 -286q-61 0 -106.5 27.5t-45.5 82.5q0 25 8.5 42t22.5 17q12 0 18 -9q-20 -11 -20 -43q0 -48 36.5 -68.5t84.5 -20.5q98 0 141.5 65t43.5 209v65q-20 -64 -68 -100.5t-114 -36.5q-73 0 -109 50t-37 167l-1 210q0 63 -6 87q8 8 18 8q17 0 17 -22
l1 -284q0 -101 28 -144.5t90 -43.5q74 0 127.5 57.5t53.5 191.5q0 144 -1 182.5t-5 54.5q8 8 18 8q17 0 17 -22z" />
    <glyph glyph-name="z" unicode="z" horiz-adv-x="476" 
d="M428.5 142q10.5 -22 10.5 -48q0 -42 -29 -68t-77 -26h-187q-67 0 -97 -4l-8 11q0 14 14 33l327 432h-236q-37 0 -54.5 -15.5t-17.5 -38.5q0 -30 31 -52q-5 -8 -15 -8q-21 0 -33.5 19t-12.5 43q0 34 27 57t73 23h164q34 0 59 0.5t36 3.5l10 -7q0 -28 -15 -49l-320 -421
h244q46 0 66.5 20t20.5 50q0 20 -9 36.5t-23 24.5q11 6 18 6q23 0 33.5 -22z" />
    <glyph glyph-name="braceleft" unicode="{" horiz-adv-x="342" 
d="M165 -135.5q-34 35.5 -34 105.5q0 30 7 88q9 81 9 114q0 46 -14.5 67t-52.5 37v24q39 15 53 39t14 69q0 34 -9 113q-7 53 -7 83q0 71 34 106.5t90 35.5q18 0 35 -3.5t20 -6.5q2 -1 2 -7q0 -9 -9 -12q-33 3 -38 3q-50 0 -78 -28.5t-28 -83.5q0 -25 7 -78q10 -70 10 -114
q0 -108 -51 -125v-6q23 -7 37 -38t14 -85q0 -38 -10 -112q-1 -13 -4 -39.5t-3 -42.5q0 -55 28 -84t78 -29q5 0 38 3q7 -2 9 -9t-2 -10q-3 -3 -20 -6.5t-35 -3.5q-56 0 -90 35.5z" />
    <glyph glyph-name="bar" unicode="|" horiz-adv-x="230" 
d="M100 730h30v-867h-30v867z" />
    <glyph glyph-name="braceright" unicode="}" horiz-adv-x="342" 
d="M52 -167.5q-17 3.5 -20 6.5q-2 1 -2 7q0 9 9 12q33 -3 38 -3q50 0 78 29t28 84q0 16 -3 42.5t-4 39.5q-10 74 -10 112q0 54 14 85t37 38v6q-51 17 -51 125q0 44 10 114q7 53 7 78q0 55 -28 83.5t-78 28.5q-5 0 -38 -3q-7 2 -9 9t2 10q3 3 20 6.5t35 3.5q56 0 90 -35.5
t34 -106.5q0 -30 -7 -83q-9 -79 -9 -113q0 -45 14 -69t53 -39v-24q-38 -16 -52.5 -37t-14.5 -67q0 -33 9 -114q7 -58 7 -88q0 -70 -34 -105.5t-90 -35.5q-18 0 -35 3.5z" />
    <glyph glyph-name="asciitilde" unicode="~" horiz-adv-x="521" 
d="M413.5 338.5q-21.5 -19.5 -51.5 -19.5q-31 0 -54 7t-53 20q-27 12 -46.5 18t-44.5 6q-20 0 -36.5 -12t-22.5 -34h-2q-12 0 -23 11q8 32 32.5 49t55.5 17t53 -6.5t54 -20.5q29 -12 48.5 -18t45.5 -6q18 0 27.5 11.5t17.5 35.5q17 0 27 -9q-6 -30 -27.5 -49.5z" />
    <glyph glyph-name="uni00A0" unicode="&#xa0;" horiz-adv-x="300" 
 />
    <glyph glyph-name="exclamdown" unicode="&#xa1;" horiz-adv-x="268" 
d="M158 499q10 -10 10 -24q0 -13 -10 -23.5t-24 -10.5q-13 0 -23.5 10.5t-10.5 23.5q0 14 10.5 24t23.5 10q14 0 24 -10zM134 -223q13 0 19 2l-4 555h-30l-4 -555q6 -2 19 -2z" />
    <glyph glyph-name="cent" unicode="&#xa2;" horiz-adv-x="499" 
d="M444 216q0 -9 -6 -24q-14 -40 -44 -65t-73 -34l7 -39q10 -58 21 -85q-2 -3 -5.5 -6t-8.5 -4h-3q-11 0 -16 19l-20 111q-9 -1 -28 -1q-99 0 -155.5 65t-56.5 190q0 101 38.5 168t110.5 90l-6 32q-10 58 -21 85q2 3 5.5 6t8.5 4h3q11 0 16 -19l18 -102q27 5 51 5
q72 0 114.5 -33.5t42.5 -91.5q0 -30 -12 -49t-31 -19q-17 0 -26 16q18 0 27.5 14.5t9.5 37.5q0 48 -38 73.5t-92 25.5q-24 0 -41 -4l82 -460q43 9 73 37t41 76q14 -5 14 -19zM291 118l-82 457q-56 -21 -88.5 -79t-32.5 -149q0 -122 52.5 -176t130.5 -54q13 0 20 1z" />
    <glyph glyph-name="sterling" unicode="&#xa3;" horiz-adv-x="508" 
d="M463 16q0 -6 -3.5 -11t-9.5 -5h-406v22q54 79 73.5 127.5t19.5 113.5q0 12 -2 38h-42q-34 0 -60 -2l1 14q2 14 11 14h88l-6 53q-10 86 -10 118q0 112 47.5 157t127.5 45q57 0 91.5 -29t34.5 -68q0 -23 -15 -23q-6 0 -10 2q0 43 -29.5 66.5t-71.5 23.5q-67 0 -106.5 -37
t-39.5 -136q0 -39 10 -117l6 -55h138q32 0 52 2l-1 -14q-2 -14 -11 -14h-176q1 -13 1 -40q0 -69 -20 -118.5t-72 -117.5l385 1q5 -2 5 -10z" />
    <glyph glyph-name="currency" unicode="&#xa4;" horiz-adv-x="529" 
d="M479 187q0 -11 -6 -17q-4 -4 -9 -4q-8 0 -17 9l-62 62q-24 -21 -55 -33t-64 -12q-35 0 -66.5 12t-55.5 33l-10 -10q-47 -48 -58 -66q-11 0 -17 6q-4 4 -4 9q0 8 9 17l61 62q-46 54 -46 122q0 69 46 121l-9 8q-48 47 -66 58q0 11 6 17q4 4 9 4q8 0 17 -9l61 -61
q24 21 54.5 32.5t64.5 11.5q71 0 123 -46l10 11q47 48 58 66q11 0 17 -6q4 -4 4 -9q0 -8 -9 -17l-62 -63q45 -51 45 -120t-45 -120l10 -10q48 -47 66 -58zM340.5 241q35.5 21 56.5 57t21 78t-20.5 77.5t-56 56.5t-76.5 21q-42 0 -78 -21t-57 -57t-21 -78t20.5 -77.5
t56 -56.5t77.5 -21t77.5 21z" />
    <glyph glyph-name="yen" unicode="&#xa5;" horiz-adv-x="508" 
d="M480 655l-170 -343h52q32 0 52 2l-1 -14q-2 -14 -11 -14h-105l-25 -50v-34h90q32 0 52 2l-1 -14q-2 -14 -11 -14h-130l1 -89q0 -63 6 -87q-8 -8 -18 -8q-17 0 -17 22l-1 162h-88q-34 0 -60 -2l1 14q2 14 11 14h136v36l-23 48h-65q-34 0 -60 -2l1 14q2 14 11 14h101
l-167 349q-4 9 -11.5 17.5t-9.5 10.5q9 11 23 11t20 -14l175 -374h42l166 343q10 21 10 28q0 11 -2 15q5 2 14 2t14.5 -6t5.5 -16q0 -7 -8 -23zM267 286h-16l8 -17z" />
    <glyph glyph-name="brokenbar" unicode="&#xa6;" horiz-adv-x="230" 
d="M100 728h30v-344h-30v344zM100 207h30v-344h-30v344z" />
    <glyph glyph-name="section" unicode="&#xa7;" horiz-adv-x="460" 
d="M89 -45.5q-44 35.5 -44 90.5q0 24 9 34t28 8q-6 -15 -6 -32q0 -54 40 -81t108 -27q71 0 114.5 25t43.5 70q0 29 -15 48.5t-37.5 32t-63.5 30.5q-15 6 -45 20q-9 4 -57 27.5t-71.5 55.5t-23.5 75q0 51 28.5 80.5t77.5 39.5q-52 27 -79 56.5t-27 79.5q0 58 45.5 85.5
t116.5 27.5q81 0 123.5 -27.5t42.5 -75.5q0 -23 -13 -31q-4 -3 -11 -3q-4 0 -12 2q5 11 5 26q0 41 -35.5 61t-101.5 20q-56 0 -92 -19.5t-36 -62.5q0 -35 18 -58.5t42 -37.5t76 -38l35 -16q48 -21 76 -36.5t47 -41t19 -62.5q0 -43 -29.5 -78.5t-99.5 -42.5q63 -27 96 -56
t33 -79q0 -51 -42.5 -88t-144.5 -37q-94 0 -138 35.5zM263 199q51 0 85 25.5t34 73.5q0 38 -30.5 62t-93.5 52l-31 15q-8 1 -22 1q-48 0 -76 -24t-28 -70q0 -34 19.5 -58t45.5 -38.5t77 -37.5q7 -1 20 -1z" />
    <glyph glyph-name="dieresis" unicode="&#xa8;" horiz-adv-x="600" 
d="M196 597.5q-10 10.5 -10 23.5q0 14 10 24t24 10q13 0 23.5 -10t10.5 -24q0 -13 -10.5 -23.5t-23.5 -10.5q-14 0 -24 10.5zM356 597.5q-10 10.5 -10 23.5q0 14 10 24t24 10q13 0 23.5 -10t10.5 -24q0 -13 -10.5 -23.5t-23.5 -10.5q-14 0 -24 10.5z" />
    <glyph glyph-name="copyright" unicode="&#xa9;" horiz-adv-x="837" 
d="M238.5 36q-82.5 48 -130.5 130.5t-48 179.5q0 96 48 177.5t130.5 129t180.5 47.5q97 0 179.5 -47.5t130.5 -129t48 -177.5q0 -97 -48 -179.5t-130.5 -130.5t-179.5 -48q-98 0 -180.5 48zM585 58q76 45 120.5 121t44.5 167q0 90 -44.5 165.5t-120.5 119.5t-166 44
t-166.5 -44t-121 -119.5t-44.5 -165.5q0 -91 44.5 -167.5t120.5 -121t167 -44.5q90 0 166 45zM291.5 180q-47.5 57 -47.5 166t47.5 166t133.5 57q37 0 66.5 -8t46 -20t16.5 -24q0 -5 -6 -8t-13 -1q-7 18 -36 28.5t-74 10.5q-73 0 -112.5 -51.5t-39.5 -149.5t39.5 -149.5
t112.5 -51.5q43 0 80 15.5t47 41.5q17 0 17 -9q0 -14 -20 -30.5t-53 -28t-71 -11.5q-86 0 -133.5 57z" />
    <glyph glyph-name="ordfeminine" unicode="&#xaa;" horiz-adv-x="358" 
d="M349 381q0 -11 -10 -17t-22 -6q-23 0 -34 15t-11 41v59q-25 -54 -67.5 -85t-88.5 -31q-39 0 -59 21.5t-20 54.5q0 37 26.5 65t78.5 41q40 11 98 11q22 0 32 -1v16q0 62 -26.5 92t-84.5 30q-36 0 -62.5 -12.5t-26.5 -43.5q0 -15 8.5 -29t23.5 -17q-7 -11 -18 -11
q-14 0 -24.5 17.5t-10.5 38.5q0 39 30.5 58.5t83.5 19.5q129 0 129 -143v-152q0 -34 24 -34q6 0 13.5 4.5t11.5 11.5q6 -6 6 -14zM188.5 400q35.5 23 59 59.5t24.5 73.5q-29 2 -67 -1.5t-62 -10.5q-83 -25 -83 -86q0 -25 14.5 -41.5t45.5 -16.5q33 0 68.5 23z" />
    <glyph glyph-name="guillemotleft" unicode="&#xab;" horiz-adv-x="611" 
d="M267 243v-5l284 -196l-18 -21l-296 205q-1 5 -1 15q0 11 1 15l296 204l16 -22zM67 243v-5l284 -196l-18 -21l-296 205q-1 5 -1 15q0 11 1 15l296 204l16 -22z" />
    <glyph glyph-name="logicalnot" unicode="&#xac;" horiz-adv-x="574" 
d="M474 374v-146q-10 -4 -15 -4t-15 4v116h-361q-3 8 -3 15q0 8 3 15h391z" />
    <glyph glyph-name="uni00AD" unicode="&#xad;" horiz-adv-x="399" 
d="M339 270v-28h-279v28h279z" />
    <glyph glyph-name="registered" unicode="&#xae;" horiz-adv-x="837" 
d="M598.5 652.5q82.5 -47.5 130.5 -129t48 -177.5q0 -97 -48 -179.5t-130.5 -130.5t-179.5 -48q-98 0 -180.5 48t-130.5 130.5t-48 179.5q0 96 48 177.5t130.5 129t180.5 47.5q97 0 179.5 -47.5zM585 58q76 45 120.5 121t44.5 167q0 90 -44.5 165.5t-120.5 119.5t-166 44
t-166.5 -44t-121 -119.5t-44.5 -165.5q0 -91 44.5 -167.5t120.5 -121t167 -44.5q90 0 166 45zM607 145.5q7 2.5 12 9.5q4 -5 4 -12q0 -9 -11 -14.5t-22 -5.5q-14 0 -28 9.5t-23 25.5l-46 102q-11 23 -19.5 35t-28.5 21t-56 9h-80v-139q0 -12 1.5 -31t4.5 -27q-10 -5 -19 -5
q-13 0 -15 14v386q0 10 -1 30t-4 28q1 0 16 4t66 4q108 0 155.5 -30t47.5 -99q0 -46 -29 -79t-77 -44q23 -6 36.5 -24t30.5 -52l42 -93q8 -14 15 -19.5t15 -5.5q6 0 13 2.5zM389 346q59 0 101 29.5t42 81.5q0 62 -41 86.5t-135 24.5q-34 0 -47 -3v-219h80z" />
    <glyph glyph-name="macron" unicode="&#xaf;" horiz-adv-x="600" 
d="M417 627q3 -6 3 -14q0 -6 -3 -14h-235q-3 8 -3 14q0 8 3 14h235z" />
    <glyph glyph-name="degree" unicode="&#xb0;" horiz-adv-x="362" 
d="M99 510q-34 33 -34 79t34 78.5t82 32.5t82 -32.5t34 -78.5t-34 -79t-82 -33t-82 33zM242.5 528.5q25.5 25.5 25.5 60.5t-25.5 60t-61.5 25t-61.5 -25t-25.5 -60t25.5 -60.5t61.5 -25.5t61.5 25.5z" />
    <glyph glyph-name="plusminus" unicode="&#xb1;" horiz-adv-x="577" 
d="M93 342q-3 8 -3 15q0 8 3 15h180v131q7 3 15 3t15 -3v-131h181q3 -7 3 -15q0 -7 -3 -15h-181v-131q-8 -2 -13 -2q-8 0 -16 3v130h-181zM484 152q3 -7 3 -15q0 -7 -3 -15h-391q-3 8 -3 15q0 8 3 15h391z" />
    <glyph glyph-name="uni00B2" unicode="&#xb2;" horiz-adv-x="349" 
d="M35 251q-1 5 -1 14q80 63 129.5 109t81 95t31.5 99q0 48 -28.5 79.5t-80.5 31.5q-49 0 -73.5 -27t-27.5 -54q-8 0 -13.5 5t-5.5 14q0 16 15 35.5t42.5 33.5t64.5 14q56 0 95 -32.5t39 -96.5q0 -82 -65.5 -155.5t-177.5 -153.5q104 1 268 5q4 -3 4 -12t-5 -12h-286
q-5 3 -6 8z" />
    <glyph glyph-name="uni00B3" unicode="&#xb3;" horiz-adv-x="375" 
d="M101.5 250q-30.5 15 -43 34.5t-12.5 33.5q0 8 5 13t14 5q6 -31 31 -55.5t85 -24.5t91.5 27.5t31.5 74.5q0 59 -46 86t-118 29v19q69 1 109 29.5t40 73.5q0 36 -26.5 60t-75.5 24q-52 0 -77.5 -26t-28.5 -53q-18 0 -18 17q0 15 13.5 34.5t42.5 34t71 14.5q53 0 90 -25
t37 -79q0 -45 -28 -73t-79 -39q58 -11 90 -40.5t32 -83.5q0 -60 -41 -92.5t-109 -32.5q-50 0 -80.5 15z" />
    <glyph glyph-name="uni00B5" unicode="&#xb5;" horiz-adv-x="558" 
d="M518 18q0 -11 -11 -17.5t-29 -6.5q-30 0 -43.5 19.5t-13.5 59.5v46q-21 -61 -69 -96t-104 -35q-45 0 -76 14.5t-49 46.5v-155q0 -33 2 -68.5t4 -45.5q-8 -8 -18 -8q-19 0 -19 22l1 413l-1 210q0 63 -6 87q8 8 18 8q17 0 17 -22l1 -284q0 -73 13 -114.5t41 -58.5t75 -17
q38 0 77 22.5t66 76.5t27 142q0 150 -1 190t-5 57q8 8 18 8q17 0 17 -22l1 -418q0 -28 6.5 -39t23.5 -11q19 0 27 18q10 -11 10 -22z" />
    <glyph glyph-name="paragraph" unicode="&#xb6;" horiz-adv-x="631" 
d="M526 -148q10 -21 30 -26q-2 -11 -7 -16t-16 -5q-18 0 -32.5 27t-14.5 70v532q0 125 -50 181.5t-158 56.5q-111 0 -153.5 -56.5t-42.5 -133.5q0 -84 43.5 -129.5t112.5 -45.5q21 0 40 4l-1 126q0 63 -6 87q8 8 18 8q17 0 17 -22l2 -423q0 -63 6 -87q-8 -8 -18 -8
q-17 0 -17 22l-1 268q-19 -4 -41 -4q-50 0 -92.5 23.5t-68.5 69.5t-26 110q0 82 48.5 150.5t179.5 68.5q121 0 179.5 -64.5t58.5 -201.5v-508q0 -53 10 -74z" />
    <glyph glyph-name="periodcentered" unicode="&#xb7;" horiz-adv-x="228" 
d="M90.5 221.5q-10.5 10.5 -10.5 23.5q0 14 10.5 24t23.5 10q14 0 24 -10t10 -24q0 -13 -10 -23.5t-24 -10.5q-13 0 -23.5 10.5z" />
    <glyph glyph-name="cedilla" unicode="&#xb8;" horiz-adv-x="600" 
d="M298 -41q38 0 59 -19t21 -51q0 -35 -24.5 -56.5t-61.5 -21.5q-52 0 -78 28v2q0 5 3.5 11t8.5 9q12 -10 25.5 -16t36.5 -6q26 0 41.5 12t15.5 36q0 49 -65 49l-17 -1l14 65h30z" />
    <glyph glyph-name="uni00B9" unicode="&#xb9;" horiz-adv-x="280" 
d="M161 254l-2 381q0 26 -1 37q-30 -21 -45 -32q-57 -41 -63 -41q-10 0 -10 15l29 21q72 51 89 62q6 3 11 3q15 0 15 -17l1 -379q-1 -38 4 -60q-6 -6 -14 -6q-14 0 -14 16z" />
    <glyph glyph-name="ordmasculine" unicode="&#xba;" horiz-adv-x="358" 
d="M73.5 403.5q-37.5 46.5 -37.5 129.5t37.5 129t105.5 46q67 0 105 -46t38 -129t-37.5 -129.5t-105.5 -46.5t-105.5 46.5zM267 419q32 41 32 114t-32 113.5t-88 40.5t-88 -40.5t-32 -113.5t32 -114t88 -41t88 41z" />
    <glyph glyph-name="guillemotright" unicode="&#xbb;" horiz-adv-x="611" 
d="M278 460l296 -204q2 -8 2 -15q0 -5 -2 -15l-296 -205l-18 21l284 196v5l-282 195zM78 460l296 -204q2 -8 2 -15q0 -5 -2 -15l-296 -205l-18 21l284 196v5l-282 195z" />
    <glyph glyph-name="onequarter" unicode="&#xbc;" horiz-adv-x="811" 
d="M161 254l-2 381q0 26 -1 37q-30 -21 -45 -32q-57 -41 -63 -41q-10 0 -10 15l29 21q72 51 89 62q6 3 11 3q15 0 15 -17l1 -379q-1 -38 4 -60q-6 -6 -14 -6q-14 0 -14 16zM595 700q7 0 11.5 -3.5t4.5 -10.5l-454 -698q-16 0 -20 14l454 698h4zM803 140q0 -10 -5 -13h-64
v-66q0 -36 4 -60q-4 -6 -14 -6q-14 0 -14 16l-1 116h-231q-7 6 -7 12q0 4 5 11l228 300q5 7 15 7q6 0 10 -4.5t4 -12.5l1 -291q32 0 65 5q4 -5 4 -14zM709 149l-1 271l-205 -271h206z" />
    <glyph glyph-name="onehalf" unicode="&#xbd;" horiz-adv-x="874" 
d="M161 254l-2 381q0 26 -1 37q-30 -21 -45 -32q-57 -41 -63 -41q-10 0 -10 15l29 21q72 51 89 62q6 3 11 3q15 0 15 -17l1 -379q-1 -38 4 -60q-6 -6 -14 -6q-14 0 -14 16zM608 700q7 0 11.5 -3.5t4.5 -10.5l-454 -698q-16 0 -20 14l454 698h4zM548 8q-1 5 -1 14
q80 63 129.5 109t81 95t31.5 99q0 48 -28.5 79.5t-80.5 31.5q-49 0 -73.5 -27t-27.5 -54q-8 0 -13.5 5t-5.5 14q0 16 15 35.5t42.5 33.5t64.5 14q56 0 95 -32.5t39 -96.5q0 -82 -65.5 -155.5t-177.5 -153.5q104 1 268 5q4 -3 4 -12t-5 -12h-286q-5 3 -6 8z" />
    <glyph glyph-name="threequarters" unicode="&#xbe;" horiz-adv-x="891" 
d="M101.5 250q-30.5 15 -43 34.5t-12.5 33.5q0 8 5 13t14 5q6 -31 31 -55.5t85 -24.5t91.5 27.5t31.5 74.5q0 59 -46 86t-118 29v19q69 1 109 29.5t40 73.5q0 36 -26.5 60t-75.5 24q-52 0 -77.5 -26t-28.5 -53q-18 0 -18 17q0 15 13.5 34.5t42.5 34t71 14.5q53 0 90 -25
t37 -79q0 -45 -28 -73t-79 -39q58 -11 90 -40.5t32 -83.5q0 -60 -41 -92.5t-109 -32.5q-50 0 -80.5 15zM675 700q7 0 11.5 -3.5t4.5 -10.5l-454 -698q-16 0 -20 14l454 698h4zM883 140q0 -10 -5 -13h-64v-66q0 -36 4 -60q-4 -6 -14 -6q-14 0 -14 16l-1 116h-231q-7 6 -7 12
q0 4 5 11l228 300q5 7 15 7q6 0 10 -4.5t4 -12.5l1 -291q32 0 65 5q4 -5 4 -14zM789 149l-1 271l-205 -271h206z" />
    <glyph glyph-name="questiondown" unicode="&#xbf;" horiz-adv-x="465" 
d="M328 514q10 -10 10 -24q0 -13 -10 -23.5t-24 -10.5q-13 0 -23.5 10.5t-10.5 23.5q0 14 10.5 24t23.5 10q14 0 24 -10zM301 205q-45 0 -97.5 -23.5t-89.5 -70t-37 -112.5q0 -85 49 -137t142 -52q53 0 87.5 21.5t51 50t19.5 50.5q10 0 16 -6t6 -18q0 -24 -21.5 -53.5
t-63.5 -51t-100 -21.5q-56 0 -105.5 21.5t-81 69t-31.5 119.5q0 95 62.5 160.5t164.5 81.5v115h29v-144z" />
    <glyph glyph-name="Agrave" unicode="&#xc0;" horiz-adv-x="562" 
d="M547 1q-8 -9 -17 -9q-8 0 -14 3.5t-8 10.5l-78 228h-296l-70 -205q-5 -12 -5 -21q0 -10 2 -14q-6 -2 -16 -2q-8 0 -13.5 5t-4.5 13q0 5 2.5 13t3.5 11l227 658q11 8 22 8q19 0 25 -17l224 -652q8 -20 16 -30zM421 260l-140 408l-139 -408h279zM171 842l129 -97
q-1 -5 -5 -10.5t-8 -7.5l-150 83q10 20 34 32z" />
    <glyph glyph-name="Aacute" unicode="&#xc1;" horiz-adv-x="562" 
d="M547 1q-8 -9 -17 -9q-8 0 -14 3.5t-8 10.5l-78 228h-296l-70 -205q-5 -12 -5 -21q0 -10 2 -14q-6 -2 -16 -2q-8 0 -13.5 5t-4.5 13q0 5 2.5 13t3.5 11l227 658q11 8 22 8q19 0 25 -17l224 -652q8 -20 16 -30zM421 260l-140 408l-139 -408h279zM270 727q-4 2 -8 7.5
t-5 10.5l129 97q24 -12 34 -32z" />
    <glyph glyph-name="Acircumflex" unicode="&#xc2;" horiz-adv-x="562" 
d="M547 1q-8 -9 -17 -9q-8 0 -14 3.5t-8 10.5l-78 228h-296l-70 -205q-5 -12 -5 -21q0 -10 2 -14q-6 -2 -16 -2q-8 0 -13.5 5t-4.5 13q0 5 2.5 13t3.5 11l227 658q11 8 22 8q19 0 25 -17l224 -652q8 -20 16 -30zM421 260l-140 408l-139 -408h279zM412 743q-5 -11 -16 -16
l-116 78l-117 -78q-11 5 -16 16l115 97q12 2 17 2q6 0 18 -2z" />
    <glyph glyph-name="Atilde" unicode="&#xc3;" horiz-adv-x="562" 
d="M547 1q-8 -9 -17 -9q-8 0 -14 3.5t-8 10.5l-78 228h-296l-70 -205q-5 -12 -5 -21q0 -10 2 -14q-6 -2 -16 -2q-8 0 -13.5 5t-4.5 13q0 5 2.5 13t3.5 11l227 658q11 8 22 8q19 0 25 -17l224 -652q8 -20 16 -30zM421 260l-140 408l-139 -408h279zM382 763.5
q-19 -15.5 -45 -15.5q-17 0 -32 5.5t-33 16.5q-20 10 -30 14t-23 4q-40 0 -52 -42h-2q-7 0 -17 10q7 31 26.5 47t47.5 16q17 0 31 -5.5t32 -15.5q17 -9 30 -14t27 -5q18 0 27 8t20 27q12 0 20 -9q-8 -26 -27 -41.5z" />
    <glyph glyph-name="Adieresis" unicode="&#xc4;" horiz-adv-x="562" 
d="M547 1q-8 -9 -17 -9q-8 0 -14 3.5t-8 10.5l-78 228h-296l-70 -205q-5 -12 -5 -21q0 -10 2 -14q-6 -2 -16 -2q-8 0 -13.5 5t-4.5 13q0 5 2.5 13t3.5 11l227 658q11 8 22 8q19 0 25 -17l224 -652q8 -20 16 -30zM421 260l-140 408l-139 -408h279zM179 770.5
q-10 10.5 -10 23.5q0 14 10 24t24 10q13 0 23.5 -10t10.5 -24q0 -13 -10.5 -23.5t-23.5 -10.5q-14 0 -24 10.5zM339 770.5q-10 10.5 -10 23.5q0 14 10 24t24 10q13 0 23.5 -10t10.5 -24q0 -13 -10.5 -23.5t-23.5 -10.5q-14 0 -24 10.5z" />
    <glyph glyph-name="Aring" unicode="&#xc5;" horiz-adv-x="562" 
d="M547 1q-8 -9 -17 -9q-8 0 -14 3.5t-8 10.5l-78 228h-296l-70 -205q-5 -12 -5 -21q0 -10 2 -14q-6 -2 -16 -2q-8 0 -13.5 5t-4.5 13q0 5 2.5 13t3.5 11l227 658q11 8 22 8q19 0 25 -17l224 -652q8 -20 16 -30zM421 260l-140 408l-139 -408h279zM342 873q22 -21 22 -55
q-1 -37 -23.5 -58.5t-60.5 -21.5q-36 0 -58 21t-22 55q0 37 23 58.5t61 21.5q36 0 58 -21zM241 857q-15 -15 -15 -41q0 -25 15 -40.5t41 -15.5q25 0 40.5 15.5t15.5 40.5q0 26 -15.5 41t-40.5 15q-26 0 -41 -15z" />
    <glyph glyph-name="AE" unicode="&#xc6;" horiz-adv-x="803" 
d="M729 20.5q2 -4.5 2 -9.5q0 -11 -8 -11h-317q-17 0 -17 22l-1 212h-216l-110 -205q-5 -8 -5 -21q0 -10 2 -14q-5 -2 -14 -2q-8 0 -13.5 5t-4.5 13q0 14 6 24l354 654h48h278q8 0 8 -9q0 -5 -3.5 -10.5t-7.5 -6.5h-294l1 -282h274q2 -4 2 -13q0 -8 -2 -13h-274l1 -329
l305 1q4 -1 6 -5.5zM388 260l-1 340q0 24 -1 34l-200 -374h202z" />
    <glyph glyph-name="Ccedilla" unicode="&#xc7;" horiz-adv-x="576" 
d="M490 51.5q-26 -25.5 -69.5 -44t-94.5 -19.5l-6 -29q38 0 59 -19t21 -51q0 -35 -24.5 -56.5t-61.5 -21.5q-52 0 -78 28v2q0 5 3.5 11t8.5 9q12 -10 25.5 -16t36.5 -6q26 0 41.5 12t15.5 36q0 49 -65 49l-17 -1l12 54q-109 8 -168 98.5t-59 256.5q0 174 65 265t184 91
q50 0 90.5 -12.5t63 -32t22.5 -38.5q0 -8 -8 -13t-17 -1q-9 31 -49.5 50t-101.5 19q-103 0 -160 -84t-57 -244t57 -244t160 -84q58 0 109 27t64 71q11 0 17.5 -3t6.5 -12q0 -22 -26 -47.5z" />
    <glyph glyph-name="Egrave" unicode="&#xc8;" horiz-adv-x="523" 
d="M449 20.5q2 -4.5 2 -9.5q0 -11 -8 -11h-317q-17 0 -17 22l-2 578q0 56 -6 80q6 8 18 8h314q8 0 8 -9q0 -5 -3.5 -10.5t-7.5 -6.5h-294l1 -282h274q2 -4 2 -13q0 -8 -2 -13h-274l1 -329l305 1q4 -1 6 -5.5zM167 842l129 -97q-1 -5 -5 -10.5t-8 -7.5l-150 83q10 20 34 32z
" />
    <glyph glyph-name="Eacute" unicode="&#xc9;" horiz-adv-x="523" 
d="M449 20.5q2 -4.5 2 -9.5q0 -11 -8 -11h-317q-17 0 -17 22l-2 578q0 56 -6 80q6 8 18 8h314q8 0 8 -9q0 -5 -3.5 -10.5t-7.5 -6.5h-294l1 -282h274q2 -4 2 -13q0 -8 -2 -13h-274l1 -329l305 1q4 -1 6 -5.5zM266 727q-4 2 -8 7.5t-5 10.5l129 97q24 -12 34 -32z" />
    <glyph glyph-name="Ecircumflex" unicode="&#xca;" horiz-adv-x="523" 
d="M449 20.5q2 -4.5 2 -9.5q0 -11 -8 -11h-317q-17 0 -17 22l-2 578q0 56 -6 80q6 8 18 8h314q8 0 8 -9q0 -5 -3.5 -10.5t-7.5 -6.5h-294l1 -282h274q2 -4 2 -13q0 -8 -2 -13h-274l1 -329l305 1q4 -1 6 -5.5zM408 743q-5 -11 -16 -16l-116 78l-117 -78q-11 5 -16 16l115 97
q12 2 17 2q6 0 18 -2z" />
    <glyph glyph-name="Edieresis" unicode="&#xcb;" horiz-adv-x="523" 
d="M449 20.5q2 -4.5 2 -9.5q0 -11 -8 -11h-317q-17 0 -17 22l-2 578q0 56 -6 80q6 8 18 8h314q8 0 8 -9q0 -5 -3.5 -10.5t-7.5 -6.5h-294l1 -282h274q2 -4 2 -13q0 -8 -2 -13h-274l1 -329l305 1q4 -1 6 -5.5zM175 770.5q-10 10.5 -10 23.5q0 14 10 24t24 10q13 0 23.5 -10
t10.5 -24q0 -13 -10.5 -23.5t-23.5 -10.5q-14 0 -24 10.5zM335 770.5q-10 10.5 -10 23.5q0 14 10 24t24 10q13 0 23.5 -10t10.5 -24q0 -13 -10.5 -23.5t-23.5 -10.5q-14 0 -24 10.5z" />
    <glyph glyph-name="Igrave" unicode="&#xcc;" horiz-adv-x="245" 
d="M109 14l-2 586q0 63 -6 87q8 8 18 8q8 0 13.5 -6t5.5 -16v-586q0 -63 6 -87q-8 -8 -18 -8q-17 0 -17 22zM10 842l129 -97q-1 -5 -5 -10.5t-8 -7.5l-150 83q10 20 34 32z" />
    <glyph glyph-name="Iacute" unicode="&#xcd;" horiz-adv-x="245" 
d="M109 14l-2 586q0 63 -6 87q8 8 18 8q8 0 13.5 -6t5.5 -16v-586q0 -63 6 -87q-8 -8 -18 -8q-17 0 -17 22zM109 727q-4 2 -8 7.5t-5 10.5l129 97q24 -12 34 -32z" />
    <glyph glyph-name="Icircumflex" unicode="&#xce;" horiz-adv-x="245" 
d="M109 14l-2 586q0 63 -6 87q8 8 18 8q8 0 13.5 -6t5.5 -16v-586q0 -63 6 -87q-8 -8 -18 -8q-17 0 -17 22zM251 743q-5 -11 -16 -16l-116 78l-117 -78q-11 5 -16 16l115 97q12 2 17 2q6 0 18 -2z" />
    <glyph glyph-name="Idieresis" unicode="&#xcf;" horiz-adv-x="245" 
d="M109 14l-2 586q0 63 -6 87q8 8 18 8q8 0 13.5 -6t5.5 -16v-586q0 -63 6 -87q-8 -8 -18 -8q-17 0 -17 22zM18 770.5q-10 10.5 -10 23.5q0 14 10 24t24 10q13 0 23.5 -10t10.5 -24q0 -13 -10.5 -23.5t-23.5 -10.5q-14 0 -24 10.5zM178 770.5q-10 10.5 -10 23.5q0 14 10 24
t24 10q13 0 23.5 -10t10.5 -24q0 -13 -10.5 -23.5t-23.5 -10.5q-14 0 -24 10.5z" />
    <glyph glyph-name="Eth" unicode="&#xd0;" horiz-adv-x="619" 
d="M491 612q68 -88 68 -268q0 -178 -67 -261t-197 -83h-169q-17 0 -17 22l-1 314h-81q-3 6 -3 13q0 6 3 12h81l-1 239q0 71 -6 95q87 5 194 5q128 0 196 -88zM467.5 104q59.5 76 59.5 240q0 166 -60 247t-172 81h-159l1 -311h173q3 -6 3 -12q0 -7 -3 -13h-173l1 -308h157
q113 0 172.5 76z" />
    <glyph glyph-name="Ntilde" unicode="&#xd1;" horiz-adv-x="667" 
d="M103 0q6 24 6 87l-2 503q0 73 -6 97q6 5 17 5t15 -4q60 -90 193 -305q134 -216 209 -330l-2 547q0 63 -6 87q8 8 18 8q17 0 17 -22l2 -586q0 -71 2 -87q-3 -4 -11 -5.5t-13 0.5q-35 48 -132 200.5t-188 297.5q-100 158 -86 136l2 -615q0 -22 -17 -22q-10 0 -18 8z
M434 763.5q-19 -15.5 -45 -15.5q-17 0 -32 5.5t-33 16.5q-20 10 -30 14t-23 4q-40 0 -52 -42h-2q-7 0 -17 10q7 31 26.5 47t47.5 16q17 0 31 -5.5t32 -15.5q17 -9 30 -14t27 -5q18 0 27 8t20 27q12 0 20 -9q-8 -26 -27 -41.5z" />
    <glyph glyph-name="Ograve" unicode="&#xd2;" horiz-adv-x="638" 
d="M134.5 76.5q-64.5 88.5 -64.5 267.5t64.5 267.5t184.5 88.5t184.5 -88.5t64.5 -267.5t-64.5 -267.5t-184.5 -88.5t-184.5 88.5zM480 97q56 81 56 247t-56 247t-161 81t-161 -81t-56 -247t56 -247t161 -81t161 81zM210 842l129 -97q-1 -5 -5 -10.5t-8 -7.5l-150 83
q10 20 34 32z" />
    <glyph glyph-name="Oacute" unicode="&#xd3;" horiz-adv-x="638" 
d="M134.5 76.5q-64.5 88.5 -64.5 267.5t64.5 267.5t184.5 88.5t184.5 -88.5t64.5 -267.5t-64.5 -267.5t-184.5 -88.5t-184.5 88.5zM480 97q56 81 56 247t-56 247t-161 81t-161 -81t-56 -247t56 -247t161 -81t161 81zM309 727q-4 2 -8 7.5t-5 10.5l129 97q24 -12 34 -32z" />
    <glyph glyph-name="Ocircumflex" unicode="&#xd4;" horiz-adv-x="638" 
d="M134.5 76.5q-64.5 88.5 -64.5 267.5t64.5 267.5t184.5 88.5t184.5 -88.5t64.5 -267.5t-64.5 -267.5t-184.5 -88.5t-184.5 88.5zM480 97q56 81 56 247t-56 247t-161 81t-161 -81t-56 -247t56 -247t161 -81t161 81zM451 743q-5 -11 -16 -16l-116 78l-117 -78q-11 5 -16 16
l115 97q12 2 17 2q6 0 18 -2z" />
    <glyph glyph-name="Otilde" unicode="&#xd5;" horiz-adv-x="638" 
d="M134.5 76.5q-64.5 88.5 -64.5 267.5t64.5 267.5t184.5 88.5t184.5 -88.5t64.5 -267.5t-64.5 -267.5t-184.5 -88.5t-184.5 88.5zM480 97q56 81 56 247t-56 247t-161 81t-161 -81t-56 -247t56 -247t161 -81t161 81zM421 763.5q-19 -15.5 -45 -15.5q-17 0 -32 5.5t-33 16.5
q-20 10 -30 14t-23 4q-40 0 -52 -42h-2q-7 0 -17 10q7 31 26.5 47t47.5 16q17 0 31 -5.5t32 -15.5q17 -9 30 -14t27 -5q18 0 27 8t20 27q12 0 20 -9q-8 -26 -27 -41.5z" />
    <glyph glyph-name="Odieresis" unicode="&#xd6;" horiz-adv-x="638" 
d="M134.5 76.5q-64.5 88.5 -64.5 267.5t64.5 267.5t184.5 88.5t184.5 -88.5t64.5 -267.5t-64.5 -267.5t-184.5 -88.5t-184.5 88.5zM480 97q56 81 56 247t-56 247t-161 81t-161 -81t-56 -247t56 -247t161 -81t161 81zM218 770.5q-10 10.5 -10 23.5q0 14 10 24t24 10
q13 0 23.5 -10t10.5 -24q0 -13 -10.5 -23.5t-23.5 -10.5q-14 0 -24 10.5zM378 770.5q-10 10.5 -10 23.5q0 14 10 24t24 10q13 0 23.5 -10t10.5 -24q0 -13 -10.5 -23.5t-23.5 -10.5q-14 0 -24 10.5z" />
    <glyph glyph-name="multiply" unicode="&#xd7;" horiz-adv-x="486" 
d="M264 353l142 -142q-6 -15 -21 -21l-142 142l-142 -142q-15 7 -20 21l141 142l-142 142q6 14 21 21l142 -142l142 143q15 -6 21 -21z" />
    <glyph glyph-name="Oslash" unicode="&#xd8;" horiz-adv-x="618" 
d="M568 344q0 -179 -64.5 -267.5t-184.5 -88.5q-107 0 -169 68l-40 -69q-16 0 -22 12l46 78q-64 90 -64 267q0 179 64.5 267.5t184.5 88.5q90 0 148 -49l29 50q15 0 21 -13l-31 -54q82 -88 82 -290zM151 108l300 516q-49 48 -132 48q-105 0 -161 -81t-56 -247
q0 -153 49 -236zM480 97q56 81 56 247q0 178 -67 261l-302 -520q54 -69 152 -69q105 0 161 81z" />
    <glyph glyph-name="Ugrave" unicode="&#xd9;" horiz-adv-x="642" 
d="M547 304q0 -156 -57.5 -236t-169.5 -80q-113 0 -166 76.5t-53 239.5v296q0 63 -6 87q8 8 18 8q17 0 17 -22v-369q0 -148 46.5 -218t143.5 -70t147.5 73t50.5 215v296q0 63 -6 87q8 8 18 8q17 0 17 -22v-369zM212 842l129 -97q-1 -5 -5 -10.5t-8 -7.5l-150 83q10 20 34 32
z" />
    <glyph glyph-name="Uacute" unicode="&#xda;" horiz-adv-x="642" 
d="M547 304q0 -156 -57.5 -236t-169.5 -80q-113 0 -166 76.5t-53 239.5v296q0 63 -6 87q8 8 18 8q17 0 17 -22v-369q0 -148 46.5 -218t143.5 -70t147.5 73t50.5 215v296q0 63 -6 87q8 8 18 8q17 0 17 -22v-369zM311 727q-4 2 -8 7.5t-5 10.5l129 97q24 -12 34 -32z" />
    <glyph glyph-name="Ucircumflex" unicode="&#xdb;" horiz-adv-x="642" 
d="M547 304q0 -156 -57.5 -236t-169.5 -80q-113 0 -166 76.5t-53 239.5v296q0 63 -6 87q8 8 18 8q17 0 17 -22v-369q0 -148 46.5 -218t143.5 -70t147.5 73t50.5 215v296q0 63 -6 87q8 8 18 8q17 0 17 -22v-369zM453 743q-5 -11 -16 -16l-116 78l-117 -78q-11 5 -16 16
l115 97q12 2 17 2q6 0 18 -2z" />
    <glyph glyph-name="Udieresis" unicode="&#xdc;" horiz-adv-x="642" 
d="M547 304q0 -156 -57.5 -236t-169.5 -80q-113 0 -166 76.5t-53 239.5v296q0 63 -6 87q8 8 18 8q17 0 17 -22v-369q0 -148 46.5 -218t143.5 -70t147.5 73t50.5 215v296q0 63 -6 87q8 8 18 8q17 0 17 -22v-369zM220 770.5q-10 10.5 -10 23.5q0 14 10 24t24 10q13 0 23.5 -10
t10.5 -24q0 -13 -10.5 -23.5t-23.5 -10.5q-14 0 -24 10.5zM380 770.5q-10 10.5 -10 23.5q0 14 10 24t24 10q13 0 23.5 -10t10.5 -24q0 -13 -10.5 -23.5t-23.5 -10.5q-14 0 -24 10.5z" />
    <glyph glyph-name="Yacute" unicode="&#xdd;" horiz-adv-x="512" 
d="M480 655l-208 -419l1 -149q0 -63 6 -87q-8 -8 -18 -8q-17 0 -17 22l-1 224l-202 423q-4 9 -11.5 17.5t-9.5 10.5q9 11 23 11t20 -14l196 -417l187 386q10 21 10 28q0 11 -2 15q5 2 14 2t14.5 -6t5.5 -16q0 -7 -8 -23zM260 727q-4 2 -8 7.5t-5 10.5l129 97q24 -12 34 -32z
" />
    <glyph glyph-name="Thorn" unicode="&#xde;" 
d="M410 520.5q64 -49.5 64 -151.5q0 -113 -74.5 -165t-230.5 -52h-31v-65q0 -63 6 -87q-8 -8 -18 -8q-17 0 -17 22l-2 586q0 63 -6 87q8 8 18 8q17 0 17 -22v-104l67 1q143 0 207 -49.5zM378 223q64 46 64 145q0 94 -58.5 135t-189.5 41q-39 0 -58 -1l2 -366h42
q134 0 198 46z" />
    <glyph glyph-name="germandbls" unicode="&#xdf;" horiz-adv-x="589" 
d="M99.5 -3q-2.5 5 -2.5 17v442q0 143 51 207.5t152 64.5q74 0 115 -33t41 -102q0 -39 -12.5 -66t-30.5 -43.5t-46 -36.5q-30 -22 -43.5 -37.5t-13.5 -38.5q0 -31 25 -52t81 -52q42 -23 67 -40.5t42.5 -44.5t17.5 -64q0 -53 -38 -91.5t-124 -38.5q-81 0 -119 36t-38 94
q0 15 4.5 25t17.5 13q3 1 8 1q7 0 10 -1q-6 -15 -6 -42q0 -52 34 -75t87 -23q59 0 95.5 26t36.5 74q0 32 -16 54.5t-37 35.5t-60 33q-65 33 -92.5 62t-27.5 66q0 32 16.5 52t50.5 46q38 28 58.5 54.5t20.5 70.5q0 56 -35.5 83t-93.5 27q-94 0 -131.5 -66t-37.5 -188v-217
q0 -114 1 -163.5t4 -65.5q-8 -8 -21 -8q-8 0 -10.5 5z" />
    <glyph glyph-name="agrave" unicode="&#xe0;" 
d="M521 24q0 -15 -15 -24.5t-33 -9.5q-34 0 -50.5 22t-16.5 61v87q-37 -81 -101 -126.5t-132 -45.5q-58 0 -88 31.5t-30 82.5q0 54 39.5 95t117.5 62q60 16 136 16q30 0 58 -3v26q0 94 -39.5 140t-125.5 46q-55 0 -95.5 -19.5t-40.5 -67.5q0 -22 13 -42.5t37 -26.5
q-5 -9 -13 -12.5t-14 -3.5q-21 0 -36.5 26.5t-15.5 56.5q0 58 45.5 87.5t125.5 29.5q189 0 189 -214v-227q0 -53 38 -53q10 0 21 7.5t17 19.5q9 -10 9 -21zM281.5 50q52.5 35 88 90t36.5 111q-10 1 -34 1q-39 0 -83 -5.5t-75 -14.5q-127 -38 -127 -128q0 -38 22 -63.5
t70 -25.5q50 0 102.5 35zM172 702l91 -140q-1 -3 -10 -4.5t-15 -0.5l-111 132q18 12 45 13z" />
    <glyph glyph-name="aacute" unicode="&#xe1;" 
d="M521 24q0 -15 -15 -24.5t-33 -9.5q-34 0 -50.5 22t-16.5 61v87q-37 -81 -101 -126.5t-132 -45.5q-58 0 -88 31.5t-30 82.5q0 54 39.5 95t117.5 62q60 16 136 16q30 0 58 -3v26q0 94 -39.5 140t-125.5 46q-55 0 -95.5 -19.5t-40.5 -67.5q0 -22 13 -42.5t37 -26.5
q-5 -9 -13 -12.5t-14 -3.5q-21 0 -36.5 26.5t-15.5 56.5q0 58 45.5 87.5t125.5 29.5q189 0 189 -214v-227q0 -53 38 -53q10 0 21 7.5t17 19.5q9 -10 9 -21zM281.5 50q52.5 35 88 90t36.5 111q-10 1 -34 1q-39 0 -83 -5.5t-75 -14.5q-127 -38 -127 -128q0 -38 22 -63.5
t70 -25.5q50 0 102.5 35zM255 557h-6q-17 0 -19 5l91 140q27 -1 45 -13z" />
    <glyph glyph-name="acircumflex" unicode="&#xe2;" 
d="M521 24q0 -15 -15 -24.5t-33 -9.5q-34 0 -50.5 22t-16.5 61v87q-37 -81 -101 -126.5t-132 -45.5q-58 0 -88 31.5t-30 82.5q0 54 39.5 95t117.5 62q60 16 136 16q30 0 58 -3v26q0 94 -39.5 140t-125.5 46q-55 0 -95.5 -19.5t-40.5 -67.5q0 -22 13 -42.5t37 -26.5
q-5 -9 -13 -12.5t-14 -3.5q-21 0 -36.5 26.5t-15.5 56.5q0 58 45.5 87.5t125.5 29.5q189 0 189 -214v-227q0 -53 38 -53q10 0 21 7.5t17 19.5q9 -10 9 -21zM281.5 50q52.5 35 88 90t36.5 111q-10 1 -34 1q-39 0 -83 -5.5t-75 -14.5q-127 -38 -127 -128q0 -38 22 -63.5
t70 -25.5q50 0 102.5 35zM135.5 558q-8.5 2 -10.5 6l110 118q12 2 17 2q6 0 18 -2l110 -118q-8 -8 -24 -8l-103 92l-103 -92q-6 0 -14.5 2z" />
    <glyph glyph-name="atilde" unicode="&#xe3;" 
d="M521 24q0 -15 -15 -24.5t-33 -9.5q-34 0 -50.5 22t-16.5 61v87q-37 -81 -101 -126.5t-132 -45.5q-58 0 -88 31.5t-30 82.5q0 54 39.5 95t117.5 62q60 16 136 16q30 0 58 -3v26q0 94 -39.5 140t-125.5 46q-55 0 -95.5 -19.5t-40.5 -67.5q0 -22 13 -42.5t37 -26.5
q-5 -9 -13 -12.5t-14 -3.5q-21 0 -36.5 26.5t-15.5 56.5q0 58 45.5 87.5t125.5 29.5q189 0 189 -214v-227q0 -53 38 -53q10 0 21 7.5t17 19.5q9 -10 9 -21zM281.5 50q52.5 35 88 90t36.5 111q-10 1 -34 1q-39 0 -83 -5.5t-75 -14.5q-127 -38 -127 -128q0 -38 22 -63.5
t70 -25.5q50 0 102.5 35zM362 601.5q-20 -19.5 -48 -19.5q-19 0 -33 7t-31 20q-18 13 -29 18.5t-26 5.5q-20 0 -36.5 -12t-22.5 -34h-2q-7 0 -17 10q7 32 29.5 49.5t51.5 17.5q19 0 33.5 -7t30.5 -20q18 -12 29.5 -18t27.5 -6q19 0 29.5 11.5t19.5 35.5q13 0 20 -9
q-6 -30 -26 -49.5z" />
    <glyph glyph-name="adieresis" unicode="&#xe4;" 
d="M521 24q0 -15 -15 -24.5t-33 -9.5q-34 0 -50.5 22t-16.5 61v87q-37 -81 -101 -126.5t-132 -45.5q-58 0 -88 31.5t-30 82.5q0 54 39.5 95t117.5 62q60 16 136 16q30 0 58 -3v26q0 94 -39.5 140t-125.5 46q-55 0 -95.5 -19.5t-40.5 -67.5q0 -22 13 -42.5t37 -26.5
q-5 -9 -13 -12.5t-14 -3.5q-21 0 -36.5 26.5t-15.5 56.5q0 58 45.5 87.5t125.5 29.5q189 0 189 -214v-227q0 -53 38 -53q10 0 21 7.5t17 19.5q9 -10 9 -21zM281.5 50q52.5 35 88 90t36.5 111q-10 1 -34 1q-39 0 -83 -5.5t-75 -14.5q-127 -38 -127 -128q0 -38 22 -63.5
t70 -25.5q50 0 102.5 35zM152 597.5q-10 10.5 -10 23.5q0 14 10 24t24 10q13 0 23.5 -10t10.5 -24q0 -13 -10.5 -23.5t-23.5 -10.5q-14 0 -24 10.5zM312 597.5q-10 10.5 -10 23.5q0 14 10 24t24 10q13 0 23.5 -10t10.5 -24q0 -13 -10.5 -23.5t-23.5 -10.5q-14 0 -24 10.5z
" />
    <glyph glyph-name="aring" unicode="&#xe5;" 
d="M521 24q0 -15 -15 -24.5t-33 -9.5q-34 0 -50.5 22t-16.5 61v87q-37 -81 -101 -126.5t-132 -45.5q-58 0 -88 31.5t-30 82.5q0 54 39.5 95t117.5 62q60 16 136 16q30 0 58 -3v26q0 94 -39.5 140t-125.5 46q-55 0 -95.5 -19.5t-40.5 -67.5q0 -22 13 -42.5t37 -26.5
q-5 -9 -13 -12.5t-14 -3.5q-21 0 -36.5 26.5t-15.5 56.5q0 58 45.5 87.5t125.5 29.5q189 0 189 -214v-227q0 -53 38 -53q10 0 21 7.5t17 19.5q9 -10 9 -21zM281.5 50q52.5 35 88 90t36.5 111q-10 1 -34 1q-39 0 -83 -5.5t-75 -14.5q-127 -38 -127 -128q0 -38 22 -63.5
t70 -25.5q50 0 102.5 35zM315 685q22 -21 22 -55q-1 -37 -23.5 -58.5t-60.5 -21.5q-36 0 -58 21t-22 55q0 37 23 58.5t61 21.5q36 0 58 -21zM214 669q-15 -15 -15 -41q0 -25 15 -40.5t41 -15.5q25 0 40.5 15.5t15.5 40.5q0 26 -15.5 41t-40.5 15q-26 0 -41 -15z" />
    <glyph glyph-name="ae" unicode="&#xe6;" horiz-adv-x="849" 
d="M793 95q0 -8 -6 -23q-18 -41 -63 -62.5t-104 -21.5q-85 0 -139 45.5t-70 133.5q-37 -84 -102.5 -131.5t-135.5 -47.5q-58 0 -88 31.5t-30 82.5q0 54 39.5 95t117.5 62q60 16 136 16q30 0 58 -3v3v23q0 94 -39.5 140t-125.5 46q-55 0 -95.5 -19.5t-40.5 -67.5
q0 -22 13 -42.5t37 -26.5q-5 -9 -13 -12.5t-14 -3.5q-21 0 -36.5 26.5t-15.5 56.5q0 58 45.5 87.5t125.5 29.5q149 0 181 -133q24 64 75 98.5t125 34.5q75 0 118.5 -36t43.5 -101q0 -75 -60.5 -113t-176.5 -38q-52 0 -116 10q3 -115 55 -166t131 -51q57 0 100 24.5t56 73.5
q14 -5 14 -20zM491 428q-51 -57 -54 -169q63 -10 128 -10q95 0 144.5 31.5t49.5 94.5q0 58 -38.5 84t-94.5 26q-84 0 -135 -57zM277.5 47.5q50.5 32.5 86 84t41.5 105.5v6v8q-10 1 -34 1q-39 0 -82.5 -5.5t-74.5 -14.5q-127 -38 -127 -128q0 -38 22 -63.5t70 -25.5
t98.5 32.5z" />
    <glyph glyph-name="ccedilla" unicode="&#xe7;" horiz-adv-x="499" 
d="M441 116q0 -9 -6 -24q-18 -49 -58.5 -75t-98.5 -29l-6 -29q38 0 59 -19t21 -51q0 -35 -24.5 -56.5t-61.5 -21.5q-52 0 -78 28v2q0 5 3.5 11t8.5 9q12 -10 25.5 -16t36.5 -6q26 0 41.5 12t15.5 36q0 49 -65 49l-17 -1l12 53q-92 6 -144 70.5t-52 184.5q0 125 59 197
t165 72q72 0 114.5 -33.5t42.5 -91.5q0 -30 -12 -49t-31 -19q-17 0 -26 16q18 0 27.5 14.5t9.5 37.5q0 48 -38 73.5t-92 25.5q-84 0 -135.5 -61t-51.5 -178q0 -122 52.5 -176t130.5 -54q59 0 102.5 28.5t56.5 89.5q14 -5 14 -19z" />
    <glyph glyph-name="egrave" unicode="&#xe8;" horiz-adv-x="497" 
d="M441 95q0 -8 -6 -23q-18 -41 -63 -62.5t-104 -21.5q-102 0 -158.5 65t-56.5 190q0 126 57.5 197.5t165.5 71.5q75 0 118.5 -36t43.5 -101q0 -75 -60.5 -113t-176.5 -38q-52 0 -116 10q3 -115 55 -166t131 -51q57 0 100 24.5t56 73.5q14 -5 14 -20zM139 428
q-51 -57 -54 -169q63 -10 128 -10q95 0 144.5 31.5t49.5 94.5q0 58 -38.5 84t-94.5 26q-84 0 -135 -57zM187 702l91 -140q-1 -3 -10 -4.5t-15 -0.5l-111 132q18 12 45 13z" />
    <glyph glyph-name="eacute" unicode="&#xe9;" horiz-adv-x="497" 
d="M441 95q0 -8 -6 -23q-18 -41 -63 -62.5t-104 -21.5q-102 0 -158.5 65t-56.5 190q0 126 57.5 197.5t165.5 71.5q75 0 118.5 -36t43.5 -101q0 -75 -60.5 -113t-176.5 -38q-52 0 -116 10q3 -115 55 -166t131 -51q57 0 100 24.5t56 73.5q14 -5 14 -20zM139 428
q-51 -57 -54 -169q63 -10 128 -10q95 0 144.5 31.5t49.5 94.5q0 58 -38.5 84t-94.5 26q-84 0 -135 -57zM270 557h-6q-17 0 -19 5l91 140q27 -1 45 -13z" />
    <glyph glyph-name="ecircumflex" unicode="&#xea;" horiz-adv-x="497" 
d="M441 95q0 -8 -6 -23q-18 -41 -63 -62.5t-104 -21.5q-102 0 -158.5 65t-56.5 190q0 126 57.5 197.5t165.5 71.5q75 0 118.5 -36t43.5 -101q0 -75 -60.5 -113t-176.5 -38q-52 0 -116 10q3 -115 55 -166t131 -51q57 0 100 24.5t56 73.5q14 -5 14 -20zM139 428
q-51 -57 -54 -169q63 -10 128 -10q95 0 144.5 31.5t49.5 94.5q0 58 -38.5 84t-94.5 26q-84 0 -135 -57zM150.5 558q-8.5 2 -10.5 6l110 118q12 2 17 2q6 0 18 -2l110 -118q-8 -8 -24 -8l-103 92l-103 -92q-6 0 -14.5 2z" />
    <glyph glyph-name="edieresis" unicode="&#xeb;" horiz-adv-x="497" 
d="M441 95q0 -8 -6 -23q-18 -41 -63 -62.5t-104 -21.5q-102 0 -158.5 65t-56.5 190q0 126 57.5 197.5t165.5 71.5q75 0 118.5 -36t43.5 -101q0 -75 -60.5 -113t-176.5 -38q-52 0 -116 10q3 -115 55 -166t131 -51q57 0 100 24.5t56 73.5q14 -5 14 -20zM139 428
q-51 -57 -54 -169q63 -10 128 -10q95 0 144.5 31.5t49.5 94.5q0 58 -38.5 84t-94.5 26q-84 0 -135 -57zM167 597.5q-10 10.5 -10 23.5q0 14 10 24t24 10q13 0 23.5 -10t10.5 -24q0 -13 -10.5 -23.5t-23.5 -10.5q-14 0 -24 10.5zM327 597.5q-10 10.5 -10 23.5q0 14 10 24
t24 10q13 0 23.5 -10t10.5 -24q0 -13 -10.5 -23.5t-23.5 -10.5q-14 0 -24 10.5z" />
    <glyph glyph-name="igrave" unicode="&#xec;" horiz-adv-x="223" 
d="M129 0q-8 -8 -18 -8q-17 0 -17 22l-2 403q0 63 -6 87q8 8 18 8q17 0 17 -22l2 -403q0 -63 6 -87zM24 702l91 -140q-1 -3 -10 -4.5t-15 -0.5l-111 132q18 12 45 13z" />
    <glyph glyph-name="iacute" unicode="&#xed;" horiz-adv-x="223" 
d="M129 0q-8 -8 -18 -8q-17 0 -17 22l-2 403q0 63 -6 87q8 8 18 8q17 0 17 -22l2 -403q0 -63 6 -87zM107 557h-6q-17 0 -19 5l91 140q27 -1 45 -13z" />
    <glyph glyph-name="icircumflex" unicode="&#xee;" horiz-adv-x="223" 
d="M129 0q-8 -8 -18 -8q-17 0 -17 22l-2 403q0 63 -6 87q8 8 18 8q17 0 17 -22l2 -403q0 -63 6 -87zM-12.5 558q-8.5 2 -10.5 6l110 118q12 2 17 2q6 0 18 -2l110 -118q-8 -8 -24 -8l-103 92l-103 -92q-6 0 -14.5 2z" />
    <glyph glyph-name="idieresis" unicode="&#xef;" horiz-adv-x="223" 
d="M129 0q-8 -8 -18 -8q-17 0 -17 22l-2 403q0 63 -6 87q8 8 18 8q17 0 17 -22l2 -403q0 -63 6 -87zM4 597.5q-10 10.5 -10 23.5q0 14 10 24t24 10q13 0 23.5 -10t10.5 -24q0 -13 -10.5 -23.5t-23.5 -10.5q-14 0 -24 10.5zM164 597.5q-10 10.5 -10 23.5q0 14 10 24t24 10
q13 0 23.5 -10t10.5 -24q0 -13 -10.5 -23.5t-23.5 -10.5q-14 0 -24 10.5z" />
    <glyph glyph-name="eth" unicode="&#xf0;" horiz-adv-x="497" 
d="M420 475q24 -89 24 -191q0 -296 -202 -296q-112 0 -150.5 75.5t-38.5 170.5q0 74 23.5 133t70 92.5t111.5 33.5q43 0 80 -15.5t58 -44.5q-23 104 -78 175l-91 -48q-11 8 -11 22l86 46q-30 34 -64.5 52.5t-67.5 18.5l-25 -1q-4 9 3.5 19.5t16.5 10.5q99 0 171 -82l82 43
q11 -5 11 -22l-78 -41q45 -62 69 -151zM369 86.5q42 70.5 42 179.5q0 81 -35 140t-118 59q-80 0 -126.5 -59.5t-46.5 -159.5q0 -92 34.5 -161t121.5 -69q86 0 128 70.5z" />
    <glyph glyph-name="ntilde" unicode="&#xf1;" horiz-adv-x="562" 
d="M478 0q-8 -8 -18 -8q-19 0 -19 22v284q-1 95 -32.5 140.5t-101.5 45.5q-39 0 -79 -22.5t-67.5 -75.5t-27.5 -139q0 -150 1 -190t5 -57q-8 -8 -18 -8q-18 0 -18 22v418q-1 28 -7.5 39t-22.5 11q-19 0 -27 -18q-10 11 -10 22t11 17.5t29 6.5q30 0 43.5 -19.5t13.5 -59.5
v-48q21 60 70 94.5t107 34.5q161 0 161 -215v-210q2 -66 7 -87zM392 601.5q-20 -19.5 -48 -19.5q-19 0 -33 7t-31 20q-18 13 -29 18.5t-26 5.5q-20 0 -36.5 -12t-22.5 -34h-2q-7 0 -17 10q7 32 29.5 49.5t51.5 17.5q19 0 33.5 -7t30.5 -20q18 -12 29.5 -18t27.5 -6
q19 0 29.5 11.5t19.5 35.5q13 0 20 -9q-6 -30 -26 -49.5z" />
    <glyph glyph-name="ograve" unicode="&#xf2;" 
d="M109.5 57q-56.5 69 -56.5 193t56.5 193t157.5 69t157.5 -69t56.5 -193t-56.5 -193t-157.5 -69t-157.5 69zM401 78q48 62 48 172t-48 172t-134 62t-134 -62t-48 -172t48 -172t134 -62t134 62zM186 702l91 -140q-1 -3 -10 -4.5t-15 -0.5l-111 132q18 12 45 13z" />
    <glyph glyph-name="oacute" unicode="&#xf3;" 
d="M109.5 57q-56.5 69 -56.5 193t56.5 193t157.5 69t157.5 -69t56.5 -193t-56.5 -193t-157.5 -69t-157.5 69zM401 78q48 62 48 172t-48 172t-134 62t-134 -62t-48 -172t48 -172t134 -62t134 62zM269 557h-6q-17 0 -19 5l91 140q27 -1 45 -13z" />
    <glyph glyph-name="ocircumflex" unicode="&#xf4;" 
d="M109.5 57q-56.5 69 -56.5 193t56.5 193t157.5 69t157.5 -69t56.5 -193t-56.5 -193t-157.5 -69t-157.5 69zM401 78q48 62 48 172t-48 172t-134 62t-134 -62t-48 -172t48 -172t134 -62t134 62zM149.5 558q-8.5 2 -10.5 6l110 118q12 2 17 2q6 0 18 -2l110 -118
q-8 -8 -24 -8l-103 92l-103 -92q-6 0 -14.5 2z" />
    <glyph glyph-name="otilde" unicode="&#xf5;" 
d="M109.5 57q-56.5 69 -56.5 193t56.5 193t157.5 69t157.5 -69t56.5 -193t-56.5 -193t-157.5 -69t-157.5 69zM401 78q48 62 48 172t-48 172t-134 62t-134 -62t-48 -172t48 -172t134 -62t134 62zM376 601.5q-20 -19.5 -48 -19.5q-19 0 -33 7t-31 20q-18 13 -29 18.5t-26 5.5
q-20 0 -36.5 -12t-22.5 -34h-2q-7 0 -17 10q7 32 29.5 49.5t51.5 17.5q19 0 33.5 -7t30.5 -20q18 -12 29.5 -18t27.5 -6q19 0 29.5 11.5t19.5 35.5q13 0 20 -9q-6 -30 -26 -49.5z" />
    <glyph glyph-name="odieresis" unicode="&#xf6;" 
d="M109.5 57q-56.5 69 -56.5 193t56.5 193t157.5 69t157.5 -69t56.5 -193t-56.5 -193t-157.5 -69t-157.5 69zM401 78q48 62 48 172t-48 172t-134 62t-134 -62t-48 -172t48 -172t134 -62t134 62zM166 597.5q-10 10.5 -10 23.5q0 14 10 24t24 10q13 0 23.5 -10t10.5 -24
q0 -13 -10.5 -23.5t-23.5 -10.5q-14 0 -24 10.5zM326 597.5q-10 10.5 -10 23.5q0 14 10 24t24 10q13 0 23.5 -10t10.5 -24q0 -13 -10.5 -23.5t-23.5 -10.5q-14 0 -24 10.5z" />
    <glyph glyph-name="divide" unicode="&#xf7;" horiz-adv-x="557" 
d="M255.5 488.5q-10.5 10.5 -10.5 23.5q0 14 10.5 24t23.5 10q14 0 24 -10t10 -24q0 -13 -10 -23.5t-24 -10.5q-13 0 -23.5 10.5zM474 368q3 -7 3 -15q0 -7 -3 -15h-391q-3 8 -3 15q0 8 3 15h391zM255.5 170.5q-10.5 10.5 -10.5 23.5q0 14 10.5 24t23.5 10q14 0 24 -10
t10 -24q0 -13 -10 -23.5t-24 -10.5q-13 0 -23.5 10.5z" />
    <glyph glyph-name="oslash" unicode="&#xf8;" 
d="M462.5 373.5q18.5 -53.5 18.5 -123.5q0 -124 -56.5 -193t-157.5 -69q-71 0 -121 35l-19 -32q-14 1 -21 12l21 35q-74 69 -74 212q0 124 56.5 193t157.5 69q71 0 121 -35l21 35q16 0 22 -13l-23 -38q36 -34 54.5 -87.5zM100 143q15 -47 43 -77l229 385q-44 33 -105 33
q-86 0 -134 -62t-48 -172q0 -60 15 -107zM401 78q48 62 48 172q0 121 -57 183l-230 -384q44 -33 105 -33q86 0 134 62z" />
    <glyph glyph-name="ugrave" unicode="&#xf9;" horiz-adv-x="551" 
d="M515 18q0 -11 -11 -17.5t-29 -6.5q-30 0 -43.5 19.5t-13.5 59.5v46q-21 -61 -69 -96t-104 -35q-81 0 -117.5 49.5t-37.5 169.5l-1 210q0 63 -6 87q8 8 18 8q17 0 17 -22l1 -284q0 -73 13 -114.5t41 -58.5t75 -17q38 0 77 22.5t66 76.5t27 142q0 150 -1 190t-5 57
q8 8 18 8q17 0 17 -22l1 -418q0 -28 6.5 -39t23.5 -11q19 0 27 18q10 -11 10 -22zM184 702l91 -140q-1 -3 -10 -4.5t-15 -0.5l-111 132q18 12 45 13z" />
    <glyph glyph-name="uacute" unicode="&#xfa;" horiz-adv-x="551" 
d="M515 18q0 -11 -11 -17.5t-29 -6.5q-30 0 -43.5 19.5t-13.5 59.5v46q-21 -61 -69 -96t-104 -35q-81 0 -117.5 49.5t-37.5 169.5l-1 210q0 63 -6 87q8 8 18 8q17 0 17 -22l1 -284q0 -73 13 -114.5t41 -58.5t75 -17q38 0 77 22.5t66 76.5t27 142q0 150 -1 190t-5 57
q8 8 18 8q17 0 17 -22l1 -418q0 -28 6.5 -39t23.5 -11q19 0 27 18q10 -11 10 -22zM267 557h-6q-17 0 -19 5l91 140q27 -1 45 -13z" />
    <glyph glyph-name="ucircumflex" unicode="&#xfb;" horiz-adv-x="551" 
d="M515 18q0 -11 -11 -17.5t-29 -6.5q-30 0 -43.5 19.5t-13.5 59.5v46q-21 -61 -69 -96t-104 -35q-81 0 -117.5 49.5t-37.5 169.5l-1 210q0 63 -6 87q8 8 18 8q17 0 17 -22l1 -284q0 -73 13 -114.5t41 -58.5t75 -17q38 0 77 22.5t66 76.5t27 142q0 150 -1 190t-5 57
q8 8 18 8q17 0 17 -22l1 -418q0 -28 6.5 -39t23.5 -11q19 0 27 18q10 -11 10 -22zM147.5 558q-8.5 2 -10.5 6l110 118q12 2 17 2q6 0 18 -2l110 -118q-8 -8 -24 -8l-103 92l-103 -92q-6 0 -14.5 2z" />
    <glyph glyph-name="udieresis" unicode="&#xfc;" horiz-adv-x="551" 
d="M515 18q0 -11 -11 -17.5t-29 -6.5q-30 0 -43.5 19.5t-13.5 59.5v46q-21 -61 -69 -96t-104 -35q-81 0 -117.5 49.5t-37.5 169.5l-1 210q0 63 -6 87q8 8 18 8q17 0 17 -22l1 -284q0 -73 13 -114.5t41 -58.5t75 -17q38 0 77 22.5t66 76.5t27 142q0 150 -1 190t-5 57
q8 8 18 8q17 0 17 -22l1 -418q0 -28 6.5 -39t23.5 -11q19 0 27 18q10 -11 10 -22zM164 597.5q-10 10.5 -10 23.5q0 14 10 24t24 10q13 0 23.5 -10t10.5 -24q0 -13 -10.5 -23.5t-23.5 -10.5q-14 0 -24 10.5zM324 597.5q-10 10.5 -10 23.5q0 14 10 24t24 10q13 0 23.5 -10
t10.5 -24q0 -13 -10.5 -23.5t-23.5 -10.5q-14 0 -24 10.5z" />
    <glyph glyph-name="yacute" unicode="&#xfd;" horiz-adv-x="536" 
d="M449 46q0 -286 -214 -286q-61 0 -106.5 27.5t-45.5 82.5q0 25 8.5 42t22.5 17q12 0 18 -9q-20 -11 -20 -43q0 -48 36.5 -68.5t84.5 -20.5q98 0 141.5 65t43.5 209v65q-20 -64 -68 -100.5t-114 -36.5q-73 0 -109 50t-37 167l-1 210q0 63 -6 87q8 8 18 8q17 0 17 -22
l1 -284q0 -101 28 -144.5t90 -43.5q74 0 127.5 57.5t53.5 191.5q0 144 -1 182.5t-5 54.5q8 8 18 8q17 0 17 -22zM278 557h-6q-17 0 -19 5l91 140q27 -1 45 -13z" />
    <glyph glyph-name="thorn" unicode="&#xfe;" horiz-adv-x="539" 
d="M452.5 440q33.5 -72 33.5 -162q0 -134 -53 -210.5t-153 -76.5q-57 0 -96 25t-56 70v-192q0 -33 2 -68.5t4 -45.5q-8 -8 -18 -8q-19 0 -19 22v912q0 22 19 22q10 0 18 -8q-5 -18 -6 -80v-278q26 67 73.5 108.5t118.5 41.5q99 0 132.5 -72zM407.5 83.5
q46.5 64.5 46.5 192.5q0 82 -27 145t-109 63q-56 0 -99.5 -34.5t-67 -96t-23.5 -139.5q0 -82 32.5 -138.5t116.5 -56.5t130.5 64.5z" />
    <glyph glyph-name="ydieresis" unicode="&#xff;" horiz-adv-x="536" 
d="M449 46q0 -286 -214 -286q-61 0 -106.5 27.5t-45.5 82.5q0 25 8.5 42t22.5 17q12 0 18 -9q-20 -11 -20 -43q0 -48 36.5 -68.5t84.5 -20.5q98 0 141.5 65t43.5 209v65q-20 -64 -68 -100.5t-114 -36.5q-73 0 -109 50t-37 167l-1 210q0 63 -6 87q8 8 18 8q17 0 17 -22
l1 -284q0 -101 28 -144.5t90 -43.5q74 0 127.5 57.5t53.5 191.5q0 144 -1 182.5t-5 54.5q8 8 18 8q17 0 17 -22zM175 597.5q-10 10.5 -10 23.5q0 14 10 24t24 10q13 0 23.5 -10t10.5 -24q0 -13 -10.5 -23.5t-23.5 -10.5q-14 0 -24 10.5zM335 597.5q-10 10.5 -10 23.5
q0 14 10 24t24 10q13 0 23.5 -10t10.5 -24q0 -13 -10.5 -23.5t-23.5 -10.5q-14 0 -24 10.5z" />
    <glyph glyph-name="Amacron" unicode="&#x100;" horiz-adv-x="562" 
d="M547 1q-8 -9 -17 -9q-8 0 -14 3.5t-8 10.5l-78 228h-296l-70 -205q-5 -12 -5 -21q0 -10 2 -14q-6 -2 -16 -2q-8 0 -13.5 5t-4.5 13q0 5 2.5 13t3.5 11l227 658q11 8 22 8q19 0 25 -17l224 -652q8 -20 16 -30zM421 260l-140 408l-139 -408h279zM397 796q3 -7 3 -15
q0 -7 -3 -15h-235q-3 8 -3 15q0 8 3 15h235z" />
    <glyph glyph-name="amacron" unicode="&#x101;" 
d="M521 24q0 -15 -15 -24.5t-33 -9.5q-34 0 -50.5 22t-16.5 61v87q-37 -81 -101 -126.5t-132 -45.5q-58 0 -88 31.5t-30 82.5q0 54 39.5 95t117.5 62q60 16 136 16q30 0 58 -3v26q0 94 -39.5 140t-125.5 46q-55 0 -95.5 -19.5t-40.5 -67.5q0 -22 13 -42.5t37 -26.5
q-5 -9 -13 -12.5t-14 -3.5q-21 0 -36.5 26.5t-15.5 56.5q0 58 45.5 87.5t125.5 29.5q189 0 189 -214v-227q0 -53 38 -53q10 0 21 7.5t17 19.5q9 -10 9 -21zM281.5 50q52.5 35 88 90t36.5 111q-10 1 -34 1q-39 0 -83 -5.5t-75 -14.5q-127 -38 -127 -128q0 -38 22 -63.5
t70 -25.5q50 0 102.5 35zM370 627q3 -6 3 -14q0 -6 -3 -14h-235q-3 8 -3 14q0 8 3 14h235z" />
    <glyph glyph-name="Abreve" unicode="&#x102;" horiz-adv-x="562" 
d="M547 1q-8 -9 -17 -9q-8 0 -14 3.5t-8 10.5l-78 228h-296l-70 -205q-5 -12 -5 -21q0 -10 2 -14q-6 -2 -16 -2q-8 0 -13.5 5t-4.5 13q0 5 2.5 13t3.5 11l227 658q11 8 22 8q19 0 25 -17l224 -652q8 -20 16 -30zM421 260l-140 408l-139 -408h279zM351.5 749.5
q-31.5 -21.5 -73.5 -21.5t-71.5 21t-46.5 54l28 16q14 -27 38 -43t58 -16q60 0 91 58l26 -11q-18 -36 -49.5 -57.5z" />
    <glyph glyph-name="abreve" unicode="&#x103;" 
d="M521 24q0 -15 -15 -24.5t-33 -9.5q-34 0 -50.5 22t-16.5 61v87q-37 -81 -101 -126.5t-132 -45.5q-58 0 -88 31.5t-30 82.5q0 54 39.5 95t117.5 62q60 16 136 16q30 0 58 -3v26q0 94 -39.5 140t-125.5 46q-55 0 -95.5 -19.5t-40.5 -67.5q0 -22 13 -42.5t37 -26.5
q-5 -9 -13 -12.5t-14 -3.5q-21 0 -36.5 26.5t-15.5 56.5q0 58 45.5 87.5t125.5 29.5q189 0 189 -214v-227q0 -53 38 -53q10 0 21 7.5t17 19.5q9 -10 9 -21zM281.5 50q52.5 35 88 90t36.5 111q-10 1 -34 1q-39 0 -83 -5.5t-75 -14.5q-127 -38 -127 -128q0 -38 22 -63.5
t70 -25.5q50 0 102.5 35zM323 616.5q24 24.5 35 54.5q18 -2 27 -5q-11 -44 -46.5 -74t-85.5 -30q-60 0 -95 32t-44 68q11 8 26 11q12 -30 39.5 -55.5t73.5 -25.5t70 24.5z" />
    <glyph glyph-name="Aogonek" unicode="&#x104;" horiz-adv-x="562" 
d="M601 -115q-13 -28 -38.5 -42.5t-55.5 -14.5q-34 0 -57.5 19t-23.5 55q0 35 23.5 60t60.5 40l-2 4l-78 228h-296l-70 -205q-5 -12 -5 -21q0 -10 2 -14q-6 -2 -16 -2q-8 0 -13.5 5t-4.5 13q0 5 2.5 13t3.5 11l227 658q11 8 22 8q19 0 25 -17l224 -652q8 -20 16 -30
q-6 -6 -8 -7q-42 -19 -61.5 -39t-19.5 -49q0 -25 13.5 -39.5t39.5 -14.5q28 0 50 16t33 35q10 -7 7 -18zM421 260l-140 408l-139 -408h279z" />
    <glyph glyph-name="aogonek" unicode="&#x105;" 
d="M559 -114q-13 -28 -38.5 -42.5t-55.5 -14.5q-34 0 -57.5 19t-23.5 55q0 30 17.5 52.5t46.5 38.5q-42 14 -42 79v87q-37 -81 -101 -126.5t-132 -45.5q-58 0 -88 31.5t-30 82.5q0 54 39.5 95t117.5 62q60 16 136 16q30 0 58 -3v26q0 94 -39.5 140t-125.5 46
q-55 0 -95.5 -19.5t-40.5 -67.5q0 -22 13 -42.5t37 -26.5q-5 -9 -13 -12.5t-14 -3.5q-21 0 -36.5 26.5t-15.5 56.5q0 58 45.5 87.5t125.5 29.5q189 0 189 -214v-227q0 -53 38 -53q10 0 21 7.5t17 19.5q9 -10 9 -21t-8 -19t-20 -12q-39 -19 -58 -38.5t-19 -47.5
q0 -25 13.5 -39.5t39.5 -14.5q28 0 50 16t33 35q10 -7 7 -18zM281.5 50q52.5 35 88 90t36.5 111q-10 1 -34 1q-39 0 -83 -5.5t-75 -14.5q-127 -38 -127 -128q0 -38 22 -63.5t70 -25.5q50 0 102.5 35z" />
    <glyph glyph-name="Cacute" unicode="&#x106;" horiz-adv-x="576" 
d="M135 79q-65 91 -65 265t65 265t184 91q50 0 90.5 -12.5t63 -32t22.5 -38.5q0 -8 -8 -13t-17 -1q-9 31 -49.5 50t-101.5 19q-103 0 -160 -84t-57 -244t57 -244t160 -84q58 0 109 27t64 71q11 0 17.5 -3t6.5 -12q0 -23 -27 -49t-72.5 -44t-97.5 -18q-119 0 -184 91z
M309 727q-4 2 -8 7.5t-5 10.5l129 97q24 -12 34 -32z" />
    <glyph glyph-name="cacute" unicode="&#x107;" horiz-adv-x="499" 
d="M109.5 53q-56.5 65 -56.5 190t59 197t165 72q72 0 114.5 -33.5t42.5 -91.5q0 -30 -12 -49t-31 -19q-17 0 -26 16q18 0 27.5 14.5t9.5 37.5q0 48 -38 73.5t-92 25.5q-84 0 -135.5 -61t-51.5 -178q0 -122 52.5 -176t130.5 -54q59 0 102.5 28.5t56.5 89.5q14 -5 14 -19
q0 -9 -6 -24q-18 -52 -62.5 -78t-107.5 -26q-99 0 -155.5 65zM273 557h-6q-17 0 -19 5l91 140q27 -1 45 -13z" />
    <glyph glyph-name="Ccircumflex" unicode="&#x108;" horiz-adv-x="576" 
d="M135 79q-65 91 -65 265t65 265t184 91q50 0 90.5 -12.5t63 -32t22.5 -38.5q0 -8 -8 -13t-17 -1q-9 31 -49.5 50t-101.5 19q-103 0 -160 -84t-57 -244t57 -244t160 -84q58 0 109 27t64 71q11 0 17.5 -3t6.5 -12q0 -23 -27 -49t-72.5 -44t-97.5 -18q-119 0 -184 91z
M451 743q-5 -11 -16 -16l-116 78l-117 -78q-11 5 -16 16l115 97q12 2 17 2q6 0 18 -2z" />
    <glyph glyph-name="ccircumflex" unicode="&#x109;" horiz-adv-x="499" 
d="M109.5 53q-56.5 65 -56.5 190t59 197t165 72q72 0 114.5 -33.5t42.5 -91.5q0 -30 -12 -49t-31 -19q-17 0 -26 16q18 0 27.5 14.5t9.5 37.5q0 48 -38 73.5t-92 25.5q-84 0 -135.5 -61t-51.5 -178q0 -122 52.5 -176t130.5 -54q59 0 102.5 28.5t56.5 89.5q14 -5 14 -19
q0 -9 -6 -24q-18 -52 -62.5 -78t-107.5 -26q-99 0 -155.5 65zM153.5 558q-8.5 2 -10.5 6l110 118q12 2 17 2q6 0 18 -2l110 -118q-8 -8 -24 -8l-103 92l-103 -92q-6 0 -14.5 2z" />
    <glyph glyph-name="Cdotaccent" unicode="&#x10a;" horiz-adv-x="576" 
d="M135 79q-65 91 -65 265t65 265t184 91q50 0 90.5 -12.5t63 -32t22.5 -38.5q0 -8 -8 -13t-17 -1q-9 31 -49.5 50t-101.5 19q-103 0 -160 -84t-57 -244t57 -244t160 -84q58 0 109 27t64 71q11 0 17.5 -3t6.5 -12q0 -23 -27 -49t-72.5 -44t-97.5 -18q-119 0 -184 91z
M295 762.5q-10 10.5 -10 23.5q0 14 10 24t24 10q13 0 23.5 -10t10.5 -24q0 -13 -10.5 -23.5t-23.5 -10.5q-14 0 -24 10.5z" />
    <glyph glyph-name="cdotaccent" unicode="&#x10b;" horiz-adv-x="499" 
d="M109.5 53q-56.5 65 -56.5 190t59 197t165 72q72 0 114.5 -33.5t42.5 -91.5q0 -30 -12 -49t-31 -19q-17 0 -26 16q18 0 27.5 14.5t9.5 37.5q0 48 -38 73.5t-92 25.5q-84 0 -135.5 -61t-51.5 -178q0 -122 52.5 -176t130.5 -54q59 0 102.5 28.5t56.5 89.5q14 -5 14 -19
q0 -9 -6 -24q-18 -52 -62.5 -78t-107.5 -26q-99 0 -155.5 65zM245 583.5q-10 10.5 -10 23.5q0 14 10 24t24 10q13 0 23.5 -10t10.5 -24q0 -13 -10.5 -23.5t-23.5 -10.5q-14 0 -24 10.5z" />
    <glyph glyph-name="Ccaron" unicode="&#x10c;" horiz-adv-x="576" 
d="M135 79q-65 91 -65 265t65 265t184 91q50 0 90.5 -12.5t63 -32t22.5 -38.5q0 -8 -8 -13t-17 -1q-9 31 -49.5 50t-101.5 19q-103 0 -160 -84t-57 -244t57 -244t160 -84q58 0 109 27t64 71q11 0 17.5 -3t6.5 -12q0 -23 -27 -49t-72.5 -44t-97.5 -18q-119 0 -184 91z
M317 730q-11 0 -17 1l-115 97q5 11 16 16l117 -78l116 78q11 -5 16 -16l-115 -97q-6 -1 -18 -1z" />
    <glyph glyph-name="ccaron" unicode="&#x10d;" horiz-adv-x="499" 
d="M109.5 53q-56.5 65 -56.5 190t59 197t165 72q72 0 114.5 -33.5t42.5 -91.5q0 -30 -12 -49t-31 -19q-17 0 -26 16q18 0 27.5 14.5t9.5 37.5q0 48 -38 73.5t-92 25.5q-84 0 -135.5 -61t-51.5 -178q0 -122 52.5 -176t130.5 -54q59 0 102.5 28.5t56.5 89.5q14 -5 14 -19
q0 -9 -6 -24q-18 -52 -62.5 -78t-107.5 -26q-99 0 -155.5 65zM272 595l103 92q16 0 24 -8l-110 -118q-6 -1 -18 -1q-11 0 -17 1l-110 118q2 4 10.5 6t14.5 2z" />
    <glyph glyph-name="Dcaron" unicode="&#x10e;" horiz-adv-x="629" 
d="M109 22l-2 578q0 71 -6 95q87 5 194 5q128 0 196 -88t68 -268q0 -178 -67 -261t-197 -83h-169q-17 0 -17 22zM295 28q113 0 172.5 76t59.5 240q0 166 -60 247t-172 81h-159l2 -644h157zM301 730q-11 0 -17 1l-115 97q5 11 16 16l117 -78l116 78q11 -5 16 -16l-115 -97
q-6 -1 -18 -1z" />
    <glyph glyph-name="dcaron" unicode="&#x10f;" horiz-adv-x="561" 
d="M498 39q10 -11 10 -22t-11 -17.5t-29 -6.5q-57 0 -57 80v65q-26 -67 -73.5 -108.5t-118.5 -41.5q-100 0 -133 72t-33 162q0 136 53 213t153 77q57 0 96 -25.5t56 -72.5l-1 214q0 72 -5 92q8 8 18 8q19 0 19 -22l-1 -635q0 -50 30 -50q19 0 27 18zM546 694q0 -47 -7 -88
h-22q1 11 1 34q0 42 -7 83q6 2 17 2q12 0 17 -2q1 -10 1 -29zM320.5 50.5q43.5 34.5 67 96t23.5 139.5q0 82 -35.5 140t-122.5 58q-78 0 -123 -65.5t-45 -194.5q0 -82 27 -145t109 -63q56 0 99.5 34.5z" />
    <glyph glyph-name="Dcroat" unicode="&#x110;" horiz-adv-x="619" 
d="M491 612q68 -88 68 -268q0 -178 -67 -261t-197 -83h-169q-17 0 -17 22l-1 314h-81q-3 6 -3 13q0 6 3 12h81l-1 239q0 71 -6 95q87 5 194 5q128 0 196 -88zM467.5 104q59.5 76 59.5 240q0 166 -60 247t-172 81h-159l1 -311h173q3 -6 3 -12q0 -7 -3 -13h-173l1 -308h157
q113 0 172.5 76z" />
    <glyph glyph-name="dcroat" unicode="&#x111;" horiz-adv-x="548" 
d="M442 588l-1 -517q0 -50 30 -50q19 0 27 18q10 -11 10 -22t-11 -17.5t-29 -6.5q-57 0 -57 80v65q-26 -67 -73.5 -108.5t-118.5 -41.5q-100 0 -133 72t-33 162q0 136 53 213t153 77q57 0 96 -25.5t56 -72.5l-1 174h-121q-3 6 -3 13q0 6 3 12h121v15q0 72 -5 92q8 8 18 8
q19 0 19 -22v-93h76q3 -6 3 -12q0 -7 -3 -13h-76zM320.5 50.5q43.5 34.5 67 96t23.5 139.5q0 82 -35.5 140t-122.5 58q-78 0 -123 -65.5t-45 -194.5q0 -82 27 -145t109 -63q56 0 99.5 34.5z" />
    <glyph glyph-name="Emacron" unicode="&#x112;" horiz-adv-x="523" 
d="M449 20.5q2 -4.5 2 -9.5q0 -11 -8 -11h-317q-17 0 -17 22l-2 578q0 56 -6 80q6 8 18 8h314q8 0 8 -9q0 -5 -3.5 -10.5t-7.5 -6.5h-294l1 -282h274q2 -4 2 -13q0 -8 -2 -13h-274l1 -329l305 1q4 -1 6 -5.5zM393 796q3 -7 3 -15q0 -7 -3 -15h-235q-3 8 -3 15q0 8 3 15h235z
" />
    <glyph glyph-name="emacron" unicode="&#x113;" horiz-adv-x="497" 
d="M441 95q0 -8 -6 -23q-18 -41 -63 -62.5t-104 -21.5q-102 0 -158.5 65t-56.5 190q0 126 57.5 197.5t165.5 71.5q75 0 118.5 -36t43.5 -101q0 -75 -60.5 -113t-176.5 -38q-52 0 -116 10q3 -115 55 -166t131 -51q57 0 100 24.5t56 73.5q14 -5 14 -20zM139 428
q-51 -57 -54 -169q63 -10 128 -10q95 0 144.5 31.5t49.5 94.5q0 58 -38.5 84t-94.5 26q-84 0 -135 -57zM385 627q3 -6 3 -14q0 -6 -3 -14h-235q-3 8 -3 14q0 8 3 14h235z" />
    <glyph glyph-name="Ebreve" unicode="&#x114;" horiz-adv-x="523" 
d="M449 20.5q2 -4.5 2 -9.5q0 -11 -8 -11h-317q-17 0 -17 22l-2 578q0 56 -6 80q6 8 18 8h314q8 0 8 -9q0 -5 -3.5 -10.5t-7.5 -6.5h-294l1 -282h274q2 -4 2 -13q0 -8 -2 -13h-274l1 -329l305 1q4 -1 6 -5.5zM347.5 749.5q-31.5 -21.5 -73.5 -21.5t-71.5 21t-46.5 54l28 16
q14 -27 38 -43t58 -16q60 0 91 58l26 -11q-18 -36 -49.5 -57.5z" />
    <glyph glyph-name="ebreve" unicode="&#x115;" horiz-adv-x="497" 
d="M441 95q0 -8 -6 -23q-18 -41 -63 -62.5t-104 -21.5q-102 0 -158.5 65t-56.5 190q0 126 57.5 197.5t165.5 71.5q75 0 118.5 -36t43.5 -101q0 -75 -60.5 -113t-176.5 -38q-52 0 -116 10q3 -115 55 -166t131 -51q57 0 100 24.5t56 73.5q14 -5 14 -20zM139 428
q-51 -57 -54 -169q63 -10 128 -10q95 0 144.5 31.5t49.5 94.5q0 58 -38.5 84t-94.5 26q-84 0 -135 -57zM338 616.5q24 24.5 35 54.5q18 -2 27 -5q-11 -44 -46.5 -74t-85.5 -30q-60 0 -95 32t-44 68q11 8 26 11q12 -30 39.5 -55.5t73.5 -25.5t70 24.5z" />
    <glyph glyph-name="Edotaccent" unicode="&#x116;" horiz-adv-x="523" 
d="M449 20.5q2 -4.5 2 -9.5q0 -11 -8 -11h-317q-17 0 -17 22l-2 578q0 56 -6 80q6 8 18 8h314q8 0 8 -9q0 -5 -3.5 -10.5t-7.5 -6.5h-294l1 -282h274q2 -4 2 -13q0 -8 -2 -13h-274l1 -329l305 1q4 -1 6 -5.5zM252 762.5q-10 10.5 -10 23.5q0 14 10 24t24 10q13 0 23.5 -10
t10.5 -24q0 -13 -10.5 -23.5t-23.5 -10.5q-14 0 -24 10.5z" />
    <glyph glyph-name="edotaccent" unicode="&#x117;" horiz-adv-x="497" 
d="M441 95q0 -8 -6 -23q-18 -41 -63 -62.5t-104 -21.5q-102 0 -158.5 65t-56.5 190q0 126 57.5 197.5t165.5 71.5q75 0 118.5 -36t43.5 -101q0 -75 -60.5 -113t-176.5 -38q-52 0 -116 10q3 -115 55 -166t131 -51q57 0 100 24.5t56 73.5q14 -5 14 -20zM139 428
q-51 -57 -54 -169q63 -10 128 -10q95 0 144.5 31.5t49.5 94.5q0 58 -38.5 84t-94.5 26q-84 0 -135 -57zM242 583.5q-10 10.5 -10 23.5q0 14 10 24t24 10q13 0 23.5 -10t10.5 -24q0 -13 -10.5 -23.5t-23.5 -10.5q-14 0 -24 10.5z" />
    <glyph glyph-name="Eogonek" unicode="&#x118;" horiz-adv-x="523" 
d="M458 -109q-13 -28 -38.5 -42.5t-55.5 -14.5q-34 0 -57.5 19t-23.5 55q0 58 67 92h-224q-17 0 -17 22l-2 578q0 56 -6 80q6 8 18 8h314q8 0 8 -9q0 -5 -3.5 -10.5t-7.5 -6.5h-294l1 -282h274q2 -4 2 -13q0 -8 -2 -13h-274l1 -329l305 1q4 -1 6 -5.5t2 -9.5q0 -11 -8 -11
h-47q-42 -19 -61.5 -39t-19.5 -49q0 -25 13.5 -39.5t39.5 -14.5q28 0 50 16t33 35q10 -7 7 -18z" />
    <glyph glyph-name="eogonek" unicode="&#x119;" horiz-adv-x="497" 
d="M445 -94q-13 -28 -38.5 -42.5t-55.5 -14.5q-34 0 -57.5 19t-23.5 55q0 37 30 67q-20 -2 -32 -2q-102 0 -158.5 65t-56.5 190q0 126 57.5 197.5t165.5 71.5q75 0 118.5 -36t43.5 -101q0 -75 -60.5 -113t-176.5 -38q-52 0 -116 10q3 -115 55 -166t131 -51q57 0 100 24.5
t56 73.5q14 -5 14 -20q0 -8 -6 -23q-16 -35 -52 -57l-2 -1l-18 -9q-31 -16 -46 -34t-15 -44q0 -25 13.5 -39.5t39.5 -14.5q28 0 50 16t33 35q10 -7 7 -18zM139 428q-51 -57 -54 -169q63 -10 128 -10q95 0 144.5 31.5t49.5 94.5q0 58 -38.5 84t-94.5 26q-84 0 -135 -57z" />
    <glyph glyph-name="Ecaron" unicode="&#x11a;" horiz-adv-x="523" 
d="M449 20.5q2 -4.5 2 -9.5q0 -11 -8 -11h-317q-17 0 -17 22l-2 578q0 56 -6 80q6 8 18 8h314q8 0 8 -9q0 -5 -3.5 -10.5t-7.5 -6.5h-294l1 -282h274q2 -4 2 -13q0 -8 -2 -13h-274l1 -329l305 1q4 -1 6 -5.5zM274 730q-11 0 -17 1l-115 97q5 11 16 16l117 -78l116 78
q11 -5 16 -16l-115 -97q-6 -1 -18 -1z" />
    <glyph glyph-name="ecaron" unicode="&#x11b;" horiz-adv-x="497" 
d="M441 95q0 -8 -6 -23q-18 -41 -63 -62.5t-104 -21.5q-102 0 -158.5 65t-56.5 190q0 126 57.5 197.5t165.5 71.5q75 0 118.5 -36t43.5 -101q0 -75 -60.5 -113t-176.5 -38q-52 0 -116 10q3 -115 55 -166t131 -51q57 0 100 24.5t56 73.5q14 -5 14 -20zM139 428
q-51 -57 -54 -169q63 -10 128 -10q95 0 144.5 31.5t49.5 94.5q0 58 -38.5 84t-94.5 26q-84 0 -135 -57zM269 595l103 92q16 0 24 -8l-110 -118q-6 -1 -18 -1q-11 0 -17 1l-110 118q2 4 10.5 6t14.5 2z" />
    <glyph glyph-name="Gcircumflex" unicode="&#x11c;" horiz-adv-x="599" 
d="M135.5 78q-65.5 90 -65.5 265t65 266t187 91q48 0 87.5 -12.5t62.5 -32t23 -36.5q0 -8 -5 -13t-12 -5l-8 2q-8 30 -49.5 49.5t-96.5 19.5q-108 0 -165 -83.5t-57 -244.5q0 -162 57 -245t167 -83q104 0 140.5 62t36.5 142q0 72 -23 105.5t-64 33.5q-1 21 27 21
q37 0 64 -37.5t27 -124.5t-41.5 -158.5t-165.5 -71.5q-126 0 -191.5 90zM454 743q-5 -11 -16 -16l-116 78l-117 -78q-11 5 -16 16l115 97q12 2 17 2q6 0 18 -2z" />
    <glyph glyph-name="gcircumflex" unicode="&#x11d;" horiz-adv-x="529" 
d="M99.5 -207.5q-43.5 32.5 -43.5 91.5q0 29 11 47t25 18q13 0 19 -9q-26 -15 -26 -53q0 -51 35.5 -75t89.5 -24q106 0 153.5 66t47.5 208v63q-20 -63 -68 -99t-114 -36q-86 0 -131 63.5t-45 193.5q0 104 43 184.5t170 80.5q49 0 97 -14t79 -52v-400q0 -286 -234 -286
q-65 0 -108.5 32.5zM337 55q40 37 57 89.5t17 102.5l1 186q-20 25 -61.5 38t-93.5 13q-101 0 -136.5 -72.5t-35.5 -166.5q0 -227 146 -227q66 0 106 37zM147.5 558q-8.5 2 -10.5 6l110 118q12 2 17 2q6 0 18 -2l110 -118q-8 -8 -24 -8l-103 92l-103 -92q-6 0 -14.5 2z" />
    <glyph glyph-name="Gbreve" unicode="&#x11e;" horiz-adv-x="599" 
d="M135.5 78q-65.5 90 -65.5 265t65 266t187 91q48 0 87.5 -12.5t62.5 -32t23 -36.5q0 -8 -5 -13t-12 -5l-8 2q-8 30 -49.5 49.5t-96.5 19.5q-108 0 -165 -83.5t-57 -244.5q0 -162 57 -245t167 -83q104 0 140.5 62t36.5 142q0 72 -23 105.5t-64 33.5q-1 21 27 21
q37 0 64 -37.5t27 -124.5t-41.5 -158.5t-165.5 -71.5q-126 0 -191.5 90zM393.5 749.5q-31.5 -21.5 -73.5 -21.5t-71.5 21t-46.5 54l28 16q14 -27 38 -43t58 -16q60 0 91 58l26 -11q-18 -36 -49.5 -57.5z" />
    <glyph glyph-name="gbreve" unicode="&#x11f;" horiz-adv-x="529" 
d="M99.5 -207.5q-43.5 32.5 -43.5 91.5q0 29 11 47t25 18q13 0 19 -9q-26 -15 -26 -53q0 -51 35.5 -75t89.5 -24q106 0 153.5 66t47.5 208v63q-20 -63 -68 -99t-114 -36q-86 0 -131 63.5t-45 193.5q0 104 43 184.5t170 80.5q49 0 97 -14t79 -52v-400q0 -286 -234 -286
q-65 0 -108.5 32.5zM337 55q40 37 57 89.5t17 102.5l1 186q-20 25 -61.5 38t-93.5 13q-101 0 -136.5 -72.5t-35.5 -166.5q0 -227 146 -227q66 0 106 37zM335 616.5q24 24.5 35 54.5q18 -2 27 -5q-11 -44 -46.5 -74t-85.5 -30q-60 0 -95 32t-44 68q11 8 26 11
q12 -30 39.5 -55.5t73.5 -25.5t70 24.5z" />
    <glyph glyph-name="Gdotaccent" unicode="&#x120;" horiz-adv-x="599" 
d="M135.5 78q-65.5 90 -65.5 265t65 266t187 91q48 0 87.5 -12.5t62.5 -32t23 -36.5q0 -8 -5 -13t-12 -5l-8 2q-8 30 -49.5 49.5t-96.5 19.5q-108 0 -165 -83.5t-57 -244.5q0 -162 57 -245t167 -83q104 0 140.5 62t36.5 142q0 72 -23 105.5t-64 33.5q-1 21 27 21
q37 0 64 -37.5t27 -124.5t-41.5 -158.5t-165.5 -71.5q-126 0 -191.5 90zM298 762.5q-10 10.5 -10 23.5q0 14 10 24t24 10q13 0 23.5 -10t10.5 -24q0 -13 -10.5 -23.5t-23.5 -10.5q-14 0 -24 10.5z" />
    <glyph glyph-name="gdotaccent" unicode="&#x121;" horiz-adv-x="529" 
d="M99.5 -207.5q-43.5 32.5 -43.5 91.5q0 29 11 47t25 18q13 0 19 -9q-26 -15 -26 -53q0 -51 35.5 -75t89.5 -24q106 0 153.5 66t47.5 208v63q-20 -63 -68 -99t-114 -36q-86 0 -131 63.5t-45 193.5q0 104 43 184.5t170 80.5q49 0 97 -14t79 -52v-400q0 -286 -234 -286
q-65 0 -108.5 32.5zM337 55q40 37 57 89.5t17 102.5l1 186q-20 25 -61.5 38t-93.5 13q-101 0 -136.5 -72.5t-35.5 -166.5q0 -227 146 -227q66 0 106 37zM239 583.5q-10 10.5 -10 23.5q0 14 10 24t24 10q13 0 23.5 -10t10.5 -24q0 -13 -10.5 -23.5t-23.5 -10.5
q-14 0 -24 10.5z" />
    <glyph glyph-name="Gcommaaccent" unicode="&#x122;" horiz-adv-x="599" 
d="M135.5 78q-65.5 90 -65.5 265t65 266t187 91q48 0 87.5 -12.5t62.5 -32t23 -36.5q0 -8 -5 -13t-12 -5l-8 2q-8 30 -49.5 49.5t-96.5 19.5q-108 0 -165 -83.5t-57 -244.5q0 -162 57 -245t167 -83q104 0 140.5 62t36.5 142q0 72 -23 105.5t-64 33.5q-1 21 27 21
q37 0 64 -37.5t27 -124.5t-41.5 -158.5t-165.5 -71.5q-126 0 -191.5 90zM292 -166q26 27 26 57q0 17 -7 26.5t-20 14.5q0 10 9.5 22t27.5 12q15 0 27 -10t12 -37q0 -53 -57 -99q-12 4 -18 14z" />
    <glyph glyph-name="gcommaaccent" unicode="&#x123;" horiz-adv-x="529" 
d="M296 688q-25 -40 -25 -71q0 -14 4 -19t16 -7q0 -9 -8 -18t-20 -9q-13 0 -22.5 9t-9.5 30q0 42 49 96q11 -3 16 -11zM99.5 -207.5q-43.5 32.5 -43.5 91.5q0 29 11 47t25 18q13 0 19 -9q-26 -15 -26 -53q0 -51 35.5 -75t89.5 -24q106 0 153.5 66t47.5 208v63
q-20 -63 -68 -99t-114 -36q-86 0 -131 63.5t-45 193.5q0 104 43 184.5t170 80.5q49 0 97 -14t79 -52v-400q0 -286 -234 -286q-65 0 -108.5 32.5zM337 55q40 37 57 89.5t17 102.5l1 186q-20 25 -61.5 38t-93.5 13q-101 0 -136.5 -72.5t-35.5 -166.5q0 -227 146 -227
q66 0 106 37z" />
    <glyph glyph-name="Hcircumflex" unicode="&#x124;" horiz-adv-x="662" 
d="M561 0q-8 -8 -18 -8q-17 0 -17 22l-1 340h-387v-267q0 -63 6 -87q-8 -8 -18 -8q-17 0 -17 22l-2 586q0 63 -6 87q8 8 18 8q8 0 13.5 -6t5.5 -16v-293h387l-1 220q0 63 -6 87q8 8 18 8q8 0 13.5 -6t5.5 -16v-586q0 -63 6 -87zM463 743q-5 -11 -16 -16l-116 78l-117 -78
q-11 5 -16 16l115 97q12 2 17 2q6 0 18 -2z" />
    <glyph glyph-name="hcircumflex" unicode="&#x125;" horiz-adv-x="554" 
d="M470 0q-8 -8 -18 -8q-17 0 -17 22l-1 284q0 95 -31.5 140.5t-101.5 45.5q-39 0 -79 -22.5t-67.5 -75.5t-27.5 -139q0 -150 1 -190t5 -57q-8 -8 -18 -8q-17 0 -17 22l-1 692q0 22 19 22q10 0 18 -8q-5 -18 -6 -80l-1 -257q21 60 70 94.5t107 34.5q159 0 159 -215l1 -210
q0 -63 6 -87zM-1.5 726q-8.5 2 -10.5 6l110 118q12 2 18 2q5 0 17 -2l110 -118q-8 -8 -24 -8l-103 92l-103 -92q-6 0 -14.5 2z" />
    <glyph glyph-name="Hbar" unicode="&#x126;" horiz-adv-x="662" 
d="M555 553v-466q0 -63 6 -87q-8 -8 -18 -8q-17 0 -17 22l-1 340h-387v-267q0 -63 6 -87q-8 -8 -18 -8q-17 0 -17 22l-2 539h-51q-3 6 -3 13q0 6 3 12h51v22q0 63 -6 87q8 8 18 8q8 0 13.5 -6t5.5 -16v-95h386v22q0 63 -6 87q8 8 18 8q8 0 13.5 -6t5.5 -16v-95h50
q3 -6 3 -12q0 -7 -3 -13h-50zM524 553h-386v-173h387z" />
    <glyph glyph-name="hbar" unicode="&#x127;" horiz-adv-x="564" 
d="M470 0q-8 -8 -18 -8q-17 0 -17 22l-1 284q0 95 -31.5 140.5t-101.5 45.5q-39 0 -79 -22.5t-67.5 -75.5t-27.5 -139q0 -150 1 -190t5 -57q-8 -8 -18 -8q-17 0 -17 22l-1 574h-67q-3 6 -3 13q0 6 3 12h67v93q0 22 19 22q10 0 18 -8q-5 -18 -6 -80v-27h131q3 -6 3 -12
q0 -7 -3 -13h-131l-1 -205q21 60 70 94.5t107 34.5q159 0 159 -215l1 -210q0 -63 6 -87z" />
    <glyph glyph-name="Itilde" unicode="&#x128;" horiz-adv-x="245" 
d="M109 14l-2 586q0 63 -6 87q8 8 18 8q8 0 13.5 -6t5.5 -16v-586q0 -63 6 -87q-8 -8 -18 -8q-17 0 -17 22zM221 763.5q-19 -15.5 -45 -15.5q-17 0 -32 5.5t-33 16.5q-20 10 -30 14t-23 4q-40 0 -52 -42h-2q-7 0 -17 10q7 31 26.5 47t47.5 16q17 0 31 -5.5t32 -15.5
q17 -9 30 -14t27 -5q18 0 27 8t20 27q12 0 20 -9q-8 -26 -27 -41.5z" />
    <glyph glyph-name="itilde" unicode="&#x129;" horiz-adv-x="223" 
d="M129 0q-8 -8 -18 -8q-17 0 -17 22l-2 403q0 63 -6 87q8 8 18 8q17 0 17 -22l2 -403q0 -63 6 -87zM214 601.5q-20 -19.5 -48 -19.5q-19 0 -33 7t-31 20q-18 13 -29 18.5t-26 5.5q-20 0 -36.5 -12t-22.5 -34h-2q-7 0 -17 10q7 32 29.5 49.5t51.5 17.5q19 0 33.5 -7
t30.5 -20q18 -12 29.5 -18t27.5 -6q19 0 29.5 11.5t19.5 35.5q13 0 20 -9q-6 -30 -26 -49.5z" />
    <glyph glyph-name="Imacron" unicode="&#x12a;" horiz-adv-x="245" 
d="M109 14l-2 586q0 63 -6 87q8 8 18 8q8 0 13.5 -6t5.5 -16v-586q0 -63 6 -87q-8 -8 -18 -8q-17 0 -17 22zM236 796q3 -7 3 -15q0 -7 -3 -15h-235q-3 8 -3 15q0 8 3 15h235z" />
    <glyph glyph-name="imacron" unicode="&#x12b;" horiz-adv-x="223" 
d="M129 0q-8 -8 -18 -8q-17 0 -17 22l-2 403q0 63 -6 87q8 8 18 8q17 0 17 -22l2 -403q0 -63 6 -87zM222 627q3 -6 3 -14q0 -6 -3 -14h-235q-3 8 -3 14q0 8 3 14h235z" />
    <glyph glyph-name="Iogonek" unicode="&#x12e;" horiz-adv-x="245" 
d="M204 -112q-13 -28 -38.5 -42.5t-55.5 -14.5q-34 0 -57.5 19t-23.5 55q0 62 81 99q-1 3 -1 10l-2 586q0 63 -6 87q8 8 18 8q8 0 13.5 -6t5.5 -16v-586q0 -63 6 -87l-2 -2v-1l-4 -2l-4 -2q-37 -17 -55 -36.5t-18 -47.5q0 -25 13.5 -39.5t39.5 -14.5q28 0 50 16t33 35
q10 -7 7 -18z" />
    <glyph glyph-name="iogonek" unicode="&#x12f;" horiz-adv-x="248" 
d="M96.5 630.5q-10.5 10.5 -10.5 23.5q0 14 10.5 24t23.5 10q14 0 24 -10t10 -24q0 -13 -10 -23.5t-24 -10.5q-13 0 -23.5 10.5zM203 -107q-13 -28 -38.5 -42.5t-55.5 -14.5q-34 0 -57.5 19t-23.5 55q0 34 23 59t59 40v5l-2 403q0 63 -6 87q8 8 18 8q17 0 17 -22l2 -403
q0 -63 6 -87q-8 -8 -18 -8q-4 0 -5 1q-32 -17 -47 -35t-15 -44q0 -25 13.5 -39.5t39.5 -14.5q28 0 50 16t33 35q10 -7 7 -18z" />
    <glyph glyph-name="Idotaccent" unicode="&#x130;" horiz-adv-x="245" 
d="M109 14l-2 586q0 63 -6 87q8 8 18 8q8 0 13.5 -6t5.5 -16v-586q0 -63 6 -87q-8 -8 -18 -8q-17 0 -17 22zM95 762.5q-10 10.5 -10 23.5q0 14 10 24t24 10q13 0 23.5 -10t10.5 -24q0 -13 -10.5 -23.5t-23.5 -10.5q-14 0 -24 10.5z" />
    <glyph glyph-name="dotlessi" unicode="&#x131;" horiz-adv-x="223" 
d="M129 0q-8 -8 -18 -8q-17 0 -17 22l-2 403q0 63 -6 87q8 8 18 8q17 0 17 -22l2 -403q0 -63 6 -87z" />
    <glyph glyph-name="Jcircumflex" unicode="&#x134;" horiz-adv-x="419" 
d="M85 18q-32 30 -32 72q0 12 6.5 22t19.5 10h3q-2 -8 -2 -22q0 -44 28.5 -64t63.5 -20q66 0 90.5 36.5t24.5 111.5v469v39q-28 -1 -97 3l-27 2q-51 5 -51 -37q0 -16 6.5 -25.5t20.5 -15.5q-6 -5 -18 -5q-15 0 -26 14.5t-11 37.5q0 21 16 37.5t45 16.5l49 -2q54 -4 75 -4
q25 0 51 4q-3 -22 -3 -67v-470q0 -72 -28.5 -122.5t-114.5 -50.5q-57 0 -89 30zM344 743q-5 -11 -16 -16l-116 78l-117 -78q-11 5 -16 16l115 97q12 2 17 2q6 0 18 -2z" />
    <glyph glyph-name="jcircumflex" unicode="&#x135;" horiz-adv-x="238" 
d="M-32 -217q-23 19 -23 53q0 12 6 22t18 10h3q-2 -8 -2 -22q0 -54 62 -54q49 0 67 31.5t18 96.5l1 497q0 63 -6 87q8 8 18 8q17 0 17 -22l1 -573q0 -153 -114 -153q-43 0 -66 19zM12.5 558q-8.5 2 -10.5 6l110 118q12 2 17 2q6 0 18 -2l110 -118q-8 -8 -24 -8l-103 92
l-103 -92q-6 0 -14.5 2z" />
    <glyph glyph-name="Kcommaaccent" unicode="&#x136;" horiz-adv-x="554" 
d="M536 22q0 -14 -14 -22t-28 -8q-18 0 -35.5 14.5t-24.5 38.5l-55 176q-15 39 -32.5 62t-59 37.5t-116.5 14.5h-34l1 -248q0 -63 6 -87q-8 -8 -18 -8q-17 0 -17 22l-2 586q0 63 -6 87q8 8 18 8q17 0 17 -22l1 -312h34q76 0 132.5 38.5t86.5 97.5t30 117q0 45 -18 73
q10 12 20 12q13 0 21.5 -19.5t8.5 -58.5q0 -83 -46 -158.5t-139 -110.5q60 -10 93 -43t50 -86l50 -162q13 -41 38 -41q23 0 33 17q5 -6 5 -15zM251 -166q26 27 26 57q0 17 -7 26.5t-20 14.5q0 10 9.5 22t27.5 12q15 0 27 -10t12 -37q0 -53 -57 -99q-12 4 -18 14z" />
    <glyph glyph-name="kcommaaccent" unicode="&#x137;" horiz-adv-x="540" 
d="M502 22q0 -14 -13 -22t-27 -8q-16 0 -30 11t-23 28l-105 187q-78 -31 -177 -57q0 -94 1 -119t5 -42q-8 -8 -18 -8q-17 0 -17 22l-1 692q0 22 19 22q10 0 18 -8q-2 -7 -4 -30.5t-2 -49.5l-1 -305q23 80 81 128.5t134 48.5q56 0 89 -30t33 -87t-38 -98t-97 -68q3 -4 16 -24
l88 -158q8 -15 16 -21t19 -6q19 0 29 17q5 -6 5 -15zM286.5 238q63.5 25 105.5 63.5t42 92.5q0 46 -25.5 68t-68.5 22q-65 0 -113 -37t-74 -105t-26 -157q96 28 159.5 53zM239 -166q26 27 26 57q0 17 -7 26.5t-20 14.5q0 10 9.5 22t27.5 12q15 0 27 -10t12 -37
q0 -53 -57 -99q-12 4 -18 14z" />
    <glyph glyph-name="kgreenlandic" unicode="&#x138;" horiz-adv-x="563" 
d="M518 23q0 -15 -14 -23t-28 -8q-18 0 -35.5 14.5t-24.5 38.5l-30 106q-9 31 -24 49.5t-49 29.5t-95 11h-93v-154q0 -63 6 -87q-8 -8 -18 -8q-8 0 -13.5 6t-5.5 16v403q0 63 -6 87q8 8 20 8q17 0 17 -22v-223h83q62 0 108.5 24t71.5 62t25 80q0 22 -4 40.5t-10 26.5
q5 12 20 12q13 0 19.5 -20t6.5 -52q0 -61 -36.5 -110.5t-107.5 -70.5q51 -8 77 -33.5t39 -72.5l25 -92q11 -41 38 -41q10 0 19.5 4.5t13.5 12.5q5 -6 5 -14z" />
    <glyph glyph-name="Lacute" unicode="&#x139;" horiz-adv-x="456" 
d="M138 25l275 1q4 -1 6 -5.5t2 -9.5q0 -11 -8 -11h-287q-17 0 -17 22l-2 578q0 63 -6 87q8 8 18 8q17 0 17 -22zM126 726q-4 2 -8 7.5t-5 10.5l129 97q24 -12 34 -32z" />
    <glyph glyph-name="lacute" unicode="&#x13a;" horiz-adv-x="250" 
d="M113 11.5q-19 21.5 -19 61.5v633q0 22 19 22q10 0 18 -8q-4 -10 -5 -63.5t-1 -132.5l-1 -453q0 -25 10.5 -39t30.5 -14q14 0 26 7t18 20q9 -10 9 -21q0 -16 -16 -25t-38 -9q-32 0 -51 21.5z" />
    <glyph glyph-name="Lcommaaccent" unicode="&#x13b;" horiz-adv-x="456" 
d="M138 25l275 1q4 -1 6 -5.5t2 -9.5q0 -11 -8 -11h-287q-17 0 -17 22l-2 578q0 63 -6 87q8 8 18 8q17 0 17 -22zM231 -166q26 27 26 57q0 17 -7 26.5t-20 14.5q0 10 9.5 22t27.5 12q15 0 27 -10t12 -37q0 -53 -57 -99q-12 4 -18 14z" />
    <glyph glyph-name="lcommaaccent" unicode="&#x13c;" horiz-adv-x="250" 
d="M113 11.5q-19 21.5 -19 61.5v633q0 22 19 22q10 0 18 -8q-4 -10 -5 -63.5t-1 -132.5l-1 -453q0 -25 10.5 -39t30.5 -14q14 0 26 7t18 20q9 -10 9 -21q0 -16 -16 -25t-38 -9q-32 0 -51 21.5zM126 -166q26 27 26 57q0 17 -7 26.5t-20 14.5q0 10 9.5 22t27.5 12q15 0 27 -10
t12 -37q0 -53 -57 -99q-12 4 -18 14z" />
    <glyph glyph-name="Lcaron" unicode="&#x13d;" horiz-adv-x="456" 
d="M259 641q0 -23 -1 -34h22q7 41 7 88q0 19 -1 29q-5 2 -17 2q-11 0 -17 -2q7 -41 7 -83zM138 25l275 1q4 -1 6 -5.5t2 -9.5q0 -11 -8 -11h-287q-17 0 -17 22l-2 578q0 63 -6 87q8 8 18 8q17 0 17 -22z" />
    <glyph glyph-name="lcaron" unicode="&#x13e;" horiz-adv-x="266" 
d="M113 11.5q-19 21.5 -19 61.5v633q0 22 19 22q10 0 18 -8q-4 -10 -5 -63.5t-1 -132.5l-1 -453q0 -25 10.5 -39t30.5 -14q14 0 26 7t18 20q9 -10 9 -21q0 -16 -16 -25t-38 -9q-32 0 -51 21.5zM206 640q0 -23 -1 -34h22q7 41 7 88q0 19 -1 29q-5 2 -17 2q-11 0 -17 -2
q7 -41 7 -83z" />
    <glyph glyph-name="Ldot" unicode="&#x13f;" horiz-adv-x="456" 
d="M138 25l275 1q4 -1 6 -5.5t2 -9.5q0 -11 -8 -11h-287q-17 0 -17 22l-2 578q0 63 -6 87q8 8 18 8q17 0 17 -22zM311.5 283.5q-10.5 10.5 -10.5 23.5q0 14 10.5 24t23.5 10q14 0 24 -10t10 -24q0 -13 -10 -23.5t-24 -10.5q-13 0 -23.5 10.5z" />
    <glyph glyph-name="ldot" unicode="&#x140;" horiz-adv-x="300" 
d="M113 11.5q-19 21.5 -19 61.5v633q0 22 19 22q10 0 18 -8q-4 -10 -5 -63.5t-1 -132.5l-1 -453q0 -25 10.5 -39t30.5 -14q14 0 26 7t18 20q9 -10 9 -21q0 -16 -16 -25t-38 -9q-32 0 -51 21.5zM240.5 306.5q-10.5 10.5 -10.5 23.5q0 14 10.5 24t23.5 10q14 0 24 -10t10 -24
q0 -13 -10 -23.5t-24 -10.5q-13 0 -23.5 10.5z" />
    <glyph glyph-name="Lslash" unicode="&#x141;" horiz-adv-x="456" 
d="M419 20.5q2 -4.5 2 -9.5q0 -11 -8 -11h-287q-17 0 -17 22l-1 200l-53 -53q-15 3 -18 17l71 71l-1 343q0 63 -6 87q8 8 18 8q17 0 17 -22l1 -387l122 121q14 -4 18 -18l-140 -138l1 -226l275 1q4 -1 6 -5.5z" />
    <glyph glyph-name="lslash" unicode="&#x142;" horiz-adv-x="251" 
d="M218 24q0 -16 -16 -25t-38 -9q-32 0 -51 21.5t-19 61.5v173l-59 -82l-20 14l79 111v417q0 22 19 22q10 0 18 -8q-4 -10 -5 -63.5t-1 -132.5v-193l63 89l20 -15l-84 -116v-218q0 -25 10.5 -39t30.5 -14q14 0 26 7t18 20q9 -10 9 -21z" />
    <glyph glyph-name="Nacute" unicode="&#x143;" horiz-adv-x="667" 
d="M103 0q6 24 6 87l-2 503q0 73 -6 97q6 5 17 5t15 -4q60 -90 193 -305q134 -216 209 -330l-2 547q0 63 -6 87q8 8 18 8q17 0 17 -22l2 -586q0 -71 2 -87q-3 -4 -11 -5.5t-13 0.5q-35 48 -132 200.5t-188 297.5q-100 158 -86 136l2 -615q0 -22 -17 -22q-10 0 -18 8z
M322 727q-4 2 -8 7.5t-5 10.5l129 97q24 -12 34 -32z" />
    <glyph glyph-name="nacute" unicode="&#x144;" horiz-adv-x="562" 
d="M478 0q-8 -8 -18 -8q-19 0 -19 22v284q-1 95 -32.5 140.5t-101.5 45.5q-39 0 -79 -22.5t-67.5 -75.5t-27.5 -139q0 -150 1 -190t5 -57q-8 -8 -18 -8q-18 0 -18 22v418q-1 28 -7.5 39t-22.5 11q-19 0 -27 -18q-10 11 -10 22t11 17.5t29 6.5q30 0 43.5 -19.5t13.5 -59.5
v-48q21 60 70 94.5t107 34.5q161 0 161 -215v-210q2 -66 7 -87zM285 557h-6q-17 0 -19 5l91 140q27 -1 45 -13z" />
    <glyph glyph-name="Ncommaaccent" unicode="&#x145;" horiz-adv-x="667" 
d="M103 0q6 24 6 87l-2 503q0 73 -6 97q6 5 17 5t15 -4q60 -90 193 -305q134 -216 209 -330l-2 547q0 63 -6 87q8 8 18 8q17 0 17 -22l2 -586q0 -71 2 -87q-3 -4 -11 -5.5t-13 0.5q-35 48 -132 200.5t-188 297.5q-100 158 -86 136l2 -615q0 -22 -17 -22q-10 0 -18 8z
M304 -166q26 27 26 57q0 17 -7 26.5t-20 14.5q0 10 9.5 22t27.5 12q15 0 27 -10t12 -37q0 -53 -57 -99q-12 4 -18 14z" />
    <glyph glyph-name="ncommaaccent" unicode="&#x146;" horiz-adv-x="562" 
d="M478 0q-8 -8 -18 -8q-19 0 -19 22v284q-1 95 -32.5 140.5t-101.5 45.5q-39 0 -79 -22.5t-67.5 -75.5t-27.5 -139q0 -150 1 -190t5 -57q-8 -8 -18 -8q-18 0 -18 22v418q-1 28 -7.5 39t-22.5 11q-19 0 -27 -18q-10 11 -10 22t11 17.5t29 6.5q30 0 43.5 -19.5t13.5 -59.5
v-48q21 60 70 94.5t107 34.5q161 0 161 -215v-210q2 -66 7 -87zM253 -166q26 27 26 57q0 17 -7 26.5t-20 14.5q0 10 9.5 22t27.5 12q15 0 27 -10t12 -37q0 -53 -57 -99q-12 4 -18 14z" />
    <glyph glyph-name="Ncaron" unicode="&#x147;" horiz-adv-x="667" 
d="M103 0q6 24 6 87l-2 503q0 73 -6 97q6 5 17 5t15 -4q60 -90 193 -305q134 -216 209 -330l-2 547q0 63 -6 87q8 8 18 8q17 0 17 -22l2 -586q0 -71 2 -87q-3 -4 -11 -5.5t-13 0.5q-35 48 -132 200.5t-188 297.5q-100 158 -86 136l2 -615q0 -22 -17 -22q-10 0 -18 8z
M330 730q-11 0 -17 1l-115 97q5 11 16 16l117 -78l116 78q11 -5 16 -16l-115 -97q-6 -1 -18 -1z" />
    <glyph glyph-name="ncaron" unicode="&#x148;" horiz-adv-x="562" 
d="M478 0q-8 -8 -18 -8q-19 0 -19 22v284q-1 95 -32.5 140.5t-101.5 45.5q-39 0 -79 -22.5t-67.5 -75.5t-27.5 -139q0 -150 1 -190t5 -57q-8 -8 -18 -8q-18 0 -18 22v418q-1 28 -7.5 39t-22.5 11q-19 0 -27 -18q-10 11 -10 22t11 17.5t29 6.5q30 0 43.5 -19.5t13.5 -59.5
v-48q21 60 70 94.5t107 34.5q161 0 161 -215v-210q2 -66 7 -87zM284 595l103 92q16 0 24 -8l-110 -118q-6 -1 -18 -1q-11 0 -17 1l-110 118q2 4 10.5 6t14.5 2z" />
    <glyph glyph-name="napostrophe" unicode="&#x149;" horiz-adv-x="630" 
d="M16 473h22l6 117q-5 2 -17 2q-11 0 -17 -2zM508 0q-8 -8 -18 -8q-19 0 -19 22v284q-1 95 -32.5 140.5t-101.5 45.5q-39 0 -79 -22.5t-67.5 -75.5t-27.5 -139q0 -150 1 -190t5 -57q-8 -8 -18 -8q-18 0 -18 22v418q-1 28 -7.5 39t-22.5 11q-19 0 -27 -18q-10 11 -10 22
t11 17.5t29 6.5q30 0 43.5 -19.5t13.5 -59.5v-48q21 60 70 94.5t107 34.5q161 0 161 -215v-210q2 -66 7 -87z" />
    <glyph glyph-name="Omacron" unicode="&#x14c;" horiz-adv-x="638" 
d="M134.5 76.5q-64.5 88.5 -64.5 267.5t64.5 267.5t184.5 88.5t184.5 -88.5t64.5 -267.5t-64.5 -267.5t-184.5 -88.5t-184.5 88.5zM480 97q56 81 56 247t-56 247t-161 81t-161 -81t-56 -247t56 -247t161 -81t161 81zM436 796q3 -7 3 -15q0 -7 -3 -15h-235q-3 8 -3 15
q0 8 3 15h235z" />
    <glyph glyph-name="omacron" unicode="&#x14d;" 
d="M109.5 57q-56.5 69 -56.5 193t56.5 193t157.5 69t157.5 -69t56.5 -193t-56.5 -193t-157.5 -69t-157.5 69zM401 78q48 62 48 172t-48 172t-134 62t-134 -62t-48 -172t48 -172t134 -62t134 62zM384 627q3 -6 3 -14q0 -6 -3 -14h-235q-3 8 -3 14q0 8 3 14h235z" />
    <glyph glyph-name="Ohungarumlaut" unicode="&#x150;" horiz-adv-x="638" 
d="M134.5 76.5q-64.5 88.5 -64.5 267.5t64.5 267.5t184.5 88.5t184.5 -88.5t64.5 -267.5t-64.5 -267.5t-184.5 -88.5t-184.5 88.5zM480 97q56 81 56 247t-56 247t-161 81t-161 -81t-56 -247t56 -247t161 -81t161 81zM271 728q-5 1 -9.5 6t-6.5 9l105 114q24 -7 39 -25z
M377 726q-4 1 -8.5 6t-6.5 9l105 114q24 -7 39 -25z" />
    <glyph glyph-name="ohungarumlaut" unicode="&#x151;" 
d="M109.5 57q-56.5 69 -56.5 193t56.5 193t157.5 69t157.5 -69t56.5 -193t-56.5 -193t-157.5 -69t-157.5 69zM401 78q48 62 48 172t-48 172t-134 62t-134 -62t-48 -172t48 -172t134 -62t134 62zM208 537q-11 3 -19 13l115 162q27 -3 43 -18zM334 537q-11 3 -19 13l115 162
q27 -3 43 -18z" />
    <glyph glyph-name="OE" unicode="&#x152;" horiz-adv-x="869" 
d="M795 20.5q2 -4.5 2 -9.5q0 -11 -8 -11h-317q-17 0 -17 22v5q-55 -39 -136 -39q-120 0 -184.5 88.5t-64.5 267.5t64.5 267.5t184.5 88.5q77 0 131 -36l-3 16q6 8 18 8h314q8 0 8 -9q0 -5 -3.5 -10.5t-7.5 -6.5h-294l1 -282h274q2 -4 2 -13q0 -8 -2 -13h-274l1 -329l305 1
q4 -1 6 -5.5zM455 67l-2 533v23q-52 49 -134 49q-105 0 -161 -81t-56 -247t56 -247t161 -81q85 0 136 51z" />
    <glyph glyph-name="oe" unicode="&#x153;" horiz-adv-x="893" 
d="M109.5 57q-56.5 69 -56.5 193t56.5 193t157.5 69q75 0 126 -38.5t73 -110.5q23 72 75.5 110.5t130.5 38.5q75 0 118.5 -36t43.5 -101q0 -75 -60.5 -113t-176.5 -38q-52 0 -116 10q3 -115 55 -166t131 -51q57 0 100 24.5t56 73.5q14 -5 14 -20q0 -8 -6 -23
q-18 -41 -63 -62.5t-104 -21.5q-76 0 -127 36t-73 107q-23 -69 -73.5 -106t-123.5 -37q-101 0 -157.5 69zM609 249q95 0 144.5 31.5t49.5 94.5q0 58 -38.5 84t-94.5 26q-84 0 -135 -57t-54 -169q63 -10 128 -10zM401 78q48 62 48 172t-48 172t-134 62t-134 -62t-48 -172
t48 -172t134 -62t134 62z" />
    <glyph glyph-name="Racute" unicode="&#x154;" horiz-adv-x="572" 
d="M555 22q0 -14 -14 -22t-28 -8q-17 0 -33.5 14.5t-26.5 38.5l-62 155q-14 36 -26 55t-39.5 33t-76.5 14h-111v-215q0 -15 2 -45.5t5 -41.5q-8 -8 -18 -8q-17 0 -19 22v586q0 15 -2 45.5t-5 41.5q6 4 32 8.5t76 4.5q141 0 203 -45.5t62 -149.5q0 -70 -38.5 -119.5
t-101.5 -68.5q31 -9 50 -37.5t38 -77.5l57 -141q10 -23 18 -32t20 -9q23 0 33 17q5 -6 5 -15zM249 328q51 0 95.5 20t71 59t26.5 93q0 66 -24.5 103.5t-76 54t-135.5 16.5q-52 0 -68 -4v-341q28 -1 111 -1zM242 727q-4 2 -8 7.5t-5 10.5l129 97q24 -12 34 -32z" />
    <glyph glyph-name="racute" unicode="&#x155;" horiz-adv-x="413" 
d="M340 487.5q28 -24.5 28 -69.5q0 -26 -11.5 -43.5t-25.5 -20.5q-7 -1 -12 1q12 15 16 29t4 30q0 70 -73 70q-53 0 -92.5 -55t-39.5 -182v-115q0 -56 1 -87t4 -45q-8 -8 -19 -8q-17 0 -17 22v418q0 27 -7 38.5t-23 11.5q-19 0 -27 -18q-10 11 -10 22t11 17.5t29 6.5
q29 0 42.5 -20.5t13.5 -62.5v-35q16 58 51 89t83 31q46 0 74 -24.5zM188 557h-6q-17 0 -19 5l91 140q27 -1 45 -13z" />
    <glyph glyph-name="Rcommaaccent" unicode="&#x156;" horiz-adv-x="572" 
d="M555 22q0 -14 -14 -22t-28 -8q-17 0 -33.5 14.5t-26.5 38.5l-62 155q-14 36 -26 55t-39.5 33t-76.5 14h-111v-215q0 -15 2 -45.5t5 -41.5q-8 -8 -18 -8q-17 0 -19 22v586q0 15 -2 45.5t-5 41.5q6 4 32 8.5t76 4.5q141 0 203 -45.5t62 -149.5q0 -70 -38.5 -119.5
t-101.5 -68.5q31 -9 50 -37.5t38 -77.5l57 -141q10 -23 18 -32t20 -9q23 0 33 17q5 -6 5 -15zM249 328q51 0 95.5 20t71 59t26.5 93q0 66 -24.5 103.5t-76 54t-135.5 16.5q-52 0 -68 -4v-341q28 -1 111 -1zM256 -166q26 27 26 57q0 17 -7 26.5t-20 14.5q0 10 9.5 22t27.5 12
q15 0 27 -10t12 -37q0 -53 -57 -99q-12 4 -18 14z" />
    <glyph glyph-name="rcommaaccent" unicode="&#x157;" horiz-adv-x="413" 
d="M340 487.5q28 -24.5 28 -69.5q0 -26 -11.5 -43.5t-25.5 -20.5q-7 -1 -12 1q12 15 16 29t4 30q0 70 -73 70q-53 0 -92.5 -55t-39.5 -182v-115q0 -56 1 -87t4 -45q-8 -8 -19 -8q-17 0 -17 22v418q0 27 -7 38.5t-23 11.5q-19 0 -27 -18q-10 11 -10 22t11 17.5t29 6.5
q29 0 42.5 -20.5t13.5 -62.5v-35q16 58 51 89t83 31q46 0 74 -24.5zM89 -166q26 27 26 57q0 17 -7 26.5t-20 14.5q0 10 9.5 22t27.5 12q15 0 27 -10t12 -37q0 -53 -57 -99q-12 4 -18 14z" />
    <glyph glyph-name="Rcaron" unicode="&#x158;" horiz-adv-x="572" 
d="M555 22q0 -14 -14 -22t-28 -8q-17 0 -33.5 14.5t-26.5 38.5l-62 155q-14 36 -26 55t-39.5 33t-76.5 14h-111v-215q0 -15 2 -45.5t5 -41.5q-8 -8 -18 -8q-17 0 -19 22v586q0 15 -2 45.5t-5 41.5q6 4 32 8.5t76 4.5q141 0 203 -45.5t62 -149.5q0 -70 -38.5 -119.5
t-101.5 -68.5q31 -9 50 -37.5t38 -77.5l57 -141q10 -23 18 -32t20 -9q23 0 33 17q5 -6 5 -15zM249 328q51 0 95.5 20t71 59t26.5 93q0 66 -24.5 103.5t-76 54t-135.5 16.5q-52 0 -68 -4v-341q28 -1 111 -1zM250 730q-11 0 -17 1l-115 97q5 11 16 16l117 -78l116 78
q11 -5 16 -16l-115 -97q-6 -1 -18 -1z" />
    <glyph glyph-name="rcaron" unicode="&#x159;" horiz-adv-x="413" 
d="M340 487.5q28 -24.5 28 -69.5q0 -26 -11.5 -43.5t-25.5 -20.5q-7 -1 -12 1q12 15 16 29t4 30q0 70 -73 70q-53 0 -92.5 -55t-39.5 -182v-115q0 -56 1 -87t4 -45q-8 -8 -19 -8q-17 0 -17 22v418q0 27 -7 38.5t-23 11.5q-19 0 -27 -18q-10 11 -10 22t11 17.5t29 6.5
q29 0 42.5 -20.5t13.5 -62.5v-35q16 58 51 89t83 31q46 0 74 -24.5zM187 595l103 92q16 0 24 -8l-110 -118q-6 -1 -18 -1q-11 0 -17 1l-110 118q2 4 10.5 6t14.5 2z" />
    <glyph glyph-name="Sacute" unicode="&#x15a;" horiz-adv-x="543" 
d="M118 32q-52 44 -52 110q0 25 8.5 35.5t29.5 8.5q-5 -17 -5 -33q0 -69 47.5 -103t127.5 -34q83 0 130.5 35.5t47.5 103.5q0 43 -20.5 75t-57 58.5t-103.5 62.5q-66 36 -101.5 60.5t-57.5 58t-22 80.5q0 75 53.5 112.5t136.5 37.5t134 -35.5t51 -94.5q0 -12 -3 -19.5
t-10 -11.5q-6 -3 -12 -3l-12 2q6 11 6 26q0 53 -44.5 80.5t-111.5 27.5q-66 0 -111 -28t-45 -90q0 -44 23.5 -76t52 -49.5t90.5 -51.5q101 -54 148.5 -102.5t47.5 -119.5q0 -69 -47 -118t-161 -49q-106 0 -158 44zM262 727q-4 2 -8 7.5t-5 10.5l129 97q24 -12 34 -32z" />
    <glyph glyph-name="sacute" unicode="&#x15b;" horiz-adv-x="460" 
d="M89 23.5q-44 35.5 -44 90.5q0 24 9 34t28 8q-6 -15 -6 -32q0 -54 40 -81t108 -27q71 0 114.5 25t43.5 70q0 29 -15 48.5t-37.5 32t-63.5 30.5q-15 6 -45 20q-9 4 -57 27.5t-71.5 55.5t-23.5 75q0 58 45.5 85.5t116.5 27.5q81 0 123.5 -27.5t42.5 -75.5q0 -23 -13 -31
q-4 -3 -11 -3q-4 0 -12 2q5 11 5 26q0 41 -35.5 61t-101.5 20q-56 0 -92 -19.5t-36 -62.5q0 -35 18 -58.5t42 -37.5t76 -38l35 -16q48 -21 76 -36.5t47 -41t19 -62.5q0 -51 -42.5 -88t-144.5 -37q-94 0 -138 35.5zM232 557h-6q-17 0 -19 5l91 140q27 -1 45 -13z" />
    <glyph glyph-name="Scircumflex" unicode="&#x15c;" horiz-adv-x="543" 
d="M118 32q-52 44 -52 110q0 25 8.5 35.5t29.5 8.5q-5 -17 -5 -33q0 -69 47.5 -103t127.5 -34q83 0 130.5 35.5t47.5 103.5q0 43 -20.5 75t-57 58.5t-103.5 62.5q-66 36 -101.5 60.5t-57.5 58t-22 80.5q0 75 53.5 112.5t136.5 37.5t134 -35.5t51 -94.5q0 -12 -3 -19.5
t-10 -11.5q-6 -3 -12 -3l-12 2q6 11 6 26q0 53 -44.5 80.5t-111.5 27.5q-66 0 -111 -28t-45 -90q0 -44 23.5 -76t52 -49.5t90.5 -51.5q101 -54 148.5 -102.5t47.5 -119.5q0 -69 -47 -118t-161 -49q-106 0 -158 44zM404 743q-5 -11 -16 -16l-116 78l-117 -78q-11 5 -16 16
l115 97q12 2 17 2q6 0 18 -2z" />
    <glyph glyph-name="scircumflex" unicode="&#x15d;" horiz-adv-x="460" 
d="M89 23.5q-44 35.5 -44 90.5q0 24 9 34t28 8q-6 -15 -6 -32q0 -54 40 -81t108 -27q71 0 114.5 25t43.5 70q0 29 -15 48.5t-37.5 32t-63.5 30.5q-15 6 -45 20q-9 4 -57 27.5t-71.5 55.5t-23.5 75q0 58 45.5 85.5t116.5 27.5q81 0 123.5 -27.5t42.5 -75.5q0 -23 -13 -31
q-4 -3 -11 -3q-4 0 -12 2q5 11 5 26q0 41 -35.5 61t-101.5 20q-56 0 -92 -19.5t-36 -62.5q0 -35 18 -58.5t42 -37.5t76 -38l35 -16q48 -21 76 -36.5t47 -41t19 -62.5q0 -51 -42.5 -88t-144.5 -37q-94 0 -138 35.5zM112.5 558q-8.5 2 -10.5 6l110 118q12 2 17 2q6 0 18 -2
l110 -118q-8 -8 -24 -8l-103 92l-103 -92q-6 0 -14.5 2z" />
    <glyph glyph-name="Scedilla" unicode="&#x15e;" horiz-adv-x="543" 
d="M438.5 38q-45.5 -49 -156.5 -50l-6 -29q38 0 59 -19t21 -51q0 -35 -24.5 -56.5t-61.5 -21.5q-52 0 -78 28v2q0 5 3.5 11t8.5 9q12 -10 25.5 -16t36.5 -6q26 0 41.5 12t15.5 36q0 49 -65 49l-17 -1l12 54q-94 5 -140.5 47.5t-46.5 105.5q0 25 8.5 35.5t29.5 8.5
q-5 -17 -5 -33q0 -69 47.5 -103t127.5 -34q83 0 130.5 35.5t47.5 103.5q0 43 -20.5 75t-57 58.5t-103.5 62.5q-66 36 -101.5 60.5t-57.5 58t-22 80.5q0 75 53.5 112.5t136.5 37.5t134 -35.5t51 -94.5q0 -12 -3 -19.5t-10 -11.5q-6 -3 -12 -3l-12 2q6 11 6 26
q0 53 -44.5 80.5t-111.5 27.5q-66 0 -111 -28t-45 -90q0 -44 23.5 -76t52 -49.5t90.5 -51.5q101 -54 148.5 -102.5t47.5 -119.5q0 -68 -45.5 -117z" />
    <glyph glyph-name="scedilla" unicode="&#x15f;" horiz-adv-x="460" 
d="M374.5 27.5q-39.5 -36.5 -134.5 -39.5l-6 -29q38 0 59 -19t21 -51q0 -35 -24.5 -56.5t-61.5 -21.5q-52 0 -78 28v2q0 5 3.5 11t8.5 9q12 -10 25.5 -16t36.5 -6q26 0 41.5 12t15.5 36q0 49 -65 49l-17 -1l11 53q-85 4 -125 39t-40 87q0 24 9 34t28 8q-6 -15 -6 -32
q0 -54 40 -81t108 -27q71 0 114.5 25t43.5 70q0 29 -15 48.5t-37.5 32t-63.5 30.5q-15 6 -45 20q-9 4 -57 27.5t-71.5 55.5t-23.5 75q0 58 45.5 85.5t116.5 27.5q81 0 123.5 -27.5t42.5 -75.5q0 -23 -13 -31q-4 -3 -11 -3q-4 0 -12 2q5 11 5 26q0 41 -35.5 61t-101.5 20
q-56 0 -92 -19.5t-36 -62.5q0 -35 18 -58.5t42 -37.5t76 -38l35 -16q48 -21 76 -36.5t47 -41t19 -62.5q0 -49 -39.5 -85.5z" />
    <glyph glyph-name="Scaron" unicode="&#x160;" horiz-adv-x="543" 
d="M118 32q-52 44 -52 110q0 25 8.5 35.5t29.5 8.5q-5 -17 -5 -33q0 -69 47.5 -103t127.5 -34q83 0 130.5 35.5t47.5 103.5q0 43 -20.5 75t-57 58.5t-103.5 62.5q-66 36 -101.5 60.5t-57.5 58t-22 80.5q0 75 53.5 112.5t136.5 37.5t134 -35.5t51 -94.5q0 -12 -3 -19.5
t-10 -11.5q-6 -3 -12 -3l-12 2q6 11 6 26q0 53 -44.5 80.5t-111.5 27.5q-66 0 -111 -28t-45 -90q0 -44 23.5 -76t52 -49.5t90.5 -51.5q101 -54 148.5 -102.5t47.5 -119.5q0 -69 -47 -118t-161 -49q-106 0 -158 44zM270 730q-11 0 -17 1l-115 97q5 11 16 16l117 -78l116 78
q11 -5 16 -16l-115 -97q-6 -1 -18 -1z" />
    <glyph glyph-name="scaron" unicode="&#x161;" horiz-adv-x="460" 
d="M89 23.5q-44 35.5 -44 90.5q0 24 9 34t28 8q-6 -15 -6 -32q0 -54 40 -81t108 -27q71 0 114.5 25t43.5 70q0 29 -15 48.5t-37.5 32t-63.5 30.5q-15 6 -45 20q-9 4 -57 27.5t-71.5 55.5t-23.5 75q0 58 45.5 85.5t116.5 27.5q81 0 123.5 -27.5t42.5 -75.5q0 -23 -13 -31
q-4 -3 -11 -3q-4 0 -12 2q5 11 5 26q0 41 -35.5 61t-101.5 20q-56 0 -92 -19.5t-36 -62.5q0 -35 18 -58.5t42 -37.5t76 -38l35 -16q48 -21 76 -36.5t47 -41t19 -62.5q0 -51 -42.5 -88t-144.5 -37q-94 0 -138 35.5zM231 595l103 92q16 0 24 -8l-110 -118q-6 -1 -18 -1
q-11 0 -17 1l-110 118q2 4 10.5 6t14.5 2z" />
    <glyph glyph-name="uni0162" unicode="&#x162;" horiz-adv-x="503" 
d="M483 679q0 -5 -3.5 -10.5t-7.5 -6.5h-205l1 -575q0 -63 6 -87q-2 -2 -3 -2l-8 -39q38 0 59 -19t21 -51q0 -35 -24.5 -56.5t-61.5 -21.5q-52 0 -78 28v2q0 5 3.5 11t8.5 9q12 -10 25.5 -16t36.5 -6q26 0 41.5 12t15.5 36q0 49 -65 49l-17 -1l14 65q-3 5 -3 14l-2 648h-205
q-4 1 -7.5 6.5t-3.5 10.5q0 9 8 9h446q8 0 8 -9z" />
    <glyph glyph-name="uni0163" unicode="&#x163;" horiz-adv-x="325" 
d="M141 428l-1 -357q0 -25 13 -40t38 -15q18 0 33 7.5t21 19.5q9 -10 9 -21q0 -15 -18 -24t-43 -10l-6 -29q38 0 59 -19t21 -51q0 -35 -24.5 -56.5t-61.5 -21.5q-52 0 -78 28v2q0 5 3.5 11t8.5 9q12 -10 25.5 -16t36.5 -6q26 0 41.5 12t15.5 36q0 49 -65 49l-17 -1l12 56
q-25 7 -39.5 27.5t-14.5 52.5v403h-14q-34 0 -60 -2l1 14q2 14 11 14h62v110q0 22 19 22q10 0 18 -8q-6 -14 -6 -124h77q32 0 52 2l-1 -14q-2 -14 -11 -14h-117v-46z" />
    <glyph glyph-name="Tcaron" unicode="&#x164;" horiz-adv-x="503" 
d="M483 679q0 -5 -3.5 -10.5t-7.5 -6.5h-205l1 -575q0 -63 6 -87q-8 -8 -18 -8q-17 0 -17 22l-2 648h-205q-4 1 -7.5 6.5t-3.5 10.5q0 9 8 9h446q8 0 8 -9zM250 730q-11 0 -17 1l-115 97q5 11 16 16l117 -78l116 78q11 -5 16 -16l-115 -97q-6 -1 -18 -1z" />
    <glyph glyph-name="tcaron" unicode="&#x165;" horiz-adv-x="325" 
d="M207 590q0 42 -7 83q6 2 17 2q12 0 17 -2q1 -10 1 -29q0 -47 -7 -88h-22q1 11 1 34zM270 502l-1 -14q-2 -14 -11 -14h-117v-46l-1 -357q0 -25 13 -40t38 -15q18 0 33 7.5t21 19.5q9 -10 9 -21q0 -16 -19 -25t-45 -9q-37 0 -58.5 21.5t-21.5 61.5v403h-14q-34 0 -60 -2
l1 14q2 14 11 14h62v110q0 22 19 22q10 0 18 -8q-6 -14 -6 -124h77q32 0 52 2z" />
    <glyph glyph-name="Utilde" unicode="&#x168;" horiz-adv-x="642" 
d="M547 304q0 -156 -57.5 -236t-169.5 -80q-113 0 -166 76.5t-53 239.5v296q0 63 -6 87q8 8 18 8q17 0 17 -22v-369q0 -148 46.5 -218t143.5 -70t147.5 73t50.5 215v296q0 63 -6 87q8 8 18 8q17 0 17 -22v-369zM423 763.5q-19 -15.5 -45 -15.5q-17 0 -32 5.5t-33 16.5
q-20 10 -30 14t-23 4q-40 0 -52 -42h-2q-7 0 -17 10q7 31 26.5 47t47.5 16q17 0 31 -5.5t32 -15.5q17 -9 30 -14t27 -5q18 0 27 8t20 27q12 0 20 -9q-8 -26 -27 -41.5z" />
    <glyph glyph-name="utilde" unicode="&#x169;" horiz-adv-x="551" 
d="M515 18q0 -11 -11 -17.5t-29 -6.5q-30 0 -43.5 19.5t-13.5 59.5v46q-21 -61 -69 -96t-104 -35q-81 0 -117.5 49.5t-37.5 169.5l-1 210q0 63 -6 87q8 8 18 8q17 0 17 -22l1 -284q0 -73 13 -114.5t41 -58.5t75 -17q38 0 77 22.5t66 76.5t27 142q0 150 -1 190t-5 57
q8 8 18 8q17 0 17 -22l1 -418q0 -28 6.5 -39t23.5 -11q19 0 27 18q10 -11 10 -22zM374 601.5q-20 -19.5 -48 -19.5q-19 0 -33 7t-31 20q-18 13 -29 18.5t-26 5.5q-20 0 -36.5 -12t-22.5 -34h-2q-7 0 -17 10q7 32 29.5 49.5t51.5 17.5q19 0 33.5 -7t30.5 -20q18 -12 29.5 -18
t27.5 -6q19 0 29.5 11.5t19.5 35.5q13 0 20 -9q-6 -30 -26 -49.5z" />
    <glyph glyph-name="Umacron" unicode="&#x16a;" horiz-adv-x="642" 
d="M547 304q0 -156 -57.5 -236t-169.5 -80q-113 0 -166 76.5t-53 239.5v296q0 63 -6 87q8 8 18 8q17 0 17 -22v-369q0 -148 46.5 -218t143.5 -70t147.5 73t50.5 215v296q0 63 -6 87q8 8 18 8q17 0 17 -22v-369zM438 796q3 -7 3 -15q0 -7 -3 -15h-235q-3 8 -3 15q0 8 3 15
h235z" />
    <glyph glyph-name="umacron" unicode="&#x16b;" horiz-adv-x="551" 
d="M515 18q0 -11 -11 -17.5t-29 -6.5q-30 0 -43.5 19.5t-13.5 59.5v46q-21 -61 -69 -96t-104 -35q-81 0 -117.5 49.5t-37.5 169.5l-1 210q0 63 -6 87q8 8 18 8q17 0 17 -22l1 -284q0 -73 13 -114.5t41 -58.5t75 -17q38 0 77 22.5t66 76.5t27 142q0 150 -1 190t-5 57
q8 8 18 8q17 0 17 -22l1 -418q0 -28 6.5 -39t23.5 -11q19 0 27 18q10 -11 10 -22zM382 627q3 -6 3 -14q0 -6 -3 -14h-235q-3 8 -3 14q0 8 3 14h235z" />
    <glyph glyph-name="Ubreve" unicode="&#x16c;" horiz-adv-x="642" 
d="M547 304q0 -156 -57.5 -236t-169.5 -80q-113 0 -166 76.5t-53 239.5v296q0 63 -6 87q8 8 18 8q17 0 17 -22v-369q0 -148 46.5 -218t143.5 -70t147.5 73t50.5 215v296q0 63 -6 87q8 8 18 8q17 0 17 -22v-369zM392.5 749.5q-31.5 -21.5 -73.5 -21.5t-71.5 21t-46.5 54
l28 16q14 -27 38 -43t58 -16q60 0 91 58l26 -11q-18 -36 -49.5 -57.5z" />
    <glyph glyph-name="ubreve" unicode="&#x16d;" horiz-adv-x="551" 
d="M515 18q0 -11 -11 -17.5t-29 -6.5q-30 0 -43.5 19.5t-13.5 59.5v46q-21 -61 -69 -96t-104 -35q-81 0 -117.5 49.5t-37.5 169.5l-1 210q0 63 -6 87q8 8 18 8q17 0 17 -22l1 -284q0 -73 13 -114.5t41 -58.5t75 -17q38 0 77 22.5t66 76.5t27 142q0 150 -1 190t-5 57
q8 8 18 8q17 0 17 -22l1 -418q0 -28 6.5 -39t23.5 -11q19 0 27 18q10 -11 10 -22zM335 616.5q24 24.5 35 54.5q18 -2 27 -5q-11 -44 -46.5 -74t-85.5 -30q-60 0 -95 32t-44 68q11 8 26 11q12 -30 39.5 -55.5t73.5 -25.5t70 24.5z" />
    <glyph glyph-name="Uring" unicode="&#x16e;" horiz-adv-x="642" 
d="M547 304q0 -156 -57.5 -236t-169.5 -80q-113 0 -166 76.5t-53 239.5v296q0 63 -6 87q8 8 18 8q17 0 17 -22v-369q0 -148 46.5 -218t143.5 -70t147.5 73t50.5 215v296q0 63 -6 87q8 8 18 8q17 0 17 -22v-369zM383 873q22 -21 22 -55q-1 -37 -23.5 -58.5t-60.5 -21.5
q-36 0 -58 21t-22 55q0 37 23 58.5t61 21.5q36 0 58 -21zM282 857q-15 -15 -15 -41q0 -25 15 -40.5t41 -15.5q25 0 40.5 15.5t15.5 40.5q0 26 -15.5 41t-40.5 15q-26 0 -41 -15z" />
    <glyph glyph-name="uring" unicode="&#x16f;" horiz-adv-x="551" 
d="M515 18q0 -11 -11 -17.5t-29 -6.5q-30 0 -43.5 19.5t-13.5 59.5v46q-21 -61 -69 -96t-104 -35q-81 0 -117.5 49.5t-37.5 169.5l-1 210q0 63 -6 87q8 8 18 8q17 0 17 -22l1 -284q0 -73 13 -114.5t41 -58.5t75 -17q38 0 77 22.5t66 76.5t27 142q0 150 -1 190t-5 57
q8 8 18 8q17 0 17 -22l1 -418q0 -28 6.5 -39t23.5 -11q19 0 27 18q10 -11 10 -22zM327 685q22 -21 22 -55q-1 -37 -23.5 -58.5t-60.5 -21.5q-36 0 -58 21t-22 55q0 37 23 58.5t61 21.5q36 0 58 -21zM226 669q-15 -15 -15 -41q0 -25 15 -40.5t41 -15.5q25 0 40.5 15.5
t15.5 40.5q0 26 -15.5 41t-40.5 15q-26 0 -41 -15z" />
    <glyph glyph-name="Uhungarumlaut" unicode="&#x170;" horiz-adv-x="642" 
d="M547 304q0 -156 -57.5 -236t-169.5 -80q-113 0 -166 76.5t-53 239.5v296q0 63 -6 87q8 8 18 8q17 0 17 -22v-369q0 -148 46.5 -218t143.5 -70t147.5 73t50.5 215v296q0 63 -6 87q8 8 18 8q17 0 17 -22v-369zM273 728q-5 1 -9.5 6t-6.5 9l105 114q24 -7 39 -25zM379 726
q-4 1 -8.5 6t-6.5 9l105 114q24 -7 39 -25z" />
    <glyph glyph-name="uhungarumlaut" unicode="&#x171;" horiz-adv-x="551" 
d="M515 18q0 -11 -11 -17.5t-29 -6.5q-30 0 -43.5 19.5t-13.5 59.5v46q-21 -61 -69 -96t-104 -35q-81 0 -117.5 49.5t-37.5 169.5l-1 210q0 63 -6 87q8 8 18 8q17 0 17 -22l1 -284q0 -73 13 -114.5t41 -58.5t75 -17q38 0 77 22.5t66 76.5t27 142q0 150 -1 190t-5 57
q8 8 18 8q17 0 17 -22l1 -418q0 -28 6.5 -39t23.5 -11q19 0 27 18q10 -11 10 -22zM206 537q-11 3 -19 13l115 162q27 -3 43 -18zM332 537q-11 3 -19 13l115 162q27 -3 43 -18z" />
    <glyph glyph-name="Uogonek" unicode="&#x172;" horiz-adv-x="642" 
d="M512 107.5q-35 -75.5 -103 -103.5q-42 -19 -61.5 -39t-19.5 -49q0 -25 13.5 -39.5t39.5 -14.5q28 0 50 16t33 35q10 -7 7 -18q-13 -28 -38.5 -42.5t-55.5 -14.5q-34 0 -57.5 19t-23.5 55q0 44 42 77q-6 -1 -18 -1q-113 0 -166 76.5t-53 239.5v296q0 63 -6 87q8 8 18 8
q17 0 17 -22v-369q0 -148 46.5 -218t143.5 -70t147.5 73t50.5 215v296q0 63 -6 87q8 8 18 8q17 0 17 -22v-369q0 -121 -35 -196.5z" />
    <glyph glyph-name="uogonek" unicode="&#x173;" horiz-adv-x="551" 
d="M572 -103q-13 -28 -38.5 -42.5t-55.5 -14.5q-34 0 -57.5 19t-23.5 55q0 50 53 84q-17 7 -24.5 25.5t-7.5 49.5v46q-21 -61 -69 -96t-104 -35q-81 0 -117.5 49.5t-37.5 169.5l-1 210q0 63 -6 87q8 8 18 8q17 0 17 -22l1 -284q0 -73 13 -114.5t41 -58.5t75 -17
q38 0 77 22.5t66 76.5t27 142q0 150 -1 190t-5 57q8 8 18 8q17 0 17 -22l1 -418q0 -28 6.5 -39t23.5 -11q19 0 27 18q10 -11 10 -22q0 -18 -27 -23q-30 -16 -44.5 -34t-14.5 -43t13.5 -39.5t39.5 -14.5q28 0 50 16t33 35q10 -7 7 -18z" />
    <glyph glyph-name="Wcircumflex" unicode="&#x174;" horiz-adv-x="887" 
d="M861 695q6 -5 5 -13q0 -5 -2.5 -13t-3.5 -11l-187 -658q-9 -8 -21 -8q-9 0 -16 4.5t-9 12.5l-176 565l-179 -574q-11 -8 -22 -8q-9 0 -16 4.5t-9 12.5l-184 652q-5 17 -16 30q9 9 20 9q15 0 20 -14l186 -662l180 578q2 5 2 13t-1 10q8 5 19 5q9 0 13 -1l189 -605l175 639
q5 13 5 21q0 10 -2 14q5 2 14 2q10 0 16 -5zM578 743q-5 -11 -16 -16l-116 78l-117 -78q-11 5 -16 16l115 97q12 2 17 2q6 0 18 -2z" />
    <glyph glyph-name="wcircumflex" unicode="&#x175;" horiz-adv-x="733" 
d="M185 9l-149 452q-3 7 -7 15.5t-9 14.5q9 9 20 9q15 0 20 -14l151 -467l133 444q4 16 4 21q0 10 -2 14q10 6 24 6q8 0 15 -4l143 -481l143 444q5 13 5 21q0 10 -2 14q5 2 14 2q10 0 16 -5t5 -13q0 -10 -6 -24l-152 -458q-11 -8 -21 -8q-9 0 -17 4.5t-10 12.5l-133 452
l-137 -461q-11 -8 -24 -8q-18 0 -24 17zM247.5 558q-8.5 2 -10.5 6l110 118q12 2 17 2q6 0 18 -2l110 -118q-8 -8 -24 -8l-103 92l-103 -92q-6 0 -14.5 2z" />
    <glyph glyph-name="Ycircumflex" unicode="&#x176;" horiz-adv-x="512" 
d="M480 655l-208 -419l1 -149q0 -63 6 -87q-8 -8 -18 -8q-17 0 -17 22l-1 224l-202 423q-4 9 -11.5 17.5t-9.5 10.5q9 11 23 11t20 -14l196 -417l187 386q10 21 10 28q0 11 -2 15q5 2 14 2t14.5 -6t5.5 -16q0 -7 -8 -23zM402 743q-5 -11 -16 -16l-116 78l-117 -78
q-11 5 -16 16l115 97q12 2 17 2q6 0 18 -2z" />
    <glyph glyph-name="ycircumflex" unicode="&#x177;" horiz-adv-x="536" 
d="M449 46q0 -286 -214 -286q-61 0 -106.5 27.5t-45.5 82.5q0 25 8.5 42t22.5 17q12 0 18 -9q-20 -11 -20 -43q0 -48 36.5 -68.5t84.5 -20.5q98 0 141.5 65t43.5 209v65q-20 -64 -68 -100.5t-114 -36.5q-73 0 -109 50t-37 167l-1 210q0 63 -6 87q8 8 18 8q17 0 17 -22
l1 -284q0 -101 28 -144.5t90 -43.5q74 0 127.5 57.5t53.5 191.5q0 144 -1 182.5t-5 54.5q8 8 18 8q17 0 17 -22zM158.5 558q-8.5 2 -10.5 6l110 118q12 2 17 2q6 0 18 -2l110 -118q-8 -8 -24 -8l-103 92l-103 -92q-6 0 -14.5 2z" />
    <glyph glyph-name="Ydieresis" unicode="&#x178;" horiz-adv-x="512" 
d="M480 655l-208 -419l1 -149q0 -63 6 -87q-8 -8 -18 -8q-17 0 -17 22l-1 224l-202 423q-4 9 -11.5 17.5t-9.5 10.5q9 11 23 11t20 -14l196 -417l187 386q10 21 10 28q0 11 -2 15q5 2 14 2t14.5 -6t5.5 -16q0 -7 -8 -23zM169 770.5q-10 10.5 -10 23.5q0 14 10 24t24 10
q13 0 23.5 -10t10.5 -24q0 -13 -10.5 -23.5t-23.5 -10.5q-14 0 -24 10.5zM329 770.5q-10 10.5 -10 23.5q0 14 10 24t24 10q13 0 23.5 -10t10.5 -24q0 -13 -10.5 -23.5t-23.5 -10.5q-14 0 -24 10.5z" />
    <glyph glyph-name="Zacute" unicode="&#x179;" horiz-adv-x="553" 
d="M505 158.5q15 -30.5 15 -61.5q0 -43 -31.5 -70t-94.5 -27h-207q-84 0 -124 -5l-11 14q0 16 19 44l391 610h-286q-46 0 -67.5 -17t-21.5 -44q0 -25 12 -41.5t37 -31.5q-5 -10 -20 -10q-24 0 -40.5 26.5t-16.5 57.5q0 36 30.5 61t83.5 25h174q46 0 79.5 1t48.5 4l17 -9
q0 -28 -15 -52l-391 -607h297q107 0 107 72q0 27 -13.5 49t-32.5 34q3 2 8 5t11 3q27 0 42 -30.5zM273 727q-4 2 -8 7.5t-5 10.5l129 97q24 -12 34 -32z" />
    <glyph glyph-name="zacute" unicode="&#x17a;" horiz-adv-x="476" 
d="M428.5 142q10.5 -22 10.5 -48q0 -42 -29 -68t-77 -26h-187q-67 0 -97 -4l-8 11q0 14 14 33l327 432h-236q-37 0 -54.5 -15.5t-17.5 -38.5q0 -30 31 -52q-5 -8 -15 -8q-21 0 -33.5 19t-12.5 43q0 34 27 57t73 23h164q34 0 59 0.5t36 3.5l10 -7q0 -28 -15 -49l-320 -421
h244q46 0 66.5 20t20.5 50q0 20 -9 36.5t-23 24.5q11 6 18 6q23 0 33.5 -22zM241 557h-6q-17 0 -19 5l91 140q27 -1 45 -13z" />
    <glyph glyph-name="Zdotaccent" unicode="&#x17b;" horiz-adv-x="553" 
d="M505 158.5q15 -30.5 15 -61.5q0 -43 -31.5 -70t-94.5 -27h-207q-84 0 -124 -5l-11 14q0 16 19 44l391 610h-286q-46 0 -67.5 -17t-21.5 -44q0 -25 12 -41.5t37 -31.5q-5 -10 -20 -10q-24 0 -40.5 26.5t-16.5 57.5q0 36 30.5 61t83.5 25h174q46 0 79.5 1t48.5 4l17 -9
q0 -28 -15 -52l-391 -607h297q107 0 107 72q0 27 -13.5 49t-32.5 34q3 2 8 5t11 3q27 0 42 -30.5zM259 762.5q-10 10.5 -10 23.5q0 14 10 24t24 10q13 0 23.5 -10t10.5 -24q0 -13 -10.5 -23.5t-23.5 -10.5q-14 0 -24 10.5z" />
    <glyph glyph-name="zdotaccent" unicode="&#x17c;" horiz-adv-x="476" 
d="M428.5 142q10.5 -22 10.5 -48q0 -42 -29 -68t-77 -26h-187q-67 0 -97 -4l-8 11q0 14 14 33l327 432h-236q-37 0 -54.5 -15.5t-17.5 -38.5q0 -30 31 -52q-5 -8 -15 -8q-21 0 -33.5 19t-12.5 43q0 34 27 57t73 23h164q34 0 59 0.5t36 3.5l10 -7q0 -28 -15 -49l-320 -421
h244q46 0 66.5 20t20.5 50q0 20 -9 36.5t-23 24.5q11 6 18 6q23 0 33.5 -22zM213 583.5q-10 10.5 -10 23.5q0 14 10 24t24 10q13 0 23.5 -10t10.5 -24q0 -13 -10.5 -23.5t-23.5 -10.5q-14 0 -24 10.5z" />
    <glyph glyph-name="Zcaron" unicode="&#x17d;" horiz-adv-x="553" 
d="M505 158.5q15 -30.5 15 -61.5q0 -43 -31.5 -70t-94.5 -27h-207q-84 0 -124 -5l-11 14q0 16 19 44l391 610h-286q-46 0 -67.5 -17t-21.5 -44q0 -25 12 -41.5t37 -31.5q-5 -10 -20 -10q-24 0 -40.5 26.5t-16.5 57.5q0 36 30.5 61t83.5 25h174q46 0 79.5 1t48.5 4l17 -9
q0 -28 -15 -52l-391 -607h297q107 0 107 72q0 27 -13.5 49t-32.5 34q3 2 8 5t11 3q27 0 42 -30.5zM281 730q-11 0 -17 1l-115 97q5 11 16 16l117 -78l116 78q11 -5 16 -16l-115 -97q-6 -1 -18 -1z" />
    <glyph glyph-name="zcaron" unicode="&#x17e;" horiz-adv-x="476" 
d="M428.5 142q10.5 -22 10.5 -48q0 -42 -29 -68t-77 -26h-187q-67 0 -97 -4l-8 11q0 14 14 33l327 432h-236q-37 0 -54.5 -15.5t-17.5 -38.5q0 -30 31 -52q-5 -8 -15 -8q-21 0 -33.5 19t-12.5 43q0 34 27 57t73 23h164q34 0 59 0.5t36 3.5l10 -7q0 -28 -15 -49l-320 -421
h244q46 0 66.5 20t20.5 50q0 20 -9 36.5t-23 24.5q11 6 18 6q23 0 33.5 -22zM240 595l103 92q16 0 24 -8l-110 -118q-6 -1 -18 -1q-11 0 -17 1l-110 118q2 4 10.5 6t14.5 2z" />
    <glyph glyph-name="uni018F" unicode="&#x18f;" horiz-adv-x="596" 
d="M468 610.5q68 -89.5 68 -263.5q0 -168 -69.5 -263.5t-198.5 -95.5q-96 0 -151.5 47.5t-55.5 134.5q0 97 60.5 146.5t176.5 49.5q57 0 109.5 -3.5t96.5 -7.5q-3 168 -68 242t-163 74q-69 0 -122 -29.5t-69 -88.5q-14 5 -14 20q0 8 6 23q22 51 76 77.5t126 26.5
q124 0 192 -89.5zM437.5 95q63.5 80 66.5 235q-45 5 -106.5 8t-111.5 3q-94 0 -143.5 -43t-49.5 -128q0 -83 51.5 -119t125.5 -36q104 0 167.5 80z" />
    <glyph glyph-name="florin" unicode="&#x192;" horiz-adv-x="364" 
d="M348.5 719.5q30.5 -20.5 30.5 -58.5q0 -31 -15.5 -50t-30.5 -19q-4 0 -6 1q21 24 23 55q3 64 -83 64q-64 0 -88 -38t-28 -100l-4 -74h105q32 0 52 2l-2 -14q-2 -14 -11 -14h-145l-32 -579q-1 -14 -1 -39q0 -33 3 -48q-8 -8 -19 -8q-17 0 -15 22l33 652h-21q-34 0 -60 -2
l1 14q4 14 12 14h69l4 77q3 66 35.5 114.5t115.5 48.5q47 0 77.5 -20.5z" />
    <glyph glyph-name="Ohorn" unicode="&#x1a0;" horiz-adv-x="638" 
d="M507 607q61 -88 61 -263q0 -179 -64.5 -267.5t-184.5 -88.5t-184.5 88.5t-64.5 267.5t64.5 267.5t184.5 88.5q110 0 172 -72q24 10 34.5 22t10.5 30q0 24 -18 45q17 15 33 21q12 -12 17.5 -28.5t5.5 -31.5q0 -56 -67 -79zM480 97q56 81 56 247t-56 247t-161 81t-161 -81
t-56 -247t56 -247t161 -81t161 81z" />
    <glyph glyph-name="ohorn" unicode="&#x1a1;" 
d="M481 250q0 -124 -56.5 -193t-157.5 -69t-157.5 69t-56.5 193t56.5 193t157.5 69q76 0 127 -40q25 10 36.5 22.5t11.5 30.5q0 24 -18 45q17 15 33 21q12 -12 17.5 -28.5t5.5 -31.5q0 -53 -64 -78q65 -70 65 -203zM401 78q48 62 48 172t-48 172t-134 62t-134 -62t-48 -172
t48 -172t134 -62t134 62z" />
    <glyph glyph-name="Uhorn" unicode="&#x1af;" horiz-adv-x="642" 
d="M547 676v-3v-369q0 -156 -57.5 -236t-169.5 -80q-113 0 -166 76.5t-53 239.5v296q0 63 -6 87q8 8 18 8q17 0 17 -22v-369q0 -148 46.5 -218t143.5 -70t147.5 73t50.5 215v296q0 63 -6 87l7 6q27 10 39 22.5t12 31.5q0 24 -18 45q17 15 33 21q12 -12 17.5 -28.5t5.5 -31.5
q0 -52 -61 -77z" />
    <glyph glyph-name="uhorn" unicode="&#x1b0;" horiz-adv-x="551" 
d="M515 18q0 -11 -11 -17.5t-29 -6.5q-30 0 -43.5 19.5t-13.5 59.5v46q-21 -61 -69 -96t-104 -35q-81 0 -117.5 49.5t-37.5 169.5l-1 210q0 63 -6 87q8 8 18 8q17 0 17 -22l1 -284q0 -73 13 -114.5t41 -58.5t75 -17q38 0 77 22.5t66 76.5t27 142q0 150 -1 190t-5 57
q8 8 18 8q17 0 17 -22l1 -418q0 -28 6.5 -39t23.5 -11q19 0 27 18q10 -11 10 -22zM507 503q27 10 39 22.5t12 31.5q0 24 -18 45q17 15 33 21q12 -12 17.5 -28.5t5.5 -31.5q0 -31 -20 -51t-60 -32z" />
    <glyph glyph-name="uni01CD" unicode="&#x1cd;" horiz-adv-x="562" 
d="M547 1q-8 -9 -17 -9q-8 0 -14 3.5t-8 10.5l-78 228h-296l-70 -205q-5 -12 -5 -21q0 -10 2 -14q-6 -2 -16 -2q-8 0 -13.5 5t-4.5 13q0 5 2.5 13t3.5 11l227 658q11 8 22 8q19 0 25 -17l224 -652q8 -20 16 -30zM421 260l-140 408l-139 -408h279zM278 730q-11 0 -17 1
l-115 97q5 11 16 16l117 -78l116 78q11 -5 16 -16l-115 -97q-6 -1 -18 -1z" />
    <glyph glyph-name="uni01CE" unicode="&#x1ce;" 
d="M521 24q0 -15 -15 -24.5t-33 -9.5q-34 0 -50.5 22t-16.5 61v87q-37 -81 -101 -126.5t-132 -45.5q-58 0 -88 31.5t-30 82.5q0 54 39.5 95t117.5 62q60 16 136 16q30 0 58 -3v26q0 94 -39.5 140t-125.5 46q-55 0 -95.5 -19.5t-40.5 -67.5q0 -22 13 -42.5t37 -26.5
q-5 -9 -13 -12.5t-14 -3.5q-21 0 -36.5 26.5t-15.5 56.5q0 58 45.5 87.5t125.5 29.5q189 0 189 -214v-227q0 -53 38 -53q10 0 21 7.5t17 19.5q9 -10 9 -21zM281.5 50q52.5 35 88 90t36.5 111q-10 1 -34 1q-39 0 -83 -5.5t-75 -14.5q-127 -38 -127 -128q0 -38 22 -63.5
t70 -25.5q50 0 102.5 35zM254 595l103 92q16 0 24 -8l-110 -118q-6 -1 -18 -1q-11 0 -17 1l-110 118q2 4 10.5 6t14.5 2z" />
    <glyph glyph-name="uni01CF" unicode="&#x1cf;" horiz-adv-x="245" 
d="M109 14l-2 586q0 63 -6 87q8 8 18 8q8 0 13.5 -6t5.5 -16v-586q0 -63 6 -87q-8 -8 -18 -8q-17 0 -17 22zM117 730q-11 0 -17 1l-115 97q5 11 16 16l117 -78l116 78q11 -5 16 -16l-115 -97q-6 -1 -18 -1z" />
    <glyph glyph-name="uni01D0" unicode="&#x1d0;" horiz-adv-x="223" 
d="M129 0q-8 -8 -18 -8q-17 0 -17 22l-2 403q0 63 -6 87q8 8 18 8q17 0 17 -22l2 -403q0 -63 6 -87zM106 595l103 92q16 0 24 -8l-110 -118q-6 -1 -18 -1q-11 0 -17 1l-110 118q2 4 10.5 6t14.5 2z" />
    <glyph glyph-name="uni01D1" unicode="&#x1d1;" horiz-adv-x="638" 
d="M134.5 76.5q-64.5 88.5 -64.5 267.5t64.5 267.5t184.5 88.5t184.5 -88.5t64.5 -267.5t-64.5 -267.5t-184.5 -88.5t-184.5 88.5zM480 97q56 81 56 247t-56 247t-161 81t-161 -81t-56 -247t56 -247t161 -81t161 81zM317 730q-11 0 -17 1l-115 97q5 11 16 16l117 -78l116 78
q11 -5 16 -16l-115 -97q-6 -1 -18 -1z" />
    <glyph glyph-name="uni01D2" unicode="&#x1d2;" 
d="M109.5 57q-56.5 69 -56.5 193t56.5 193t157.5 69t157.5 -69t56.5 -193t-56.5 -193t-157.5 -69t-157.5 69zM401 78q48 62 48 172t-48 172t-134 62t-134 -62t-48 -172t48 -172t134 -62t134 62zM268 595l103 92q16 0 24 -8l-110 -118q-6 -1 -18 -1q-11 0 -17 1l-110 118
q2 4 10.5 6t14.5 2z" />
    <glyph glyph-name="uni01D3" unicode="&#x1d3;" horiz-adv-x="642" 
d="M547 304q0 -156 -57.5 -236t-169.5 -80q-113 0 -166 76.5t-53 239.5v296q0 63 -6 87q8 8 18 8q17 0 17 -22v-369q0 -148 46.5 -218t143.5 -70t147.5 73t50.5 215v296q0 63 -6 87q8 8 18 8q17 0 17 -22v-369zM319 730q-11 0 -17 1l-115 97q5 11 16 16l117 -78l116 78
q11 -5 16 -16l-115 -97q-6 -1 -18 -1z" />
    <glyph glyph-name="uni01D4" unicode="&#x1d4;" horiz-adv-x="551" 
d="M515 18q0 -11 -11 -17.5t-29 -6.5q-30 0 -43.5 19.5t-13.5 59.5v46q-21 -61 -69 -96t-104 -35q-81 0 -117.5 49.5t-37.5 169.5l-1 210q0 63 -6 87q8 8 18 8q17 0 17 -22l1 -284q0 -73 13 -114.5t41 -58.5t75 -17q38 0 77 22.5t66 76.5t27 142q0 150 -1 190t-5 57
q8 8 18 8q17 0 17 -22l1 -418q0 -28 6.5 -39t23.5 -11q19 0 27 18q10 -11 10 -22zM266 595l103 92q16 0 24 -8l-110 -118q-6 -1 -18 -1q-11 0 -17 1l-110 118q2 4 10.5 6t14.5 2z" />
    <glyph glyph-name="uni01D5" unicode="&#x1d5;" horiz-adv-x="642" 
d="M547 304q0 -156 -57.5 -236t-169.5 -80q-113 0 -166 76.5t-53 239.5v296q0 63 -6 87q8 8 18 8q17 0 17 -22v-369q0 -148 46.5 -218t143.5 -70t147.5 73t50.5 215v296q0 63 -6 87q8 8 18 8q17 0 17 -22v-369zM220 770.5q-10 10.5 -10 23.5q0 14 10 24t24 10q13 0 23.5 -10
t10.5 -24q0 -13 -10.5 -23.5t-23.5 -10.5q-14 0 -24 10.5zM380 770.5q-10 10.5 -10 23.5q0 14 10 24t24 10q13 0 23.5 -10t10.5 -24q0 -13 -10.5 -23.5t-23.5 -10.5q-14 0 -24 10.5zM438 908q3 -7 3 -15q0 -7 -3 -15h-235q-3 8 -3 15q0 8 3 15h235z" />
    <glyph glyph-name="uni01D6" unicode="&#x1d6;" horiz-adv-x="551" 
d="M515 18q0 -11 -11 -17.5t-29 -6.5q-30 0 -43.5 19.5t-13.5 59.5v46q-21 -61 -69 -96t-104 -35q-81 0 -117.5 49.5t-37.5 169.5l-1 210q0 63 -6 87q8 8 18 8q17 0 17 -22l1 -284q0 -73 13 -114.5t41 -58.5t75 -17q38 0 77 22.5t66 76.5t27 142q0 150 -1 190t-5 57
q8 8 18 8q17 0 17 -22l1 -418q0 -28 6.5 -39t23.5 -11q19 0 27 18q10 -11 10 -22zM164 597.5q-10 10.5 -10 23.5q0 14 10 24t24 10q13 0 23.5 -10t10.5 -24q0 -13 -10.5 -23.5t-23.5 -10.5q-14 0 -24 10.5zM324 597.5q-10 10.5 -10 23.5q0 14 10 24t24 10q13 0 23.5 -10
t10.5 -24q0 -13 -10.5 -23.5t-23.5 -10.5q-14 0 -24 10.5zM382 739q3 -6 3 -14q0 -6 -3 -14h-235q-3 8 -3 14q0 8 3 14h235z" />
    <glyph glyph-name="uni01D7" unicode="&#x1d7;" horiz-adv-x="642" 
d="M547 304q0 -156 -57.5 -236t-169.5 -80q-113 0 -166 76.5t-53 239.5v296q0 63 -6 87q8 8 18 8q17 0 17 -22v-369q0 -148 46.5 -218t143.5 -70t147.5 73t50.5 215v296q0 63 -6 87q8 8 18 8q17 0 17 -22v-369zM220 770.5q-10 10.5 -10 23.5q0 14 10 24t24 10q13 0 23.5 -10
t10.5 -24q0 -13 -10.5 -23.5t-23.5 -10.5q-14 0 -24 10.5zM380 770.5q-10 10.5 -10 23.5q0 14 10 24t24 10q13 0 23.5 -10t10.5 -24q0 -13 -10.5 -23.5t-23.5 -10.5q-14 0 -24 10.5zM311 839q-4 2 -8 7.5t-5 10.5l129 97q24 -12 34 -32z" />
    <glyph glyph-name="uni01D8" unicode="&#x1d8;" horiz-adv-x="551" 
d="M515 18q0 -11 -11 -17.5t-29 -6.5q-30 0 -43.5 19.5t-13.5 59.5v46q-21 -61 -69 -96t-104 -35q-81 0 -117.5 49.5t-37.5 169.5l-1 210q0 63 -6 87q8 8 18 8q17 0 17 -22l1 -284q0 -73 13 -114.5t41 -58.5t75 -17q38 0 77 22.5t66 76.5t27 142q0 150 -1 190t-5 57
q8 8 18 8q17 0 17 -22l1 -418q0 -28 6.5 -39t23.5 -11q19 0 27 18q10 -11 10 -22zM164 597.5q-10 10.5 -10 23.5q0 14 10 24t24 10q13 0 23.5 -10t10.5 -24q0 -13 -10.5 -23.5t-23.5 -10.5q-14 0 -24 10.5zM324 597.5q-10 10.5 -10 23.5q0 14 10 24t24 10q13 0 23.5 -10
t10.5 -24q0 -13 -10.5 -23.5t-23.5 -10.5q-14 0 -24 10.5zM267 669h-6q-17 0 -19 5l91 140q27 -1 45 -13z" />
    <glyph glyph-name="uni01D9" unicode="&#x1d9;" horiz-adv-x="642" 
d="M547 304q0 -156 -57.5 -236t-169.5 -80q-113 0 -166 76.5t-53 239.5v296q0 63 -6 87q8 8 18 8q17 0 17 -22v-369q0 -148 46.5 -218t143.5 -70t147.5 73t50.5 215v296q0 63 -6 87q8 8 18 8q17 0 17 -22v-369zM220 770.5q-10 10.5 -10 23.5q0 14 10 24t24 10q13 0 23.5 -10
t10.5 -24q0 -13 -10.5 -23.5t-23.5 -10.5q-14 0 -24 10.5zM380 770.5q-10 10.5 -10 23.5q0 14 10 24t24 10q13 0 23.5 -10t10.5 -24q0 -13 -10.5 -23.5t-23.5 -10.5q-14 0 -24 10.5zM319 842q-11 0 -17 1l-115 97q5 11 16 16l117 -78l116 78q11 -5 16 -16l-115 -97
q-6 -1 -18 -1z" />
    <glyph glyph-name="uni01DA" unicode="&#x1da;" horiz-adv-x="551" 
d="M515 18q0 -11 -11 -17.5t-29 -6.5q-30 0 -43.5 19.5t-13.5 59.5v46q-21 -61 -69 -96t-104 -35q-81 0 -117.5 49.5t-37.5 169.5l-1 210q0 63 -6 87q8 8 18 8q17 0 17 -22l1 -284q0 -73 13 -114.5t41 -58.5t75 -17q38 0 77 22.5t66 76.5t27 142q0 150 -1 190t-5 57
q8 8 18 8q17 0 17 -22l1 -418q0 -28 6.5 -39t23.5 -11q19 0 27 18q10 -11 10 -22zM164 597.5q-10 10.5 -10 23.5q0 14 10 24t24 10q13 0 23.5 -10t10.5 -24q0 -13 -10.5 -23.5t-23.5 -10.5q-14 0 -24 10.5zM324 597.5q-10 10.5 -10 23.5q0 14 10 24t24 10q13 0 23.5 -10
t10.5 -24q0 -13 -10.5 -23.5t-23.5 -10.5q-14 0 -24 10.5zM266 707l103 92q16 0 24 -8l-110 -118q-6 -1 -18 -1q-11 0 -17 1l-110 118q2 4 10.5 6t14.5 2z" />
    <glyph glyph-name="uni01DB" unicode="&#x1db;" horiz-adv-x="642" 
d="M547 304q0 -156 -57.5 -236t-169.5 -80q-113 0 -166 76.5t-53 239.5v296q0 63 -6 87q8 8 18 8q17 0 17 -22v-369q0 -148 46.5 -218t143.5 -70t147.5 73t50.5 215v296q0 63 -6 87q8 8 18 8q17 0 17 -22v-369zM220 770.5q-10 10.5 -10 23.5q0 14 10 24t24 10q13 0 23.5 -10
t10.5 -24q0 -13 -10.5 -23.5t-23.5 -10.5q-14 0 -24 10.5zM380 770.5q-10 10.5 -10 23.5q0 14 10 24t24 10q13 0 23.5 -10t10.5 -24q0 -13 -10.5 -23.5t-23.5 -10.5q-14 0 -24 10.5zM212 954l129 -97q-1 -5 -5 -10.5t-8 -7.5l-150 83q10 20 34 32z" />
    <glyph glyph-name="uni01DC" unicode="&#x1dc;" horiz-adv-x="551" 
d="M515 18q0 -11 -11 -17.5t-29 -6.5q-30 0 -43.5 19.5t-13.5 59.5v46q-21 -61 -69 -96t-104 -35q-81 0 -117.5 49.5t-37.5 169.5l-1 210q0 63 -6 87q8 8 18 8q17 0 17 -22l1 -284q0 -73 13 -114.5t41 -58.5t75 -17q38 0 77 22.5t66 76.5t27 142q0 150 -1 190t-5 57
q8 8 18 8q17 0 17 -22l1 -418q0 -28 6.5 -39t23.5 -11q19 0 27 18q10 -11 10 -22zM164 597.5q-10 10.5 -10 23.5q0 14 10 24t24 10q13 0 23.5 -10t10.5 -24q0 -13 -10.5 -23.5t-23.5 -10.5q-14 0 -24 10.5zM324 597.5q-10 10.5 -10 23.5q0 14 10 24t24 10q13 0 23.5 -10
t10.5 -24q0 -13 -10.5 -23.5t-23.5 -10.5q-14 0 -24 10.5zM184 814l91 -140q-1 -3 -10 -4.5t-15 -0.5l-111 132q18 12 45 13z" />
    <glyph glyph-name="Gcaron" unicode="&#x1e6;" horiz-adv-x="599" 
d="M135.5 78q-65.5 90 -65.5 265t65 266t187 91q48 0 87.5 -12.5t62.5 -32t23 -36.5q0 -8 -5 -13t-12 -5l-8 2q-8 30 -49.5 49.5t-96.5 19.5q-108 0 -165 -83.5t-57 -244.5q0 -162 57 -245t167 -83q104 0 140.5 62t36.5 142q0 72 -23 105.5t-64 33.5q-1 21 27 21
q37 0 64 -37.5t27 -124.5t-41.5 -158.5t-165.5 -71.5q-126 0 -191.5 90zM320 730q-11 0 -17 1l-115 97q5 11 16 16l117 -78l116 78q11 -5 16 -16l-115 -97q-6 -1 -18 -1z" />
    <glyph glyph-name="gcaron" unicode="&#x1e7;" horiz-adv-x="529" 
d="M99.5 -207.5q-43.5 32.5 -43.5 91.5q0 29 11 47t25 18q13 0 19 -9q-26 -15 -26 -53q0 -51 35.5 -75t89.5 -24q106 0 153.5 66t47.5 208v63q-20 -63 -68 -99t-114 -36q-86 0 -131 63.5t-45 193.5q0 104 43 184.5t170 80.5q49 0 97 -14t79 -52v-400q0 -286 -234 -286
q-65 0 -108.5 32.5zM337 55q40 37 57 89.5t17 102.5l1 186q-20 25 -61.5 38t-93.5 13q-101 0 -136.5 -72.5t-35.5 -166.5q0 -227 146 -227q66 0 106 37zM266 595l103 92q16 0 24 -8l-110 -118q-6 -1 -18 -1q-11 0 -17 1l-110 118q2 4 10.5 6t14.5 2z" />
    <glyph glyph-name="Scommaaccent" unicode="&#x218;" horiz-adv-x="543" 
d="M118 32q-52 44 -52 110q0 25 8.5 35.5t29.5 8.5q-5 -17 -5 -33q0 -69 47.5 -103t127.5 -34q83 0 130.5 35.5t47.5 103.5q0 43 -20.5 75t-57 58.5t-103.5 62.5q-66 36 -101.5 60.5t-57.5 58t-22 80.5q0 75 53.5 112.5t136.5 37.5t134 -35.5t51 -94.5q0 -12 -3 -19.5
t-10 -11.5q-6 -3 -12 -3l-12 2q6 11 6 26q0 53 -44.5 80.5t-111.5 27.5q-66 0 -111 -28t-45 -90q0 -44 23.5 -76t52 -49.5t90.5 -51.5q101 -54 148.5 -102.5t47.5 -119.5q0 -69 -47 -118t-161 -49q-106 0 -158 44zM242 -166q26 27 26 57q0 17 -7 26.5t-20 14.5q0 10 9.5 22
t27.5 12q15 0 27 -10t12 -37q0 -53 -57 -99q-12 4 -18 14z" />
    <glyph glyph-name="scommaaccent" unicode="&#x219;" horiz-adv-x="460" 
d="M89 23.5q-44 35.5 -44 90.5q0 24 9 34t28 8q-6 -15 -6 -32q0 -54 40 -81t108 -27q71 0 114.5 25t43.5 70q0 29 -15 48.5t-37.5 32t-63.5 30.5q-15 6 -45 20q-9 4 -57 27.5t-71.5 55.5t-23.5 75q0 58 45.5 85.5t116.5 27.5q81 0 123.5 -27.5t42.5 -75.5q0 -23 -13 -31
q-4 -3 -11 -3q-4 0 -12 2q5 11 5 26q0 41 -35.5 61t-101.5 20q-56 0 -92 -19.5t-36 -62.5q0 -35 18 -58.5t42 -37.5t76 -38l35 -16q48 -21 76 -36.5t47 -41t19 -62.5q0 -51 -42.5 -88t-144.5 -37q-94 0 -138 35.5zM200 -166q26 27 26 57q0 17 -7 26.5t-20 14.5q0 10 9.5 22
t27.5 12q15 0 27 -10t12 -37q0 -53 -57 -99q-12 4 -18 14z" />
    <glyph glyph-name="uni021A" unicode="&#x21a;" horiz-adv-x="503" 
d="M483 679q0 -5 -3.5 -10.5t-7.5 -6.5h-205l1 -575q0 -63 6 -87q-8 -8 -18 -8q-17 0 -17 22l-2 648h-205q-4 1 -7.5 6.5t-3.5 10.5q0 9 8 9h446q8 0 8 -9zM229 -166q26 27 26 57q0 17 -7 26.5t-20 14.5q0 10 9.5 22t27.5 12q15 0 27 -10t12 -37q0 -53 -57 -99q-12 4 -18 14
z" />
    <glyph glyph-name="uni021B" unicode="&#x21b;" horiz-adv-x="325" 
d="M270 502l-1 -14q-2 -14 -11 -14h-117v-46l-1 -357q0 -25 13 -40t38 -15q18 0 33 7.5t21 19.5q9 -10 9 -21q0 -16 -19 -25t-45 -9q-37 0 -58.5 21.5t-21.5 61.5v403h-14q-34 0 -60 -2l1 14q2 14 11 14h62v110q0 22 19 22q10 0 18 -8q-6 -14 -6 -124h77q32 0 52 2z
M153 -166q26 27 26 57q0 17 -7 26.5t-20 14.5q0 10 9.5 22t27.5 12q15 0 27 -10t12 -37q0 -53 -57 -99q-12 4 -18 14z" />
    <glyph glyph-name="uni0237" unicode="&#x237;" horiz-adv-x="238" 
d="M-32 -217q-23 19 -23 53q0 12 6 22t18 10h3q-2 -8 -2 -22q0 -54 62 -54q49 0 67 31.5t18 96.5l1 497q0 63 -6 87q8 8 18 8q17 0 17 -22l1 -573q0 -153 -114 -153q-43 0 -66 19z" />
    <glyph glyph-name="uni0251" unicode="&#x251;" horiz-adv-x="544" 
d="M508 17q0 -11 -11 -17.5t-29 -6.5q-57 0 -57 80v65q-26 -67 -73.5 -108.5t-118.5 -41.5q-100 0 -133 72t-33 162q0 135 53 211t155 76q55 0 94.5 -23.5t55.5 -67.5q1 10 1 35q0 42 -3 51q3 3 5.5 4.5t7.5 1.5q20 0 20 -22l-1 -417q0 -50 30 -50q19 0 27 18q10 -11 10 -22
zM320.5 50.5q43.5 34.5 67 95.5t23.5 136q0 82 -33 140.5t-119 58.5q-83 0 -128.5 -63.5t-45.5 -192.5q0 -209 136 -209q56 0 99.5 34.5z" />
    <glyph glyph-name="uni0259" unicode="&#x259;" horiz-adv-x="497" 
d="M387.5 447q56.5 -65 56.5 -190q0 -126 -57.5 -197.5t-165.5 -71.5q-75 0 -118.5 36t-43.5 101q0 75 60.5 113t176.5 38q52 0 116 -10q-3 115 -55 166t-131 51q-56 0 -99.5 -24.5t-56.5 -73.5q-14 5 -14 20q0 8 6 23q18 41 63 62.5t104 21.5q102 0 158.5 -65zM358 72
q51 57 54 169q-63 10 -128 10q-95 0 -144.5 -31.5t-49.5 -94.5q0 -58 38.5 -84t94.5 -26q84 0 135 57z" />
    <glyph glyph-name="uni0261" unicode="&#x261;" horiz-adv-x="529" 
d="M99.5 -207.5q-43.5 32.5 -43.5 91.5q0 29 11 47t25 18q13 0 19 -9q-26 -15 -26 -53q0 -51 35.5 -75t89.5 -24q106 0 153.5 66t47.5 208v63q-20 -63 -68 -99t-114 -36q-86 0 -131 63.5t-45 193.5q0 104 43 184.5t170 80.5q49 0 97 -14t79 -52v-400q0 -286 -234 -286
q-65 0 -108.5 32.5zM337 55q40 37 57 89.5t17 102.5l1 186q-20 25 -61.5 38t-93.5 13q-101 0 -136.5 -72.5t-35.5 -166.5q0 -227 146 -227q66 0 106 37z" />
    <glyph glyph-name="uni02BC" unicode="&#x2bc;" horiz-adv-x="600" 
d="M305 542h22l6 117q-5 2 -17 2q-11 0 -17 -2z" />
    <glyph glyph-name="circumflex" unicode="&#x2c6;" horiz-adv-x="600" 
d="M182.5 558q-8.5 2 -10.5 6l110 118q12 2 18 2q5 0 17 -2l110 -118q-8 -8 -24 -8l-103 92l-103 -92q-6 0 -14.5 2z" />
    <glyph glyph-name="caron" unicode="&#x2c7;" horiz-adv-x="600" 
d="M300 595l103 92q16 0 24 -8l-110 -118q-6 -1 -18 -1q-11 0 -17 1l-110 118q2 4 10.5 6t14.5 2z" />
    <glyph glyph-name="breve" unicode="&#x2d8;" horiz-adv-x="600" 
d="M369 616.5q24 24.5 35 54.5q18 -2 27 -5q-11 -44 -46.5 -74t-85.5 -30q-60 0 -95 32t-44 68q11 8 26 11q12 -30 39.5 -55.5t73.5 -25.5t70 24.5z" />
    <glyph glyph-name="dotaccent" unicode="&#x2d9;" horiz-adv-x="600" 
d="M273 583.5q-10 10.5 -10 23.5q0 14 10 24t24 10q13 0 23.5 -10t10.5 -24q0 -13 -10.5 -23.5t-23.5 -10.5q-14 0 -24 10.5z" />
    <glyph glyph-name="ring" unicode="&#x2da;" horiz-adv-x="600" 
d="M360 685q22 -21 22 -55q-1 -37 -23.5 -58.5t-60.5 -21.5q-36 0 -58 21t-22 55q0 37 23 58.5t61 21.5q36 0 58 -21zM259 669q-15 -15 -15 -41q0 -25 15 -40.5t41 -15.5q25 0 40.5 15.5t15.5 40.5q0 26 -15.5 41t-40.5 15q-26 0 -41 -15z" />
    <glyph glyph-name="ogonek" unicode="&#x2db;" horiz-adv-x="600" 
d="M249.5 -149q-23.5 19 -23.5 55q0 39 29 65.5t73 41.5l11 -15q-42 -19 -61.5 -39t-19.5 -49q0 -25 13.5 -39.5t39.5 -14.5q28 0 50 16t33 35q10 -7 7 -18q-13 -28 -38.5 -42.5t-55.5 -14.5q-34 0 -57.5 19z" />
    <glyph glyph-name="tilde" unicode="&#x2dc;" horiz-adv-x="600" 
d="M405 601.5q-20 -19.5 -48 -19.5q-19 0 -33 7t-31 20q-18 13 -29 18.5t-26 5.5q-20 0 -36.5 -12t-22.5 -34h-2q-7 0 -17 10q7 32 29.5 49.5t51.5 17.5q19 0 33.5 -7t30.5 -20q18 -12 29.5 -18t27.5 -6q19 0 29.5 11.5t19.5 35.5q13 0 20 -9q-6 -30 -26 -49.5z" />
    <glyph glyph-name="hungarumlaut" unicode="&#x2dd;" horiz-adv-x="600" 
d="M177 537q-11 3 -19 13l115 162q27 -3 43 -18zM303 537q-11 3 -19 13l115 162q27 -3 43 -18z" />
    <glyph glyph-name="gravecomb" unicode="&#x300;" horiz-adv-x="0" 
d="M-367 702l91 -140q-1 -3 -10 -4.5t-15 -0.5l-111 132q18 12 45 13z" />
    <glyph glyph-name="acutecomb" unicode="&#x301;" horiz-adv-x="0" 
d="M-346 557h-6q-17 0 -19 5l91 140q27 -1 45 -13z" />
    <glyph glyph-name="uni0302" unicode="&#x302;" horiz-adv-x="0" 
d="M-417.5 558q-8.5 2 -10.5 6l110 118q12 2 17 2q6 0 18 -2l110 -118q-8 -8 -24 -8l-103 92l-103 -92q-6 0 -14.5 2z" />
    <glyph glyph-name="tildecomb" unicode="&#x303;" horiz-adv-x="0" 
d="M-195 601.5q-20 -19.5 -48 -19.5q-19 0 -33 7t-31 20q-18 13 -29 18.5t-26 5.5q-20 0 -36.5 -12t-22.5 -34h-2q-7 0 -17 10q7 32 29.5 49.5t51.5 17.5q19 0 33.5 -7t30.5 -20q18 -12 29.5 -18t27.5 -6q19 0 29.5 11.5t19.5 35.5q13 0 20 -9q-6 -30 -26 -49.5z" />
    <glyph glyph-name="uni0304" unicode="&#x304;" horiz-adv-x="0" 
d="M-183 627q3 -6 3 -14q0 -6 -3 -14h-235q-3 8 -3 14q0 8 3 14h235z" />
    <glyph glyph-name="uni0306" unicode="&#x306;" horiz-adv-x="0" 
d="M-231 616.5q24 24.5 35 54.5q18 -2 27 -5q-11 -44 -46.5 -74t-85.5 -30q-60 0 -95 32t-44 68q11 8 26 11q12 -30 39.5 -55.5t73.5 -25.5t70 24.5z" />
    <glyph glyph-name="uni0307" unicode="&#x307;" horiz-adv-x="0" 
d="M-327 583.5q-10 10.5 -10 23.5q0 14 10 24t24 10q13 0 23.5 -10t10.5 -24q0 -13 -10.5 -23.5t-23.5 -10.5q-14 0 -24 10.5z" />
    <glyph glyph-name="uni0308" unicode="&#x308;" horiz-adv-x="0" 
d="M-404 597.5q-10 10.5 -10 23.5q0 14 10 24t24 10q13 0 23.5 -10t10.5 -24q0 -13 -10.5 -23.5t-23.5 -10.5q-14 0 -24 10.5zM-244 597.5q-10 10.5 -10 23.5q0 14 10 24t24 10q13 0 23.5 -10t10.5 -24q0 -13 -10.5 -23.5t-23.5 -10.5q-14 0 -24 10.5z" />
    <glyph glyph-name="hookabovecomb" unicode="&#x309;" horiz-adv-x="0" 
d="M-411 551q29 7 42.5 15.5t13.5 24.5q0 19 -22.5 26.5t-49.5 7.5l-2 29q45 0 77 -14.5t32 -46.5q0 -24 -19 -39.5t-63 -23.5z" />
    <glyph glyph-name="uni030A" unicode="&#x30a;" horiz-adv-x="0" 
d="M-240 685q22 -21 22 -55q-1 -37 -23.5 -58.5t-60.5 -21.5q-36 0 -58 21t-22 55q0 37 23 58.5t61 21.5q36 0 58 -21zM-341 669q-15 -15 -15 -41q0 -25 15 -40.5t41 -15.5q25 0 40.5 15.5t15.5 40.5q0 26 -15.5 41t-40.5 15q-26 0 -41 -15z" />
    <glyph glyph-name="uni030B" unicode="&#x30b;" horiz-adv-x="0" 
d="M-423 537q-11 3 -19 13l115 162q27 -3 43 -18zM-297 537q-11 3 -19 13l115 162q27 -3 43 -18z" />
    <glyph glyph-name="uni030C" unicode="&#x30c;" horiz-adv-x="0" 
d="M-300 595l103 92q16 0 24 -8l-110 -118q-6 -1 -18 -1q-11 0 -17 1l-110 118q2 4 10.5 6t14.5 2z" />
    <glyph glyph-name="uni031B" unicode="&#x31b;" horiz-adv-x="0" 
d="M-432 503q27 10 39 22.5t12 31.5q0 24 -18 45q17 15 33 21q12 -12 17.5 -28.5t5.5 -31.5q0 -31 -20 -51t-60 -32z" />
    <glyph glyph-name="dotbelowcomb" unicode="&#x323;" horiz-adv-x="0" 
d="M-324 -103q-10 10 -10 24q0 13 10 23.5t24 10.5q13 0 23.5 -10.5t10.5 -23.5q0 -14 -10.5 -24t-23.5 -10q-14 0 -24 10z" />
    <glyph glyph-name="uni0324" unicode="&#x324;" horiz-adv-x="0" 
d="M-404 -121q-10 10 -10 24q0 13 10 23.5t24 10.5q13 0 23.5 -10.5t10.5 -23.5q0 -14 -10.5 -24t-23.5 -10q-14 0 -24 10zM-244 -121q-10 10 -10 24q0 13 10 23.5t24 10.5q13 0 23.5 -10.5t10.5 -23.5q0 -14 -10.5 -24t-23.5 -10q-14 0 -24 10z" />
    <glyph glyph-name="uni0326" unicode="&#x326;" horiz-adv-x="0" 
d="M-332 -166q26 27 26 57q0 17 -7 26.5t-20 14.5q0 10 9.5 22t27.5 12q15 0 27 -10t12 -37q0 -53 -57 -99q-12 4 -18 14z" />
    <glyph glyph-name="uni0327" unicode="&#x327;" horiz-adv-x="0" 
d="M-302 -41q38 0 59 -19t21 -51q0 -35 -24.5 -56.5t-61.5 -21.5q-52 0 -78 28v2q0 5 3.5 11t8.5 9q12 -10 25.5 -16t36.5 -6q26 0 41.5 12t15.5 36q0 49 -65 49l-17 -1l14 65h30z" />
    <glyph glyph-name="uni0328" unicode="&#x328;" horiz-adv-x="0" 
d="M-350.5 -149q-23.5 19 -23.5 55q0 39 29 65.5t73 41.5l11 -15q-42 -19 -61.5 -39t-19.5 -49q0 -25 13.5 -39.5t39.5 -14.5q28 0 50 16t33 35q10 -7 7 -18q-13 -28 -38.5 -42.5t-55.5 -14.5q-34 0 -57.5 19z" />
    <glyph glyph-name="uni032E" unicode="&#x32e;" horiz-adv-x="0" 
d="M-192 -43l27 -5q-11 -43 -48.5 -73.5t-89.5 -30.5q-56 0 -90 32t-43 68l26 11q12 -30 39.5 -54.5t73.5 -24.5q76 0 105 77z" />
    <glyph glyph-name="uni0331" unicode="&#x331;" horiz-adv-x="0" 
d="M-183 -72q3 -8 3 -14q0 -8 -3 -14h-235q-3 6 -3 14q0 6 3 14h235z" />
    <glyph glyph-name="uni03A9" unicode="&#x3a9;" horiz-adv-x="618" 
d="M588 16q0 -7 -4.5 -11.5t-12.5 -4.5h-208v18q76 22 119.5 116.5t43.5 239.5q0 150 -56 224t-161 74t-161 -74t-56 -224q0 -92 23 -168t60.5 -124.5t79.5 -63.5v-18h-208q-8 0 -12.5 4.5t-4.5 11.5q0 5 3 11l175 -7q-64 40 -106 134.5t-42 219.5q0 164 64.5 245t184.5 81
t184.5 -81t64.5 -245q0 -128 -37 -222t-103 -132l167 7q3 -6 3 -11z" />
    <glyph glyph-name="pi" unicode="&#x3c0;" horiz-adv-x="575" 
d="M453 474l-1 -403q0 -25 10.5 -39t30.5 -14q14 0 26 7t18 20q9 -10 9 -21q0 -16 -16 -25t-38 -9q-32 0 -51 21.5t-19 61.5v401h-287l1 -387q0 -63 6 -87q-8 -8 -18 -8q-17 0 -17 22l-2 460h-20q-34 0 -60 -2l1 14q2 14 11 14h461q32 0 52 2l-1 -14q-2 -14 -11 -14h-85z
" />
    <glyph glyph-name="uni0964" unicode="&#x964;" horiz-adv-x="230" 
d="M100 730h30v-862l-30 -10v872z" />
    <glyph glyph-name="uni0965" unicode="&#x965;" horiz-adv-x="401" 
d="M271 730h30v-862l-30 -10v872zM100 730h30v-862l-30 -10v872z" />
    <glyph glyph-name="uni0B82" unicode="&#xb82;" horiz-adv-x="0" 
d="M-64.5 632q-23.5 25 -23.5 63t23.5 63t64.5 25t65 -25t24 -63t-24 -63t-65 -25t-64.5 25zM43 651.5q16 17.5 16 43.5t-16 43.5t-43 17.5q-26 0 -42 -17.5t-16 -43.5t16 -43.5t42 -17.5q27 0 43 17.5z" />
    <glyph glyph-name="uni0B83" unicode="&#xb83;" horiz-adv-x="703" 
d="M256.5 315.5q-35.5 37.5 -35.5 93.5t35.5 93.5t96.5 37.5t97 -37t36 -94t-36 -94t-97 -37t-96.5 37.5zM429.5 332.5q28.5 30.5 28.5 76.5t-28.5 76.5t-76.5 30.5t-76 -30.5t-28 -76.5t28 -76.5t76 -30.5t76.5 30.5zM86 25q-36 37 -36 94t36 94t97 37t96.5 -37.5
t35.5 -93.5q0 -58 -35.5 -94.5t-96.5 -36.5t-97 37zM423.5 24.5q-35.5 36.5 -35.5 94.5t35.5 94.5t96.5 36.5t97 -37t36 -94t-36 -94t-97 -37t-96.5 36.5zM259 42.5q28 30.5 28 76.5t-28 76.5t-76 30.5t-76.5 -30.5t-28.5 -76.5t28.5 -76.5t76.5 -30.5t76 30.5zM596.5 42.5
q28.5 30.5 28.5 76.5t-28.5 76.5t-76.5 30.5t-76 -30.5t-28 -76.5t28 -76.5t76 -30.5t76.5 30.5z" />
    <glyph glyph-name="uni0B85" unicode="&#xb85;" horiz-adv-x="1006" 
d="M884 -39.5q0 -18.5 1 -28.5t4 -15q-7 -12 -20 -12q-10 0 -13 9.5t-3 30.5v215h-143q-33 -74 -101.5 -123.5t-154.5 -73.5t-174 -24q-80 0 -136 19t-85 51.5t-29 73.5q0 50 44 76.5t135 26.5h478q17 48 17 105q0 107 -51 164.5t-149 57.5q-64 0 -107 -26t-56 -75
q17 27 43 37t50 10q46 0 76 -28t30 -74q0 -48 -33 -78t-82 -30q-54 0 -83 37t-29 89q0 50 26 87.5t71.5 57.5t101.5 20q97 0 160.5 -60t63.5 -191q0 -53 -16 -103h133v149v132q0 26 -1 35t-5 23q8 8 18 8q19 0 19 -22v-525v-25.5zM367 410.5q-22 -22.5 -22 -57.5
q0 -37 22.5 -58t57.5 -21q36 0 60.5 23t24.5 59q0 35 -22.5 56t-59.5 21q-39 0 -61 -22.5zM422 -18.5q77 16.5 148.5 60t106.5 118.5h-469q-147 0 -147 -80q0 -56 65 -85.5t155 -29.5q64 0 141 16.5z" />
    <glyph glyph-name="uni0B86" unicode="&#xb86;" horiz-adv-x="1051" 
d="M1014.5 72.5q16.5 -39.5 16.5 -85.5q0 -87 -49.5 -164.5t-150 -126t-246.5 -48.5q-145 0 -194.5 41t-49.5 87q0 33 21.5 61.5t65 45.5t106.5 17q47 0 75.5 -9t40.5 -21.5t12 -22.5q0 -7 -6.5 -13.5t-15.5 -6.5q-11 20 -35.5 34.5t-79.5 14.5q-73 0 -113.5 -29t-40.5 -69
q0 -46 54.5 -75t163.5 -29q127 0 219.5 41t141 112.5t48.5 163.5q0 35 -10.5 65t-42.5 30q-23 0 -43.5 -18.5t-33.5 -52t-13 -77.5q0 -15 3 -16q-7 -12 -20 -12q-10 0 -13 9.5t-3 30.5l-1 210h-120q-46 -111 -163 -166t-256 -55q-81 0 -138 19t-85.5 51.5t-28.5 73.5
q0 50 44 76.5t135 26.5h468q17 49 17 111q0 102 -51.5 159t-147.5 57q-65 0 -108 -26t-56 -75q17 27 43 37t50 10q46 0 76 -28t30 -74q0 -48 -33 -78t-82 -30q-54 0 -83 37t-29 89q0 75 56.5 120t143.5 45q102 0 162.5 -65.5t60.5 -181.5q0 -56 -16 -107h111v149q0 88 1 112
v30q0 18 -1 25.5t-6 22.5q8 8 18 8q19 0 19 -22l1 -477q13 34 39 56t59 22q47 0 63.5 -39.5zM357 410.5q-22 -22.5 -22 -57.5q0 -37 22.5 -58t57.5 -21q36 0 60.5 23t24.5 59q0 35 -22.5 56t-59.5 21q-39 0 -61 -22.5zM416 -20q74 15 145 58t106 122h-459q-147 0 -147 -80
q0 -56 64.5 -85.5t155.5 -29.5q61 0 135 15z" />
    <glyph glyph-name="uni0B87" unicode="&#xb87;" horiz-adv-x="838" 
d="M690 600.5q84 -88.5 84 -252.5q0 -67 -18 -157q-4 -21 -20 -21q-8 0 -15 4q25 90 25 175q0 149 -79 231t-215 82q-91 0 -157 -36.5t-101 -102.5t-35 -153q0 -107 53 -205q85 28 178 28q101 0 186 -34q34 73 34 148q0 90 -46 151.5t-137 61.5q-34 0 -57 -10q16 2 24 2
q47 0 77 -29.5t30 -76.5t-30.5 -77t-78.5 -30q-50 0 -83 32t-33 79q0 36 20.5 66.5t57.5 48.5t83 18q59 0 104 -29t70.5 -81t25.5 -121q0 -82 -38 -163q66 -30 104.5 -74.5t38.5 -94.5q0 -44 -33 -75t-108 -31q-102 0 -203 60q-103 -60 -201 -60q-68 0 -107.5 30t-39.5 88
q0 56 37 96.5t99 66.5q-55 102 -55 209q0 68 24.5 141t96 128.5t199.5 55.5q155 0 239 -88.5zM329 468.5q-23 -22.5 -23 -58.5q0 -37 24 -60.5t61 -23.5q36 0 58.5 22.5t22.5 59.5t-23 60t-60 23t-60 -22.5zM225 142q32 -54 77 -99t96 -77q51 32 94 75.5t72 94.5
q-85 33 -175 33q-83 0 -164 -27zM282 -86q45 13 89 37q-51 33 -95 80t-77 101q-54 -23 -86.5 -57.5t-32.5 -80.5q0 -48 34 -70.5t85 -22.5q38 0 83 13zM678 62.5q-34 36.5 -91 63.5q-57 -103 -162 -176q92 -49 170 -49q53 0 85 22t32 62q0 41 -34 77.5z" />
    <glyph glyph-name="uni0B88" unicode="&#xb88;" horiz-adv-x="661" 
d="M641 519q0 -11 -7 -14t-18 -3h-183v-455q0 -37 2 -45q-7 -7 -15 -7q-17 0 -17 17v490h-281v-502h-27v528h545q1 -3 1 -9zM284.5 276.5q9.5 -9.5 9.5 -22.5q0 -14 -9.5 -23.5t-22.5 -9.5t-22 9.5t-9 23.5q0 13 9 22.5t22 9.5t22.5 -9.5zM571 276.5q9 -9.5 9 -22.5
q0 -14 -9 -23.5t-22 -9.5t-22.5 9.5t-9.5 23.5q0 13 9.5 22.5t22.5 9.5t22 -9.5z" />
    <glyph glyph-name="uni0B89" unicode="&#xb89;" horiz-adv-x="870" 
d="M57.5 18q-17.5 18 -17.5 52q0 32 16.5 47t45.5 19.5t88 6.5q107 4 175 43.5t68 144.5q0 87 -46 134.5t-132 47.5q-73 0 -117.5 -30.5t-57.5 -78.5q28 39 86 39q46 0 75 -29t29 -71q0 -46 -29.5 -74t-84.5 -28q-50 0 -77.5 34t-27.5 84q0 52 27 93t74.5 64.5t107.5 23.5
q86 0 145.5 -50t59.5 -152q0 -98 -64 -158t-197 -64q-18 0 -26 -1q-49 -1 -68.5 -3.5t-29 -12t-9.5 -31.5q0 -42 54 -42l725 4v-26l-732 -4q-43 0 -60.5 18zM216.5 286.5q23.5 20.5 23.5 53.5q0 35 -21.5 56t-56.5 21t-57 -21t-22 -54t20.5 -54.5t52.5 -21.5q37 0 60.5 20.5
z" />
    <glyph glyph-name="uni0B8A" unicode="&#xb8a;" horiz-adv-x="1320" 
d="M1285 30v-26l-1162 -4q-43 0 -60.5 18t-17.5 52q0 32 16.5 47t45.5 19.5t88 6.5q106 4 174.5 45t68.5 145q0 86 -46 133t-132 47q-73 0 -117.5 -30.5t-57.5 -78.5q28 39 86 39q46 0 75 -29t29 -71q0 -46 -29.5 -74t-84.5 -28q-50 0 -77.5 34t-27.5 84q0 52 27 93
t74.5 64.5t107.5 23.5q55 0 101.5 -21t75 -66t28.5 -113q0 -98 -64.5 -159t-196.5 -65q-18 0 -26 -1q-49 -1 -68.5 -3.5t-29 -12t-9.5 -31.5q0 -42 54 -42zM555 302q0 122 53 180t145 58q49 0 87 -16t60 -40t29 -47q0 58 28.5 77t75.5 19h221q3 -13 -6 -18t-31 -5h-33v-360
q0 -29 1 -35q-10 -6 -15 -6q-16 0 -16 14v387h-121q-31 0 -47.5 -8t-23 -29t-6.5 -64v-269q0 -19 1 -25q-8 -6 -14 -6q-11 0 -13.5 3.5t-2.5 10.5v242q0 27 -18.5 62t-57.5 61t-97 26q-73 0 -121 -48t-48 -167q0 -89 26 -128.5t70 -48.5q-24 14 -33.5 44t-9.5 62
q0 54 27.5 87.5t72.5 33.5q44 0 71 -32t27 -91q0 -64 -34 -95t-92 -31q-155 0 -155 202zM110 396q-22 -21 -22 -54t20.5 -54.5t52.5 -21.5q37 0 60.5 20.5t23.5 53.5q0 35 -21.5 56t-56.5 21t-57 -21zM685 155.5q19 -25.5 49 -25.5q32 0 51 26.5t19 71.5q0 40 -17 67t-51 27
q-33 0 -51.5 -27.5t-18.5 -70.5t19 -68.5z" />
    <glyph glyph-name="uni0B8E" unicode="&#xb8e;" horiz-adv-x="724" 
d="M724 519q0 -11 -7 -14t-18 -3h-130v-455q0 -37 2 -45q-7 -7 -15 -7q-17 0 -17 17v490h-146q-145 0 -225 -61.5t-80 -216.5q0 -97 37.5 -148t94.5 -59q-30 18 -42.5 56t-12.5 78q0 66 35 109.5t90 43.5q57 0 91 -40.5t34 -113.5q0 -81 -42.5 -121.5t-107.5 -40.5
q-93 0 -149 57t-56 175q0 163 83.5 235.5t246.5 72.5h333q1 -3 1 -9zM217.5 55q26.5 -34 65.5 -34q48 0 75 35t27 95q0 53 -23.5 88.5t-71.5 35.5t-73.5 -36t-25.5 -91q0 -59 26.5 -93z" />
    <glyph glyph-name="uni0B8F" unicode="&#xb8f;" horiz-adv-x="721" 
d="M721 519q0 -11 -7 -14t-18 -3h-130v-410q0 -86 -55 -151.5t-126.5 -102t-113.5 -38.5q-9 -1 -17 5t-9 15q12 0 25 3q49 12 111 47t108.5 92.5t46.5 131.5v408h-143q-145 0 -225 -61.5t-80 -216.5q0 -97 37.5 -148.5t94.5 -59.5q-30 18 -42.5 56t-12.5 78q0 66 35 109.5
t90 43.5q57 0 91 -40.5t34 -113.5q0 -81 -42.5 -121.5t-107.5 -40.5q-93 0 -149 57t-56 176q0 163 83.5 235.5t246.5 72.5h330q1 -3 1 -9zM217.5 54q26.5 -34 65.5 -34q48 0 75 35t27 95q0 53 -23.5 88.5t-71.5 35.5t-73.5 -36t-25.5 -91q0 -59 26.5 -93z" />
    <glyph glyph-name="uni0B90" unicode="&#xb90;" horiz-adv-x="776" 
d="M83.5 -86.5q-40.5 40.5 -40.5 107.5q0 189 352 197q150 3 230 46t80 128q0 67 -37.5 95.5t-91.5 28.5q-73 0 -113 -51.5t-46 -162.5h-30q-2 111 -41.5 162.5t-129.5 51.5q-59 0 -97.5 -23.5t-49.5 -67.5q28 41 84 41q42 0 70 -26.5t28 -67.5q0 -45 -30 -72.5t-76 -27.5
q-53 0 -79 33t-26 81q0 73 51.5 115t130.5 42q72 0 120.5 -36.5t63.5 -113.5q35 149 173 150q74 0 115.5 -37.5t41.5 -111.5q0 -194 -338 -203q-178 -5 -251 -48.5t-73 -123.5q0 -64 37.5 -91.5t88.5 -27.5q50 0 90 28.5t63.5 74.5t27.5 97h30q8 -83 42 -141.5t129 -58.5
q57 0 90.5 31t33.5 88q0 53 -30.5 89t-78.5 47q3 11 8.5 14t15.5 3q21 -1 47.5 -18.5t46 -51.5t19.5 -81q0 -76 -43.5 -112t-104.5 -36q-64 0 -106.5 26.5t-62.5 63t-26 71.5q-21 -75 -75 -118t-119 -43q-73 0 -113.5 40.5zM199 319q21 20 21 52t-20 50t-53 18
q-34 0 -53 -19.5t-19 -50.5q0 -33 20 -51.5t51 -18.5q32 0 53 20z" />
    <glyph glyph-name="uni0B92" unicode="&#xb92;" horiz-adv-x="723" 
d="M491.5 183.5q-28.5 28.5 -28.5 73.5q0 20 5.5 38t15.5 28q-19 -3 -44.5 -21t-44 -49t-18.5 -70q0 -57 43.5 -91t125.5 -34q33 0 60 5l7 -14q-30 -78 -92.5 -126.5t-139.5 -48.5q-65 0 -101 33.5t-36 80.5q0 36 21 36q6 0 10 -3q-1 -7 -1 -25q0 -46 30.5 -71t80.5 -25
q67 0 120 42t75 95q-15 -2 -48 -2q-88 0 -136 40t-48 109q0 58 31.5 97.5t75.5 58.5t80 19l11 -19q-29 -10 -41.5 -31t-12.5 -47q0 -36 20.5 -58t52.5 -22q40 0 64 34t24 87q0 65 -39.5 112.5t-107.5 72.5t-152 25q-119 0 -194.5 -51.5t-90.5 -135.5q27 40 84 40
q42 0 70 -26.5t28 -67.5q0 -45 -30 -72.5t-76 -27.5q-53 0 -79 35t-26 83q0 73 38.5 129.5t110 88.5t168.5 32q92 0 166 -28t117 -82.5t43 -129.5q0 -66 -31.5 -105.5t-85.5 -39.5q-46 0 -74.5 28.5zM94 319.5q-19 -19.5 -19 -50.5q0 -33 20 -51.5t51 -18.5q32 0 53 20
t21 52t-20 50t-53 18q-34 0 -53 -19.5z" />
    <glyph glyph-name="uni0B93" unicode="&#xb93;" horiz-adv-x="722" 
d="M491.5 183.5q-28.5 28.5 -28.5 73.5q0 20 5.5 38t15.5 28q-20 -4 -45.5 -21.5t-43.5 -47t-18 -69.5q0 -63 46 -95t121 -32q27 0 62 5l7 -14q-46 -85 -112.5 -138t-170.5 -53q-81 0 -123.5 33.5t-42.5 87.5q0 51 31.5 83.5t79.5 32.5q36 0 60.5 -19.5t24.5 -53.5
q0 -32 -21.5 -54.5t-56.5 -22.5q-33 0 -53.5 19.5t-20.5 51.5q0 16 5 28q-19 -22 -19 -63q0 -40 34 -68.5t102 -28.5q96 0 153.5 45t94.5 107q-15 -2 -43 -2q-86 0 -136.5 39.5t-50.5 112.5q0 60 33 99t76.5 56t77.5 18l11 -19q-29 -10 -41.5 -31t-12.5 -48q0 -35 20 -57
t53 -22q42 0 64.5 34.5t22.5 86.5q0 65 -37.5 113.5t-105 74t-154.5 25.5q-119 0 -195 -51.5t-91 -135.5q27 40 84 40q42 0 70 -26.5t28 -67.5q0 -45 -30 -72.5t-76 -27.5q-53 0 -79 35t-26 83q0 73 38.5 129.5t110 88.5t168.5 32q94 0 167.5 -29t115.5 -84t42 -130
q0 -64 -30 -104.5t-86 -40.5q-46 0 -74.5 28.5zM94 322.5q-19 -19.5 -19 -50.5q0 -33 20 -51.5t51 -18.5q32 0 53 20t21 52t-20 50t-53 18q-34 0 -53 -19.5zM244.5 56q-11.5 -14 -11.5 -36q0 -25 14 -38.5t35 -13.5q23 0 36.5 14t13.5 36t-13.5 37t-38.5 15q-24 0 -35.5 -14
z" />
    <glyph glyph-name="uni0B94" unicode="&#xb94;" horiz-adv-x="1750" 
d="M491.5 183.5q-28.5 28.5 -28.5 73.5q0 20 5.5 38t15.5 28q-19 -3 -44.5 -21t-44 -49t-18.5 -70q0 -57 43.5 -91t125.5 -34q33 0 60 5l7 -14q-30 -78 -92.5 -126.5t-139.5 -48.5q-65 0 -101 33.5t-36 80.5q0 36 21 36q6 0 10 -3q-1 -7 -1 -25q0 -46 30.5 -71t80.5 -25
q67 0 120 42t75 95q-15 -2 -48 -2q-88 0 -136 40t-48 109q0 58 31.5 97.5t75.5 58.5t80 19l11 -19q-29 -10 -41.5 -31t-12.5 -47q0 -36 20.5 -58t52.5 -22q40 0 64 34t24 87q0 65 -39.5 112.5t-107.5 72.5t-152 25q-119 0 -194.5 -51.5t-90.5 -135.5q27 40 84 40
q42 0 70 -26.5t28 -67.5q0 -45 -30 -72.5t-76 -27.5q-53 0 -79 35t-26 83q0 73 38.5 129.5t110 88.5t168.5 32q92 0 166 -28t117 -82.5t43 -129.5q0 -66 -31.5 -105.5t-85.5 -39.5q-46 0 -74.5 28.5zM94 319.5q-19 -19.5 -19 -50.5q0 -33 20 -51.5t51 -18.5q32 0 53 20
t21 52t-20 50t-53 18q-34 0 -53 -19.5zM1750 519q0 -11 -7 -14t-18 -3h-130v-455q0 -37 2 -45q-7 -7 -15 -7q-17 0 -17 17v490h-177q-41 0 -62 -10.5t-30 -38t-9 -83.5v-337q0 -23 2 -31q-7 -7 -19 -7q-15 0 -13 17v309q0 37 -23.5 81.5t-73.5 77t-125 32.5
q-97 0 -160.5 -62.5t-63.5 -214.5q0 -195 132 -218q-30 18 -42.5 56t-12.5 77q0 68 35 111t92 43q55 0 89 -41t34 -114q0 -81 -42.5 -121t-115.5 -40q-90 0 -143.5 58.5t-53.5 192.5q0 154 67 227.5t183 73.5q62 0 109.5 -20.5t76 -51.5t38.5 -62q0 73 36 97.5t95 24.5h361
q1 -3 1 -9zM940.5 54.5q26.5 -33.5 69.5 -33.5q44 0 71 35.5t27 93.5q0 54 -23.5 89.5t-71.5 35.5t-73.5 -36t-25.5 -93q0 -58 26.5 -91.5z" />
    <glyph glyph-name="uni0B95" unicode="&#xb95;" horiz-adv-x="749" 
d="M652.5 271q46.5 -38 46.5 -118q0 -72 -40 -118.5t-124 -46.5q-40 0 -40 17q0 8 7 13q21 -3 33 -3q66 0 100 34.5t34 100.5q0 69 -39 101t-136 32h-50v-58q0 -124 -56.5 -180.5t-149.5 -56.5q-88 0 -138 45t-50 116q0 52 27.5 95t98.5 58v185q0 22 9 31.5t27 9.5h412
q1 -3 1 -9q0 -11 -7 -14t-18 -3h-156v-193h56q106 0 152.5 -38zM204 307q24 2 40 2h170v193h-193q-17 0 -17 -18v-177zM414 283h-174q-84 0 -123 -36t-39 -97q0 -64 45.5 -99t116.5 -35q75 0 124.5 45.5t49.5 156.5v65z" />
    <glyph glyph-name="uni0B99" unicode="&#xb99;" horiz-adv-x="907" 
d="M799.5 528.5q5.5 -6.5 5.5 -15.5v-513h-454v22q67 24 117 47.5t96.5 72.5t46.5 120q0 48 -25 82t-83 34t-90 -38t-33 -108v-64q-8 -4 -14 -4q-10 0 -13 3t-3 10v325h-228v-502h-27v528h459q1 -3 1 -9q0 -11 -7 -14t-18 -3h-150v-173q16 34 47 55.5t79 21.5
q75 0 105.5 -43t30.5 -101q0 -96 -63 -149t-151 -87h347v448q0 1 0.5 21t-7.5 32q8 8 17 8t14.5 -6.5z" />
    <glyph glyph-name="uni0B9A" unicode="&#xb9a;" horiz-adv-x="654" 
d="M430 502v-194h169q1 -2 1 -8q0 -7 -3.5 -12t-11.5 -5h-155v-58q0 -124 -54 -181t-141 -57q-54 0 -96 21t-65.5 57.5t-23.5 82.5q0 53 27 97t97 58v184q0 22 9 31.5t27 9.5h403q1 -4 1 -10q0 -12 -12 -14t-49 -2h-123zM400 502h-181q-17 0 -17 -18v-177q9 1 28 1h170v194z
M400 283h-171q-80 -1 -115.5 -37.5t-35.5 -97.5q0 -62 46 -97.5t111 -35.5q70 0 117.5 45.5t47.5 157.5v65z" />
    <glyph glyph-name="uni0B9C" unicode="&#xb9c;" horiz-adv-x="780" 
d="M706.5 111q33.5 -36 33.5 -97q0 -73 -41 -104.5t-97 -31.5t-92.5 32t-36.5 93q0 48 22 85q-18 -11 -35.5 -28t-45.5 -48q-40 -43 -69 -69.5t-68 -45.5t-86 -19q-62 0 -103 35.5t-41 108.5q0 64 34.5 99.5t100 55t192.5 41.5q137 24 198 39t96.5 47t35.5 91q0 64 -36 91
t-89 27q-72 0 -113 -51t-48 -163h-30q-4 107 -42.5 160.5t-129.5 53.5q-115 0 -141 -88q13 22 34.5 30t43.5 8q42 0 70 -26.5t28 -68.5q0 -44 -30.5 -71.5t-78.5 -27.5q-52 0 -77 33.5t-25 81.5q0 72 52 114t133 42q73 0 122 -37t59 -113q16 69 57 109.5t120 40.5
q72 0 112.5 -35.5t40.5 -108.5q0 -70 -39.5 -107t-106.5 -54.5t-212 -42.5q-114 -20 -172.5 -36t-92.5 -47.5t-34 -88.5q0 -62 35 -88t80 -26q35 0 65 14.5t54.5 36t60.5 59.5q41 43 71 69t70 44t89 18q69 0 102.5 -36zM94 415.5q-19 -19.5 -19 -50.5q0 -32 19.5 -50.5
t50.5 -18.5q32 0 53 20t21 52q0 31 -19.5 49t-52.5 18q-34 0 -53 -19.5zM676.5 -68q30.5 27 30.5 83q0 52 -27 78.5t-74 26.5q-50 0 -74.5 -30t-24.5 -80q0 -53 25.5 -79t68.5 -26q45 0 75.5 27z" />
    <glyph glyph-name="uni0B9E" unicode="&#xb9e;" horiz-adv-x="1047" 
d="M966 323q31 -55 31 -136q0 -173 -121 -264t-339 -91q-185 0 -291.5 58.5t-146 143t-39.5 174.5q0 68 17.5 132.5t45 108.5t53.5 56q6 3 11 3q8 0 14 -8q-47 -34 -79 -112t-32 -174q0 -150 101.5 -252t345.5 -102q201 0 315.5 79.5t114.5 244.5q0 73 -25.5 120.5
t-84.5 47.5q-60 0 -97.5 -48t-38.5 -126v-131q0 -37 2 -45q-7 -7 -15 -7q-17 0 -17 17v490h-132q-140 0 -217.5 -61t-77.5 -214q0 -99 34.5 -150.5t87.5 -59.5q-30 18 -42.5 56t-12.5 77q0 67 34.5 110.5t92.5 43.5q55 0 89 -40.5t34 -113.5q0 -82 -42.5 -122t-113.5 -40
q-85 0 -137 58.5t-52 181.5q0 157 82.5 228.5t237.5 71.5h321q1 -3 1 -9q0 -11 -7 -14t-18 -3h-132v-216q16 41 49 66.5t86 25.5q79 0 110 -55zM384 54.5q27 -33.5 69 -33.5q44 0 71 35.5t27 94.5q0 53 -23.5 88.5t-71.5 35.5t-73.5 -35.5t-25.5 -92.5q0 -59 27 -92.5z" />
    <glyph glyph-name="uni0B9F" unicode="&#xb9f;" horiz-adv-x="764" 
d="M754 0h-635q-12 0 -14.5 7.5t-2.5 17.5v14v420q0 48 -7 66q8 8 18 8q8 0 13.5 -6.5t5.5 -15.5v-485h622v-26z" />
    <glyph glyph-name="uni0BA3" unicode="&#xba3;" horiz-adv-x="1493" 
d="M1493 519q0 -11 -7 -14t-18 -3h-129v-455q0 -37 2 -45q-7 -7 -15 -7q-17 0 -17 17v490h-102q-80 0 -146 -33q57 -44 87.5 -114t30.5 -165q0 -91 -39 -146t-114 -55q-85 0 -121 54.5t-36 141.5q0 96 34.5 169t98.5 116q-71 40 -167 40q-99 0 -173 -43q64 -45 98.5 -113.5
t34.5 -158.5q0 -93 -40 -150t-119 -57q-78 0 -113 55t-35 145t30.5 162t90.5 118q-87 45 -205 45q-140 0 -228 -67.5t-88 -218.5q0 -98 38.5 -150.5t93.5 -59.5q-30 18 -42.5 56t-12.5 77q0 68 34 111t90 43q54 0 87 -40.5t33 -113.5q0 -82 -41.5 -122t-111.5 -40
q-85 0 -140.5 59t-55.5 180q0 155 91.5 234t250.5 79q134 0 232 -55q84 52 202 52q115 0 197 -49q75 40 177 40h282q1 -3 1 -9zM1117.5 347.5q-30.5 64.5 -85.5 104.5q-62 -41 -97.5 -109.5t-35.5 -157.5q0 -79 32 -123.5t92 -44.5q61 0 93 47t32 132q0 87 -30.5 151.5z
M731 346.5q-33 64.5 -93 104.5q-58 -42 -89 -110.5t-31 -153.5q0 -82 31.5 -126.5t89.5 -44.5q60 0 92.5 47t32.5 131q0 88 -33 152.5zM217 54.5q26 -33.5 67 -33.5q42 0 68.5 35.5t26.5 94.5q0 53 -23 88.5t-69 35.5t-71 -36t-25 -93q0 -58 26 -91.5z" />
    <glyph glyph-name="uni0BA4" unicode="&#xba4;" horiz-adv-x="695" 
d="M598 259.5q47 -50.5 47 -161.5q0 -102 -70 -162t-192 -60h-134q-65 0 -113.5 -19t-48.5 -66q0 -13 4.5 -23t13.5 -11q-1 -8 -7.5 -15t-17.5 -7q-27 0 -27 46q0 59 49 90.5t136 31.5h147q111 0 170.5 53t59.5 142q0 97 -40 141.5t-119 44.5h-26v-59q0 -123 -54 -180
t-141 -57q-54 0 -96 21t-65.5 57.5t-23.5 81.5q0 52 24.5 95t87.5 59v185q0 22 9 31.5t27 9.5h411q1 -3 1 -9q0 -11 -7 -14t-18 -3h-155v-192h26q95 0 142 -50.5zM190 308q24 2 40 2h170v192l-193 -1q-17 0 -17 -17v-176zM400 284h-171q-151 -1 -151 -136q0 -61 46 -96.5
t111 -35.5q70 0 117.5 45t47.5 157v66z" />
    <glyph glyph-name="uni0BA8" unicode="&#xba8;" horiz-adv-x="720" 
d="M637 316q28 -62 28 -165q0 -104 -25.5 -163.5t-85.5 -86t-168 -26.5h-95q-66 0 -114 -18.5t-48 -65.5q0 -13 4.5 -23t13.5 -11q-1 -8 -7.5 -15t-17.5 -7q-27 0 -27 46q0 59 49 90.5t136 31.5h105q98 0 151 20t76 72t23 152q0 95 -22 150t-77 55q-34 0 -63.5 -21.5
t-47.5 -60t-19 -88.5v-135q0 -37 2 -45q-7 -7 -15 -7q-17 0 -17 17v490h-228v-502h-27v528h441q1 -3 1 -9q0 -17 -25 -17h-132v-218q16 41 47.5 67.5t80.5 26.5q75 0 103 -62z" />
    <glyph glyph-name="uni0BA9" unicode="&#xba9;" horiz-adv-x="1111" 
d="M1111 519q0 -11 -7 -14t-18 -3h-130v-455q0 -37 2 -45q-7 -7 -15 -7q-17 0 -17 17v490h-82q-94 0 -171 -42q59 -44 91 -110t32 -150q0 -96 -41 -154t-120 -58q-78 0 -113.5 55t-35.5 142q0 89 36 159.5t100 116.5q-91 52 -225 52q-137 0 -223 -67t-86 -219
q0 -98 38.5 -150.5t93.5 -59.5q-30 18 -42.5 56t-12.5 77q0 68 34 111t90 43q54 0 87 -40.5t33 -113.5q0 -82 -41.5 -122t-110.5 -40q-86 0 -141.5 58.5t-55.5 180.5q0 158 87 235.5t248 77.5q149 0 252 -63q88 51 200 51h263q1 -3 1 -9zM734.5 343q-30.5 62 -87.5 102
q-61 -41 -96 -107t-35 -154q0 -78 32.5 -123t90.5 -45q59 0 92.5 48.5t33.5 134.5q0 82 -30.5 144zM217 54.5q26 -33.5 67 -33.5q42 0 68.5 35.5t26.5 94.5q0 53 -23 88.5t-69 35.5t-71 -36t-25 -93q0 -58 26 -91.5z" />
    <glyph glyph-name="uni0BAA" unicode="&#xbaa;" horiz-adv-x="804" 
d="M104.5 7.5q-2.5 7.5 -2.5 17.5v14v433q0 1 0.5 21t-7.5 32q8 8 18 8q8 0 13.5 -6.5t5.5 -15.5v-485h540v446q0 1 0.5 21t-7.5 32q8 8 18 8q8 0 13.5 -6.5t5.5 -15.5v-472q0 -20 -3 -29.5t-14 -9.5h-566q-12 0 -14.5 7.5z" />
    <glyph glyph-name="uni0BAE" unicode="&#xbae;" horiz-adv-x="799" 
d="M661.5 497q45.5 -43 66.5 -111.5t21 -145.5q0 -63 -9 -112.5t-47 -88.5t-117 -39h-457q-12 0 -14.5 7.5t-2.5 17.5v14v420q0 48 -7 66q8 8 17 8t14.5 -6.5t5.5 -15.5v-485h294v347q0 93 32.5 130t89.5 37q68 0 113.5 -43zM456 26h115q89 0 120 50.5t31 140.5
q0 123 -41 210t-127 87q-98 0 -98 -132v-356z" />
    <glyph glyph-name="uni0BAF" unicode="&#xbaf;" horiz-adv-x="895" 
d="M793 23q0 -12 -4 -17.5t-13 -5.5h-376q-12 0 -14.5 7.5t-2.5 17.5v14v8q-26 -24 -67.5 -41.5t-92.5 -17.5q-121 0 -121 107v377q0 1 0.5 21t-7.5 32q8 8 17 8t14.5 -6.5t5.5 -15.5v-405q0 -47 21 -69t75 -22q40 0 82.5 18t72.5 52v387q0 1 0.5 21t-7.5 32q8 8 17 8
t14.5 -6.5t5.5 -15.5v-485h350v446q0 1 0.5 21t-7.5 32q8 8 17 8t14.5 -6.5t5.5 -15.5v-472v-16z" />
    <glyph glyph-name="uni0BB0" unicode="&#xbb0;" horiz-adv-x="590" 
d="M590 519q0 -11 -7 -14t-18 -3l-130 -1v-447q0 -79 -44.5 -136t-103.5 -86.5t-101 -31.5q-9 -1 -17 5t-9 15q12 0 25 3q47 12 97.5 40t86.5 76.5t36 114.5v447l-283 -1v-500h-27v528h494q1 -3 1 -9z" />
    <glyph glyph-name="uni0BB1" unicode="&#xbb1;" horiz-adv-x="709" 
d="M103 0v363q0 73 27 125t101 52q96 0 114 -118q27 118 145 118q65 0 100 -37t47 -101t12 -161q0 -146 -25 -223t-87.5 -110t-182.5 -33h-68q-66 0 -114 -18.5t-48 -65.5q0 -13 4.5 -23t13.5 -11q-1 -8 -7.5 -15t-17.5 -7q-27 0 -27 46q0 58 49 89t136 31h99q99 0 151.5 34
t73 106t20.5 198q0 96 -11.5 155t-40.5 89t-80 30q-59 0 -94 -41t-35 -135v-304q0 -23 2 -31q-7 -7 -15 -7q-9 0 -11.5 4.5t-2.5 12.5v335q0 64 -21 115t-74 51q-63 0 -83.5 -44.5t-20.5 -112.5l1 -47v-309h-30z" />
    <glyph glyph-name="uni0BB2" unicode="&#xbb2;" horiz-adv-x="849" 
d="M115 51q-55 63 -55 194q0 151 72 223t190 72q80 0 120 -32t51.5 -85.5t11.5 -141.5v-38q0 -76 6.5 -122.5t30.5 -76t74 -29.5q82 0 116 72.5t34 173.5q0 116 -33 175t-67 81q0 9 4.5 16t12.5 7q18 0 44.5 -32t46.5 -95t20 -153q0 -130 -46 -201t-132 -71q-87 0 -115 65
t-28 172v38v37q0 68 -10.5 112.5t-45 72.5t-101.5 28q-93 0 -160.5 -59t-67.5 -207q0 -105 37 -164.5t95 -65.5q-30 18 -42.5 56t-12.5 77q0 68 34.5 111t91.5 43q55 0 88.5 -41t33.5 -114q0 -81 -42 -121t-112 -40q-89 0 -144 63zM356 56.5q27 35.5 27 93.5q0 53 -23.5 89
t-70.5 36t-72.5 -36t-25.5 -92q0 -59 26.5 -92.5t68.5 -33.5q43 0 70 35.5z" />
    <glyph glyph-name="uni0BB3" unicode="&#xbb3;" horiz-adv-x="1027" 
d="M1027 519q0 -11 -7 -14t-18 -3h-130v-455q0 -37 2 -45q-7 -7 -15 -7q-17 0 -17 17v490h-177q-41 0 -62 -10.5t-30 -38t-9 -83.5v-337q0 -23 2 -31q-7 -7 -19 -7q-15 0 -13 17v309q0 37 -23.5 81.5t-73.5 77t-125 32.5q-97 0 -160.5 -62.5t-63.5 -214.5q0 -195 132 -218
q-30 18 -42.5 56t-12.5 77q0 68 35 111t92 43q55 0 89 -41t34 -114q0 -81 -42.5 -121t-115.5 -40q-90 0 -143.5 58.5t-53.5 192.5q0 154 67 227.5t183 73.5q62 0 109.5 -20.5t76 -51.5t38.5 -62q0 73 36 97.5t95 24.5h361q1 -3 1 -9zM217.5 54.5q26.5 -33.5 69.5 -33.5
q44 0 71 35.5t27 93.5q0 54 -23.5 89.5t-71.5 35.5t-73.5 -36t-25.5 -93q0 -58 26.5 -91.5z" />
    <glyph glyph-name="uni0BB4" unicode="&#xbb4;" horiz-adv-x="799" 
d="M157 -230.5q-29 28.5 -29 76.5q0 45 22 67.5t48 22.5q11 0 18 -4.5t7 -12.5t-6 -14q-4 3 -13 3q-17 0 -31.5 -13.5t-14.5 -47.5q0 -38 21.5 -59t65.5 -21q43 0 77.5 17t75.5 48q34 24 50 32q-14 4 -18 19t-4 47v37v33h-307q-12 0 -14.5 7.5t-2.5 17.5v14v420q0 48 -7 66
q8 8 17 8t14.5 -6.5t5.5 -15.5v-485h294v350q0 91 32.5 127.5t89.5 36.5q68 0 113.5 -43t66.5 -111.5t21 -145.5q0 -63 -9 -112.5t-47 -88.5t-117 -39h-120v-33q0 -51 2 -68t11 -21.5t36 -4.5h172v-26h-174q-26 0 -48 -11t-53 -34q-41 -29 -75 -45t-81 -16q-60 0 -89 28.5z
M571 26q89 0 120 50.5t31 140.5q0 123 -40.5 210t-127.5 87q-98 0 -98 -129v-359h115z" />
    <glyph glyph-name="uni0BB5" unicode="&#xbb5;" horiz-adv-x="1008" 
d="M117 49.5q-57 61.5 -57 189.5q0 148 77.5 224t213.5 76q131 0 197.5 -71t66.5 -186q0 -137 -95 -256h356v446q0 1 0.5 21t-7.5 32q8 8 17 8t14.5 -6.5t5.5 -15.5v-511h-437v14q47 49 80.5 111t33.5 154q0 107 -59.5 170t-174.5 63q-113 0 -187 -63t-74 -209
q0 -103 39.5 -159.5t102.5 -63.5q-30 14 -42.5 53t-12.5 80q0 68 34.5 111t90.5 43q55 0 88 -41t33 -114q0 -86 -42 -126t-112 -35q-93 0 -150 61.5zM364 54q27 37 27 96q0 53 -23 89t-70 36t-72 -36t-25 -93q0 -59 26.5 -94t67.5 -31q42 -4 69 33z" />
    <glyph glyph-name="uni0BB6" unicode="&#xbb6;" horiz-adv-x="911" 
d="M809 528v-357q0 -79 -30 -131t-116 -52q-65 0 -105.5 44t-40.5 145v324l-123 -1v-329q0 -79 -30 -131t-116 -52q-65 0 -105.5 44t-40.5 145v318q0 22 -7 31q1 3 5.5 5t9.5 2q9 0 14 -6t5 -16v-318q0 -72 25 -125t94 -53q72 0 96 45.5t24 111.5l-1 36v320h442zM759 60.5
q24 45.5 24 111.5l-1 36v294l-238 -1v-308q0 -72 25 -125t94 -53q72 0 96 45.5z" />
    <glyph glyph-name="uni0BB7" unicode="&#xbb7;" horiz-adv-x="1241" 
d="M1156 373v-373h-211v-246h-30v246h-446v14q47 49 80.5 111t33.5 154q0 107 -59.5 170.5t-174.5 63.5q-113 0 -187 -63.5t-74 -209.5q0 -103 39.5 -159.5t102.5 -63.5q-30 18 -42.5 56t-12.5 77q0 68 34.5 111t90.5 43q55 0 88 -41t33 -114q0 -81 -42 -121t-112 -40
q-93 0 -150 61.5t-57 189.5q0 148 77.5 224.5t213.5 76.5q131 0 197.5 -71t66.5 -187q0 -137 -95 -256h395v193q-22 -3 -46 -3q-174 0 -174 154q0 66 32 103t92 37q64 0 95 -47.5t31 -149.5v-60q53 14 99 46t82 74h30zM915 246v60q0 92 -23.5 133.5t-73.5 41.5
q-45 0 -69 -31t-24 -86q0 -60 36 -91t104 -31q29 0 50 4zM1126 26v310q-76 -89 -181 -112v-198h181zM227 54.5q26 -33.5 68 -33.5q43 0 69.5 35.5t26.5 93.5q0 53 -23 89t-70 36t-72 -36t-25 -93q0 -58 26 -91.5z" />
    <glyph glyph-name="uni0BB8" unicode="&#xbb8;" horiz-adv-x="1141" 
d="M114 46.5q-54 58.5 -54 192.5q0 154 67 230.5t179 76.5q157 0 227 -170q0 72 29 121t114 49q61 0 93 -30.5t42.5 -79t10.5 -116.5l-1 -58l-1 -49q0 -99 20 -148.5t78 -49.5q74 0 109 77t35 183q1 9 1 27q0 64 -17 111.5t-38.5 74.5t-35.5 35q0 8 4 15.5t12 7.5
q16 0 40.5 -30t43.5 -85t19 -127q0 -19 -1 -29q0 -91 -22 -156t-60.5 -98t-86.5 -33q-62 0 -90.5 37t-35 91t-6.5 147v39q0 69 -7 113.5t-31.5 74t-74.5 29.5q-65 0 -89 -42t-24 -107v-337q0 -23 2 -31q-7 -7 -18 -7q-9 0 -11.5 4.5t-2.5 12.5v247q0 57 -27 117.5
t-78.5 101.5t-122.5 41q-56 0 -105 -26.5t-80.5 -90t-31.5 -168.5q0 -109 36 -158t96 -59q-30 18 -42.5 56t-12.5 77q0 68 35 111t92 43q55 0 89 -41t34 -114q0 -81 -42.5 -121t-115.5 -40q-89 0 -143 58.5zM358 56.5q27 35.5 27 93.5q0 54 -23.5 89.5t-71.5 35.5t-73.5 -36
t-25.5 -93q0 -58 26.5 -91.5t69.5 -33.5q44 0 71 35.5z" />
    <glyph glyph-name="uni0BB9" unicode="&#xbb9;" horiz-adv-x="1387" 
d="M104 -219q0 58 49 89t136 31h728q112 0 171.5 27t84 94t24.5 195q0 107 -12 171t-40.5 94.5t-79.5 30.5q-59 0 -93.5 -42.5t-34.5 -139.5v-298q0 -23 2 -31q-7 -7 -15 -7q-9 0 -11.5 4.5t-2.5 12.5v329q0 65 -24.5 118.5t-82.5 53.5q-45 0 -65.5 -29.5t-24 -66
t-3.5 -97.5v-320h-351v14q47 49 80.5 111t33.5 154q0 107 -59.5 170.5t-174.5 63.5q-108 0 -179.5 -63.5t-71.5 -209.5q0 -103 37 -159.5t95 -63.5q-30 18 -42.5 56t-12.5 77q0 68 34.5 111t90.5 43q55 0 88 -41t33 -114q0 -81 -42 -121t-112 -40q-89 0 -143 61.5t-54 189.5
q0 149 75 225t206 76t197.5 -71t66.5 -187q0 -137 -95 -256h270v331q0 183 123 183q42 0 77.5 -31.5t43.5 -92.5q28 124 141 124q69 0 104 -38t46.5 -106.5t11.5 -181.5q0 -132 -26.5 -204t-92.5 -103.5t-190 -31.5h-718q-66 0 -114 -18.5t-48 -65.5q0 -13 4.5 -23t13.5 -11
q-1 -8 -7.5 -15t-17.5 -7q-27 0 -27 46zM354.5 56.5q26.5 35.5 26.5 93.5q0 53 -23 89t-70 36t-72 -36t-25 -93q0 -58 26 -91.5t68 -33.5q43 0 69.5 35.5z" />
    <glyph glyph-name="uni0BBE" unicode="&#xbbe;" horiz-adv-x="614" 
d="M614 517q0 -10 -9.5 -12.5t-30.5 -2.5h-114v-455q0 -37 2 -45q-7 -7 -15 -7q-17 0 -17 17v490h-283v-502h-30v528h495q2 -4 2 -11z" />
    <glyph glyph-name="uni0BBF" unicode="&#xbbf;" horiz-adv-x="264" 
d="M119 -1.5q-2 3.5 -2 8v5.5v414q0 149 -45 234.5t-159 85.5q-70 0 -108.5 -32t-38.5 -85q0 -46 29 -73.5t77 -27.5q0 -11 -5 -20q-63 0 -96 34t-33 87q0 61 44 102t132 41q131 0 182 -91t51 -247v-401q0 -23 2 -31q-7 -7 -18 -7q-10 0 -12 3.5z" />
    <glyph glyph-name="uni0BC0" unicode="&#xbc0;" horiz-adv-x="0" 
d="M-349.5 524.5q-36.5 13.5 -67 47t-30.5 89.5q0 68 48.5 107t131.5 39q77 0 114 -38t37 -88q0 -44 -28.5 -71t-73.5 -27q-44 0 -74 26.5t-30 71.5q0 41 30.5 70.5t70.5 27.5q-20 4 -45 4q-64 0 -107 -33t-43 -90q0 -62 40.5 -93.5t84.5 -38.5l-4 -16q-18 -1 -54.5 12.5z
M-165.5 628.5q19.5 19.5 19.5 53.5q0 32 -18 53.5t-55 21.5t-55.5 -22t-18.5 -52q0 -31 18 -52.5t56 -21.5q34 0 53.5 19.5z" />
    <glyph glyph-name="uni0BC1" unicode="&#xbc1;" horiz-adv-x="374" 
d="M85 303q-36 37 -36 92q0 34 14 61.5t40 45.5h-221v26h299q61 0 97 -37t36 -94t-36 -94t-97 -37q-60 0 -96 37zM257.5 320.5q28.5 30.5 28.5 76.5t-28.5 75.5t-76.5 29.5t-76 -29.5t-28 -75.5t28 -76.5t76 -30.5t76.5 30.5z" />
    <glyph glyph-name="uni0BC2" unicode="&#xbc2;" horiz-adv-x="569" 
d="M118 303q-36 37 -36 92q0 58 32 107h-263v26h281q33 39 82.5 61.5t113.5 22.5q73 0 127 -42.5t54 -135.5q0 -60 -24.5 -97t-54.5 -52t-48 -15q-12 0 -14 3.5t-1 12.5q57 8 85.5 51.5t28.5 99.5q0 75 -45 113.5t-109 38.5q-47 0 -92 -17t-66 -44h38q66 0 103 -37t37 -94
t-36 -94t-97 -37q-60 0 -96 37zM290.5 320.5q28.5 30.5 28.5 76.5t-28.5 75.5t-76.5 29.5t-76 -29.5t-28 -75.5t28 -76.5t76 -30.5t76.5 30.5z" />
    <glyph glyph-name="uni0BC6" unicode="&#xbc6;" horiz-adv-x="737" 
d="M128.5 58.5q-68.5 70.5 -68.5 232.5q0 122 39 207t107.5 127.5t157.5 42.5q127 0 191.5 -82t64.5 -221v-337q0 -23 2 -31q-7 -7 -15 -7q-9 0 -11.5 4.5t-2.5 12.5l1 343q0 82 -25 148t-77 105t-129 39q-73 0 -135.5 -36.5t-101 -115t-38.5 -198.5q0 -142 54.5 -205
t137.5 -70q-30 18 -42.5 56t-12.5 77q0 68 35 111t92 43q55 0 89 -41t34 -115q0 -160 -169 -160q-109 0 -177.5 70.5zM418 56.5q27 35.5 27 93.5q0 54 -23.5 89.5t-71.5 35.5t-73.5 -36t-25.5 -93q0 -58 26.5 -91.5t69.5 -33.5q44 0 71 35.5z" />
    <glyph glyph-name="uni0BC7" unicode="&#xbc7;" horiz-adv-x="602" 
d="M205.5 29q-70.5 41 -108 115.5t-37.5 173.5q0 90 31 170t98.5 130t170.5 50q163 0 163 -155q0 -70 -33.5 -106.5t-89.5 -36.5q-58 0 -92.5 38t-34.5 102q0 41 14 77t41 52q-119 -14 -177.5 -101.5t-58.5 -216.5q0 -135 66 -211t184 -96q-29 17 -43 52.5t-14 75.5
q0 66 35.5 107.5t94.5 41.5q56 0 89 -38.5t33 -112.5q0 -152 -164 -152q-97 0 -167.5 41zM469.5 427.5q23.5 31.5 23.5 80.5q0 56 -27.5 91.5t-70.5 35.5q-41 0 -67.5 -33t-26.5 -90q0 -53 25 -84.5t72 -31.5q48 0 71.5 31.5zM480 53.5q27 35.5 27 93.5q0 51 -22.5 84.5
t-68.5 33.5q-47 0 -75 -34.5t-28 -90.5q0 -55 27 -88.5t69 -33.5q44 0 71 35.5z" />
    <glyph glyph-name="uni0BC8" unicode="&#xbc8;" horiz-adv-x="1090" 
d="M916 502q61 -38 92.5 -105.5t31.5 -155.5q0 -79 -27.5 -136.5t-74 -87t-100.5 -29.5q-9 2 -14 7.5t-4 12.5q42 0 86 24.5t73.5 76.5t29.5 130q0 81 -30 143.5t-85 96.5t-128 34t-131 -40q63 -44 97 -113t34 -160q0 -96 -39.5 -154t-113.5 -58q-73 0 -105 54t-32 146
q0 90 28 163.5t80 120.5q-80 41 -189 41q-85 0 -154.5 -29t-111 -93t-41.5 -163q0 -97 37.5 -150.5t94.5 -60.5q-30 18 -42.5 56t-12.5 77q0 68 34 111t90 43q54 0 87 -40.5t33 -113.5q0 -82 -41.5 -122t-111.5 -40q-85 0 -140.5 58.5t-55.5 180.5q0 156 89.5 234.5
t243.5 78.5q124 0 214 -49q70 49 161 49q87 0 148 -38zM703 351.5q-32 64.5 -91 104.5q-50 -44 -78 -114t-28 -155q0 -83 28.5 -127t81.5 -44q56 0 87.5 48t31.5 134q0 89 -32 153.5zM217 54.5q26 -33.5 67 -33.5q42 0 68.5 35.5t26.5 94.5q0 53 -23 88.5t-69 35.5t-71 -36
t-25 -93q0 -58 26 -91.5z" />
    <glyph glyph-name="uni0BCA" unicode="&#xbca;" horiz-adv-x="1925" 
d="M591 28q0 -23 2 -31q-7 -7 -15 -7q-9 0 -11.5 4.5t-2.5 12.5l1 343q0 82 -25 148t-77 105t-129 39q-73 0 -135.5 -36.5t-101 -115t-38.5 -198.5q0 -142 54.5 -205t137.5 -70q-30 18 -42.5 56t-12.5 77q0 68 35 111t92 43q55 0 89 -41t34 -115q0 -160 -169 -160
q-109 0 -177.5 70.5t-68.5 232.5q0 122 39 207t107.5 127.5t157.5 42.5q127 0 191.5 -82t64.5 -221v-337zM1012 544q8 -8 8 -20t-8 -20t-19 -8q-12 0 -20 8t-8 20t8 20t20 8q11 0 19 -8zM874 485q-8 8 -8 20t8 20t19 8q12 0 20 -8t8 -20t-8 -20t-20 -8q-11 0 -19 8z
M1112 525q8 -8 8 -20t-8 -20t-19 -8q-12 0 -20 8t-8 20t8 20t20 8q11 0 19 -8zM1930 517q0 -10 -9.5 -12.5t-30.5 -2.5h-114v-455q0 -37 2 -45q-7 -7 -15 -7q-17 0 -17 17v490h-283v-502h-30v528h495q2 -4 2 -11zM830 469q8 -8 8 -20t-8 -20t-20 -8q-11 0 -19 8t-8 20t8 20
t19 8q12 0 20 -8zM1156 429q-8 8 -8 20t8 20t20 8q11 0 19 -8t8 -20t-8 -20t-19 -8q-12 0 -20 8zM734 345q-8 8 -8 20t8 20t19 8q12 0 20 -8t8 -20t-8 -20t-20 -8q-11 0 -19 8zM1213 345q-8 8 -8 20t8 20t20 8q11 0 19 -8t8 -20t-8 -20t-19 -8q-12 0 -20 8zM754 245
q-8 -8 -20 -8q-11 0 -19 8t-8 20t8 20t19 8q12 0 20 -8t8 -20t-8 -20zM1271 285q8 -8 8 -20t-8 -20t-19 -8q-12 0 -20 8t-8 20t8 20t20 8q11 0 19 -8zM248.5 54.5q26.5 -33.5 69.5 -33.5q44 0 71 35.5t27 93.5q0 54 -23.5 89.5t-71.5 35.5t-73.5 -36t-25.5 -93
q0 -58 26.5 -91.5zM775 187q8 -8 8 -20t-8 -20t-20 -8q-11 0 -19 8t-8 20t8 20t19 8q12 0 20 -8zM1250 187q8 -8 8 -20t-8 -20t-19 -8q-12 0 -20 8t-8 20t8 20t20 8q11 0 19 -8zM830 104q8 -8 8 -20t-8 -20t-20 -8q-11 0 -19 8t-8 20t8 20t19 8q12 0 20 -8zM1195 104
q8 -8 8 -20t-8 -20t-19 -8q-12 0 -20 8t-8 20t8 20t20 8q11 0 19 -8zM915 47q8 -8 8 -20t-8 -20t-20 -8q-11 0 -19 8t-8 20t8 20t19 8q12 0 20 -8zM1110 47q8 -8 8 -20t-8 -20t-19 -8q-12 0 -20 8t-8 20t8 20t20 8q11 0 19 -8zM1012 28q8 -8 8 -20t-8 -20t-19 -8
q-12 0 -20 8t-8 20t8 20t20 8q11 0 19 -8z" />
    <glyph glyph-name="uni0BCB" unicode="&#xbcb;" horiz-adv-x="1789" 
d="M504 252.5q33 -38.5 33 -112.5q0 -152 -164 -152q-97 0 -167.5 41t-108 115.5t-37.5 173.5q0 90 31 170t98.5 130t170.5 50q163 0 163 -155q0 -70 -33.5 -106.5t-89.5 -36.5q-58 0 -92.5 38t-34.5 102q0 41 14 77t41 52q-119 -14 -177.5 -101.5t-58.5 -216.5
q0 -135 66 -211t184 -96q-29 17 -43 52.5t-14 75.5q0 66 35.5 107.5t94.5 41.5q56 0 89 -38.5zM327.5 602q-26.5 -33 -26.5 -90q0 -53 25 -84.5t72 -31.5q48 0 71.5 31.5t23.5 80.5q0 56 -27.5 91.5t-70.5 35.5q-41 0 -67.5 -33zM893 544q8 -8 8 -20t-8 -20t-19 -8
q-12 0 -20 8t-8 20t8 20t20 8q11 0 19 -8zM755 485q-8 8 -8 20t8 20t19 8q12 0 20 -8t8 -20t-8 -20t-20 -8q-11 0 -19 8zM993 525q8 -8 8 -20t-8 -20t-19 -8q-12 0 -20 8t-8 20t8 20t20 8q11 0 19 -8zM1797 517q0 -10 -9.5 -12.5t-30.5 -2.5h-114v-455q0 -37 2 -45
q-7 -7 -15 -7q-17 0 -17 17v490h-283v-502h-30v528h495q2 -4 2 -11zM711 469q8 -8 8 -20t-8 -20t-20 -8q-11 0 -19 8t-8 20t8 20t19 8q12 0 20 -8zM1037 429q-8 8 -8 20t8 20t20 8q11 0 19 -8t8 -20t-8 -20t-19 -8q-12 0 -20 8zM615 345q-8 8 -8 20t8 20t19 8q12 0 20 -8
t8 -20t-8 -20t-20 -8q-11 0 -19 8zM1094 345q-8 8 -8 20t8 20t20 8q11 0 19 -8t8 -20t-8 -20t-19 -8q-12 0 -20 8zM635 245q-8 -8 -20 -8q-11 0 -19 8t-8 20t8 20t19 8q12 0 20 -8t8 -20t-8 -20zM1152 285q8 -8 8 -20t-8 -20t-19 -8q-12 0 -20 8t-8 20t8 20t20 8q11 0 19 -8
zM480 53.5q27 35.5 27 93.5q0 51 -22.5 84.5t-68.5 33.5q-47 0 -75 -34.5t-28 -90.5q0 -55 27 -88.5t69 -33.5q44 0 71 35.5zM656 187q8 -8 8 -20t-8 -20t-20 -8q-11 0 -19 8t-8 20t8 20t19 8q12 0 20 -8zM1131 187q8 -8 8 -20t-8 -20t-19 -8q-12 0 -20 8t-8 20t8 20t20 8
q11 0 19 -8zM711 104q8 -8 8 -20t-8 -20t-20 -8q-11 0 -19 8t-8 20t8 20t19 8q12 0 20 -8zM1076 104q8 -8 8 -20t-8 -20t-19 -8q-12 0 -20 8t-8 20t8 20t20 8q11 0 19 -8zM796 47q8 -8 8 -20t-8 -20t-20 -8q-11 0 -19 8t-8 20t8 20t19 8q12 0 20 -8zM991 47q8 -8 8 -20
t-8 -20t-19 -8q-12 0 -20 8t-8 20t8 20t20 8q11 0 19 -8zM893 28q8 -8 8 -20t-8 -20t-19 -8q-12 0 -20 8t-8 20t8 20t20 8q11 0 19 -8z" />
    <glyph glyph-name="uni0BCC" unicode="&#xbcc;" horiz-adv-x="2327" 
d="M586 28q0 -23 2 -31q-7 -7 -15 -7q-9 0 -11.5 4.5t-2.5 12.5l1 343q0 82 -25 148t-77 105t-129 39q-73 0 -135.5 -36.5t-101 -115t-38.5 -198.5q0 -142 54.5 -205t137.5 -70q-30 18 -42.5 56t-12.5 77q0 68 35 111t92 43q55 0 89 -41t34 -115q0 -160 -169 -160
q-109 0 -177.5 70.5t-68.5 232.5q0 122 39 207t107.5 127.5t157.5 42.5q127 0 191.5 -82t64.5 -221v-337zM996 544q8 -8 8 -20t-8 -20t-19 -8q-12 0 -20 8t-8 20t8 20t20 8q11 0 19 -8zM2330 519q0 -11 -7 -14t-18 -3h-130v-455q0 -37 2 -45q-7 -7 -15 -7q-17 0 -17 17v490
h-177q-41 0 -62 -10.5t-30 -38t-9 -83.5v-337q0 -23 2 -31q-7 -7 -19 -7q-15 0 -13 17v309q0 37 -23.5 81.5t-73.5 77t-125 32.5q-97 0 -160.5 -62.5t-63.5 -214.5q0 -195 132 -218q-30 18 -42.5 56t-12.5 77q0 68 35 111t92 43q55 0 89 -41t34 -114q0 -81 -42.5 -121
t-115.5 -40q-90 0 -143.5 58.5t-53.5 192.5q0 154 67 227.5t183 73.5q62 0 109.5 -20.5t76 -51.5t38.5 -62q0 73 36 97.5t95 24.5h361q1 -3 1 -9zM858 485q-8 8 -8 20t8 20t19 8q12 0 20 -8t8 -20t-8 -20t-20 -8q-11 0 -19 8zM1096 525q8 -8 8 -20t-8 -20t-19 -8
q-12 0 -20 8t-8 20t8 20t20 8q11 0 19 -8zM814 469q8 -8 8 -20t-8 -20t-20 -8q-11 0 -19 8t-8 20t8 20t19 8q12 0 20 -8zM1140 429q-8 8 -8 20t8 20t20 8q11 0 19 -8t8 -20t-8 -20t-19 -8q-12 0 -20 8zM718 345q-8 8 -8 20t8 20t19 8q12 0 20 -8t8 -20t-8 -20t-20 -8
q-11 0 -19 8zM1197 345q-8 8 -8 20t8 20t20 8q11 0 19 -8t8 -20t-8 -20t-19 -8q-12 0 -20 8zM738 245q-8 -8 -20 -8q-11 0 -19 8t-8 20t8 20t19 8q12 0 20 -8t8 -20t-8 -20zM1255 285q8 -8 8 -20t-8 -20t-19 -8q-12 0 -20 8t-8 20t8 20t20 8q11 0 19 -8zM243.5 54.5
q26.5 -33.5 69.5 -33.5q44 0 71 35.5t27 93.5q0 54 -23.5 89.5t-71.5 35.5t-73.5 -36t-25.5 -93q0 -58 26.5 -91.5zM1520.5 54.5q26.5 -33.5 69.5 -33.5q44 0 71 35.5t27 93.5q0 54 -23.5 89.5t-71.5 35.5t-73.5 -36t-25.5 -93q0 -58 26.5 -91.5zM759 187q8 -8 8 -20t-8 -20
t-20 -8q-11 0 -19 8t-8 20t8 20t19 8q12 0 20 -8zM1234 187q8 -8 8 -20t-8 -20t-19 -8q-12 0 -20 8t-8 20t8 20t20 8q11 0 19 -8zM814 104q8 -8 8 -20t-8 -20t-20 -8q-11 0 -19 8t-8 20t8 20t19 8q12 0 20 -8zM1179 104q8 -8 8 -20t-8 -20t-19 -8q-12 0 -20 8t-8 20t8 20
t20 8q11 0 19 -8zM899 47q8 -8 8 -20t-8 -20t-20 -8q-11 0 -19 8t-8 20t8 20t19 8q12 0 20 -8zM1094 47q8 -8 8 -20t-8 -20t-19 -8q-12 0 -20 8t-8 20t8 20t20 8q11 0 19 -8zM996 28q8 -8 8 -20t-8 -20t-19 -8q-12 0 -20 8t-8 20t8 20t20 8q11 0 19 -8z" />
    <glyph glyph-name="uni0BCD" unicode="&#xbcd;" horiz-adv-x="0" 
d="M-229.5 661.5q-12.5 12.5 -12.5 29.5t12.5 29t29.5 12q16 0 28.5 -12t12.5 -29t-12 -29.5t-29 -12.5t-29.5 12.5z" />
    <glyph glyph-name="uni0BD0" unicode="&#xbd0;" horiz-adv-x="723" 
d="M491.5 183.5q-28.5 28.5 -28.5 73.5q0 20 5.5 38t15.5 28q-19 -3 -44.5 -21t-44 -49t-18.5 -70q0 -57 43.5 -91t125.5 -34q33 0 60 5l7 -14q-29 -53 -83 -92.5t-118.5 -61t-125.5 -21.5q-85 0 -123.5 38.5t-38.5 93.5q0 38 15 58t29 26l8 2q5 0 8.5 -2t3.5 -5
q-15 -15 -24 -30.5t-9 -47.5q0 -107 141 -107q62 0 118.5 20t99.5 51t66 66q-15 -2 -48 -2q-88 0 -136 40t-48 109q0 58 31.5 97.5t75.5 58.5t80 19l11 -19q-29 -10 -41.5 -31t-12.5 -47q0 -36 20.5 -58t52.5 -22q40 0 64 34t24 87q0 65 -39.5 112.5t-107.5 72.5t-152 25
q-119 0 -194.5 -51.5t-90.5 -135.5q27 40 84 40q42 0 70 -26.5t28 -67.5q0 -45 -30 -72.5t-76 -27.5q-53 0 -79 35t-26 83q0 73 38.5 129.5t110 88.5t168.5 32q92 0 166 -28t117 -82.5t43 -129.5q0 -66 -31.5 -105.5t-85.5 -39.5q-46 0 -74.5 28.5zM94 319.5
q-19 -19.5 -19 -50.5q0 -33 20 -51.5t51 -18.5q32 0 53 20t21 52t-20 50t-53 18q-34 0 -53 -19.5zM288 102q-4 -4 -10 -4t-10 4t-4 10t4 10t10 4t10 -4t4 -10t-4 -10zM239 78v-97h47v66q0 38 37 38q28 0 40 -19.5t12 -48.5q0 -22 -7.5 -37.5t-35.5 -15.5h-105q-8 0 -9.5 3
t-1.5 7v5v87q0 11 -2 15q8 2 13 2q12 0 12 -5zM310 -19h20q12 0 16.5 9t4.5 25q0 25 -6.5 39t-19.5 14q-15 0 -15 -19v-68z" />
    <glyph glyph-name="uni0BD7" unicode="&#xbd7;" horiz-adv-x="1027" 
d="M1027 519q0 -11 -7 -14t-18 -3h-130v-455q0 -37 2 -45q-7 -7 -15 -7q-17 0 -17 17v490h-177q-41 0 -62 -10.5t-30 -38t-9 -83.5v-337q0 -23 2 -31q-7 -7 -19 -7q-15 0 -13 17v309q0 37 -23.5 81.5t-73.5 77t-125 32.5q-97 0 -160.5 -62.5t-63.5 -214.5q0 -195 132 -218
q-30 18 -42.5 56t-12.5 77q0 68 35 111t92 43q55 0 89 -41t34 -114q0 -81 -42.5 -121t-115.5 -40q-90 0 -143.5 58.5t-53.5 192.5q0 154 67 227.5t183 73.5q62 0 109.5 -20.5t76 -51.5t38.5 -62q0 73 36 97.5t95 24.5h361q1 -3 1 -9zM217.5 54.5q26.5 -33.5 69.5 -33.5
q44 0 71 35.5t27 93.5q0 54 -23.5 89.5t-71.5 35.5t-73.5 -36t-25.5 -93q0 -58 26.5 -91.5z" />
    <glyph glyph-name="uni0BE6" unicode="&#xbe6;" horiz-adv-x="588" 
d="M129 61q-59 73 -59 204q0 130 59 202.5t165 72.5t165 -72.5t59 -202.5q0 -131 -59 -204t-165 -73t-165 73zM435 82q51 66 51 183t-51 182t-141 65t-141 -65t-51 -182t51 -183t141 -66t141 66z" />
    <glyph glyph-name="uni0BE7" unicode="&#xbe7;" horiz-adv-x="745" 
d="M719 157q0 -52 -27 -90.5t-71 -58.5t-96 -20q-18 0 -18 14q0 2 3 11l14 -1q36 0 74 15t64.5 47.5t26.5 82.5q0 62 -38 94t-128 32h-90v-58q0 -123 -55.5 -180t-142.5 -57q-54 0 -96 21t-65.5 58t-23.5 85q0 49 25 91t89 58v186q0 22 9 31.5t27 9.5h402q1 -4 1 -10
q0 -12 -12 -14t-49 -2h-109v-193h96q190 0 190 -152zM192 307q26 2 41 2h170v193h-194q-17 -2 -17 -18v-177zM403 283h-174q-79 0 -115 -36t-36 -94q0 -66 45.5 -101.5t112.5 -35.5q70 0 118.5 45.5t48.5 156.5v65z" />
    <glyph glyph-name="uni0BE8" unicode="&#xbe8;" horiz-adv-x="870" 
d="M850 30v-26l-732 -4q-78 0 -78 68q0 33 17 49t46.5 20.5t86.5 5.5q19 0 39 3q-55 4 -95.5 33.5t-61.5 75t-21 96.5q0 53 25.5 97.5t72.5 71t109 26.5q88 0 148.5 -49t60.5 -151q0 -99 -62.5 -160.5t-200.5 -69.5q-17 -1 -46 -1q-33 -1 -50 -3.5t-27 -12t-10 -30.5
q0 -19 11 -31t43 -12zM103.5 251.5q22.5 -40.5 63 -63.5t91.5 -23t91 22.5t62 63t22 91.5q0 84 -48 130.5t-127 46.5q-51 0 -91.5 -22.5t-63 -62.5t-22.5 -91t22.5 -91.5z" />
    <glyph glyph-name="uni0BE9" unicode="&#xbe9;" horiz-adv-x="761" 
d="M716 24v-26h-372v22q53 20 100.5 46t88 75.5t40.5 120.5q0 49 -23 83.5t-76 34.5q-54 0 -85 -38.5t-32 -109.5v-24q-8 -4 -14 -4q-10 0 -13 3t-3 10v285h-205v-502h-27v528h410q1 -4 1 -10q0 -12 -12 -14t-49 -2h-88v-168q33 72 119 72q71 0 99 -43t28 -101
q0 -96 -56.5 -150.5t-134.5 -87.5h304z" />
    <glyph glyph-name="uni0BEA" unicode="&#xbea;" horiz-adv-x="729" 
d="M649 528v-213q0 -10 -7 -18t-16 -8h-182v-64q0 -124 -57.5 -180.5t-148.5 -56.5q-89 0 -138.5 44t-49.5 116q0 133 125 160v179q0 22 9 31.5t27 9.5h360q1 -4 1 -10q0 -12 -12 -14t-49 -2h-67v-188h163q6 0 10 4t4 10v200h28zM203 312q26 2 41 2h170v188h-183
q-15 0 -21.5 -4t-6.5 -14v-172zM414 289h-171q-89 0 -127 -37.5t-38 -103.5q0 -64 43.5 -98t118.5 -34q73 0 123.5 45t50.5 157v71z" />
    <glyph glyph-name="uni0BEB" unicode="&#xbeb;" horiz-adv-x="935" 
d="M854 322.5q31 -55.5 31 -135.5q0 -104 -45.5 -184t-135.5 -125.5t-217 -45.5q-159 0 -254 67t-134 165t-39 200q0 87 31.5 181.5t129.5 169t280 74.5q86 0 156.5 -18t121.5 -54q3 -1 3 -5q0 -6 -8 -11t-17 -4q-44 32 -114 48.5t-146 16.5q-130 0 -221.5 -49.5
t-138.5 -138.5t-47 -208q0 -107 39 -198.5t128.5 -149.5t231.5 -58q114 0 196.5 39t126 112t43.5 174q0 73 -25.5 120t-84.5 47q-60 0 -97.5 -48t-38.5 -126v-144q0 -37 2 -45q-7 -7 -15 -7q-17 0 -17 17v503h-270v-502h-27v528h497q1 -3 1 -9q0 -11 -7 -14t-18 -3h-146
v-216q16 41 49 66.5t86 25.5q79 0 110 -55.5z" />
    <glyph glyph-name="uni0BEC" unicode="&#xbec;" horiz-adv-x="1058" 
d="M1048 26v-26h-203v26q45 25 71 66.5t26 86.5q0 51 -29.5 82t-93.5 31q-61 0 -95.5 -28.5t-47 -65t-12.5 -64.5v-128q0 -17 -17 -17q-8 0 -15 7q2 8 2 45v116q0 62 -33 94t-113 32h-55v-58q0 -123 -55.5 -180t-142.5 -57q-54 0 -96 21t-65.5 58t-23.5 85q0 49 25 91t89 58
v186q0 22 9 31.5t27 9.5h402q1 -4 1 -10q0 -12 -12 -14t-49 -2h-109v-193h61q136 0 163 -97q19 46 57.5 77t104.5 31q76 0 114.5 -39.5t38.5 -101.5q0 -38 -21.5 -80.5t-67.5 -72.5h165zM192 307q26 2 41 2h170v193h-194q-17 -2 -17 -18v-177zM403 283h-174q-79 0 -115 -36
t-36 -94q0 -66 45.5 -101.5t112.5 -35.5q70 0 118.5 45.5t48.5 156.5v65z" />
    <glyph glyph-name="uni0BED" unicode="&#xbed;" horiz-adv-x="724" 
d="M724 519q0 -11 -7 -14t-18 -3h-130v-455q0 -37 2 -45q-7 -7 -15 -7q-17 0 -17 17v490h-146q-145 0 -225 -61.5t-80 -216.5q0 -97 37.5 -148t94.5 -59q-30 18 -42.5 56t-12.5 78q0 66 35 109.5t90 43.5q57 0 91 -40.5t34 -113.5q0 -81 -42.5 -121.5t-107.5 -40.5
q-93 0 -149 57t-56 175q0 163 83.5 235.5t246.5 72.5h333q1 -3 1 -9zM217.5 55q26.5 -34 65.5 -34q48 0 75 35t27 95q0 53 -23.5 88.5t-71.5 35.5t-73.5 -36t-25.5 -91q0 -59 26.5 -93z" />
    <glyph glyph-name="uni0BEE" unicode="&#xbee;" horiz-adv-x="989" 
d="M882 -38.5q0 -18.5 1 -28.5t4 -15q-7 -12 -20 -12q-10 0 -13 9.5t-3 30.5l-1 215h-145q-35 -76 -104.5 -126t-155 -72.5t-172.5 -22.5q-84 0 -138.5 20.5t-79.5 53t-25 70.5q0 52 47.5 77.5t151.5 25.5h221q-63 23 -94.5 72t-31.5 106q0 83 55 129t141 46
q99 0 156.5 -61.5t57.5 -174.5q0 -62 -19 -117h135v148v130q0 27 -1 36.5t-5 23.5q8 8 18 8q19 0 19 -22l1 -524v-25.5zM378 275.5q26 -40.5 73.5 -64.5t109.5 -24h123q18 48 18 111q0 92 -43 153.5t-144 61.5q-84 0 -123.5 -43t-39.5 -105q0 -49 26 -89.5zM416 -18
q77 16 149 59.5t108 119.5h-444q-90 0 -129 -20.5t-39 -59.5q0 -54 60 -84.5t153 -30.5q65 0 142 16z" />
    <glyph glyph-name="uni0BEF" unicode="&#xbef;" horiz-adv-x="1002" 
d="M917 335.5q45 -67.5 45 -148.5q0 -46 -15 -92.5t-39 -76.5t-50 -30q-18 0 -18 14q0 2 3 11q19 0 40 21.5t35 60.5t14 88q0 82 -40 137t-137 55q-100 0 -156 -66h15q90 0 134.5 -48.5t44.5 -118.5q0 -38 -15.5 -73.5t-47 -58t-77.5 -22.5q-68 0 -101 47t-33 114
q0 72 31 134h-117v-58q0 -124 -55 -180.5t-143 -56.5q-82 0 -133.5 45t-51.5 119q0 49 25 91t89 58v186q0 22 9 31.5t27 9.5h402q1 -4 1 -10q0 -12 -12 -14t-49 -2h-109v-193h132q29 43 76.5 68.5t114.5 25.5q116 0 161 -67.5zM192 307q26 2 41 2h170v193l-194 -1
q-17 0 -17 -17v-177zM403 283h-174q-79 0 -115 -36t-36 -94q0 -67 45.5 -102t112.5 -35q70 0 118.5 45t48.5 157v65zM580 283q-17 -29 -25.5 -64t-8.5 -68q0 -44 20.5 -90t82.5 -46q49 0 81.5 35t32.5 88q0 60 -37 102.5t-118 42.5h-28z" />
    <glyph glyph-name="uni0BF0" unicode="&#xbf0;" horiz-adv-x="751" 
d="M125 202l-1 -38q0 -65 22.5 -110t90.5 -45q73 0 99.5 52t26.5 120v335q0 8 2.5 12.5t11.5 4.5q8 0 15 -7q-2 -8 -2 -31v-304q0 -96 33.5 -139t86.5 -43q67 0 94 68.5t27 215.5q0 142 -23.5 213.5t-69 105t-146.5 76.5q-10 4 -10 18q0 11 6 15q10 -6 35 -15
q95 -35 146 -85t71.5 -127.5t20.5 -201.5q0 -152 -32 -231t-118 -79q-53 0 -86.5 31.5t-47.5 92.5q-9 -63 -45 -93.5t-95 -30.5q-84 0 -113 52t-29 131v363h30v-326z" />
    <glyph glyph-name="uni0BF1" unicode="&#xbf1;" horiz-adv-x="851" 
d="M851 517q0 -10 -12 -12.5t-36 -2.5h-75v-455q0 -37 2 -45q-7 -7 -15 -7q-17 0 -17 17v490h-283v-502h-30v437q-29 35 -73 54t-84 19q-54 0 -75 -22t-21 -69v-409q0 -9 -5.5 -15.5t-14.5 -6.5t-17 8q8 12 7.5 32t-0.5 21v381q0 107 121 107q52 0 94 -18t68 -43v52h464
q2 -4 2 -11z" />
    <glyph glyph-name="uni0BF2" unicode="&#xbf2;" horiz-adv-x="985" 
d="M945 1q0 -76 -45.5 -117.5t-153.5 -41.5h-141q-43 0 -74.5 -12.5t-31.5 -42.5q0 -8 3 -15t9 -7q-2 -15 -17 -15q-12 0 -18 10t-6 25q0 39 34 60.5t93 21.5h150q94 0 132 36t38 99q0 70 -33.5 104t-103.5 34h-34v-60q0 -77 -40.5 -112.5t-102.5 -35.5q-57 0 -90.5 29.5
t-33.5 82.5q0 46 33.5 83.5t119.5 37.5h86v118h-274v-58q0 -124 -57.5 -180.5t-148.5 -56.5q-89 0 -138.5 44t-49.5 116q0 129 127 154v185q0 22 9 31.5t27 9.5h414q1 -4 1 -10q0 -12 -12 -14t-49 -2h-123v-194h459q1 -2 1 -8q0 -7 -3.5 -12t-11.5 -5h-143v-118h36
q163 0 163 -164zM205 306q24 2 39 2h170v194h-181q-15 0 -21.5 -4t-6.5 -14v-178zM414 283h-171q-165 0 -165 -135q0 -64 43.5 -98t118.5 -34q73 0 123.5 45t50.5 157v65zM718 140h-86q-65 0 -94.5 -27t-29.5 -68q0 -46 26.5 -66.5t69.5 -20.5q49 0 81.5 26t32.5 91v65z" />
    <glyph glyph-name="uni0BF3" unicode="&#xbf3;" horiz-adv-x="788" 
d="M117 45q-57 63 -57 194q0 151 77.5 229t213.5 78q131 0 197.5 -73t66.5 -191q0 -137 -95 -256h218v-26h-269v14q47 49 80.5 111t33.5 154q0 110 -59.5 175t-174.5 65q-113 0 -187 -65t-74 -214q0 -106 39.5 -164t102.5 -65q-30 18 -42.5 56t-12.5 77q0 68 34.5 111
t90.5 43q55 0 88 -41t33 -114q0 -81 -42 -121t-112 -40q-93 0 -150 63zM364.5 50.5q26.5 35.5 26.5 93.5q0 53 -23 89t-70 36t-72 -36t-25 -93q0 -58 26 -91.5t68 -33.5q43 0 69.5 35.5z" />
    <glyph glyph-name="uni0BF4" unicode="&#xbf4;" horiz-adv-x="829" 
d="M1143 818v-24h-45q-46 -1 -68.5 -19t-29 -46t-6.5 -71v-115h-26v122q0 64 -33.5 100t-84.5 36q-43 0 -77 -26q42 -20 69 -57t27 -87t-23 -74t-64 -24q-47 0 -73 32.5t-26 79.5q0 70 41 121q-16 4 -35 4q-116 0 -116 -89q0 -37 17.5 -71t55.5 -89q6 -9 11 -16t9 -13
q41 -41 62 -108.5t21 -143.5q0 -63 -9 -112.5t-47 -88.5t-117 -39h-457q-12 0 -14.5 7.5t-2.5 17.5v14v420q0 48 -7 66q8 8 17 8t14.5 -6.5t5.5 -15.5v-485h294v347q0 93 32.5 130t89.5 37q37 0 66 -13q-34 44 -52 79t-18 73q0 54 36 85.5t109 31.5q26 0 56 -9q48 38 107 38
q53 0 84 -26.5t43 -62.5q8 32 32.5 56t89.5 26h42zM814.5 709.5q-24.5 31.5 -62.5 47.5q-41 -46 -41 -112q0 -35 19 -59.5t52 -24.5q57 0 57 72q0 45 -24.5 76.5zM691 76.5q31 50.5 31 140.5q0 123 -41 210t-127 87q-98 0 -98 -132v-356h115q89 0 120 50.5z" />
    <glyph glyph-name="uni0BF5" unicode="&#xbf5;" horiz-adv-x="1977" 
d="M1866 513.5q24 -32.5 42.5 -97t18.5 -155.5q0 -133 -42.5 -206t-119.5 -73q-72 0 -100.5 67.5t-28.5 193.5q0 137 -57 231t-226 150t-486 56q-295 0 -467.5 -46.5t-246 -138.5t-73.5 -236q0 -151 68.5 -243t227 -136.5t432.5 -44.5q231 0 378 36.5t219 114t72 203.5
q0 69 -21 116t-70 47q-55 0 -91.5 -42t-42.5 -111v-157q0 -37 2 -45q-7 -7 -15 -7q-17 0 -17 17v494l-246 -1v-500h-348v14q47 49 80.5 111t33.5 154q0 110 -59.5 175t-174.5 65q-113 0 -187 -65t-74 -214q0 -106 39.5 -164t102.5 -65q-30 18 -42.5 56t-12.5 77
q0 68 34.5 111t90.5 43q55 0 88 -41t33 -114q0 -81 -42 -121t-112 -40q-93 0 -150 63t-57 194q0 151 77.5 229t213.5 78q131 0 197.5 -73t66.5 -191q0 -137 -95 -256h270v502h460q1 -3 1 -9q0 -10 -7.5 -13.5t-27.5 -3.5l-123 -1v-212q16 39 49 64t85 25q67 0 94 -55
t27 -131q0 -195 -167 -290t-528 -95q-301 0 -468 54.5t-230.5 152t-63.5 242.5q0 150 79.5 249.5t259.5 151t479 51.5q276 0 451 -43.5t262 -141.5t87 -261q0 -85 5.5 -135.5t27 -84t67.5 -33.5q72 0 101.5 74.5t29.5 177.5q0 119 -29.5 179.5t-60.5 82.5q0 8 4 15.5t12 7.5
q17 0 41 -32.5zM386 48.5q26 -33.5 68 -33.5q43 0 69.5 35.5t26.5 93.5q0 53 -23 89t-70 36t-72 -36t-25 -93q0 -58 26 -91.5z" />
    <glyph glyph-name="uni0BF6" unicode="&#xbf6;" horiz-adv-x="1006" 
d="M898.5 530.5q5.5 -6.5 5.5 -15.5v-623q0 -6 -4 -10t-10 -4h-300q-24 -113 -92 -167t-172 -54q-67 0 -115 20.5t-72.5 54t-24.5 70.5q0 102 181 102h272q7 49 7 96h-455q-12 0 -14.5 7.5t-2.5 17.5v14v437q0 1 0.5 21t-7.5 32q8 8 17 8t14.5 -6.5t5.5 -15.5v-489h440v450
q0 1 0.5 21t-7.5 32q8 8 17 8t14.5 -6.5t5.5 -15.5v-508q0 -49 -7 -103h279v572q0 1 0.5 21t-7.5 32q8 8 17 8t14.5 -6.5zM471.5 -274.5q64.5 42.5 90.5 152.5h-267q-150 0 -150 -80q0 -36 27.5 -62t70.5 -39.5t89 -13.5q75 0 139.5 42.5z" />
    <glyph glyph-name="uni0BF7" unicode="&#xbf7;" horiz-adv-x="1240" 
d="M1125 335q5 -4 5 -10v-325h-235v9q21 32 36 71t15 98q0 36 -16.5 69t-48.5 53.5t-78 20.5q-63 0 -107.5 -28.5t-52.5 -99.5q40 17 79 17q60 0 94.5 -30t34.5 -90q0 -52 -28.5 -80t-74.5 -28q-57 0 -94.5 43t-40.5 124q-36 -25 -59 -62t-25 -80q0 -10 2 -18q-7 -7 -15 -7
q-17 0 -17 17v503h-116q-145 0 -225 -61t-80 -214q0 -103 37 -155.5t95 -60.5q-30 18 -42.5 56t-12.5 77q0 67 34.5 110.5t92.5 43.5q55 0 89 -40.5t34 -113.5q0 -82 -42.5 -122t-113.5 -40q-90 0 -144.5 59t-54.5 187q0 156 85 228t245 72h259q1 -3 1 -9q0 -11 -7 -14
t-18 -3h-86v-412q26 53 85 89q5 84 57 125t136 41q55 0 93.5 -25t57.5 -63.5t19 -77.5q0 -83 -44 -155h169v277v6q0 20 -5 27q8 5 16 5q7 0 12 -4zM208 48.5q27 -33.5 69 -33.5q44 0 71 35.5t27 94.5q0 53 -23.5 88.5t-71.5 35.5t-73.5 -35.5t-25.5 -92.5q0 -59 27 -92.5z
M641 165v-2q0 -70 27.5 -113t76.5 -43q36 0 57 23.5t21 60.5q0 41 -25 67.5t-78 26.5q-41 0 -79 -20z" />
    <glyph glyph-name="uni0BF8" unicode="&#xbf8;" horiz-adv-x="1650" 
d="M1548 373v-373h-211v-246h-30v246h-408l-6 20q42 39 75.5 111t33.5 140q0 112 -59.5 177t-174.5 65q-80 0 -137 -32q74 -43 114.5 -114.5t40.5 -166.5q0 -100 -37 -156t-113 -56q-67 0 -107 61t-40 190q0 160 90 239q-84 35 -192 35q-137 0 -223 -67t-86 -219
q0 -98 38.5 -150.5t93.5 -59.5q-30 18 -42.5 56t-12.5 77q0 68 34 111t90 43q54 0 87 -40.5t33 -113.5q0 -82 -41.5 -122t-110.5 -40q-86 0 -141.5 58.5t-55.5 180.5q0 158 87 235.5t248 77.5q124 0 218 -44q68 44 167 44q132 0 198 -72.5t66 -193.5q0 -70 -30.5 -137.5
t-71.5 -110.5h375v193q-22 -3 -48 -3q-85 0 -128.5 38.5t-43.5 114.5q0 67 32 104t88 37q67 0 98.5 -47t31.5 -150v-60q53 14 99.5 46t81.5 74h30zM1307 246v60q0 92 -23.5 133.5t-74.5 41.5q-43 0 -67.5 -31t-24.5 -86q0 -60 36 -91t105 -31q28 0 49 4zM717 359.5
q-39 67.5 -111 105.5q-89 -69 -89 -225q0 -113 32 -169.5t90 -56.5q61 0 88.5 52t28.5 133q0 93 -39 160.5zM1518 26v310q-76 -89 -181 -112v-198h181zM207 54.5q26 -33.5 67 -33.5q42 0 68.5 35.5t26.5 94.5q0 53 -23 88.5t-69 35.5t-71 -36t-25 -93q0 -58 26 -91.5z" />
    <glyph glyph-name="uni0BF9" unicode="&#xbf9;" horiz-adv-x="927" 
d="M846 323q31 -55 31 -135q0 -115 -52.5 -195t-145.5 -120.5t-214 -40.5q-147 0 -240.5 76t-134 186t-40.5 218q0 165 53.5 284t149 181.5t220.5 62.5q142 0 240 -39t98 -140q0 -45 -30 -74.5t-71 -29.5q-43 0 -73.5 27t-30.5 68q0 36 25 65.5t71 29.5q48 0 72 -28
q-21 47 -109.5 70t-189.5 23q-130 0 -219 -69t-132.5 -182.5t-43.5 -247.5q0 -110 41 -214t128.5 -171.5t219.5 -67.5q107 0 192 34.5t135.5 107.5t50.5 183q0 73 -25.5 120t-84.5 47q-60 0 -97.5 -48t-38.5 -126v-144q0 -37 2 -45q-7 -7 -15 -7q-17 0 -17 17v502l-262 -1
v-500h-27v528h318q63 0 98.5 0.5t43 1.5t19.5 5q3 -6 3 -12q0 -11 -13.5 -16t-35.5 -5l-114 -1v-215q16 41 49 66.5t86 25.5q79 0 110 -55zM761.5 606q19.5 21 19.5 50q0 28 -19.5 46.5t-54.5 18.5q-31 0 -51 -18t-20 -50q0 -33 21.5 -50.5t52.5 -17.5q32 0 51.5 21z" />
    </font>
</defs>
</svg>
