<?xml version="1.0" standalone="no"?>
<!DOCTYPE svg PUBLIC "-//W3C//DTD SVG 1.1//EN" "http://www.w3.org/Graphics/SVG/1.1/DTD/svg11.dtd" >
<svg xmlns="http://www.w3.org/2000/svg" xmlns:xlink="http://www.w3.org/1999/xlink" version="1.1">
<metadata>
Created by FontForge 20201107 at Fri May  5 14:18:33 2017
 By 
Copyright 2015 The Arima Project Authors (info@ndiscovered.com)
</metadata>
<defs>
<font id="ArimaMadurai-Regular" horiz-adv-x="0" >
  <font-face 
    font-family="Arima Madurai"
    font-weight="400"
    font-stretch="normal"
    units-per-em="1000"
    panose-1="0 0 5 0 0 0 0 0 0 0"
    ascent="800"
    descent="-200"
    x-height="514"
    cap-height="702"
    bbox="-573 -400 2499 1015"
    underline-thickness="50"
    underline-position="-100"
    unicode-range="U+0020-FB02"
  />
<missing-glyph horiz-adv-x="600" 
d="M492 -400h-380v1200h380v-1200zM202 720v-40h78v-44h-80v-40h200v40h-80v44h80v40h-198zM200 565v-125h200v41h-80v84h-120zM280 481h-40v43h40v-43zM200 408v-40h80v-44h-80v-40h120v84h80v40h-200zM360 336v-80h-160v-40h200v120h-40zM280 189v-67h40v28h40v-57h-120
v96h-40v-135h200v135h-120zM200 -18v-136h200v136h-200zM360 -114h-120v56h120v-56zM200 -182v-39h84l-84 -57v-39h200v39h-123l84 57h39v39h-200z" />
    <glyph glyph-name="fi" unicode="fi" horiz-adv-x="579" 
d="M401 595q19 21 19 52t-31.5 45.5t-77.5 14.5q-57 0 -85.5 -23.5t-37.5 -63t-9 -102.5v-11h62q14 0 35 1t35 2l-1 -22q-1 -10 -7 -16.5t-15 -6.5h-109v-351q0 -72 12 -107q-20 -18 -45 -18q-20 0 -33 12t-13 32l-1 432h-15q-41 0 -60 -3l1 23q1 11 7 16.5t16 5.5h51v24
q0 210 212 210q83 0 133.5 -24t50.5 -69q0 -27 -19 -45.5t-43 -18.5q-21 0 -32 11zM509 7q-21 -18 -46 -18q-20 0 -32.5 12t-12.5 32l-1 363q0 69 -13 107q21 18 46 18q20 0 32.5 -11.5t12.5 -32.5l1 -363q0 -73 13 -107z" />
    <glyph glyph-name="fl" unicode="fl" horiz-adv-x="614" 
d="M590 42q0 -23 -20.5 -37.5t-50.5 -14.5q-45 0 -70 29t-25 82v483q0 66 -32.5 94.5t-91.5 28.5q-53 0 -79.5 -21t-34 -55.5t-7.5 -87.5v-36h62q13 0 33 1t33 2l-1 -22q-1 -10 -7 -16.5t-15 -6.5h-105v-351q0 -72 12 -107q-20 -18 -45 -18q-20 0 -33 12t-13 32l-1 432h-15
q-41 0 -60 -3l1 23q1 11 7 16.5t16 5.5h51v49q0 185 199 185q100 0 153 -40t53 -110v-486q0 -26 9.5 -39.5t28.5 -13.5q11 0 21.5 5.5t15.5 15.5q11 -13 11 -31z" />
    <glyph glyph-name=".notdef" horiz-adv-x="600" 
d="M492 -400h-380v1200h380v-1200zM202 720v-40h78v-44h-80v-40h200v40h-80v44h80v40h-198zM200 565v-125h200v41h-80v84h-120zM280 481h-40v43h40v-43zM200 408v-40h80v-44h-80v-40h120v84h80v40h-200zM360 336v-80h-160v-40h200v120h-40zM280 189v-67h40v28h40v-57h-120
v96h-40v-135h200v135h-120zM200 -18v-136h200v136h-200zM360 -114h-120v56h120v-56zM200 -182v-39h84l-84 -57v-39h200v39h-123l84 57h39v39h-200z" />
    <glyph glyph-name=".null" 
 />
    <glyph glyph-name="nonmarkingreturn" horiz-adv-x="333" 
 />
    <glyph glyph-name="space" unicode=" " horiz-adv-x="219" 
 />
    <glyph glyph-name="exclam" unicode="!" horiz-adv-x="298" 
d="M121 181h59l16 537q-22 7 -48 7q-25 0 -46 -7zM110 3q-16 16 -16 38q0 23 16 38.5t38 15.5q23 0 38.5 -15.5t15.5 -38.5q0 -22 -15.5 -38t-38.5 -16q-22 0 -38 16z" />
    <glyph glyph-name="quotedbl" unicode="&#x22;" horiz-adv-x="281" 
d="M183 574h38l20 152q-14 5 -37 5t-38 -5zM57 574h38l20 152q-14 5 -37 5t-38 -5z" />
    <glyph glyph-name="numbersign" unicode="#" horiz-adv-x="650" 
d="M465 419l-27 -150h166l-7 -50h-168l-40 -219h-58l40 219h-142l-40 -219h-58l40 219h-157l7 50h159l27 150h-161l7 50h163l41 224h58l-41 -224h142l41 224h58l-41 -224h162l-7 -50h-164zM407 419h-142l-27 -150h142z" />
    <glyph glyph-name="dollar" unicode="$" horiz-adv-x="555" 
d="M458 45.5q-50 -51.5 -155 -57.5q2 -51 6 -72q-8 -8 -19 -8q-19 0 -19 22v57q-109 1 -164.5 42.5t-55.5 105.5q0 58 56 58q11 0 18 -1q-5 -15 -3 -42q3 -55 42 -89t107 -37l-1 297l-2 1q-68 38 -107 66.5t-62 65.5t-23 88q0 77 53.5 118t139.5 46q-2 46 -6 65q10 8 20 8
q18 0 18 -22v-51q85 -2 135.5 -35t50.5 -89q0 -42 -40 -46q-8 -2 -13 -2q-6 0 -18 2q3 11 3 20q0 12 -3 22q-4 38 -34.5 61.5t-80.5 28.5l1 -267l11 -6q63 -34 104 -64t66 -70t25 -93q0 -71 -50 -122.5zM180.5 487.5q28.5 -32.5 89.5 -67.5l-1 249q-50 -3 -83.5 -27
t-33.5 -75q0 -47 28.5 -79.5zM394 60.5q34 30.5 34 85.5q0 50 -29.5 84t-96.5 73l1 -278q57 5 91 35.5z" />
    <glyph glyph-name="percent" unicode="%" horiz-adv-x="1026" 
d="M713 703q13 -5 19 -18l-392 -698q-30 -3 -46 18l390 701q16 2 29 -3zM90 364q-44 49 -44 147q0 97 44.5 146t129.5 49q86 0 130 -49t44 -146q0 -196 -174 -196q-86 0 -130 49zM322 511q0 85 -25.5 125.5t-75.5 40.5q-52 0 -77 -40.5t-25 -125.5q0 -86 25.5 -127t76.5 -41
q101 0 101 168zM676 40q-44 49 -44 147q0 97 44.5 146t129.5 49q86 0 130 -49t44 -146q0 -196 -174 -196q-86 0 -130 49zM882.5 60.5q25.5 40.5 25.5 126.5t-25.5 126t-75.5 40q-52 0 -77 -40t-25 -126t25 -126.5t77 -40.5q50 0 75.5 40.5z" />
    <glyph glyph-name="ampersand" unicode="&#x26;" horiz-adv-x="847" 
d="M705 435q16 -62 16 -116q0 -97 -44.5 -173t-121.5 -118.5t-172 -42.5q-97 0 -170 41t-112 110t-39 153q0 68 28.5 121t80 83t117.5 30q77 0 118.5 -41.5t41.5 -101.5q0 -84 -91 -152q58 35 132.5 96.5t141.5 130.5q-35 86 -105.5 139.5t-157.5 49.5q0 28 15 42.5t51 14.5
q77 0 141.5 -54.5t103.5 -140.5q60 68 95 126q16 0 30 -10.5t14 -29.5t-17 -43q-39 -59 -96 -114zM652 387q-90 -77 -197 -137t-197 -87l-8 30q66 45 98 85t32 94q0 48 -24 78.5t-70 30.5q-37 0 -68 -21.5t-49.5 -63.5t-18.5 -100q0 -71 28.5 -132.5t82.5 -99t129 -37.5
q72 0 134 35t99 100.5t37 151.5q0 35 -8 73z" />
    <glyph glyph-name="quotesingle" unicode="'" horiz-adv-x="155" 
d="M57 574h38l20 152q-14 5 -37 5t-38 -5z" />
    <glyph glyph-name="parenleft" unicode="(" horiz-adv-x="427" 
d="M256 -121q-58 51 -100.5 154.5t-42.5 253.5t43 254t101 155t101 51q17 0 23 -7t6 -15q-90 -51 -140.5 -167t-50.5 -271q1 -154 52.5 -272t138.5 -165q0 -22 -29 -22q-44 0 -102 51z" />
    <glyph glyph-name="parenright" unicode=")" horiz-adv-x="427" 
d="M40 -150q87 47 138.5 166.5t51.5 274.5q0 153 -50.5 268t-139.5 166q0 8 6 15t23 7q43 0 101 -51t101 -155t43 -254t-42.5 -253.5t-100.5 -154.5t-102 -51q-29 0 -29 22z" />
    <glyph glyph-name="asterisk" unicode="*" horiz-adv-x="507" 
d="M332 478q-14 -25 -20 -50q44 -13 71.5 -41t27.5 -58q0 -23 -16.5 -38t-40.5 -15q-36 0 -58 35t-22 79q0 10 1 15q-16 2 -23 2q-13 0 -20 -1v-3q0 -51 -25 -90.5t-66 -39.5q-22 0 -38.5 14t-16.5 38q0 34 31.5 63.5t79.5 41.5q-4 23 -16 51q-31 -11 -62 -11
q-38 0 -63 16.5t-25 46.5q0 23 14.5 39.5t43.5 16.5q31 0 59 -19t48 -51q22 13 39 28q-20 23 -31 49t-11 51q0 29 15.5 45t45.5 16q31 0 46 -17t15 -46q0 -50 -38 -96q18 -18 40 -32q22 32 49 51t54 19q25 0 39.5 -15.5t14.5 -40.5q0 -31 -22.5 -47.5t-59.5 -16.5
q-30 0 -60 11zM230 648q0 -40 28 -77q28 38 28 73q0 16 -7.5 25.5t-21.5 9.5q-27 0 -27 -31zM167 506q-16 24 -34.5 38.5t-37.5 14.5q-12 0 -19.5 -7.5t-7.5 -19.5q0 -17 14.5 -25.5t37.5 -8.5t47 8zM381.5 541.5q-18.5 -14.5 -34.5 -38.5q24 -8 46 -8q23 0 37 8.5t14 25.5
q0 12 -7 19.5t-19 7.5q-18 0 -36.5 -14.5zM302 492q-24 13 -47 34q-23 -19 -45 -32q12 -25 19 -58q7 1 22 1q11 0 29 -2q9 33 22 57zM183 332q15 30 16 67q-34 -10 -55.5 -30.5t-21.5 -41.5q0 -11 7 -18t17 -7q22 0 37 30zM360 368.5q-21 19.5 -53 29.5v-8q0 -30 12 -57
t35 -27q11 0 19 7t8 17q0 19 -21 38.5z" />
    <glyph glyph-name="plus" unicode="+" horiz-adv-x="553" 
d="M479 350q0 -10 -5 -25h-173v-173q-16 -4 -24 -4q-9 0 -25 4v173h-173q-4 12 -4 25t4 24h172v174q15 5 25 5q12 0 25 -5v-174h173q5 -13 5 -24z" />
    <glyph glyph-name="comma" unicode="," horiz-adv-x="273" 
d="M95 -81q31 36 31 68q0 24 -12.5 35.5t-33.5 18.5q0 20 15.5 37t40.5 17q24 0 40.5 -16.5t16.5 -52.5q0 -66 -68 -125q-16 2 -30 18z" />
    <glyph glyph-name="hyphen" unicode="-" horiz-adv-x="399" 
d="M350 283v-52h-302v52h302z" />
    <glyph glyph-name="period" unicode="." horiz-adv-x="268" 
d="M96 3q-16 16 -16 38q0 23 16 38.5t38 15.5q23 0 38.5 -15.5t15.5 -38.5q0 -22 -15.5 -38t-38.5 -16q-22 0 -38 16z" />
    <glyph glyph-name="slash" unicode="/" horiz-adv-x="444" 
d="M5 -142l324 873h81l-325 -873h-80z" />
    <glyph glyph-name="zero" unicode="0" horiz-adv-x="623" 
d="M128 77q-63 90 -63 269q0 180 63 270t183 90q121 0 183.5 -90t62.5 -270t-62.5 -269.5t-183.5 -89.5q-120 0 -183 90zM429 102.5q40 78.5 40 243.5q0 166 -39.5 244.5t-118.5 78.5q-78 0 -117.5 -79t-39.5 -244t39.5 -243.5t117.5 -78.5t118 78.5z" />
    <glyph glyph-name="one" unicode="1" horiz-adv-x="427" 
d="M313 7q-18 -18 -46 -18q-20 0 -32 12t-12 32l-1 541q0 28 -3 52q-38 -40 -85 -77.5t-64 -37.5q-18 0 -26 10t-8.5 17t-0.5 24q6 2 81 53.5t106 74.5q14 9 32 9q21 0 33 -11.5t12 -32.5l2 -541q0 -72 12 -107z" />
    <glyph glyph-name="two" unicode="2" horiz-adv-x="547" 
d="M45 33q0 11 2 16l47 40q94 79 154.5 138t104.5 132.5t44 150.5q0 68 -35 114t-102 46q-70 0 -101.5 -48t-33.5 -103q-34 0 -49 15.5t-15 38.5q0 30 25 61t71.5 51.5t107.5 20.5q93 0 155 -49.5t62 -147.5t-60 -184.5t-135 -148t-179 -131.5q84 1 199 12t197 24
q7 -4 11 -16t4 -26q0 -15 -5 -26.5t-14 -12.5h-440q-15 9 -15 33z" />
    <glyph glyph-name="three" unicode="3" horiz-adv-x="553" 
d="M123.5 10q-49.5 22 -69 50.5t-19.5 50.5q0 19 13.5 33t44.5 14q9 -54 40.5 -94.5t117.5 -40.5q77 0 120 42t43 113q0 88 -68 128.5t-173 42.5v37q70 2 118.5 24t73 57.5t24.5 78.5q0 56 -32.5 90t-95.5 34q-72 0 -104 -41.5t-35 -91.5q-32 -1 -45.5 11.5t-13.5 29.5
q0 28 23 58t69.5 50t112.5 20q86 0 148 -38t62 -125q0 -66 -45 -110.5t-123 -63.5q91 -17 142 -60.5t51 -123.5q0 -93 -67.5 -145t-179.5 -52q-83 0 -132.5 22z" />
    <glyph glyph-name="four" unicode="4" horiz-adv-x="598" 
d="M567 217q0 -20 -11 -33h-93v-70q0 -73 13 -107q-21 -18 -46 -18q-20 0 -32.5 12t-12.5 32l-1 151h-326q-11 4 -17 13t-6 19t6 19l331 445q5 8 18 14.5t27 6.5q20 0 32.5 -12.5t12.5 -32.5l1 -423q55 2 97 11q7 -11 7 -27zM384 232l-1 387l-285 -387h286z" />
    <glyph glyph-name="five" unicode="5" horiz-adv-x="561" 
d="M158.5 9.5q-46.5 21.5 -70.5 54.5t-24 66q0 22 16 35t42 11q1 -31 15 -65t45 -58.5t81 -24.5q80 0 118.5 49t38.5 137q0 79 -42.5 125t-116.5 46q-59 0 -101 -15t-45 -16q-22 0 -22 23l13 281q0 15 10.5 24.5t26.5 9.5q123 0 190 1t130 6q4 -8 4 -20q0 -16 -6.5 -31
t-17.5 -22q-185 0 -276 5l-11 -228q37 12 67 18t65 6q102 0 161.5 -55.5t59.5 -151.5q0 -121 -69 -176.5t-173 -55.5q-62 0 -108.5 21.5z" />
    <glyph glyph-name="six" unicode="6" horiz-adv-x="580" 
d="M430.5 404.5q45.5 -23.5 72 -70.5t26.5 -114q0 -106 -59.5 -169t-167.5 -63q-237 0 -237 320q0 204 65.5 300.5t203.5 96.5q55 0 102.5 -20.5t47.5 -51.5q0 -14 -11 -27.5t-20 -14.5q-30 41 -60 57.5t-61 16.5q-103 0 -140 -90.5t-40 -238.5q29 41 73.5 66.5t102.5 25.5
q57 0 102.5 -23.5zM408.5 81q33.5 57 33.5 141q0 78 -33 121t-95 43q-53 0 -96 -31.5t-65 -84.5q4 -113 40.5 -179.5t111.5 -66.5q70 0 103.5 57z" />
    <glyph glyph-name="seven" unicode="7" horiz-adv-x="505" 
d="M211 -5q-20 0 -41 6q4 85 35 211.5t80 243t103 176.5q-105 -7 -271 -7h-69q-6 5 -9.5 17t-3.5 25q0 21 7 29q99 -3 194 -3h220q9 -9 9 -29t-10 -33q-58 -75 -105 -193t-74 -238.5t-27 -199.5q-22 -5 -38 -5z" />
    <glyph glyph-name="eight" unicode="8" horiz-adv-x="599" 
d="M489.5 279q52.5 -50 52.5 -117q0 -44 -24 -83.5t-78.5 -65.5t-140.5 -26q-87 0 -140.5 26t-76.5 65.5t-23 82.5q0 69 51 124.5t130 72.5q-71 36 -112 79.5t-41 108.5q0 38 21 74.5t68 61t120 24.5q71 0 119.5 -21.5t72 -57.5t23.5 -78q0 -60 -43.5 -108.5t-118.5 -68.5
q88 -43 140.5 -93zM187.5 479.5q17.5 -28.5 46.5 -47.5t78 -42l5 -2q111 59 111 162q-1 54 -36.5 87t-92.5 33q-55 0 -92 -31.5t-37 -88.5q0 -42 17.5 -70.5zM410.5 57.5q44.5 36.5 44.5 95.5q0 63 -47 105t-134 84q-52 -25 -90 -67.5t-38 -107.5q0 -72 45 -109t110 -37
t109.5 36.5z" />
    <glyph glyph-name="nine" unicode="9" horiz-adv-x="586" 
d="M457.5 633q62.5 -73 62.5 -248q0 -141 -28 -228.5t-86 -128.5t-149 -41q-65 0 -113 20.5t-58 53.5q-1 3 -1 10q0 16 10.5 29t20.5 14q36 -48 71 -67.5t72 -19.5q100 0 135.5 88t38.5 239q-28 -40 -70.5 -64.5t-99.5 -24.5q-87 0 -142 55.5t-55 159.5q0 103 58.5 164.5
t163.5 61.5q107 0 169.5 -73zM368.5 338.5q41.5 30.5 64.5 83.5q-4 117 -37.5 182.5t-110.5 65.5q-69 0 -102 -55.5t-33 -136.5q0 -80 32.5 -125t93.5 -45q51 0 92.5 30.5z" />
    <glyph glyph-name="colon" unicode=":" horiz-adv-x="253" 
d="M89 355q-16 16 -16 38q0 23 16 38.5t38 15.5q23 0 38.5 -15.5t15.5 -38.5q0 -22 -15.5 -38t-38.5 -16q-22 0 -38 16zM89 3q-16 16 -16 38q0 23 16 38.5t38 15.5q23 0 38.5 -15.5t15.5 -38.5q0 -22 -15.5 -38t-38.5 -16q-22 0 -38 16z" />
    <glyph glyph-name="semicolon" unicode=";" horiz-adv-x="259" 
d="M94 355q-16 16 -16 38q0 23 16 38.5t38 15.5q23 0 38.5 -15.5t15.5 -38.5q0 -22 -15.5 -38t-38.5 -16q-22 0 -38 16zM88 -81q31 36 31 68q0 24 -12.5 35.5t-33.5 18.5q0 20 15.5 37t40.5 17q24 0 40.5 -16.5t16.5 -52.5q0 -66 -68 -125q-16 2 -30 18z" />
    <glyph glyph-name="less" unicode="&#x3c;" horiz-adv-x="487" 
d="M39 351q0 5 4 11l362 174q10 5 18.5 -2.5t8.5 -24.5q0 -8 -3 -19l-315 -139l315 -139q3 -10 3 -19q0 -13 -5.5 -21t-13.5 -8q-2 0 -8 2l-362 174q-4 8 -4 11z" />
    <glyph glyph-name="equal" unicode="=" horiz-adv-x="550" 
d="M472 473q5 -13 5 -24q0 -12 -5 -25h-395q-4 11 -4 25q0 13 4 24h395zM472 270q5 -13 5 -25q0 -10 -5 -25h-395q-4 12 -4 25q0 14 4 25h395z" />
    <glyph glyph-name="greater" unicode="&#x3e;" horiz-adv-x="488" 
d="M82 166l-8 -2q-8 0 -13.5 8t-5.5 21q0 9 3 19l315 139l-315 139q-2 7 -2 18q0 17 8.5 25t17.5 3l362 -174q4 -4 4 -11q0 -6 -4 -11z" />
    <glyph glyph-name="question" unicode="?" horiz-adv-x="504" 
d="M172 332q48 1 94.5 23t77.5 65.5t31 104.5q0 75 -39.5 122t-116.5 47q-69 0 -100.5 -43.5t-33.5 -94.5q-35 0 -49.5 12t-14.5 33q0 31 24.5 61t71 49.5t109.5 19.5q101 0 167.5 -50t66.5 -155q0 -68 -31.5 -118.5t-83 -79t-111.5 -35.5v-112h-62v151zM152 3
q-16 16 -16 38q0 23 16 38.5t38 15.5t38 -16t16 -38t-16 -38t-38 -16t-38 16z" />
    <glyph glyph-name="at" unicode="@" horiz-adv-x="858" 
d="M651 591.5q77 -56.5 109.5 -140t32.5 -170.5q0 -81 -21.5 -135.5t-56.5 -81t-75 -26.5t-70 28t-30 71l1 7q-45 -93 -133 -93q-145 0 -145 189q0 112 46.5 175.5t134.5 63.5q90 0 127 -52t36 -124l-1 -141q0 -36 12 -59t36 -23q39 0 64.5 52t25.5 153q0 78 -27 150.5
t-92.5 121t-173.5 48.5q-106 0 -177 -47.5t-104.5 -125t-33.5 -169.5q0 -98 35.5 -171t92 -111.5t118.5 -38.5q15 0 22 1q6 -9 6 -17q0 -13 -14.5 -20t-40.5 -7q-59 0 -128 39.5t-117.5 121t-48.5 199.5q0 101 41.5 189.5t129 144t217.5 55.5q125 0 202 -56.5zM474.5 113
q29.5 28 46 77t16.5 110q0 65 -22 104t-80 39q-64 0 -98 -50.5t-34 -151.5q0 -156 103 -156q39 0 68.5 28z" />
    <glyph glyph-name="A" unicode="A" horiz-adv-x="592" 
d="M583 8q-17 -19 -47 -19q-19 0 -33 8.5t-18 24.5l-61 198h-262l-50 -167q-6 -22 -6 -33q0 -16 6 -23q-21 -8 -44 -8q-46 0 -46 37q0 13 10 45l212 622q33 13 66 13q39 0 48 -30l201 -621q11 -33 24 -47zM410 268l-118 384l-115 -384h233z" />
    <glyph glyph-name="B" unicode="B" horiz-adv-x="579" 
d="M479.5 309.5q40.5 -45.5 40.5 -121.5q0 -102 -70 -145t-210 -43h-96q-21 0 -34 12t-14 33v532q0 24 -3 55.5t-10 51.5q42 22 143 22q129 0 194 -40.5t65 -129.5q0 -62 -32 -106.5t-91 -62.5q77 -12 117.5 -57.5zM177 668v-286h84q62 -1 100.5 38t38.5 111t-41.5 105.5
t-136.5 33.5q-35 0 -45 -2zM385.5 72.5q47.5 35.5 47.5 114.5q0 88 -48.5 123t-141.5 35h-66v-308h66q95 0 142.5 35.5z" />
    <glyph glyph-name="C" unicode="C" horiz-adv-x="596" 
d="M128.5 80q-69.5 93 -69.5 266q0 174 71 267t199 93q53 0 98.5 -13.5t73 -37t27.5 -50.5q0 -19 -18 -33t-47 -11q-8 52 -42.5 80t-90.5 28q-90 0 -136 -81.5t-46 -241.5q0 -159 46 -240.5t134 -81.5q56 0 98 34t54 95l12 1q23 0 39 -10.5t16 -30.5q0 -33 -31.5 -62
t-83 -46.5t-108.5 -17.5q-126 0 -195.5 93z" />
    <glyph glyph-name="D" unicode="D" horiz-adv-x="641" 
d="M107 12q-12 12 -12 32l-2 533q0 42 -1.5 71t-8.5 49q76 7 208 7q141 0 215.5 -88.5t74.5 -264.5q0 -351 -286 -351h-154q-22 0 -34 12zM291 37q101 0 151.5 73t50.5 236q0 164 -51 242t-151 78h-118l1 -629h117z" />
    <glyph glyph-name="E" unicode="E" horiz-adv-x="537" 
d="M476.5 56.5q4.5 -11.5 4.5 -24.5q0 -14 -5 -23t-15 -9h-318q-21 0 -33.5 12t-12.5 33l-1 524q0 65 -13 103q14 12 28.5 16.5t40.5 4.5h302q7 0 11 -6.5t4 -16.5q0 -14 -6.5 -29t-16.5 -19q-143 25 -270 26v-260h246q3 -12 3 -24t-3 -24h-245v-296q125 1 287 28
q8 -4 12.5 -15.5z" />
    <glyph glyph-name="F" unicode="F" horiz-adv-x="518" 
d="M465 686.5q4 -6.5 4 -16.5q0 -14 -6.5 -29t-16.5 -19q-143 25 -270 26v-264h245q3 -12 3 -24q0 -14 -3 -25h-244v-221q0 -73 13 -107q-21 -18 -47 -18q-20 0 -33 12t-13 32l-1 536q0 65 -13 103q14 12 28.5 16.5t40.5 4.5h302q7 0 11 -6.5z" />
    <glyph glyph-name="G" unicode="G" horiz-adv-x="625" 
d="M130.5 79.5q-71.5 92.5 -71.5 266.5t73 267t206 93q50 0 95 -13.5t72.5 -36.5t27.5 -49q0 -21 -18 -35t-47 -11q-8 52 -42 80t-86 28q-192 0 -192 -323q0 -322 191 -322q86 0 117 59.5t31 137.5q0 121 -74 137q4 15 18 22.5t35 7.5q45 0 74 -36.5t29 -115.5
q0 -66 -25 -123t-77 -91.5t-131 -34.5q-134 0 -205.5 92.5z" />
    <glyph glyph-name="H" unicode="H" horiz-adv-x="680" 
d="M597 7q-21 -18 -47 -18q-20 0 -33 12t-13 32l-1 309h-326v-228q0 -73 13 -107q-21 -18 -47 -18q-20 0 -33 12t-13 32l-1 544q0 69 -13 107q21 18 47 18q21 0 34 -11.5t13 -32.5v-268h326v187q0 69 -13 107q21 18 47 18q21 0 34 -11.5t13 -32.5v-544q0 -73 13 -107z" />
    <glyph glyph-name="I" unicode="I" horiz-adv-x="273" 
d="M110 1q-13 12 -13 32l-1 544q0 69 -13 107q21 18 47 18q21 0 34 -11.5t13 -32.5v-544q0 -73 13 -107q-21 -18 -47 -18q-20 0 -33 12z" />
    <glyph glyph-name="J" unicode="J" horiz-adv-x="456" 
d="M83 19q-37 32 -37 77q0 24 12.5 41t37.5 17q21 0 29 -14q-9 -21 -9 -40q0 -36 23 -56t52 -20q54 0 73.5 38t19.5 110v442q0 37 4 51q-35 0 -103 4q-21 1 -36 -7.5t-15 -31.5q0 -34 29 -50q-11 -10 -35 -10q-23 0 -40.5 18t-17.5 48q0 31 23 50.5t64 19.5l56 -2
q56 -4 88 -4t68 4q-4 -24 -4 -72v-453q0 -192 -173 -192q-72 0 -109 32z" />
    <glyph glyph-name="K" unicode="K" horiz-adv-x="585" 
d="M568 38q0 -23 -19 -37.5t-45 -14.5q-65 0 -97 99l-42 133q-13 34 -28 56t-47.5 36.5t-87.5 14.5h-25v-211q0 -73 13 -107q-21 -18 -47 -18q-20 0 -33 12t-13 32l-1 544q0 69 -13 107q21 18 47 18q21 0 33.5 -11.5t12.5 -32.5l1 -296l28 3q66 8 113.5 47.5t72 94.5
t24.5 107q0 48 -18 76q18 12 37 12q24 0 42 -20.5t18 -67.5q0 -79 -49 -152t-148 -110q58 -9 90.5 -37t50.5 -76l47 -134q13 -30 23 -41.5t25 -12.5h3q14 0 25 12q7 -13 7 -25z" />
    <glyph glyph-name="L" unicode="L" horiz-adv-x="480" 
d="M177 48q117 1 261 27q7 -4 11.5 -16t4.5 -25q0 -15 -5 -24.5t-15 -9.5h-291q-21 0 -33.5 12t-12.5 33l-1 532q0 69 -13 107q21 18 47 18q21 0 33.5 -11.5t12.5 -32.5z" />
    <glyph glyph-name="M" unicode="M" horiz-adv-x="850" 
d="M767 7q-21 -18 -47 -18q-19 0 -31 12t-12 32l-2 563l-219 -487q-24 -9 -44 -9q-18 0 -32 7q-113 214 -236 486l1 -479q0 -75 13 -113q-14 -12 -33 -12q-29 0 -29 37l-1 553q0 71 -6 111q12 12 53 12q27 0 42 -16l83 -175l161 -334q20 44 139 315q30 71 52 121t36 81
q21 8 49 8q19 0 33.5 -7t15.5 -17l2 -564q0 -72 12 -107z" />
    <glyph glyph-name="N" unicode="N" horiz-adv-x="684" 
d="M85 1q12 36 12 113l-1 458q0 80 -7 118q11 10 38 10q20 0 24 -5q308 -443 390 -584l-17 498q-2 34 5 58t22 31q4 1 14 1q13 0 22 -4q-1 -11 1 -40l1 -32v-510q0 -77 5 -112q-4 -5 -15 -8t-22 -3q-10 0 -20 4q-98 119 -204.5 279.5t-185.5 294.5l15 -530
q1 -22 -11.5 -35.5t-29.5 -13.5q-21 0 -36 12z" />
    <glyph glyph-name="O" unicode="O" horiz-adv-x="651" 
d="M127 77q-68 90 -68 269q0 180 68 270t198 90q131 0 199 -90t68 -270t-68 -269.5t-199 -89.5q-130 0 -198 90zM458.5 102.5q44.5 78.5 44.5 243.5q0 166 -44.5 244.5t-133.5 78.5q-88 0 -132.5 -79t-44.5 -244t44.5 -243.5t132.5 -78.5q89 0 133.5 78.5z" />
    <glyph glyph-name="P" unicode="P" horiz-adv-x="559" 
d="M441 656.5q70 -49.5 70 -154.5q0 -226 -306 -226h-28v-165q0 -24 3 -55t10 -49q-7 -7 -19 -12.5t-27 -5.5q-21 0 -34 12t-14 32v544q0 24 -3 55.5t-10 51.5q42 22 141 22q147 0 217 -49.5zM371 358q52 46 52 139q0 87 -48 129.5t-154 42.5q-35 0 -44 -2v-355h30
q112 0 164 46z" />
    <glyph glyph-name="Q" unicode="Q" horiz-adv-x="656" 
d="M373 -111q-71 38 -155 101q-77 57 -118 142t-41 214q0 179 70 269.5t198 90.5q129 0 198.5 -90.5t69.5 -269.5q0 -175 -71 -267t-197 -92q-29 0 -52 6q44 -34 93 -56t95 -22q50 0 83 19t35 53q22 -1 35.5 -14.5t13.5 -33.5q0 -40 -32 -64t-88 -24q-66 0 -137 38z
M459 102.5q45 78.5 45 244.5q0 165 -44.5 243.5t-132.5 78.5q-89 0 -132.5 -82.5t-43.5 -251.5q0 -311 175 -311q88 0 133 78.5z" />
    <glyph glyph-name="R" unicode="R" horiz-adv-x="599" 
d="M584 40q0 -24 -20 -37.5t-40 -13.5q-37 0 -58.5 23.5t-42.5 75.5l-46 118q-14 34 -25.5 53t-35.5 32.5t-65 13.5l-74 1v-195q0 -24 3 -55t10 -49q-7 -7 -19 -12.5t-27 -5.5q-21 0 -34 12t-14 32v544q0 24 -3 55.5t-10 51.5q42 22 147 22q143 0 211 -44.5t68 -144.5
q0 -72 -41.5 -122t-111.5 -68q35 -10 56.5 -35.5t39.5 -65.5l50 -118q12 -29 23 -41.5t24 -13.5q18 0 29 13q6 -12 6 -26zM255 341q73 2 119.5 48t46.5 121q0 82 -44.5 121t-142.5 39q-39 0 -57 -3v-325z" />
    <glyph glyph-name="S" unicode="S" horiz-adv-x="555" 
d="M107.5 28.5q-56.5 41.5 -56.5 106.5q0 58 56 58q11 0 18 -1q-5 -15 -3 -42q3 -58 45.5 -92t115.5 -34q66 0 105.5 31t39.5 91q0 39 -17.5 67t-50 52t-92.5 57q-68 38 -107 66.5t-62 65.5t-23 88q0 82 60 123t152 41q90 0 144.5 -33t54.5 -91q0 -42 -40 -46q-8 -2 -13 -2
q-6 0 -18 2q3 11 3 20q0 12 -3 22q-4 43 -41 67t-95 24q-53 0 -90.5 -24t-37.5 -78q0 -38 19 -66.5t51 -50.5t91 -55q63 -34 104 -64t66 -70t25 -93q0 -48 -23.5 -89t-75.5 -66.5t-134 -25.5q-111 0 -167.5 41.5z" />
    <glyph glyph-name="T" unicode="T" horiz-adv-x="528" 
d="M512 671q0 -15 -6.5 -30t-16.5 -19l-26 6q-104 23 -159 27l1 -541q0 -73 13 -107q-21 -18 -47 -18q-20 0 -33 12t-13 32l-1 622q-36 -3 -71.5 -9.5t-90.5 -18.5l-22 -5q-10 4 -16.5 19t-6.5 30q0 22 14 22h467q14 0 14 -22z" />
    <glyph glyph-name="U" unicode="U" horiz-adv-x="658" 
d="M573 305q0 -158 -62 -238t-183 -80q-119 0 -178 77.5t-59 240.5v272q0 72 -12 107q21 18 46 18q21 0 33.5 -11.5t12.5 -32.5v-356q0 -144 38 -211t119 -67q83 0 124.5 70.5t41.5 207.5v275q0 69 -13 107q21 18 46 18q20 0 33 -12t13 -32v-353z" />
    <glyph glyph-name="V" unicode="V" horiz-adv-x="580" 
d="M557 670q0 -15 -9 -46l-208 -622q-27 -13 -54 -13q-45 0 -54 26l-199 626q-7 28 -24 46q19 19 50 19q21 0 34 -8t17 -24l185 -624l173 593q6 18 6 32q0 16 -6 23q19 8 42 8q49 0 47 -36z" />
    <glyph glyph-name="W" unicode="W" horiz-adv-x="922" 
d="M898 668q0 -9 -4 -25t-5 -21l-174 -620q-27 -13 -55 -13q-20 0 -33 6.5t-17 19.5l-144 509l-150 -522q-27 -13 -53 -13q-47 0 -53 26l-166 626q-7 25 -24 46q19 19 49 19q21 0 34.5 -8t17.5 -24l152 -616l146 515q3 12 3 22q0 15 -6 27q12 6 28 9.5t28 3.5
q15 0 25.5 -4.5t14.5 -13.5l159 -558l138 582q1 5 3.5 15t2.5 17q0 15 -6 24q21 7 42 7q48 0 47 -36z" />
    <glyph glyph-name="X" unicode="X" horiz-adv-x="604" 
d="M580.5 76.5q8.5 -11.5 8.5 -26.5q0 -24 -21.5 -42t-55.5 -18q-37 0 -61 22t-46 64l-114 215l-179 -275q-15 -25 -41 -25q-20 0 -30.5 12t-13.5 38q19 7 36 24t40 49l159 230l-132 246q-11 20 -21 29t-22 9q-14 0 -22 -9t-8 -21q-14 5 -22 16t-8 27q0 24 19 42t55 18
q38 0 63 -22.5t47 -64.5l105 -201l162 265q8 12 17 18.5t24 6.5q20 0 30.5 -12t13.5 -38q-37 -15 -76 -73l-145 -215l143 -264q22 -39 45 -39q13 0 20.5 9.5t7.5 20.5q14 -4 22.5 -15.5z" />
    <glyph glyph-name="Y" unicode="Y" horiz-adv-x="553" 
d="M317 249v-135q0 -69 13 -107q-7 -7 -19 -12.5t-27 -5.5q-21 0 -33.5 12t-12.5 32l-1 216q-8 12 -11 18l-179 364q-10 21 -34 47q9 10 24 18t34 8q21 0 33 -11t22 -33l164 -353l155 329q10 23 10 35q0 15 -7 25q18 8 44 8q19 0 29 -11t11 -28q0 -19 -20 -52z" />
    <glyph glyph-name="Z" unicode="Z" horiz-adv-x="573" 
d="M528.5 163q16.5 -28 16.5 -60q0 -47 -35.5 -76t-104.5 -28l-234 3q-62 2 -108 -8l-15 23q0 21 6 38.5t20 35.5l370 540l-244 -8q-43 -1 -64 -18t-21 -47q0 -15 6 -26t18 -23l-9 -1q-13 0 -31 7q-21 5 -35 29t-14 52q0 44 36.5 72t106.5 27l187 -4q51 0 77.5 1.5t44.5 6.5
l17 -24q0 -24 -5.5 -41.5t-18.5 -35.5l-373 -535l260 7q46 1 69 16.5t27 39.5q2 12 2 18q0 30 -22 54l13 1q3 0 13 -2q28 -6 44.5 -34z" />
    <glyph glyph-name="bracketleft" unicode="[" horiz-adv-x="340" 
d="M247 734v-42h-79v-816h79v-41h-154v899h154z" />
    <glyph glyph-name="backslash" unicode="\" horiz-adv-x="470" 
d="M57 731h81l324 -873h-80z" />
    <glyph glyph-name="bracketright" unicode="]" horiz-adv-x="340" 
d="M228 -165h-154v41h79v816h-79v42h154v-899z" />
    <glyph glyph-name="asciicircum" unicode="^" horiz-adv-x="540" 
d="M85 266.5q-11 3.5 -12 7.5l171 162q9 3 28 3q15 0 24 -3l171 -162q-2 -4 -13 -8t-18 -4l-166 117l-166 -117q-8 1 -19 4.5z" />
    <glyph glyph-name="underscore" unicode="_" horiz-adv-x="380" 
d="M410 -69v-45l-440 2v45z" />
    <glyph glyph-name="grave" unicode="`" horiz-adv-x="600" 
d="M213 714.5q26 6.5 44 5.5l91 -150q-3 -3 -14.5 -5t-21.5 -2l-135 138q10 7 36 13.5z" />
    <glyph glyph-name="a" unicode="a" horiz-adv-x="550" 
d="M540 42q0 -22 -20.5 -37t-49.5 -15q-43 0 -65 30t-22 94v29q-33 -71 -89.5 -112.5t-123.5 -41.5q-58 0 -91.5 31.5t-33.5 84.5q0 59 45 100t121 62q67 18 139 18q20 0 29 -1v26q0 89 -29.5 132t-97.5 43q-44 0 -74 -19t-30 -62q0 -23 10.5 -43t32.5 -28q-16 -20 -48 -20
q-33 0 -54 26.5t-21 61.5q0 58 51 89t140 31q103 0 152 -53t49 -163v-200q0 -53 36 -53q8 0 18 5.5t15 15.5q11 -15 11 -31zM283.5 74.5q41.5 29.5 69 77.5t28.5 100l-23 1q-35 0 -71 -5.5t-61 -15.5q-44 -16 -69 -44t-25 -66q0 -33 17 -55t53 -22q40 0 81.5 29.5z" />
    <glyph glyph-name="b" unicode="b" horiz-adv-x="541" 
d="M161 3q-54 16 -87 51v632q0 20 12.5 32t31.5 12q28 0 49 -18q-7 -27 -10 -70t-3 -76v-171q19 56 64 91t106 35q173 0 173 -245q0 -131 -55 -210t-170 -79q-57 0 -111 16zM381.5 97.5q31.5 70.5 31.5 178.5q0 101 -26.5 149t-77.5 48q-53 0 -88 -36.5t-51 -91.5t-16 -112
v-167q14 -16 46 -27.5t65 -11.5q85 0 116.5 70.5z" />
    <glyph glyph-name="c" unicode="c" horiz-adv-x="505" 
d="M105 55q-61 68 -61 196q0 126 62.5 198t176.5 72q81 0 125.5 -35t44.5 -92q0 -35 -18.5 -56t-47.5 -21q-33 0 -47 19q33 13 33 64q0 43 -27.5 64.5t-69.5 21.5q-67 0 -107 -58t-40 -165q0 -115 46 -168t122 -53q55 0 95 27t52 78q15 -5 15 -25q0 -13 -5 -27
q-16 -52 -63.5 -80t-114.5 -28q-110 0 -171 68z" />
    <glyph glyph-name="d" unicode="d" horiz-adv-x="566" 
d="M539 37q0 -20 -17.5 -32.5t-44.5 -12.5q-82 0 -82 128v7q-24 -66 -68.5 -103t-110.5 -37q-96 0 -134 71t-38 172q0 138 54.5 214.5t155.5 76.5q51 0 86.5 -20.5t51.5 -59.5l-1 134q0 92 -13 137q18 18 46 18q21 0 34 -11.5t13 -32.5l-1 -581q0 -51 31 -51q19 0 27 15
q11 -15 11 -32zM319 72q35 36 53 97t18 135q0 170 -123 170q-67 0 -102.5 -61t-35.5 -180q0 -89 22.5 -143t84.5 -54q48 0 83 36z" />
    <glyph glyph-name="e" unicode="e" horiz-adv-x="511" 
d="M462 106q0 -10 -6 -27q-19 -44 -66.5 -68t-111.5 -24q-110 0 -172 68.5t-62 195.5q0 126 61.5 198t176.5 72q83 0 133 -37.5t50 -106.5q0 -74 -60 -113t-167 -39q-59 0 -108 7q6 -101 50.5 -145.5t116.5 -44.5q55 0 95 22.5t55 64.5q15 -5 15 -23zM170.5 428.5
q-40.5 -56.5 -41.5 -162.5q48 -4 78 -5q80 0 126.5 28.5t46.5 97.5q0 53 -29 75.5t-72 22.5q-68 0 -108.5 -56.5z" />
    <glyph glyph-name="f" unicode="f" horiz-adv-x="388" 
d="M363 718.5q36 -22.5 36 -62.5q0 -30 -18 -47.5t-40 -17.5q-23 0 -32 10q19 25 19 53q0 53 -64 53q-53 0 -69 -43t-16 -121v-36h62q16 0 41 1t41 2l-1 -22q-1 -10 -7.5 -16.5t-15.5 -6.5h-120v-351q0 -72 12 -107q-20 -18 -45 -18q-20 0 -33 12t-13 32l-1 432h-15
q-41 0 -60 -3l1 23q1 11 7 16.5t16 5.5h51v49q0 185 167 185q61 0 97 -22.5z" />
    <glyph glyph-name="g" unicode="g" horiz-adv-x="537" 
d="M96.5 -202.5q-48.5 30.5 -48.5 89.5q0 33 17.5 53.5t44.5 20.5q28 0 40 -15q-28 -21 -28 -61q0 -41 27 -62.5t72 -21.5q85 0 125.5 61.5t40.5 182.5v68q-18 -56 -61 -86.5t-105 -30.5q-177 0 -177 252q0 115 50.5 194t177.5 79q56 0 108.5 -15.5t85.5 -50.5v-410
q0 -278 -248 -278q-73 0 -121.5 30.5zM351 101q35 61 36 147l1 199q-17 18 -48 27.5t-69 9.5q-83 0 -112.5 -67t-29.5 -177q0 -106 27.5 -153t85.5 -47q74 0 109 61z" />
    <glyph glyph-name="h" unicode="h" horiz-adv-x="562" 
d="M498 7q-20 -18 -46 -18q-20 0 -32.5 12t-12.5 32l-1 270q0 88 -23.5 131t-80.5 43q-35 0 -67.5 -24.5t-53 -77.5t-20.5 -134q0 -129 2 -168t12 -66q-21 -18 -46 -18q-21 0 -33.5 13t-12.5 35l-1 649q0 22 12 33t33 11q15 0 28 -5.5t20 -12.5q-8 -25 -10.5 -59.5
t-3.5 -96.5l-1 -151q22 55 65 85.5t100 30.5q82 0 121 -52.5t39 -155.5l1 -199q0 -72 12 -107z" />
    <glyph glyph-name="i" unicode="i" horiz-adv-x="260" 
d="M89 616q-16 16 -16 38q0 23 16 38.5t38 15.5q23 0 38.5 -15.5t15.5 -38.5q0 -22 -15.5 -38t-38.5 -16q-22 0 -38 16zM184 7q-21 -18 -46 -18q-20 0 -32.5 12t-12.5 32l-1 363q0 69 -13 107q21 18 46 18q20 0 32.5 -11.5t12.5 -32.5l1 -363q0 -73 13 -107z" />
    <glyph glyph-name="j" unicode="j" horiz-adv-x="260" 
d="M94.5 628.5q-15.5 15.5 -15.5 37.5t15.5 37.5t37.5 15.5t37.5 -15.5t15.5 -37.5t-15.5 -37.5t-37.5 -15.5t-37.5 15.5zM-52.5 -210.5q-27.5 21.5 -27.5 58.5q0 19 11.5 33.5t33.5 14.5q17 0 25 -14q-8 -15 -8 -34q0 -25 14 -35t33 -10q41 0 54 40t13 118l1 434
q0 72 -12 108q20 18 45 18q20 0 32.5 -12t12.5 -33l1 -529q0 -77 -33.5 -128t-114.5 -51q-53 0 -80.5 21.5z" />
    <glyph glyph-name="k" unicode="k" horiz-adv-x="546" 
d="M518 41q0 -22 -20 -37t-47 -15q-25 0 -45.5 15t-32.5 43l-86 170q-57 -21 -126 -38q0 -91 2 -119t12 -53q-10 -8 -20.5 -13t-27.5 -5q-25 0 -34.5 12.5t-9.5 35.5l-1 649q0 21 12.5 32.5t33.5 11.5q28 0 46 -18q-7 -34 -9 -61t-3 -69l-1 -27l-1 -183q23 68 75 108.5
t123 40.5q59 0 91.5 -31t32.5 -83q0 -57 -39 -100t-100 -71q17 -7 37 -39l59 -106q12 -19 19.5 -26.5t20.5 -7.5q17 0 28 13q11 -12 11 -29zM334.5 289.5q66.5 43.5 66.5 112.5q0 37 -19 54.5t-51 17.5q-50 0 -88.5 -33.5t-60 -92t-21.5 -133.5q107 31 173.5 74.5z" />
    <glyph glyph-name="l" unicode="l" horiz-adv-x="270" 
d="M105 19q-25 29 -25 82v585q0 21 13 32.5t34 11.5q25 0 46 -18q-8 -26 -10.5 -67t-2.5 -128v-412q0 -26 9.5 -39.5t28.5 -13.5q11 0 21.5 5.5t15.5 15.5q11 -15 11 -31q0 -23 -20.5 -37.5t-50.5 -14.5q-45 0 -70 29z" />
    <glyph glyph-name="m" unicode="m" horiz-adv-x="872" 
d="M808 7q-22 -18 -46 -18q-20 0 -33 12t-13 32v270q0 86 -21 130t-74 44q-32 0 -62 -23t-50.5 -73.5t-21.5 -126.5l1 -140q0 -72 12 -107q-20 -18 -45 -18q-20 0 -32 12t-12 32l-1 270q0 89 -22 131.5t-76 42.5q-33 0 -62.5 -24.5t-48.5 -79t-19 -138.5q0 -126 2 -164
t12 -64q-21 -18 -46 -18q-21 0 -33.5 13t-12.5 35l-1 368q0 26 -9 39.5t-26 13.5q-9 0 -18 -5.5t-13 -15.5q-11 14 -11 31q0 23 18 37.5t44 14.5q41 0 63.5 -28.5t22.5 -82.5v-16q20 60 62 94t99 34q122 0 145 -130q18 61 61 95.5t102 34.5q78 0 115 -52.5t37 -155.5v-199
q0 -69 13 -107z" />
    <glyph glyph-name="n" unicode="n" horiz-adv-x="574" 
d="M510 7q-20 -18 -46 -18q-21 0 -34 12t-13 32v270q-1 87 -24.5 129t-79.5 42q-35 0 -67.5 -24t-53.5 -76t-21 -133q0 -129 2 -168t12 -66q-21 -18 -46 -18q-21 0 -34 13t-13 35v369q-1 28 -7.5 40t-20.5 12q-19 0 -26 -16q-12 17 -12 32q0 21 16 33.5t44 12.5q38 0 58 -26
t20 -77v-20q21 59 66 91.5t106 32.5q161 0 161 -208v-199q2 -76 13 -107z" />
    <glyph glyph-name="o" unicode="o" horiz-adv-x="547" 
d="M104.5 57.5q-60.5 70.5 -60.5 196.5t60.5 196.5t168.5 70.5q109 0 169.5 -70.5t60.5 -196.5t-60.5 -196.5t-169.5 -70.5q-108 0 -168.5 70.5zM380 82.5q37 59.5 37 171.5t-37 171t-107 59t-107 -59t-37 -171t37 -171.5t107 -59.5t107 59.5z" />
    <glyph glyph-name="p" unicode="p" horiz-adv-x="563" 
d="M480.5 449.5q38.5 -71.5 38.5 -171.5q0 -138 -55.5 -214.5t-155.5 -76.5q-51 0 -86.5 21t-50.5 59v-122q0 -39 3 -81t10 -68q-6 -7 -18 -12.5t-28 -5.5q-21 0 -34 11.5t-13 32.5l1 582q0 28 -6.5 39.5t-21.5 11.5q-19 0 -26 -15q-12 17 -12 32q0 20 17 32.5t43 12.5
q81 0 81 -127v-9q24 66 68.5 103t110.5 37q96 0 134.5 -71.5zM397.5 95.5q36.5 61.5 36.5 181.5q0 86 -22.5 140.5t-85.5 54.5q-48 0 -83 -35.5t-53 -95.5t-18 -130q0 -82 26 -129.5t92 -47.5q71 0 107.5 61.5z" />
    <glyph glyph-name="q" unicode="q" horiz-adv-x="540" 
d="M374 -208q9 29 11 68.5t2 114.5v140q-18 -58 -63.5 -93.5t-105.5 -35.5q-83 0 -128.5 62t-45.5 191q0 72 21.5 136t71 105t129.5 41q63 0 117 -18.5t84 -48.5v-636q0 -20 -12.5 -32t-34.5 -13q-25 0 -46 19zM322 72.5q34 38.5 50 93.5t16 105v172q-16 15 -49.5 26
t-68.5 11q-141 0 -141 -244q1 -103 27.5 -152.5t80.5 -49.5q51 0 85 38.5z" />
    <glyph glyph-name="r" unicode="r" horiz-adv-x="441" 
d="M379.5 493.5q31.5 -27.5 31.5 -76.5q0 -33 -19 -54.5t-45 -21.5q-22 0 -30 10q11 17 15 31.5t4 32.5q0 62 -58 62q-45 0 -75.5 -57.5t-30.5 -178.5v-54q0 -90 2 -122t11 -56q-21 -18 -47 -18q-20 0 -33 12.5t-13 34.5v368q0 28 -6.5 40t-21.5 12q-19 0 -26 -16
q-12 17 -12 32q0 21 16 33.5t44 12.5q39 0 58.5 -27.5t18.5 -81.5v-5q17 57 51 86t82 29q52 0 83.5 -27.5z" />
    <glyph glyph-name="s" unicode="s" horiz-adv-x="468" 
d="M84.5 20.5q-46.5 33.5 -46.5 87.5q0 25 12 40.5t38 15.5q10 0 16 -1q-3 -12 -3 -24q0 -11 1 -18q2 -44 36.5 -70t92.5 -26q57 0 91 20t34 59q0 36 -26 57t-82 46l-32 15q-56 26 -85.5 44t-51 49t-21.5 78q0 65 51 97t129 32q82 0 128 -26.5t46 -73.5q0 -42 -37 -46
q-10 -2 -13 -2q-6 0 -16 2q2 12 2 20q0 13 -3 22q-4 33 -32.5 50t-77.5 17q-45 0 -74 -16.5t-29 -52.5q0 -30 17 -51.5t40.5 -35t71.5 -36.5l22 -10q49 -23 78.5 -40.5t50 -45.5t20.5 -67q0 -59 -49 -101t-159 -42q-93 0 -139.5 33.5z" />
    <glyph glyph-name="t" unicode="t" horiz-adv-x="339" 
d="M258.5 508q26.5 1 42.5 2l-1 -22q-1 -10 -7 -16.5t-15 -6.5h-103v-38v-322q0 -26 12 -40t36 -14q15 0 28.5 5.5t18.5 15.5q11 -15 11 -32q0 -23 -24 -37t-61 -14q-47 0 -74 29.5t-27 81.5v365h-14q-41 0 -60 -3l1 23q1 22 22 22h51v89q0 21 13 32.5t34 11.5q25 0 46 -18
q-11 -34 -12 -115h40q16 0 42.5 1z" />
    <glyph glyph-name="u" unicode="u" horiz-adv-x="566" 
d="M541 36q0 -21 -16 -33.5t-44 -12.5q-78 0 -78 102v20q-21 -59 -65 -92t-103 -33q-82 0 -119 48t-38 162v198q0 69 -13 108q22 18 47 18q20 0 32.5 -12t12.5 -33l1 -269q0 -65 9.5 -103t31 -55.5t59.5 -17.5q34 0 65.5 24.5t52 78t20.5 135.5q0 129 -2 168t-12 66
q21 18 46 18q20 0 33 -13t13 -35l1 -370q0 -28 6.5 -39.5t21.5 -11.5q18 0 26 15q12 -16 12 -31z" />
    <glyph glyph-name="v" unicode="v" horiz-adv-x="487" 
d="M470 477q0 -22 -9 -45l-167 -430q-27 -13 -54 -13q-37 0 -47 30l-158 430q-12 33 -23 46q17 19 47 19q18 0 31 -8.5t17 -24.5l144 -440l133 410q5 25 5 32q0 16 -5 23q19 8 40 8q47 0 46 -37z" />
    <glyph glyph-name="w" unicode="w" horiz-adv-x="781" 
d="M175 19l-135 430q-2 4 -8.5 20.5t-15.5 25.5q19 19 47 19q19 0 31.5 -8.5t16.5 -24.5l123 -435l105 405q5 23 5 32q0 13 -5 23q23 10 54 10q41 0 51 -26l117 -444l112 405q5 25 5 32q0 13 -5 23q19 8 40 8q47 0 46 -37q0 -22 -9 -45l-145 -430q-27 -13 -54 -13
q-17 0 -30.5 7.5t-17.5 22.5l-110 412l-113 -429q-27 -13 -59 -13q-35 0 -46 30z" />
    <glyph glyph-name="x" unicode="x" horiz-adv-x="501" 
d="M482 72.5q9 -11.5 9 -27.5q0 -23 -20 -41t-53 -18q-35 0 -57 21t-46 66l-75 133l-126 -195q-15 -24 -41 -24q-41 0 -46 49q21 7 39 24.5t40 48.5l105 148l-88 153q-12 21 -22 30t-22 9q-13 0 -21 -9t-8 -21q-15 5 -23.5 16t-8.5 26q0 24 20 42t55 18q34 0 54.5 -19.5
t46.5 -67.5l67 -120l119 181q14 26 42 26q20 0 31.5 -12t14.5 -38q-22 -8 -39 -26t-39 -48l-100 -134l96 -167q21 -38 46 -38q12 0 19.5 9.5t7.5 20.5q14 -4 23 -15.5z" />
    <glyph glyph-name="y" unicode="y" horiz-adv-x="547" 
d="M475 49q0 -282 -235 -282q-72 0 -121.5 26t-49.5 82q0 28 16.5 47t43.5 19t39 -15q-13 -8 -19 -21.5t-6 -25.5q0 -39 28.5 -58.5t68.5 -19.5q82 0 121 62t39 185q0 33 3 72q-21 -61 -65 -95t-108 -34q-77 0 -114 48.5t-38 161.5v194q0 69 -13 108q22 18 47 18
q20 0 32.5 -12t12.5 -33l1 -265q0 -92 21.5 -133.5t71.5 -41.5q61 0 103 58.5t42 179.5q0 126 -2 164t-12 65q21 18 46 18q20 0 33 -13t13 -35z" />
    <glyph glyph-name="z" unicode="z" horiz-adv-x="490" 
d="M452.5 139q12.5 -24 12.5 -48q0 -42 -33 -68.5t-90 -25.5l-200 3q-65 0 -94 -7l-12 19q0 35 21 59l309 380l-198 -8q-28 -1 -44.5 -12.5t-21.5 -28.5q-3 -9 -3 -17q0 -17 11 -31q-3 -1 -12 -1q-8 0 -12 1q-25 7 -38.5 28.5t-13.5 43.5q0 38 32 62.5t93 23.5l174 -4
q39 0 59 1t34 6l11 -20q0 -22 -4 -36.5t-17 -30.5l-294 -364l201 4q41 1 60 20t19 47q0 23 -13 36h8q12 0 17 -1q26 -7 38.5 -31z" />
    <glyph glyph-name="braceleft" unicode="{" horiz-adv-x="382" 
d="M159 -138.5q-40 35.5 -40 108.5q0 30 7 88q9 81 9 114q0 44 -15 64.5t-52 35.5v32q38 15 52.5 37.5t14.5 66.5q0 35 -9 114q-7 51 -7 79q0 73 40 109t111 36q27 0 49 -4.5t29 -10.5q4 -3 4 -11q0 -6 -2.5 -11.5t-7.5 -6.5q-21 6 -47 6q-96 0 -96 -100q0 -25 7 -78
q10 -70 10 -114q0 -108 -51 -125v-6q23 -7 37 -38t14 -85q0 -30 -9 -111q-8 -64 -8 -85q0 -51 25 -77t71 -26q23 0 47 7q5 -1 7.5 -6.5t2.5 -12.5q0 -8 -4 -11q-8 -5 -29.5 -9.5t-48.5 -4.5q-71 0 -111 35.5z" />
    <glyph glyph-name="bar" unicode="|" horiz-adv-x="290" 
d="M107 730h76v-867h-76v867z" />
    <glyph glyph-name="braceright" unicode="}" horiz-adv-x="382" 
d="M63 -169.5q-22 4.5 -30 9.5q-4 4 -4 11t2.5 12.5t7.5 6.5q26 -7 48 -7q46 0 71 26t25 77q0 21 -8 85q-9 81 -9 111q0 54 14 85t37 38v6q-51 17 -51 125q0 44 10 114q7 53 7 78q0 100 -96 100q-26 0 -48 -6q-5 1 -7.5 6.5t-2.5 11.5q0 7 4 11q7 6 29 10.5t49 4.5
q71 0 111 -36t40 -109q0 -28 -7 -79q-9 -79 -9 -114q0 -43 14.5 -66t52.5 -38v-32q-37 -15 -52 -36t-15 -64q0 -33 9 -114q7 -58 7 -88q0 -73 -40 -108.5t-111 -35.5q-26 0 -48 4.5z" />
    <glyph glyph-name="asciitilde" unicode="~" horiz-adv-x="512" 
d="M410.5 322q-24.5 -25 -60.5 -25q-27 0 -48 7t-50 22q-26 13 -45 20t-42 7q-24 0 -41 -13t-24 -34q-6 -1 -14.5 2.5t-15.5 8.5q6 44 35 65.5t66 21.5q27 0 49 -7t49 -21q26 -13 45.5 -20t43.5 -7q22 0 33 11.5t21 35.5q20 0 29 -9q-6 -40 -30.5 -65z" />
    <glyph glyph-name="uni00A0" unicode="&#xa0;" horiz-adv-x="293" 
 />
    <glyph glyph-name="exclamdown" unicode="&#xa1;" horiz-adv-x="290" 
d="M182.5 504.5q15.5 -15.5 15.5 -38.5q0 -22 -15.5 -38t-38.5 -16q-22 0 -38 16t-16 38q0 23 16 38.5t38 15.5q23 0 38.5 -15.5zM145 -219q23 0 47 8l-16 537h-59l-19 -537q26 -8 47 -8z" />
    <glyph glyph-name="cent" unicode="&#xa2;" horiz-adv-x="508" 
d="M461 220q0 -13 -5 -27q-11 -36 -37 -60.5t-64 -36.5l14 -53q12 -54 26 -83q-3 -4 -6.5 -7.5t-10.5 -4.5q-2 -1 -6 -1q-14 0 -17 17l-32 125q-19 -4 -45 -4q-110 0 -171 68t-61 196q0 97 37.5 162.5t108.5 91.5l-10 41q-14 56 -27 83q3 4 6.5 7.5t10.5 4.5q2 1 6 1
q13 0 18 -17l28 -111q28 6 62 6q80 0 124.5 -35t44.5 -91q0 -35 -18.5 -56.5t-47.5 -21.5q-32 0 -47 20q33 11 33 64q0 43 -27.5 64t-69.5 21q-23 0 -44 -8l109 -430q39 9 66.5 34t36.5 66q15 -7 15 -25zM310 140l-106 419q-35 -25 -54 -75.5t-19 -122.5q0 -116 46 -168.5
t122 -52.5h11z" />
    <glyph glyph-name="sterling" unicode="&#xa3;" horiz-adv-x="509" 
d="M474 44q0 -18 -8 -31t-22 -13h-406v29q51 73 69.5 118t18.5 103q0 13 -2 39h-36q-34 0 -60 -2l1 22q1 11 7.5 17t15.5 6h68l-4 35q-10 82 -10 115q0 122 56.5 170t142.5 48q64 0 101 -28t37 -66q0 -44 -39 -44q-9 0 -17 2q0 48 -25.5 74.5t-62.5 26.5q-52 0 -83.5 -33.5
t-31.5 -123.5q0 -34 4 -69.5t5 -43.5q4 -24 7 -63h79q17 0 44.5 1t44.5 2l-1 -23q-1 -10 -7.5 -16.5t-15.5 -6.5h-141v-19q0 -79 -27 -132.5t-90 -100.5q200 0 379 48q9 -13 9 -41z" />
    <glyph glyph-name="currency" unicode="&#xa4;" horiz-adv-x="571" 
d="M516 167q-2 -13 -11 -22q-8 -8 -16 -8q-7 0 -15 8l-59 57q-57 -44 -129 -44q-38 0 -72.5 12t-61.5 35l-6 -6q-49 -50 -57 -66q-1 0 -8 2t-14 9q-8 10 -8 16q0 8 7 15l57 59q-46 56 -46 131q0 78 49 133l-5 4q-49 47 -66 57q2 14 12 23q8 8 15 8q8 0 16 -8l57 -56
q57 44 130 44q76 0 135 -48l5 6q47 51 57 66q1 0 7.5 -2t14.5 -9q8 -10 8 -16q0 -8 -8 -16l-56 -57q45 -56 45 -130q0 -77 -49 -134l6 -5q44 -44 66 -58zM359 227.5q34 20.5 54 56.5t20 80t-20 80t-53.5 56.5t-74.5 20.5q-40 0 -74 -20.5t-54 -56.5t-20 -80t20 -80t54 -56.5
t74 -20.5t74 20.5z" />
    <glyph glyph-name="yen" unicode="&#xa5;" horiz-adv-x="550" 
d="M512 613l-176 -329h17q20 0 61 1t47 2l-1 -23h1l-1 -23q-1 -10 -7 -16.5t-15 -6.5h-121v-104q0 -69 13 -107q-7 -7 -19 -12.5t-27 -5.5q-21 0 -33.5 12t-12.5 32l-1 185h-89q-34 0 -60 -2l1 22v1h-1l1 22q1 11 7 17t15 6h107l-171 347q-10 21 -34 47q9 10 24 18t34 8
q21 0 33 -11t22 -33l164 -353l155 329q10 23 10 35q0 15 -7 25q18 8 44 8q19 0 29 -11t11 -28q0 -19 -20 -52z" />
    <glyph glyph-name="brokenbar" unicode="&#xa6;" horiz-adv-x="290" 
d="M107 729h76v-356h-76v356zM107 219h76v-356h-76v356z" />
    <glyph glyph-name="section" unicode="&#xa7;" horiz-adv-x="467" 
d="M84 -65.5q-46 33.5 -46 88.5q0 25 12 40t39 15q9 0 14 -1q-4 -12 -4 -27q0 -10 1 -15q3 -45 37.5 -71t92.5 -26q57 0 92 20.5t35 59.5q0 26 -14.5 44t-36.5 30.5t-62 30.5l-29 13q-57 28 -85.5 45.5t-50 48.5t-21.5 77q0 51 28 82t76 44q-50 27 -77 59.5t-27 84.5
q0 66 50.5 97.5t128.5 31.5q82 0 128 -26.5t46 -74.5q0 -40 -36 -45q-8 -2 -12 -2q-6 0 -16 2q1 6 1 18t-3 24q-4 33 -32.5 50t-78.5 17q-44 0 -74 -16.5t-30 -52.5q0 -31 17 -52.5t42 -36t71 -35.5q16 -8 24 -11q49 -23 78 -40.5t49.5 -45t20.5 -66.5q0 -45 -29 -82
t-94 -49q59 -28 91 -58.5t32 -80.5q0 -59 -49.5 -100.5t-158.5 -41.5q-94 0 -140 33.5zM328 227.5q29 20.5 29 60.5q0 27 -17.5 46.5t-39.5 31.5t-78 38q-42 2 -67 -17.5t-25 -57.5q0 -29 17 -50.5t41.5 -35.5t67.5 -34q43 -2 72 18.5z" />
    <glyph glyph-name="dieresis" unicode="&#xa8;" horiz-adv-x="600" 
d="M173.5 600q-14.5 14 -14.5 33t14 33t34 14q19 0 33 -14t14 -33t-14 -33t-33 -14t-33.5 14zM347.5 600q-13.5 14 -13.5 33t13.5 33t32.5 14q20 0 34 -14t14 -33t-14.5 -33t-33.5 -14t-32.5 14z" />
    <glyph glyph-name="copyright" unicode="&#xa9;" horiz-adv-x="822" 
d="M231.5 36.5q-82.5 48.5 -130.5 131t-48 180.5q0 97 48 179.5t130.5 130.5t180.5 48q97 0 179.5 -48.5t130.5 -130.5t48 -179q0 -98 -48 -180.5t-130.5 -131t-179.5 -48.5q-98 0 -180.5 48.5zM571.5 68.5q73.5 43.5 116.5 117.5t43 162t-43 161.5t-116.5 116.5t-160.5 43
t-160.5 -43t-116.5 -116.5t-43 -161.5t43 -162.5t116.5 -117.5t160.5 -43t160.5 43.5zM280 184.5q-48 57.5 -48 163.5t49 163.5t137 57.5q56 0 96.5 -18t40.5 -45q0 -12 -12.5 -21.5t-31.5 -8.5q-5 33 -29 50t-63 17q-62 0 -93.5 -49t-31.5 -146q0 -96 31.5 -145.5
t91.5 -49.5q39 0 69 20.5t38 58.5q18 2 31 -4.5t13 -22.5q0 -21 -21.5 -39t-57 -28.5t-75.5 -10.5q-86 0 -134 57.5z" />
    <glyph glyph-name="ordfeminine" unicode="&#xaa;" horiz-adv-x="382" 
d="M375 399q0 -17 -14 -27.5t-36 -10.5q-25 0 -44 16.5t-19 43.5q0 14 6 29l1 26q-20 -53 -60 -84.5t-91 -31.5q-40 0 -63.5 21t-23.5 56q0 41 32 68.5t83 40.5q54 14 115 12v17q0 57 -20 84.5t-66 27.5q-28 0 -47.5 -12t-19.5 -39q0 -15 6.5 -28.5t20.5 -19.5
q-11 -14 -34 -14q-24 0 -39 17.5t-15 41.5q0 39 35.5 60t97.5 21q74 0 108 -34.5t34 -108.5v-127q0 -34 24 -34q5 0 11.5 3t9.5 8q8 -9 8 -22zM195.5 422q28.5 18 47.5 48.5t19 63.5q-27 1 -56 -2t-49 -11q-29 -10 -45 -28t-16 -42q0 -20 11 -33.5t34 -13.5q26 0 54.5 18z
" />
    <glyph glyph-name="guillemotleft" unicode="&#xab;" horiz-adv-x="672" 
d="M346 243v-5l275 -192l-26 -33l-327 201q-3 8 -3 24q0 21 3 28l328 208l24 -35zM108 243v-5l275 -192l-26 -33l-327 201q-3 8 -3 24q0 21 3 28l328 208l24 -35z" />
    <glyph glyph-name="logicalnot" unicode="&#xac;" horiz-adv-x="554" 
d="M467 386v-157q-13 -5 -24 -5q-10 0 -23 5v108h-349q-4 11 -4 25q0 13 4 24h396z" />
    <glyph glyph-name="uni00AD" unicode="&#xad;" horiz-adv-x="399" 
d="M350 283v-52h-302v52h302z" />
    <glyph glyph-name="registered" unicode="&#xae;" horiz-adv-x="822" 
d="M591.5 657.5q82.5 -48.5 130.5 -130.5t48 -179q0 -98 -48 -180.5t-130.5 -131t-179.5 -48.5q-98 0 -180.5 48.5t-130.5 131t-48 180.5q0 97 48 179.5t130.5 130.5t180.5 48q97 0 179.5 -48.5zM571.5 68.5q73.5 43.5 116.5 117.5t43 162q0 87 -43 161t-116.5 117
t-160.5 43t-160.5 -43t-116.5 -116.5t-43 -161.5t43 -162.5t116.5 -117.5t160.5 -43t160.5 43.5zM591 169q10 0 18 8q4 -9 4 -18q0 -15 -13.5 -24.5t-30.5 -9.5q-23 0 -39.5 17t-31.5 48l-32 73q-15 32 -32 46.5t-57 14.5l-52 1v-121q0 -45 8 -67q-13 -13 -34 -13
q-14 0 -22.5 8t-9.5 22v343q0 47 -9 69q33 14 102 14q103 0 151 -28.5t48 -92.5q0 -45 -28.5 -76.5t-76.5 -42.5q23 -6 37.5 -21.5t27.5 -41.5l35 -74q11 -19 18 -26.5t16 -7.5h3zM379 350q52 2 85.5 30t33.5 75q0 50 -32 74t-104 25q-31 0 -37 -1v-202q15 -1 54 -1z" />
    <glyph glyph-name="macron" unicode="&#xaf;" horiz-adv-x="600" 
d="M412 643q4 -14 4 -21q0 -8 -4 -22h-257q-4 9 -4 22q0 12 4 21h257z" />
    <glyph glyph-name="degree" unicode="&#xb0;" horiz-adv-x="369" 
d="M96 500.5q-37 35.5 -37 85.5q0 32 17 59.5t46 44t63 16.5t62.5 -16.5t45.5 -44t17 -59.5q0 -50 -36.5 -85.5t-88.5 -35.5t-89 35.5zM238.5 531q22.5 23 22.5 55q0 31 -22.5 53.5t-53.5 22.5t-53.5 -22t-22.5 -54t22.5 -55t53.5 -23t53.5 23z" />
    <glyph glyph-name="plusminus" unicode="&#xb1;" horiz-adv-x="577" 
d="M91 348q-4 11 -4 24q0 14 4 25h172v123q15 5 25 5q12 0 25 -5v-123h173q5 -13 5 -25q0 -11 -5 -24h-173v-124q-16 -4 -23 -4q-13 0 -26 5v123h-173zM486 169q5 -13 5 -24q0 -12 -5 -25h-395q-4 11 -4 25q0 13 4 24h395z" />
    <glyph glyph-name="uni00B2" unicode="&#xb2;" horiz-adv-x="386" 
d="M32 265q0 8 1 12q73 55 117 92t83 94.5t39 120.5q0 40 -22.5 67t-66.5 27q-47 0 -67 -33.5t-22 -75.5q-28 0 -40.5 14t-12.5 32q0 23 18 44t51.5 34t77.5 13q68 0 111 -32t43 -95q0 -96 -83.5 -176.5t-177.5 -129.5q59 1 142 12.5t131 24.5q6 -4 9 -14.5t3 -23.5
q0 -15 -4 -25t-12 -11h-308q-10 10 -10 29z" />
    <glyph glyph-name="uni00B3" unicode="&#xb3;" horiz-adv-x="403" 
d="M97 242q-35 14 -48.5 32.5t-13.5 33.5t11 27.5t37 12.5q5 -37 26 -65t79 -28q50 0 78.5 27t28.5 72q0 58 -47 84.5t-119 27.5v27q72 4 110 35t38 73q0 35 -20.5 56t-61.5 21q-48 0 -68.5 -27.5t-22.5 -63.5q-28 -1 -38 9.5t-10 24.5q0 21 16 40.5t48.5 32t79.5 12.5
q60 0 105 -25.5t45 -83.5q0 -42 -32 -73t-84 -43q134 -23 134 -120q0 -62 -48 -97.5t-128 -35.5q-60 0 -95 14z" />
    <glyph glyph-name="uni00B5" unicode="&#xb5;" horiz-adv-x="573" 
d="M545 36q0 -21 -16 -33.5t-43 -12.5q-78 0 -78 102v21q-20 -60 -64.5 -93t-104.5 -33q-51 0 -85 19v-73q1 -38 6 -76.5t15 -60.5q-18 -18 -46 -18q-21 0 -34 11.5t-13 32.5l1 396l-1 177q0 72 -12 108q20 18 46 18q21 0 33.5 -12t12.5 -33v-269q0 -97 22.5 -136.5
t78.5 -39.5q34 0 65.5 24.5t51.5 78t20 135.5q0 129 -2 168t-12 66q21 18 47 18q20 0 32.5 -13t12.5 -35l1 -370q0 -27 6.5 -39t21.5 -12q19 0 27 15q11 -15 11 -31z" />
    <glyph glyph-name="paragraph" unicode="&#xb6;" horiz-adv-x="711" 
d="M616 -132.5q11 -32.5 30 -36.5q-6 -13 -21 -19.5t-34 -6.5q-24 0 -44.5 27t-20.5 70v520q0 120 -51.5 182t-152.5 62q-104 0 -148 -57t-44 -134q0 -82 40.5 -127t103.5 -45q8 0 24 2v114q0 69 -13 108q21 18 46 18q18 0 29.5 -12t11.5 -33l1 -386q0 -69 13 -107
q-18 -18 -42 -18q-20 0 -32.5 12t-12.5 32l-1 232q-22 -2 -34 -2q-57 0 -106 24t-78.5 71.5t-29.5 115.5q0 88 58 160t214 72q138 0 210.5 -70.5t72.5 -209.5v-472q0 -54 11 -86.5z" />
    <glyph glyph-name="periodcentered" unicode="&#xb7;" horiz-adv-x="268" 
d="M96 232q-16 16 -16 38t16 38t38 16t38 -16t16 -38t-15.5 -38t-38.5 -16q-22 0 -38 16z" />
    <glyph glyph-name="cedilla" unicode="&#xb8;" horiz-adv-x="600" 
d="M296 -48q45 0 70 -19.5t25 -53.5q0 -38 -28.5 -62t-75.5 -24q-60 0 -88 32v4q0 7 3.5 15.5t8.5 11.5q2 -1 9.5 -7.5t21 -11t29.5 -4.5q23 0 36.5 12t13.5 33q0 20 -14 33t-44 13l-14 -1l16 85h42z" />
    <glyph glyph-name="uni00B9" unicode="&#xb9;" horiz-adv-x="317" 
d="M178 240.5q-10 9.5 -10 26.5l-1 345q0 22 -2 32q-40 -34 -65.5 -54.5t-37.5 -20.5q-28 0 -28 44l76 50l56 37q14 6 26 6q17 0 27.5 -10t10.5 -28l1 -344q-2 -46 9 -78q-15 -15 -37 -15q-15 0 -25 9.5z" />
    <glyph glyph-name="ordmasculine" unicode="&#xba;" horiz-adv-x="380" 
d="M72 405q-42 47 -42 131t42 131t118 47q75 0 117 -47t42 -131t-42 -131t-117 -47q-76 0 -118 47zM260.5 424q24.5 39 24.5 112t-24.5 111.5t-70.5 38.5q-47 0 -71 -38.5t-24 -111.5q0 -74 24.5 -112.5t70.5 -38.5t70.5 39z" />
    <glyph glyph-name="guillemotright" unicode="&#xbb;" horiz-adv-x="672" 
d="M315 474l328 -208q2 -4 2 -26q0 -21 -2 -26l-328 -201l-25 33l274 192v5l-274 196zM77 474l328 -208q2 -4 2 -26q0 -21 -2 -26l-328 -201l-25 33l274 192v5l-274 196z" />
    <glyph glyph-name="onequarter" unicode="&#xbc;" horiz-adv-x="897" 
d="M178 240.5q-10 9.5 -10 26.5l-1 345q0 22 -2 32q-40 -34 -65.5 -54.5t-37.5 -20.5q-28 0 -28 44l76 50l56 37q14 6 26 6q17 0 27.5 -10t10.5 -28l1 -344q-2 -46 9 -78q-15 -15 -37 -15q-15 0 -25 9.5zM616.5 703q13.5 -5 19.5 -18l-392 -698q-30 -3 -47 18l390 701
q16 2 29.5 -3zM884 145q0 -18 -8 -29h-63v-30q0 -48 9 -79q-15 -15 -37 -15q-15 0 -25 10t-10 27v87h-222q-9 3 -14.5 10t-5.5 15t5 16l225 294q5 6 15.5 11t21.5 5q16 0 26.5 -10t10.5 -27l1 -271q33 1 66 9q5 -9 5 -23zM750 158l-1 246l-191 -246h192z" />
    <glyph glyph-name="onehalf" unicode="&#xbd;" horiz-adv-x="945" 
d="M178 240.5q-10 9.5 -10 26.5l-1 345q0 22 -2 32q-40 -34 -65.5 -54.5t-37.5 -20.5q-28 0 -28 44l76 50l56 37q14 6 26 6q17 0 27.5 -10t10.5 -28l1 -344q-2 -46 9 -78q-15 -15 -37 -15q-15 0 -25 9.5zM627.5 703q13.5 -5 19.5 -18l-392 -698q-30 -3 -47 18l390 701
q16 2 29.5 -3zM583 28q0 8 1 12l19 15q62 46 106.5 86t79 94t34.5 113q0 40 -22.5 67t-65.5 27q-47 0 -67 -33.5t-22 -75.5q-29 0 -41.5 14t-12.5 32q0 23 18 43.5t51.5 33.5t78.5 13q67 0 110.5 -31.5t43.5 -94.5q0 -67 -44 -128t-103.5 -105.5t-113.5 -72.5
q58 1 141.5 12.5t130.5 24.5q6 -4 9 -15t3 -24q0 -14 -4 -24t-11 -11h-308q-11 8 -11 28z" />
    <glyph glyph-name="threequarters" unicode="&#xbe;" horiz-adv-x="975" 
d="M97 242q-35 14 -48.5 32.5t-13.5 33.5t11 27.5t37 12.5q5 -37 26 -65t79 -28q50 0 78.5 27t28.5 72q0 58 -47 84.5t-119 27.5v27q72 4 110 35t38 73q0 35 -20.5 56t-61.5 21q-48 0 -68.5 -27.5t-22.5 -63.5q-28 -1 -38 9.5t-10 24.5q0 21 16 40.5t48.5 32t79.5 12.5
q60 0 105 -25.5t45 -83.5q0 -42 -32 -73t-84 -43q134 -23 134 -120q0 -62 -48 -97.5t-128 -35.5q-60 0 -95 14zM695.5 703q13.5 -5 19.5 -18l-392 -698q-30 -3 -47 18l390 701q16 2 29.5 -3zM963 145q0 -18 -8 -29h-63v-30q0 -48 9 -79q-15 -15 -37 -15q-15 0 -25 10t-10 27
v87h-222q-9 3 -14.5 10t-5.5 15t5 16l225 294q5 6 15.5 11t21.5 5q16 0 26.5 -10t10.5 -27l1 -271q33 1 66 9q5 -9 5 -23zM829 158l-1 246l-191 -246h192z" />
    <glyph glyph-name="questiondown" unicode="&#xbf;" horiz-adv-x="485" 
d="M348.5 513.5q15.5 -15.5 15.5 -38.5q0 -22 -15.5 -38t-38.5 -16q-22 0 -38 16t-16 38t16 38t38 16q23 0 38.5 -15.5zM328 184q-48 -1 -94.5 -23t-77.5 -65t-31 -105q0 -75 40 -122t117 -47q69 0 100 43.5t34 95.5q64 0 64 -46q0 -31 -24.5 -61t-71 -49.5t-109.5 -19.5
q-101 0 -168 50t-67 156q0 68 31.5 118t83 78.5t111.5 35.5v113h62v-152z" />
    <glyph glyph-name="Agrave" unicode="&#xc0;" horiz-adv-x="592" 
d="M583 8q-17 -19 -47 -19q-19 0 -33 8.5t-18 24.5l-61 198h-262l-50 -167q-6 -22 -6 -33q0 -16 6 -23q-21 -8 -44 -8q-46 0 -46 37q0 13 10 45l212 622q33 13 66 13q39 0 48 -30l201 -621q11 -33 24 -47zM410 268l-118 384l-115 -384h233zM171.5 850.5q15.5 16.5 30.5 23.5
l136 -114q0 -5 -5.5 -13.5t-10.5 -10.5l-173 82q7 16 22.5 32.5z" />
    <glyph glyph-name="Aacute" unicode="&#xc1;" horiz-adv-x="592" 
d="M583 8q-17 -19 -47 -19q-19 0 -33 8.5t-18 24.5l-61 198h-262l-50 -167q-6 -22 -6 -33q0 -16 6 -23q-21 -8 -44 -8q-46 0 -46 37q0 13 10 45l212 622q33 13 66 13q39 0 48 -30l201 -621q11 -33 24 -47zM410 268l-118 384l-115 -384h233zM272 736q-5 2 -10.5 10.5
t-5.5 13.5l136 114q15 -7 30.5 -23.5t22.5 -32.5z" />
    <glyph glyph-name="Acircumflex" unicode="&#xc2;" horiz-adv-x="592" 
d="M583 8q-17 -19 -47 -19q-19 0 -33 8.5t-18 24.5l-61 198h-262l-50 -167q-6 -22 -6 -33q0 -16 6 -23q-21 -8 -44 -8q-46 0 -46 37q0 13 10 45l212 622q33 13 66 13q39 0 48 -30l201 -621q11 -33 24 -47zM410 268l-118 384l-115 -384h233zM448 754q-2 -5 -8 -12.5t-12 -9.5
l-131 78l-132 -78q-5 2 -11.5 9.5t-8.5 12.5l126 114q9 3 25 3q17 0 26 -3z" />
    <glyph glyph-name="Atilde" unicode="&#xc3;" horiz-adv-x="592" 
d="M583 8q-17 -19 -47 -19q-19 0 -33 8.5t-18 24.5l-61 198h-262l-50 -167q-6 -22 -6 -33q0 -16 6 -23q-21 -8 -44 -8q-46 0 -46 37q0 13 10 45l212 622q33 13 66 13q39 0 48 -30l201 -621q11 -33 24 -47zM410 268l-118 384l-115 -384h233zM413 775q-21 -22 -53 -22
q-17 0 -32.5 5.5t-35.5 16.5q-19 10 -32 15t-27 5q-43 0 -58 -41h-2q-12 0 -22 10q6 43 29.5 63t56.5 20q17 0 31 -5t37 -16q21 -10 34 -15t29 -5q20 0 30 8.5t20 27.5q16 0 24 -8q-8 -37 -29 -59z" />
    <glyph glyph-name="Adieresis" unicode="&#xc4;" horiz-adv-x="592" 
d="M583 8q-17 -19 -47 -19q-19 0 -33 8.5t-18 24.5l-61 198h-262l-50 -167q-6 -22 -6 -33q0 -16 6 -23q-21 -8 -44 -8q-46 0 -46 37q0 13 10 45l212 622q33 13 66 13q39 0 48 -30l201 -621q11 -33 24 -47zM410 268l-118 384l-115 -384h233zM171.5 773q-14.5 15 -14.5 36
t14.5 36t36.5 15q20 0 35.5 -15t15.5 -36t-15.5 -36t-35.5 -15q-22 0 -36.5 15zM357 773q-15 15 -15 36t15 36t36 15t36 -15t15 -36t-15 -36t-36 -15t-36 15z" />
    <glyph glyph-name="Aring" unicode="&#xc5;" horiz-adv-x="592" 
d="M583 8q-17 -19 -47 -19q-19 0 -33 8.5t-18 24.5l-61 198h-262l-50 -167q-6 -22 -6 -33q0 -16 6 -23q-21 -8 -44 -8q-46 0 -46 37q0 13 10 45l212 622q33 13 66 13q39 0 48 -30l201 -621q11 -33 24 -47zM410 268l-118 384l-115 -384h233zM366.5 884q24.5 -22 24.5 -59
q-1 -39 -26 -61.5t-67 -22.5q-40 0 -64.5 21.5t-24.5 58.5q0 39 25.5 62t67.5 23q40 0 64.5 -22zM265.5 862.5q-12.5 -14.5 -12.5 -39.5t12.5 -39.5t34.5 -14.5t34.5 14.5t12.5 39.5t-12.5 39.5t-34.5 14.5t-34.5 -14.5z" />
    <glyph glyph-name="AE" unicode="&#xc6;" horiz-adv-x="836" 
d="M775.5 56.5q4.5 -11.5 4.5 -24.5q0 -14 -5.5 -23t-15.5 -9h-317q-21 0 -33.5 12t-12.5 33v175h-201l-82 -167q-6 -13 -6 -33q0 -14 6 -23q-19 -8 -43 -8q-22 0 -35 11t-13 30t12 41l326 611q22 4 55.5 7.5t57.5 3.5h280q7 0 11 -6.5t4 -16.5q0 -14 -6.5 -29t-16.5 -19
q-139 25 -270 26v-260h246q3 -10 3 -23t-3 -25h-245v-296q125 1 287 28q8 -4 12.5 -15.5zM396 268l-1 301q0 33 -3 51l-173 -352h177z" />
    <glyph glyph-name="Ccedilla" unicode="&#xc7;" horiz-adv-x="596" 
d="M517 51.5q-30 -28.5 -80 -46t-106 -18.5l-7 -35q45 0 70 -19.5t25 -53.5q0 -38 -28.5 -62t-75.5 -24q-60 0 -88 32v4q0 7 3.5 15.5t8.5 11.5q2 -1 9.5 -7.5t21 -11t29.5 -4.5q23 0 36.5 12t13.5 33q0 20 -14 33t-44 13l-14 -1l12 66q-110 13 -170 105t-60 252
q0 174 71 267t199 93q53 0 98.5 -13.5t73 -37t27.5 -50.5q0 -19 -18 -33t-47 -11q-8 52 -42.5 80t-90.5 28q-90 0 -136 -81.5t-46 -241.5q0 -159 46 -240.5t134 -81.5q56 0 98 34t54 95l12 1q23 0 39 -10.5t16 -30.5q0 -33 -30 -61.5z" />
    <glyph glyph-name="Egrave" unicode="&#xc8;" horiz-adv-x="537" 
d="M476.5 56.5q4.5 -11.5 4.5 -24.5q0 -14 -5 -23t-15 -9h-318q-21 0 -33.5 12t-12.5 33l-1 524q0 65 -13 103q14 12 28.5 16.5t40.5 4.5h302q7 0 11 -6.5t4 -16.5q0 -14 -6.5 -29t-16.5 -19q-143 25 -270 26v-260h246q3 -12 3 -24t-3 -24h-245v-296q125 1 287 28
q8 -4 12.5 -15.5zM151.5 850.5q15.5 16.5 30.5 23.5l136 -114q0 -5 -5.5 -13.5t-10.5 -10.5l-173 82q7 16 22.5 32.5z" />
    <glyph glyph-name="Eacute" unicode="&#xc9;" horiz-adv-x="537" 
d="M476.5 56.5q4.5 -11.5 4.5 -24.5q0 -14 -5 -23t-15 -9h-318q-21 0 -33.5 12t-12.5 33l-1 524q0 65 -13 103q14 12 28.5 16.5t40.5 4.5h302q7 0 11 -6.5t4 -16.5q0 -14 -6.5 -29t-16.5 -19q-143 25 -270 26v-260h246q3 -12 3 -24t-3 -24h-245v-296q125 1 287 28
q8 -4 12.5 -15.5zM251 736q-5 2 -10.5 10.5t-5.5 13.5l136 114q15 -7 30.5 -23.5t22.5 -32.5z" />
    <glyph glyph-name="Ecircumflex" unicode="&#xca;" horiz-adv-x="537" 
d="M476.5 56.5q4.5 -11.5 4.5 -24.5q0 -14 -5 -23t-15 -9h-318q-21 0 -33.5 12t-12.5 33l-1 524q0 65 -13 103q14 12 28.5 16.5t40.5 4.5h302q7 0 11 -6.5t4 -16.5q0 -14 -6.5 -29t-16.5 -19q-143 25 -270 26v-260h246q3 -12 3 -24t-3 -24h-245v-296q125 1 287 28
q8 -4 12.5 -15.5zM427 754q-2 -5 -8 -12.5t-12 -9.5l-131 78l-132 -78q-5 2 -11.5 9.5t-8.5 12.5l126 114q9 3 25 3q17 0 26 -3z" />
    <glyph glyph-name="Edieresis" unicode="&#xcb;" horiz-adv-x="537" 
d="M476.5 56.5q4.5 -11.5 4.5 -24.5q0 -14 -5 -23t-15 -9h-318q-21 0 -33.5 12t-12.5 33l-1 524q0 65 -13 103q14 12 28.5 16.5t40.5 4.5h302q7 0 11 -6.5t4 -16.5q0 -14 -6.5 -29t-16.5 -19q-143 25 -270 26v-260h246q3 -12 3 -24t-3 -24h-245v-296q125 1 287 28
q8 -4 12.5 -15.5zM150.5 773q-14.5 15 -14.5 36t14.5 36t36.5 15q20 0 35.5 -15t15.5 -36t-15.5 -36t-35.5 -15q-22 0 -36.5 15zM336 773q-15 15 -15 36t15 36t36 15t36 -15t15 -36t-15 -36t-36 -15t-36 15z" />
    <glyph glyph-name="Igrave" unicode="&#xcc;" horiz-adv-x="273" 
d="M110 1q-13 12 -13 32l-1 544q0 69 -13 107q21 18 47 18q21 0 34 -11.5t13 -32.5v-544q0 -73 13 -107q-21 -18 -47 -18q-20 0 -33 12zM1.5 850.5q15.5 16.5 30.5 23.5l136 -114q0 -5 -5.5 -13.5t-10.5 -10.5l-173 82q7 16 22.5 32.5z" />
    <glyph glyph-name="Iacute" unicode="&#xcd;" horiz-adv-x="273" 
d="M110 1q-13 12 -13 32l-1 544q0 69 -13 107q21 18 47 18q21 0 34 -11.5t13 -32.5v-544q0 -73 13 -107q-21 -18 -47 -18q-20 0 -33 12zM102 736q-5 2 -10.5 10.5t-5.5 13.5l136 114q15 -7 30.5 -23.5t22.5 -32.5z" />
    <glyph glyph-name="Icircumflex" unicode="&#xce;" horiz-adv-x="273" 
d="M110 1q-13 12 -13 32l-1 544q0 69 -13 107q21 18 47 18q21 0 34 -11.5t13 -32.5v-544q0 -73 13 -107q-21 -18 -47 -18q-20 0 -33 12zM277 754q-2 -5 -8 -12.5t-12 -9.5l-131 78l-132 -78q-5 2 -11.5 9.5t-8.5 12.5l126 114q9 3 25 3q17 0 26 -3z" />
    <glyph glyph-name="Idieresis" unicode="&#xcf;" horiz-adv-x="273" 
d="M110 1q-13 12 -13 32l-1 544q0 69 -13 107q21 18 47 18q21 0 34 -11.5t13 -32.5v-544q0 -73 13 -107q-21 -18 -47 -18q-20 0 -33 12zM1.5 773q-14.5 15 -14.5 36t14.5 36t36.5 15q20 0 35.5 -15t15.5 -36t-15.5 -36t-35.5 -15q-22 0 -36.5 15zM187 773q-15 15 -15 36
t15 36t36 15t36 -15t15 -36t-15 -36t-36 -15t-36 15z" />
    <glyph glyph-name="Eth" unicode="&#xd0;" horiz-adv-x="637" 
d="M506.5 615.5q74.5 -88.5 74.5 -264.5q0 -351 -286 -351h-154q-22 0 -34 12t-12 32l-1 286h-70q-4 14 -4 19q0 6 4 18h70l-1 210q0 42 -1.5 71t-8.5 49q76 7 208 7q141 0 215.5 -88.5zM442.5 110q50.5 73 50.5 236q0 164 -51 242t-151 78h-118v-299h151q4 -8 4 -18t-4 -19
h-150v-293h117q101 0 151.5 73z" />
    <glyph glyph-name="Ntilde" unicode="&#xd1;" horiz-adv-x="684" 
d="M85 1q12 36 12 113l-1 458q0 80 -7 118q11 10 38 10q20 0 24 -5q308 -443 390 -584l-17 498q-2 34 5 58t22 31q4 1 14 1q13 0 22 -4q-1 -11 1 -40l1 -32v-510q0 -77 5 -112q-4 -5 -15 -8t-22 -3q-10 0 -20 4q-98 119 -204.5 279.5t-185.5 294.5l15 -530
q1 -22 -11.5 -35.5t-29.5 -13.5q-21 0 -36 12zM456 775q-21 -22 -53 -22q-17 0 -32.5 5.5t-35.5 16.5q-19 10 -32 15t-27 5q-43 0 -58 -41h-2q-12 0 -22 10q6 43 29.5 63t56.5 20q17 0 31 -5t37 -16q21 -10 34 -15t29 -5q20 0 30 8.5t20 27.5q16 0 24 -8q-8 -37 -29 -59z
" />
    <glyph glyph-name="Ograve" unicode="&#xd2;" horiz-adv-x="651" 
d="M127 77q-68 90 -68 269q0 180 68 270t198 90q131 0 199 -90t68 -270t-68 -269.5t-199 -89.5q-130 0 -198 90zM458.5 102.5q44.5 78.5 44.5 243.5q0 166 -44.5 244.5t-133.5 78.5q-88 0 -132.5 -79t-44.5 -244t44.5 -243.5t132.5 -78.5q89 0 133.5 78.5zM198.5 850.5
q15.5 16.5 30.5 23.5l136 -114q0 -5 -5.5 -13.5t-10.5 -10.5l-173 82q7 16 22.5 32.5z" />
    <glyph glyph-name="Oacute" unicode="&#xd3;" horiz-adv-x="651" 
d="M127 77q-68 90 -68 269q0 180 68 270t198 90q131 0 199 -90t68 -270t-68 -269.5t-199 -89.5q-130 0 -198 90zM458.5 102.5q44.5 78.5 44.5 243.5q0 166 -44.5 244.5t-133.5 78.5q-88 0 -132.5 -79t-44.5 -244t44.5 -243.5t132.5 -78.5q89 0 133.5 78.5zM299 736
q-5 2 -10.5 10.5t-5.5 13.5l136 114q15 -7 30.5 -23.5t22.5 -32.5z" />
    <glyph glyph-name="Ocircumflex" unicode="&#xd4;" horiz-adv-x="651" 
d="M127 77q-68 90 -68 269q0 180 68 270t198 90q131 0 199 -90t68 -270t-68 -269.5t-199 -89.5q-130 0 -198 90zM458.5 102.5q44.5 78.5 44.5 243.5q0 166 -44.5 244.5t-133.5 78.5q-88 0 -132.5 -79t-44.5 -244t44.5 -243.5t132.5 -78.5q89 0 133.5 78.5zM475 754
q-2 -5 -8 -12.5t-12 -9.5l-131 78l-132 -78q-5 2 -11.5 9.5t-8.5 12.5l126 114q9 3 25 3q17 0 26 -3z" />
    <glyph glyph-name="Otilde" unicode="&#xd5;" horiz-adv-x="651" 
d="M127 77q-68 90 -68 269q0 180 68 270t198 90q131 0 199 -90t68 -270t-68 -269.5t-199 -89.5q-130 0 -198 90zM458.5 102.5q44.5 78.5 44.5 243.5q0 166 -44.5 244.5t-133.5 78.5q-88 0 -132.5 -79t-44.5 -244t44.5 -243.5t132.5 -78.5q89 0 133.5 78.5zM440 775
q-21 -22 -53 -22q-17 0 -32.5 5.5t-35.5 16.5q-19 10 -32 15t-27 5q-43 0 -58 -41h-2q-12 0 -22 10q6 43 29.5 63t56.5 20q17 0 31 -5t37 -16q21 -10 34 -15t29 -5q20 0 30 8.5t20 27.5q16 0 24 -8q-8 -37 -29 -59z" />
    <glyph glyph-name="Odieresis" unicode="&#xd6;" horiz-adv-x="651" 
d="M127 77q-68 90 -68 269q0 180 68 270t198 90q131 0 199 -90t68 -270t-68 -269.5t-199 -89.5q-130 0 -198 90zM458.5 102.5q44.5 78.5 44.5 243.5q0 166 -44.5 244.5t-133.5 78.5q-88 0 -132.5 -79t-44.5 -244t44.5 -243.5t132.5 -78.5q89 0 133.5 78.5zM198.5 773
q-14.5 15 -14.5 36t14.5 36t36.5 15q20 0 35.5 -15t15.5 -36t-15.5 -36t-35.5 -15q-22 0 -36.5 15zM384 773q-15 15 -15 36t15 36t36 15t36 -15t15 -36t-15 -36t-36 -15t-36 15z" />
    <glyph glyph-name="multiply" unicode="&#xd7;" horiz-adv-x="494" 
d="M281 350l137 -137q-10 -23 -34 -35l-137 137l-137 -137q-24 13 -34 35l136 137l-136 136q11 24 35 35l136 -136l137 137q24 -12 34 -35z" />
    <glyph glyph-name="Oslash" unicode="&#xd8;" horiz-adv-x="638" 
d="M592 346q0 -180 -68 -269.5t-199 -89.5q-106 0 -172 60l-36 -61q-21 0 -32 18l43 72q-69 92 -69 270q0 180 68 270t198 90q90 0 150 -42l30 51q22 0 31 -19l-33 -56q89 -89 89 -294zM172 151l272 461q-42 57 -119 57q-88 0 -132.5 -79t-44.5 -244q0 -120 24 -195z
M458.5 102.5q44.5 78.5 44.5 243.5q0 149 -37 231l-277 -468q44 -85 136 -85q89 0 133.5 78.5z" />
    <glyph glyph-name="Ugrave" unicode="&#xd9;" horiz-adv-x="658" 
d="M573 305q0 -158 -62 -238t-183 -80q-119 0 -178 77.5t-59 240.5v272q0 72 -12 107q21 18 46 18q21 0 33.5 -11.5t12.5 -32.5v-356q0 -144 38 -211t119 -67q83 0 124.5 70.5t41.5 207.5v275q0 69 -13 107q21 18 46 18q20 0 33 -12t13 -32v-353zM202.5 850.5
q15.5 16.5 30.5 23.5l136 -114q0 -5 -5.5 -13.5t-10.5 -10.5l-173 82q7 16 22.5 32.5z" />
    <glyph glyph-name="Uacute" unicode="&#xda;" horiz-adv-x="658" 
d="M573 305q0 -158 -62 -238t-183 -80q-119 0 -178 77.5t-59 240.5v272q0 72 -12 107q21 18 46 18q21 0 33.5 -11.5t12.5 -32.5v-356q0 -144 38 -211t119 -67q83 0 124.5 70.5t41.5 207.5v275q0 69 -13 107q21 18 46 18q20 0 33 -12t13 -32v-353zM302 736q-5 2 -10.5 10.5
t-5.5 13.5l136 114q15 -7 30.5 -23.5t22.5 -32.5z" />
    <glyph glyph-name="Ucircumflex" unicode="&#xdb;" horiz-adv-x="658" 
d="M573 305q0 -158 -62 -238t-183 -80q-119 0 -178 77.5t-59 240.5v272q0 72 -12 107q21 18 46 18q21 0 33.5 -11.5t12.5 -32.5v-356q0 -144 38 -211t119 -67q83 0 124.5 70.5t41.5 207.5v275q0 69 -13 107q21 18 46 18q20 0 33 -12t13 -32v-353zM478 754q-2 -5 -8 -12.5
t-12 -9.5l-131 78l-132 -78q-5 2 -11.5 9.5t-8.5 12.5l126 114q9 3 25 3q17 0 26 -3z" />
    <glyph glyph-name="Udieresis" unicode="&#xdc;" horiz-adv-x="658" 
d="M573 305q0 -158 -62 -238t-183 -80q-119 0 -178 77.5t-59 240.5v272q0 72 -12 107q21 18 46 18q21 0 33.5 -11.5t12.5 -32.5v-356q0 -144 38 -211t119 -67q83 0 124.5 70.5t41.5 207.5v275q0 69 -13 107q21 18 46 18q20 0 33 -12t13 -32v-353zM201.5 773
q-14.5 15 -14.5 36t14.5 36t36.5 15q20 0 35.5 -15t15.5 -36t-15.5 -36t-35.5 -15q-22 0 -36.5 15zM387 773q-15 15 -15 36t15 36t36 15t36 -15t15 -36t-15 -36t-36 -15t-36 15z" />
    <glyph glyph-name="Yacute" unicode="&#xdd;" horiz-adv-x="553" 
d="M317 249v-135q0 -69 13 -107q-7 -7 -19 -12.5t-27 -5.5q-21 0 -33.5 12t-12.5 32l-1 216q-8 12 -11 18l-179 364q-10 21 -34 47q9 10 24 18t34 8q21 0 33 -11t22 -33l164 -353l155 329q10 23 10 35q0 15 -7 25q18 8 44 8q19 0 29 -11t11 -28q0 -19 -20 -52zM267 736
q-5 2 -10.5 10.5t-5.5 13.5l136 114q15 -7 30.5 -23.5t22.5 -32.5z" />
    <glyph glyph-name="Thorn" unicode="&#xde;" horiz-adv-x="558" 
d="M440 526.5q70 -49.5 70 -154.5q0 -113 -77 -169.5t-228 -56.5h-28v-32q0 -73 13 -107q-21 -18 -47 -18q-20 0 -33 12t-13 32l-1 544q0 69 -13 107q21 18 47 18q21 0 33.5 -11.5t12.5 -32.5v-83q17 1 48 1q146 0 216 -49.5zM371 228q52 46 52 139q0 87 -48 129.5
t-154 42.5h-45l1 -357h30q112 0 164 46z" />
    <glyph glyph-name="germandbls" unicode="&#xdf;" horiz-adv-x="602" 
d="M95 3q-12 12 -12 35l-1 392q-1 154 57.5 227t172.5 73q83 0 128 -37t45 -104q0 -49 -20 -79t-58 -62q-26 -23 -37.5 -37.5t-11.5 -34.5t12.5 -35.5t28 -26t57.5 -35.5q54 -32 82.5 -63.5t28.5 -83.5q0 -60 -43 -102t-134 -42q-78 0 -115.5 32.5t-37.5 85.5q0 48 36 51h6
q9 0 13 -1q-4 -13 -4 -38q0 -44 26 -66t69 -22q45 0 73 23.5t28 63.5q0 28 -13 47.5t-30.5 32t-48.5 29.5q-60 32 -86.5 59.5t-26.5 70.5q0 39 19.5 64.5t57.5 55.5q37 30 55.5 54t18.5 61q0 48 -32 75.5t-88 27.5q-62 0 -94.5 -33.5t-43.5 -88.5t-11 -134v-192
q0 -137 2 -174.5t11 -62.5q-7 -6 -20 -12t-28 -6q-19 0 -31 12z" />
    <glyph glyph-name="agrave" unicode="&#xe0;" horiz-adv-x="550" 
d="M540 42q0 -22 -20.5 -37t-49.5 -15q-43 0 -65 30t-22 94v29q-33 -71 -89.5 -112.5t-123.5 -41.5q-58 0 -91.5 31.5t-33.5 84.5q0 59 45 100t121 62q67 18 139 18q20 0 29 -1v26q0 89 -29.5 132t-97.5 43q-44 0 -74 -19t-30 -62q0 -23 10.5 -43t32.5 -28q-16 -20 -48 -20
q-33 0 -54 26.5t-21 61.5q0 58 51 89t140 31q103 0 152 -53t49 -163v-200q0 -53 36 -53q8 0 18 5.5t15 15.5q11 -15 11 -31zM283.5 74.5q41.5 29.5 69 77.5t28.5 100l-23 1q-35 0 -71 -5.5t-61 -15.5q-44 -16 -69 -44t-25 -66q0 -33 17 -55t53 -22q40 0 81.5 29.5z
M156 714.5q26 6.5 44 5.5l91 -150q-3 -3 -14.5 -5t-21.5 -2l-135 138q10 7 36 13.5z" />
    <glyph glyph-name="aacute" unicode="&#xe1;" horiz-adv-x="550" 
d="M540 42q0 -22 -20.5 -37t-49.5 -15q-43 0 -65 30t-22 94v29q-33 -71 -89.5 -112.5t-123.5 -41.5q-58 0 -91.5 31.5t-33.5 84.5q0 59 45 100t121 62q67 18 139 18q20 0 29 -1v26q0 89 -29.5 132t-97.5 43q-44 0 -74 -19t-30 -62q0 -23 10.5 -43t32.5 -28q-16 -20 -48 -20
q-33 0 -54 26.5t-21 61.5q0 58 51 89t140 31q103 0 152 -53t49 -163v-200q0 -53 36 -53q8 0 18 5.5t15 15.5q11 -15 11 -31zM283.5 74.5q41.5 29.5 69 77.5t28.5 100l-23 1q-35 0 -71 -5.5t-61 -15.5q-44 -16 -69 -44t-25 -66q0 -33 17 -55t53 -22q40 0 81.5 29.5zM268 563
q-10 0 -21.5 2t-14.5 5l91 150q18 1 44 -5.5t35 -13.5z" />
    <glyph glyph-name="acircumflex" unicode="&#xe2;" horiz-adv-x="550" 
d="M540 42q0 -22 -20.5 -37t-49.5 -15q-43 0 -65 30t-22 94v29q-33 -71 -89.5 -112.5t-123.5 -41.5q-58 0 -91.5 31.5t-33.5 84.5q0 59 45 100t121 62q67 18 139 18q20 0 29 -1v26q0 89 -29.5 132t-97.5 43q-44 0 -74 -19t-30 -62q0 -23 10.5 -43t32.5 -28q-16 -20 -48 -20
q-33 0 -54 26.5t-21 61.5q0 58 51 89t140 31q103 0 152 -53t49 -163v-200q0 -53 36 -53q8 0 18 5.5t15 15.5q11 -15 11 -31zM283.5 74.5q41.5 29.5 69 77.5t28.5 100l-23 1q-35 0 -71 -5.5t-61 -15.5q-44 -16 -69 -44t-25 -66q0 -33 17 -55t53 -22q40 0 81.5 29.5z
M128.5 565.5q-11.5 3.5 -13.5 7.5l120 137q9 3 25 3q17 0 26 -3l120 -137q-3 -4 -14 -7.5t-18 -3.5l-113 87l-114 -87q-7 0 -18.5 3.5z" />
    <glyph glyph-name="atilde" unicode="&#xe3;" horiz-adv-x="550" 
d="M540 42q0 -22 -20.5 -37t-49.5 -15q-43 0 -65 30t-22 94v29q-33 -71 -89.5 -112.5t-123.5 -41.5q-58 0 -91.5 31.5t-33.5 84.5q0 59 45 100t121 62q67 18 139 18q20 0 29 -1v26q0 89 -29.5 132t-97.5 43q-44 0 -74 -19t-30 -62q0 -23 10.5 -43t32.5 -28q-16 -20 -48 -20
q-33 0 -54 26.5t-21 61.5q0 58 51 89t140 31q103 0 152 -53t49 -163v-200q0 -53 36 -53q8 0 18 5.5t15 15.5q11 -15 11 -31zM283.5 74.5q41.5 29.5 69 77.5t28.5 100l-23 1q-35 0 -71 -5.5t-61 -15.5q-44 -16 -69 -44t-25 -66q0 -33 17 -55t53 -22q40 0 81.5 29.5z
M376 604.5q-21 -23.5 -53 -23.5q-17 0 -30.5 6t-33.5 19q-17 11 -30 17t-28 6q-22 0 -37.5 -11.5t-22.5 -31.5h-2q-12 0 -21 9q6 43 30.5 64t56.5 21q18 0 32.5 -6.5t32.5 -18.5q20 -12 32 -17.5t28 -5.5q21 0 31.5 11t19.5 33q13 0 22 -9q-6 -39 -27 -62.5z" />
    <glyph glyph-name="adieresis" unicode="&#xe4;" horiz-adv-x="550" 
d="M540 42q0 -22 -20.5 -37t-49.5 -15q-43 0 -65 30t-22 94v29q-33 -71 -89.5 -112.5t-123.5 -41.5q-58 0 -91.5 31.5t-33.5 84.5q0 59 45 100t121 62q67 18 139 18q20 0 29 -1v26q0 89 -29.5 132t-97.5 43q-44 0 -74 -19t-30 -62q0 -23 10.5 -43t32.5 -28q-16 -20 -48 -20
q-33 0 -54 26.5t-21 61.5q0 58 51 89t140 31q103 0 152 -53t49 -163v-200q0 -53 36 -53q8 0 18 5.5t15 15.5q11 -15 11 -31zM283.5 74.5q41.5 29.5 69 77.5t28.5 100l-23 1q-35 0 -71 -5.5t-61 -15.5q-44 -16 -69 -44t-25 -66q0 -33 17 -55t53 -22q40 0 81.5 29.5z
M144.5 600q-14.5 14 -14.5 33t14 33t34 14q19 0 33 -14t14 -33t-14 -33t-33 -14t-33.5 14zM318.5 600q-13.5 14 -13.5 33t13.5 33t32.5 14q20 0 34 -14t14 -33t-14.5 -33t-33.5 -14t-32.5 14z" />
    <glyph glyph-name="aring" unicode="&#xe5;" horiz-adv-x="550" 
d="M540 42q0 -22 -20.5 -37t-49.5 -15q-43 0 -65 30t-22 94v29q-33 -71 -89.5 -112.5t-123.5 -41.5q-58 0 -91.5 31.5t-33.5 84.5q0 59 45 100t121 62q67 18 139 18q20 0 29 -1v26q0 89 -29.5 132t-97.5 43q-44 0 -74 -19t-30 -62q0 -23 10.5 -43t32.5 -28q-16 -20 -48 -20
q-33 0 -54 26.5t-21 61.5q0 58 51 89t140 31q103 0 152 -53t49 -163v-200q0 -53 36 -53q8 0 18 5.5t15 15.5q11 -15 11 -31zM283.5 74.5q41.5 29.5 69 77.5t28.5 100l-23 1q-35 0 -71 -5.5t-61 -15.5q-44 -16 -69 -44t-25 -66q0 -33 17 -55t53 -22q40 0 81.5 29.5z
M331.5 699q24.5 -22 24.5 -59q-1 -39 -26 -61.5t-67 -22.5q-40 0 -64.5 21.5t-24.5 58.5q0 39 25.5 62t67.5 23q40 0 64.5 -22zM230.5 677.5q-12.5 -14.5 -12.5 -39.5t12.5 -39.5t34.5 -14.5t34.5 14.5t12.5 39.5t-12.5 39.5t-34.5 14.5t-34.5 -14.5z" />
    <glyph glyph-name="ae" unicode="&#xe6;" horiz-adv-x="849" 
d="M800 106q0 -10 -6 -27q-19 -44 -66 -68t-112 -24q-87 0 -145 44t-79 127q-32 -77 -91.5 -123t-130.5 -46q-58 0 -91.5 31.5t-33.5 84.5q0 59 45 100t121 62q67 18 140 18q20 0 30 -1v26q0 89 -30 132t-97 43q-45 0 -75.5 -19t-30.5 -62q0 -23 10.5 -43t32.5 -28
q-16 -20 -48 -20q-33 0 -54 26.5t-21 61.5q0 58 51.5 89t141.5 31q123 0 168 -90q30 43 79 66.5t113 23.5q82 0 132 -37.5t50 -106.5q0 -74 -60 -113t-167 -39q-59 0 -108 7q6 -101 50.5 -145.5t116.5 -44.5q55 0 95.5 22.5t54.5 64.5q15 -5 15 -23zM508.5 428.5
q-40.5 -56.5 -41.5 -162.5q48 -4 78 -5q80 0 126.5 28.5t46.5 97.5q0 53 -29 75.5t-72 22.5q-68 0 -108.5 -56.5zM280 72q40 27 68.5 71.5t33.5 94.5v13v1l-23 1q-35 0 -71.5 -5.5t-61.5 -15.5q-44 -16 -69 -44t-25 -66q0 -33 17 -55t53 -22q38 0 78 27z" />
    <glyph glyph-name="ccedilla" unicode="&#xe7;" horiz-adv-x="505" 
d="M459 122q0 -13 -5 -27q-15 -49 -58.5 -77t-105.5 -31l-7 -35q45 0 70 -19.5t25 -53.5q0 -38 -28.5 -62t-75.5 -24q-60 0 -88 32v4q0 7 3.5 15.5t8.5 11.5q2 -1 9.5 -7.5t21 -11t29.5 -4.5q23 0 36.5 12t13.5 33q0 20 -14 33t-44 13l-14 -1l12 65q-97 8 -150.5 76
t-53.5 187q0 126 62.5 198t176.5 72q81 0 125.5 -35t44.5 -92q0 -35 -18.5 -56t-47.5 -21q-33 0 -47 19q33 13 33 64q0 43 -27.5 64.5t-69.5 21.5q-67 0 -107 -58t-40 -165q0 -115 46 -168t122 -53q55 0 95 27t52 78q15 -5 15 -25z" />
    <glyph glyph-name="egrave" unicode="&#xe8;" horiz-adv-x="511" 
d="M462 106q0 -10 -6 -27q-19 -44 -66.5 -68t-111.5 -24q-110 0 -172 68.5t-62 195.5q0 126 61.5 198t176.5 72q83 0 133 -37.5t50 -106.5q0 -74 -60 -113t-167 -39q-59 0 -108 7q6 -101 50.5 -145.5t116.5 -44.5q55 0 95 22.5t55 64.5q15 -5 15 -23zM170.5 428.5
q-40.5 -56.5 -41.5 -162.5q48 -4 78 -5q80 0 126.5 28.5t46.5 97.5q0 53 -29 75.5t-72 22.5q-68 0 -108.5 -56.5zM163 714.5q26 6.5 44 5.5l91 -150q-3 -3 -14.5 -5t-21.5 -2l-135 138q10 7 36 13.5z" />
    <glyph glyph-name="eacute" unicode="&#xe9;" horiz-adv-x="511" 
d="M462 106q0 -10 -6 -27q-19 -44 -66.5 -68t-111.5 -24q-110 0 -172 68.5t-62 195.5q0 126 61.5 198t176.5 72q83 0 133 -37.5t50 -106.5q0 -74 -60 -113t-167 -39q-59 0 -108 7q6 -101 50.5 -145.5t116.5 -44.5q55 0 95 22.5t55 64.5q15 -5 15 -23zM170.5 428.5
q-40.5 -56.5 -41.5 -162.5q48 -4 78 -5q80 0 126.5 28.5t46.5 97.5q0 53 -29 75.5t-72 22.5q-68 0 -108.5 -56.5zM275 563q-10 0 -21.5 2t-14.5 5l91 150q18 1 44 -5.5t35 -13.5z" />
    <glyph glyph-name="ecircumflex" unicode="&#xea;" horiz-adv-x="511" 
d="M462 106q0 -10 -6 -27q-19 -44 -66.5 -68t-111.5 -24q-110 0 -172 68.5t-62 195.5q0 126 61.5 198t176.5 72q83 0 133 -37.5t50 -106.5q0 -74 -60 -113t-167 -39q-59 0 -108 7q6 -101 50.5 -145.5t116.5 -44.5q55 0 95 22.5t55 64.5q15 -5 15 -23zM170.5 428.5
q-40.5 -56.5 -41.5 -162.5q48 -4 78 -5q80 0 126.5 28.5t46.5 97.5q0 53 -29 75.5t-72 22.5q-68 0 -108.5 -56.5zM135.5 565.5q-11.5 3.5 -13.5 7.5l120 137q9 3 25 3q17 0 26 -3l120 -137q-3 -4 -14 -7.5t-18 -3.5l-113 87l-114 -87q-7 0 -18.5 3.5z" />
    <glyph glyph-name="edieresis" unicode="&#xeb;" horiz-adv-x="511" 
d="M462 106q0 -10 -6 -27q-19 -44 -66.5 -68t-111.5 -24q-110 0 -172 68.5t-62 195.5q0 126 61.5 198t176.5 72q83 0 133 -37.5t50 -106.5q0 -74 -60 -113t-167 -39q-59 0 -108 7q6 -101 50.5 -145.5t116.5 -44.5q55 0 95 22.5t55 64.5q15 -5 15 -23zM170.5 428.5
q-40.5 -56.5 -41.5 -162.5q48 -4 78 -5q80 0 126.5 28.5t46.5 97.5q0 53 -29 75.5t-72 22.5q-68 0 -108.5 -56.5zM151.5 600q-14.5 14 -14.5 33t14 33t34 14q19 0 33 -14t14 -33t-14 -33t-33 -14t-33.5 14zM325.5 600q-13.5 14 -13.5 33t13.5 33t32.5 14q20 0 34 -14t14 -33
t-14.5 -33t-33.5 -14t-32.5 14z" />
    <glyph glyph-name="igrave" unicode="&#xec;" horiz-adv-x="245" 
d="M174 7q-18 -18 -46 -18q-20 0 -32.5 12t-12.5 32l-1 363q0 72 -12 107q21 18 45 18q21 0 33 -11.5t12 -32.5l2 -363q0 -72 12 -107zM8 714.5q26 6.5 44 5.5l91 -150q-3 -3 -14.5 -5t-21.5 -2l-135 138q10 7 36 13.5z" />
    <glyph glyph-name="iacute" unicode="&#xed;" horiz-adv-x="245" 
d="M174 7q-18 -18 -46 -18q-20 0 -32.5 12t-12.5 32l-1 363q0 72 -12 107q21 18 45 18q21 0 33 -11.5t12 -32.5l2 -363q0 -72 12 -107zM120 563q-10 0 -21.5 2t-14.5 5l91 150q18 1 44 -5.5t35 -13.5z" />
    <glyph glyph-name="icircumflex" unicode="&#xee;" horiz-adv-x="245" 
d="M174 7q-18 -18 -46 -18q-20 0 -32.5 12t-12.5 32l-1 363q0 72 -12 107q21 18 45 18q21 0 33 -11.5t12 -32.5l2 -363q0 -72 12 -107zM-19.5 565.5q-11.5 3.5 -13.5 7.5l120 137q9 3 25 3q17 0 26 -3l120 -137q-3 -4 -14 -7.5t-18 -3.5l-113 87l-114 -87q-7 0 -18.5 3.5z
" />
    <glyph glyph-name="idieresis" unicode="&#xef;" horiz-adv-x="245" 
d="M174 7q-18 -18 -46 -18q-20 0 -32.5 12t-12.5 32l-1 363q0 72 -12 107q21 18 45 18q21 0 33 -11.5t12 -32.5l2 -363q0 -72 12 -107zM-2.5 600q-14.5 14 -14.5 33t14 33t34 14q19 0 33 -14t14 -33t-14 -33t-33 -14t-33.5 14zM171.5 600q-13.5 14 -13.5 33t13.5 33t32.5 14
q20 0 34 -14t14 -33t-14.5 -33t-33.5 -14t-32.5 14z" />
    <glyph glyph-name="eth" unicode="&#xf0;" horiz-adv-x="521" 
d="M452 484q25 -90 25 -195q0 -137 -55 -219.5t-170 -82.5q-118 0 -163 72t-45 179q0 117 55 189t154 72q43 0 77 -14t54 -39q-18 87 -74 150l-78 -44q-16 11 -18 32l69 39q-28 25 -58 38.5t-58 13.5l-24 -1q0 22 13 39.5t40 17.5q91 0 158 -67l76 43q17 -8 19 -33l-69 -39
q47 -61 72 -151zM390 271q0 79 -27 130.5t-94 51.5t-103.5 -56t-36.5 -151t27.5 -152.5t97.5 -57.5q136 0 136 235z" />
    <glyph glyph-name="ntilde" unicode="&#xf1;" horiz-adv-x="574" 
d="M510 7q-20 -18 -46 -18q-21 0 -34 12t-13 32v270q-1 87 -24.5 129t-79.5 42q-35 0 -67.5 -24t-53.5 -76t-21 -133q0 -129 2 -168t12 -66q-21 -18 -46 -18q-21 0 -34 13t-13 35v369q-1 28 -7.5 40t-20.5 12q-19 0 -26 -16q-12 17 -12 32q0 21 16 33.5t44 12.5q38 0 58 -26
t20 -77v-20q21 59 66 91.5t106 32.5q161 0 161 -208v-199q2 -76 13 -107zM410 604.5q-21 -23.5 -53 -23.5q-17 0 -30.5 6t-33.5 19q-17 11 -30 17t-28 6q-22 0 -37.5 -11.5t-22.5 -31.5h-2q-12 0 -21 9q6 43 30.5 64t56.5 21q18 0 32.5 -6.5t32.5 -18.5q20 -12 32 -17.5
t28 -5.5q21 0 31.5 11t19.5 33q13 0 22 -9q-6 -39 -27 -62.5z" />
    <glyph glyph-name="ograve" unicode="&#xf2;" horiz-adv-x="547" 
d="M104.5 57.5q-60.5 70.5 -60.5 196.5t60.5 196.5t168.5 70.5q109 0 169.5 -70.5t60.5 -196.5t-60.5 -196.5t-169.5 -70.5q-108 0 -168.5 70.5zM380 82.5q37 59.5 37 171.5t-37 171t-107 59t-107 -59t-37 -171t37 -171.5t107 -59.5t107 59.5zM166 714.5q26 6.5 44 5.5
l91 -150q-3 -3 -14.5 -5t-21.5 -2l-135 138q10 7 36 13.5z" />
    <glyph glyph-name="oacute" unicode="&#xf3;" horiz-adv-x="547" 
d="M104.5 57.5q-60.5 70.5 -60.5 196.5t60.5 196.5t168.5 70.5q109 0 169.5 -70.5t60.5 -196.5t-60.5 -196.5t-169.5 -70.5q-108 0 -168.5 70.5zM380 82.5q37 59.5 37 171.5t-37 171t-107 59t-107 -59t-37 -171t37 -171.5t107 -59.5t107 59.5zM278 563q-10 0 -21.5 2
t-14.5 5l91 150q18 1 44 -5.5t35 -13.5z" />
    <glyph glyph-name="ocircumflex" unicode="&#xf4;" horiz-adv-x="547" 
d="M104.5 57.5q-60.5 70.5 -60.5 196.5t60.5 196.5t168.5 70.5q109 0 169.5 -70.5t60.5 -196.5t-60.5 -196.5t-169.5 -70.5q-108 0 -168.5 70.5zM380 82.5q37 59.5 37 171.5t-37 171t-107 59t-107 -59t-37 -171t37 -171.5t107 -59.5t107 59.5zM139.5 565.5
q-11.5 3.5 -13.5 7.5l120 137q9 3 25 3q17 0 26 -3l120 -137q-3 -4 -14 -7.5t-18 -3.5l-113 87l-114 -87q-7 0 -18.5 3.5z" />
    <glyph glyph-name="otilde" unicode="&#xf5;" horiz-adv-x="547" 
d="M104.5 57.5q-60.5 70.5 -60.5 196.5t60.5 196.5t168.5 70.5q109 0 169.5 -70.5t60.5 -196.5t-60.5 -196.5t-169.5 -70.5q-108 0 -168.5 70.5zM380 82.5q37 59.5 37 171.5t-37 171t-107 59t-107 -59t-37 -171t37 -171.5t107 -59.5t107 59.5zM387 604.5
q-21 -23.5 -53 -23.5q-17 0 -30.5 6t-33.5 19q-17 11 -30 17t-28 6q-22 0 -37.5 -11.5t-22.5 -31.5h-2q-12 0 -21 9q6 43 30.5 64t56.5 21q18 0 32.5 -6.5t32.5 -18.5q20 -12 32 -17.5t28 -5.5q21 0 31.5 11t19.5 33q13 0 22 -9q-6 -39 -27 -62.5z" />
    <glyph glyph-name="odieresis" unicode="&#xf6;" horiz-adv-x="547" 
d="M104.5 57.5q-60.5 70.5 -60.5 196.5t60.5 196.5t168.5 70.5q109 0 169.5 -70.5t60.5 -196.5t-60.5 -196.5t-169.5 -70.5q-108 0 -168.5 70.5zM380 82.5q37 59.5 37 171.5t-37 171t-107 59t-107 -59t-37 -171t37 -171.5t107 -59.5t107 59.5zM155.5 600q-14.5 14 -14.5 33
t14 33t34 14q19 0 33 -14t14 -33t-14 -33t-33 -14t-33.5 14zM329.5 600q-13.5 14 -13.5 33t13.5 33t32.5 14q20 0 34 -14t14 -33t-14.5 -33t-33.5 -14t-32.5 14z" />
    <glyph glyph-name="divide" unicode="&#xf7;" horiz-adv-x="550" 
d="M245.5 483.5q-12.5 12.5 -12.5 29.5q0 18 12.5 30.5t29.5 12.5q18 0 30.5 -12.5t12.5 -30.5q0 -17 -12.5 -29.5t-30.5 -12.5q-17 0 -29.5 12.5zM472 374q5 -13 5 -24q0 -10 -5 -25h-395q-4 12 -4 25t4 24h395zM245.5 156.5q-12.5 12.5 -12.5 29.5t12.5 29.5t29.5 12.5
q18 0 30.5 -12.5t12.5 -29.5t-12.5 -29.5t-30.5 -12.5q-17 0 -29.5 12.5z" />
    <glyph glyph-name="oslash" unicode="&#xf8;" horiz-adv-x="547" 
d="M503 254q0 -126 -60.5 -196.5t-169.5 -70.5q-70 0 -121 31l-21 -34q-24 2 -32 18l23 38q-38 34 -58 88.5t-20 125.5q0 126 60.5 196.5t168.5 70.5q74 0 125 -33l19 31q23 0 32 -18l-22 -35q76 -71 76 -212zM158 98l211 342q-36 44 -96 44q-70 0 -107 -59t-37 -171
q0 -98 29 -156zM380 82.5q37 59.5 37 171.5q0 95 -27 152l-210 -342q35 -41 93 -41q70 0 107 59.5z" />
    <glyph glyph-name="ugrave" unicode="&#xf9;" horiz-adv-x="566" 
d="M541 36q0 -21 -16 -33.5t-44 -12.5q-78 0 -78 102v20q-21 -59 -65 -92t-103 -33q-82 0 -119 48t-38 162v198q0 69 -13 108q22 18 47 18q20 0 32.5 -12t12.5 -33l1 -269q0 -65 9.5 -103t31 -55.5t59.5 -17.5q34 0 65.5 24.5t52 78t20.5 135.5q0 129 -2 168t-12 66
q21 18 46 18q20 0 33 -13t13 -35l1 -370q0 -28 6.5 -39.5t21.5 -11.5q18 0 26 15q12 -16 12 -31zM162 714.5q26 6.5 44 5.5l91 -150q-3 -3 -14.5 -5t-21.5 -2l-135 138q10 7 36 13.5z" />
    <glyph glyph-name="uacute" unicode="&#xfa;" horiz-adv-x="566" 
d="M541 36q0 -21 -16 -33.5t-44 -12.5q-78 0 -78 102v20q-21 -59 -65 -92t-103 -33q-82 0 -119 48t-38 162v198q0 69 -13 108q22 18 47 18q20 0 32.5 -12t12.5 -33l1 -269q0 -65 9.5 -103t31 -55.5t59.5 -17.5q34 0 65.5 24.5t52 78t20.5 135.5q0 129 -2 168t-12 66
q21 18 46 18q20 0 33 -13t13 -35l1 -370q0 -28 6.5 -39.5t21.5 -11.5q18 0 26 15q12 -16 12 -31zM274 563q-10 0 -21.5 2t-14.5 5l91 150q18 1 44 -5.5t35 -13.5z" />
    <glyph glyph-name="ucircumflex" unicode="&#xfb;" horiz-adv-x="566" 
d="M541 36q0 -21 -16 -33.5t-44 -12.5q-78 0 -78 102v20q-21 -59 -65 -92t-103 -33q-82 0 -119 48t-38 162v198q0 69 -13 108q22 18 47 18q20 0 32.5 -12t12.5 -33l1 -269q0 -65 9.5 -103t31 -55.5t59.5 -17.5q34 0 65.5 24.5t52 78t20.5 135.5q0 129 -2 168t-12 66
q21 18 46 18q20 0 33 -13t13 -35l1 -370q0 -28 6.5 -39.5t21.5 -11.5q18 0 26 15q12 -16 12 -31zM134.5 565.5q-11.5 3.5 -13.5 7.5l120 137q9 3 25 3q17 0 26 -3l120 -137q-3 -4 -14 -7.5t-18 -3.5l-113 87l-114 -87q-7 0 -18.5 3.5z" />
    <glyph glyph-name="udieresis" unicode="&#xfc;" horiz-adv-x="566" 
d="M541 36q0 -21 -16 -33.5t-44 -12.5q-78 0 -78 102v20q-21 -59 -65 -92t-103 -33q-82 0 -119 48t-38 162v198q0 69 -13 108q22 18 47 18q20 0 32.5 -12t12.5 -33l1 -269q0 -65 9.5 -103t31 -55.5t59.5 -17.5q34 0 65.5 24.5t52 78t20.5 135.5q0 129 -2 168t-12 66
q21 18 46 18q20 0 33 -13t13 -35l1 -370q0 -28 6.5 -39.5t21.5 -11.5q18 0 26 15q12 -16 12 -31zM150.5 600q-14.5 14 -14.5 33t14 33t34 14q19 0 33 -14t14 -33t-14 -33t-33 -14t-33.5 14zM324.5 600q-13.5 14 -13.5 33t13.5 33t32.5 14q20 0 34 -14t14 -33t-14.5 -33
t-33.5 -14t-32.5 14z" />
    <glyph glyph-name="yacute" unicode="&#xfd;" horiz-adv-x="547" 
d="M475 49q0 -282 -235 -282q-72 0 -121.5 26t-49.5 82q0 28 16.5 47t43.5 19t39 -15q-13 -8 -19 -21.5t-6 -25.5q0 -39 28.5 -58.5t68.5 -19.5q82 0 121 62t39 185q0 33 3 72q-21 -61 -65 -95t-108 -34q-77 0 -114 48.5t-38 161.5v194q0 69 -13 108q22 18 47 18
q20 0 32.5 -12t12.5 -33l1 -265q0 -92 21.5 -133.5t71.5 -41.5q61 0 103 58.5t42 179.5q0 126 -2 164t-12 65q21 18 46 18q20 0 33 -13t13 -35zM283 563q-10 0 -21.5 2t-14.5 5l91 150q18 1 44 -5.5t35 -13.5z" />
    <glyph glyph-name="thorn" unicode="&#xfe;" horiz-adv-x="553" 
d="M471 449.5q38 -71.5 38 -171.5q0 -137 -55.5 -213t-155.5 -76q-50 0 -85.5 20.5t-50.5 57.5v-122q0 -39 3 -81t10 -68q-18 -18 -46 -18q-21 0 -34 11.5t-13 32.5v864q0 22 11.5 33t32.5 11q15 0 28.5 -6t19.5 -12q-8 -26 -11 -61.5t-4 -94.5v-172q24 64 69 100.5
t109 36.5q96 0 134 -71.5zM387.5 97q36.5 61 36.5 180q0 86 -22 140.5t-86 54.5q-47 0 -82 -35.5t-53.5 -95.5t-18.5 -130q0 -81 26 -128t92 -47q71 0 107.5 61z" />
    <glyph glyph-name="ydieresis" unicode="&#xff;" horiz-adv-x="547" 
d="M475 49q0 -282 -235 -282q-72 0 -121.5 26t-49.5 82q0 28 16.5 47t43.5 19t39 -15q-13 -8 -19 -21.5t-6 -25.5q0 -39 28.5 -58.5t68.5 -19.5q82 0 121 62t39 185q0 33 3 72q-21 -61 -65 -95t-108 -34q-77 0 -114 48.5t-38 161.5v194q0 69 -13 108q22 18 47 18
q20 0 32.5 -12t12.5 -33l1 -265q0 -92 21.5 -133.5t71.5 -41.5q61 0 103 58.5t42 179.5q0 126 -2 164t-12 65q21 18 46 18q20 0 33 -13t13 -35zM160.5 600q-14.5 14 -14.5 33t14 33t34 14q19 0 33 -14t14 -33t-14 -33t-33 -14t-33.5 14zM334.5 600q-13.5 14 -13.5 33
t13.5 33t32.5 14q20 0 34 -14t14 -33t-14.5 -33t-33.5 -14t-32.5 14z" />
    <glyph glyph-name="Amacron" unicode="&#x100;" horiz-adv-x="592" 
d="M583 8q-17 -19 -47 -19q-19 0 -33 8.5t-18 24.5l-61 198h-262l-50 -167q-6 -22 -6 -33q0 -16 6 -23q-21 -8 -44 -8q-46 0 -46 37q0 13 10 45l212 622q33 13 66 13q39 0 48 -30l201 -621q11 -33 24 -47zM410 268l-118 384l-115 -384h233zM427 816q4 -14 4 -22q0 -6 -4 -22
h-257q-4 11 -4 22q0 13 4 22h257z" />
    <glyph glyph-name="amacron" unicode="&#x101;" horiz-adv-x="550" 
d="M540 42q0 -22 -20.5 -37t-49.5 -15q-43 0 -65 30t-22 94v29q-33 -71 -89.5 -112.5t-123.5 -41.5q-58 0 -91.5 31.5t-33.5 84.5q0 59 45 100t121 62q67 18 139 18q20 0 29 -1v26q0 89 -29.5 132t-97.5 43q-44 0 -74 -19t-30 -62q0 -23 10.5 -43t32.5 -28q-16 -20 -48 -20
q-33 0 -54 26.5t-21 61.5q0 58 51 89t140 31q103 0 152 -53t49 -163v-200q0 -53 36 -53q8 0 18 5.5t15 15.5q11 -15 11 -31zM283.5 74.5q41.5 29.5 69 77.5t28.5 100l-23 1q-35 0 -71 -5.5t-61 -15.5q-44 -16 -69 -44t-25 -66q0 -33 17 -55t53 -22q40 0 81.5 29.5zM391 643
q4 -14 4 -21q0 -8 -4 -22h-257q-4 9 -4 22q0 12 4 21h257z" />
    <glyph glyph-name="Abreve" unicode="&#x102;" horiz-adv-x="592" 
d="M583 8q-17 -19 -47 -19q-19 0 -33 8.5t-18 24.5l-61 198h-262l-50 -167q-6 -22 -6 -33q0 -16 6 -23q-21 -8 -44 -8q-46 0 -46 37q0 13 10 45l212 622q33 13 66 13q39 0 48 -30l201 -621q11 -33 24 -47zM410 268l-118 384l-115 -384h233zM381.5 766q-33.5 -29 -84.5 -29
q-52 0 -83.5 29t-45.5 74l34 13q12 -32 38 -49t62 -17t60.5 17.5t36.5 47.5l31 -9q-15 -48 -48.5 -77z" />
    <glyph glyph-name="abreve" unicode="&#x103;" horiz-adv-x="550" 
d="M540 42q0 -22 -20.5 -37t-49.5 -15q-43 0 -65 30t-22 94v29q-33 -71 -89.5 -112.5t-123.5 -41.5q-58 0 -91.5 31.5t-33.5 84.5q0 59 45 100t121 62q67 18 139 18q20 0 29 -1v26q0 89 -29.5 132t-97.5 43q-44 0 -74 -19t-30 -62q0 -23 10.5 -43t32.5 -28q-16 -20 -48 -20
q-33 0 -54 26.5t-21 61.5q0 58 51 89t140 31q103 0 152 -53t49 -163v-200q0 -53 36 -53q8 0 18 5.5t15 15.5q11 -15 11 -31zM283.5 74.5q41.5 29.5 69 77.5t28.5 100l-23 1q-35 0 -71 -5.5t-61 -15.5q-44 -16 -69 -44t-25 -66q0 -33 17 -55t53 -22q40 0 81.5 29.5z
M332.5 647.5q26.5 22.5 40.5 55.5q19 -3 32 -10q-15 -55 -50.5 -90t-92.5 -35q-63 0 -98.5 36.5t-47.5 86.5q13 10 33 13q13 -34 42.5 -56.5t72.5 -22.5q42 0 68.5 22.5z" />
    <glyph glyph-name="Aogonek" unicode="&#x104;" horiz-adv-x="592" 
d="M635 -104q0 -5 -1 -8q-13 -29 -42.5 -47.5t-68.5 -18.5q-36 0 -63.5 19t-27.5 58q0 60 74 97q-17 8 -21 26l-61 198h-262l-50 -167q-6 -22 -6 -33q0 -16 6 -23q-21 -8 -44 -8q-46 0 -46 37q0 13 10 45l212 622q33 13 66 13q39 0 48 -30l201 -621q11 -33 24 -47
q-11 -11 -24 -16q-35 -17 -52 -37t-17 -47q0 -21 12.5 -34.5t37.5 -13.5q29 0 50.5 16t33.5 38q11 -8 11 -18zM410 268l-118 384l-115 -384h233z" />
    <glyph glyph-name="aogonek" unicode="&#x105;" horiz-adv-x="550" 
d="M575 -102q0 -5 -1 -8q-13 -29 -42.5 -47.5t-68.5 -18.5q-36 0 -63.5 19t-27.5 58q0 58 68 93q-57 20 -57 120v29q-33 -71 -89.5 -112.5t-123.5 -41.5q-58 0 -91.5 31.5t-33.5 84.5q0 59 45 100t121 62q67 18 139 18q20 0 29 -1v26q0 89 -29.5 132t-97.5 43q-44 0 -74 -19
t-30 -62q0 -23 10.5 -43t32.5 -28q-16 -20 -48 -20q-33 0 -54 26.5t-21 61.5q0 58 51 89t140 31q103 0 152 -53t49 -163v-200q0 -53 36 -53q8 0 18 5.5t15 15.5q11 -15 11 -31t-11.5 -29t-29.5 -19q-35 -17 -52 -37t-17 -47q0 -21 12.5 -34.5t37.5 -13.5q29 0 50.5 16
t33.5 38q11 -8 11 -18zM283.5 74.5q41.5 29.5 69 77.5t28.5 100l-23 1q-35 0 -71 -5.5t-61 -15.5q-44 -16 -69 -44t-25 -66q0 -33 17 -55t53 -22q40 0 81.5 29.5z" />
    <glyph glyph-name="Cacute" unicode="&#x106;" horiz-adv-x="596" 
d="M128.5 80q-69.5 93 -69.5 266q0 174 71 267t199 93q53 0 98.5 -13.5t73 -37t27.5 -50.5q0 -19 -18 -33t-47 -11q-8 52 -42.5 80t-90.5 28q-90 0 -136 -81.5t-46 -241.5q0 -159 46 -240.5t134 -81.5q56 0 98 34t54 95l12 1q23 0 39 -10.5t16 -30.5q0 -33 -31.5 -62
t-83 -46.5t-108.5 -17.5q-126 0 -195.5 93zM301 736q-5 2 -10.5 10.5t-5.5 13.5l136 114q15 -7 30.5 -23.5t22.5 -32.5z" />
    <glyph glyph-name="cacute" unicode="&#x107;" horiz-adv-x="505" 
d="M105 55q-61 68 -61 196q0 126 62.5 198t176.5 72q81 0 125.5 -35t44.5 -92q0 -35 -18.5 -56t-47.5 -21q-33 0 -47 19q33 13 33 64q0 43 -27.5 64.5t-69.5 21.5q-67 0 -107 -58t-40 -165q0 -115 46 -168t122 -53q55 0 95 27t52 78q15 -5 15 -25q0 -13 -5 -27
q-16 -52 -63.5 -80t-114.5 -28q-110 0 -171 68zM279 563q-10 0 -21.5 2t-14.5 5l91 150q18 1 44 -5.5t35 -13.5z" />
    <glyph glyph-name="Ccircumflex" unicode="&#x108;" horiz-adv-x="596" 
d="M128.5 80q-69.5 93 -69.5 266q0 174 71 267t199 93q53 0 98.5 -13.5t73 -37t27.5 -50.5q0 -19 -18 -33t-47 -11q-8 52 -42.5 80t-90.5 28q-90 0 -136 -81.5t-46 -241.5q0 -159 46 -240.5t134 -81.5q56 0 98 34t54 95l12 1q23 0 39 -10.5t16 -30.5q0 -33 -31.5 -62
t-83 -46.5t-108.5 -17.5q-126 0 -195.5 93zM476 754q-2 -5 -8 -12.5t-12 -9.5l-131 78l-132 -78q-5 2 -11.5 9.5t-8.5 12.5l126 114q9 3 25 3q17 0 26 -3z" />
    <glyph glyph-name="ccircumflex" unicode="&#x109;" horiz-adv-x="505" 
d="M105 55q-61 68 -61 196q0 126 62.5 198t176.5 72q81 0 125.5 -35t44.5 -92q0 -35 -18.5 -56t-47.5 -21q-33 0 -47 19q33 13 33 64q0 43 -27.5 64.5t-69.5 21.5q-67 0 -107 -58t-40 -165q0 -115 46 -168t122 -53q55 0 95 27t52 78q15 -5 15 -25q0 -13 -5 -27
q-16 -52 -63.5 -80t-114.5 -28q-110 0 -171 68zM139.5 565.5q-11.5 3.5 -13.5 7.5l120 137q9 3 25 3q17 0 26 -3l120 -137q-3 -4 -14 -7.5t-18 -3.5l-113 87l-114 -87q-7 0 -18.5 3.5z" />
    <glyph glyph-name="Cdotaccent" unicode="&#x10a;" horiz-adv-x="596" 
d="M128.5 80q-69.5 93 -69.5 266q0 174 71 267t199 93q53 0 98.5 -13.5t73 -37t27.5 -50.5q0 -19 -18 -33t-47 -11q-8 52 -42.5 80t-90.5 28q-90 0 -136 -81.5t-46 -241.5q0 -159 46 -240.5t134 -81.5q56 0 98 34t54 95l12 1q23 0 39 -10.5t16 -30.5q0 -33 -31.5 -62
t-83 -46.5t-108.5 -17.5q-126 0 -195.5 93zM291.5 768q-15.5 15 -15.5 36t15.5 36t35.5 15q21 0 36.5 -15t15.5 -36t-15.5 -36t-36.5 -15q-20 0 -35.5 15z" />
    <glyph glyph-name="cdotaccent" unicode="&#x10b;" horiz-adv-x="505" 
d="M105 55q-61 68 -61 196q0 126 62.5 198t176.5 72q81 0 125.5 -35t44.5 -92q0 -35 -18.5 -56t-47.5 -21q-33 0 -47 19q33 13 33 64q0 43 -27.5 64.5t-69.5 21.5q-67 0 -107 -58t-40 -165q0 -115 46 -168t122 -53q55 0 95 27t52 78q15 -5 15 -25q0 -13 -5 -27
q-16 -52 -63.5 -80t-114.5 -28q-110 0 -171 68zM237 588q-15 15 -15 37q0 20 15 35.5t36 15.5t36 -15.5t15 -35.5q0 -22 -15 -37t-36 -15t-36 15z" />
    <glyph glyph-name="Ccaron" unicode="&#x10c;" horiz-adv-x="596" 
d="M128.5 80q-69.5 93 -69.5 266q0 174 71 267t199 93q53 0 98.5 -13.5t73 -37t27.5 -50.5q0 -19 -18 -33t-47 -11q-8 52 -42.5 80t-90.5 28q-90 0 -136 -81.5t-46 -241.5q0 -159 46 -240.5t134 -81.5q56 0 98 34t54 95l12 1q23 0 39 -10.5t16 -30.5q0 -33 -31.5 -62
t-83 -46.5t-108.5 -17.5q-126 0 -195.5 93zM326 738q-16 0 -25 3l-126 114q2 5 8.5 12.5t11.5 9.5l132 -78l131 78q5 -2 11.5 -9.5t8.5 -12.5l-126 -114q-9 -3 -26 -3z" />
    <glyph glyph-name="ccaron" unicode="&#x10d;" horiz-adv-x="505" 
d="M105 55q-61 68 -61 196q0 126 62.5 198t176.5 72q81 0 125.5 -35t44.5 -92q0 -35 -18.5 -56t-47.5 -21q-33 0 -47 19q33 13 33 64q0 43 -27.5 64.5t-69.5 21.5q-67 0 -107 -58t-40 -165q0 -115 46 -168t122 -53q55 0 95 27t52 78q15 -5 15 -25q0 -13 -5 -27
q-16 -52 -63.5 -80t-114.5 -28q-110 0 -171 68zM274 630l113 87q6 0 17.5 -3.5t14.5 -7.5l-120 -138q-12 -2 -26 -2q-13 0 -25 2l-120 138q2 4 13.5 7.5t18.5 3.5z" />
    <glyph glyph-name="Dcaron" unicode="&#x10e;" horiz-adv-x="641" 
d="M107 12q-12 12 -12 32l-2 533q0 42 -1.5 71t-8.5 49q76 7 208 7q141 0 215.5 -88.5t74.5 -264.5q0 -351 -286 -351h-154q-22 0 -34 12zM291 37q101 0 151.5 73t50.5 236q0 164 -51 242t-151 78h-118l1 -629h117zM308 738q-16 0 -25 3l-126 114q2 5 8.5 12.5t11.5 9.5
l132 -78l131 78q5 -2 11.5 -9.5t8.5 -12.5l-126 -114q-9 -3 -26 -3z" />
    <glyph glyph-name="dcaron" unicode="&#x10f;" horiz-adv-x="616" 
d="M579 589h-38q2 26 2 41q0 60 -14 109q15 5 38 5t37 -5q1 -73 -25 -150zM528 69q11 -15 11 -32q0 -20 -17.5 -32.5t-44.5 -12.5q-82 0 -82 128v7q-24 -66 -68.5 -103t-110.5 -37q-96 0 -134 71t-38 172q0 138 54.5 214.5t155.5 76.5q51 0 86.5 -20.5t51.5 -59.5l-1 134
q0 92 -13 137q18 18 46 18q21 0 34 -11.5t13 -32.5l-1 -581q0 -51 31 -51q19 0 27 15zM319 72q35 36 53 97t18 135q0 170 -123 170q-67 0 -102.5 -61t-35.5 -180q0 -89 22.5 -143t84.5 -54q48 0 83 36z" />
    <glyph glyph-name="Dcroat" unicode="&#x110;" horiz-adv-x="637" 
d="M506.5 615.5q74.5 -88.5 74.5 -264.5q0 -351 -286 -351h-154q-22 0 -34 12t-12 32l-1 286h-70q-4 14 -4 19q0 6 4 18h70l-1 210q0 42 -1.5 71t-8.5 49q76 7 208 7q141 0 215.5 -88.5zM442.5 110q50.5 73 50.5 236q0 164 -51 242t-151 78h-118v-299h151q4 -8 4 -18t-4 -19
h-150v-293h117q101 0 151.5 73z" />
    <glyph glyph-name="dcroat" unicode="&#x111;" horiz-adv-x="568" 
d="M471 582l-1 -477q0 -51 31 -51q19 0 27 15q11 -15 11 -32q0 -20 -17.5 -32.5t-44.5 -12.5q-82 0 -82 128v7q-24 -66 -68.5 -103t-110.5 -37q-96 0 -134 71t-38 172q0 138 54.5 214.5t155.5 76.5q51 0 86.5 -20.5t51.5 -59.5l-1 134v7h-111q-4 14 -4 19q0 6 4 18h110
q-2 58 -12 93q18 18 46 18q21 0 34 -11.5t13 -32.5v-67h71q3 -9 3 -18q0 -8 -3 -19h-71zM319 72q35 36 53 97t18 135q0 170 -123 170q-67 0 -102.5 -61t-35.5 -180q0 -89 22.5 -143t84.5 -54q48 0 83 36z" />
    <glyph glyph-name="Emacron" unicode="&#x112;" horiz-adv-x="537" 
d="M476.5 56.5q4.5 -11.5 4.5 -24.5q0 -14 -5 -23t-15 -9h-318q-21 0 -33.5 12t-12.5 33l-1 524q0 65 -13 103q14 12 28.5 16.5t40.5 4.5h302q7 0 11 -6.5t4 -16.5q0 -14 -6.5 -29t-16.5 -19q-143 25 -270 26v-260h246q3 -12 3 -24t-3 -24h-245v-296q125 1 287 28
q8 -4 12.5 -15.5zM406 816q4 -14 4 -22q0 -6 -4 -22h-257q-4 11 -4 22q0 13 4 22h257z" />
    <glyph glyph-name="emacron" unicode="&#x113;" horiz-adv-x="511" 
d="M462 106q0 -10 -6 -27q-19 -44 -66.5 -68t-111.5 -24q-110 0 -172 68.5t-62 195.5q0 126 61.5 198t176.5 72q83 0 133 -37.5t50 -106.5q0 -74 -60 -113t-167 -39q-59 0 -108 7q6 -101 50.5 -145.5t116.5 -44.5q55 0 95 22.5t55 64.5q15 -5 15 -23zM170.5 428.5
q-40.5 -56.5 -41.5 -162.5q48 -4 78 -5q80 0 126.5 28.5t46.5 97.5q0 53 -29 75.5t-72 22.5q-68 0 -108.5 -56.5zM398 643q4 -14 4 -21q0 -8 -4 -22h-257q-4 9 -4 22q0 12 4 21h257z" />
    <glyph glyph-name="Ebreve" unicode="&#x114;" horiz-adv-x="537" 
d="M476.5 56.5q4.5 -11.5 4.5 -24.5q0 -14 -5 -23t-15 -9h-318q-21 0 -33.5 12t-12.5 33l-1 524q0 65 -13 103q14 12 28.5 16.5t40.5 4.5h302q7 0 11 -6.5t4 -16.5q0 -14 -6.5 -29t-16.5 -19q-143 25 -270 26v-260h246q3 -12 3 -24t-3 -24h-245v-296q125 1 287 28
q8 -4 12.5 -15.5zM360.5 766q-33.5 -29 -84.5 -29q-52 0 -83.5 29t-45.5 74l34 13q12 -32 38 -49t62 -17t60.5 17.5t36.5 47.5l31 -9q-15 -48 -48.5 -77z" />
    <glyph glyph-name="ebreve" unicode="&#x115;" horiz-adv-x="511" 
d="M462 106q0 -10 -6 -27q-19 -44 -66.5 -68t-111.5 -24q-110 0 -172 68.5t-62 195.5q0 126 61.5 198t176.5 72q83 0 133 -37.5t50 -106.5q0 -74 -60 -113t-167 -39q-59 0 -108 7q6 -101 50.5 -145.5t116.5 -44.5q55 0 95 22.5t55 64.5q15 -5 15 -23zM170.5 428.5
q-40.5 -56.5 -41.5 -162.5q48 -4 78 -5q80 0 126.5 28.5t46.5 97.5q0 53 -29 75.5t-72 22.5q-68 0 -108.5 -56.5zM339.5 647.5q26.5 22.5 40.5 55.5q19 -3 32 -10q-15 -55 -50.5 -90t-92.5 -35q-63 0 -98.5 36.5t-47.5 86.5q13 10 33 13q13 -34 42.5 -56.5t72.5 -22.5
q42 0 68.5 22.5z" />
    <glyph glyph-name="Edotaccent" unicode="&#x116;" horiz-adv-x="537" 
d="M476.5 56.5q4.5 -11.5 4.5 -24.5q0 -14 -5 -23t-15 -9h-318q-21 0 -33.5 12t-12.5 33l-1 524q0 65 -13 103q14 12 28.5 16.5t40.5 4.5h302q7 0 11 -6.5t4 -16.5q0 -14 -6.5 -29t-16.5 -19q-143 25 -270 26v-260h246q3 -12 3 -24t-3 -24h-245v-296q125 1 287 28
q8 -4 12.5 -15.5zM241.5 768q-15.5 15 -15.5 36t15.5 36t35.5 15q21 0 36.5 -15t15.5 -36t-15.5 -36t-36.5 -15q-20 0 -35.5 15z" />
    <glyph glyph-name="edotaccent" unicode="&#x117;" horiz-adv-x="511" 
d="M462 106q0 -10 -6 -27q-19 -44 -66.5 -68t-111.5 -24q-110 0 -172 68.5t-62 195.5q0 126 61.5 198t176.5 72q83 0 133 -37.5t50 -106.5q0 -74 -60 -113t-167 -39q-59 0 -108 7q6 -101 50.5 -145.5t116.5 -44.5q55 0 95 22.5t55 64.5q15 -5 15 -23zM170.5 428.5
q-40.5 -56.5 -41.5 -162.5q48 -4 78 -5q80 0 126.5 28.5t46.5 97.5q0 53 -29 75.5t-72 22.5q-68 0 -108.5 -56.5zM232 588q-15 15 -15 37q0 20 15 35.5t36 15.5t36 -15.5t15 -35.5q0 -22 -15 -37t-36 -15t-36 15z" />
    <glyph glyph-name="Eogonek" unicode="&#x118;" horiz-adv-x="537" 
d="M499 -100q0 -5 -1 -8q-13 -29 -42.5 -47.5t-68.5 -18.5q-36 0 -63.5 19t-27.5 58q0 59 74 97h-227q-21 0 -33.5 12t-12.5 33l-1 524q0 65 -13 103q14 12 28.5 16.5t40.5 4.5h302q7 0 11 -6.5t4 -16.5q0 -14 -6.5 -29t-16.5 -19q-143 25 -270 26v-260h246q3 -12 3 -24
t-3 -24h-245v-296q125 1 287 28q8 -4 12.5 -15.5t4.5 -24.5q0 -14 -5 -23t-15 -9h-31q-38 -19 -57 -39.5t-19 -48.5q0 -21 12.5 -34.5t37.5 -13.5q29 0 50.5 16t33.5 38q11 -8 11 -18z" />
    <glyph glyph-name="eogonek" unicode="&#x119;" horiz-adv-x="511" 
d="M465 -85q0 -5 -1 -8q-13 -29 -42.5 -47.5t-68.5 -18.5q-36 0 -63.5 19t-27.5 58t33 69h-17q-110 0 -172 68.5t-62 195.5q0 126 61.5 198t176.5 72q83 0 133 -37.5t50 -106.5q0 -74 -60 -113t-167 -39q-59 0 -108 7q6 -101 50.5 -145.5t116.5 -44.5q55 0 95 22.5t55 64.5
q15 -5 15 -23q0 -10 -6 -27q-21 -49 -78 -73q-29 -16 -43.5 -35t-14.5 -44q0 -21 12.5 -34.5t37.5 -13.5q29 0 50.5 16t33.5 38q11 -8 11 -18zM170.5 428.5q-40.5 -56.5 -41.5 -162.5q48 -4 78 -5q80 0 126.5 28.5t46.5 97.5q0 53 -29 75.5t-72 22.5q-68 0 -108.5 -56.5z
" />
    <glyph glyph-name="Ecaron" unicode="&#x11a;" horiz-adv-x="537" 
d="M476.5 56.5q4.5 -11.5 4.5 -24.5q0 -14 -5 -23t-15 -9h-318q-21 0 -33.5 12t-12.5 33l-1 524q0 65 -13 103q14 12 28.5 16.5t40.5 4.5h302q7 0 11 -6.5t4 -16.5q0 -14 -6.5 -29t-16.5 -19q-143 25 -270 26v-260h246q3 -12 3 -24t-3 -24h-245v-296q125 1 287 28
q8 -4 12.5 -15.5zM277 738q-16 0 -25 3l-126 114q2 5 8.5 12.5t11.5 9.5l132 -78l131 78q5 -2 11.5 -9.5t8.5 -12.5l-126 -114q-9 -3 -26 -3z" />
    <glyph glyph-name="ecaron" unicode="&#x11b;" horiz-adv-x="511" 
d="M462 106q0 -10 -6 -27q-19 -44 -66.5 -68t-111.5 -24q-110 0 -172 68.5t-62 195.5q0 126 61.5 198t176.5 72q83 0 133 -37.5t50 -106.5q0 -74 -60 -113t-167 -39q-59 0 -108 7q6 -101 50.5 -145.5t116.5 -44.5q55 0 95 22.5t55 64.5q15 -5 15 -23zM170.5 428.5
q-40.5 -56.5 -41.5 -162.5q48 -4 78 -5q80 0 126.5 28.5t46.5 97.5q0 53 -29 75.5t-72 22.5q-68 0 -108.5 -56.5zM270 630l113 87q6 0 17.5 -3.5t14.5 -7.5l-120 -138q-12 -2 -26 -2q-13 0 -25 2l-120 138q2 4 13.5 7.5t18.5 3.5z" />
    <glyph glyph-name="Gcircumflex" unicode="&#x11c;" horiz-adv-x="625" 
d="M130.5 79.5q-71.5 92.5 -71.5 266.5t73 267t206 93q50 0 95 -13.5t72.5 -36.5t27.5 -49q0 -21 -18 -35t-47 -11q-8 52 -42 80t-86 28q-192 0 -192 -323q0 -322 191 -322q86 0 117 59.5t31 137.5q0 121 -74 137q4 15 18 22.5t35 7.5q45 0 74 -36.5t29 -115.5
q0 -66 -25 -123t-77 -91.5t-131 -34.5q-134 0 -205.5 92.5zM481 754q-2 -5 -8 -12.5t-12 -9.5l-131 78l-132 -78q-5 2 -11.5 9.5t-8.5 12.5l126 114q9 3 25 3q17 0 26 -3z" />
    <glyph glyph-name="gcircumflex" unicode="&#x11d;" horiz-adv-x="537" 
d="M96.5 -202.5q-48.5 30.5 -48.5 89.5q0 33 17.5 53.5t44.5 20.5q28 0 40 -15q-28 -21 -28 -61q0 -41 27 -62.5t72 -21.5q85 0 125.5 61.5t40.5 182.5v68q-18 -56 -61 -86.5t-105 -30.5q-177 0 -177 252q0 115 50.5 194t177.5 79q56 0 108.5 -15.5t85.5 -50.5v-410
q0 -278 -248 -278q-73 0 -121.5 30.5zM351 101q35 61 36 147l1 199q-17 18 -48 27.5t-69 9.5q-83 0 -112.5 -67t-29.5 -177q0 -106 27.5 -153t85.5 -47q74 0 109 61zM140.5 568.5q-11.5 3.5 -13.5 7.5l120 137q9 3 25 3q17 0 26 -3l120 -137q-3 -4 -14 -7.5t-18 -3.5
l-113 87l-114 -87q-7 0 -18.5 3.5z" />
    <glyph glyph-name="Gbreve" unicode="&#x11e;" horiz-adv-x="625" 
d="M130.5 79.5q-71.5 92.5 -71.5 266.5t73 267t206 93q50 0 95 -13.5t72.5 -36.5t27.5 -49q0 -21 -18 -35t-47 -11q-8 52 -42 80t-86 28q-192 0 -192 -323q0 -322 191 -322q86 0 117 59.5t31 137.5q0 121 -74 137q4 15 18 22.5t35 7.5q45 0 74 -36.5t29 -115.5
q0 -66 -25 -123t-77 -91.5t-131 -34.5q-134 0 -205.5 92.5zM414.5 766q-33.5 -29 -84.5 -29q-52 0 -83.5 29t-45.5 74l34 13q12 -32 38 -49t62 -17t60.5 17.5t36.5 47.5l31 -9q-15 -48 -48.5 -77z" />
    <glyph glyph-name="gbreve" unicode="&#x11f;" horiz-adv-x="537" 
d="M96.5 -202.5q-48.5 30.5 -48.5 89.5q0 33 17.5 53.5t44.5 20.5q28 0 40 -15q-28 -21 -28 -61q0 -41 27 -62.5t72 -21.5q85 0 125.5 61.5t40.5 182.5v68q-18 -56 -61 -86.5t-105 -30.5q-177 0 -177 252q0 115 50.5 194t177.5 79q56 0 108.5 -15.5t85.5 -50.5v-410
q0 -278 -248 -278q-73 0 -121.5 30.5zM351 101q35 61 36 147l1 199q-17 18 -48 27.5t-69 9.5q-83 0 -112.5 -67t-29.5 -177q0 -106 27.5 -153t85.5 -47q74 0 109 61zM344.5 650.5q26.5 22.5 40.5 55.5q19 -3 32 -10q-15 -55 -50.5 -90t-92.5 -35q-63 0 -98.5 36.5
t-47.5 86.5q13 10 33 13q13 -34 42.5 -56.5t72.5 -22.5q42 0 68.5 22.5z" />
    <glyph glyph-name="Gdotaccent" unicode="&#x120;" horiz-adv-x="625" 
d="M130.5 79.5q-71.5 92.5 -71.5 266.5t73 267t206 93q50 0 95 -13.5t72.5 -36.5t27.5 -49q0 -21 -18 -35t-47 -11q-8 52 -42 80t-86 28q-192 0 -192 -323q0 -322 191 -322q86 0 117 59.5t31 137.5q0 121 -74 137q4 15 18 22.5t35 7.5q45 0 74 -36.5t29 -115.5
q0 -66 -25 -123t-77 -91.5t-131 -34.5q-134 0 -205.5 92.5zM296.5 768q-15.5 15 -15.5 36t15.5 36t35.5 15q21 0 36.5 -15t15.5 -36t-15.5 -36t-36.5 -15q-20 0 -35.5 15z" />
    <glyph glyph-name="gdotaccent" unicode="&#x121;" horiz-adv-x="537" 
d="M96.5 -202.5q-48.5 30.5 -48.5 89.5q0 33 17.5 53.5t44.5 20.5q28 0 40 -15q-28 -21 -28 -61q0 -41 27 -62.5t72 -21.5q85 0 125.5 61.5t40.5 182.5v68q-18 -56 -61 -86.5t-105 -30.5q-177 0 -177 252q0 115 50.5 194t177.5 79q56 0 108.5 -15.5t85.5 -50.5v-410
q0 -278 -248 -278q-73 0 -121.5 30.5zM351 101q35 61 36 147l1 199q-17 18 -48 27.5t-69 9.5q-83 0 -112.5 -67t-29.5 -177q0 -106 27.5 -153t85.5 -47q74 0 109 61zM237 591q-15 15 -15 37q0 20 15 35.5t36 15.5t36 -15.5t15 -35.5q0 -22 -15 -37t-36 -15t-36 15z" />
    <glyph glyph-name="Gcommaaccent" unicode="&#x122;" horiz-adv-x="625" 
d="M130.5 79.5q-71.5 92.5 -71.5 266.5t73 267t206 93q50 0 95 -13.5t72.5 -36.5t27.5 -49q0 -21 -18 -35t-47 -11q-8 52 -42 80t-86 28q-192 0 -192 -323q0 -322 191 -322q86 0 117 59.5t31 137.5q0 121 -74 137q4 15 18 22.5t35 7.5q45 0 74 -36.5t29 -115.5
q0 -66 -25 -123t-77 -91.5t-131 -34.5q-134 0 -205.5 92.5zM298 -210q31 36 31 67q0 26 -13 37.5t-33 17.5q0 20 15.5 37t40.5 17q24 0 40.5 -16.5t16.5 -52.5q0 -66 -68 -125q-17 4 -30 18z" />
    <glyph glyph-name="gcommaaccent" unicode="&#x123;" horiz-adv-x="537" 
d="M312 736q-27 -39 -27 -71q0 -35 37 -43q0 -20 -14 -35t-36 -15q-21 0 -37 14.5t-16 46.5q0 25 13.5 52.5t47.5 67.5q21 -3 32 -17zM96.5 -202.5q-48.5 30.5 -48.5 89.5q0 33 17.5 53.5t44.5 20.5q28 0 40 -15q-28 -21 -28 -61q0 -41 27 -62.5t72 -21.5q85 0 125.5 61.5
t40.5 182.5v68q-18 -56 -61 -86.5t-105 -30.5q-177 0 -177 252q0 115 50.5 194t177.5 79q56 0 108.5 -15.5t85.5 -50.5v-410q0 -278 -248 -278q-73 0 -121.5 30.5zM351 101q35 61 36 147l1 199q-17 18 -48 27.5t-69 9.5q-83 0 -112.5 -67t-29.5 -177q0 -106 27.5 -153
t85.5 -47q74 0 109 61z" />
    <glyph glyph-name="Hcircumflex" unicode="&#x124;" horiz-adv-x="680" 
d="M597 7q-21 -18 -47 -18q-20 0 -33 12t-13 32l-1 309h-326v-228q0 -73 13 -107q-21 -18 -47 -18q-20 0 -33 12t-13 32l-1 544q0 69 -13 107q21 18 47 18q21 0 34 -11.5t13 -32.5v-268h326v187q0 69 -13 107q21 18 47 18q21 0 34 -11.5t13 -32.5v-544q0 -73 13 -107z
M489 754q-2 -5 -8 -12.5t-12 -9.5l-131 78l-132 -78q-5 2 -11.5 9.5t-8.5 12.5l126 114q9 3 25 3q17 0 26 -3z" />
    <glyph glyph-name="hcircumflex" unicode="&#x125;" horiz-adv-x="562" 
d="M498 7q-20 -18 -46 -18q-20 0 -32.5 12t-12.5 32l-1 270q0 88 -23.5 131t-80.5 43q-35 0 -67.5 -24.5t-53 -77.5t-20.5 -134q0 -129 2 -168t12 -66q-21 -18 -46 -18q-21 0 -33.5 13t-12.5 35l-1 649q0 22 12 33t33 11q15 0 28 -5.5t20 -12.5q-8 -25 -10.5 -59.5
t-3.5 -96.5l-1 -151q22 55 65 85.5t100 30.5q82 0 121 -52.5t39 -155.5l1 -199q0 -72 12 -107zM-2.5 738.5q-11.5 3.5 -13.5 7.5l120 137q9 3 26 3q16 0 25 -3l120 -137q-3 -4 -14 -7.5t-18 -3.5l-113 87l-114 -87q-7 0 -18.5 3.5z" />
    <glyph glyph-name="Hbar" unicode="&#x126;" horiz-adv-x="680" 
d="M584 535v-421q0 -73 13 -107q-21 -18 -47 -18q-20 0 -33 12t-13 32l-1 309h-326v-228q0 -73 13 -107q-21 -18 -47 -18q-20 0 -33 12t-13 32l-1 502h-51q-4 14 -4 19q0 6 4 18h51v5q0 69 -13 107q21 18 47 18q21 0 34 -11.5t13 -32.5v-86h326v5q0 69 -13 107q21 18 47 18
q21 0 34 -11.5t13 -32.5v-86h47q4 -8 4 -18t-4 -19h-47zM503 535h-326v-145h326v145z" />
    <glyph glyph-name="hbar" unicode="&#x127;" horiz-adv-x="568" 
d="M498 7q-20 -18 -46 -18q-20 0 -32.5 12t-12.5 32l-1 270q0 88 -23.5 131t-80.5 43q-35 0 -67.5 -24.5t-53 -77.5t-20.5 -134q0 -129 2 -168t12 -66q-21 -18 -46 -18q-21 0 -33.5 13t-12.5 35l-1 541h-67q-3 9 -3 18t3 18h67v72q0 22 12 33t33 11q15 0 28 -5.5t20 -12.5
q-10 -32 -13 -98h120q4 -8 4 -18t-4 -18h-121v-22l-1 -151q22 55 65 85.5t100 30.5q82 0 121 -52.5t39 -155.5l1 -199q0 -72 12 -107z" />
    <glyph glyph-name="Itilde" unicode="&#x128;" horiz-adv-x="273" 
d="M110 1q-13 12 -13 32l-1 544q0 69 -13 107q21 18 47 18q21 0 34 -11.5t13 -32.5v-544q0 -73 13 -107q-21 -18 -47 -18q-20 0 -33 12zM243 775q-21 -22 -53 -22q-17 0 -32.5 5.5t-35.5 16.5q-19 10 -32 15t-27 5q-43 0 -58 -41h-2q-12 0 -22 10q6 43 29.5 63t56.5 20
q17 0 31 -5t37 -16q21 -10 34 -15t29 -5q20 0 30 8.5t20 27.5q16 0 24 -8q-8 -37 -29 -59z" />
    <glyph glyph-name="itilde" unicode="&#x129;" horiz-adv-x="245" 
d="M174 7q-18 -18 -46 -18q-20 0 -32.5 12t-12.5 32l-1 363q0 72 -12 107q21 18 45 18q21 0 33 -11.5t12 -32.5l2 -363q0 -72 12 -107zM229 604.5q-21 -23.5 -53 -23.5q-17 0 -30.5 6t-33.5 19q-17 11 -30 17t-28 6q-22 0 -37.5 -11.5t-22.5 -31.5h-2q-12 0 -21 9
q6 43 30.5 64t56.5 21q18 0 32.5 -6.5t32.5 -18.5q20 -12 32 -17.5t28 -5.5q21 0 31.5 11t19.5 33q13 0 22 -9q-6 -39 -27 -62.5z" />
    <glyph glyph-name="Imacron" unicode="&#x12a;" horiz-adv-x="273" 
d="M110 1q-13 12 -13 32l-1 544q0 69 -13 107q21 18 47 18q21 0 34 -11.5t13 -32.5v-544q0 -73 13 -107q-21 -18 -47 -18q-20 0 -33 12zM257 816q4 -14 4 -22q0 -6 -4 -22h-257q-4 11 -4 22q0 13 4 22h257z" />
    <glyph glyph-name="imacron" unicode="&#x12b;" horiz-adv-x="245" 
d="M174 7q-18 -18 -46 -18q-20 0 -32.5 12t-12.5 32l-1 363q0 72 -12 107q21 18 45 18q21 0 33 -11.5t12 -32.5l2 -363q0 -72 12 -107zM244 643q4 -14 4 -21q0 -8 -4 -22h-257q-4 9 -4 22q0 12 4 21h257z" />
    <glyph glyph-name="Iogonek" unicode="&#x12e;" horiz-adv-x="273" 
d="M247 -100q0 -5 -1 -8q-13 -29 -42.5 -47.5t-68.5 -18.5q-36 0 -63.5 19t-27.5 58q0 58 70 95q-17 11 -17 35l-1 544q0 69 -13 107q21 18 47 18q21 0 34 -11.5t13 -32.5v-544q0 -73 13 -107q-14 -12 -28 -15q-30 -17 -45 -36t-15 -44q0 -21 12.5 -34.5t37.5 -13.5
q29 0 50.5 16t33.5 38q11 -8 11 -18z" />
    <glyph glyph-name="iogonek" unicode="&#x12f;" horiz-adv-x="260" 
d="M89 616q-16 16 -16 38q0 23 16 38.5t38 15.5q23 0 38.5 -15.5t15.5 -38.5q0 -22 -15.5 -38t-38.5 -16q-22 0 -38 16zM238 -96q0 -5 -1 -8q-12 -29 -42 -47.5t-69 -18.5q-36 0 -63.5 19t-27.5 57q0 59 70 95q-12 14 -12 32l-1 363q0 69 -13 107q21 18 46 18
q20 0 32.5 -11.5t12.5 -32.5l1 -363q0 -73 13 -107q-18 -16 -40 -18q-25 -16 -37.5 -33.5t-12.5 -39.5t12 -35.5t37 -13.5q29 0 51 16t33 38q11 -6 11 -17z" />
    <glyph glyph-name="Idotaccent" unicode="&#x130;" horiz-adv-x="273" 
d="M110 1q-13 12 -13 32l-1 544q0 69 -13 107q21 18 47 18q21 0 34 -11.5t13 -32.5v-544q0 -73 13 -107q-21 -18 -47 -18q-20 0 -33 12zM92.5 768q-15.5 15 -15.5 36t15.5 36t35.5 15q21 0 36.5 -15t15.5 -36t-15.5 -36t-36.5 -15q-20 0 -35.5 15z" />
    <glyph glyph-name="dotlessi" unicode="&#x131;" horiz-adv-x="245" 
d="M174 7q-18 -18 -46 -18q-20 0 -32.5 12t-12.5 32l-1 363q0 72 -12 107q21 18 45 18q21 0 33 -11.5t12 -32.5l2 -363q0 -72 12 -107z" />
    <glyph glyph-name="Jcircumflex" unicode="&#x134;" horiz-adv-x="456" 
d="M83 19q-37 32 -37 77q0 24 12.5 41t37.5 17q21 0 29 -14q-9 -21 -9 -40q0 -36 23 -56t52 -20q54 0 73.5 38t19.5 110v442q0 37 4 51q-35 0 -103 4q-21 1 -36 -7.5t-15 -31.5q0 -34 29 -50q-11 -10 -35 -10q-23 0 -40.5 18t-17.5 48q0 31 23 50.5t64 19.5l56 -2
q56 -4 88 -4t68 4q-4 -24 -4 -72v-453q0 -192 -173 -192q-72 0 -109 32zM380 754q-2 -5 -8 -12.5t-12 -9.5l-131 78l-132 -78q-5 2 -11.5 9.5t-8.5 12.5l126 114q9 3 25 3q17 0 26 -3z" />
    <glyph glyph-name="jcircumflex" unicode="&#x135;" horiz-adv-x="250" 
d="M-52.5 -210.5q-27.5 21.5 -27.5 58.5q0 19 11.5 33.5t33.5 14.5q17 0 25 -14q-8 -15 -8 -34q0 -25 14 -35t33 -10q41 0 54 40t13 118l1 434q0 72 -12 108q20 18 45 18q20 0 32.5 -12t12.5 -33l1 -529q0 -77 -33.5 -128t-114.5 -51q-53 0 -80.5 21.5zM-3.5 565.5
q-11.5 3.5 -13.5 7.5l120 137q9 3 25 3q17 0 26 -3l120 -137q-3 -4 -14 -7.5t-18 -3.5l-113 87l-114 -87q-7 0 -18.5 3.5z" />
    <glyph glyph-name="Kcommaaccent" unicode="&#x136;" horiz-adv-x="585" 
d="M568 38q0 -23 -19 -37.5t-45 -14.5q-65 0 -97 99l-42 133q-13 34 -28 56t-47.5 36.5t-87.5 14.5h-25v-211q0 -73 13 -107q-21 -18 -47 -18q-20 0 -33 12t-13 32l-1 544q0 69 -13 107q21 18 47 18q21 0 33.5 -11.5t12.5 -32.5l1 -296l28 3q66 8 113.5 47.5t72 94.5
t24.5 107q0 48 -18 76q18 12 37 12q24 0 42 -20.5t18 -67.5q0 -79 -49 -152t-148 -110q58 -9 90.5 -37t50.5 -76l47 -134q13 -30 23 -41.5t25 -12.5h3q14 0 25 12q7 -13 7 -25zM271 -210q31 36 31 67q0 26 -13 37.5t-33 17.5q0 20 15.5 37t40.5 17q24 0 40.5 -16.5
t16.5 -52.5q0 -66 -68 -125q-17 4 -30 18z" />
    <glyph glyph-name="kcommaaccent" unicode="&#x137;" horiz-adv-x="546" 
d="M518 41q0 -22 -20 -37t-47 -15q-25 0 -45.5 15t-32.5 43l-86 170q-57 -21 -126 -38q0 -91 2 -119t12 -53q-10 -8 -20.5 -13t-27.5 -5q-25 0 -34.5 12.5t-9.5 35.5l-1 649q0 21 12.5 32.5t33.5 11.5q28 0 46 -18q-7 -34 -9 -61t-3 -69l-1 -27l-1 -183q23 68 75 108.5
t123 40.5q59 0 91.5 -31t32.5 -83q0 -57 -39 -100t-100 -71q17 -7 37 -39l59 -106q12 -19 19.5 -26.5t20.5 -7.5q17 0 28 13q11 -12 11 -29zM334.5 289.5q66.5 43.5 66.5 112.5q0 37 -19 54.5t-51 17.5q-50 0 -88.5 -33.5t-60 -92t-21.5 -133.5q107 31 173.5 74.5zM237 -210
q31 36 31 67q0 26 -13 37.5t-33 17.5q0 20 15.5 37t40.5 17q24 0 40.5 -16.5t16.5 -52.5q0 -66 -68 -125q-17 4 -30 18z" />
    <glyph glyph-name="kgreenlandic" unicode="&#x138;" horiz-adv-x="578" 
d="M539 38q0 -22 -16.5 -35.5t-42.5 -13.5q-31 0 -55 20t-33 53l-24 86q-14 44 -42.5 68t-95.5 24h-62v-126q0 -72 12 -107q-18 -18 -46 -18q-21 0 -34 12t-13 32v362q0 69 -13 108q24 18 48 18q21 0 33.5 -12t12.5 -33v-199l59 3q55 5 94.5 29t60 58.5t20.5 71.5
q0 21 -5 41t-11 28q16 13 36 13q22 0 40.5 -21t18.5 -59q0 -57 -39.5 -104t-107.5 -68q40 -6 66.5 -32.5t39.5 -69.5l19 -65q15 -51 45 -51h3q16 0 26 12q6 -11 6 -25z" />
    <glyph glyph-name="Lacute" unicode="&#x139;" horiz-adv-x="480" 
d="M177 48q117 1 261 27q7 -4 11.5 -16t4.5 -25q0 -15 -5 -24.5t-15 -9.5h-291q-21 0 -33.5 12t-12.5 33l-1 532q0 69 -13 107q21 18 47 18q21 0 33.5 -11.5t12.5 -32.5zM123 736q-5 2 -10.5 10.5t-5.5 13.5l136 114q15 -7 30.5 -23.5t22.5 -32.5z" />
    <glyph glyph-name="lacute" unicode="&#x13a;" horiz-adv-x="270" 
d="M105 19q-25 29 -25 82v585q0 21 13 32.5t34 11.5q25 0 46 -18q-8 -26 -10.5 -67t-2.5 -128v-412q0 -26 9.5 -39.5t28.5 -13.5q11 0 21.5 5.5t15.5 15.5q11 -15 11 -31q0 -23 -20.5 -37.5t-50.5 -14.5q-45 0 -70 29z" />
    <glyph glyph-name="Lcommaaccent" unicode="&#x13b;" horiz-adv-x="480" 
d="M177 48q117 1 261 27q7 -4 11.5 -16t4.5 -25q0 -15 -5 -24.5t-15 -9.5h-291q-21 0 -33.5 12t-12.5 33l-1 532q0 69 -13 107q21 18 47 18q21 0 33.5 -11.5t12.5 -32.5zM236 -210q31 36 31 67q0 26 -13 37.5t-33 17.5q0 20 15.5 37t40.5 17q24 0 40.5 -16.5t16.5 -52.5
q0 -66 -68 -125q-17 4 -30 18z" />
    <glyph glyph-name="lcommaaccent" unicode="&#x13c;" horiz-adv-x="270" 
d="M105 19q-25 29 -25 82v585q0 21 13 32.5t34 11.5q25 0 46 -18q-8 -26 -10.5 -67t-2.5 -128v-412q0 -26 9.5 -39.5t28.5 -13.5q11 0 21.5 5.5t15.5 15.5q11 -15 11 -31q0 -23 -20.5 -37.5t-50.5 -14.5q-45 0 -70 29zM129 -210q31 36 31 67q0 26 -13 37.5t-33 17.5
q0 20 15.5 37t40.5 17q24 0 40.5 -16.5t16.5 -52.5q0 -66 -68 -125q-17 4 -30 18z" />
    <glyph glyph-name="Lcaron" unicode="&#x13d;" horiz-adv-x="480" 
d="M282 632q0 -32 -2 -46h39q26 77 25 150q-16 6 -38 6q-20 0 -37 -6q13 -43 13 -104zM177 48q117 1 261 27q7 -4 11.5 -16t4.5 -25q0 -15 -5 -24.5t-15 -9.5h-291q-21 0 -33.5 12t-12.5 33l-1 532q0 69 -13 107q21 18 47 18q21 0 33.5 -11.5t12.5 -32.5z" />
    <glyph glyph-name="lcaron" unicode="&#x13e;" horiz-adv-x="326" 
d="M240 635q0 -32 -2 -46h39q26 77 25 150q-14 5 -37 5t-38 -5q13 -43 13 -104zM105 19q-25 29 -25 82v585q0 21 13 32.5t34 11.5q25 0 46 -18q-8 -26 -10.5 -67t-2.5 -128v-412q0 -26 9.5 -39.5t28.5 -13.5q11 0 21.5 5.5t15.5 15.5q11 -15 11 -31q0 -23 -20.5 -37.5
t-50.5 -14.5q-45 0 -70 29z" />
    <glyph glyph-name="Ldot" unicode="&#x13f;" horiz-adv-x="480" 
d="M177 48q117 1 261 27q7 -4 11.5 -16t4.5 -25q0 -15 -5 -24.5t-15 -9.5h-291q-21 0 -33.5 12t-12.5 33l-1 532q0 69 -13 107q21 18 47 18q21 0 33.5 -11.5t12.5 -32.5zM327 284q-16 16 -16 38t16 38t38 16t38 -16t16 -38t-15.5 -38t-38.5 -16q-22 0 -38 16z" />
    <glyph glyph-name="ldot" unicode="&#x140;" horiz-adv-x="340" 
d="M105 19q-25 29 -25 82v585q0 21 13 32.5t34 11.5q25 0 46 -18q-8 -26 -10.5 -67t-2.5 -128v-412q0 -26 9.5 -39.5t28.5 -13.5q11 0 21.5 5.5t15.5 15.5q11 -15 11 -31q0 -23 -20.5 -37.5t-50.5 -14.5q-45 0 -70 29zM254 301q-16 16 -16 38t16 38t38 16t38 -16t16 -38
t-15.5 -38t-38.5 -16q-22 0 -38 16z" />
    <glyph glyph-name="Lslash" unicode="&#x141;" horiz-adv-x="480" 
d="M449.5 59q4.5 -12 4.5 -25q0 -15 -5 -24.5t-15 -9.5h-291q-21 0 -33.5 12t-12.5 33v157l-52 -51q-20 3 -26 25l78 78l-1 323q0 69 -13 107q21 18 47 18q21 0 33.5 -11.5t12.5 -32.5l1 -324l109 109q20 -4 27 -26l-136 -135v-234q117 1 261 27q7 -4 11.5 -16z" />
    <glyph glyph-name="lslash" unicode="&#x142;" horiz-adv-x="270" 
d="M219.5 57.5q10.5 5.5 15.5 15.5q11 -15 11 -31q0 -23 -20.5 -37.5t-50.5 -14.5q-45 0 -70 29t-25 82v126l-55 -74l-30 21l85 114v398q0 21 13 32.5t34 11.5q25 0 46 -18q-8 -26 -10.5 -67t-2.5 -128v-121l66 89l30 -21l-96 -129v-230q0 -26 9.5 -39.5t28.5 -13.5
q11 0 21.5 5.5z" />
    <glyph glyph-name="Nacute" unicode="&#x143;" horiz-adv-x="684" 
d="M85 1q12 36 12 113l-1 458q0 80 -7 118q11 10 38 10q20 0 24 -5q308 -443 390 -584l-17 498q-2 34 5 58t22 31q4 1 14 1q13 0 22 -4q-1 -11 1 -40l1 -32v-510q0 -77 5 -112q-4 -5 -15 -8t-22 -3q-10 0 -20 4q-98 119 -204.5 279.5t-185.5 294.5l15 -530
q1 -22 -11.5 -35.5t-29.5 -13.5q-21 0 -36 12zM315 736q-5 2 -10.5 10.5t-5.5 13.5l136 114q15 -7 30.5 -23.5t22.5 -32.5z" />
    <glyph glyph-name="nacute" unicode="&#x144;" horiz-adv-x="574" 
d="M510 7q-20 -18 -46 -18q-21 0 -34 12t-13 32v270q-1 87 -24.5 129t-79.5 42q-35 0 -67.5 -24t-53.5 -76t-21 -133q0 -129 2 -168t12 -66q-21 -18 -46 -18q-21 0 -34 13t-13 35v369q-1 28 -7.5 40t-20.5 12q-19 0 -26 -16q-12 17 -12 32q0 21 16 33.5t44 12.5q38 0 58 -26
t20 -77v-20q21 59 66 91.5t106 32.5q161 0 161 -208v-199q2 -76 13 -107zM301 563q-10 0 -21.5 2t-14.5 5l91 150q18 1 44 -5.5t35 -13.5z" />
    <glyph glyph-name="Ncommaaccent" unicode="&#x145;" horiz-adv-x="684" 
d="M85 1q12 36 12 113l-1 458q0 80 -7 118q11 10 38 10q20 0 24 -5q308 -443 390 -584l-17 498q-2 34 5 58t22 31q4 1 14 1q13 0 22 -4q-1 -11 1 -40l1 -32v-510q0 -77 5 -112q-4 -5 -15 -8t-22 -3q-10 0 -20 4q-98 119 -204.5 279.5t-185.5 294.5l15 -530
q1 -22 -11.5 -35.5t-29.5 -13.5q-21 0 -36 12zM307 -210q31 36 31 67q0 26 -13 37.5t-33 17.5q0 20 15.5 37t40.5 17q24 0 40.5 -16.5t16.5 -52.5q0 -66 -68 -125q-17 4 -30 18z" />
    <glyph glyph-name="ncommaaccent" unicode="&#x146;" horiz-adv-x="574" 
d="M510 7q-20 -18 -46 -18q-21 0 -34 12t-13 32v270q-1 87 -24.5 129t-79.5 42q-35 0 -67.5 -24t-53.5 -76t-21 -133q0 -129 2 -168t12 -66q-21 -18 -46 -18q-21 0 -34 13t-13 35v369q-1 28 -7.5 40t-20.5 12q-19 0 -26 -16q-12 17 -12 32q0 21 16 33.5t44 12.5q38 0 58 -26
t20 -77v-20q21 59 66 91.5t106 32.5q161 0 161 -208v-199q2 -76 13 -107zM261 -210q31 36 31 67q0 26 -13 37.5t-33 17.5q0 20 15.5 37t40.5 17q24 0 40.5 -16.5t16.5 -52.5q0 -66 -68 -125q-17 4 -30 18z" />
    <glyph glyph-name="Ncaron" unicode="&#x147;" horiz-adv-x="684" 
d="M85 1q12 36 12 113l-1 458q0 80 -7 118q11 10 38 10q20 0 24 -5q308 -443 390 -584l-17 498q-2 34 5 58t22 31q4 1 14 1q13 0 22 -4q-1 -11 1 -40l1 -32v-510q0 -77 5 -112q-4 -5 -15 -8t-22 -3q-10 0 -20 4q-98 119 -204.5 279.5t-185.5 294.5l15 -530
q1 -22 -11.5 -35.5t-29.5 -13.5q-21 0 -36 12zM340 738q-16 0 -25 3l-126 114q2 5 8.5 12.5t11.5 9.5l132 -78l131 78q5 -2 11.5 -9.5t8.5 -12.5l-126 -114q-9 -3 -26 -3z" />
    <glyph glyph-name="ncaron" unicode="&#x148;" horiz-adv-x="574" 
d="M510 7q-20 -18 -46 -18q-21 0 -34 12t-13 32v270q-1 87 -24.5 129t-79.5 42q-35 0 -67.5 -24t-53.5 -76t-21 -133q0 -129 2 -168t12 -66q-21 -18 -46 -18q-21 0 -34 13t-13 35v369q-1 28 -7.5 40t-20.5 12q-19 0 -26 -16q-12 17 -12 32q0 21 16 33.5t44 12.5q38 0 58 -26
t20 -77v-20q21 59 66 91.5t106 32.5q161 0 161 -208v-199q2 -76 13 -107zM296 630l113 87q6 0 17.5 -3.5t14.5 -7.5l-120 -138q-12 -2 -26 -2q-13 0 -25 2l-120 138q2 4 13.5 7.5t18.5 3.5z" />
    <glyph glyph-name="napostrophe" unicode="&#x149;" horiz-adv-x="674" 
d="M25 453h38l20 152q-12 5 -36 5t-39 -5zM584 7q-20 -18 -46 -18q-21 0 -34 12t-13 32v270q-1 87 -24.5 129t-79.5 42q-35 0 -67.5 -24t-53.5 -76t-21 -133q0 -129 2 -168t12 -66q-21 -18 -46 -18q-21 0 -34 13t-13 35v369q-1 28 -7.5 40t-20.5 12q-19 0 -26 -16
q-12 17 -12 32q0 21 16 33.5t44 12.5q38 0 58 -26t20 -77v-20q21 59 66 91.5t106 32.5q161 0 161 -208v-199q2 -76 13 -107z" />
    <glyph glyph-name="Omacron" unicode="&#x14c;" horiz-adv-x="651" 
d="M127 77q-68 90 -68 269q0 180 68 270t198 90q131 0 199 -90t68 -270t-68 -269.5t-199 -89.5q-130 0 -198 90zM458.5 102.5q44.5 78.5 44.5 243.5q0 166 -44.5 244.5t-133.5 78.5q-88 0 -132.5 -79t-44.5 -244t44.5 -243.5t132.5 -78.5q89 0 133.5 78.5zM454 816
q4 -14 4 -22q0 -6 -4 -22h-257q-4 11 -4 22q0 13 4 22h257z" />
    <glyph glyph-name="omacron" unicode="&#x14d;" horiz-adv-x="547" 
d="M104.5 57.5q-60.5 70.5 -60.5 196.5t60.5 196.5t168.5 70.5q109 0 169.5 -70.5t60.5 -196.5t-60.5 -196.5t-169.5 -70.5q-108 0 -168.5 70.5zM380 82.5q37 59.5 37 171.5t-37 171t-107 59t-107 -59t-37 -171t37 -171.5t107 -59.5t107 59.5zM402 643q4 -14 4 -21
q0 -8 -4 -22h-257q-4 9 -4 22q0 12 4 21h257z" />
    <glyph glyph-name="Ohungarumlaut" unicode="&#x150;" horiz-adv-x="651" 
d="M127 77q-68 90 -68 269q0 180 68 270t198 90q131 0 199 -90t68 -270t-68 -269.5t-199 -89.5q-130 0 -198 90zM458.5 102.5q44.5 78.5 44.5 243.5q0 166 -44.5 244.5t-133.5 78.5q-88 0 -132.5 -79t-44.5 -244t44.5 -243.5t132.5 -78.5q89 0 133.5 78.5zM254 731
q-5 1 -12.5 8t-9.5 11l104 139q16 -3 35.5 -15t30.5 -27zM384 729q-5 1 -12 8t-9 11l105 138q16 -2 35.5 -14t29.5 -27z" />
    <glyph glyph-name="ohungarumlaut" unicode="&#x151;" horiz-adv-x="547" 
d="M104.5 57.5q-60.5 70.5 -60.5 196.5t60.5 196.5t168.5 70.5q109 0 169.5 -70.5t60.5 -196.5t-60.5 -196.5t-169.5 -70.5q-108 0 -168.5 70.5zM380 82.5q37 59.5 37 171.5t-37 171t-107 59t-107 -59t-37 -171t37 -171.5t107 -59.5t107 59.5zM195 544q-6 1 -14 7.5
t-10 10.5l116 164q17 -2 34 -10.5t28 -22.5zM339 544q-6 2 -13 8t-11 10l116 164q16 -2 33 -10.5t29 -21.5z" />
    <glyph glyph-name="OE" unicode="&#x152;" horiz-adv-x="893" 
d="M831.5 56.5q4.5 -11.5 4.5 -24.5q0 -14 -5 -23t-15 -9h-317q-20 0 -32.5 10.5t-13.5 30.5q-45 -54 -128 -54q-130 0 -198 90t-68 269q0 180 68 270t198 90q71 0 115 -36l-1 2q13 12 27.5 16.5t40.5 4.5h303q14 0 14 -22q0 -15 -6.5 -30t-16.5 -19q-141 25 -270 26l1 -260
h245q3 -12 3 -23q0 -13 -3 -25h-245l1 -296q125 1 287 28q7 -4 11.5 -15.5zM453 120l-1 449v1q-18 53 -49 76t-78 23q-88 0 -132.5 -79t-44.5 -244t44.5 -243.5t132.5 -78.5q90 0 128 96z" />
    <glyph glyph-name="oe" unicode="&#x153;" horiz-adv-x="884" 
d="M104.5 57.5q-60.5 70.5 -60.5 196.5t60.5 196.5t168.5 70.5q65 0 114.5 -31.5t73.5 -87.5q24 56 74.5 87.5t120.5 31.5q82 0 132 -37.5t50 -106.5q0 -74 -60 -113t-167 -39q-48 0 -108 7q5 -101 50 -145.5t117 -44.5q55 0 95.5 22.5t55.5 64.5q15 -6 15 -22q0 -11 -7 -28
q-19 -44 -66 -68t-112 -24q-67 0 -117 30t-73 85q-25 -55 -73.5 -85t-114.5 -30q-108 0 -168.5 70.5zM587 261q78 0 122.5 31.5t44.5 94.5q0 53 -29 75.5t-72 22.5q-68 0 -109 -57.5t-41 -159.5q47 -7 84 -7zM380 82.5q37 59.5 37 171.5t-37 171t-107 59t-107 -59t-37 -171
t37 -171.5t107 -59.5t107 59.5z" />
    <glyph glyph-name="Racute" unicode="&#x154;" horiz-adv-x="599" 
d="M584 40q0 -24 -20 -37.5t-40 -13.5q-37 0 -58.5 23.5t-42.5 75.5l-46 118q-14 34 -25.5 53t-35.5 32.5t-65 13.5l-74 1v-195q0 -24 3 -55t10 -49q-7 -7 -19 -12.5t-27 -5.5q-21 0 -34 12t-14 32v544q0 24 -3 55.5t-10 51.5q42 22 147 22q143 0 211 -44.5t68 -144.5
q0 -72 -41.5 -122t-111.5 -68q35 -10 56.5 -35.5t39.5 -65.5l50 -118q12 -29 23 -41.5t24 -13.5q18 0 29 13q6 -12 6 -26zM255 341q73 2 119.5 48t46.5 121q0 82 -44.5 121t-142.5 39q-39 0 -57 -3v-325zM252 736q-5 2 -10.5 10.5t-5.5 13.5l136 114q15 -7 30.5 -23.5
t22.5 -32.5z" />
    <glyph glyph-name="racute" unicode="&#x155;" horiz-adv-x="441" 
d="M379.5 493.5q31.5 -27.5 31.5 -76.5q0 -33 -19 -54.5t-45 -21.5q-22 0 -30 10q11 17 15 31.5t4 32.5q0 62 -58 62q-45 0 -75.5 -57.5t-30.5 -178.5v-54q0 -90 2 -122t11 -56q-21 -18 -47 -18q-20 0 -33 12.5t-13 34.5v368q0 28 -6.5 40t-21.5 12q-19 0 -26 -16
q-12 17 -12 32q0 21 16 33.5t44 12.5q39 0 58.5 -27.5t18.5 -81.5v-5q17 57 51 86t82 29q52 0 83.5 -27.5zM205 563q-10 0 -21.5 2t-14.5 5l91 150q18 1 44 -5.5t35 -13.5z" />
    <glyph glyph-name="Rcommaaccent" unicode="&#x156;" horiz-adv-x="599" 
d="M584 40q0 -24 -20 -37.5t-40 -13.5q-37 0 -58.5 23.5t-42.5 75.5l-46 118q-14 34 -25.5 53t-35.5 32.5t-65 13.5l-74 1v-195q0 -24 3 -55t10 -49q-7 -7 -19 -12.5t-27 -5.5q-21 0 -34 12t-14 32v544q0 24 -3 55.5t-10 51.5q42 22 147 22q143 0 211 -44.5t68 -144.5
q0 -72 -41.5 -122t-111.5 -68q35 -10 56.5 -35.5t39.5 -65.5l50 -118q12 -29 23 -41.5t24 -13.5q18 0 29 13q6 -12 6 -26zM255 341q73 2 119.5 48t46.5 121q0 82 -44.5 121t-142.5 39q-39 0 -57 -3v-325zM277 -210q31 36 31 67q0 26 -13 37.5t-33 17.5q0 20 15.5 37t40.5 17
q24 0 40.5 -16.5t16.5 -52.5q0 -66 -68 -125q-17 4 -30 18z" />
    <glyph glyph-name="rcommaaccent" unicode="&#x157;" horiz-adv-x="441" 
d="M379.5 493.5q31.5 -27.5 31.5 -76.5q0 -33 -19 -54.5t-45 -21.5q-22 0 -30 10q11 17 15 31.5t4 32.5q0 62 -58 62q-45 0 -75.5 -57.5t-30.5 -178.5v-54q0 -90 2 -122t11 -56q-21 -18 -47 -18q-20 0 -33 12.5t-13 34.5v368q0 28 -6.5 40t-21.5 12q-19 0 -26 -16
q-12 17 -12 32q0 21 16 33.5t44 12.5q39 0 58.5 -27.5t18.5 -81.5v-5q17 57 51 86t82 29q52 0 83.5 -27.5zM102 -210q31 36 31 67q0 26 -13 37.5t-33 17.5q0 20 15.5 37t40.5 17q24 0 40.5 -16.5t16.5 -52.5q0 -66 -68 -125q-17 4 -30 18z" />
    <glyph glyph-name="Rcaron" unicode="&#x158;" horiz-adv-x="599" 
d="M584 40q0 -24 -20 -37.5t-40 -13.5q-37 0 -58.5 23.5t-42.5 75.5l-46 118q-14 34 -25.5 53t-35.5 32.5t-65 13.5l-74 1v-195q0 -24 3 -55t10 -49q-7 -7 -19 -12.5t-27 -5.5q-21 0 -34 12t-14 32v544q0 24 -3 55.5t-10 51.5q42 22 147 22q143 0 211 -44.5t68 -144.5
q0 -72 -41.5 -122t-111.5 -68q35 -10 56.5 -35.5t39.5 -65.5l50 -118q12 -29 23 -41.5t24 -13.5q18 0 29 13q6 -12 6 -26zM255 341q73 2 119.5 48t46.5 121q0 82 -44.5 121t-142.5 39q-39 0 -57 -3v-325zM277 738q-16 0 -25 3l-126 114q2 5 8.5 12.5t11.5 9.5l132 -78
l131 78q5 -2 11.5 -9.5t8.5 -12.5l-126 -114q-9 -3 -26 -3z" />
    <glyph glyph-name="rcaron" unicode="&#x159;" horiz-adv-x="441" 
d="M379.5 493.5q31.5 -27.5 31.5 -76.5q0 -33 -19 -54.5t-45 -21.5q-22 0 -30 10q11 17 15 31.5t4 32.5q0 62 -58 62q-45 0 -75.5 -57.5t-30.5 -178.5v-54q0 -90 2 -122t11 -56q-21 -18 -47 -18q-20 0 -33 12.5t-13 34.5v368q0 28 -6.5 40t-21.5 12q-19 0 -26 -16
q-12 17 -12 32q0 21 16 33.5t44 12.5q39 0 58.5 -27.5t18.5 -81.5v-5q17 57 51 86t82 29q52 0 83.5 -27.5zM200 630l113 87q6 0 17.5 -3.5t14.5 -7.5l-120 -138q-12 -2 -26 -2q-13 0 -25 2l-120 138q2 4 13.5 7.5t18.5 3.5z" />
    <glyph glyph-name="Sacute" unicode="&#x15a;" horiz-adv-x="555" 
d="M107.5 28.5q-56.5 41.5 -56.5 106.5q0 58 56 58q11 0 18 -1q-5 -15 -3 -42q3 -58 45.5 -92t115.5 -34q66 0 105.5 31t39.5 91q0 39 -17.5 67t-50 52t-92.5 57q-68 38 -107 66.5t-62 65.5t-23 88q0 82 60 123t152 41q90 0 144.5 -33t54.5 -91q0 -42 -40 -46q-8 -2 -13 -2
q-6 0 -18 2q3 11 3 20q0 12 -3 22q-4 43 -41 67t-95 24q-53 0 -90.5 -24t-37.5 -78q0 -38 19 -66.5t51 -50.5t91 -55q63 -34 104 -64t66 -70t25 -93q0 -48 -23.5 -89t-75.5 -66.5t-134 -25.5q-111 0 -167.5 41.5zM253 736q-5 2 -10.5 10.5t-5.5 13.5l136 114
q15 -7 30.5 -23.5t22.5 -32.5z" />
    <glyph glyph-name="sacute" unicode="&#x15b;" horiz-adv-x="468" 
d="M84.5 20.5q-46.5 33.5 -46.5 87.5q0 25 12 40.5t38 15.5q10 0 16 -1q-3 -12 -3 -24q0 -11 1 -18q2 -44 36.5 -70t92.5 -26q57 0 91 20t34 59q0 36 -26 57t-82 46l-32 15q-56 26 -85.5 44t-51 49t-21.5 78q0 65 51 97t129 32q82 0 128 -26.5t46 -73.5q0 -42 -37 -46
q-10 -2 -13 -2q-6 0 -16 2q2 12 2 20q0 13 -3 22q-4 33 -32.5 50t-77.5 17q-45 0 -74 -16.5t-29 -52.5q0 -30 17 -51.5t40.5 -35t71.5 -36.5l22 -10q49 -23 78.5 -40.5t50 -45.5t20.5 -67q0 -59 -49 -101t-159 -42q-93 0 -139.5 33.5zM239 563q-10 0 -21.5 2t-14.5 5l91 150
q18 1 44 -5.5t35 -13.5z" />
    <glyph glyph-name="Scircumflex" unicode="&#x15c;" horiz-adv-x="555" 
d="M107.5 28.5q-56.5 41.5 -56.5 106.5q0 58 56 58q11 0 18 -1q-5 -15 -3 -42q3 -58 45.5 -92t115.5 -34q66 0 105.5 31t39.5 91q0 39 -17.5 67t-50 52t-92.5 57q-68 38 -107 66.5t-62 65.5t-23 88q0 82 60 123t152 41q90 0 144.5 -33t54.5 -91q0 -42 -40 -46q-8 -2 -13 -2
q-6 0 -18 2q3 11 3 20q0 12 -3 22q-4 43 -41 67t-95 24q-53 0 -90.5 -24t-37.5 -78q0 -38 19 -66.5t51 -50.5t91 -55q63 -34 104 -64t66 -70t25 -93q0 -48 -23.5 -89t-75.5 -66.5t-134 -25.5q-111 0 -167.5 41.5zM429 754q-2 -5 -8 -12.5t-12 -9.5l-131 78l-132 -78
q-5 2 -11.5 9.5t-8.5 12.5l126 114q9 3 25 3q17 0 26 -3z" />
    <glyph glyph-name="scircumflex" unicode="&#x15d;" horiz-adv-x="468" 
d="M84.5 20.5q-46.5 33.5 -46.5 87.5q0 25 12 40.5t38 15.5q10 0 16 -1q-3 -12 -3 -24q0 -11 1 -18q2 -44 36.5 -70t92.5 -26q57 0 91 20t34 59q0 36 -26 57t-82 46l-32 15q-56 26 -85.5 44t-51 49t-21.5 78q0 65 51 97t129 32q82 0 128 -26.5t46 -73.5q0 -42 -37 -46
q-10 -2 -13 -2q-6 0 -16 2q2 12 2 20q0 13 -3 22q-4 33 -32.5 50t-77.5 17q-45 0 -74 -16.5t-29 -52.5q0 -30 17 -51.5t40.5 -35t71.5 -36.5l22 -10q49 -23 78.5 -40.5t50 -45.5t20.5 -67q0 -59 -49 -101t-159 -42q-93 0 -139.5 33.5zM99.5 565.5q-11.5 3.5 -13.5 7.5
l120 137q9 3 25 3q17 0 26 -3l120 -137q-3 -4 -14 -7.5t-18 -3.5l-113 87l-114 -87q-7 0 -18.5 3.5z" />
    <glyph glyph-name="Scedilla" unicode="&#x15e;" horiz-adv-x="555" 
d="M456 43.5q-52 -51.5 -162 -56.5l-7 -35q45 0 70 -19.5t25 -53.5q0 -38 -28.5 -62t-75.5 -24q-60 0 -88 32v4q0 7 3.5 15.5t8.5 11.5q2 -1 9.5 -7.5t21 -11t29.5 -4.5q23 0 36.5 12t13.5 33q0 20 -14 33t-44 13l-14 -1l12 65q-100 4 -150.5 45t-50.5 102q0 58 56 58
q11 0 18 -1q-5 -15 -3 -42q3 -58 45.5 -92t115.5 -34q66 0 105.5 31t39.5 91q0 39 -17.5 67t-50 52t-92.5 57q-68 38 -107 66.5t-62 65.5t-23 88q0 82 60 123t152 41q90 0 144.5 -33t54.5 -91q0 -42 -40 -46q-8 -2 -13 -2q-6 0 -18 2q3 11 3 20q0 12 -3 22q-4 43 -41 67
t-95 24q-53 0 -90.5 -24t-37.5 -78q0 -38 19 -66.5t51 -50.5t91 -55q63 -34 104 -64t66 -70t25 -93q0 -73 -52 -124.5z" />
    <glyph glyph-name="scedilla" unicode="&#x15f;" horiz-adv-x="468" 
d="M389 34.5q-43 -40.5 -139 -46.5l-7 -36q45 0 70 -19.5t25 -53.5q0 -38 -28.5 -62t-75.5 -24q-60 0 -88 32v4q0 7 3.5 15.5t8.5 11.5q2 -1 9.5 -7.5t21 -11t29.5 -4.5q23 0 36.5 12t13.5 33q0 20 -14 33t-44 13l-14 -1l12 64q-85 4 -127.5 37t-42.5 84q0 25 12 40.5
t38 15.5q10 0 16 -1q-3 -12 -3 -24q0 -11 1 -18q2 -44 36.5 -70t92.5 -26q57 0 91 20t34 59q0 36 -26 57t-82 46l-32 15q-56 26 -85.5 44t-51 49t-21.5 78q0 65 51 97t129 32q82 0 128 -26.5t46 -73.5q0 -42 -37 -46q-10 -2 -13 -2q-6 0 -16 2q2 12 2 20q0 13 -3 22
q-4 33 -32.5 50t-77.5 17q-45 0 -74 -16.5t-29 -52.5q0 -30 17 -51.5t40.5 -35t71.5 -36.5l22 -10q49 -23 78.5 -40.5t50 -45.5t20.5 -67q0 -55 -43 -95.5z" />
    <glyph glyph-name="Scaron" unicode="&#x160;" horiz-adv-x="555" 
d="M107.5 28.5q-56.5 41.5 -56.5 106.5q0 58 56 58q11 0 18 -1q-5 -15 -3 -42q3 -58 45.5 -92t115.5 -34q66 0 105.5 31t39.5 91q0 39 -17.5 67t-50 52t-92.5 57q-68 38 -107 66.5t-62 65.5t-23 88q0 82 60 123t152 41q90 0 144.5 -33t54.5 -91q0 -42 -40 -46q-8 -2 -13 -2
q-6 0 -18 2q3 11 3 20q0 12 -3 22q-4 43 -41 67t-95 24q-53 0 -90.5 -24t-37.5 -78q0 -38 19 -66.5t51 -50.5t91 -55q63 -34 104 -64t66 -70t25 -93q0 -48 -23.5 -89t-75.5 -66.5t-134 -25.5q-111 0 -167.5 41.5zM279 738q-16 0 -25 3l-126 114q2 5 8.5 12.5t11.5 9.5
l132 -78l131 78q5 -2 11.5 -9.5t8.5 -12.5l-126 -114q-9 -3 -26 -3z" />
    <glyph glyph-name="scaron" unicode="&#x161;" horiz-adv-x="468" 
d="M84.5 20.5q-46.5 33.5 -46.5 87.5q0 25 12 40.5t38 15.5q10 0 16 -1q-3 -12 -3 -24q0 -11 1 -18q2 -44 36.5 -70t92.5 -26q57 0 91 20t34 59q0 36 -26 57t-82 46l-32 15q-56 26 -85.5 44t-51 49t-21.5 78q0 65 51 97t129 32q82 0 128 -26.5t46 -73.5q0 -42 -37 -46
q-10 -2 -13 -2q-6 0 -16 2q2 12 2 20q0 13 -3 22q-4 33 -32.5 50t-77.5 17q-45 0 -74 -16.5t-29 -52.5q0 -30 17 -51.5t40.5 -35t71.5 -36.5l22 -10q49 -23 78.5 -40.5t50 -45.5t20.5 -67q0 -59 -49 -101t-159 -42q-93 0 -139.5 33.5zM234 630l113 87q6 0 17.5 -3.5
t14.5 -7.5l-120 -138q-12 -2 -26 -2q-13 0 -25 2l-120 138q2 4 13.5 7.5t18.5 3.5z" />
    <glyph glyph-name="uni0162" unicode="&#x162;" horiz-adv-x="528" 
d="M512 671q0 -15 -6.5 -30t-16.5 -19l-26 6q-104 23 -159 27l1 -541q0 -73 13 -107q-14 -11 -25 -14l-8 -41q45 0 70 -19.5t25 -53.5q0 -38 -28.5 -62t-75.5 -24q-60 0 -88 32v4q0 7 3.5 15.5t8.5 11.5q2 -1 9.5 -7.5t21 -11t29.5 -4.5q23 0 36.5 12t13.5 33q0 20 -14 33
t-44 13l-14 -1l13 70q-26 10 -26 40l-1 622q-36 -3 -71.5 -9.5t-90.5 -18.5l-22 -5q-10 4 -16.5 19t-6.5 30q0 22 14 22h467q14 0 14 -22z" />
    <glyph glyph-name="uni0163" unicode="&#x163;" horiz-adv-x="339" 
d="M175 427v-322q0 -26 12 -40t36 -14q15 0 28.5 5.5t18.5 15.5q11 -15 11 -32q0 -21 -21 -35t-55 -16l-7 -37q45 0 70 -19.5t25 -53.5q0 -38 -28.5 -62t-75.5 -24q-60 0 -88 32v4q0 7 3.5 15.5t8.5 11.5q2 -1 9.5 -7.5t21 -11t29.5 -4.5q23 0 36.5 12t13.5 33q0 20 -14 33
t-44 13l-14 -1l13 70q-33 9 -51 36.5t-18 70.5v365h-14q-41 0 -60 -3l1 23q1 22 22 22h51v89q0 21 13 32.5t34 11.5q25 0 46 -18q-11 -34 -12 -115h40q16 0 42.5 1t42.5 2l-1 -22q-1 -10 -7 -16.5t-15 -6.5h-103v-38z" />
    <glyph glyph-name="Tcaron" unicode="&#x164;" horiz-adv-x="528" 
d="M512 671q0 -15 -6.5 -30t-16.5 -19l-26 6q-104 23 -159 27l1 -541q0 -73 13 -107q-21 -18 -47 -18q-20 0 -33 12t-13 32l-1 622q-36 -3 -71.5 -9.5t-90.5 -18.5l-22 -5q-10 4 -16.5 19t-6.5 30q0 22 14 22h467q14 0 14 -22zM264 738q-16 0 -25 3l-126 114q2 5 8.5 12.5
t11.5 9.5l132 -78l131 78q5 -2 11.5 -9.5t8.5 -12.5l-126 -114q-9 -3 -26 -3z" />
    <glyph glyph-name="tcaron" unicode="&#x165;" horiz-adv-x="362" 
d="M241 599q0 60 -14 109q18 6 37 6q22 0 38 -6q1 -73 -25 -150h-38q2 26 2 41zM216 507q16 0 42.5 1t42.5 2l-1 -22q-1 -10 -7 -16.5t-15 -6.5h-103v-38v-322q0 -26 12 -40t36 -14q15 0 28.5 5.5t18.5 15.5q11 -15 11 -32q0 -23 -24 -37t-61 -14q-47 0 -74 29.5t-27 81.5
v365h-14q-41 0 -60 -3l1 23q1 22 22 22h51v89q0 21 13 32.5t34 11.5q25 0 46 -18q-11 -34 -12 -115h40z" />
    <glyph glyph-name="Utilde" unicode="&#x168;" horiz-adv-x="658" 
d="M573 305q0 -158 -62 -238t-183 -80q-119 0 -178 77.5t-59 240.5v272q0 72 -12 107q21 18 46 18q21 0 33.5 -11.5t12.5 -32.5v-356q0 -144 38 -211t119 -67q83 0 124.5 70.5t41.5 207.5v275q0 69 -13 107q21 18 46 18q20 0 33 -12t13 -32v-353zM443 775q-21 -22 -53 -22
q-17 0 -32.5 5.5t-35.5 16.5q-19 10 -32 15t-27 5q-43 0 -58 -41h-2q-12 0 -22 10q6 43 29.5 63t56.5 20q17 0 31 -5t37 -16q21 -10 34 -15t29 -5q20 0 30 8.5t20 27.5q16 0 24 -8q-8 -37 -29 -59z" />
    <glyph glyph-name="utilde" unicode="&#x169;" horiz-adv-x="566" 
d="M541 36q0 -21 -16 -33.5t-44 -12.5q-78 0 -78 102v20q-21 -59 -65 -92t-103 -33q-82 0 -119 48t-38 162v198q0 69 -13 108q22 18 47 18q20 0 32.5 -12t12.5 -33l1 -269q0 -65 9.5 -103t31 -55.5t59.5 -17.5q34 0 65.5 24.5t52 78t20.5 135.5q0 129 -2 168t-12 66
q21 18 46 18q20 0 33 -13t13 -35l1 -370q0 -28 6.5 -39.5t21.5 -11.5q18 0 26 15q12 -16 12 -31zM382 604.5q-21 -23.5 -53 -23.5q-17 0 -30.5 6t-33.5 19q-17 11 -30 17t-28 6q-22 0 -37.5 -11.5t-22.5 -31.5h-2q-12 0 -21 9q6 43 30.5 64t56.5 21q18 0 32.5 -6.5
t32.5 -18.5q20 -12 32 -17.5t28 -5.5q21 0 31.5 11t19.5 33q13 0 22 -9q-6 -39 -27 -62.5z" />
    <glyph glyph-name="Umacron" unicode="&#x16a;" horiz-adv-x="658" 
d="M573 305q0 -158 -62 -238t-183 -80q-119 0 -178 77.5t-59 240.5v272q0 72 -12 107q21 18 46 18q21 0 33.5 -11.5t12.5 -32.5v-356q0 -144 38 -211t119 -67q83 0 124.5 70.5t41.5 207.5v275q0 69 -13 107q21 18 46 18q20 0 33 -12t13 -32v-353zM457 816q4 -14 4 -22
q0 -6 -4 -22h-257q-4 11 -4 22q0 13 4 22h257z" />
    <glyph glyph-name="umacron" unicode="&#x16b;" horiz-adv-x="566" 
d="M541 36q0 -21 -16 -33.5t-44 -12.5q-78 0 -78 102v20q-21 -59 -65 -92t-103 -33q-82 0 -119 48t-38 162v198q0 69 -13 108q22 18 47 18q20 0 32.5 -12t12.5 -33l1 -269q0 -65 9.5 -103t31 -55.5t59.5 -17.5q34 0 65.5 24.5t52 78t20.5 135.5q0 129 -2 168t-12 66
q21 18 46 18q20 0 33 -13t13 -35l1 -370q0 -28 6.5 -39.5t21.5 -11.5q18 0 26 15q12 -16 12 -31zM397 643q4 -14 4 -21q0 -8 -4 -22h-257q-4 9 -4 22q0 12 4 21h257z" />
    <glyph glyph-name="Ubreve" unicode="&#x16c;" horiz-adv-x="658" 
d="M573 305q0 -158 -62 -238t-183 -80q-119 0 -178 77.5t-59 240.5v272q0 72 -12 107q21 18 46 18q21 0 33.5 -11.5t12.5 -32.5v-356q0 -144 38 -211t119 -67q83 0 124.5 70.5t41.5 207.5v275q0 69 -13 107q21 18 46 18q20 0 33 -12t13 -32v-353zM411.5 766
q-33.5 -29 -84.5 -29q-52 0 -83.5 29t-45.5 74l34 13q12 -32 38 -49t62 -17t60.5 17.5t36.5 47.5l31 -9q-15 -48 -48.5 -77z" />
    <glyph glyph-name="ubreve" unicode="&#x16d;" horiz-adv-x="566" 
d="M541 36q0 -21 -16 -33.5t-44 -12.5q-78 0 -78 102v20q-21 -59 -65 -92t-103 -33q-82 0 -119 48t-38 162v198q0 69 -13 108q22 18 47 18q20 0 32.5 -12t12.5 -33l1 -269q0 -65 9.5 -103t31 -55.5t59.5 -17.5q34 0 65.5 24.5t52 78t20.5 135.5q0 129 -2 168t-12 66
q21 18 46 18q20 0 33 -13t13 -35l1 -370q0 -28 6.5 -39.5t21.5 -11.5q18 0 26 15q12 -16 12 -31zM338.5 647.5q26.5 22.5 40.5 55.5q19 -3 32 -10q-15 -55 -50.5 -90t-92.5 -35q-63 0 -98.5 36.5t-47.5 86.5q13 10 33 13q13 -34 42.5 -56.5t72.5 -22.5q42 0 68.5 22.5z" />
    <glyph glyph-name="Uring" unicode="&#x16e;" horiz-adv-x="658" 
d="M573 305q0 -158 -62 -238t-183 -80q-119 0 -178 77.5t-59 240.5v272q0 72 -12 107q21 18 46 18q21 0 33.5 -11.5t12.5 -32.5v-356q0 -144 38 -211t119 -67q83 0 124.5 70.5t41.5 207.5v275q0 69 -13 107q21 18 46 18q20 0 33 -12t13 -32v-353zM397.5 884
q24.5 -22 24.5 -59q-1 -39 -26 -61.5t-67 -22.5q-40 0 -64.5 21.5t-24.5 58.5q0 39 25.5 62t67.5 23q40 0 64.5 -22zM296.5 862.5q-12.5 -14.5 -12.5 -39.5t12.5 -39.5t34.5 -14.5t34.5 14.5t12.5 39.5t-12.5 39.5t-34.5 14.5t-34.5 -14.5z" />
    <glyph glyph-name="uring" unicode="&#x16f;" horiz-adv-x="566" 
d="M541 36q0 -21 -16 -33.5t-44 -12.5q-78 0 -78 102v20q-21 -59 -65 -92t-103 -33q-82 0 -119 48t-38 162v198q0 69 -13 108q22 18 47 18q20 0 32.5 -12t12.5 -33l1 -269q0 -65 9.5 -103t31 -55.5t59.5 -17.5q34 0 65.5 24.5t52 78t20.5 135.5q0 129 -2 168t-12 66
q21 18 46 18q20 0 33 -13t13 -35l1 -370q0 -28 6.5 -39.5t21.5 -11.5q18 0 26 15q12 -16 12 -31zM337.5 699q24.5 -22 24.5 -59q-1 -39 -26 -61.5t-67 -22.5q-40 0 -64.5 21.5t-24.5 58.5q0 39 25.5 62t67.5 23q40 0 64.5 -22zM236.5 677.5q-12.5 -14.5 -12.5 -39.5
t12.5 -39.5t34.5 -14.5t34.5 14.5t12.5 39.5t-12.5 39.5t-34.5 14.5t-34.5 -14.5z" />
    <glyph glyph-name="Uhungarumlaut" unicode="&#x170;" horiz-adv-x="658" 
d="M573 305q0 -158 -62 -238t-183 -80q-119 0 -178 77.5t-59 240.5v272q0 72 -12 107q21 18 46 18q21 0 33.5 -11.5t12.5 -32.5v-356q0 -144 38 -211t119 -67q83 0 124.5 70.5t41.5 207.5v275q0 69 -13 107q21 18 46 18q20 0 33 -12t13 -32v-353zM257 731q-5 1 -12.5 8
t-9.5 11l104 139q16 -3 35.5 -15t30.5 -27zM387 729q-5 1 -12 8t-9 11l105 138q16 -2 35.5 -14t29.5 -27z" />
    <glyph glyph-name="uhungarumlaut" unicode="&#x171;" horiz-adv-x="566" 
d="M541 36q0 -21 -16 -33.5t-44 -12.5q-78 0 -78 102v20q-21 -59 -65 -92t-103 -33q-82 0 -119 48t-38 162v198q0 69 -13 108q22 18 47 18q20 0 32.5 -12t12.5 -33l1 -269q0 -65 9.5 -103t31 -55.5t59.5 -17.5q34 0 65.5 24.5t52 78t20.5 135.5q0 129 -2 168t-12 66
q21 18 46 18q20 0 33 -13t13 -35l1 -370q0 -28 6.5 -39.5t21.5 -11.5q18 0 26 15q12 -16 12 -31zM190 544q-6 1 -14 7.5t-10 10.5l116 164q17 -2 34 -10.5t28 -22.5zM334 544q-6 2 -13 8t-11 10l116 164q16 -2 33 -10.5t29 -21.5z" />
    <glyph glyph-name="Uogonek" unicode="&#x172;" horiz-adv-x="658" 
d="M368.5 -35.5q-19.5 -20.5 -19.5 -49.5q0 -21 12.5 -34.5t37.5 -13.5q29 0 50.5 16t33.5 38q11 -8 11 -18q0 -5 -1 -8q-13 -29 -42.5 -47.5t-68.5 -18.5q-36 0 -63.5 19t-27.5 58q0 48 48 81h-11q-119 0 -178 77.5t-59 240.5v272q0 72 -12 107q21 18 46 18
q21 0 33.5 -11.5t12.5 -32.5v-356q0 -144 38 -211t119 -67q83 0 124.5 70.5t41.5 207.5v275q0 69 -13 107q21 18 46 18q20 0 33 -12t13 -32v-353q0 -244 -146 -301q-39 -19 -58.5 -39.5z" />
    <glyph glyph-name="uogonek" unicode="&#x173;" horiz-adv-x="566" 
d="M585 -101q0 -5 -1 -8q-13 -29 -42.5 -47.5t-68.5 -18.5q-36 0 -63.5 19t-27.5 58q0 58 68 93q-47 20 -47 97v20q-21 -59 -65 -92t-103 -33q-82 0 -119 48t-38 162v198q0 69 -13 108q22 18 47 18q20 0 32.5 -12t12.5 -33l1 -269q0 -65 9.5 -103t31 -55.5t59.5 -17.5
q34 0 65.5 24.5t52 78t20.5 135.5q0 129 -2 168t-12 66q21 18 46 18q20 0 33 -13t13 -35l1 -370q0 -28 6.5 -39.5t21.5 -11.5q18 0 26 15q12 -16 12 -31q0 -16 -9.5 -27.5t-27.5 -15.5q-32 -17 -48 -36.5t-16 -45.5q0 -21 12.5 -34.5t37.5 -13.5q29 0 50.5 16t33.5 38
q11 -8 11 -18z" />
    <glyph glyph-name="Wcircumflex" unicode="&#x174;" horiz-adv-x="922" 
d="M898 668q0 -9 -4 -25t-5 -21l-174 -620q-27 -13 -55 -13q-20 0 -33 6.5t-17 19.5l-144 509l-150 -522q-27 -13 -53 -13q-47 0 -53 26l-166 626q-7 25 -24 46q19 19 49 19q21 0 34.5 -8t17.5 -24l152 -616l146 515q3 12 3 22q0 15 -6 27q12 6 28 9.5t28 3.5
q15 0 25.5 -4.5t14.5 -13.5l159 -558l138 582q1 5 3.5 15t2.5 17q0 15 -6 24q21 7 42 7q48 0 47 -36zM615 754q-2 -5 -8 -12.5t-12 -9.5l-131 78l-132 -78q-5 2 -11.5 9.5t-8.5 12.5l126 114q9 3 25 3q17 0 26 -3z" />
    <glyph glyph-name="wcircumflex" unicode="&#x175;" horiz-adv-x="781" 
d="M175 19l-135 430q-2 4 -8.5 20.5t-15.5 25.5q19 19 47 19q19 0 31.5 -8.5t16.5 -24.5l123 -435l105 405q5 23 5 32q0 13 -5 23q23 10 54 10q41 0 51 -26l117 -444l112 405q5 25 5 32q0 13 -5 23q19 8 40 8q47 0 46 -37q0 -22 -9 -45l-145 -430q-27 -13 -54 -13
q-17 0 -30.5 7.5t-17.5 22.5l-110 412l-113 -429q-27 -13 -59 -13q-35 0 -46 30zM255.5 565.5q-11.5 3.5 -13.5 7.5l120 137q9 3 25 3q17 0 26 -3l120 -137q-3 -4 -14 -7.5t-18 -3.5l-113 87l-114 -87q-7 0 -18.5 3.5z" />
    <glyph glyph-name="Ycircumflex" unicode="&#x176;" horiz-adv-x="553" 
d="M317 249v-135q0 -69 13 -107q-7 -7 -19 -12.5t-27 -5.5q-21 0 -33.5 12t-12.5 32l-1 216q-8 12 -11 18l-179 364q-10 21 -34 47q9 10 24 18t34 8q21 0 33 -11t22 -33l164 -353l155 329q10 23 10 35q0 15 -7 25q18 8 44 8q19 0 29 -11t11 -28q0 -19 -20 -52zM443 754
q-2 -5 -8 -12.5t-12 -9.5l-131 78l-132 -78q-5 2 -11.5 9.5t-8.5 12.5l126 114q9 3 25 3q17 0 26 -3z" />
    <glyph glyph-name="ycircumflex" unicode="&#x177;" horiz-adv-x="547" 
d="M475 49q0 -282 -235 -282q-72 0 -121.5 26t-49.5 82q0 28 16.5 47t43.5 19t39 -15q-13 -8 -19 -21.5t-6 -25.5q0 -39 28.5 -58.5t68.5 -19.5q82 0 121 62t39 185q0 33 3 72q-21 -61 -65 -95t-108 -34q-77 0 -114 48.5t-38 161.5v194q0 69 -13 108q22 18 47 18
q20 0 32.5 -12t12.5 -33l1 -265q0 -92 21.5 -133.5t71.5 -41.5q61 0 103 58.5t42 179.5q0 126 -2 164t-12 65q21 18 46 18q20 0 33 -13t13 -35zM143.5 565.5q-11.5 3.5 -13.5 7.5l120 137q9 3 25 3q17 0 26 -3l120 -137q-3 -4 -14 -7.5t-18 -3.5l-113 87l-114 -87
q-7 0 -18.5 3.5z" />
    <glyph glyph-name="Ydieresis" unicode="&#x178;" horiz-adv-x="553" 
d="M317 249v-135q0 -69 13 -107q-7 -7 -19 -12.5t-27 -5.5q-21 0 -33.5 12t-12.5 32l-1 216q-8 12 -11 18l-179 364q-10 21 -34 47q9 10 24 18t34 8q21 0 33 -11t22 -33l164 -353l155 329q10 23 10 35q0 15 -7 25q18 8 44 8q19 0 29 -11t11 -28q0 -19 -20 -52zM166.5 773
q-14.5 15 -14.5 36t14.5 36t36.5 15q20 0 35.5 -15t15.5 -36t-15.5 -36t-35.5 -15q-22 0 -36.5 15zM352 773q-15 15 -15 36t15 36t36 15t36 -15t15 -36t-15 -36t-36 -15t-36 15z" />
    <glyph glyph-name="Zacute" unicode="&#x179;" horiz-adv-x="573" 
d="M528.5 163q16.5 -28 16.5 -60q0 -47 -35.5 -76t-104.5 -28l-234 3q-62 2 -108 -8l-15 23q0 21 6 38.5t20 35.5l370 540l-244 -8q-43 -1 -64 -18t-21 -47q0 -15 6 -26t18 -23l-9 -1q-13 0 -31 7q-21 5 -35 29t-14 52q0 44 36.5 72t106.5 27l187 -4q51 0 77.5 1.5t44.5 6.5
l17 -24q0 -24 -5.5 -41.5t-18.5 -35.5l-373 -535l260 7q46 1 69 16.5t27 39.5q2 12 2 18q0 30 -22 54l13 1q3 0 13 -2q28 -6 44.5 -34zM264 736q-5 2 -10.5 10.5t-5.5 13.5l136 114q15 -7 30.5 -23.5t22.5 -32.5z" />
    <glyph glyph-name="zacute" unicode="&#x17a;" horiz-adv-x="490" 
d="M452.5 139q12.5 -24 12.5 -48q0 -42 -33 -68.5t-90 -25.5l-200 3q-65 0 -94 -7l-12 19q0 35 21 59l309 380l-198 -8q-28 -1 -44.5 -12.5t-21.5 -28.5q-3 -9 -3 -17q0 -17 11 -31q-3 -1 -12 -1q-8 0 -12 1q-25 7 -38.5 28.5t-13.5 43.5q0 38 32 62.5t93 23.5l174 -4
q39 0 59 1t34 6l11 -20q0 -22 -4 -36.5t-17 -30.5l-294 -364l201 4q41 1 60 20t19 47q0 23 -13 36h8q12 0 17 -1q26 -7 38.5 -31zM250 564q-10 0 -21.5 2t-14.5 5l91 150q18 1 44 -5.5t35 -13.5z" />
    <glyph glyph-name="Zdotaccent" unicode="&#x17b;" horiz-adv-x="573" 
d="M528.5 163q16.5 -28 16.5 -60q0 -47 -35.5 -76t-104.5 -28l-234 3q-62 2 -108 -8l-15 23q0 21 6 38.5t20 35.5l370 540l-244 -8q-43 -1 -64 -18t-21 -47q0 -15 6 -26t18 -23l-9 -1q-13 0 -31 7q-21 5 -35 29t-14 52q0 44 36.5 72t106.5 27l187 -4q51 0 77.5 1.5t44.5 6.5
l17 -24q0 -24 -5.5 -41.5t-18.5 -35.5l-373 -535l260 7q46 1 69 16.5t27 39.5q2 12 2 18q0 30 -22 54l13 1q3 0 13 -2q28 -6 44.5 -34zM254.5 768q-15.5 15 -15.5 36t15.5 36t35.5 15q21 0 36.5 -15t15.5 -36t-15.5 -36t-36.5 -15q-20 0 -35.5 15z" />
    <glyph glyph-name="zdotaccent" unicode="&#x17c;" horiz-adv-x="490" 
d="M452.5 139q12.5 -24 12.5 -48q0 -42 -33 -68.5t-90 -25.5l-200 3q-65 0 -94 -7l-12 19q0 35 21 59l309 380l-198 -8q-28 -1 -44.5 -12.5t-21.5 -28.5q-3 -9 -3 -17q0 -17 11 -31q-3 -1 -12 -1q-8 0 -12 1q-25 7 -38.5 28.5t-13.5 43.5q0 38 32 62.5t93 23.5l174 -4
q39 0 59 1t34 6l11 -20q0 -22 -4 -36.5t-17 -30.5l-294 -364l201 4q41 1 60 20t19 47q0 23 -13 36h8q12 0 17 -1q26 -7 38.5 -31zM208 589q-15 15 -15 37q0 20 15 35.5t36 15.5t36 -15.5t15 -35.5q0 -22 -15 -37t-36 -15t-36 15z" />
    <glyph glyph-name="Zcaron" unicode="&#x17d;" horiz-adv-x="573" 
d="M528.5 163q16.5 -28 16.5 -60q0 -47 -35.5 -76t-104.5 -28l-234 3q-62 2 -108 -8l-15 23q0 21 6 38.5t20 35.5l370 540l-244 -8q-43 -1 -64 -18t-21 -47q0 -15 6 -26t18 -23l-9 -1q-13 0 -31 7q-21 5 -35 29t-14 52q0 44 36.5 72t106.5 27l187 -4q51 0 77.5 1.5t44.5 6.5
l17 -24q0 -24 -5.5 -41.5t-18.5 -35.5l-373 -535l260 7q46 1 69 16.5t27 39.5q2 12 2 18q0 30 -22 54l13 1q3 0 13 -2q28 -6 44.5 -34zM289 738q-16 0 -25 3l-126 114q2 5 8.5 12.5t11.5 9.5l132 -78l131 78q5 -2 11.5 -9.5t8.5 -12.5l-126 -114q-9 -3 -26 -3z" />
    <glyph glyph-name="zcaron" unicode="&#x17e;" horiz-adv-x="490" 
d="M452.5 139q12.5 -24 12.5 -48q0 -42 -33 -68.5t-90 -25.5l-200 3q-65 0 -94 -7l-12 19q0 35 21 59l309 380l-198 -8q-28 -1 -44.5 -12.5t-21.5 -28.5q-3 -9 -3 -17q0 -17 11 -31q-3 -1 -12 -1q-8 0 -12 1q-25 7 -38.5 28.5t-13.5 43.5q0 38 32 62.5t93 23.5l174 -4
q39 0 59 1t34 6l11 -20q0 -22 -4 -36.5t-17 -30.5l-294 -364l201 4q41 1 60 20t19 47q0 23 -13 36h8q12 0 17 -1q26 -7 38.5 -31zM246 631l113 87q6 0 17.5 -3.5t14.5 -7.5l-120 -138q-12 -2 -26 -2q-13 0 -25 2l-120 138q2 4 13.5 7.5t18.5 3.5z" />
    <glyph glyph-name="uni018F" unicode="&#x18f;" horiz-adv-x="605" 
d="M479.5 613.5q72.5 -92.5 72.5 -266.5q0 -169 -72 -264.5t-206 -95.5q-100 0 -160.5 49t-60.5 140q0 97 63 149t175 52q106 0 176 -13q-9 287 -209 287q-64 0 -114 -26t-68 -74q-15 6 -15 23q0 12 7 27q22 50 78.5 77.5t130.5 27.5q130 0 202.5 -92.5zM414.5 102
q51.5 80 52.5 228q-72 10 -133 10q-86 0 -141 -42t-55 -134q0 -76 40 -109t99 -33q86 0 137.5 80z" />
    <glyph glyph-name="florin" unicode="&#x192;" horiz-adv-x="382" 
d="M374.5 720q34.5 -21 34.5 -59q0 -32 -19 -51t-42 -19q-22 0 -32 10q22 25 22 57q0 49 -60 49q-37 0 -56.5 -22t-27 -56.5t-10.5 -85.5l-2 -36h62q15 0 40.5 1t40.5 2l-2 -22q-1 -10 -7.5 -16.5t-15.5 -6.5h-120l-28 -513q-1 -10 -1 -31q0 -48 8 -76q-22 -18 -47 -18
q-20 0 -31.5 12t-10.5 32l29 594h-14q-40 0 -60 -3l2 23q3 22 23 22h52l2 49q4 81 44.5 133t132.5 52q59 0 93.5 -21z" />
    <glyph glyph-name="Ohorn" unicode="&#x1a0;" horiz-adv-x="651" 
d="M521 620q71 -93 71 -274q0 -180 -68 -269.5t-199 -89.5q-130 0 -198 90t-68 269q0 180 68 270t198 90q106 0 170 -58q41 19 41 54q0 26 -20 51q9 8 27.5 17t32.5 12q11 -12 18 -32t7 -39q0 -58 -80 -91zM458.5 102.5q44.5 78.5 44.5 243.5q0 166 -44.5 244.5t-133.5 78.5
q-88 0 -132.5 -79t-44.5 -244t44.5 -243.5t132.5 -78.5q89 0 133.5 78.5z" />
    <glyph glyph-name="ohorn" unicode="&#x1a1;" horiz-adv-x="547" 
d="M444 449q59 -71 59 -195q0 -126 -60.5 -196.5t-169.5 -70.5q-108 0 -168.5 70.5t-60.5 196.5t60.5 196.5t168.5 70.5q85 0 142 -45q41 19 41 54q0 26 -20 51q9 8 27.5 17t32.5 12q11 -12 18 -32t7 -39q0 -57 -77 -90zM380 82.5q37 59.5 37 171.5t-37 171t-107 59
t-107 -59t-37 -171t37 -171.5t107 -59.5t107 59.5z" />
    <glyph glyph-name="Uhorn" unicode="&#x1af;" horiz-adv-x="658" 
d="M565 685q8 -11 8 -27v-353q0 -158 -62 -238t-183 -80q-119 0 -178 77.5t-59 240.5v272q0 72 -12 107q21 18 46 18q21 0 33.5 -11.5t12.5 -32.5v-356q0 -144 38 -211t119 -67q83 0 124.5 70.5t41.5 207.5v275q0 69 -13 107q14 12 29 16q54 19 54 59q0 26 -20 51
q9 8 27.5 17t32.5 12q11 -12 18 -32t7 -39q0 -50 -64 -83z" />
    <glyph glyph-name="uhorn" unicode="&#x1b0;" horiz-adv-x="566" 
d="M541 36q0 -21 -16 -33.5t-44 -12.5q-78 0 -78 102v20q-21 -59 -65 -92t-103 -33q-82 0 -119 48t-38 162v198q0 69 -13 108q22 18 47 18q20 0 32.5 -12t12.5 -33l1 -269q0 -65 9.5 -103t31 -55.5t59.5 -17.5q34 0 65.5 24.5t52 78t20.5 135.5q0 129 -2 168t-12 66
q21 18 46 18q20 0 33 -13t13 -35l1 -370q0 -28 6.5 -39.5t21.5 -11.5q18 0 26 15q12 -16 12 -31zM518 514q54 19 54 59q0 26 -20 51q9 8 27.5 17t32.5 12q11 -12 18 -32t7 -39q0 -34 -29 -59.5t-78 -41.5z" />
    <glyph glyph-name="uni01CD" unicode="&#x1cd;" horiz-adv-x="592" 
d="M583 8q-17 -19 -47 -19q-19 0 -33 8.5t-18 24.5l-61 198h-262l-50 -167q-6 -22 -6 -33q0 -16 6 -23q-21 -8 -44 -8q-46 0 -46 37q0 13 10 45l212 622q33 13 66 13q39 0 48 -30l201 -621q11 -33 24 -47zM410 268l-118 384l-115 -384h233zM298 738q-16 0 -25 3l-126 114
q2 5 8.5 12.5t11.5 9.5l132 -78l131 78q5 -2 11.5 -9.5t8.5 -12.5l-126 -114q-9 -3 -26 -3z" />
    <glyph glyph-name="uni01CE" unicode="&#x1ce;" horiz-adv-x="550" 
d="M540 42q0 -22 -20.5 -37t-49.5 -15q-43 0 -65 30t-22 94v29q-33 -71 -89.5 -112.5t-123.5 -41.5q-58 0 -91.5 31.5t-33.5 84.5q0 59 45 100t121 62q67 18 139 18q20 0 29 -1v26q0 89 -29.5 132t-97.5 43q-44 0 -74 -19t-30 -62q0 -23 10.5 -43t32.5 -28q-16 -20 -48 -20
q-33 0 -54 26.5t-21 61.5q0 58 51 89t140 31q103 0 152 -53t49 -163v-200q0 -53 36 -53q8 0 18 5.5t15 15.5q11 -15 11 -31zM283.5 74.5q41.5 29.5 69 77.5t28.5 100l-23 1q-35 0 -71 -5.5t-61 -15.5q-44 -16 -69 -44t-25 -66q0 -33 17 -55t53 -22q40 0 81.5 29.5zM263 630
l113 87q6 0 17.5 -3.5t14.5 -7.5l-120 -138q-12 -2 -26 -2q-13 0 -25 2l-120 138q2 4 13.5 7.5t18.5 3.5z" />
    <glyph glyph-name="uni01CF" unicode="&#x1cf;" horiz-adv-x="273" 
d="M110 1q-13 12 -13 32l-1 544q0 69 -13 107q21 18 47 18q21 0 34 -11.5t13 -32.5v-544q0 -73 13 -107q-21 -18 -47 -18q-20 0 -33 12zM127 738q-16 0 -25 3l-126 114q2 5 8.5 12.5t11.5 9.5l132 -78l131 78q5 -2 11.5 -9.5t8.5 -12.5l-126 -114q-9 -3 -26 -3z" />
    <glyph glyph-name="uni01D0" unicode="&#x1d0;" horiz-adv-x="245" 
d="M174 7q-18 -18 -46 -18q-20 0 -32.5 12t-12.5 32l-1 363q0 72 -12 107q21 18 45 18q21 0 33 -11.5t12 -32.5l2 -363q0 -72 12 -107zM115 630l113 87q6 0 17.5 -3.5t14.5 -7.5l-120 -138q-12 -2 -26 -2q-13 0 -25 2l-120 138q2 4 13.5 7.5t18.5 3.5z" />
    <glyph glyph-name="uni01D1" unicode="&#x1d1;" horiz-adv-x="651" 
d="M127 77q-68 90 -68 269q0 180 68 270t198 90q131 0 199 -90t68 -270t-68 -269.5t-199 -89.5q-130 0 -198 90zM458.5 102.5q44.5 78.5 44.5 243.5q0 166 -44.5 244.5t-133.5 78.5q-88 0 -132.5 -79t-44.5 -244t44.5 -243.5t132.5 -78.5q89 0 133.5 78.5zM325 738
q-16 0 -25 3l-126 114q2 5 8.5 12.5t11.5 9.5l132 -78l131 78q5 -2 11.5 -9.5t8.5 -12.5l-126 -114q-9 -3 -26 -3z" />
    <glyph glyph-name="uni01D2" unicode="&#x1d2;" horiz-adv-x="547" 
d="M104.5 57.5q-60.5 70.5 -60.5 196.5t60.5 196.5t168.5 70.5q109 0 169.5 -70.5t60.5 -196.5t-60.5 -196.5t-169.5 -70.5q-108 0 -168.5 70.5zM380 82.5q37 59.5 37 171.5t-37 171t-107 59t-107 -59t-37 -171t37 -171.5t107 -59.5t107 59.5zM274 630l113 87q6 0 17.5 -3.5
t14.5 -7.5l-120 -138q-12 -2 -26 -2q-13 0 -25 2l-120 138q2 4 13.5 7.5t18.5 3.5z" />
    <glyph glyph-name="uni01D3" unicode="&#x1d3;" horiz-adv-x="658" 
d="M573 305q0 -158 -62 -238t-183 -80q-119 0 -178 77.5t-59 240.5v272q0 72 -12 107q21 18 46 18q21 0 33.5 -11.5t12.5 -32.5v-356q0 -144 38 -211t119 -67q83 0 124.5 70.5t41.5 207.5v275q0 69 -13 107q21 18 46 18q20 0 33 -12t13 -32v-353zM328 738q-16 0 -25 3
l-126 114q2 5 8.5 12.5t11.5 9.5l132 -78l131 78q5 -2 11.5 -9.5t8.5 -12.5l-126 -114q-9 -3 -26 -3z" />
    <glyph glyph-name="uni01D4" unicode="&#x1d4;" horiz-adv-x="566" 
d="M541 36q0 -21 -16 -33.5t-44 -12.5q-78 0 -78 102v20q-21 -59 -65 -92t-103 -33q-82 0 -119 48t-38 162v198q0 69 -13 108q22 18 47 18q20 0 32.5 -12t12.5 -33l1 -269q0 -65 9.5 -103t31 -55.5t59.5 -17.5q34 0 65.5 24.5t52 78t20.5 135.5q0 129 -2 168t-12 66
q21 18 46 18q20 0 33 -13t13 -35l1 -370q0 -28 6.5 -39.5t21.5 -11.5q18 0 26 15q12 -16 12 -31zM269 630l113 87q6 0 17.5 -3.5t14.5 -7.5l-120 -138q-12 -2 -26 -2q-13 0 -25 2l-120 138q2 4 13.5 7.5t18.5 3.5z" />
    <glyph glyph-name="uni01D5" unicode="&#x1d5;" horiz-adv-x="658" 
d="M573 305q0 -158 -62 -238t-183 -80q-119 0 -178 77.5t-59 240.5v272q0 72 -12 107q21 18 46 18q21 0 33.5 -11.5t12.5 -32.5v-356q0 -144 38 -211t119 -67q83 0 124.5 70.5t41.5 207.5v275q0 69 -13 107q21 18 46 18q20 0 33 -12t13 -32v-353zM201.5 773
q-14.5 15 -14.5 36t14.5 36t36.5 15q20 0 35.5 -15t15.5 -36t-15.5 -36t-35.5 -15q-22 0 -36.5 15zM387 773q-15 15 -15 36t15 36t36 15t36 -15t15 -36t-15 -36t-36 -15t-36 15zM457 954q4 -14 4 -22q0 -6 -4 -22h-257q-4 11 -4 22q0 13 4 22h257z" />
    <glyph glyph-name="uni01D6" unicode="&#x1d6;" horiz-adv-x="566" 
d="M541 36q0 -21 -16 -33.5t-44 -12.5q-78 0 -78 102v20q-21 -59 -65 -92t-103 -33q-82 0 -119 48t-38 162v198q0 69 -13 108q22 18 47 18q20 0 32.5 -12t12.5 -33l1 -269q0 -65 9.5 -103t31 -55.5t59.5 -17.5q34 0 65.5 24.5t52 78t20.5 135.5q0 129 -2 168t-12 66
q21 18 46 18q20 0 33 -13t13 -35l1 -370q0 -28 6.5 -39.5t21.5 -11.5q18 0 26 15q12 -16 12 -31zM150.5 600q-14.5 14 -14.5 33t14 33t34 14q19 0 33 -14t14 -33t-14 -33t-33 -14t-33.5 14zM324.5 600q-13.5 14 -13.5 33t13.5 33t32.5 14q20 0 34 -14t14 -33t-14.5 -33
t-33.5 -14t-32.5 14zM397 780q4 -14 4 -21q0 -8 -4 -22h-257q-4 9 -4 22q0 12 4 21h257z" />
    <glyph glyph-name="uni01D7" unicode="&#x1d7;" horiz-adv-x="658" 
d="M573 305q0 -158 -62 -238t-183 -80q-119 0 -178 77.5t-59 240.5v272q0 72 -12 107q21 18 46 18q21 0 33.5 -11.5t12.5 -32.5v-356q0 -144 38 -211t119 -67q83 0 124.5 70.5t41.5 207.5v275q0 69 -13 107q21 18 46 18q20 0 33 -12t13 -32v-353zM201.5 773
q-14.5 15 -14.5 36t14.5 36t36.5 15q20 0 35.5 -15t15.5 -36t-15.5 -36t-35.5 -15q-22 0 -36.5 15zM387 773q-15 15 -15 36t15 36t36 15t36 -15t15 -36t-15 -36t-36 -15t-36 15zM302 874q-5 2 -10.5 10.5t-5.5 13.5l136 114q15 -7 30.5 -23.5t22.5 -32.5z" />
    <glyph glyph-name="uni01D8" unicode="&#x1d8;" horiz-adv-x="566" 
d="M541 36q0 -21 -16 -33.5t-44 -12.5q-78 0 -78 102v20q-21 -59 -65 -92t-103 -33q-82 0 -119 48t-38 162v198q0 69 -13 108q22 18 47 18q20 0 32.5 -12t12.5 -33l1 -269q0 -65 9.5 -103t31 -55.5t59.5 -17.5q34 0 65.5 24.5t52 78t20.5 135.5q0 129 -2 168t-12 66
q21 18 46 18q20 0 33 -13t13 -35l1 -370q0 -28 6.5 -39.5t21.5 -11.5q18 0 26 15q12 -16 12 -31zM150.5 600q-14.5 14 -14.5 33t14 33t34 14q19 0 33 -14t14 -33t-14 -33t-33 -14t-33.5 14zM324.5 600q-13.5 14 -13.5 33t13.5 33t32.5 14q20 0 34 -14t14 -33t-14.5 -33
t-33.5 -14t-32.5 14zM274 700q-10 0 -21.5 2t-14.5 5l91 150q18 1 44 -5.5t35 -13.5z" />
    <glyph glyph-name="uni01D9" unicode="&#x1d9;" horiz-adv-x="658" 
d="M573 305q0 -158 -62 -238t-183 -80q-119 0 -178 77.5t-59 240.5v272q0 72 -12 107q21 18 46 18q21 0 33.5 -11.5t12.5 -32.5v-356q0 -144 38 -211t119 -67q83 0 124.5 70.5t41.5 207.5v275q0 69 -13 107q21 18 46 18q20 0 33 -12t13 -32v-353zM201.5 773
q-14.5 15 -14.5 36t14.5 36t36.5 15q20 0 35.5 -15t15.5 -36t-15.5 -36t-35.5 -15q-22 0 -36.5 15zM387 773q-15 15 -15 36t15 36t36 15t36 -15t15 -36t-15 -36t-36 -15t-36 15zM328 876q-16 0 -25 3l-126 114q2 5 8.5 12.5t11.5 9.5l132 -78l131 78q5 -2 11.5 -9.5
t8.5 -12.5l-126 -114q-9 -3 -26 -3z" />
    <glyph glyph-name="uni01DA" unicode="&#x1da;" horiz-adv-x="566" 
d="M541 36q0 -21 -16 -33.5t-44 -12.5q-78 0 -78 102v20q-21 -59 -65 -92t-103 -33q-82 0 -119 48t-38 162v198q0 69 -13 108q22 18 47 18q20 0 32.5 -12t12.5 -33l1 -269q0 -65 9.5 -103t31 -55.5t59.5 -17.5q34 0 65.5 24.5t52 78t20.5 135.5q0 129 -2 168t-12 66
q21 18 46 18q20 0 33 -13t13 -35l1 -370q0 -28 6.5 -39.5t21.5 -11.5q18 0 26 15q12 -16 12 -31zM150.5 600q-14.5 14 -14.5 33t14 33t34 14q19 0 33 -14t14 -33t-14 -33t-33 -14t-33.5 14zM324.5 600q-13.5 14 -13.5 33t13.5 33t32.5 14q20 0 34 -14t14 -33t-14.5 -33
t-33.5 -14t-32.5 14zM269 767l113 87q6 0 17.5 -3.5t14.5 -7.5l-120 -138q-12 -2 -26 -2q-13 0 -25 2l-120 138q2 4 13.5 7.5t18.5 3.5z" />
    <glyph glyph-name="uni01DB" unicode="&#x1db;" horiz-adv-x="658" 
d="M573 305q0 -158 -62 -238t-183 -80q-119 0 -178 77.5t-59 240.5v272q0 72 -12 107q21 18 46 18q21 0 33.5 -11.5t12.5 -32.5v-356q0 -144 38 -211t119 -67q83 0 124.5 70.5t41.5 207.5v275q0 69 -13 107q21 18 46 18q20 0 33 -12t13 -32v-353zM201.5 773
q-14.5 15 -14.5 36t14.5 36t36.5 15q20 0 35.5 -15t15.5 -36t-15.5 -36t-35.5 -15q-22 0 -36.5 15zM387 773q-15 15 -15 36t15 36t36 15t36 -15t15 -36t-15 -36t-36 -15t-36 15zM202.5 988.5q15.5 16.5 30.5 23.5l136 -114q0 -5 -5.5 -13.5t-10.5 -10.5l-173 82
q7 16 22.5 32.5z" />
    <glyph glyph-name="uni01DC" unicode="&#x1dc;" horiz-adv-x="566" 
d="M541 36q0 -21 -16 -33.5t-44 -12.5q-78 0 -78 102v20q-21 -59 -65 -92t-103 -33q-82 0 -119 48t-38 162v198q0 69 -13 108q22 18 47 18q20 0 32.5 -12t12.5 -33l1 -269q0 -65 9.5 -103t31 -55.5t59.5 -17.5q34 0 65.5 24.5t52 78t20.5 135.5q0 129 -2 168t-12 66
q21 18 46 18q20 0 33 -13t13 -35l1 -370q0 -28 6.5 -39.5t21.5 -11.5q18 0 26 15q12 -16 12 -31zM150.5 600q-14.5 14 -14.5 33t14 33t34 14q19 0 33 -14t14 -33t-14 -33t-33 -14t-33.5 14zM324.5 600q-13.5 14 -13.5 33t13.5 33t32.5 14q20 0 34 -14t14 -33t-14.5 -33
t-33.5 -14t-32.5 14zM162 851.5q26 6.5 44 5.5l91 -150q-3 -3 -14.5 -5t-21.5 -2l-135 138q10 7 36 13.5z" />
    <glyph glyph-name="Gcaron" unicode="&#x1e6;" horiz-adv-x="625" 
d="M130.5 79.5q-71.5 92.5 -71.5 266.5t73 267t206 93q50 0 95 -13.5t72.5 -36.5t27.5 -49q0 -21 -18 -35t-47 -11q-8 52 -42 80t-86 28q-192 0 -192 -323q0 -322 191 -322q86 0 117 59.5t31 137.5q0 121 -74 137q4 15 18 22.5t35 7.5q45 0 74 -36.5t29 -115.5
q0 -66 -25 -123t-77 -91.5t-131 -34.5q-134 0 -205.5 92.5zM331 738q-16 0 -25 3l-126 114q2 5 8.5 12.5t11.5 9.5l132 -78l131 78q5 -2 11.5 -9.5t8.5 -12.5l-126 -114q-9 -3 -26 -3z" />
    <glyph glyph-name="gcaron" unicode="&#x1e7;" horiz-adv-x="537" 
d="M96.5 -202.5q-48.5 30.5 -48.5 89.5q0 33 17.5 53.5t44.5 20.5q28 0 40 -15q-28 -21 -28 -61q0 -41 27 -62.5t72 -21.5q85 0 125.5 61.5t40.5 182.5v68q-18 -56 -61 -86.5t-105 -30.5q-177 0 -177 252q0 115 50.5 194t177.5 79q56 0 108.5 -15.5t85.5 -50.5v-410
q0 -278 -248 -278q-73 0 -121.5 30.5zM351 101q35 61 36 147l1 199q-17 18 -48 27.5t-69 9.5q-83 0 -112.5 -67t-29.5 -177q0 -106 27.5 -153t85.5 -47q74 0 109 61zM275 633l113 87q6 0 17.5 -3.5t14.5 -7.5l-120 -138q-12 -2 -26 -2q-13 0 -25 2l-120 138q2 4 13.5 7.5
t18.5 3.5z" />
    <glyph glyph-name="Scommaaccent" unicode="&#x218;" horiz-adv-x="555" 
d="M107.5 28.5q-56.5 41.5 -56.5 106.5q0 58 56 58q11 0 18 -1q-5 -15 -3 -42q3 -58 45.5 -92t115.5 -34q66 0 105.5 31t39.5 91q0 39 -17.5 67t-50 52t-92.5 57q-68 38 -107 66.5t-62 65.5t-23 88q0 82 60 123t152 41q90 0 144.5 -33t54.5 -91q0 -42 -40 -46q-8 -2 -13 -2
q-6 0 -18 2q3 11 3 20q0 12 -3 22q-4 43 -41 67t-95 24q-53 0 -90.5 -24t-37.5 -78q0 -38 19 -66.5t51 -50.5t91 -55q63 -34 104 -64t66 -70t25 -93q0 -48 -23.5 -89t-75.5 -66.5t-134 -25.5q-111 0 -167.5 41.5zM242 -210q31 36 31 67q0 26 -13 37.5t-33 17.5q0 20 15.5 37
t40.5 17q24 0 40.5 -16.5t16.5 -52.5q0 -66 -68 -125q-17 4 -30 18z" />
    <glyph glyph-name="scommaaccent" unicode="&#x219;" horiz-adv-x="468" 
d="M84.5 20.5q-46.5 33.5 -46.5 87.5q0 25 12 40.5t38 15.5q10 0 16 -1q-3 -12 -3 -24q0 -11 1 -18q2 -44 36.5 -70t92.5 -26q57 0 91 20t34 59q0 36 -26 57t-82 46l-32 15q-56 26 -85.5 44t-51 49t-21.5 78q0 65 51 97t129 32q82 0 128 -26.5t46 -73.5q0 -42 -37 -46
q-10 -2 -13 -2q-6 0 -16 2q2 12 2 20q0 13 -3 22q-4 33 -32.5 50t-77.5 17q-45 0 -74 -16.5t-29 -52.5q0 -30 17 -51.5t40.5 -35t71.5 -36.5l22 -10q49 -23 78.5 -40.5t50 -45.5t20.5 -67q0 -59 -49 -101t-159 -42q-93 0 -139.5 33.5zM199 -210q31 36 31 67q0 26 -13 37.5
t-33 17.5q0 20 15.5 37t40.5 17q24 0 40.5 -16.5t16.5 -52.5q0 -66 -68 -125q-17 4 -30 18z" />
    <glyph glyph-name="uni021A" unicode="&#x21a;" horiz-adv-x="528" 
d="M512 671q0 -15 -6.5 -30t-16.5 -19l-26 6q-104 23 -159 27l1 -541q0 -73 13 -107q-21 -18 -47 -18q-20 0 -33 12t-13 32l-1 622q-36 -3 -71.5 -9.5t-90.5 -18.5l-22 -5q-10 4 -16.5 19t-6.5 30q0 22 14 22h467q14 0 14 -22zM240 -210q31 36 31 67q0 26 -13 37.5t-33 17.5
q0 20 15.5 37t40.5 17q24 0 40.5 -16.5t16.5 -52.5q0 -66 -68 -125q-17 4 -30 18z" />
    <glyph glyph-name="uni021B" unicode="&#x21b;" horiz-adv-x="339" 
d="M258.5 508q26.5 1 42.5 2l-1 -22q-1 -10 -7 -16.5t-15 -6.5h-103v-38v-322q0 -26 12 -40t36 -14q15 0 28.5 5.5t18.5 15.5q11 -15 11 -32q0 -23 -24 -37t-61 -14q-47 0 -74 29.5t-27 81.5v365h-14q-41 0 -60 -3l1 23q1 22 22 22h51v89q0 21 13 32.5t34 11.5q25 0 46 -18
q-11 -34 -12 -115h40q16 0 42.5 1zM154 -210q31 36 31 67q0 26 -13 37.5t-33 17.5q0 20 15.5 37t40.5 17q24 0 40.5 -16.5t16.5 -52.5q0 -66 -68 -125q-17 4 -30 18z" />
    <glyph glyph-name="uni0237" unicode="&#x237;" horiz-adv-x="250" 
d="M-52.5 -210.5q-27.5 21.5 -27.5 58.5q0 19 11.5 33.5t33.5 14.5q17 0 25 -14q-8 -15 -8 -34q0 -25 14 -35t33 -10q41 0 54 40t13 118l1 434q0 72 -12 108q20 18 45 18q20 0 32.5 -12t12.5 -33l1 -529q0 -77 -33.5 -128t-114.5 -51q-53 0 -80.5 21.5z" />
    <glyph glyph-name="uni0251" unicode="&#x251;" horiz-adv-x="566" 
d="M539 37q0 -20 -17.5 -32.5t-44.5 -12.5q-82 0 -82 128v7q-24 -66 -68.5 -103t-110.5 -37q-96 0 -134 71t-38 172q0 137 54.5 213t156.5 76q51 0 86 -19.5t51 -56.5q3 22 3 67q10 10 27 10q23 0 36 -12.5t13 -32.5l-1 -370q0 -51 31 -51q19 0 27 15q11 -15 11 -32zM319 72
q35 36 53 96.5t18 132.5q0 74 -25 122.5t-94 48.5q-142 0 -142 -239q0 -89 22.5 -143t84.5 -54q48 0 83 36z" />
    <glyph glyph-name="uni0259" unicode="&#x259;" horiz-adv-x="515" 
d="M408 452.5q62 -68.5 62 -195.5q0 -126 -61.5 -198t-176.5 -72q-82 0 -132 37.5t-50 106.5q0 74 59.5 113t167.5 39q58 0 107 -7q-11 189 -167 189q-55 0 -95 -22.5t-55 -64.5q-15 7 -15 24q0 10 6 26q19 45 66.5 69t111.5 24q110 0 172 -68.5zM344 78.5q40 56.5 41 162.5
q-49 4 -77 5q-81 0 -127.5 -28t-46.5 -98q0 -53 29 -75.5t72 -22.5q69 0 109 56.5z" />
    <glyph glyph-name="uni0261" unicode="&#x261;" horiz-adv-x="537" 
d="M96.5 -202.5q-48.5 30.5 -48.5 89.5q0 33 17.5 53.5t44.5 20.5q28 0 40 -15q-28 -21 -28 -61q0 -41 27 -62.5t72 -21.5q85 0 125.5 61.5t40.5 182.5v68q-18 -56 -61 -86.5t-105 -30.5q-177 0 -177 252q0 115 50.5 194t177.5 79q56 0 108.5 -15.5t85.5 -50.5v-410
q0 -278 -248 -278q-73 0 -121.5 30.5zM351 101q35 61 36 147l1 199q-17 18 -48 27.5t-69 9.5q-83 0 -112.5 -67t-29.5 -177q0 -106 27.5 -153t85.5 -47q74 0 109 61z" />
    <glyph glyph-name="uni02BC" unicode="&#x2bc;" horiz-adv-x="600" 
d="M225 532h38l20 152q-12 5 -36 5t-39 -5z" />
    <glyph glyph-name="circumflex" unicode="&#x2c6;" horiz-adv-x="600" 
d="M167.5 565.5q-11.5 3.5 -13.5 7.5l120 137q9 3 26 3q16 0 25 -3l120 -137q-3 -4 -14 -7.5t-18 -3.5l-113 87l-114 -87q-7 0 -18.5 3.5z" />
    <glyph glyph-name="caron" unicode="&#x2c7;" horiz-adv-x="600" 
d="M300 630l113 87q6 0 17.5 -3.5t14.5 -7.5l-120 -138q-12 -2 -26 -2q-13 0 -25 2l-120 138q2 4 13.5 7.5t18.5 3.5z" />
    <glyph glyph-name="breve" unicode="&#x2d8;" horiz-adv-x="600" 
d="M365.5 647.5q26.5 22.5 40.5 55.5q19 -3 32 -10q-15 -55 -50.5 -90t-92.5 -35q-63 0 -98.5 36.5t-47.5 86.5q13 10 33 13q13 -34 42.5 -56.5t72.5 -22.5q42 0 68.5 22.5z" />
    <glyph glyph-name="dotaccent" unicode="&#x2d9;" horiz-adv-x="600" 
d="M262 588q-15 15 -15 37q0 20 15 35.5t36 15.5t36 -15.5t15 -35.5q0 -22 -15 -37t-36 -15t-36 15z" />
    <glyph glyph-name="ring" unicode="&#x2da;" horiz-adv-x="600" 
d="M366.5 699q24.5 -22 24.5 -59q-1 -39 -26 -61.5t-67 -22.5q-40 0 -64.5 21.5t-24.5 58.5q0 39 25.5 62t67.5 23q40 0 64.5 -22zM265.5 677.5q-12.5 -14.5 -12.5 -39.5t12.5 -39.5t34.5 -14.5t34.5 14.5t12.5 39.5t-12.5 39.5t-34.5 14.5t-34.5 -14.5z" />
    <glyph glyph-name="ogonek" unicode="&#x2db;" horiz-adv-x="600" 
d="M241.5 -151q-27.5 19 -27.5 58q0 43 36 72t91 45l9 -19q-39 -19 -58.5 -39.5t-19.5 -49.5q0 -21 12.5 -34.5t37.5 -13.5q29 0 50.5 16t33.5 38q11 -8 11 -18q0 -5 -1 -8q-13 -29 -42.5 -47.5t-68.5 -18.5q-36 0 -63.5 19z" />
    <glyph glyph-name="tilde" unicode="&#x2dc;" horiz-adv-x="600" 
d="M412 606.5q-21 -23.5 -53 -23.5q-17 0 -30.5 6t-33.5 19q-17 11 -30 17t-28 6q-22 0 -37.5 -11.5t-22.5 -31.5h-2q-12 0 -21 9q6 43 30.5 64t56.5 21q18 0 32.5 -6.5t32.5 -18.5q20 -12 32 -17.5t28 -5.5q21 0 31.5 11t19.5 33q13 0 22 -9q-6 -39 -27 -62.5z" />
    <glyph glyph-name="hungarumlaut" unicode="&#x2dd;" horiz-adv-x="600" 
d="M168 544q-6 1 -14 7.5t-10 10.5l116 164q17 -2 34 -10.5t28 -22.5zM312 544q-6 2 -13 8t-11 10l116 164q16 -2 33 -10.5t29 -21.5z" />
    <glyph glyph-name="gravecomb" unicode="&#x300;" 
d="M-387 714.5q26 6.5 44 5.5l91 -150q-3 -3 -14.5 -5t-21.5 -2l-135 138q10 7 36 13.5z" />
    <glyph glyph-name="acutecomb" unicode="&#x301;" 
d="M-349 563q-10 0 -21.5 2t-14.5 5l91 150q18 1 44 -5.5t35 -13.5z" />
    <glyph glyph-name="uni0302" unicode="&#x302;" 
d="M-432.5 565.5q-11.5 3.5 -13.5 7.5l120 137q9 3 25 3q17 0 26 -3l120 -137q-3 -4 -14 -7.5t-18 -3.5l-113 87l-114 -87q-7 0 -18.5 3.5z" />
    <glyph glyph-name="tildecomb" unicode="&#x303;" 
d="M-188 606.5q-21 -23.5 -53 -23.5q-17 0 -30.5 6t-33.5 19q-17 11 -30 17t-28 6q-22 0 -37.5 -11.5t-22.5 -31.5h-2q-12 0 -21 9q6 43 30.5 64t56.5 21q18 0 32.5 -6.5t32.5 -18.5q20 -12 32 -17.5t28 -5.5q21 0 31.5 11t19.5 33q13 0 22 -9q-6 -39 -27 -62.5z" />
    <glyph glyph-name="uni0304" unicode="&#x304;" 
d="M-188 643q4 -14 4 -21q0 -8 -4 -22h-257q-4 9 -4 22q0 12 4 21h257z" />
    <glyph glyph-name="uni0306" unicode="&#x306;" 
d="M-234.5 647.5q26.5 22.5 40.5 55.5q19 -3 32 -10q-15 -55 -50.5 -90t-92.5 -35q-63 0 -98.5 36.5t-47.5 86.5q13 10 33 13q13 -34 42.5 -56.5t72.5 -22.5q42 0 68.5 22.5z" />
    <glyph glyph-name="uni0307" unicode="&#x307;" 
d="M-338 588q-15 15 -15 37q0 20 15 35.5t36 15.5t36 -15.5t15 -35.5q0 -22 -15 -37t-36 -15t-36 15z" />
    <glyph glyph-name="uni0308" unicode="&#x308;" 
d="M-426.5 600q-14.5 14 -14.5 33t14 33t34 14q19 0 33 -14t14 -33t-14 -33t-33 -14t-33.5 14zM-252.5 600q-13.5 14 -13.5 33t13.5 33t32.5 14q20 0 34 -14t14 -33t-14.5 -33t-33.5 -14t-32.5 14z" />
    <glyph glyph-name="hookabovecomb" unicode="&#x309;" 
d="M-417 578q28 9 39 17.5t11 22.5q0 17 -21 23.5t-47 6.5l-2 37q52 2 90.5 -12t38.5 -51q0 -28 -23.5 -46t-77.5 -26z" />
    <glyph glyph-name="uni030A" unicode="&#x30a;" 
d="M-233.5 699q24.5 -22 24.5 -59q-1 -39 -26 -61.5t-67 -22.5q-40 0 -64.5 21.5t-24.5 58.5q0 39 25.5 62t67.5 23q40 0 64.5 -22zM-334.5 677.5q-12.5 -14.5 -12.5 -39.5t12.5 -39.5t34.5 -14.5t34.5 14.5t12.5 39.5t-12.5 39.5t-34.5 14.5t-34.5 -14.5z" />
    <glyph glyph-name="uni030B" unicode="&#x30b;" 
d="M-432 544q-6 1 -14 7.5t-10 10.5l116 164q17 -2 34 -10.5t28 -22.5zM-288 544q-6 2 -13 8t-11 10l116 164q16 -2 33 -10.5t29 -21.5z" />
    <glyph glyph-name="uni030C" unicode="&#x30c;" 
d="M-300 630l113 87q6 0 17.5 -3.5t14.5 -7.5l-120 -138q-12 -2 -26 -2q-13 0 -25 2l-120 138q2 4 13.5 7.5t18.5 3.5z" />
    <glyph glyph-name="uni031B" unicode="&#x31b;" 
d="M-434 514q54 19 54 59q0 26 -20 51q9 8 27.5 17t32.5 12q11 -12 18 -32t7 -39q0 -34 -29 -59.5t-78 -41.5z" />
    <glyph glyph-name="dotbelowcomb" unicode="&#x323;" 
d="M-338 -133q-16 16 -16 38q0 23 16 39t38 16t38 -16t16 -39q0 -22 -16 -38t-38 -16t-38 16z" />
    <glyph glyph-name="uni0324" unicode="&#x324;" 
d="M-432.5 -155q-16.5 16 -16.5 38t16 38t39 16q22 0 38 -16t16 -38t-16 -38t-38 -16t-38.5 16zM-243.5 -155q-16.5 16 -16.5 38t16 38t39 16q22 0 38 -16t16 -38t-16 -38t-38 -16t-38.5 16z" />
    <glyph glyph-name="uni0326" unicode="&#x326;" 
d="M-338 -210q31 36 31 67q0 26 -13 37.5t-33 17.5q0 20 15.5 37t40.5 17q24 0 40.5 -16.5t16.5 -52.5q0 -66 -68 -125q-17 4 -30 18z" />
    <glyph glyph-name="uni0327" unicode="&#x327;" 
d="M-304 -48q45 0 70 -19.5t25 -53.5q0 -38 -28.5 -62t-75.5 -24q-60 0 -88 32v4q0 7 3.5 15.5t8.5 11.5q2 -1 9.5 -7.5t21 -11t29.5 -4.5q23 0 36.5 12t13.5 33q0 20 -14 33t-44 13l-14 -1l16 85h42z" />
    <glyph glyph-name="uni0328" unicode="&#x328;" 
d="M-358.5 -151q-27.5 19 -27.5 58q0 43 36 72t91 45l9 -19q-39 -19 -58.5 -39.5t-19.5 -49.5q0 -21 12.5 -34.5t37.5 -13.5q29 0 50.5 16t33.5 38q11 -8 11 -18q0 -5 -1 -8q-13 -29 -42.5 -47.5t-68.5 -18.5q-36 0 -63.5 19z" />
    <glyph glyph-name="uni032E" unicode="&#x32e;" 
d="M-229 -109.5q26 22.5 38 54.5l31 -5q-11 -52 -48 -87t-94 -35q-61 0 -96 36.5t-43 82.5l33 10q10 -33 39 -56t72 -23q42 0 68 22.5z" />
    <glyph glyph-name="uni0331" unicode="&#x331;" 
d="M-171 -66q3 -11 3 -20q0 -11 -3 -20h-258q-4 8 -4 20q0 11 4 20h258z" />
    <glyph glyph-name="uni03A9" unicode="&#x3a9;" horiz-adv-x="646" 
d="M621 37q0 -15 -8.5 -26t-20.5 -11h-228v21h-1q67 32 102.5 125.5t35.5 237.5q0 146 -45 215.5t-133 69.5t-133 -69.5t-45 -215.5q0 -138 38.5 -233.5t98.5 -129.5v-21h-228q-12 0 -20.5 11t-8.5 26q0 16 10 30l188 -35q-48 27 -85.5 79.5t-59 123.5t-21.5 149
q0 161 68 241.5t198 80.5t198 -80.5t68 -241.5q0 -121 -43 -216t-118 -135l183 34q10 -14 10 -30z" />
    <glyph glyph-name="pi" unicode="&#x3c0;" horiz-adv-x="601" 
d="M488.5 508q60.5 1 91.5 2l-1 -22q-1 -10 -7.5 -16.5t-15.5 -6.5h-74l-1 -360q0 -26 9.5 -39.5t28.5 -13.5q12 0 22 5.5t15 15.5q12 -15 12 -31q0 -23 -21 -37.5t-50 -14.5q-45 0 -70 29t-25 82v364h-226l1 -351q0 -73 13 -107q-21 -18 -47 -18q-19 0 -31.5 12t-12.5 32
l-1 432h-17q-41 0 -60 -3l1 23q1 11 7 16.5t16 5.5h352q31 0 91.5 1z" />
    <glyph glyph-name="uni0964" unicode="&#x964;" horiz-adv-x="253" 
d="M88 730h76v-862l-76 -10v872z" />
    <glyph glyph-name="uni0965" unicode="&#x965;" horiz-adv-x="457" 
d="M293 730h76v-862l-76 -10v872zM88 730h76v-862l-76 -10v872z" />
    <glyph glyph-name="uni0B82" unicode="&#xb82;" 
d="M-74 651.5q-28 27.5 -28 70.5q0 44 28 71.5t74 27.5q47 0 74.5 -27.5t27.5 -71.5q0 -43 -27.5 -70.5t-74.5 -27.5q-46 0 -74 27.5zM45.5 676q17.5 18 17.5 46t-17.5 46t-45.5 18q-29 0 -45.5 -17.5t-16.5 -46.5q0 -28 17.5 -46t44.5 -18q28 0 45.5 18z" />
    <glyph glyph-name="uni0B83" unicode="&#xb83;" horiz-adv-x="727" 
d="M261 321.5q-38 37.5 -38 98.5q0 59 38 95t103 36q66 0 103.5 -36t37.5 -95q0 -62 -37.5 -99t-103.5 -37q-65 0 -103 37.5zM420 342q20 29 20 78q0 47 -20 74.5t-56 27.5t-55.5 -27.5t-19.5 -74.5q0 -50 19.5 -78.5t55.5 -28.5t56 29zM83 22q-38 37 -38 97t38 96.5
t104 36.5q65 0 102.5 -36.5t37.5 -96.5q0 -61 -37.5 -97.5t-102.5 -36.5q-66 0 -104 37zM436.5 21.5q-37.5 36.5 -37.5 97.5t37.5 97t103.5 36t103.5 -36.5t37.5 -96.5t-37.5 -97t-103.5 -37t-103.5 36.5zM242.5 42q19.5 28 19.5 77t-19.5 76.5t-55.5 27.5
q-37 0 -56.5 -27.5t-19.5 -76.5q0 -50 19.5 -77.5t56.5 -27.5q36 0 55.5 28zM596 42q20 28 20 77t-20 76.5t-56 27.5t-56 -27.5t-20 -76.5t20 -77t56 -28t56 28z" />
    <glyph glyph-name="uni0B85" unicode="&#xb85;" horiz-adv-x="1065" 
d="M960 -24q0 -35 1.5 -46t7.5 -15q-18 -18 -48 -18q-24 0 -34.5 16t-10.5 56v182h-142q-51 -110 -171.5 -166t-266.5 -56q-128 0 -197 41t-69 107q0 110 204 110h428q15 50 15 102q0 106 -46 161t-129 55q-48 0 -84 -19t-53 -58q26 31 74 31q49 0 79.5 -29t30.5 -76
q0 -50 -33.5 -80.5t-86.5 -30.5q-59 0 -87.5 36.5t-28.5 89.5q0 52 26.5 93.5t75 65t114.5 23.5q100 0 167.5 -59.5t67.5 -196.5q0 -55 -16 -108h128v162q0 81 -2 113t-11 64q7 7 20 13.5t29 6.5q22 0 35 -12.5t13 -35.5v-422v-100zM370.5 404q-17.5 -21 -17.5 -54
t17.5 -53.5t48.5 -20.5q32 0 50 22.5t18 53.5t-17 52t-49 21q-33 0 -50.5 -21zM499 15.5q102 40.5 148 135.5h-397q-85 0 -126 -19t-41 -57q0 -48 56.5 -74t146.5 -26q111 0 213 40.5z" />
    <glyph glyph-name="uni0B86" unicode="&#xb86;" horiz-adv-x="1200" 
d="M1143.5 123q25.5 -44 25.5 -113q0 -117 -83 -208t-220.5 -141t-294.5 -50q-109 0 -174.5 22t-92.5 55t-27 69q0 65 69.5 101t166.5 36q55 0 91 -10.5t53 -26.5t17 -31q0 -30 -34 -38q-32 62 -134 62q-70 0 -115 -26t-45 -68q0 -45 55 -74.5t172 -29.5q131 0 247.5 40.5
t189 120.5t72.5 194q0 103 -48 103q-39 0 -64.5 -43.5t-26.5 -116.5q1 -11 2.5 -14.5t5.5 -4.5q-19 -18 -48 -18q-24 0 -35 16t-11 55v167h-128q-49 -111 -167 -166.5t-265 -55.5q-129 0 -198 41t-69 107q0 110 204 110h422q15 53 15 108q0 102 -46.5 156t-127.5 54
q-48 0 -84.5 -19.5t-53.5 -57.5q27 31 74 31q50 0 80 -29t30 -76q0 -50 -33.5 -80.5t-86.5 -30.5q-59 0 -87 36t-28 90q0 52 26.5 93.5t75 65t114.5 23.5q102 0 168 -62t66 -190q0 -58 -16 -112h115v162v33q0 57 -2.5 85t-10.5 59q7 7 20 13.5t29 6.5q21 0 34.5 -12
t13.5 -36v-411q18 36 50 58t74 22q53 0 78.5 -44zM365 404q-18 -21 -18 -54t17.5 -53.5t48.5 -20.5q33 0 51 22.5t18 53.5t-17.5 52t-49.5 21t-50 -21zM494.5 15q100.5 40 146.5 136h-391q-85 0 -126 -19t-41 -57q0 -48 56.5 -74t146.5 -26q108 0 208.5 40z" />
    <glyph glyph-name="uni0B87" unicode="&#xb87;" horiz-adv-x="943" 
d="M702.5 652.5q85.5 -41.5 132 -122t46.5 -196.5q0 -66 -14 -125q-5 -20 -17.5 -30.5t-31.5 -10.5q-16 0 -37 9q11 40 18 78t7 84q0 101 -40 173t-108.5 108.5t-155.5 36.5t-153 -36t-102.5 -103.5t-36.5 -159.5q0 -97 41 -185q89 24 181 24q93 0 174 -23q25 67 25 135
q0 95 -44 153.5t-120 58.5q-27 0 -44 -6l17 1q43 0 73.5 -31t30.5 -79q0 -50 -33.5 -80.5t-85.5 -30.5q-53 0 -85 31.5t-32 81.5q0 44 24.5 76.5t65 50.5t88.5 18q57 0 108.5 -26.5t83.5 -80t32 -130.5q0 -80 -37 -165q73 -31 115 -78t42 -104q0 -52 -41 -88t-132 -36
q-113 0 -221 58q-107 -58 -212 -58q-79 0 -129 34.5t-50 99.5q0 58 38 101t104 71q-52 101 -52 200q0 72 29 149.5t110.5 135.5t226.5 58q116 0 201.5 -41.5zM465 464q-19 21 -49 21q-31 0 -49.5 -20.5t-18.5 -54.5q0 -35 19 -56t50 -21q30 0 48.5 20.5t18.5 54.5
q0 35 -19 56zM270 135q62 -110 166 -180q102 75 153 180q-73 27 -155 27q-89 0 -164 -27zM393 -72q-54 34 -100 80t-80 99q-38 -24 -60 -57t-22 -74q0 -48 30.5 -71t79.5 -23q70 0 152 46zM718.5 41q-25.5 37 -70.5 65q-31 -52 -74.5 -97.5t-94.5 -79.5q86 -47 161 -47
q49 0 76.5 20.5t27.5 60.5q0 41 -25.5 78z" />
    <glyph glyph-name="uni0B88" unicode="&#xb88;" horiz-adv-x="712" 
d="M683 523q0 -14 -9 -18t-26 -4h-172v-403q0 -37 2.5 -56t7.5 -34q-19 -15 -47 -15q-24 0 -35.5 12.5t-11.5 44.5v451l-265 1v-502h-40v537h594q2 -5 2 -14zM291.5 286q13.5 -14 13.5 -33q0 -20 -13.5 -34t-32.5 -14t-32.5 14.5t-13.5 34.5q0 19 13.5 32.5t32.5 13.5
t32.5 -14zM625 286q13 -14 13 -33q0 -20 -13 -34t-32 -14t-32.5 14t-13.5 34q0 19 13.5 33t32.5 14t32 -14z" />
    <glyph glyph-name="uni0B89" unicode="&#xb89;" horiz-adv-x="950" 
d="M65.5 20q-25.5 20 -25.5 58q0 49 38.5 67t129.5 20q102 3 156 39.5t54 132.5q0 87 -42 127.5t-115 40.5q-57 0 -95 -21.5t-53 -57.5q24 25 69 25q50 0 80 -29t30 -73q0 -48 -32 -77.5t-89 -29.5q-55 0 -84.5 35.5t-29.5 87.5t27 94.5t78 67t121 24.5q91 0 156.5 -47.5
t65.5 -153.5t-71.5 -162t-220.5 -60q-52 -1 -76 -4t-35 -13t-11 -32q0 -19 14.5 -31t58.5 -12l770 2v-36l-776 -2q-67 0 -92.5 20zM212.5 298.5q17.5 19.5 17.5 47.5q0 31 -17 51t-47 20t-47.5 -19t-17.5 -50q0 -30 16 -49.5t45 -19.5q33 0 50.5 19.5z" />
    <glyph glyph-name="uni0B8A" unicode="&#xb8a;" horiz-adv-x="1427" 
d="M1404 38v-36l-1243 -2q-67 0 -92.5 20t-25.5 58q0 49 38.5 67t128.5 20q102 3 156.5 40.5t54.5 132.5q0 86 -42 126.5t-115 40.5q-57 0 -95 -21.5t-54 -57.5q25 25 70 25q50 0 79.5 -28.5t29.5 -73.5q0 -48 -32 -77.5t-88 -29.5q-55 0 -84.5 35.5t-29.5 87.5t27 94.5
t78 67t121 24.5q91 0 156 -47.5t65 -152.5q0 -107 -71.5 -163t-219.5 -60q-52 -1 -76 -4t-35 -13t-11 -32q0 -19 14.5 -31t57.5 -12zM634 151q-48 49 -48 160q0 123 59.5 181.5t157.5 58.5q76 -1 127.5 -35.5t66.5 -85.5q0 63 28 87.5t92 24.5h257q2 -8 2 -11
q0 -12 -10 -16.5t-29 -4.5h-39v-313q1 -55 7 -75q-16 -12 -39 -12q-22 0 -31.5 10.5t-9.5 38.5v350h-95q-41 0 -54 -17.5t-13 -68.5l1 -232q0 -49 7 -69q-16 -12 -43 -12q-19 0 -27.5 10.5t-8.5 38.5v164q0 40 -18.5 84t-60.5 75.5t-108 31.5q-72 0 -123 -46t-51 -163
q0 -83 24.5 -123.5t64.5 -48.5q-21 18 -29.5 47t-8.5 58q0 61 29 95.5t81 34.5q55 0 85.5 -35.5t30.5 -95.5q0 -69 -40 -102t-104 -33q-82 0 -130 49zM121 397.5q-18 -19.5 -17 -51.5q0 -29 16.5 -48t44.5 -19q32 0 50 19.5t18 47.5q0 31 -17 51t-47 20t-48 -19.5z
M735 303.5q-15 -27.5 -15 -72.5q0 -44 15 -69t41 -25q27 0 42 25.5t15 72.5q0 42 -13.5 69t-41.5 27t-43 -27.5z" />
    <glyph glyph-name="uni0B8E" unicode="&#xb8e;" horiz-adv-x="808" 
d="M807 523q0 -14 -9.5 -18t-26.5 -4h-125v-399q0 -40 2 -59.5t7 -34.5q-18 -15 -46 -15q-24 0 -35.5 13t-11.5 48v447h-151q-142 0 -227.5 -61.5t-85.5 -215.5q0 -91 32.5 -141t83.5 -59q-29 23 -40.5 59.5t-11.5 76.5q0 77 37.5 120.5t103.5 43.5q70 0 108.5 -45.5
t38.5 -120.5q0 -87 -50 -129t-127 -42q-98 0 -159 59.5t-61 182.5q0 162 94 235t268 73h390q2 -10 2 -14zM226 59.5q21 -33.5 56 -33.5q39 0 60.5 33.5t21.5 96.5q0 55 -19 90.5t-58 35.5q-40 0 -61 -36t-21 -94q0 -59 21 -92.5z" />
    <glyph glyph-name="uni0B8F" unicode="&#xb8f;" horiz-adv-x="807" 
d="M805 523q0 -14 -8.5 -18t-25.5 -4h-127l1 -389q0 -104 -61.5 -173.5t-143.5 -102.5t-139 -34q-12 -1 -21 8.5t-10 21.5q18 0 34 5q102 30 179 96t77 186v382h-149q-142 0 -227.5 -61.5t-85.5 -215.5q0 -91 32.5 -141.5t82.5 -59.5q-27 23 -38 59.5t-11 75.5q0 77 37 121
t102 44q70 0 108.5 -45t38.5 -120q0 -87 -50 -129.5t-126 -42.5q-99 0 -160 59t-61 181q0 165 93.5 238t268.5 73h389q1 -5 1 -14zM226.5 58.5q21.5 -33.5 55.5 -33.5q39 0 60.5 33.5t21.5 96.5q0 55 -19 90.5t-58 35.5q-40 0 -61 -35.5t-21 -94.5t21.5 -92.5z" />
    <glyph glyph-name="uni0B90" unicode="&#xb90;" horiz-adv-x="836" 
d="M87.5 -114.5q-43.5 41.5 -43.5 111.5q0 99 93.5 149.5t280.5 65.5q149 13 219.5 57t70.5 129q0 56 -28.5 82.5t-74.5 26.5q-64 0 -95 -52.5t-38 -157.5h-88q2 212 -157 212q-48 0 -82.5 -19t-45.5 -58q26 27 69 27q48 0 77.5 -26.5t29.5 -69.5q0 -46 -32 -74t-85 -28
q-59 0 -85.5 33t-26.5 84q0 77 54.5 125.5t145.5 48.5q79 0 127.5 -38.5t62.5 -116.5q14 70 59 112.5t128 42.5q82 0 126.5 -40t44.5 -118q0 -76 -45 -120t-121.5 -64.5t-188.5 -30.5q-115 -9 -183 -32t-97.5 -60t-29.5 -91t29.5 -80t74.5 -26q67 0 105 60t43 144h88
q1 -87 31.5 -147.5t105.5 -60.5q47 0 74 28.5t27 80.5q0 46 -23.5 79t-65.5 44q8 16 24.5 26t39.5 7q26 -2 51 -20.5t41.5 -51t16.5 -74.5q0 -77 -50 -119t-128 -42q-92 0 -137 47t-56 113q-21 -76 -77 -118t-131 -42q-81 0 -124.5 41.5zM192 313.5q16 20.5 16 47.5
q0 28 -15.5 47t-43.5 19t-43.5 -19t-15.5 -49q0 -29 15.5 -47.5t42.5 -18.5q28 0 44 20.5z" />
    <glyph glyph-name="uni0B92" unicode="&#xb92;" horiz-adv-x="764" 
d="M498.5 180q-32.5 30 -32.5 77q0 19 5.5 37.5t15.5 28.5q-15 -3 -35 -19t-34.5 -44.5t-14.5 -64.5q0 -64 44 -99.5t120 -35.5q45 0 78 10l9 -11q-20 -63 -63 -112t-100 -75.5t-116 -26.5q-65 0 -108 32t-43 86q0 29 13 42t30 13q12 0 18 -5l-1 -22q0 -49 29 -75t81 -26
q64 0 114 35t75 79q-22 -3 -46 -3q-86 0 -140.5 45.5t-54.5 123.5q0 62 32.5 104.5t78.5 63.5t85 21l10 -18q-20 -9 -28.5 -29.5t-8.5 -42.5q0 -35 16.5 -53.5t41.5 -18.5q32 0 51 31.5t19 79.5q0 96 -79 148t-201 52q-112 0 -184.5 -46t-92.5 -124q29 28 80 28
q50 0 79.5 -26t29.5 -69q0 -47 -32.5 -75t-85.5 -28q-60 0 -87.5 35t-27.5 90q0 72 37 130.5t111.5 93t182.5 34.5q96 0 177 -28t129.5 -83t48.5 -133q0 -70 -37.5 -113.5t-102.5 -43.5q-53 0 -85.5 30zM101.5 314.5q-15.5 -18.5 -15.5 -48.5q0 -29 15 -47.5t43 -18.5t44 20
t16 48t-15.5 46.5t-43.5 18.5t-43.5 -18.5z" />
    <glyph glyph-name="uni0B93" unicode="&#xb93;" horiz-adv-x="769" 
d="M503.5 180q-32.5 30 -32.5 77q0 20 5.5 38t15.5 28q-16 -4 -35.5 -20t-34 -43.5t-14.5 -63.5q0 -67 46.5 -101.5t119.5 -34.5q34 0 76 10l9 -11q-42 -97 -129 -160t-203 -63q-88 0 -141 36.5t-53 100.5q0 51 32 84t87 33q45 0 72.5 -23.5t27.5 -62.5q0 -34 -21.5 -61.5
t-63.5 -27.5q-43 0 -63 30q22 -65 135 -65q91 0 151 37t97 87q-21 -3 -43 -3q-84 0 -140.5 45t-56.5 126q0 62 33.5 104t79.5 62t83 21l11 -18q-20 -9 -29 -31t-9 -45q0 -32 16.5 -50t41.5 -18q34 0 52 33.5t18 79.5q0 63 -36 108t-99.5 68.5t-144.5 23.5q-113 0 -185 -46
t-92 -124q29 28 79 28q51 0 80.5 -26.5t29.5 -69.5q0 -46 -32.5 -74t-85.5 -28q-60 0 -88 35t-28 90q0 72 37 130t112 92.5t183 34.5q97 0 178 -28.5t129 -83.5t48 -133q0 -68 -37 -112.5t-103 -44.5q-53 0 -85.5 30zM105.5 316q-15.5 -19 -15.5 -48t15.5 -47.5t42.5 -18.5
q28 0 44 20t16 48t-15 46.5t-44 18.5q-28 0 -43.5 -19zM234.5 40.5q-11.5 -15.5 -11.5 -40.5q0 -26 12.5 -41t32.5 -15q21 0 34 15.5t13 40.5t-12.5 40.5t-34.5 15.5t-33.5 -15.5zM243 53q-11 -1 -21 -10z" />
    <glyph glyph-name="uni0B94" unicode="&#xb94;" horiz-adv-x="1889" 
d="M498.5 180q-32.5 30 -32.5 77q0 19 5.5 37.5t15.5 28.5q-15 -3 -35 -19t-34.5 -44.5t-14.5 -64.5q0 -64 44 -99.5t120 -35.5q45 0 78 10l9 -11q-20 -63 -63 -112t-100 -75.5t-116 -26.5q-65 0 -108 32t-43 86q0 29 13 42t30 13q12 0 18 -5l-1 -22q0 -49 29 -75t81 -26
q64 0 114 35t75 79q-22 -3 -46 -3q-86 0 -140.5 45.5t-54.5 123.5q0 62 32.5 104.5t78.5 63.5t85 21l10 -18q-20 -9 -28.5 -29.5t-8.5 -42.5q0 -35 16.5 -53.5t41.5 -18.5q32 0 51 31.5t19 79.5q0 96 -79 148t-201 52q-112 0 -184.5 -46t-92.5 -124q29 28 80 28
q50 0 79.5 -26t29.5 -69q0 -47 -32.5 -75t-85.5 -28q-60 0 -87.5 35t-27.5 90q0 72 37 130.5t111.5 93t182.5 34.5q96 0 177 -28t129.5 -83t48.5 -133q0 -70 -37.5 -113.5t-102.5 -43.5q-53 0 -85.5 30zM101.5 314.5q-15.5 -18.5 -15.5 -48.5q0 -29 15 -47.5t43 -18.5t44 20
t16 48t-15.5 46.5t-43.5 18.5t-43.5 -18.5zM1887 523q0 -14 -9 -17.5t-27 -3.5h-125v-400q1 -41 3 -60.5t7 -33.5q-18 -15 -46 -15q-24 0 -35.5 13t-11.5 48v448h-137q-36 0 -55.5 -9.5t-28.5 -33.5t-9 -68l1 -296q1 -36 3 -54.5t7 -32.5q-19 -15 -50 -15q-22 0 -32 13
t-10 48v223q0 49 -24.5 104t-79 93.5t-140.5 38.5q-94 0 -160.5 -60.5t-66.5 -212.5q0 -104 34 -155.5t88 -61.5q-27 24 -38.5 61t-11.5 74q0 77 37 121.5t103 44.5q69 0 107 -45.5t38 -120.5q0 -88 -50 -129.5t-130 -41.5q-102 0 -161.5 61t-59.5 199q0 156 73.5 230
t195.5 74q99 0 165.5 -44.5t86.5 -111.5q0 80 35.5 111t116.5 31h395q2 -5 2 -14zM994.5 59q21.5 -33 58.5 -33t58.5 33.5t21.5 95.5q0 56 -19 91.5t-59 35.5q-39 0 -60.5 -36.5t-21.5 -94.5q0 -59 21.5 -92z" />
    <glyph glyph-name="uni0B95" unicode="&#xb95;" horiz-adv-x="807" 
d="M701.5 281q55.5 -40 55.5 -122q0 -78 -49.5 -125t-136.5 -47q-60 0 -60 26q0 14 9 19q14 -3 33 -3q58 0 88 31t30 93q0 65 -34.5 98t-118.5 33h-33v-52q0 -123 -66 -184t-170 -61q-94 0 -146.5 48.5t-52.5 123.5q0 54 28.5 96.5t92.5 57.5v183q0 22 9 31.5t28 9.5h446
q3 -5 3 -14q0 -14 -9.5 -18t-26.5 -4h-136v-180h45q116 0 171.5 -40zM208 319q22 2 34 2h159v180h-176q-17 0 -17 -18v-164zM401 284h-161q-75 0 -110.5 -34.5t-35.5 -90.5q0 -58 40.5 -91.5t106.5 -33.5q77 0 118.5 47.5t41.5 142.5v60z" />
    <glyph glyph-name="uni0B99" unicode="&#xb99;" horiz-adv-x="1002" 
d="M907 503v-503h-563v30q104 19 189.5 71t85.5 149q0 45 -20.5 73.5t-65.5 28.5q-53 0 -83 -42t-30 -115v-27q-17 -15 -45 -15q-18 0 -29 4.5t-11 12.5v331h-210v-501h-38v537h495q3 -5 3 -15q0 -14 -9.5 -17.5t-28.5 -3.5h-127v-165q42 75 135 75q77 0 113.5 -44
t36.5 -111q0 -80 -53 -137.5t-128 -84.5h298v444q0 12 -1 30.5t-6 28.5q22 9 45 9q47 0 47 -43z" />
    <glyph glyph-name="uni0B9A" unicode="&#xb9a;" horiz-adv-x="702" 
d="M658 310q0 -10 -6 -18t-17 -8h-158v-52q0 -123 -64.5 -184.5t-163.5 -61.5q-60 0 -105 23t-69.5 62.5t-24.5 88.5q0 53 28.5 95.5t91.5 57.5v183q0 22 9 31.5t28 9.5h441q3 -7 3 -13q0 -12 -12 -17.5t-38 -5.5h-124v-181h179q2 -6 2 -10zM206 319q9 1 28 1h159v181h-170
q-17 0 -17 -18v-164zM393 284h-150q-78 0 -113.5 -34t-35.5 -90q0 -61 42 -94t104 -33q73 0 113 48t40 143v60z" />
    <glyph glyph-name="uni0B9C" unicode="&#xb9c;" horiz-adv-x="839" 
d="M751.5 95.5q42.5 -39.5 42.5 -105.5q0 -69 -44 -105.5t-115 -37.5q-73 0 -108 39t-35 99q0 29 9 56q-27 -19 -67 -66q-36 -41 -64 -66.5t-68 -43.5t-91 -18q-73 0 -119 38t-46 112q0 73 48.5 114.5t117.5 60.5t194 40q113 20 175.5 39.5t95 54t32.5 93.5q0 55 -28 80.5
t-73 25.5q-63 0 -95 -50t-41 -160h-87q-2 107 -39.5 159.5t-117.5 52.5q-50 0 -81.5 -19.5t-43.5 -55.5q20 25 65 25q49 0 78 -26t29 -70q0 -46 -32.5 -73.5t-85.5 -27.5q-58 0 -84.5 33.5t-26.5 83.5q0 51 24.5 90.5t70 61.5t106.5 22q79 0 128.5 -38.5t60.5 -116.5
q15 72 59.5 113.5t129.5 41.5q82 0 126 -40t44 -115q0 -74 -41.5 -115t-105.5 -58.5t-182 -36.5l-38 -6q-108 -18 -170 -37.5t-94 -54t-32 -91.5q0 -53 27.5 -78t67.5 -25q31 0 58.5 13.5t49.5 34t56 56.5q41 44 71.5 71.5t73.5 46.5t96 19q77 0 119.5 -39.5zM105.5 405.5
q-15.5 -18.5 -15.5 -48.5q0 -28 15.5 -46.5t41.5 -18.5q28 0 44.5 20.5t16.5 48.5q0 27 -15 45t-43 18q-29 0 -44.5 -18.5zM687.5 -84.5q22.5 30.5 22.5 75.5q0 49 -21.5 74t-59.5 25q-43 0 -63 -29t-20 -73q0 -50 21 -76.5t59 -26.5q39 0 61.5 30.5z" />
    <glyph glyph-name="uni0B9E" unicode="&#xb9e;" horiz-adv-x="1206" 
d="M1123 336.5q33 -59.5 33 -145.5q0 -370 -549 -370q-209 0 -332.5 57t-172.5 144.5t-49 190.5q0 87 30 156.5t75 111t88 51.5q8 2 11 2q15 0 23 -17q-60 -35 -103 -109t-43 -191q0 -171 115 -264t356 -93q228 0 347 74.5t119 251.5q0 152 -90 152q-56 0 -87.5 -51
t-31.5 -124v-64q0 -39 2.5 -58t6.5 -33q-19 -15 -47 -15q-24 0 -35.5 13t-11.5 48v447h-136q-143 0 -227.5 -60.5t-84.5 -214.5q0 -92 32 -143t84 -60q-48 43 -48 135q0 77 36.5 121.5t101.5 44.5q68 0 106.5 -45.5t38.5 -120.5q0 -88 -50 -129.5t-133 -41.5q-99 0 -163 60
t-64 188q0 157 96.5 229.5t279.5 72.5h367q3 -5 3 -15q0 -14 -9.5 -17.5t-28.5 -3.5h-118l1 -201q41 96 144 96q85 0 118 -59.5zM456.5 59q21.5 -33 57.5 -33q37 0 58.5 34t21.5 96q0 55 -19 90.5t-58 35.5q-40 0 -61 -36t-21 -95t21.5 -92z" />
    <glyph glyph-name="uni0B9F" unicode="&#xb9f;" horiz-adv-x="799" 
d="M789 0h-668q-16 0 -21.5 10t-5.5 29v431q0 48 -7 66q9 4 21 6.5t21 2.5q49 0 49 -43v-466h611v-36z" />
    <glyph glyph-name="uni0BA3" unicode="&#xba3;" horiz-adv-x="1609" 
d="M1607 522q0 -14 -9.5 -17.5t-27.5 -3.5h-123v-399q0 -66 10 -94q-18 -15 -47 -15q-24 0 -35 13.5t-11 47.5v447h-85q-80 0 -145 -27q55 -45 84.5 -113.5t29.5 -157.5q0 -99 -43 -157.5t-125 -58.5q-83 0 -122 54t-39 150q0 94 32.5 164t92.5 114q-67 42 -162 42
q-96 0 -169 -37q66 -46 101.5 -115.5t35.5 -157.5q0 -96 -44 -155t-128 -59q-79 0 -117 54t-38 152q0 87 27.5 155.5t80.5 115.5q-82 48 -206 48q-143 0 -235.5 -66.5t-92.5 -218.5q0 -92 35.5 -144t86.5 -60q-27 23 -38.5 60t-11.5 75q0 78 36.5 122t101.5 44
q68 0 106 -45.5t38 -120.5q0 -88 -50 -129.5t-128 -41.5q-97 0 -158.5 60t-61.5 185q0 157 100.5 237.5t276.5 80.5q143 0 246 -54q89 53 214 53q121 0 206 -50q82 38 190 38h319q2 -5 2 -15zM1078 443q-54 -38 -85.5 -100.5t-31.5 -150.5q0 -76 26.5 -112.5t73.5 -36.5
q101 0 101 158q0 161 -84 242zM664 441q-100 -82 -100 -247q0 -151 99 -151q52 0 76.5 41t24.5 113q0 164 -100 244zM230 59q21 -33 57 -33t57 33.5t21 96.5q0 55 -18.5 90.5t-57.5 35.5q-38 0 -59 -36.5t-21 -94.5q0 -59 21 -92z" />
    <glyph glyph-name="uni0BA4" unicode="&#xba4;" horiz-adv-x="757" 
d="M654 267.5q53 -52.5 53 -161.5q0 -76 -36.5 -130.5t-103.5 -83.5t-158 -29h-154q-55 0 -89.5 -17t-35.5 -51q-2 -28 20 -42q-2 -14 -14.5 -24t-31.5 -10q-24 0 -34.5 16.5t-10.5 42.5q0 58 50 90t143 32h134q120 0 177.5 57t57.5 151q0 90 -33 133t-106 43h-5v-52
q0 -83 -31 -138t-83 -81t-116 -26q-59 0 -103.5 23t-69 62t-24.5 88q0 52 26.5 93.5t86.5 58.5v184q0 22 9 31.5t28 9.5h446q3 -7 3 -15q0 -14 -9.5 -17.5t-28.5 -3.5h-134v-180h18q106 -1 159 -53.5zM201 319q24 2 37 2h155v180h-175q-17 0 -17 -18v-164zM393 284l-146 1
q-82 -1 -117.5 -35t-35.5 -90q0 -61 41 -93.5t104 -32.5q72 0 113 45.5t41 134.5v70z" />
    <glyph glyph-name="uni0BA8" unicode="&#xba8;" horiz-adv-x="783" 
d="M698 332.5q32 -63.5 32 -167.5q0 -107 -28 -172.5t-93.5 -97.5t-179.5 -32h-152q-55 0 -89.5 -17t-34.5 -51q-2 -28 19 -42q-2 -14 -14 -24t-31 -10q-24 0 -35 16.5t-11 42.5q0 58 50.5 90t143.5 32h153q84 0 131.5 27t66.5 83t19 151q0 83 -19 130t-66 47
q-30 0 -55.5 -22.5t-41 -60.5t-15.5 -82v-63q0 -73 10 -102q-19 -15 -47 -15q-24 0 -35.5 13t-11.5 48v447h-210v-501h-39v537h487q3 -7 3 -15q0 -13 -9.5 -17t-27.5 -4h-120v-191q43 86 134 86q84 0 116 -63.5z" />
    <glyph glyph-name="uni0BA9" unicode="&#xba9;" horiz-adv-x="1213" 
d="M1212 522q0 -14 -9.5 -17.5t-28.5 -3.5h-124v-399q0 -40 2 -59.5t8 -34.5q-19 -15 -47 -15q-24 0 -35.5 13t-11.5 48v447h-74q-93 0 -167 -35q60 -45 92.5 -111.5t32.5 -150.5q0 -98 -44.5 -157.5t-128.5 -59.5q-78 0 -116.5 54t-38.5 150q0 88 31 155.5t89 112.5
q-85 55 -221 55q-142 0 -233 -67.5t-91 -220.5q0 -92 35.5 -143.5t86.5 -59.5q-50 43 -50 136q0 77 36.5 121t101.5 44q68 0 106 -45.5t38 -120.5q0 -88 -50 -129.5t-129 -41.5q-97 0 -158 59.5t-61 183.5q0 160 98 241t274 81q157 0 264 -62q89 47 210 47h310q3 -7 3 -15z
M673 436q-110 -82 -110 -244q0 -76 26.5 -112.5t73.5 -36.5q51 0 76.5 42t25.5 115q0 155 -92 236zM230 59q21 -33 57 -33t57 33.5t21 96.5q0 55 -18.5 90.5t-57.5 35.5q-38 0 -59 -36.5t-21 -94.5q0 -59 21 -92z" />
    <glyph glyph-name="uni0BAA" unicode="&#xbaa;" horiz-adv-x="831" 
d="M99.5 10q-5.5 10 -5.5 29v438q0 12 -1 30.5t-6 28.5q9 4 21 6.5t21 2.5q49 0 49 -43v-466h475v441q0 12 -1 30.5t-6 28.5q9 4 21 6.5t21 2.5q49 0 49 -43v-463q0 -39 -28 -39h-588q-16 0 -21.5 10z" />
    <glyph glyph-name="uni0BAE" unicode="&#xbae;" horiz-adv-x="851" 
d="M698.5 509.5q51.5 -41.5 77 -110t25.5 -148.5q0 -110 -38 -180.5t-151 -70.5h-491q-16 0 -21.5 10t-5.5 29v431q0 48 -7 66q22 9 45 9q46 0 46 -43v-466h248v335q0 100 38.5 140t109.5 40q73 0 124.5 -41.5zM510 37h92q64 0 99 23.5t47.5 66t12.5 108.5q0 77 -20 139.5
t-58.5 99.5t-91.5 37q-41 0 -61 -27.5t-20 -100.5v-346z" />
    <glyph glyph-name="uni0BAF" unicode="&#xbaf;" horiz-adv-x="973" 
d="M879 502v-463q0 -19 -5.5 -29t-21.5 -10h-428q-16 0 -21.5 10t-5.5 29v4q-61 -56 -155 -56q-79 0 -113.5 36.5t-34.5 103.5v350q0 12 -1 30.5t-6 28.5q22 9 44 9q47 0 47 -43v-354q0 -59 18.5 -85t70.5 -26q77 0 130 62v378q0 12 -1 30.5t-6 28.5q22 9 45 9q46 0 46 -43
v-468h315v443q0 12 -1 30.5t-6 28.5q22 9 44 9q46 0 46 -43z" />
    <glyph glyph-name="uni0BB0" unicode="&#xbb0;" horiz-adv-x="630" 
d="M629 522q0 -14 -9.5 -17.5t-28.5 -3.5h-125l1 -410q0 -100 -54.5 -164.5t-128.5 -94t-130 -30.5q-12 -1 -21 8t-11 22q18 0 34 5q97 28 162 87.5t65 173.5v403l-254 -1v-500h-40v537h537q3 -7 3 -15z" />
    <glyph glyph-name="uni0BB1" unicode="&#xbb1;" horiz-adv-x="801" 
d="M95 0v339q0 93 33.5 152.5t127.5 59.5q58 0 93.5 -34t43.5 -103q29 137 163 137q74 0 114.5 -39t55.5 -107t15 -170q0 -147 -29 -226.5t-98.5 -112.5t-200.5 -33h-141q-55 0 -89.5 -17t-34.5 -51q-2 -28 19 -42q-2 -14 -14 -24t-31 -10q-24 0 -35 16.5t-11 42.5
q0 58 50.5 89.5t143.5 31.5h154q98 0 147 30t66.5 97.5t17.5 196.5q0 96 -9 156t-33 92t-68 32q-54 0 -83 -48t-29 -146v-214q0 -27 3 -52t7 -35q-19 -15 -47 -15q-24 0 -34.5 13t-10.5 48v287q0 75 -20.5 118.5t-64.5 43.5q-42 0 -61 -26t-23 -62.5t-4 -99.5v-315h-83z" />
    <glyph glyph-name="uni0BB2" unicode="&#xbb2;" horiz-adv-x="921" 
d="M113.5 49.5q-60.5 62.5 -60.5 197.5q0 153 80.5 228.5t228.5 75.5q88 0 137.5 -30.5t70 -89.5t22.5 -153v-29q0 -72 4.5 -115t25.5 -72.5t66 -29.5q73 0 106.5 71t33.5 169q0 111 -35 164t-79 75q-2 6 2 15.5t13 17t22 7.5q25 0 53 -30.5t47.5 -92t19.5 -150.5
q0 -124 -46.5 -207.5t-154.5 -83.5q-73 0 -108.5 39.5t-44.5 94t-9 131.5q0 88 -9.5 140.5t-47 86.5t-117.5 34q-101 0 -169 -62.5t-68 -208.5q0 -101 34 -155t88 -63q-27 20 -39 58t-12 79q0 74 37 117.5t105 43.5q69 0 106 -44t37 -118q0 -89 -50 -131t-130 -42
q-99 0 -159.5 62.5zM345.5 60q21.5 34 21.5 96q0 55 -19 90.5t-58 35.5t-60 -36t-21 -94q0 -59 21.5 -92.5t57.5 -33.5t57.5 34z" />
    <glyph glyph-name="uni0BB3" unicode="&#xbb3;" horiz-adv-x="1125" 
d="M1123 523q0 -14 -9 -17.5t-27 -3.5h-125v-400q1 -41 3 -60.5t7 -33.5q-18 -15 -46 -15q-24 0 -35.5 13t-11.5 48v448h-137q-36 0 -55.5 -9.5t-28.5 -33.5t-9 -68l1 -296q1 -36 3 -54.5t7 -32.5q-19 -15 -50 -15q-22 0 -32 13t-10 48v223q0 49 -24.5 104t-79 93.5
t-140.5 38.5q-94 0 -160.5 -60.5t-66.5 -212.5q0 -104 34 -155.5t88 -61.5q-27 24 -38.5 61t-11.5 74q0 77 37 121.5t103 44.5q69 0 107 -45.5t38 -120.5q0 -88 -50 -129.5t-130 -41.5q-102 0 -161.5 61t-59.5 199q0 156 73.5 230t195.5 74q99 0 165.5 -44.5t86.5 -111.5
q0 80 35.5 111t116.5 31h395q2 -5 2 -14zM230.5 59q21.5 -33 58.5 -33t58.5 33.5t21.5 95.5q0 56 -19 91.5t-59 35.5q-39 0 -60.5 -36.5t-21.5 -94.5q0 -59 21.5 -92z" />
    <glyph glyph-name="uni0BB4" unicode="&#xbb4;" horiz-adv-x="858" 
d="M135 -249q-30 35 -30 83q0 45 24 68.5t56 23.5q22 0 35 -12t13 -29q0 -14 -8 -23q-10 3 -19 2q-16 -1 -28 -12t-12 -36q0 -28 18 -44.5t55 -16.5q39 0 72 15.5t79 45.5q24 17 40.5 26.5t32.5 13.5q-20 7 -25 33t-5 85v26h-305q-16 0 -21.5 10t-5.5 29v431q0 48 -7 66
q22 9 45 9q46 0 46 -43v-466h248v336q0 98 38 138.5t107 40.5q75 0 127 -41t77.5 -110.5t25.5 -154.5q0 -105 -38.5 -175t-150.5 -70h-103v-26q0 -48 4.5 -70.5t19 -32.5t45.5 -10h123v-38h-205q-28 0 -50.5 -11t-57.5 -35q-42 -30 -76.5 -45.5t-82.5 -15.5q-71 0 -101 35z
M609 36q92 0 125.5 48.5t33.5 142.5q0 127 -45 205.5t-125 78.5q-41 0 -61.5 -27.5t-20.5 -98.5v-349h93z" />
    <glyph glyph-name="uni0BB5" unicode="&#xbb5;" horiz-adv-x="1068" 
d="M114.5 48q-61.5 61 -61.5 191q0 152 87 231.5t238 79.5q97 0 166.5 -34t105 -96.5t35.5 -145.5q0 -73 -24 -133.5t-65 -104.5h294v436q0 13 -1 31t-6 28q22 9 45 9q46 0 46 -42l-1 -498h-486v25q47 35 79.5 100t32.5 152q0 107 -57 171t-175 64q-115 0 -192.5 -65
t-77.5 -212q0 -97 35.5 -150t91.5 -62q-27 20 -38.5 58t-11.5 78q0 76 37 120.5t102 44.5q68 0 106 -45.5t38 -121.5q0 -90 -50 -132t-130 -38q-101 0 -162.5 61zM350.5 56.5q21.5 34.5 21.5 98.5q0 56 -19 91.5t-58 35.5t-60 -36t-21 -95q0 -61 21.5 -95t57.5 -30
q36 -4 57.5 30.5z" />
    <glyph glyph-name="uni0BB6" unicode="&#xbb6;" horiz-adv-x="1065" 
d="M967 537v-36l-2 -322q0 -60 -25.5 -103.5t-68.5 -66t-93 -22.5q-179 0 -179 204l-2 309h-130l-1 -321q0 -60 -26 -103.5t-69 -66t-93 -22.5q-95 0 -138.5 52.5t-43.5 151.5l-2 294q0 34 -7 47q7 3 20 5.5t21 2.5q49 0 49 -42v-295q1 -79 22 -124t82 -45q64 0 83.5 46
t19.5 122v335h583zM884 501h-204l1 -298q0 -78 20.5 -123.5t80.5 -45.5q63 0 82.5 46t19.5 122v299z" />
    <glyph glyph-name="uni0BB7" unicode="&#xbb7;" horiz-adv-x="1373" 
d="M1288 390v-390h-250v-246h-76v246h-478v25q47 35 79.5 100.5t32.5 153.5q0 109 -56.5 171.5t-173.5 62.5q-116 0 -192.5 -65t-76.5 -212q0 -98 35.5 -151t91.5 -62q-27 22 -38.5 59t-11.5 77q0 76 37 120.5t102 44.5q68 0 106 -45.5t38 -121.5q0 -88 -50 -130t-130 -40
q-101 0 -162.5 61.5t-61.5 191.5q0 153 87 232t242 79q146 0 223.5 -72t77.5 -203q0 -143 -90 -240h369v168h-11q-97 0 -149 42.5t-52 125.5q0 75 40 115t107 40q73 0 107 -53t34 -173v-46q51 17 90 50.5t76 84.5h84zM962 242v52q0 72 -8 113.5t-25.5 59.5t-47.5 18
q-41 0 -65 -30t-24 -82q0 -67 41.5 -99t115.5 -32h13zM1204 36v284q-64 -83 -166 -107v-177h166zM235.5 57.5q21.5 -33.5 57.5 -31.5q36 -2 57.5 32t21.5 97q0 56 -19 91.5t-58 35.5t-60 -36t-21 -95q0 -60 21.5 -93.5z" />
    <glyph glyph-name="uni0BB8" unicode="&#xbb8;" horiz-adv-x="1237" 
d="M112 48q-59 61 -59 199q0 155 73 231t189 76q93 -1 154 -49t95 -127q0 75 35.5 125.5t138.5 50.5q78 0 117 -33t51 -86.5t12 -137.5v-43v-48q0 -91 16.5 -132.5t67.5 -41.5q47 0 79 36t47.5 93t15.5 121q2 71 -17 120.5t-44.5 75.5t-47.5 37q-2 6 2 15.5t12.5 16.5
t21.5 7q25 0 53 -31.5t46.5 -91t16.5 -138.5q0 -129 -50 -217.5t-155 -88.5q-68 0 -100 33.5t-39.5 86.5t-7.5 147v67q0 60 -6.5 100t-27.5 65t-63 25q-100 0 -98 -135l1 -281q0 -60 9 -87q-19 -15 -49 -15q-22 0 -32.5 13.5t-10.5 47.5v180q0 64 -25.5 129.5t-80 109.5
t-135.5 44q-91 0 -157.5 -62.5t-66.5 -215.5q0 -104 33.5 -155t87.5 -61q-26 24 -37 61.5t-11 75.5q0 75 36.5 118.5t102.5 43.5q68 0 106 -45t38 -120q0 -87 -50 -128.5t-130 -41.5q-98 0 -157 61zM342.5 59.5q21.5 33.5 21.5 95.5q0 56 -19 91.5t-59 35.5
q-39 0 -60.5 -36.5t-21.5 -94.5q0 -59 21.5 -92t58.5 -33t58.5 33.5z" />
    <glyph glyph-name="uni0BB9" unicode="&#xbb9;" horiz-adv-x="1535" 
d="M109 -283q-11 17 -11 43q0 57 50.5 88.5t143.5 31.5h857q99 0 149 27t69.5 95t19.5 203q0 105 -9.5 169t-34 96.5t-69.5 32.5q-53 0 -80.5 -45.5t-27.5 -135.5v-227q0 -27 3 -52t7 -35q-19 -15 -46 -15q-24 0 -35 13t-11 48v284q0 75 -22 120t-69 45q-37 0 -55 -25
t-22.5 -65t-4.5 -105v-308h-432v25q47 35 79.5 100t32.5 153q0 108 -58 171.5t-178 63.5q-115 0 -186 -65t-71 -211q0 -100 33.5 -152t86.5 -61q-27 21 -38 55.5t-11 70.5q0 72 36.5 113t102.5 41q68 0 106 -42.5t38 -113.5q0 -83 -50 -122t-131 -39q-99 0 -158.5 61
t-59.5 196q0 154 81.5 230.5t236.5 76.5q151 0 229 -71.5t78 -203.5q0 -76 -24 -137t-66 -105h239v315q0 86 33.5 144t122.5 58q54 0 94 -33t49 -107q30 140 163 140q75 0 115 -40t54.5 -112t14.5 -186q0 -151 -30 -230t-98.5 -109.5t-194.5 -30.5h-856q-56 0 -90 -16.5
t-35 -49.5q-2 -28 20 -43q-2 -14 -14 -24t-31 -10q-24 0 -35 17zM345.5 57.5q21.5 31.5 21.5 88.5q0 52 -18.5 84.5t-58.5 32.5q-39 0 -60 -33.5t-21 -88.5q0 -54 21.5 -84.5t57.5 -30.5t57.5 31.5z" />
    <glyph glyph-name="uni0BBE" unicode="&#xbbe;" horiz-adv-x="648" 
d="M646 521q0 -13 -10.5 -16.5t-33.5 -3.5h-117v-402q0 -37 2.5 -56t7.5 -35q-21 -15 -46 -15q-24 0 -35.5 13t-11.5 44v451l-254 1v-502h-41v537h536q3 -10 3 -16z" />
    <glyph glyph-name="uni0BBF" unicode="&#xbbf;" horiz-adv-x="297" 
d="M117 6q-10 13 -10 48v378q0 156 -46 247.5t-165 91.5q-67 0 -102.5 -32.5t-35.5 -87.5q0 -52 26.5 -80.5t68.5 -33.5q1 -6 -5.5 -14.5t-13.5 -10.5q-68 8 -106.5 44t-38.5 95q0 70 55 114.5t157 44.5q143 0 216 -96t73 -278v-341q0 -54 10 -87q-19 -15 -48 -15
q-25 0 -35 13z" />
    <glyph glyph-name="uni0BC0" unicode="&#xbc0;" 
d="M-363.5 535.5q-42.5 16.5 -71.5 52.5t-29 91q0 78 58 119t148 41q86 -1 127 -39t41 -91q0 -48 -31.5 -75t-79.5 -27q-50 0 -79.5 28t-29.5 73q0 36 23.5 64.5t61.5 32.5q-22 2 -32 2q-64 0 -103 -31.5t-39 -90.5q0 -69 41 -105t90 -43l-9 -18q-44 0 -86.5 16.5z
M-144 656.5q16 18.5 16 51.5q0 31 -15 50.5t-45 19.5t-46 -20.5t-16 -50.5t15.5 -49.5t45.5 -19.5q29 0 45 18.5z" />
    <glyph glyph-name="uni0BC1" unicode="&#xbc1;" horiz-adv-x="392" 
d="M92 306q-35 36 -35 91q0 33 13.5 60t39.5 44h-267v36h320q82 0 125.5 -38t43.5 -98q0 -62 -41 -96.5t-101 -34.5q-63 0 -98 36zM236.5 328.5q22.5 26.5 22.5 69.5q0 41 -21.5 66.5t-59.5 25.5q-39 0 -61 -26t-22 -67q0 -42 22 -68.5t58 -26.5q39 0 61.5 26.5z" />
    <glyph glyph-name="uni0BC2" unicode="&#xbc2;" horiz-adv-x="601" 
d="M111.5 308q-34.5 38 -34.5 97q0 52 25 96h-268v36h291q78 93 211 93q85 0 145 -45t60 -139q0 -63 -27 -102.5t-60 -56.5t-52 -17q-21 0 -19 20q49 10 72.5 52t23.5 96q0 74 -40.5 115.5t-109.5 41.5q-42 0 -84.5 -15t-69.5 -43h26q77 0 114 -37.5t37 -96.5
q0 -64 -41 -98.5t-101 -34.5q-64 0 -98.5 38zM256 328.5q22 26.5 22 71.5q0 44 -21.5 70t-59.5 26t-60.5 -27t-22.5 -71q0 -43 22 -69.5t60 -26.5t60 26.5z" />
    <glyph glyph-name="uni0BC6" unicode="&#xbc6;" horiz-adv-x="792" 
d="M55 315q0 110 33.5 199t109 143.5t196.5 54.5q143 0 217 -75t74 -212v-333q0 -35 2.5 -53.5t7.5 -33.5q-21 -15 -46 -15q-24 0 -35 13.5t-11 47.5l1 365q0 108 -51 186t-169 78q-95 0 -159 -48.5t-95 -131.5t-31 -186q0 -270 167 -290q-29 23 -40.5 59.5t-11.5 76.5
q0 78 37.5 121t104.5 43q69 0 107.5 -45.5t38.5 -121.5q0 -88 -50.5 -129t-136.5 -41q-260 0 -260 328zM394.5 59.5q21.5 33.5 21.5 95.5q0 56 -19 91.5t-58 35.5q-40 0 -61 -36t-21 -95t21.5 -92t57.5 -33q37 0 58.5 33.5z" />
    <glyph glyph-name="uni0BC7" unicode="&#xbc7;" horiz-adv-x="652" 
d="M153 77q-91 90 -91 268q0 171 87 269.5t247 98.5q85 0 134 -40.5t49 -127.5q0 -71 -38 -113t-107 -42q-66 0 -103 40t-37 112q0 40 12 76t38 58q-93 -13 -146.5 -93.5t-53.5 -230.5q0 -291 208 -330q-51 42 -51 133q0 74 37 115.5t104 41.5q69 0 107 -43t38 -116
q0 -85 -49.5 -125.5t-134.5 -40.5q-159 0 -250 90zM475 463.5q19 32.5 19 82.5q0 61 -21.5 94.5t-58.5 33.5q-36 0 -57 -33t-21 -91q0 -54 20.5 -86.5t59.5 -32.5q40 0 59 32.5zM480.5 58q21.5 34 21.5 95q0 51 -18.5 85t-56.5 34q-39 0 -61.5 -34.5t-22.5 -90.5
q0 -57 21.5 -90t57.5 -33q37 0 58.5 34z" />
    <glyph glyph-name="uni0BC8" unicode="&#xbc8;" horiz-adv-x="1182" 
d="M990 512q68 -39 105 -109.5t37 -161.5q0 -79 -29 -137t-78 -87.5t-106 -29.5q-9 1 -15.5 7.5t-7.5 15.5q41 6 75.5 34t56 77.5t21.5 117.5q0 90 -30 151.5t-81.5 92t-116.5 30.5q-67 0 -125 -34q67 -46 102.5 -115.5t35.5 -159.5q0 -98 -43.5 -157.5t-124.5 -59.5
q-76 0 -113 53.5t-37 153.5q0 87 26 157t74 117q-80 45 -196 45q-139 0 -231 -68.5t-92 -217.5q0 -91 35 -143t87 -61q-27 23 -38.5 59.5t-11.5 76.5q0 75 36.5 119t101.5 44q68 0 106 -45t38 -121q0 -86 -50 -127.5t-129 -41.5q-96 0 -157.5 60t-61.5 184q0 158 99.5 239
t271.5 81q137 0 234 -50q73 50 173 50q91 0 159 -39zM650 444q-43 -40 -67.5 -102.5t-24.5 -145.5q0 -153 92 -153q50 0 74 41t24 115q0 165 -98 245zM230 58.5q21 -32.5 57 -32.5t57 33.5t21 94.5q0 56 -18.5 91.5t-57.5 35.5t-59.5 -36.5t-20.5 -95.5q0 -58 21 -90.5z" />
    <glyph glyph-name="uni0BCA" unicode="&#xbca;" horiz-adv-x="2035" 
d="M669 92q0 -35 2.5 -53.5t7.5 -33.5q-19 -15 -46 -15q-24 0 -34.5 13.5t-10.5 47.5v365q0 108 -51 186t-169 78q-95 0 -159 -48.5t-95 -131.5t-31 -186q0 -270 168 -290q-52 41 -52 136q0 78 37.5 121t104.5 43q69 0 107 -45.5t38 -121.5q0 -88 -50.5 -129t-136.5 -41
q-259 0 -259 328q0 172 80.5 284.5t257.5 112.5q143 0 217 -75t74 -212v-333zM1090 546q8 -8 8 -20t-8 -20t-19 -8q-12 0 -20 8t-8 20t8 20t20 8q11 0 19 -8zM2038 521q0 -13 -10.5 -16.5t-33.5 -3.5h-117v-402q0 -37 2.5 -56t7.5 -35q-21 -15 -46 -15t-36 13t-11 44v451
l-254 1v-502h-41v537h536q3 -10 3 -16zM952 487q-8 8 -8 20t8 20t19 8q12 0 20 -8t8 -20t-8 -20t-20 -8q-11 0 -19 8zM1190 527q8 -8 8 -20t-8 -20t-19 -8q-12 0 -20 8t-8 20t8 20t20 8q11 0 19 -8zM908 471q8 -8 8 -20t-8 -20t-20 -8q-11 0 -19 8t-8 20t8 20t19 8
q12 0 20 -8zM1234 431q-8 8 -8 20t8 20t20 8q11 0 19 -8t8 -20t-8 -20t-19 -8q-12 0 -20 8zM812 347q-8 8 -8 20t8 20t19 8q12 0 20 -8t8 -20t-8 -20t-20 -8q-11 0 -19 8zM1291 347q-8 8 -8 20t8 20t20 8q11 0 19 -8t8 -20t-8 -20t-19 -8q-12 0 -20 8zM832 247q-8 -8 -20 -8
q-11 0 -19 8t-8 20t8 20t19 8q12 0 20 -8t8 -20t-8 -20zM1349 287q8 -8 8 -20t-8 -20t-19 -8q-12 0 -20 8t-8 20t8 20t20 8q11 0 19 -8zM262.5 59q21.5 -33 58.5 -33t58.5 33.5t21.5 95.5q0 56 -19 91.5t-59 35.5q-39 0 -60.5 -36.5t-21.5 -94.5q0 -59 21.5 -92zM853 189
q8 -8 8 -20t-8 -20t-20 -8q-11 0 -19 8t-8 20t8 20t19 8q12 0 20 -8zM1328 189q8 -8 8 -20t-8 -20t-19 -8q-12 0 -20 8t-8 20t8 20t20 8q11 0 19 -8zM908 106q8 -8 8 -20t-8 -20t-20 -8q-11 0 -19 8t-8 20t8 20t19 8q12 0 20 -8zM1273 106q8 -8 8 -20t-8 -20t-19 -8
q-12 0 -20 8t-8 20t8 20t20 8q11 0 19 -8zM993 49q8 -8 8 -20t-8 -20t-20 -8q-11 0 -19 8t-8 20t8 20t19 8q12 0 20 -8zM1188 49q8 -8 8 -20t-8 -20t-19 -8q-12 0 -20 8t-8 20t8 20t20 8q11 0 19 -8zM1090 30q8 -8 8 -20t-8 -20t-19 -8q-12 0 -20 8t-8 20t8 20t20 8
q11 0 19 -8z" />
    <glyph glyph-name="uni0BCB" unicode="&#xbcb;" horiz-adv-x="1896" 
d="M549 269q38 -43 38 -116q0 -85 -49.5 -125.5t-134.5 -40.5q-159 0 -250 90t-91 268q0 171 87 269.5t247 98.5q85 0 134 -40.5t49 -127.5q0 -71 -38 -113t-107 -42q-66 0 -103 40t-37 112q0 40 12 76t38 58q-93 -13 -146.5 -93.5t-53.5 -230.5q0 -291 208 -330
q-51 42 -51 133q0 74 37 115.5t104 41.5q69 0 107 -43zM357 641q-21 -33 -21 -91q0 -54 20.5 -86.5t59.5 -32.5q40 0 59 32.5t19 82.5q0 61 -21.5 94.5t-58.5 33.5q-36 0 -57 -33zM954 544q8 -8 8 -20t-8 -20t-19 -8q-12 0 -20 8t-8 20t8 20t20 8q11 0 19 -8zM1891 521
q0 -13 -11 -16.5t-33 -3.5h-117v-402q0 -38 2 -57t8 -34q-21 -15 -47 -15q-24 0 -35.5 13t-11.5 44v451l-254 1v-502h-41v537h537q3 -10 3 -16zM816 485q-8 8 -8 20t8 20t19 8q12 0 20 -8t8 -20t-8 -20t-20 -8q-11 0 -19 8zM1054 525q8 -8 8 -20t-8 -20t-19 -8q-12 0 -20 8
t-8 20t8 20t20 8q11 0 19 -8zM772 469q8 -8 8 -20t-8 -20t-20 -8q-11 0 -19 8t-8 20t8 20t19 8q12 0 20 -8zM1098 429q-8 8 -8 20t8 20t20 8q11 0 19 -8t8 -20t-8 -20t-19 -8q-12 0 -20 8zM676 345q-8 8 -8 20t8 20t19 8q12 0 20 -8t8 -20t-8 -20t-20 -8q-11 0 -19 8z
M1155 345q-8 8 -8 20t8 20t20 8q11 0 19 -8t8 -20t-8 -20t-19 -8q-12 0 -20 8zM696 245q-8 -8 -20 -8q-11 0 -19 8t-8 20t8 20t19 8q12 0 20 -8t8 -20t-8 -20zM1213 285q8 -8 8 -20t-8 -20t-19 -8q-12 0 -20 8t-8 20t8 20t20 8q11 0 19 -8zM480.5 58q21.5 34 21.5 95
q0 51 -18.5 85t-56.5 34q-39 0 -61.5 -34.5t-22.5 -90.5q0 -57 21.5 -90t57.5 -33q37 0 58.5 34zM717 187q8 -8 8 -20t-8 -20t-20 -8q-11 0 -19 8t-8 20t8 20t19 8q12 0 20 -8zM1192 187q8 -8 8 -20t-8 -20t-19 -8q-12 0 -20 8t-8 20t8 20t20 8q11 0 19 -8zM772 104
q8 -8 8 -20t-8 -20t-20 -8q-11 0 -19 8t-8 20t8 20t19 8q12 0 20 -8zM1137 104q8 -8 8 -20t-8 -20t-19 -8q-12 0 -20 8t-8 20t8 20t20 8q11 0 19 -8zM857 47q8 -8 8 -20t-8 -20t-20 -8q-11 0 -19 8t-8 20t8 20t19 8q12 0 20 -8zM1052 47q8 -8 8 -20t-8 -20t-19 -8
q-12 0 -20 8t-8 20t8 20t20 8q11 0 19 -8zM954 28q8 -8 8 -20t-8 -20t-19 -8q-12 0 -20 8t-8 20t8 20t20 8q11 0 19 -8z" />
    <glyph glyph-name="uni0BCC" unicode="&#xbcc;" horiz-adv-x="2500" 
d="M667 92q0 -36 2.5 -54.5t7.5 -32.5q-21 -15 -47 -15q-23 0 -34 13.5t-11 47.5v365q0 108 -50.5 186t-169.5 78q-95 0 -159 -48.5t-94.5 -131.5t-30.5 -186q0 -270 167 -290q-29 23 -40.5 59.5t-11.5 76.5q0 78 37.5 121t104.5 43q69 0 107 -45.5t38 -121.5
q0 -88 -50.5 -129t-136.5 -41q-116 0 -187.5 74t-71.5 254q0 110 33.5 199t109 143.5t195.5 54.5q144 0 218 -74.5t74 -212.5v-333zM1065 544q8 -8 8 -20t-8 -20t-19 -8q-12 0 -20 8t-8 20t8 20t20 8q11 0 19 -8zM2499 523q0 -14 -9 -17.5t-27 -3.5h-125v-400q1 -41 3 -60.5
t7 -33.5q-19 -15 -47 -15q-24 0 -35.5 13t-11.5 48v448h-136q-36 0 -55.5 -9.5t-28.5 -33.5t-9 -68l1 -296q0 -36 2 -54.5t7 -32.5q-19 -15 -49 -15q-22 0 -32.5 13.5t-9.5 47.5v223q0 49 -24.5 104t-79.5 93.5t-141 38.5q-94 0 -160 -60.5t-66 -212.5q0 -104 33.5 -155.5
t88.5 -61.5q-28 24 -39 60.5t-11 74.5q0 78 36.5 122t102.5 44q69 0 107.5 -45.5t38.5 -120.5q0 -88 -50 -129.5t-130 -41.5q-102 0 -161.5 61t-59.5 199q0 156 73.5 230t195.5 74q99 0 165 -44.5t86 -111.5q0 80 35.5 111t116.5 31h395q3 -7 3 -14zM927 485q-8 8 -8 20
t8 20t19 8q12 0 20 -8t8 -20t-8 -20t-20 -8q-11 0 -19 8zM1165 525q8 -8 8 -20t-8 -20t-19 -8q-12 0 -20 8t-8 20t8 20t20 8q11 0 19 -8zM883 469q8 -8 8 -20t-8 -20t-20 -8q-11 0 -19 8t-8 20t8 20t19 8q12 0 20 -8zM1209 429q-8 8 -8 20t8 20t20 8q11 0 19 -8t8 -20
t-8 -20t-19 -8q-12 0 -20 8zM787 345q-8 8 -8 20t8 20t19 8q12 0 20 -8t8 -20t-8 -20t-20 -8q-11 0 -19 8zM1266 345q-8 8 -8 20t8 20t20 8q11 0 19 -8t8 -20t-8 -20t-19 -8q-12 0 -20 8zM807 245q-8 -8 -20 -8q-11 0 -19 8t-8 20t8 20t19 8q12 0 20 -8t8 -20t-8 -20z
M1324 285q8 -8 8 -20t-8 -20t-19 -8q-12 0 -20 8t-8 20t8 20t20 8q11 0 19 -8zM260 59q21 -33 58 -33t58.5 33.5t21.5 95.5q0 56 -19 91.5t-58 35.5q-40 0 -61 -36t-21 -95t21 -92zM1606.5 59q21.5 -33 57.5 -33q37 0 58.5 33.5t21.5 95.5q0 56 -19 91.5t-58 35.5
q-40 0 -61 -36t-21 -95t21.5 -92zM828 187q8 -8 8 -20t-8 -20t-20 -8q-11 0 -19 8t-8 20t8 20t19 8q12 0 20 -8zM1303 187q8 -8 8 -20t-8 -20t-19 -8q-12 0 -20 8t-8 20t8 20t20 8q11 0 19 -8zM883 104q8 -8 8 -20t-8 -20t-20 -8q-11 0 -19 8t-8 20t8 20t19 8q12 0 20 -8z
M1248 104q8 -8 8 -20t-8 -20t-19 -8q-12 0 -20 8t-8 20t8 20t20 8q11 0 19 -8zM968 47q8 -8 8 -20t-8 -20t-20 -8q-11 0 -19 8t-8 20t8 20t19 8q12 0 20 -8zM1163 47q8 -8 8 -20t-8 -20t-19 -8q-12 0 -20 8t-8 20t8 20t20 8q11 0 19 -8zM1065 28q8 -8 8 -20t-8 -20t-19 -8
q-12 0 -20 8t-8 20t8 20t20 8q11 0 19 -8z" />
    <glyph glyph-name="uni0BCD" unicode="&#xbcd;" 
d="M-144.5 683.5q-14.5 14.5 -14.5 35.5t14.5 35.5t36.5 14.5q20 0 34.5 -14.5t14.5 -35.5t-14.5 -35.5t-34.5 -14.5q-22 0 -36.5 14.5z" />
    <glyph glyph-name="uni0BD0" unicode="&#xbd0;" horiz-adv-x="769" 
d="M503.5 180q-32.5 30 -32.5 77q0 19 5.5 37.5t15.5 28.5q-15 -3 -35 -19t-34.5 -44.5t-14.5 -64.5q0 -64 44 -99.5t120 -35.5q45 0 78 10l9 -11q-33 -65 -89.5 -113.5t-125.5 -74.5t-141 -26q-67 0 -112.5 21.5t-67.5 57t-22 77.5q0 32 11 53t26 31t27 11h6q15 0 20 -11
q-12 -18 -18.5 -34t-6.5 -44q0 -58 33.5 -88.5t118.5 -30.5q93 0 165.5 35t104.5 81q-22 -3 -46 -3q-86 0 -140.5 45.5t-54.5 123.5q0 62 32.5 104.5t78.5 63.5t85 21l10 -18q-20 -9 -28.5 -29.5t-8.5 -42.5q0 -35 16.5 -53.5t41.5 -18.5q32 0 51 31.5t19 79.5
q0 97 -79 148.5t-201 51.5q-112 0 -184.5 -45.5t-92.5 -123.5q29 27 79 27t80 -26.5t30 -68.5q0 -47 -32.5 -75t-85.5 -28q-60 0 -88 35.5t-28 90.5q0 72 37 130t112 92.5t183 34.5q96 0 177 -27.5t129.5 -83t48.5 -133.5q0 -70 -37.5 -113.5t-102.5 -43.5q-53 0 -85.5 30z
M105.5 314.5q-15.5 -18.5 -15.5 -48.5q0 -29 15.5 -47.5t42.5 -18.5q28 0 44 20t16 48q0 29 -15 47t-44 18q-28 0 -43.5 -18.5zM294 84q-4 -4 -10 -4t-10 4t-4 10t4 10t10 4t10 -4t4 -10t-4 -10zM250 60v-95h40v64q0 21 11 29.5t28 8.5q28 0 40 -19.5t12 -48.5
q0 -22 -7.5 -37.5t-35.5 -15.5h-105q-8 0 -9.5 3t-1.5 7v5v87q0 11 -2 15q10 2 16 2q14 0 14 -5zM319 -35h17q17 0 17 32q0 24 -5.5 37t-16.5 13q-12 0 -12 -16v-66z" />
    <glyph glyph-name="uni0BD7" unicode="&#xbd7;" horiz-adv-x="1125" 
d="M1123 523q0 -14 -9 -17.5t-27 -3.5h-125v-400q1 -41 3 -60.5t7 -33.5q-18 -15 -46 -15q-24 0 -35.5 13t-11.5 48v448h-137q-36 0 -55.5 -9.5t-28.5 -33.5t-9 -68l1 -296q1 -36 3 -54.5t7 -32.5q-19 -15 -50 -15q-22 0 -32 13t-10 48v223q0 49 -24.5 104t-79 93.5
t-140.5 38.5q-94 0 -160.5 -60.5t-66.5 -212.5q0 -104 34 -155.5t88 -61.5q-27 24 -38.5 61t-11.5 74q0 77 37 121.5t103 44.5q69 0 107 -45.5t38 -120.5q0 -88 -50 -129.5t-130 -41.5q-102 0 -161.5 61t-59.5 199q0 156 73.5 230t195.5 74q99 0 165.5 -44.5t86.5 -111.5
q0 80 35.5 111t116.5 31h395q2 -5 2 -14zM230.5 59q21.5 -33 58.5 -33t58.5 33.5t21.5 95.5q0 56 -19 91.5t-59 35.5q-39 0 -60.5 -36.5t-21.5 -94.5q0 -59 21.5 -92z" />
    <glyph glyph-name="uni0BE6" unicode="&#xbe6;" horiz-adv-x="611" 
d="M128.5 61.5q-63.5 74.5 -63.5 208.5q0 133 63.5 207.5t177.5 74.5q113 0 176.5 -74.5t63.5 -207.5q0 -134 -63.5 -208.5t-176.5 -74.5q-114 0 -177.5 74.5zM420 87.5q39 63.5 39 179.5q0 121 -41.5 184t-114.5 63t-112 -63t-39 -181q0 -120 39.5 -183t114.5 -63t114 63.5
z" />
    <glyph glyph-name="uni0BE7" unicode="&#xbe7;" horiz-adv-x="807" 
d="M719.5 282.5q54.5 -42.5 54.5 -116.5q0 -56 -32 -97t-82.5 -62.5t-105.5 -21.5q-14 0 -21 9t-5 19q73 13 117 50t44 104q0 53 -34.5 87.5t-116.5 34.5h-60v-57q0 -83 -31 -138t-82.5 -81t-115.5 -26q-60 0 -105 22.5t-69.5 62.5t-24.5 90q0 52 27 94.5t87 59.5v180
q0 22 9 31.5t28 9.5h453q3 -6 3 -15q0 -14 -12 -17.5t-43 -3.5h-124v-176h68q119 0 173.5 -42.5zM200 323q22 2 36 2h159v176h-178q-17 -2 -17 -18v-160zM395 289h-152q-78 0 -113.5 -35t-35.5 -91q0 -63 41.5 -96t104.5 -33q73 0 114 48t41 142v65z" />
    <glyph glyph-name="uni0BE8" unicode="&#xbe8;" horiz-adv-x="959" 
d="M944 38v-36l-777 -2q-67 0 -92.5 20.5t-25.5 56.5q0 43 32.5 62t97.5 20q11 0 37 2q-45 6 -79 35t-52 69.5t-18 81.5q0 93 58.5 150t165.5 57q58 0 108.5 -20t83 -64.5t32.5 -115.5q0 -107 -70.5 -163.5t-222.5 -62.5q-8 0 -49.5 -1.5t-56.5 -13t-15 -33.5
q0 -19 14 -31.5t58 -12.5zM128 262q19 -38 55 -61t85 -23q75 0 117 44.5t42 119.5q0 84 -44 125t-113 41q-41 0 -78 -18t-60 -55t-23 -92q0 -43 19 -81z" />
    <glyph glyph-name="uni0BE9" unicode="&#xbe9;" horiz-adv-x="857" 
d="M829 33v-34h-479v30q103 18 185 70.5t82 150.5q0 45 -20.5 74t-65.5 29q-52 0 -83 -42t-31 -116v-6q-17 -15 -45 -15q-18 0 -28.5 4.5t-10.5 12.5v310h-208v-501h-38v537h492q3 -6 3 -15q0 -14 -12 -17.5t-43 -3.5h-110v-164q43 74 137 74q76 0 112.5 -44.5t36.5 -110.5
q0 -81 -48.5 -138.5t-119.5 -84.5h294z" />
    <glyph glyph-name="uni0BEA" unicode="&#xbea;" horiz-adv-x="764" 
d="M693 537v-209q0 -14 -10.5 -25t-24.5 -11h-174v-65q0 -121 -66 -180.5t-167 -59.5q-95 0 -148 48.5t-53 124.5q0 56 28 99.5t92 60.5v176q0 22 9 31.5t28 9.5h400q3 -9 3 -15q0 -14 -12.5 -17.5t-45.5 -3.5h-68v-173h161q5 0 9 3.5t4 9.5v196h35zM206 326q22 2 36 2h159
v173h-172q-12 0 -17.5 -4t-5.5 -14v-157zM401 292h-150q-157 0 -157 -132q0 -62 40.5 -94t107.5 -32q75 0 117 46.5t42 138.5v73z" />
    <glyph glyph-name="uni0BEB" unicode="&#xbeb;" horiz-adv-x="1025" 
d="M941.5 336.5q33.5 -59.5 33.5 -146.5q0 -121 -56 -205t-155 -126t-229 -42q-167 0 -275 63.5t-157.5 164t-49.5 216.5q0 121 46 225.5t155.5 171t288.5 66.5q102 0 185.5 -28t128.5 -64q3 -11 -8.5 -20t-22.5 -8q-62 47 -131 65t-155 18q-203 0 -305 -111t-102 -314
q0 -185 100 -295.5t306 -110.5q158 0 254 81t96 249q0 152 -90 152q-56 0 -87.5 -52t-31.5 -124v-59q0 -73 10 -102q-19 -15 -47 -15q-24 0 -35 13t-11 48v454h-252v-501h-39v537h538q2 -5 2 -14q0 -14 -9 -18t-26 -4h-131v-200q42 95 143 95q85 0 118.5 -59.5z" />
    <glyph glyph-name="uni0BEC" unicode="&#xbec;" horiz-adv-x="1146" 
d="M1136 34v-34h-260v34q49 21 72.5 63t23.5 90q0 110 -103 110q-78 0 -109 -53.5t-31 -123.5v-69q0 -35 -11.5 -48.5t-36.5 -13.5q-27 0 -47 16q5 13 9 46q5 53 5 103q0 61 -29 98t-100 37h-41v-57q0 -83 -31 -138t-82.5 -81t-115.5 -26q-60 0 -105 22.5t-69.5 62.5
t-24.5 90q0 52 27 94.5t87 59.5v180q0 22 9 31.5t28 9.5h441q3 -6 3 -15q0 -14 -12 -17.5t-43 -3.5h-112v-176h62q67 0 110 -24t63 -64q49 97 172 97q81 0 127 -40t46 -107q0 -44 -23.5 -87.5t-69.5 -65.5h171zM200 323q22 2 36 2h159v176h-178q-17 -2 -17 -18v-160z
M395 289h-152q-78 0 -113.5 -35t-35.5 -92q0 -63 41.5 -95.5t104.5 -32.5q73 0 114 48t41 142v65z" />
    <glyph glyph-name="uni0BED" unicode="&#xbed;" horiz-adv-x="808" 
d="M807 523q0 -14 -9.5 -18t-26.5 -4h-125v-399q0 -40 2 -59.5t7 -34.5q-18 -15 -46 -15q-24 0 -35.5 13t-11.5 48v447h-151q-142 0 -227.5 -61.5t-85.5 -215.5q0 -91 32.5 -141t83.5 -59q-29 23 -40.5 59.5t-11.5 76.5q0 77 37.5 120.5t103.5 43.5q70 0 108.5 -45.5
t38.5 -120.5q0 -87 -50 -129t-127 -42q-98 0 -159 59.5t-61 182.5q0 162 94 235t268 73h390q2 -10 2 -14zM226 59.5q21 -33.5 56 -33.5q39 0 60.5 33.5t21.5 96.5q0 55 -19 90.5t-58 35.5q-40 0 -61 -36t-21 -94q0 -59 21 -92.5z" />
    <glyph glyph-name="uni0BEE" unicode="&#xbee;" horiz-adv-x="1057" 
d="M960 -3q0 -48 1.5 -62t8.5 -18q-18 -18 -48 -18q-24 0 -35 16t-11 55v183h-145q-52 -113 -174.5 -167.5t-265.5 -54.5q-92 0 -150 21t-84.5 55t-26.5 74q0 56 55 82t180 26h166q-56 27 -84.5 75t-28.5 101q0 84 58 135t161 51q99 0 162.5 -59.5t63.5 -185.5
q0 -64 -18 -117h131v160v33q0 59 -2.5 87.5t-10.5 56.5q27 23 55 20q18 -1 30 -13.5t12 -34.5v-421v-80zM385 282q20 -40 64.5 -66.5t113.5 -26.5h97q16 50 16 105q0 99 -40.5 155t-125.5 56q-64 0 -104.5 -37.5t-40.5 -102.5q0 -43 20 -83zM496 18q102 41 149 135h-371
q-103 0 -147.5 -17t-44.5 -57q0 -48 54.5 -75t148.5 -27q109 0 211 41z" />
    </font>
</defs>
</svg>
