<?xml version="1.0" standalone="no"?>
<!DOCTYPE svg PUBLIC "-//W3C//DTD SVG 1.1//EN" "http://www.w3.org/Graphics/SVG/1.1/DTD/svg11.dtd" >
<svg xmlns="http://www.w3.org/2000/svg" xmlns:xlink="http://www.w3.org/1999/xlink" version="1.1">
<metadata>
Created by FontForge 20201107 at Fri May  5 14:18:33 2017
 By 
Copyright 2015 The Arima Project Authors (info@ndiscovered.com)
</metadata>
<defs>
<font id="ArimaMadurai-Medium" horiz-adv-x="0" >
  <font-face 
    font-family="Arima Madurai Medium"
    font-weight="500"
    font-stretch="normal"
    units-per-em="1000"
    panose-1="0 0 6 0 0 0 0 0 0 0"
    ascent="800"
    descent="-200"
    x-height="517"
    cap-height="704"
    bbox="-588 -400 2536 1028"
    underline-thickness="50"
    underline-position="-100"
    unicode-range="U+0020-FB02"
  />
<missing-glyph horiz-adv-x="600" 
d="M492 -400h-380v1200h380v-1200zM202 720v-40h78v-44h-80v-40h200v40h-80v44h80v40h-198zM200 565v-125h200v41h-80v84h-120zM280 481h-40v43h40v-43zM200 408v-40h80v-44h-80v-40h120v84h80v40h-200zM360 336v-80h-160v-40h200v120h-40zM280 189v-67h40v28h40v-57h-120
v96h-40v-135h200v135h-120zM200 -18v-136h200v136h-200zM360 -114h-120v56h120v-56zM200 -182v-39h84l-84 -57v-39h200v39h-123l84 57h39v39h-200z" />
    <glyph glyph-name="fi" unicode="fi" horiz-adv-x="581" 
d="M480 603.5q-20 -18.5 -46 -18.5t-38 13q19 20 19 51q0 29 -30 43t-73 14q-56 0 -83 -24t-35 -63.5t-8 -104.5v-5h53q14 0 36.5 1t37.5 2l-1 -24q-1 -12 -8 -18.5t-17 -6.5h-101v-343q0 -74 14 -111q-23 -21 -52 -21q-23 0 -37.5 13.5t-14.5 36.5v425h-14q-41 0 -60 -3
l1 25q1 12 8 18t17 6h48v21q0 212 216 212q85 0 136.5 -24.5t51.5 -68.5q0 -27 -20 -45.5zM516 9q-24 -21 -53 -21q-22 0 -36 13.5t-14 36.5l-1 353q0 71 -14 112q26 20 51 20q23 0 37 -13t14 -36l2 -354q0 -74 14 -111z" />
    <glyph glyph-name="fl" unicode="fl" horiz-adv-x="618" 
d="M596 45q0 -24 -22 -39.5t-54 -15.5q-47 0 -73 31t-26 86v478q0 64 -31 92.5t-88 28.5q-52 0 -77 -22t-32 -56.5t-7 -91.5v-27h53q13 0 34 1t35 2l-1 -24q-1 -12 -7.5 -18.5t-17.5 -6.5h-96v-343q0 -74 14 -111q-23 -21 -52 -21q-23 0 -37.5 13.5t-14.5 36.5v425h-14
q-41 0 -60 -3l1 25q1 12 8 18t17 6h48v43q0 190 204 190q103 0 157 -40t54 -110v-479q0 -53 37 -53q11 0 21 5t15 14q12 -16 12 -34z" />
    <glyph glyph-name=".notdef" horiz-adv-x="600" 
d="M492 -400h-380v1200h380v-1200zM202 720v-40h78v-44h-80v-40h200v40h-80v44h80v40h-198zM200 565v-125h200v41h-80v84h-120zM280 481h-40v43h40v-43zM200 408v-40h80v-44h-80v-40h120v84h80v40h-200zM360 336v-80h-160v-40h200v120h-40zM280 189v-67h40v28h40v-57h-120
v96h-40v-135h200v135h-120zM200 -18v-136h200v136h-200zM360 -114h-120v56h120v-56zM200 -182v-39h84l-84 -57v-39h200v39h-123l84 57h39v39h-200z" />
    <glyph glyph-name=".null" 
 />
    <glyph glyph-name="nonmarkingreturn" horiz-adv-x="333" 
 />
    <glyph glyph-name="space" unicode=" " horiz-adv-x="218" 
 />
    <glyph glyph-name="exclam" unicode="!" horiz-adv-x="304" 
d="M121 185h66l18 533q-23 8 -53 8q-29 0 -53 -8zM110 4q-17 17 -17 41q0 25 17 42t41 17t41.5 -17t17.5 -42q0 -24 -17.5 -41t-41.5 -17t-41 17z" />
    <glyph glyph-name="quotedbl" unicode="&#x22;" horiz-adv-x="296" 
d="M191 566h42l23 160q-18 6 -41 6q-24 0 -43 -6zM59 566h42l23 160q-18 6 -41 6q-24 0 -43 -6z" />
    <glyph glyph-name="numbersign" unicode="#" horiz-adv-x="643" 
d="M465 416l-27 -145h164l-9 -55h-165l-39 -216h-64l39 216h-136l-39 -216h-64l39 216h-154l9 55h155l27 145h-159l9 55h160l40 223h64l-40 -223h136l40 223h64l-40 -223h159l-9 -55h-160zM401 416h-136l-27 -145h136z" />
    <glyph glyph-name="dollar" unicode="$" horiz-adv-x="557" 
d="M461.5 46q-51.5 -52 -156.5 -59q2 -50 6 -71q-8 -8 -20 -8q-20 0 -20 22v56q-110 1 -166.5 42.5t-56.5 104.5q0 62 60 62q5 0 21 -2q-3 -12 -3 -27q0 -11 1 -17q4 -52 42 -85.5t102 -37.5l-1 289l-2 1q-70 39 -109.5 68t-62.5 66.5t-23 89.5q0 80 54.5 121t141.5 45
q-2 46 -6 65q10 8 21 8q19 0 19 -22v-50q86 -2 137.5 -34.5t51.5 -87.5q0 -46 -46 -50q-4 -1 -14 -1q-12 0 -18 2q1 5 1 16q0 16 -3 29q-4 36 -33 58.5t-76 27.5l1 -260l14 -8q62 -33 103.5 -63t66.5 -71t25 -94q0 -73 -51.5 -125zM185.5 493.5q26.5 -31.5 84.5 -66.5
l-1 241q-47 -3 -78.5 -26.5t-31.5 -71.5q0 -45 26.5 -76.5zM391 62q32 30 32 82q0 48 -28 81t-91 70l1 -268q54 5 86 35z" />
    <glyph glyph-name="percent" unicode="%" horiz-adv-x="1041" 
d="M692 708q14 0 26 -6t18 -17l-378 -698l-10 -1q-25 0 -43 20l377 701zM90.5 363.5q-45.5 49.5 -45.5 147.5t45.5 147t134.5 49q88 0 133.5 -49t45.5 -147t-45.5 -147.5t-133.5 -49.5q-89 0 -134.5 49.5zM298 385.5q24 40.5 24 125.5q0 86 -24 125.5t-73 39.5t-73 -39.5
t-24 -125.5t24 -126t73 -40t73 40.5zM683.5 40q-45.5 49 -45.5 147t45.5 147t133.5 49q179 0 179 -196t-179 -196q-88 0 -133.5 49zM890 61q24 40 24 126q0 85 -24 125t-72 40q-49 0 -73 -40t-24 -125q0 -86 24 -126t73 -40q48 0 72 40z" />
    <glyph glyph-name="ampersand" unicode="&#x26;" horiz-adv-x="859" 
d="M715 434q16 -55 16 -113q0 -98 -45 -174.5t-123 -119t-175 -42.5q-99 0 -173.5 40.5t-114.5 110t-40 154.5q0 68 29 121.5t82 83.5t122 30q79 0 121.5 -40.5t42.5 -101.5q0 -47 -24.5 -84t-66.5 -69q55 34 128 95t141 131q-37 85 -108.5 136.5t-160.5 47.5
q0 31 16.5 47.5t56.5 16.5q78 0 143 -53.5t105 -138.5q67 77 98 129q16 0 31.5 -12t15.5 -32q0 -24 -20 -51q-39 -57 -97 -112zM658 382q-91 -75 -197 -133.5t-197 -85.5l-8 32q63 45 94 85.5t31 93.5q0 47 -23 76.5t-67 29.5q-35 0 -65 -21t-47.5 -62.5t-17.5 -99.5
q0 -72 27.5 -133t81 -97.5t127.5 -36.5q71 0 132 35t98 99.5t37 150.5q0 34 -6 67z" />
    <glyph glyph-name="quotesingle" unicode="'" horiz-adv-x="164" 
d="M59 566h42l23 160q-18 6 -41 6q-24 0 -43 -6z" />
    <glyph glyph-name="parenleft" unicode="(" horiz-adv-x="432" 
d="M256 -122.5q-59 50.5 -102 154.5t-43 254t43.5 254.5t102.5 155.5t103 51q18 0 25 -7.5t7 -15.5q-90 -56 -138 -168.5t-48 -263.5q0 -154 49 -271t137 -171q0 -8 -7 -15.5t-25 -7.5q-45 0 -104 50.5z" />
    <glyph glyph-name="parenright" unicode=")" horiz-adv-x="432" 
d="M46 -165.5q-7 7.5 -7 15.5q88 54 137 171t49 271q0 151 -48 263.5t-138 168.5q0 8 7 15.5t25 7.5q44 0 103.5 -51t103 -155.5t43.5 -254.5t-43.5 -254t-102.5 -154.5t-104 -50.5q-18 0 -25 7.5z" />
    <glyph glyph-name="asterisk" unicode="*" horiz-adv-x="505" 
d="M332 479q-14 -28 -19 -49q43 -13 70 -41t27 -58q0 -23 -16.5 -38.5t-40.5 -15.5q-37 0 -59 35.5t-22 79.5q0 10 1 15q-7 1 -21 1q-13 0 -19 -1v-2q0 -51 -26 -91t-68 -40q-23 0 -39 13.5t-16 38.5q0 34 31.5 64t79.5 43q-2 21 -15 48q-31 -11 -62 -11q-38 0 -63.5 17
t-25.5 48q0 23 15.5 39.5t44.5 16.5q31 0 59 -19t48 -50q21 13 37 26q-42 50 -42 100q0 29 15.5 45t46.5 16q32 0 47 -16.5t15 -45.5q0 -49 -37 -96q13 -14 39 -31q22 31 49 50t54 19q25 0 39 -15.5t14 -40.5q0 -32 -22.5 -48.5t-59.5 -16.5q-29 0 -59 11zM231 649
q0 -37 26 -74q27 35 27 70q0 16 -7.5 24.5t-20.5 8.5q-25 0 -25 -29zM165 509q-16 23 -34 36t-36 13q-12 0 -19 -7t-7 -17q0 -17 13.5 -25t37.5 -8q21 0 45 8zM382 541.5q-18 -13.5 -34 -35.5q24 -8 44 -8q22 0 36 8t14 25q0 11 -7 17.5t-18 6.5q-17 0 -35 -13.5zM300 493
q-22 12 -46 33q-19 -17 -43 -31q12 -25 19 -56q6 1 20 1q10 0 28 -2q7 27 22 55zM181.5 334.5q14.5 28.5 16.5 64.5q-33 -10 -54 -30.5t-21 -40.5q0 -10 6.5 -16t16.5 -6q21 0 35.5 28.5zM359 369q-20 19 -51 29v-6q0 -29 11.5 -55.5t34.5 -26.5q10 0 17.5 6.5t7.5 15.5
q0 18 -20 37z" />
    <glyph glyph-name="plus" unicode="+" horiz-adv-x="553" 
d="M479 349q0 -16 -5 -27h-171v-171q-12 -4 -27 -4t-27 4v171h-170q-5 15 -5 27t5 27h170v171q11 5 27 5t27 -5v-171h171q5 -11 5 -27z" />
    <glyph glyph-name="comma" unicode="," horiz-adv-x="281" 
d="M98 -82q32 37 32 70q0 26 -13.5 37.5t-36.5 19.5q0 23 17 41t44 18q25 0 42.5 -17.5t17.5 -56.5q0 -69 -71 -131q-17 3 -32 19z" />
    <glyph glyph-name="hyphen" unicode="-" horiz-adv-x="399" 
d="M352 286v-57h-306v57h306z" />
    <glyph glyph-name="period" unicode="." horiz-adv-x="277" 
d="M97 4q-17 17 -17 41q0 25 17 42t42 17q24 0 41 -17t17 -42q0 -24 -17 -41t-41 -17q-25 0 -42 17z" />
    <glyph glyph-name="slash" unicode="/" horiz-adv-x="455" 
d="M4 -142l324 874h92l-325 -874h-91z" />
    <glyph glyph-name="zero" unicode="0" horiz-adv-x="627" 
d="M126.5 77q-63.5 90 -63.5 270t63.5 270t186.5 90t186.5 -90t63.5 -270t-63.5 -270t-186.5 -90t-186.5 90zM425 104q37 78 37 243t-37 243t-112 78t-112 -78t-37 -243t37 -243t112 -78t112 78z" />
    <glyph glyph-name="one" unicode="1" horiz-adv-x="433" 
d="M325 9q-21 -21 -52 -21q-23 0 -37 13.5t-14 36.5l-1 530q0 21 -2 51q-36 -39 -82 -77t-64 -38q-21 0 -29.5 11.5t-9.5 20.5t-1 26q6 1 82 53.5t107 75.5q16 9 37 9q23 0 37 -13t14 -36l1 -531q0 -74 14 -111z" />
    <glyph glyph-name="two" unicode="2" horiz-adv-x="550" 
d="M43 37q0 5 2 17q37 33 54 46q87 73 146 131t102.5 131t43.5 151q0 67 -33 112t-97 45q-68 0 -98 -49.5t-32 -108.5q-40 0 -56.5 18t-16.5 43q0 32 25.5 63t73 51t110.5 20q95 0 157.5 -50t62.5 -147q0 -100 -62 -188t-137 -147.5t-175 -124.5q83 1 200.5 14t191.5 29
q8 -5 12.5 -18.5t4.5 -29.5q0 -19 -5.5 -31.5t-16.5 -13.5h-441q-16 11 -16 37z" />
    <glyph glyph-name="three" unicode="3" horiz-adv-x="555" 
d="M122 9.5q-50 21.5 -69.5 50t-19.5 50.5q0 21 15 36.5t51 15.5q7 -55 37.5 -96.5t115.5 -41.5q73 0 114.5 42t41.5 112q0 88 -67.5 128t-171.5 42v39q104 4 158.5 49t54.5 112q0 56 -30 89t-91 33q-69 0 -99.5 -41.5t-33.5 -94.5q-37 -1 -51.5 12.5t-14.5 32.5
q0 30 23 59.5t70 49t114 19.5q87 0 150.5 -38t63.5 -125q0 -66 -45.5 -111.5t-122.5 -64.5q91 -16 142.5 -59.5t51.5 -122.5q0 -94 -68.5 -146t-183.5 -52q-85 0 -135 21.5z" />
    <glyph glyph-name="four" unicode="4" horiz-adv-x="603" 
d="M572 217q0 -20 -11 -36h-92v-61q0 -74 14 -111q-21 -21 -52 -21q-22 0 -36.5 13.5t-14.5 36.5v143h-320q-13 4 -20 13.5t-7 21.5q0 10 7 20l326 443q6 9 20.5 16t29.5 7q23 0 37.5 -13.5t14.5 -36.5l1 -417q58 4 96 12q7 -13 7 -30zM380 234l-1 379l-278 -379h279z" />
    <glyph glyph-name="five" unicode="5" horiz-adv-x="563" 
d="M158 10q-47 22 -71.5 55.5t-24.5 66.5q0 25 18 40t47 12q1 -33 14 -68t43 -60t79 -25q77 0 113.5 48t36.5 134q0 76 -41.5 122t-113.5 46q-56 0 -97.5 -13t-45.5 -14q-12 0 -17.5 6.5t-5.5 16.5l12 278q1 17 12.5 27.5t28.5 10.5q127 0 194 1.5t128 6.5q5 -10 5 -23
q0 -17 -8 -35t-20 -24q-183 0 -272 5l-10 -219q39 10 67.5 15.5t60.5 5.5q104 0 164 -55.5t60 -150.5q0 -120 -70.5 -176t-174.5 -56q-64 0 -111 22z" />
    <glyph glyph-name="six" unicode="6" horiz-adv-x="583" 
d="M477 374.5q57 -54.5 57 -155.5q0 -105 -60.5 -168t-171.5 -63q-239 0 -239 322q0 202 66 299t207 97q57 0 105 -20.5t48 -53.5q0 -17 -12 -32t-22 -17q-30 44 -60 62t-62 18q-97 0 -132.5 -87t-38.5 -233q64 86 169 86q89 0 146 -54.5zM404 82q31 56 31 140
q0 77 -30.5 119t-90.5 42q-50 0 -90 -29.5t-61 -81.5q7 -246 143 -246q67 0 98 56z" />
    <glyph glyph-name="seven" unicode="7" horiz-adv-x="507" 
d="M212 -5q-23 0 -47 6q5 85 36 210t79 240.5t102 174.5q-90 -9 -243 -9h-90q-7 6 -10.5 19.5t-3.5 29.5q0 22 7 32q88 -4 193 -4h225q8 -10 8 -30q0 -24 -12 -39q-56 -74 -102.5 -191t-72.5 -236.5t-26 -197.5q-23 -5 -43 -5z" />
    <glyph glyph-name="eight" unicode="8" horiz-adv-x="604" 
d="M496 280q53 -50 53 -117q0 -44 -24 -84t-79.5 -66t-143.5 -26q-89 0 -143.5 26t-77.5 65t-23 83q0 45 23 85.5t63.5 69.5t92.5 40q-68 36 -109 80.5t-41 109.5q0 39 21 75.5t69 61t122 24.5q72 0 121.5 -22t73.5 -58t24 -78q0 -60 -44 -109t-119 -66q88 -44 141 -94z
M198 480.5q17 -28.5 45.5 -48t74.5 -40.5l4 -2q101 55 101 159q0 54 -33.5 87t-87.5 33q-52 0 -86.5 -31t-34.5 -87q0 -42 17 -70.5zM408 59q42 36 42 93q0 62 -45.5 103t-131.5 84q-116 -63 -116 -171q0 -73 42.5 -109t104.5 -36t104 36z" />
    <glyph glyph-name="nine" unicode="9" horiz-adv-x="590" 
d="M463 633.5q63 -73.5 63 -249.5q0 -208 -64.5 -302.5t-203.5 -94.5q-67 0 -116.5 21t-57.5 56q-1 3 -1 10q0 17 12 31.5t22 15.5q37 -50 72 -70.5t72 -20.5q95 0 129 85t37 235q-62 -84 -165 -84q-56 0 -100.5 24t-70.5 72.5t-26 118.5q0 103 59 164.5t167 61.5
q109 0 172 -73.5zM366.5 341q39.5 29 60.5 81q-3 116 -35 181.5t-105 65.5q-65 0 -96 -55t-31 -136q0 -79 30 -122.5t89 -43.5q48 0 87.5 29z" />
    <glyph glyph-name="colon" unicode=":" horiz-adv-x="258" 
d="M88 359q-17 17 -17 41q0 25 17 42t42 17q24 0 41 -17t17 -42q0 -24 -17 -41t-41 -17q-25 0 -42 17zM88 4q-17 17 -17 41q0 25 17 42t42 17q24 0 41 -17t17 -42q0 -24 -17 -41t-41 -17q-25 0 -42 17z" />
    <glyph glyph-name="semicolon" unicode=";" horiz-adv-x="263" 
d="M93 359q-17 17 -17 41q0 25 17 42t42 17q24 0 41 -17t17 -42q0 -24 -17 -41t-41 -17q-25 0 -42 17zM89 -82q32 37 32 70q0 26 -13.5 37.5t-36.5 19.5q0 23 17 41t44 18q25 0 42.5 -17.5t17.5 -56.5q0 -69 -71 -131q-17 3 -32 19z" />
    <glyph glyph-name="less" unicode="&#x3c;" horiz-adv-x="489" 
d="M39 351q0 5 4 11l362 175q6 2 8 2q9 0 15 -8.5t6 -23.5q0 -8 -3 -20l-309 -136l309 -136q3 -12 3 -22q0 -13 -5.5 -21.5t-14.5 -8.5q-6 0 -9 2l-362 175q-4 8 -4 11z" />
    <glyph glyph-name="equal" unicode="=" horiz-adv-x="548" 
d="M472 474q5 -11 5 -27t-5 -27h-396q-5 15 -5 27t5 27h396zM472 272q5 -11 5 -27t-5 -27h-396q-5 15 -5 27t5 27h396z" />
    <glyph glyph-name="greater" unicode="&#x3e;" horiz-adv-x="490" 
d="M84 165q-3 -2 -9 -2q-9 0 -14.5 8.5t-5.5 22.5q0 9 3 21l309 136l-309 136q-3 11 -3 20q0 18 9.5 27t19.5 3l362 -175q4 -4 4 -11q0 -6 -4 -11z" />
    <glyph glyph-name="question" unicode="?" horiz-adv-x="508" 
d="M172 337q48 2 93.5 23.5t75 64.5t29.5 103q0 72 -37.5 118t-111.5 46q-67 0 -96.5 -43.5t-32.5 -98.5q-40 0 -56.5 13.5t-16.5 37.5q0 32 25 62.5t73 49.5t112 19q103 0 170.5 -50t67.5 -155q0 -69 -32.5 -119t-84 -78t-109.5 -34v-112h-69v153zM152 4q-17 17 -17 41
q0 25 17 42t42 17q24 0 41 -17t17 -42q0 -24 -17 -41t-41 -17q-25 0 -42 17z" />
    <glyph glyph-name="at" unicode="@" horiz-adv-x="864" 
d="M657 594.5q78 -56.5 111.5 -140.5t33.5 -172q0 -82 -22 -137t-57.5 -81.5t-77.5 -26.5t-73 29t-31 72q-20 -40 -52.5 -63.5t-76.5 -23.5q-147 0 -147 190q0 112 47 175.5t137 63.5q92 0 129.5 -52t36.5 -125l-1 -134q0 -38 11.5 -61.5t36.5 -23.5q38 0 63 51t25 151
q0 77 -27.5 149.5t-93.5 121t-173 48.5q-106 0 -177 -47.5t-104.5 -125t-33.5 -169.5q0 -98 35 -170.5t92 -110.5t120 -38q15 0 22 1q7 -12 7 -19q0 -14 -15 -21.5t-43 -7.5q-61 0 -131.5 39.5t-120.5 121.5t-50 201q0 102 42.5 191t132 145t222.5 56q125 0 203 -56.5z
M475.5 114.5q28.5 27.5 44.5 76.5t16 110q0 65 -21 103.5t-77 38.5q-63 0 -96.5 -50.5t-33.5 -150.5q0 -155 101 -155q38 0 66.5 27.5z" />
    <glyph glyph-name="A" unicode="A" horiz-adv-x="599" 
d="M591 10q-19 -21 -54 -21q-22 0 -37.5 9.5t-19.5 26.5l-57 192h-255l-46 -159q-6 -24 -6 -35q0 -17 7 -25q-25 -9 -50 -9q-27 0 -39.5 9.5t-12.5 30.5q0 17 11 50l208 614q36 14 76 14q44 0 53 -32l196 -615q10 -33 26 -50zM407 270l-113 378l-110 -378h223z" />
    <glyph glyph-name="B" unicode="B" horiz-adv-x="584" 
d="M486.5 311.5q41.5 -45.5 41.5 -121.5q0 -101 -71 -145.5t-210 -44.5h-100q-24 0 -38.5 13t-14.5 37v522q0 23 -3.5 56.5t-10.5 55.5q48 23 151 23q130 0 196 -40t66 -129q0 -63 -32.5 -107.5t-91.5 -61.5q76 -12 117.5 -57.5zM186 668v-284h76q62 -1 98 37.5t36 110.5
q0 70 -39.5 103.5t-128.5 33.5q-33 0 -42 -1zM383 75.5q45 36.5 45 113.5q0 88 -46 122.5t-133 34.5h-63v-307h62q90 0 135 36.5z" />
    <glyph glyph-name="C" unicode="C" horiz-adv-x="600" 
d="M127 80q-70 93 -70 267q0 173 72 266.5t202 93.5q53 0 100 -13.5t75.5 -37.5t28.5 -54q0 -22 -20 -37t-53 -14q-8 57 -41.5 87t-88.5 30q-86 0 -130 -80.5t-44 -240.5q0 -159 43.5 -240t128.5 -81q55 0 95.5 35.5t52.5 100.5l12 1q27 0 45.5 -12t18.5 -35
q0 -35 -32.5 -65t-85.5 -47t-111 -17q-128 0 -198 93z" />
    <glyph glyph-name="D" unicode="D" horiz-adv-x="643" 
d="M106 13q-14 13 -14 36l-2 523q0 48 -1.5 76t-8.5 49q62 7 211 7q143 0 219 -88.5t76 -263.5q0 -181 -74.5 -266.5t-216.5 -85.5h-150q-25 0 -39 13zM291 39q98 0 146 72t48 236t-48.5 241t-145.5 77h-110l1 -626h109z" />
    <glyph glyph-name="E" unicode="E" horiz-adv-x="540" 
d="M482.5 64q4.5 -13 4.5 -27q0 -16 -6 -26.5t-17 -10.5h-317q-24 0 -38.5 13t-14.5 37v512q0 67 -14 108q15 14 32 19t47 5h300q16 0 16 -26q0 -16 -7.5 -32.5t-18.5 -21.5q-130 28 -265 31l1 -255h239q3 -13 3 -26q0 -15 -3 -27h-239l1 -289q67 1 144.5 11t138.5 23
q9 -5 13.5 -18z" />
    <glyph glyph-name="F" unicode="F" horiz-adv-x="521" 
d="M475 668q0 -16 -7.5 -32.5t-18.5 -21.5q-130 28 -265 31l1 -259h238q3 -13 3 -27t-3 -26h-238l1 -213q0 -74 14 -111q-24 -21 -53 -21q-24 0 -38.5 13.5t-14.5 36.5v524q0 67 -14 108q15 14 32 19t47 5h300q16 0 16 -26z" />
    <glyph glyph-name="G" unicode="G" horiz-adv-x="631" 
d="M130 79.5q-73 92.5 -73 266.5t74 267.5t210 93.5q51 0 97.5 -13.5t74.5 -37.5t28 -52q0 -23 -20 -38.5t-54 -14.5q-7 57 -40 87t-84 30q-185 0 -185 -321t184 -321q81 0 111 59t30 136q0 118 -71 137q5 16 21 24t38 8q46 0 76 -36.5t30 -113.5q0 -71 -27 -128.5t-81 -91
t-131 -33.5q-135 0 -208 92.5z" />
    <glyph glyph-name="H" unicode="H" horiz-adv-x="684" 
d="M604 9q-8 -8 -22 -14.5t-31 -6.5q-23 0 -37.5 13.5t-14.5 36.5l-1 301h-312v-219q0 -74 14 -111q-24 -21 -53 -21q-24 0 -38.5 13.5t-14.5 36.5v534q0 70 -14 112q8 8 21.5 14t30.5 6q24 0 39 -13t15 -36v-263h312v180q0 74 -14 112q22 20 53 20q23 0 38 -13t15 -36v-535
q0 -74 14 -111z" />
    <glyph glyph-name="I" unicode="I" horiz-adv-x="279" 
d="M108.5 1.5q-14.5 13.5 -14.5 36.5v534q0 70 -14 112q8 8 21.5 14t30.5 6q24 0 39 -13t15 -36v-535q0 -74 14 -111q-24 -21 -53 -21q-24 0 -38.5 13.5z" />
    <glyph glyph-name="J" unicode="J" horiz-adv-x="464" 
d="M82 19q-38 32 -38 78q0 26 14.5 45t41.5 19q24 0 34 -17q-10 -21 -10 -45q0 -33 22 -53t50 -20q51 0 69 38t18 110v435q0 40 5 54q-35 0 -99 4q-20 1 -35 -8t-15 -31q0 -36 30 -52q-15 -11 -40 -11q-24 0 -43 19t-19 50q0 33 24.5 53t68.5 20l56 -2q56 -4 91 -4
q40 0 73 5q-5 -30 -5 -74v-450q0 -195 -179 -195q-76 0 -114 32z" />
    <glyph glyph-name="K" unicode="K" horiz-adv-x="592" 
d="M575 41q0 -24 -20 -40t-49 -16q-39 0 -64 30.5t-41 78.5l-39 123q-12 33 -27 54.5t-45 36.5t-81 15h-24l1 -203q0 -74 14 -111q-24 -21 -53 -21q-24 0 -38.5 13.5t-14.5 36.5v534q0 70 -14 112q8 8 21.5 14t30.5 6q24 0 38 -13t14 -36l1 -293l28 4q63 9 108.5 49.5
t69 94.5t23.5 104q0 49 -18 77q13 6 21.5 9t19.5 3q27 0 47 -20.5t20 -70.5q0 -78 -50 -150t-151 -110q58 -8 90.5 -35t50.5 -74l47 -129q13 -31 24 -43t25 -13h4q14 0 24 11q7 -14 7 -28z" />
    <glyph glyph-name="L" unicode="L" horiz-adv-x="485" 
d="M186 53q63 1 132.5 10t124.5 23q9 -5 13.5 -18.5t4.5 -29.5t-5.5 -27t-16.5 -11h-292q-24 0 -38.5 13t-14.5 37v522q0 70 -14 112q8 8 21.5 14t30.5 6q24 0 38 -13t14 -36z" />
    <glyph glyph-name="M" unicode="M" horiz-adv-x="851" 
d="M771 9q-24 -21 -53 -21q-22 0 -35.5 13.5t-13.5 36.5l-2 547l-209 -482q-30 -10 -49 -10q-21 0 -37 8q-113 217 -226 484l1 -465q0 -78 14 -119q-13 -13 -35 -13q-33 0 -33 41l-1 545q0 81 -6 117q13 13 61 13q32 0 48 -18q89 -197 182 -397l50 -109q50 114 156 371
l60 144q24 9 57 9q21 0 37.5 -7.5t18.5 -17.5l1 -559q0 -70 14 -111z" />
    <glyph glyph-name="N" unicode="N" horiz-adv-x="687" 
d="M81 2q13 38 13 118v449q0 80 -7 122q11 11 42 11q21 0 26 -5l72 -103q119 -170 197.5 -284.5t118.5 -185.5l-21 487q-2 35 6.5 58.5t27.5 30.5q4 1 12 1q15 0 28 -6q-2 -20 -2 -35l1 -48v-494q0 -35 1 -65.5t4 -50.5q-5 -6 -17 -9t-26 -3q-13 0 -21 3
q-109 132 -213.5 287t-173.5 275l18 -512q1 -24 -13.5 -39.5t-33.5 -15.5q-22 0 -39 14z" />
    <glyph glyph-name="O" unicode="O" horiz-adv-x="654" 
d="M125.5 77q-68.5 90 -68.5 270t69 270t201 90t201 -90t69 -270t-69 -270t-201 -90q-133 0 -201.5 90zM454 104q42 78 42 243t-42 243t-127 78q-84 0 -126.5 -78t-42.5 -243t42.5 -243t126.5 -78q85 0 127 78z" />
    <glyph glyph-name="P" unicode="P" horiz-adv-x="564" 
d="M447.5 657.5q71.5 -49.5 71.5 -155.5q0 -112 -77.5 -169.5t-229.5 -57.5h-26v-159q0 -26 3 -56.5t11 -50.5q-8 -8 -22 -14.5t-31 -6.5q-24 0 -38.5 13.5t-14.5 36.5v534q0 23 -3.5 56.5t-10.5 55.5q48 23 149 23q147 0 218.5 -49.5zM369.5 359.5q49.5 46.5 49.5 136.5
q0 86 -45.5 129t-146.5 43q-32 0 -41 -2v-353h27q107 0 156.5 46.5z" />
    <glyph glyph-name="Q" unicode="Q" horiz-adv-x="659" 
d="M378 -114.5q-75 38.5 -154 97.5q-81 59 -124 145.5t-43 217.5q0 179 70.5 270t201.5 91t201.5 -90.5t70.5 -269.5q0 -174 -72.5 -267t-199.5 -93q-34 0 -54 6q43 -33 91 -53.5t94 -20.5q50 0 84.5 18.5t37.5 51.5q25 -1 39.5 -16t14.5 -38q0 -38 -31.5 -63t-85.5 -25
q-66 0 -141 38.5zM454.5 103.5q42.5 77.5 42.5 243.5q0 165 -42 243t-126 78q-86 0 -126.5 -82.5t-40.5 -252.5q0 -150 39.5 -228.5t125.5 -78.5q85 0 127.5 77.5z" />
    <glyph glyph-name="R" unicode="R" horiz-adv-x="605" 
d="M590 44q0 -26 -21 -40.5t-43 -14.5q-41 0 -63.5 25.5t-45.5 82.5l-43 111q-13 33 -24.5 52t-35 32.5t-62.5 13.5h-66v-190q0 -26 3 -56.5t11 -50.5q-8 -8 -22 -14.5t-31 -6.5q-24 0 -38.5 13.5t-14.5 36.5v534q0 23 -3.5 56.5t-10.5 55.5q48 23 154 23q144 0 213.5 -44
t69.5 -143q0 -73 -41.5 -123t-113.5 -68q35 -10 56 -33.5t41 -63.5l48 -114q13 -31 24 -44t25 -14q17 0 28 12q6 -12 6 -28zM256 344q72 2 116.5 48t44.5 120q0 79 -42 118t-135 39q-42 0 -54 -2v-322z" />
    <glyph glyph-name="S" unicode="S" horiz-adv-x="557" 
d="M105 27.5q-57 41.5 -57 105.5q0 62 60 62q5 0 21 -2q-3 -12 -3 -27q0 -11 1 -17q4 -55 45.5 -89t112.5 -34q62 0 100 30.5t38 87.5q0 37 -17 65t-49 51.5t-89 55.5q-70 39 -109.5 68t-62.5 66.5t-23 89.5q0 84 61 125.5t156 41.5q91 0 146.5 -32.5t55.5 -89.5
q0 -46 -46 -50q-4 -1 -14 -1q-12 0 -18 2q1 5 1 16q0 16 -3 29q-5 41 -40.5 64t-91.5 23q-50 0 -85.5 -23t-35.5 -75q0 -37 17.5 -64.5t50 -50.5t91.5 -56q62 -33 103.5 -63t66.5 -71t25 -94q0 -50 -24.5 -92t-78.5 -67.5t-136 -25.5q-112 0 -169 41.5z" />
    <glyph glyph-name="T" unicode="T" horiz-adv-x="533" 
d="M518 669q0 -17 -7.5 -33.5t-18.5 -21.5l-23 6q-50 14 -85.5 22t-71.5 11l1 -533q0 -74 14 -111q-8 -8 -21.5 -14.5t-30.5 -6.5q-24 0 -38.5 13.5t-14.5 36.5l-1 616q-66 -7 -179 -40q-11 5 -18.5 21.5t-7.5 33.5q0 11 4 18t12 7h471q15 0 15 -25z" />
    <glyph glyph-name="U" unicode="U" horiz-adv-x="661" 
d="M578 306q0 -158 -62 -238.5t-186 -80.5q-122 0 -181.5 77.5t-59.5 241.5v266q0 74 -14 112q22 20 53 20q23 0 37.5 -13t14.5 -36v-353q0 -144 36 -210t114 -66q158 0 158 276v270q0 74 -14 112q23 20 53 20q22 0 36.5 -13t14.5 -36v-349z" />
    <glyph glyph-name="V" unicode="V" horiz-adv-x="586" 
d="M564 667q0 -19 -10 -51l-204 -614q-34 -14 -62 -14q-50 0 -59 29l-195 619q-10 33 -26 50q21 21 56 21q49 0 58 -36l177 -615l164 582q7 19 7 35q0 15 -7 25q23 9 48 9q54 0 53 -40z" />
    <glyph glyph-name="W" unicode="W" horiz-adv-x="929" 
d="M905 665q0 -14 -10 -50l-171 -613q-34 -14 -62 -14q-22 0 -36.5 7.5t-18.5 21.5l-137 496l-144 -511q-34 -14 -60 -14q-53 0 -60 29l-162 619q-8 31 -25 50q19 21 55 21q24 0 39.5 -9t19.5 -27l144 -605l139 501q3 14 3 25q0 15 -6 29q13 7 31.5 11t32.5 4q17 0 29 -5.5
t16 -16.5l152 -548l131 570q1 5 3.5 16t2.5 19q0 15 -7 25q23 9 48 9q54 0 53 -40z" />
    <glyph glyph-name="X" unicode="X" horiz-adv-x="611" 
d="M586 83q9 -12 9 -28q0 -26 -23 -46t-60 -20q-39 0 -64 23.5t-49 69.5l-107 201l-170 -265q-9 -14 -19.5 -21t-27.5 -7q-23 0 -34.5 13.5t-13.5 42.5q21 8 39.5 26t40.5 49l153 222l-128 240q-11 19 -21 28t-22 9q-13 0 -21 -8.5t-9 -20.5q-15 5 -23.5 17t-8.5 29
q0 27 20.5 46t59.5 19q41 0 67 -23t49 -70l99 -189l154 256q16 28 46 28q22 0 34 -13.5t16 -42.5q-24 -9 -42.5 -27.5t-39.5 -47.5l-140 -206l140 -259q21 -37 45 -37q12 0 19.5 9t8.5 20q14 -5 23 -17z" />
    <glyph glyph-name="Y" unicode="Y" horiz-adv-x="561" 
d="M535 635q-6 -16 -16 -31l-193 -353l1 -131q0 -74 14 -111q-8 -8 -21.5 -14.5t-30.5 -6.5q-24 0 -38.5 13.5t-14.5 36.5v214q-2 3 -13 22l-174 350q-14 28 -38 52q10 10 27.5 19t38.5 9q24 0 37.5 -12t25.5 -37l157 -339l147 315q11 23 11 37q0 18 -9 28q22 8 51 8
q21 0 32.5 -12t11.5 -30q0 -11 -6 -27z" />
    <glyph glyph-name="Z" unicode="Z" horiz-adv-x="578" 
d="M528.5 171.5q21.5 -29.5 21.5 -67.5q0 -48 -36 -77t-107 -28l-239 4q-36 0 -58 -1.5t-48 -7.5l-14 25q0 24 6 42.5t21 37.5l365 525l-235 -9q-34 -1 -55.5 -13.5t-27.5 -33.5q-2 -7 -2 -19q0 -25 19 -45q-25 0 -44 11q-21 6 -34 28.5t-13 50.5q0 45 38.5 74t110.5 28
l190 -4h30q62 0 91 8l17 -27q0 -27 -5.5 -45.5t-20.5 -37.5l-369 -520l252 10q53 1 75 22t22 51q0 28 -18 48h10q36 0 57.5 -29.5z" />
    <glyph glyph-name="bracketleft" unicode="[" horiz-adv-x="346" 
d="M255 734v-45h-78v-810h78v-45h-164v900h164z" />
    <glyph glyph-name="backslash" unicode="\" horiz-adv-x="488" 
d="M59 732h91l325 -874h-91z" />
    <glyph glyph-name="bracketright" unicode="]" horiz-adv-x="346" 
d="M239 -166h-165v45h79v810h-79v45h165v-900z" />
    <glyph glyph-name="asciicircum" unicode="^" horiz-adv-x="541" 
d="M84 264q-12 4 -13 8l172 163q9 3 30 3q16 0 25 -3l172 -163q-2 -4 -14 -8.5t-19 -4.5l-166 114l-167 -114q-8 1 -20 5z" />
    <glyph glyph-name="underscore" unicode="_" horiz-adv-x="382" 
d="M412 -69v-50l-442 2v50z" />
    <glyph glyph-name="grave" unicode="`" horiz-adv-x="600" 
d="M213.5 718q29.5 7 48.5 5l91 -151q-4 -3 -16 -5t-22 -2l-140 138q9 8 38.5 15z" />
    <glyph glyph-name="a" unicode="a" horiz-adv-x="553" 
d="M544 45q0 -23 -21.5 -39t-52.5 -16q-46 0 -69 32t-23 100v16q-31 -68 -86 -108.5t-123 -40.5q-58 0 -92 31.5t-34 84.5q0 60 46 101.5t121 62.5q80 21 163 18v25q0 89 -27.5 131t-91.5 42q-41 0 -69 -19t-28 -61q0 -22 10.5 -42.5t31.5 -28.5q-18 -21 -53 -21
q-36 0 -58 26.5t-22 62.5q0 58 52.5 89.5t143.5 31.5q105 0 154.5 -52t49.5 -164v-194q0 -53 35 -53q8 0 17 5t15 14q11 -16 11 -34zM284 79.5q39 28.5 65 75t27 98.5q-37 2 -78 -3.5t-69 -17.5q-42 -16 -64.5 -43t-22.5 -64q0 -32 16 -53t50 -21q37 0 76 28.5z" />
    <glyph glyph-name="b" unicode="b" horiz-adv-x="544" 
d="M159 3.5q-55 16.5 -88 50.5v627q0 23 13.5 36.5t35.5 13.5q32 0 56 -21q-14 -56 -14 -159l-1 -149q19 54 62.5 87.5t103.5 33.5q84 0 129.5 -60t45.5 -187q0 -132 -56 -210.5t-173 -78.5q-59 0 -114 16.5zM377 100q29 69 29 177q0 100 -24 147t-72 47q-51 0 -84.5 -35
t-49 -89t-15.5 -111v-171q14 -15 45 -25.5t62 -10.5q80 2 109 71z" />
    <glyph glyph-name="c" unicode="c" horiz-adv-x="507" 
d="M104 55.5q-62 68.5 -62 197.5q0 126 63.5 198t179.5 72q82 0 127.5 -35.5t45.5 -91.5q0 -36 -20 -58t-52 -22q-34 0 -51 21q32 15 32 66q0 42 -25 62t-66 20q-62 0 -99.5 -56.5t-37.5 -161.5q0 -114 44.5 -167t119.5 -53q55 0 94 27t51 76q15 -7 15 -28q0 -11 -4 -26
q-16 -52 -64 -80.5t-117 -28.5q-112 0 -174 68.5z" />
    <glyph glyph-name="d" unicode="d" horiz-adv-x="571" 
d="M546 42q0 -22 -19 -36t-48 -14q-85 0 -88 131q-23 -65 -67.5 -100.5t-108.5 -35.5q-94 0 -133.5 70.5t-39.5 174.5q0 138 55 214.5t156 76.5q50 0 84.5 -20t49.5 -56v116q0 93 -15 147q21 21 52 21q23 0 38 -13.5t15 -36.5l-1 -568q0 -52 32 -52q19 0 27 15
q11 -16 11 -34zM318.5 77q33.5 36 50.5 97t17 133q0 165 -116 165q-64 0 -97.5 -60.5t-33.5 -176.5q0 -90 21 -142t80 -52q45 0 78.5 36z" />
    <glyph glyph-name="e" unicode="e" horiz-adv-x="514" 
d="M467 109q0 -11 -7 -28q-18 -46 -66 -70t-114 -24q-111 0 -174.5 69t-63.5 197q0 126 63 198t179 72q84 0 135.5 -38t51.5 -108q0 -74 -60 -113t-165 -39q-53 0 -106 6q12 -184 163 -184q54 0 93.5 22.5t55.5 62.5q15 -6 15 -23zM177.5 429q-37.5 -56 -38.5 -161
q21 -2 67 -4q76 0 122 27.5t46 98.5q0 52 -27 73.5t-67 21.5q-65 0 -102.5 -56z" />
    <glyph glyph-name="f" unicode="f" horiz-adv-x="391" 
d="M368 719q37 -23 37 -64q0 -29 -18.5 -47t-43.5 -18q-27 0 -37 13q18 24 18 52q0 51 -58 51q-51 0 -65.5 -44t-14.5 -126v-27h53q16 0 43.5 1t43.5 2l-1 -24q-1 -12 -7.5 -18.5t-16.5 -6.5h-115v-343q0 -74 14 -111q-23 -21 -52 -21q-23 0 -37.5 13.5t-14.5 36.5v425h-14
q-41 0 -60 -3l1 25q1 12 8 18t17 6h48v43q0 190 172 190q63 0 100 -23z" />
    <glyph glyph-name="g" unicode="g" horiz-adv-x="539" 
d="M95.5 -201q-49.5 30 -49.5 89q0 34 19.5 55t48.5 21q32 0 44 -17q-28 -22 -28 -62q0 -39 25 -60t68 -21q80 0 119.5 61t39.5 176v70q-18 -55 -60 -84.5t-103 -29.5q-85 0 -131 60.5t-46 190.5q0 118 52.5 196.5t179.5 78.5q57 0 110.5 -16t87.5 -50v-412
q0 -276 -252 -276q-75 0 -124.5 30zM347.5 103q33.5 59 33.5 145l1 202q-16 17 -45 26t-63 9q-79 0 -107.5 -66.5t-28.5 -179.5q0 -104 25.5 -149.5t80.5 -45.5q70 0 103.5 59z" />
    <glyph glyph-name="h" unicode="h" horiz-adv-x="564" 
d="M504 9q-23 -21 -51 -21q-23 0 -37.5 13.5t-14.5 36.5l-1 266q0 87 -22 129t-76 42q-34 0 -64.5 -24.5t-50 -77.5t-19.5 -133q0 -125 2.5 -164t13.5 -68q-22 -20 -52 -20q-23 0 -38 14.5t-15 39.5v639q-1 24 13 36.5t36 12.5q17 0 32.5 -6.5t23.5 -13.5q-9 -28 -12 -66.5
t-4 -105.5l-1 -128q22 54 64 83.5t99 29.5q160 0 160 -207v-196q0 -70 14 -111z" />
    <glyph glyph-name="i" unicode="i" horiz-adv-x="263" 
d="M87 612q-17 17 -17 41q0 25 17 42t42 17q24 0 41 -17t17 -42q0 -24 -17 -41t-41 -17q-25 0 -42 17zM192 9q-21 -21 -52 -21q-22 0 -36.5 13.5t-14.5 36.5l-1 353q0 75 -14 112q26 20 52 20q23 0 37 -13t14 -36l1 -354q0 -74 14 -111z" />
    <glyph glyph-name="j" unicode="j" horiz-adv-x="262" 
d="M92 625q-17 17 -17 41q0 23 17 40t40 17q24 0 40.5 -17t16.5 -40q0 -24 -16.5 -41t-40.5 -17q-23 0 -40 17zM-57.5 -209q-28.5 22 -28.5 59q0 21 13 36.5t38 15.5q10 0 17 -4t12 -13q-10 -17 -10 -36q0 -24 13 -34t32 -10q38 0 50.5 41.5t12.5 122.5l1 422q0 70 -14 111
q21 21 51 21q23 0 37 -13t14 -37l1 -519q0 -80 -36 -132.5t-120 -52.5q-55 0 -83.5 22z" />
    <glyph glyph-name="k" unicode="k" horiz-adv-x="547" 
d="M522 46q0 -25 -22 -41.5t-51 -16.5q-27 0 -49 16.5t-35 46.5l-81 166q-53 -19 -115 -34q0 -90 2.5 -118.5t12.5 -56.5q-11 -9 -23 -14.5t-31 -5.5q-29 0 -40 14t-11 40v639q-1 23 14 36.5t38 13.5q31 0 52 -21q-7 -36 -9.5 -62.5t-4.5 -71.5q0 -25 -1 -39l-1 -159
q23 67 73.5 106t120.5 39q61 0 93 -31t32 -83q0 -57 -39.5 -100t-100.5 -71q12 -4 21.5 -14.5t20.5 -28.5l53 -94q11 -21 19 -28.5t21 -7.5q17 0 28 12q13 -14 13 -31zM394 404q0 36 -17.5 52t-47.5 16q-47 0 -83.5 -32.5t-56.5 -89.5t-20 -128q225 65 225 182z" />
    <glyph glyph-name="l" unicode="l" horiz-adv-x="274" 
d="M103.5 21q-26.5 31 -26.5 86v574q0 24 14.5 37t38.5 13q31 0 52 -21q-9 -29 -11.5 -70t-2.5 -125l-1 -402q0 -53 38 -53q11 0 21 5t14 14q12 -16 12 -34q0 -24 -22 -39.5t-53 -15.5q-47 0 -73.5 31z" />
    <glyph glyph-name="m" unicode="m" horiz-adv-x="872" 
d="M812 9q-23 -21 -52 -21q-23 0 -37.5 13.5t-14.5 36.5v266q0 84 -19 127.5t-70 43.5q-31 0 -59.5 -24t-47.5 -74t-20 -126v-131q0 -70 14 -111q-23 -21 -51 -21q-22 0 -36 13.5t-14 36.5l-1 266q0 88 -20 129.5t-72 41.5q-32 0 -60 -25t-45.5 -79t-17.5 -136
q0 -122 2 -160t13 -67q-20 -20 -52 -20q-23 0 -37.5 14.5t-14.5 39.5l-1 357q0 26 -8.5 39.5t-24.5 13.5q-10 0 -18.5 -5t-12.5 -14q-11 15 -11 33q0 25 18.5 40.5t47.5 15.5q42 0 65.5 -30t23.5 -87v-10q20 60 61.5 94t99.5 34q119 0 144 -125q19 59 61.5 92t100.5 33
q152 0 152 -207v-196q0 -70 14 -111z" />
    <glyph glyph-name="n" unicode="n" horiz-adv-x="577" 
d="M517 9q-23 -21 -52 -21q-23 0 -38 13.5t-15 36.5v266q-1 86 -23 127t-75 41q-34 0 -64.5 -24.5t-50 -76.5t-19.5 -131q0 -125 2 -164t13 -68q-8 -8 -21.5 -14t-30.5 -6q-24 0 -38.5 14.5t-14.5 39.5v359q-1 28 -7.5 39.5t-20.5 11.5q-19 0 -26 -14q-12 17 -12 33
q0 23 17 37t47 14q40 0 61.5 -27.5t21.5 -80.5v-12q21 58 65 89.5t105 31.5q161 0 161 -207v-196q2 -77 15 -111z" />
    <glyph glyph-name="o" unicode="o" horiz-adv-x="550" 
d="M103.5 57.5q-61.5 70.5 -61.5 196.5q0 127 61.5 198t171.5 71t171 -71t61 -198q0 -126 -61 -196.5t-171 -70.5t-171.5 70.5zM375.5 84q34.5 59 34.5 170q0 113 -34.5 172t-100.5 59q-67 0 -101.5 -59t-34.5 -172q0 -111 34.5 -170t101.5 -59q66 0 100.5 59z" />
    <glyph glyph-name="p" unicode="p" horiz-adv-x="567" 
d="M486 451.5q39 -71.5 39 -174.5q0 -138 -56 -214t-156 -76q-49 0 -84 19.5t-50 55.5v-106q0 -103 15 -157q-8 -8 -21.5 -14t-30.5 -6q-23 0 -38 13t-15 36l1 570q0 28 -6.5 39.5t-21.5 11.5q-19 0 -26 -14q-12 18 -12 34q0 22 17.5 36t46.5 14q85 0 87 -133q24 65 68 101
t108 36q96 0 135 -71.5zM393.5 98.5q34.5 60.5 34.5 178.5q0 87 -21 139.5t-81 52.5q-45 0 -78 -36t-50.5 -95t-17.5 -128q0 -81 25 -126.5t87 -45.5q67 0 101.5 60.5z" />
    <glyph glyph-name="q" unicode="q" horiz-adv-x="542" 
d="M367 -205q11 33 13 75.5t2 116.5v122q-18 -55 -62.5 -89t-103.5 -34q-83 0 -128.5 62t-45.5 192q0 119 54 201t172 82q64 0 119 -18.5t86 -48.5v-633q0 -23 -14.5 -36t-39.5 -13q-30 -1 -52 21zM319.5 75.5q32.5 36.5 48 90.5t15.5 104v175q-16 14 -47 24.5t-64 10.5
q-135 0 -133 -243q0 -100 24.5 -149t75.5 -49q48 0 80.5 36.5z" />
    <glyph glyph-name="r" unicode="r" horiz-adv-x="447" 
d="M387.5 494.5q32.5 -28.5 32.5 -77.5q0 -35 -20 -57t-48 -22q-25 0 -36 13q11 17 15 31t4 33q0 60 -55 60q-43 0 -71.5 -58t-28.5 -177q0 -123 2 -161.5t13 -67.5q-8 -8 -21.5 -14t-31.5 -7q-22 0 -37 14.5t-15 39.5v357q0 27 -6.5 39t-21.5 12q-19 0 -26 -14
q-12 17 -12 33q0 23 17 37t47 14q40 0 61.5 -28.5t20.5 -83.5q17 55 51 84t82 29q52 0 84.5 -28.5z" />
    <glyph glyph-name="s" unicode="s" horiz-adv-x="470" 
d="M83 20q-47 33 -47 87q0 26 13.5 43t42.5 17q5 0 17 -2q-3 -13 -3 -25t1 -19q3 -43 36 -68.5t90 -25.5q53 0 85.5 19.5t32.5 55.5q0 25 -13.5 42.5t-34 29.5t-57.5 29l-31 14q-55 26 -85 44.5t-52 50.5t-22 79q0 67 51.5 100t131.5 33q83 0 130 -26t47 -74
q0 -20 -10.5 -33.5t-32.5 -15.5q-5 -1 -14 -1q-10 0 -16 2q1 5 1 18q0 16 -4 27q-4 31 -31.5 47.5t-72.5 16.5q-42 0 -69.5 -16t-27.5 -50q0 -29 16.5 -50t39.5 -34.5t71 -36.5l19 -9q50 -24 79.5 -42t50.5 -46t21 -68q0 -60 -50.5 -103t-161.5 -43q-94 0 -141 33z" />
    <glyph glyph-name="t" unicode="t" horiz-adv-x="342" 
d="M262 510q29 1 46 2l-1 -24q-1 -12 -8 -18.5t-17 -6.5h-99v-36l-1 -314q0 -54 48 -54q14 0 27.5 5t17.5 14q12 -16 12 -34q0 -25 -25 -40t-65 -15q-49 0 -77 31t-28 86v357h-15q-40 0 -60 -3l1 25q1 12 8 18t18 6h48v84q0 23 14.5 36t38.5 13q28 0 51 -20
q-11 -38 -12 -113h32q17 0 46 1z" />
    <glyph glyph-name="u" unicode="u" horiz-adv-x="570" 
d="M546 40q0 -23 -16.5 -36.5t-46.5 -13.5q-40 0 -61.5 27t-21.5 80v13q-20 -59 -63.5 -91.5t-103.5 -32.5q-82 0 -119.5 48t-37.5 161v196q0 70 -14 111q25 21 52 21q23 0 37.5 -13.5t14.5 -36.5v-266q0 -94 21 -133.5t73 -39.5q34 0 63.5 25t48.5 78t19 134
q0 125 -2 163.5t-13 68.5q23 20 52 20q22 0 37 -14.5t15 -39.5l1 -359q0 -28 6.5 -39.5t20.5 -11.5q19 0 27 14q11 -15 11 -33z" />
    <glyph glyph-name="v" unicode="v" horiz-adv-x="492" 
d="M463.5 507q12.5 -10 12.5 -31q0 -25 -11 -50l-163 -423q-31 -15 -61 -15q-41 0 -52 33l-153 425q-1 4 -8 21.5t-17 27.5q20 22 53 22q21 0 35.5 -9.5t18.5 -27.5l136 -434l125 402q5 28 5 35q0 18 -5 25q22 9 46 9q26 0 38.5 -10z" />
    <glyph glyph-name="w" unicode="w" horiz-adv-x="791" 
d="M173 21l-133 425q-12 36 -24 49q18 22 52 22q22 0 36 -9.5t18 -27.5l117 -428l99 396q5 17 5 35q0 16 -6 25q20 9 61 11q49 0 58 -31l112 -436l105 396q6 22 6 35q0 16 -6 25q23 9 46 9q52 0 51 -41q0 -24 -10 -50l-143 -423q-31 -15 -61 -15q-19 0 -34 8t-18 25
l-106 403l-108 -421q-33 -15 -66 -15q-40 0 -51 33z" />
    <glyph glyph-name="x" unicode="x" horiz-adv-x="505" 
d="M486.5 79q9.5 -12 9.5 -29q0 -26 -21.5 -45t-57.5 -19q-37 0 -59 22t-49 71l-68 121l-118 -186q-14 -27 -46 -27q-20 0 -34 13t-17 42q24 8 43.5 26t40.5 49l98 140l-84 146q-11 20 -21 29t-21 9q-13 0 -21 -8.5t-9 -20.5q-16 5 -25 17t-9 29q0 26 21 45.5t60 19.5
q36 0 56.5 -20.5t49.5 -73.5l59 -108l111 173q16 29 48 29q46 0 52 -56q-25 -9 -44 -27.5t-40 -48.5l-94 -127l92 -159q21 -38 45 -38q11 0 19 9t9 20q15 -5 24.5 -17z" />
    <glyph glyph-name="y" unicode="y" horiz-adv-x="549" 
d="M481 50q0 -281 -240 -281q-75 0 -125 25.5t-50 81.5q0 29 18.5 48.5t48.5 19.5t42 -17q-13 -9 -19 -22.5t-6 -25.5q0 -37 26.5 -56t64.5 -19q155 0 155 241q0 20 4 74q-21 -61 -64.5 -94t-107.5 -33q-77 0 -114.5 48t-37.5 160v191q0 70 -14 111q25 21 52 21
q23 0 37.5 -13.5t14.5 -36.5v-261q0 -90 20 -131t68 -41q59 0 98 58.5t39 177.5q0 122 -2 160t-13 67q23 20 52 20q22 0 37 -14.5t15 -39.5z" />
    <glyph glyph-name="z" unicode="z" horiz-adv-x="493" 
d="M458 138.5q13 -24.5 13 -48.5q0 -42 -34 -68t-93 -25l-202 3q-59 2 -95 -8l-12 21q0 21 5 36t18 29l304 368l-189 -9q-26 -1 -42 -12t-23 -27q-5 -12 -5 -20q0 -14 8 -27l-8 -1q-10 0 -17 4q-26 8 -40 29.5t-14 43.5q0 39 33 63.5t97 23.5l176 -4q37 0 57.5 1t35.5 6
l12 -22q0 -23 -4.5 -38.5t-18.5 -33.5l-287 -351l190 5q32 1 50.5 14t24.5 34q3 9 3 18q0 17 -9 31q14 0 26 -3q27 -8 40 -32.5z" />
    <glyph glyph-name="braceleft" unicode="{" horiz-adv-x="391" 
d="M158 -139.5q-41 35.5 -41 109.5q0 30 7 88q9 81 9 114q0 43 -15 63.5t-52 36.5v32q38 15 52.5 38t14.5 66q0 37 -4 72.5t-5 41.5q-7 51 -7 78q0 74 41 110t116 36q28 0 50.5 -5t32.5 -11q4 -4 4 -12q0 -7 -2.5 -13t-7.5 -7q-26 8 -49 8q-95 0 -95 -98q0 -25 7 -78
q10 -70 10 -114q0 -108 -51 -125v-6q23 -7 37 -38t14 -85q0 -30 -9 -111q-8 -64 -8 -85q0 -50 24.5 -75.5t70.5 -25.5q23 0 49 8q5 -1 7.5 -7t2.5 -13q0 -9 -4 -13q-10 -6 -32.5 -10.5t-50.5 -4.5q-75 0 -116 35.5z" />
    <glyph glyph-name="bar" unicode="|" horiz-adv-x="304" 
d="M109 730h85v-867h-85v867z" />
    <glyph glyph-name="braceright" unicode="}" horiz-adv-x="390" 
d="M66 -170q-23 5 -32 10q-4 3 -4 12q0 7 2.5 13.5t7.5 7.5q24 -8 49 -8q45 0 69.5 25.5t24.5 75.5q0 21 -8 85q-9 81 -9 111q0 54 14 85t37 38v6q-51 17 -51 125q0 44 10 114q7 53 7 78q0 98 -94 98q-25 0 -49 -8q-5 1 -7.5 7t-2.5 13q0 9 4 12q9 6 32 11t51 5
q74 0 115 -36t41 -110q0 -27 -7 -78q-1 -6 -5 -41.5t-4 -72.5q0 -42 15 -65.5t52 -38.5v-32q-37 -16 -52 -36.5t-15 -63.5q0 -33 9 -114q7 -58 7 -88q0 -73 -41 -109t-115 -36q-28 0 -51 5z" />
    <glyph glyph-name="asciitilde" unicode="~" horiz-adv-x="510" 
d="M409.5 319q-24.5 -26 -62.5 -26q-26 0 -46.5 7t-49.5 22q-25 13 -44 20t-41 7q-25 0 -42 -12.5t-25 -33.5h-4q-13 0 -27 10q6 47 35 69.5t68 22.5q26 0 46.5 -7t49.5 -22t47.5 -21.5t41.5 -6.5t34.5 12t20.5 36q17 0 31 -9q-8 -42 -32.5 -68z" />
    <glyph glyph-name="uni00A0" unicode="&#xa0;" horiz-adv-x="291" 
 />
    <glyph glyph-name="exclamdown" unicode="&#xa1;" horiz-adv-x="295" 
d="M188.5 505q17.5 -17 17.5 -41q0 -25 -17.5 -42t-41.5 -17t-41 17t-17 42q0 24 17 41t41 17t41.5 -17zM146 -218q28 0 55 9l-19 533h-65l-23 -533q26 -9 52 -9z" />
    <glyph glyph-name="cent" unicode="&#xa2;" horiz-adv-x="510" 
d="M465 221q0 -14 -5 -28q-10 -35 -35.5 -59.5t-62.5 -37.5l15 -55q15 -59 28 -83q-8 -10 -18 -12q-3 -1 -7 -1q-12 0 -17 16l-34 127q-21 -4 -49 -4q-112 0 -174 68.5t-62 197.5q0 96 37.5 162t107.5 92l-11 42q-15 59 -28 83l5.5 5.5t12.5 6.5q3 1 7 1q12 0 17 -16
l30 -113q28 7 65 7q82 0 127 -35t45 -92q0 -36 -19.5 -58t-51.5 -22q-15 0 -29 5t-22 16q32 15 32 66q0 42 -25.5 62.5t-65.5 20.5q-24 0 -45 -9l115 -424q39 8 65.5 33t36.5 64q15 -7 15 -26zM313 145l-110 410q-30 -26 -46 -74.5t-16 -116.5q0 -115 44 -167t120 -52h8z
" />
    <glyph glyph-name="sterling" unicode="&#xa3;" horiz-adv-x="510" 
d="M476 50q0 -21 -8.5 -35.5t-24.5 -14.5h-406v31q50 72 68.5 116t18.5 100q0 12 -2 40h-35q-21 0 -60 -3l1 25q1 11 8 17.5t17 6.5h65l-4 33q-10 80 -10 112q0 125 58 173.5t146 48.5q66 0 103.5 -27.5t37.5 -65.5q0 -49 -44 -49q-10 0 -20 2q0 50 -24 76.5t-61 26.5
q-49 0 -78 -32.5t-29 -120.5q0 -50 9 -118l6 -59h66q18 0 48.5 1t48.5 2l-1 -24q-1 -12 -8 -18.5t-17 -6.5h-134v-15q0 -82 -28.5 -136t-93.5 -97q197 0 377 58q10 -14 10 -47z" />
    <glyph glyph-name="currency" unicode="&#xa4;" horiz-adv-x="581" 
d="M524 162q-1 -6 -3.5 -11.5t-8.5 -10.5q-9 -9 -18 -9q-8 0 -14 7l-59 56q-57 -44 -131 -44q-77 0 -136 48l-5 -5q-49 -50 -57 -66q-2 1 -9.5 3.5t-13.5 8.5q-9 9 -9 17t7 15l57 57q-47 56 -47 134q0 79 49 136l-4 4q-20 19 -38.5 35t-27.5 21q4 15 13 24q8 8 17 8
q8 0 15 -7l57 -55q57 44 132 44q38 0 73.5 -12.5t63.5 -35.5l4 4q47 51 57 66q13 -2 23 -12q9 -9 9 -18q0 -7 -7 -14l-56 -57q45 -56 45 -131q0 -39 -12.5 -74.5t-36.5 -62.5l5 -5q44 -44 66 -58zM363.5 224.5q33.5 20.5 53.5 56.5t20 80q0 45 -20 81t-53.5 56.5t-73.5 20.5
t-74 -20.5t-53.5 -56t-19.5 -80.5t19.5 -81t53.5 -56.5t74 -20.5t73.5 20.5z" />
    <glyph glyph-name="yen" unicode="&#xa5;" horiz-adv-x="559" 
d="M535 635q-6 -16 -16 -31l-178 -326h10q22 0 68 1t52 2v-5l-1 -24q-1 -12 -7.5 -18t-17.5 -6h-119l1 -108q0 -74 14 -111q-8 -8 -21.5 -14.5t-30.5 -6.5q-24 0 -38.5 13.5t-14.5 36.5v190h-90q-21 0 -60 -3v4l1 24q1 12 8 18.5t17 6.5h109l-172 346q-14 28 -38 52
q10 10 27.5 19t38.5 9q24 0 37.5 -12t25.5 -37l157 -339l147 315q11 23 11 37q0 18 -9 28q22 8 51 8q21 0 32.5 -12t11.5 -30q0 -11 -6 -27z" />
    <glyph glyph-name="brokenbar" unicode="&#xa6;" horiz-adv-x="304" 
d="M109 729h85v-358h-85v358zM109 222h85v-359h-85v359z" />
    <glyph glyph-name="section" unicode="&#xa7;" horiz-adv-x="468" 
d="M82.5 -69.5q-46.5 33.5 -46.5 87.5q0 25 13 41.5t42 16.5q10 0 16 -1q-3 -13 -3 -25t1 -19q4 -44 37 -69.5t90 -25.5q53 0 86 20t33 56q0 26 -14.5 44t-36 30.5t-61.5 30.5q-9 3 -25 11q-56 28 -85.5 46t-51 49.5t-21.5 78.5q0 51 27.5 82.5t75.5 44.5q-50 28 -76.5 61
t-26.5 85q0 67 51.5 99.5t131.5 32.5q82 0 128.5 -26t46.5 -74q0 -44 -41 -48q-10 -2 -13 -2q-6 0 -16 2q1 5 1 15q0 18 -4 30q-4 31 -31.5 48t-74.5 17q-42 0 -70.5 -16.5t-28.5 -50.5q0 -30 17 -51.5t42 -35.5t70 -35q8 -4 61 -28.5t81 -58.5t28 -77q0 -45 -28.5 -82.5
t-91.5 -50.5q57 -28 88.5 -59.5t31.5 -80.5q0 -61 -50.5 -103.5t-161.5 -42.5q-94 0 -140.5 33.5zM324.5 229.5q26.5 19.5 26.5 56.5q0 26 -17 45.5t-41.5 32.5t-71.5 35q-39 1 -62 -17t-23 -54q0 -40 31 -65t92 -52q39 -1 65.5 18.5z" />
    <glyph glyph-name="dieresis" unicode="&#xa8;" horiz-adv-x="600" 
d="M168 601q-15 15 -15 35t15 34.5t36 14.5q20 0 34.5 -14.5t14.5 -34.5t-14.5 -35t-34.5 -15q-21 0 -36 15zM346 601q-15 15 -15 35t15 34.5t35 14.5t35 -14.5t15 -34.5t-15 -35t-35 -15t-35 15z" />
    <glyph glyph-name="copyright" unicode="&#xa9;" horiz-adv-x="818" 
d="M229.5 36.5q-82.5 48.5 -130.5 131.5t-48 181q0 97 48 179.5t130.5 130.5t180.5 48q97 0 179.5 -48.5t130.5 -130.5t48 -179q0 -98 -48 -181t-130.5 -131.5t-179.5 -48.5q-98 0 -180.5 48.5zM568.5 71q72.5 43 115 116.5t42.5 161.5q0 87 -42.5 160t-115 116t-159.5 43
t-159.5 -43t-115 -116t-42.5 -160q0 -88 42.5 -161.5t115 -116.5t159.5 -43t159.5 43zM278 185q-48 58 -48 164t49.5 163t137.5 57q56 0 97.5 -18.5t41.5 -46.5q0 -15 -14 -25.5t-36 -9.5q-5 37 -28 55.5t-61 18.5q-58 0 -88 -49t-30 -145t29.5 -145t86.5 -49
q38 0 66.5 21.5t36.5 62.5q20 2 35 -5.5t15 -25.5q0 -34 -47 -57.5t-109 -23.5q-86 0 -134 58z" />
    <glyph glyph-name="ordfeminine" unicode="&#xaa;" horiz-adv-x="387" 
d="M380 402q0 -17 -14.5 -28.5t-38.5 -11.5q-26 0 -46.5 17.5t-20.5 44.5q0 16 7 33l1 18q-19 -51 -58.5 -82.5t-91.5 -31.5q-41 0 -64.5 20.5t-23.5 55.5q0 42 32.5 70t84.5 41q51 12 112 12v17q0 56 -19 82.5t-62 26.5q-27 0 -45 -11.5t-18 -37.5q0 -15 6.5 -28.5
t20.5 -19.5q-13 -14 -38 -14q-26 0 -42 17t-16 42q0 39 37 60t101 21q75 0 109.5 -34t34.5 -109v-121q0 -34 24 -34q5 0 11 2.5t9 6.5q8 -8 8 -24zM197.5 427q26.5 17 44.5 46t18 62q-67 0 -100 -13q-27 -11 -41.5 -28t-14.5 -39q0 -19 10 -32t32 -13q25 0 51.5 17z" />
    <glyph glyph-name="guillemotleft" unicode="&#xab;" horiz-adv-x="686" 
d="M363 243v-5l273 -191l-27 -36l-335 200q-3 8 -3 26q0 24 3 31l335 209l26 -37zM117 243v-5l273 -191l-27 -36l-335 200q-3 8 -3 26q0 24 3 31l335 209l26 -37z" />
    <glyph glyph-name="logicalnot" unicode="&#xac;" horiz-adv-x="549" 
d="M465 389v-160q-13 -5 -25 -5q-11 0 -26 5v106h-345q-5 15 -5 27t5 27h396z" />
    <glyph glyph-name="uni00AD" unicode="&#xad;" horiz-adv-x="399" 
d="M352 286v-57h-306v57h306z" />
    <glyph glyph-name="registered" unicode="&#xae;" horiz-adv-x="818" 
d="M589.5 658.5q82.5 -48.5 130.5 -130.5t48 -179q0 -98 -48 -181t-130.5 -131.5t-179.5 -48.5q-98 0 -180.5 48.5t-130.5 131.5t-48 181q0 97 48 179.5t130.5 130.5t180.5 48q97 0 179.5 -48.5zM568.5 71q72.5 43 115 116.5t42.5 161.5q0 87 -42.5 160t-115 116t-159.5 43
t-159.5 -43t-115 -116t-42.5 -160q0 -88 42.5 -161.5t115 -116.5t159.5 -43t159.5 43zM607 181q4 -8 4 -18q0 -17 -14 -27.5t-33 -10.5q-25 0 -42 19t-32 53l-30 67q-15 32 -31.5 46t-53.5 14h-47v-116q0 -43 9 -69q-14 -14 -38 -14q-15 0 -24.5 8.5t-10.5 23.5v334
q0 47 -9 72q34 15 106 15q102 0 150 -28t48 -91q0 -45 -28.5 -76.5t-76.5 -42.5q23 -6 37.5 -21t26.5 -39l34 -69q11 -20 18.5 -28t16.5 -9q12 0 20 7zM349 350.5q14 -0.5 28 0.5q50 2 82 29.5t32 73.5q0 47 -30 71.5t-97 25.5q-30 0 -36 -1v-199q7 0 21 -0.5z" />
    <glyph glyph-name="macron" unicode="&#xaf;" horiz-adv-x="600" 
d="M411 647q4 -11 4 -24q0 -12 -4 -23h-262q-4 11 -4 23q0 13 4 24h262z" />
    <glyph glyph-name="degree" unicode="&#xb0;" horiz-adv-x="371" 
d="M95.5 498q-37.5 36 -37.5 87q0 33 17 61t46.5 44.5t64.5 16.5q34 0 63.5 -16.5t46.5 -44.5t17 -61t-17 -61.5t-46.5 -45t-63.5 -16.5q-53 0 -90.5 36zM237.5 531q21.5 22 21.5 54q0 31 -21.5 52.5t-52.5 21.5q-30 0 -51 -21.5t-21 -52.5q0 -32 21 -54t51 -22
q31 0 52.5 22z" />
    <glyph glyph-name="plusminus" unicode="&#xb1;" horiz-adv-x="577" 
d="M91 349q-5 15 -5 27q0 11 5 26h170v121q11 5 27 5t27 -5v-121h171q5 -11 5 -26q0 -16 -5 -27h-171v-122q-12 -4 -26 -4q-16 0 -27 5v121h-171zM486 173q5 -11 5 -27t-5 -27h-395q-5 15 -5 27t5 27h395z" />
    <glyph glyph-name="uni00B2" unicode="&#xb2;" horiz-adv-x="394" 
d="M31 266q0 9 1 13q69 51 113 87.5t85 95.5t41 125q0 39 -21 65t-63 26q-46 0 -65.5 -35t-21.5 -80q-32 0 -46 15.5t-14 36.5q0 24 18.5 45t53.5 34t81 13q69 0 113.5 -31.5t44.5 -94.5q0 -69 -46.5 -131.5t-108 -107t-110.5 -67.5q60 2 145.5 16t127.5 29q6 -5 10 -18
t4 -27q0 -16 -4.5 -27.5t-13.5 -12.5h-312q-12 9 -12 31z" />
    <glyph glyph-name="uni00B3" unicode="&#xb3;" horiz-adv-x="409" 
d="M96 241q-36 14 -49.5 32t-13.5 33q0 18 12 31.5t42 13.5q5 -39 25 -67.5t77 -28.5q48 0 76 27t28 72q0 57 -47.5 83.5t-118.5 26.5v30q73 3 110.5 34.5t37.5 73.5q0 35 -19 55.5t-59 20.5q-47 0 -67 -28.5t-21 -65.5q-31 -1 -42.5 11t-11.5 26q0 35 38 60.5t109 25.5
q62 0 108.5 -25t46.5 -85q0 -42 -32.5 -73t-85.5 -44q137 -23 137 -119q0 -62 -49.5 -98t-132.5 -36q-62 0 -98 14z" />
    <glyph glyph-name="uni00B5" unicode="&#xb5;" horiz-adv-x="576" 
d="M551 40q0 -23 -16.5 -36.5t-46.5 -13.5q-83 0 -83 107v14q-21 -60 -64.5 -92.5t-103.5 -32.5q-47 0 -76 14v-58q1 -39 6.5 -78.5t17.5 -64.5q-8 -8 -21.5 -14t-30.5 -6q-24 0 -38.5 13t-14.5 36l1 392l-1 171q0 74 -14 111q25 21 53 21q23 0 37 -13t14 -37l1 -266
q0 -94 21 -133.5t73 -39.5q34 0 63.5 25t48.5 78t19 134q0 125 -2.5 163.5t-13.5 68.5q26 20 52 20q23 0 37.5 -14.5t14.5 -39.5l1 -359q0 -27 6.5 -39t21.5 -12q18 0 26 14q12 -15 12 -33z" />
    <glyph glyph-name="paragraph" unicode="&#xb6;" horiz-adv-x="729" 
d="M635 -129q11 -35 30 -39q-6 -13 -23.5 -20t-38.5 -7q-25 0 -46.5 27t-21.5 70v518q0 118 -52 181.5t-152 63.5q-103 0 -147 -57t-44 -135q0 -82 39.5 -126t102.5 -44q13 0 20 1v112q0 74 -14 111q24 21 52 21q21 0 33.5 -13t12.5 -37l1 -378q0 -70 14 -111
q-7 -8 -19.5 -14.5t-27.5 -6.5q-22 0 -36.5 13.5t-14.5 36.5l-1 223q-22 -2 -32 -2q-58 0 -108.5 24.5t-81 72.5t-30.5 116q0 90 59.5 162.5t221.5 72.5q143 0 218 -71t75 -212v-464q0 -54 11 -89z" />
    <glyph glyph-name="periodcentered" unicode="&#xb7;" horiz-adv-x="277" 
d="M97 234q-17 17 -17 41t17 41t42 17q24 0 41 -17t17 -41t-17 -41t-41 -17q-25 0 -42 17z" />
    <glyph glyph-name="cedilla" unicode="&#xb8;" horiz-adv-x="600" 
d="M296 -50q46 1 72 -18.5t26 -54.5q0 -39 -29.5 -63t-78.5 -24q-61 0 -91 32q-1 7 3 18.5t9 14.5q2 -1 9.5 -7.5t21 -11t29.5 -4.5q23 0 35.5 11.5t12.5 32.5q0 20 -13 33t-42 13l-14 -1l17 89h44z" />
    <glyph glyph-name="uni00B9" unicode="&#xb9;" horiz-adv-x="325" 
d="M180 240q-11 11 -11 30v337q0 21 -2 31q-80 -75 -103 -75q-31 0 -31 49l56 36q65 44 79 52q16 7 29 7q19 0 31 -11t12 -31l1 -336q-2 -48 10 -83q-17 -17 -42 -17q-18 0 -29 11z" />
    <glyph glyph-name="ordmasculine" unicode="&#xba;" horiz-adv-x="384" 
d="M72 406q-43 47 -43 131t43 131t120 47t120 -47t43 -131t-43 -131t-120 -47t-120 47zM259 425q23 38 23 112q0 73 -23 111t-67 38t-67 -38t-23 -111q0 -74 23 -112t67 -38t67 38z" />
    <glyph glyph-name="guillemotright" unicode="&#xbb;" horiz-adv-x="686" 
d="M322 477l336 -209q2 -4 2 -28t-2 -29l-335 -200l-27 36l273 191v5l-273 197zM76 477l336 -209q2 -4 2 -28t-2 -29l-335 -200l-27 36l273 191v5l-273 197z" />
    <glyph glyph-name="onequarter" unicode="&#xbc;" horiz-adv-x="916" 
d="M180 240q-11 11 -11 30v337q0 21 -2 31q-80 -75 -103 -75q-31 0 -31 49l56 36q65 44 79 52q16 7 29 7q19 0 31 -11t12 -31l1 -336q-2 -48 10 -83q-17 -17 -42 -17q-18 0 -29 11zM596 708q14 0 26.5 -6t18.5 -17l-379 -698l-10 -1q-25 0 -42 20l376 701zM903 146
q0 -18 -10 -32h-62v-23q0 -49 10 -82q-5 -7 -16 -12.5t-26 -5.5q-17 0 -28 11.5t-11 30.5v81h-221q-10 2 -16 10t-6 18q0 9 5 17l224 292q6 7 18 12.5t24 5.5q18 0 30 -11t12 -30l1 -267q37 3 66 10q6 -12 6 -25zM760 160l-1 241l-188 -241h189z" />
    <glyph glyph-name="onehalf" unicode="&#xbd;" horiz-adv-x="960" 
d="M180 240q-11 11 -11 30v337q0 21 -2 31q-80 -75 -103 -75q-31 0 -31 49l56 36q65 44 79 52q16 7 29 7q19 0 31 -11t12 -31l1 -336q-2 -48 10 -83q-17 -17 -42 -17q-18 0 -29 11zM607 708q14 0 26.5 -6t18.5 -17l-379 -698l-10 -1q-25 0 -42 20l376 701zM590 30q0 4 2 14
q8 6 75 54.5t115 118.5t48 136q0 38 -21 64t-63 26q-46 0 -65.5 -35.5t-20.5 -79.5q-33 0 -47 16t-14 36q0 24 19 45t53.5 34t80.5 13q70 0 114 -31.5t44 -93.5q0 -70 -46.5 -132.5t-108 -107t-110.5 -66.5q57 2 143.5 15.5t130.5 28.5q6 -5 9.5 -17t3.5 -27
q0 -17 -4.5 -28.5t-13.5 -12.5h-312q-12 10 -12 30z" />
    <glyph glyph-name="threequarters" unicode="&#xbe;" horiz-adv-x="993" 
d="M96 241q-36 14 -49.5 32t-13.5 33q0 18 12 31.5t42 13.5q5 -39 25 -67.5t77 -28.5q48 0 76 27t28 72q0 57 -47.5 83.5t-118.5 26.5v30q73 3 110.5 34.5t37.5 73.5q0 35 -19 55.5t-59 20.5q-47 0 -67 -28.5t-21 -65.5q-31 -1 -42.5 11t-11.5 26q0 35 38 60.5t109 25.5
q62 0 108.5 -25t46.5 -85q0 -42 -32.5 -73t-85.5 -44q137 -23 137 -119q0 -62 -49.5 -98t-132.5 -36q-62 0 -98 14zM675 708q14 0 26.5 -6t18.5 -17l-379 -698l-10 -1q-25 0 -42 20l376 701zM982 146q0 -18 -10 -32h-62v-23q0 -49 10 -82q-5 -7 -16 -12.5t-26 -5.5
q-17 0 -28 11.5t-11 30.5v81h-221q-10 2 -16 10t-6 18q0 9 5 17l224 292q6 7 18 12.5t24 5.5q18 0 30 -11t12 -30l1 -267q37 3 66 10q6 -12 6 -25zM839 160l-1 241l-188 -241h189z" />
    <glyph glyph-name="questiondown" unicode="&#xbf;" horiz-adv-x="489" 
d="M354 513q17 -17 17 -41q0 -25 -17 -42t-42 -17q-24 0 -41 17t-17 42q0 24 17 41t41 17q25 0 42 -17zM334 180q-49 -2 -94.5 -23.5t-75 -64t-29.5 -103.5q0 -72 38 -118t112 -46q67 0 96.5 43.5t32.5 98.5q40 0 56.5 -13.5t16.5 -37.5q0 -32 -25 -62.5t-73 -49.5t-112 -19
q-103 0 -170.5 50t-67.5 155q0 69 32.5 119t84 78t109.5 34v112h69v-153z" />
    <glyph glyph-name="Agrave" unicode="&#xc0;" horiz-adv-x="599" 
d="M591 10q-19 -21 -54 -21q-22 0 -37.5 9.5t-19.5 26.5l-57 192h-255l-46 -159q-6 -24 -6 -35q0 -17 7 -25q-25 -9 -50 -9q-27 0 -39.5 9.5t-12.5 30.5q0 17 11 50l208 614q36 14 76 14q44 0 53 -32l196 -615q10 -33 26 -50zM407 270l-113 378l-110 -378h223zM176 856
q18 18 33 25l138 -118q0 -4 -6 -13t-12 -11l-178 81q7 18 25 36z" />
    <glyph glyph-name="Aacute" unicode="&#xc1;" horiz-adv-x="599" 
d="M591 10q-19 -21 -54 -21q-22 0 -37.5 9.5t-19.5 26.5l-57 192h-255l-46 -159q-6 -24 -6 -35q0 -17 7 -25q-25 -9 -50 -9q-27 0 -39.5 9.5t-12.5 30.5q0 17 11 50l208 614q36 14 76 14q44 0 53 -32l196 -615q10 -33 26 -50zM407 270l-113 378l-110 -378h223zM273 739
q-6 2 -12 11t-6 13l138 118q15 -7 33 -25t25 -36z" />
    <glyph glyph-name="Acircumflex" unicode="&#xc2;" horiz-adv-x="599" 
d="M591 10q-19 -21 -54 -21q-22 0 -37.5 9.5t-19.5 26.5l-57 192h-255l-46 -159q-6 -24 -6 -35q0 -17 7 -25q-25 -9 -50 -9q-27 0 -39.5 9.5t-12.5 30.5q0 17 11 50l208 614q36 14 76 14q44 0 53 -32l196 -615q10 -33 26 -50zM407 270l-113 378l-110 -378h223zM455 757
q-1 -5 -8 -13t-12 -10l-135 78l-136 -78q-5 2 -11.5 10t-8.5 13l128 118q9 3 27 3q19 0 28 -3z" />
    <glyph glyph-name="Atilde" unicode="&#xc3;" horiz-adv-x="599" 
d="M591 10q-19 -21 -54 -21q-22 0 -37.5 9.5t-19.5 26.5l-57 192h-255l-46 -159q-6 -24 -6 -35q0 -17 7 -25q-25 -9 -50 -9q-27 0 -39.5 9.5t-12.5 30.5q0 17 11 50l208 614q36 14 76 14q44 0 53 -32l196 -615q10 -33 26 -50zM407 270l-113 378l-110 -378h223zM419.5 778.5
q-21.5 -23.5 -54.5 -23.5q-17 0 -33 5.5t-36 16.5q-21 10 -33.5 15t-26.5 5q-44 0 -59 -41h-3q-5 0 -11.5 3t-10.5 7q6 46 30 67t58 21q17 0 30.5 -4.5t38.5 -16.5q19 -10 33.5 -15.5t30.5 -5.5q21 0 30.5 9t20.5 28q17 0 25 -8q-8 -39 -29.5 -62.5z" />
    <glyph glyph-name="Adieresis" unicode="&#xc4;" horiz-adv-x="599" 
d="M591 10q-19 -21 -54 -21q-22 0 -37.5 9.5t-19.5 26.5l-57 192h-255l-46 -159q-6 -24 -6 -35q0 -17 7 -25q-25 -9 -50 -9q-27 0 -39.5 9.5t-12.5 30.5q0 17 11 50l208 614q36 14 76 14q44 0 53 -32l196 -615q10 -33 26 -50zM407 270l-113 378l-110 -378h223zM170 774
q-16 16 -16 39t16 39t38 16t38.5 -16t16.5 -39q0 -22 -16.5 -38.5t-38.5 -16.5t-38 16zM361 774q-16 16 -16 39t16 39t38 16t38.5 -16t16.5 -39q0 -22 -16.5 -38.5t-38.5 -16.5t-38 16z" />
    <glyph glyph-name="Aring" unicode="&#xc5;" horiz-adv-x="599" 
d="M591 10q-19 -21 -54 -21q-22 0 -37.5 9.5t-19.5 26.5l-57 192h-255l-46 -159q-6 -24 -6 -35q0 -17 7 -25q-25 -9 -50 -9q-27 0 -39.5 9.5t-12.5 30.5q0 17 11 50l208 614q36 14 76 14q44 0 53 -32l196 -615q10 -33 26 -50zM407 270l-113 378l-110 -378h223zM372 887
q25 -23 25 -60q-1 -39 -27 -62t-68 -23q-41 0 -66 22t-25 59q0 39 26.5 63t68.5 24q41 0 66 -23zM271 864.5q-12 -14.5 -12 -39.5t12 -39t33 -14t33 14t12 39t-12 39.5t-33 14.5t-33 -14.5z" />
    <glyph glyph-name="AE" unicode="&#xc6;" horiz-adv-x="843" 
d="M785.5 64q4.5 -13 4.5 -27q0 -16 -6 -26.5t-17 -10.5h-317q-23 0 -37.5 13.5t-14.5 36.5v167h-197l-77 -159q-6 -14 -6 -35q0 -16 6 -25q-23 -9 -48 -9q-26 0 -40.5 12t-14.5 33q0 19 14 45l319 602q24 5 62 9t66 4h280q16 0 16 -26q0 -16 -7.5 -32.5t-18.5 -21.5
q-126 28 -264 31v-255h239q3 -13 3 -26q0 -15 -3 -27h-238v-289q67 1 144.5 11t138.5 23q9 -5 13.5 -18zM398 270l-1 292q0 36 -4 55l-167 -347h172z" />
    <glyph glyph-name="Ccedilla" unicode="&#xc7;" horiz-adv-x="600" 
d="M523 52.5q-31 -29.5 -82 -47t-108 -18.5l-7 -37q46 1 72 -18.5t26 -54.5q0 -39 -29.5 -63t-78.5 -24q-61 0 -91 32q-1 7 3 18.5t9 14.5q2 -1 9.5 -7.5t21 -11t29.5 -4.5q23 0 35.5 11.5t12.5 32.5q0 20 -13 33t-42 13l-14 -1l13 68q-111 13 -171.5 105t-60.5 253
q0 173 72 266.5t202 93.5q53 0 100 -13.5t75.5 -37.5t28.5 -54q0 -22 -20 -37t-53 -14q-8 57 -41.5 87t-88.5 30q-86 0 -130 -80.5t-44 -240.5q0 -159 43.5 -240t128.5 -81q55 0 95.5 35.5t52.5 100.5l12 1q27 0 45.5 -12t18.5 -35q0 -34 -31 -63.5z" />
    <glyph glyph-name="Egrave" unicode="&#xc8;" horiz-adv-x="540" 
d="M482.5 64q4.5 -13 4.5 -27q0 -16 -6 -26.5t-17 -10.5h-317q-24 0 -38.5 13t-14.5 37v512q0 67 -14 108q15 14 32 19t47 5h300q16 0 16 -26q0 -16 -7.5 -32.5t-18.5 -21.5q-130 28 -265 31l1 -255h239q3 -13 3 -26q0 -15 -3 -27h-239l1 -289q67 1 144.5 11t138.5 23
q9 -5 13.5 -18zM152 856q18 18 33 25l138 -118q0 -4 -6 -13t-12 -11l-178 81q7 18 25 36z" />
    <glyph glyph-name="Eacute" unicode="&#xc9;" horiz-adv-x="540" 
d="M482.5 64q4.5 -13 4.5 -27q0 -16 -6 -26.5t-17 -10.5h-317q-24 0 -38.5 13t-14.5 37v512q0 67 -14 108q15 14 32 19t47 5h300q16 0 16 -26q0 -16 -7.5 -32.5t-18.5 -21.5q-130 28 -265 31l1 -255h239q3 -13 3 -26q0 -15 -3 -27h-239l1 -289q67 1 144.5 11t138.5 23
q9 -5 13.5 -18zM249 739q-6 2 -12 11t-6 13l138 118q15 -7 33 -25t25 -36z" />
    <glyph glyph-name="Ecircumflex" unicode="&#xca;" horiz-adv-x="540" 
d="M482.5 64q4.5 -13 4.5 -27q0 -16 -6 -26.5t-17 -10.5h-317q-24 0 -38.5 13t-14.5 37v512q0 67 -14 108q15 14 32 19t47 5h300q16 0 16 -26q0 -16 -7.5 -32.5t-18.5 -21.5q-130 28 -265 31l1 -255h239q3 -13 3 -26q0 -15 -3 -27h-239l1 -289q67 1 144.5 11t138.5 23
q9 -5 13.5 -18zM431 757q-1 -5 -8 -13t-12 -10l-135 78l-136 -78q-5 2 -11.5 10t-8.5 13l128 118q9 3 27 3q19 0 28 -3z" />
    <glyph glyph-name="Edieresis" unicode="&#xcb;" horiz-adv-x="540" 
d="M482.5 64q4.5 -13 4.5 -27q0 -16 -6 -26.5t-17 -10.5h-317q-24 0 -38.5 13t-14.5 37v512q0 67 -14 108q15 14 32 19t47 5h300q16 0 16 -26q0 -16 -7.5 -32.5t-18.5 -21.5q-130 28 -265 31l1 -255h239q3 -13 3 -26q0 -15 -3 -27h-239l1 -289q67 1 144.5 11t138.5 23
q9 -5 13.5 -18zM146 774q-16 16 -16 39t16 39t38 16t38.5 -16t16.5 -39q0 -22 -16.5 -38.5t-38.5 -16.5t-38 16zM337 774q-16 16 -16 39t16 39t38 16t38.5 -16t16.5 -39q0 -22 -16.5 -38.5t-38.5 -16.5t-38 16z" />
    <glyph glyph-name="Igrave" unicode="&#xcc;" horiz-adv-x="279" 
d="M108.5 1.5q-14.5 13.5 -14.5 36.5v534q0 70 -14 112q8 8 21.5 14t30.5 6q24 0 39 -13t15 -36v-535q0 -74 14 -111q-24 -21 -53 -21q-24 0 -38.5 13.5zM4 856q18 18 33 25l138 -118q0 -4 -6 -13t-12 -11l-178 81q7 18 25 36z" />
    <glyph glyph-name="Iacute" unicode="&#xcd;" horiz-adv-x="279" 
d="M108.5 1.5q-14.5 13.5 -14.5 36.5v534q0 70 -14 112q8 8 21.5 14t30.5 6q24 0 39 -13t15 -36v-535q0 -74 14 -111q-24 -21 -53 -21q-24 0 -38.5 13.5zM101 739q-6 2 -12 11t-6 13l138 118q15 -7 33 -25t25 -36z" />
    <glyph glyph-name="Icircumflex" unicode="&#xce;" horiz-adv-x="279" 
d="M108.5 1.5q-14.5 13.5 -14.5 36.5v534q0 70 -14 112q8 8 21.5 14t30.5 6q24 0 39 -13t15 -36v-535q0 -74 14 -111q-24 -21 -53 -21q-24 0 -38.5 13.5zM283 757q-1 -5 -8 -13t-12 -10l-135 78l-136 -78q-5 2 -11.5 10t-8.5 13l128 118q9 3 27 3q19 0 28 -3z" />
    <glyph glyph-name="Idieresis" unicode="&#xcf;" horiz-adv-x="279" 
d="M108.5 1.5q-14.5 13.5 -14.5 36.5v534q0 70 -14 112q8 8 21.5 14t30.5 6q24 0 39 -13t15 -36v-535q0 -74 14 -111q-24 -21 -53 -21q-24 0 -38.5 13.5zM-2 774q-16 16 -16 39t16 39t38 16t38.5 -16t16.5 -39q0 -22 -16.5 -38.5t-38.5 -16.5t-38 16zM189 774q-16 16 -16 39
t16 39t38 16t38.5 -16t16.5 -39q0 -22 -16.5 -38.5t-38.5 -16.5t-38 16z" />
    <glyph glyph-name="Eth" unicode="&#xd0;" horiz-adv-x="641" 
d="M510 615.5q76 -88.5 76 -263.5q0 -181 -74.5 -266.5t-216.5 -85.5h-150q-25 0 -39 13t-14 36l-1 280h-67q-4 14 -4 20q0 8 4 20h67l-1 203q0 48 -1.5 76t-8.5 49q62 7 211 7q143 0 219 -88.5zM437 111q48 72 48 236t-48.5 241t-145.5 77h-110v-296h146q4 -8 4 -20
q0 -11 -4 -20h-145v-290h109q98 0 146 72z" />
    <glyph glyph-name="Ntilde" unicode="&#xd1;" horiz-adv-x="687" 
d="M81 2q13 38 13 118v449q0 80 -7 122q11 11 42 11q21 0 26 -5l72 -103q119 -170 197.5 -284.5t118.5 -185.5l-21 487q-2 35 6.5 58.5t27.5 30.5q4 1 12 1q15 0 28 -6q-2 -20 -2 -35l1 -48v-494q0 -35 1 -65.5t4 -50.5q-5 -6 -17 -9t-26 -3q-13 0 -21 3
q-109 132 -213.5 287t-173.5 275l18 -512q1 -24 -13.5 -39.5t-33.5 -15.5q-22 0 -39 14zM460.5 778.5q-21.5 -23.5 -54.5 -23.5q-17 0 -33 5.5t-36 16.5q-21 10 -33.5 15t-26.5 5q-44 0 -59 -41h-3q-5 0 -11.5 3t-10.5 7q6 46 30 67t58 21q17 0 30.5 -4.5t38.5 -16.5
q19 -10 33.5 -15.5t30.5 -5.5q21 0 30.5 9t20.5 28q17 0 25 -8q-8 -39 -29.5 -62.5z" />
    <glyph glyph-name="Ograve" unicode="&#xd2;" horiz-adv-x="654" 
d="M125.5 77q-68.5 90 -68.5 270t69 270t201 90t201 -90t69 -270t-69 -270t-201 -90q-133 0 -201.5 90zM454 104q42 78 42 243t-42 243t-127 78q-84 0 -126.5 -78t-42.5 -243t42.5 -243t126.5 -78q85 0 127 78zM201 856q18 18 33 25l138 -118q0 -4 -6 -13t-12 -11l-178 81
q7 18 25 36z" />
    <glyph glyph-name="Oacute" unicode="&#xd3;" horiz-adv-x="654" 
d="M125.5 77q-68.5 90 -68.5 270t69 270t201 90t201 -90t69 -270t-69 -270t-201 -90q-133 0 -201.5 90zM454 104q42 78 42 243t-42 243t-127 78q-84 0 -126.5 -78t-42.5 -243t42.5 -243t126.5 -78q85 0 127 78zM297 739q-6 2 -12 11t-6 13l138 118q15 -7 33 -25t25 -36z" />
    <glyph glyph-name="Ocircumflex" unicode="&#xd4;" horiz-adv-x="654" 
d="M125.5 77q-68.5 90 -68.5 270t69 270t201 90t201 -90t69 -270t-69 -270t-201 -90q-133 0 -201.5 90zM454 104q42 78 42 243t-42 243t-127 78q-84 0 -126.5 -78t-42.5 -243t42.5 -243t126.5 -78q85 0 127 78zM480 757q-1 -5 -8 -13t-12 -10l-135 78l-136 -78
q-5 2 -11.5 10t-8.5 13l128 118q9 3 27 3q19 0 28 -3z" />
    <glyph glyph-name="Otilde" unicode="&#xd5;" horiz-adv-x="654" 
d="M125.5 77q-68.5 90 -68.5 270t69 270t201 90t201 -90t69 -270t-69 -270t-201 -90q-133 0 -201.5 90zM454 104q42 78 42 243t-42 243t-127 78q-84 0 -126.5 -78t-42.5 -243t42.5 -243t126.5 -78q85 0 127 78zM444.5 778.5q-21.5 -23.5 -54.5 -23.5q-17 0 -33 5.5t-36 16.5
q-21 10 -33.5 15t-26.5 5q-44 0 -59 -41h-3q-5 0 -11.5 3t-10.5 7q6 46 30 67t58 21q17 0 30.5 -4.5t38.5 -16.5q19 -10 33.5 -15.5t30.5 -5.5q21 0 30.5 9t20.5 28q17 0 25 -8q-8 -39 -29.5 -62.5z" />
    <glyph glyph-name="Odieresis" unicode="&#xd6;" horiz-adv-x="654" 
d="M125.5 77q-68.5 90 -68.5 270t69 270t201 90t201 -90t69 -270t-69 -270t-201 -90q-133 0 -201.5 90zM454 104q42 78 42 243t-42 243t-127 78q-84 0 -126.5 -78t-42.5 -243t42.5 -243t126.5 -78q85 0 127 78zM195 774q-16 16 -16 39t16 39t38 16t38.5 -16t16.5 -39
q0 -22 -16.5 -38.5t-38.5 -16.5t-38 16zM386 774q-16 16 -16 39t16 39t38 16t38.5 -16t16.5 -39q0 -22 -16.5 -38.5t-38.5 -16.5t-38 16z" />
    <glyph glyph-name="multiply" unicode="&#xd7;" horiz-adv-x="496" 
d="M286 350l135 -136q-13 -27 -38 -38l-135 136l-136 -136q-26 12 -37 38l135 135l-135 135q11 25 38 38l135 -135l135 136q25 -11 38 -38z" />
    <glyph glyph-name="Oslash" unicode="&#xd8;" horiz-adv-x="643" 
d="M597 347q0 -180 -69 -270t-201 -90q-108 0 -173 59l-36 -60q-23 0 -33 19l42 70q-70 91 -70 272q0 180 69 270t201 90q88 0 149 -41l31 52q22 0 33 -20l-34 -57q91 -88 91 -294zM178 162l265 447q-41 59 -116 59q-84 0 -126.5 -78t-42.5 -243q0 -111 20 -185zM454 104
q42 78 42 243q0 143 -32 222l-269 -454q41 -89 132 -89q85 0 127 78z" />
    <glyph glyph-name="Ugrave" unicode="&#xd9;" horiz-adv-x="661" 
d="M578 306q0 -158 -62 -238.5t-186 -80.5q-122 0 -181.5 77.5t-59.5 241.5v266q0 74 -14 112q22 20 53 20q23 0 37.5 -13t14.5 -36v-353q0 -144 36 -210t114 -66q158 0 158 276v270q0 74 -14 112q23 20 53 20q22 0 36.5 -13t14.5 -36v-349zM204 856q18 18 33 25l138 -118
q0 -4 -6 -13t-12 -11l-178 81q7 18 25 36z" />
    <glyph glyph-name="Uacute" unicode="&#xda;" horiz-adv-x="661" 
d="M578 306q0 -158 -62 -238.5t-186 -80.5q-122 0 -181.5 77.5t-59.5 241.5v266q0 74 -14 112q22 20 53 20q23 0 37.5 -13t14.5 -36v-353q0 -144 36 -210t114 -66q158 0 158 276v270q0 74 -14 112q23 20 53 20q22 0 36.5 -13t14.5 -36v-349zM301 739q-6 2 -12 11t-6 13
l138 118q15 -7 33 -25t25 -36z" />
    <glyph glyph-name="Ucircumflex" unicode="&#xdb;" horiz-adv-x="661" 
d="M578 306q0 -158 -62 -238.5t-186 -80.5q-122 0 -181.5 77.5t-59.5 241.5v266q0 74 -14 112q22 20 53 20q23 0 37.5 -13t14.5 -36v-353q0 -144 36 -210t114 -66q158 0 158 276v270q0 74 -14 112q23 20 53 20q22 0 36.5 -13t14.5 -36v-349zM483 757q-1 -5 -8 -13t-12 -10
l-135 78l-136 -78q-5 2 -11.5 10t-8.5 13l128 118q9 3 27 3q19 0 28 -3z" />
    <glyph glyph-name="Udieresis" unicode="&#xdc;" horiz-adv-x="661" 
d="M578 306q0 -158 -62 -238.5t-186 -80.5q-122 0 -181.5 77.5t-59.5 241.5v266q0 74 -14 112q22 20 53 20q23 0 37.5 -13t14.5 -36v-353q0 -144 36 -210t114 -66q158 0 158 276v270q0 74 -14 112q23 20 53 20q22 0 36.5 -13t14.5 -36v-349zM198 774q-16 16 -16 39t16 39
t38 16t38.5 -16t16.5 -39q0 -22 -16.5 -38.5t-38.5 -16.5t-38 16zM389 774q-16 16 -16 39t16 39t38 16t38.5 -16t16.5 -39q0 -22 -16.5 -38.5t-38.5 -16.5t-38 16z" />
    <glyph glyph-name="Yacute" unicode="&#xdd;" horiz-adv-x="561" 
d="M535 635q-6 -16 -16 -31l-193 -353l1 -131q0 -74 14 -111q-8 -8 -21.5 -14.5t-30.5 -6.5q-24 0 -38.5 13.5t-14.5 36.5v214q-2 3 -13 22l-174 350q-14 28 -38 52q10 10 27.5 19t38.5 9q24 0 37.5 -12t25.5 -37l157 -339l147 315q11 23 11 37q0 18 -9 28q22 8 51 8
q21 0 32.5 -12t11.5 -30q0 -11 -6 -27zM269 739q-6 2 -12 11t-6 13l138 118q15 -7 33 -25t25 -36z" />
    <glyph glyph-name="Thorn" unicode="&#xde;" horiz-adv-x="563" 
d="M447 527.5q71 -49.5 71 -155.5q0 -112 -77.5 -169.5t-228.5 -57.5h-26v-25q0 -74 14 -111q-24 -21 -53 -21q-24 0 -38.5 13.5t-14.5 36.5v534q0 70 -14 112q8 8 21.5 14t30.5 6q24 0 38 -13t14 -36v-79q16 1 45 1q147 0 218 -49.5zM369 229.5q49 46.5 49 136.5
q0 86 -45 129t-146 43l-43 1l2 -356h27q107 0 156 46.5z" />
    <glyph glyph-name="germandbls" unicode="&#xdf;" horiz-adv-x="605" 
d="M93.5 4q-13.5 14 -13.5 40l-1 380q-1 307 235 307q86 0 131.5 -38t45.5 -105q0 -48 -19.5 -77.5t-55.5 -61.5q-24 -22 -35.5 -37.5t-11.5 -34.5t12 -34.5t28 -26t55 -34.5q53 -32 80.5 -63.5t27.5 -83.5q0 -62 -44 -104.5t-136 -42.5q-77 0 -114.5 31.5t-37.5 83.5t39 54
q3 1 9 1q7 0 10 -1q-4 -15 -4 -38q0 -42 24.5 -64t64.5 -22q43 0 69 23t26 61q0 39 -22.5 60.5t-65.5 45.5q-58 32 -84 59.5t-26 71.5q0 40 20 67t58 57q37 31 55 55t18 59q0 45 -31 73t-86 28q-62 0 -94 -34t-42 -88.5t-10 -134.5v-105q0 -113 1 -183t4 -92.5t11 -44.5
q-8 -7 -23 -14t-32 -7q-22 0 -35.5 14z" />
    <glyph glyph-name="agrave" unicode="&#xe0;" horiz-adv-x="553" 
d="M544 45q0 -23 -21.5 -39t-52.5 -16q-46 0 -69 32t-23 100v16q-31 -68 -86 -108.5t-123 -40.5q-58 0 -92 31.5t-34 84.5q0 60 46 101.5t121 62.5q80 21 163 18v25q0 89 -27.5 131t-91.5 42q-41 0 -69 -19t-28 -61q0 -22 10.5 -42.5t31.5 -28.5q-18 -21 -53 -21
q-36 0 -58 26.5t-22 62.5q0 58 52.5 89.5t143.5 31.5q105 0 154.5 -52t49.5 -164v-194q0 -53 35 -53q8 0 17 5t15 14q11 -16 11 -34zM284 79.5q39 28.5 65 75t27 98.5q-37 2 -78 -3.5t-69 -17.5q-42 -16 -64.5 -43t-22.5 -64q0 -32 16 -53t50 -21q37 0 76 28.5zM156.5 718
q29.5 7 48.5 5l91 -151q-4 -3 -16 -5t-22 -2l-140 138q9 8 38.5 15z" />
    <glyph glyph-name="aacute" unicode="&#xe1;" horiz-adv-x="553" 
d="M544 45q0 -23 -21.5 -39t-52.5 -16q-46 0 -69 32t-23 100v16q-31 -68 -86 -108.5t-123 -40.5q-58 0 -92 31.5t-34 84.5q0 60 46 101.5t121 62.5q80 21 163 18v25q0 89 -27.5 131t-91.5 42q-41 0 -69 -19t-28 -61q0 -22 10.5 -42.5t31.5 -28.5q-18 -21 -53 -21
q-36 0 -58 26.5t-22 62.5q0 58 52.5 89.5t143.5 31.5q105 0 154.5 -52t49.5 -164v-194q0 -53 35 -53q8 0 17 5t15 14q11 -16 11 -34zM284 79.5q39 28.5 65 75t27 98.5q-37 2 -78 -3.5t-69 -17.5q-42 -16 -64.5 -43t-22.5 -64q0 -32 16 -53t50 -21q37 0 76 28.5zM270 565
q-10 0 -22 2t-16 5l91 151q19 2 48 -5t39 -15z" />
    <glyph glyph-name="acircumflex" unicode="&#xe2;" horiz-adv-x="553" 
d="M544 45q0 -23 -21.5 -39t-52.5 -16q-46 0 -69 32t-23 100v16q-31 -68 -86 -108.5t-123 -40.5q-58 0 -92 31.5t-34 84.5q0 60 46 101.5t121 62.5q80 21 163 18v25q0 89 -27.5 131t-91.5 42q-41 0 -69 -19t-28 -61q0 -22 10.5 -42.5t31.5 -28.5q-18 -21 -53 -21
q-36 0 -58 26.5t-22 62.5q0 58 52.5 89.5t143.5 31.5q105 0 154.5 -52t49.5 -164v-194q0 -53 35 -53q8 0 17 5t15 14q11 -16 11 -34zM284 79.5q39 28.5 65 75t27 98.5q-37 2 -78 -3.5t-69 -17.5q-42 -16 -64.5 -43t-22.5 -64q0 -32 16 -53t50 -21q37 0 76 28.5zM127 567
q-12 4 -13 8l121 141q9 3 29 3q17 0 26 -3l121 -141q-2 -4 -13.5 -8t-19.5 -4l-115 86l-116 -86q-8 0 -20 4z" />
    <glyph glyph-name="atilde" unicode="&#xe3;" horiz-adv-x="553" 
d="M544 45q0 -23 -21.5 -39t-52.5 -16q-46 0 -69 32t-23 100v16q-31 -68 -86 -108.5t-123 -40.5q-58 0 -92 31.5t-34 84.5q0 60 46 101.5t121 62.5q80 21 163 18v25q0 89 -27.5 131t-91.5 42q-41 0 -69 -19t-28 -61q0 -22 10.5 -42.5t31.5 -28.5q-18 -21 -53 -21
q-36 0 -58 26.5t-22 62.5q0 58 52.5 89.5t143.5 31.5q105 0 154.5 -52t49.5 -164v-194q0 -53 35 -53q8 0 17 5t15 14q11 -16 11 -34zM284 79.5q39 28.5 65 75t27 98.5q-37 2 -78 -3.5t-69 -17.5q-42 -16 -64.5 -43t-22.5 -64q0 -32 16 -53t50 -21q37 0 76 28.5zM380 604.5
q-21 -24.5 -54 -24.5q-17 0 -32 6t-33 18q-17 11 -30 17t-28 6q-44 0 -60 -42h-2q-5 0 -11.5 3t-10.5 7q6 45 30.5 66.5t57.5 21.5q18 0 32.5 -6t33.5 -19q20 -12 32 -17.5t28 -5.5q21 0 31.5 10.5t19.5 32.5q15 0 23 -8q-6 -41 -27 -65.5z" />
    <glyph glyph-name="adieresis" unicode="&#xe4;" horiz-adv-x="553" 
d="M544 45q0 -23 -21.5 -39t-52.5 -16q-46 0 -69 32t-23 100v16q-31 -68 -86 -108.5t-123 -40.5q-58 0 -92 31.5t-34 84.5q0 60 46 101.5t121 62.5q80 21 163 18v25q0 89 -27.5 131t-91.5 42q-41 0 -69 -19t-28 -61q0 -22 10.5 -42.5t31.5 -28.5q-18 -21 -53 -21
q-36 0 -58 26.5t-22 62.5q0 58 52.5 89.5t143.5 31.5q105 0 154.5 -52t49.5 -164v-194q0 -53 35 -53q8 0 17 5t15 14q11 -16 11 -34zM284 79.5q39 28.5 65 75t27 98.5q-37 2 -78 -3.5t-69 -17.5q-42 -16 -64.5 -43t-22.5 -64q0 -32 16 -53t50 -21q37 0 76 28.5zM143 601
q-15 15 -15 35t15 34.5t36 14.5q20 0 34.5 -14.5t14.5 -34.5t-14.5 -35t-34.5 -15q-21 0 -36 15zM321 601q-15 15 -15 35t15 34.5t35 14.5t35 -14.5t15 -34.5t-15 -35t-35 -15t-35 15z" />
    <glyph glyph-name="aring" unicode="&#xe5;" horiz-adv-x="553" 
d="M544 45q0 -23 -21.5 -39t-52.5 -16q-46 0 -69 32t-23 100v16q-31 -68 -86 -108.5t-123 -40.5q-58 0 -92 31.5t-34 84.5q0 60 46 101.5t121 62.5q80 21 163 18v25q0 89 -27.5 131t-91.5 42q-41 0 -69 -19t-28 -61q0 -22 10.5 -42.5t31.5 -28.5q-18 -21 -53 -21
q-36 0 -58 26.5t-22 62.5q0 58 52.5 89.5t143.5 31.5q105 0 154.5 -52t49.5 -164v-194q0 -53 35 -53q8 0 17 5t15 14q11 -16 11 -34zM284 79.5q39 28.5 65 75t27 98.5q-37 2 -78 -3.5t-69 -17.5q-42 -16 -64.5 -43t-22.5 -64q0 -32 16 -53t50 -21q37 0 76 28.5zM335 702
q25 -23 25 -60q-1 -39 -27 -62t-68 -23q-41 0 -66 22t-25 59q0 39 26.5 63t68.5 24q41 0 66 -23zM234 679.5q-12 -14.5 -12 -39.5t12 -39t33 -14t33 14t12 39t-12 39.5t-33 14.5t-33 -14.5z" />
    <glyph glyph-name="ae" unicode="&#xe6;" horiz-adv-x="850" 
d="M802 109q0 -11 -7 -28q-18 -46 -65.5 -70t-114.5 -24q-88 0 -146.5 43.5t-80.5 126.5q-31 -76 -89 -122t-130 -46q-58 0 -92 31.5t-34 84.5q0 60 46 101.5t121 62.5q80 21 166 18v25q0 88 -28 130.5t-91 42.5q-43 0 -71.5 -19t-28.5 -61q0 -22 10.5 -42.5t31.5 -28.5
q-18 -21 -53 -21q-36 0 -58 26.5t-22 62.5q0 58 52.5 89.5t145.5 31.5q118 0 166 -85q62 85 189 85q84 0 135.5 -38t51.5 -108q0 -74 -60 -113t-165 -39q-53 0 -106 6q12 -184 163 -184q54 0 94 22.5t55 62.5q15 -6 15 -23zM513 428.5q-38 -56.5 -39 -160.5q21 -2 67 -4
q76 0 122 27.5t46 98.5q0 52 -27 73.5t-67 21.5q-64 0 -102 -56.5zM281 77q38 26 65 69t31 92v15v0q-39 2 -79.5 -3.5t-68.5 -17.5q-42 -16 -64.5 -43t-22.5 -64q0 -32 16 -53t50 -21q35 0 73 26z" />
    <glyph glyph-name="ccedilla" unicode="&#xe7;" horiz-adv-x="507" 
d="M463 122q0 -11 -4 -26q-16 -50 -59.5 -78t-106.5 -31l-7 -37q46 1 72 -18.5t26 -54.5q0 -39 -29.5 -63t-78.5 -24q-61 0 -91 32q-1 7 3 18.5t9 14.5q2 -1 9.5 -7.5t21 -11t29.5 -4.5q23 0 35.5 11.5t12.5 32.5q0 20 -13 33t-42 13l-14 -1l13 67q-99 9 -153 77t-54 188
q0 126 63.5 198t179.5 72q82 0 127.5 -35.5t45.5 -91.5q0 -36 -20 -58t-52 -22q-34 0 -51 21q32 15 32 66q0 42 -25 62t-66 20q-62 0 -99.5 -56.5t-37.5 -161.5q0 -114 44.5 -167t119.5 -53q55 0 94 27t51 76q15 -7 15 -28z" />
    <glyph glyph-name="egrave" unicode="&#xe8;" horiz-adv-x="514" 
d="M467 109q0 -11 -7 -28q-18 -46 -66 -70t-114 -24q-111 0 -174.5 69t-63.5 197q0 126 63 198t179 72q84 0 135.5 -38t51.5 -108q0 -74 -60 -113t-165 -39q-53 0 -106 6q12 -184 163 -184q54 0 93.5 22.5t55.5 62.5q15 -6 15 -23zM177.5 429q-37.5 -56 -38.5 -161
q21 -2 67 -4q76 0 122 27.5t46 98.5q0 52 -27 73.5t-67 21.5q-65 0 -102.5 -56zM162.5 718q29.5 7 48.5 5l91 -151q-4 -3 -16 -5t-22 -2l-140 138q9 8 38.5 15z" />
    <glyph glyph-name="eacute" unicode="&#xe9;" horiz-adv-x="514" 
d="M467 109q0 -11 -7 -28q-18 -46 -66 -70t-114 -24q-111 0 -174.5 69t-63.5 197q0 126 63 198t179 72q84 0 135.5 -38t51.5 -108q0 -74 -60 -113t-165 -39q-53 0 -106 6q12 -184 163 -184q54 0 93.5 22.5t55.5 62.5q15 -6 15 -23zM177.5 429q-37.5 -56 -38.5 -161
q21 -2 67 -4q76 0 122 27.5t46 98.5q0 52 -27 73.5t-67 21.5q-65 0 -102.5 -56zM276 565q-10 0 -22 2t-16 5l91 151q19 2 48 -5t39 -15z" />
    <glyph glyph-name="ecircumflex" unicode="&#xea;" horiz-adv-x="514" 
d="M467 109q0 -11 -7 -28q-18 -46 -66 -70t-114 -24q-111 0 -174.5 69t-63.5 197q0 126 63 198t179 72q84 0 135.5 -38t51.5 -108q0 -74 -60 -113t-165 -39q-53 0 -106 6q12 -184 163 -184q54 0 93.5 22.5t55.5 62.5q15 -6 15 -23zM177.5 429q-37.5 -56 -38.5 -161
q21 -2 67 -4q76 0 122 27.5t46 98.5q0 52 -27 73.5t-67 21.5q-65 0 -102.5 -56zM132 567q-12 4 -13 8l121 141q9 3 29 3q17 0 26 -3l121 -141q-2 -4 -13.5 -8t-19.5 -4l-115 86l-116 -86q-8 0 -20 4z" />
    <glyph glyph-name="edieresis" unicode="&#xeb;" horiz-adv-x="514" 
d="M467 109q0 -11 -7 -28q-18 -46 -66 -70t-114 -24q-111 0 -174.5 69t-63.5 197q0 126 63 198t179 72q84 0 135.5 -38t51.5 -108q0 -74 -60 -113t-165 -39q-53 0 -106 6q12 -184 163 -184q54 0 93.5 22.5t55.5 62.5q15 -6 15 -23zM177.5 429q-37.5 -56 -38.5 -161
q21 -2 67 -4q76 0 122 27.5t46 98.5q0 52 -27 73.5t-67 21.5q-65 0 -102.5 -56zM148 601q-15 15 -15 35t15 34.5t36 14.5q20 0 34.5 -14.5t14.5 -34.5t-14.5 -35t-34.5 -15q-21 0 -36 15zM326 601q-15 15 -15 35t15 34.5t35 14.5t35 -14.5t15 -34.5t-15 -35t-35 -15t-35 15z
" />
    <glyph glyph-name="igrave" unicode="&#xec;" horiz-adv-x="249" 
d="M184 9q-21 -21 -52 -21q-22 0 -36.5 13.5t-14.5 36.5l-1 353q0 75 -14 112q26 20 51 20q24 0 38 -13t14 -36l1 -354q0 -74 14 -111zM9.5 718q29.5 7 48.5 5l91 -151q-4 -3 -16 -5t-22 -2l-140 138q9 8 38.5 15z" />
    <glyph glyph-name="iacute" unicode="&#xed;" horiz-adv-x="249" 
d="M184 9q-21 -21 -52 -21q-22 0 -36.5 13.5t-14.5 36.5l-1 353q0 75 -14 112q26 20 51 20q24 0 38 -13t14 -36l1 -354q0 -74 14 -111zM123 565q-10 0 -22 2t-16 5l91 151q19 2 48 -5t39 -15z" />
    <glyph glyph-name="icircumflex" unicode="&#xee;" horiz-adv-x="249" 
d="M184 9q-21 -21 -52 -21q-22 0 -36.5 13.5t-14.5 36.5l-1 353q0 75 -14 112q26 20 51 20q24 0 38 -13t14 -36l1 -354q0 -74 14 -111zM-21 567q-12 4 -13 8l121 141q9 3 29 3q17 0 26 -3l121 -141q-2 -4 -13.5 -8t-19.5 -4l-115 86l-116 -86q-8 0 -20 4z" />
    <glyph glyph-name="idieresis" unicode="&#xef;" horiz-adv-x="249" 
d="M184 9q-21 -21 -52 -21q-22 0 -36.5 13.5t-14.5 36.5l-1 353q0 75 -14 112q26 20 51 20q24 0 38 -13t14 -36l1 -354q0 -74 14 -111zM-5 601q-15 15 -15 35t15 34.5t36 14.5q20 0 34.5 -14.5t14.5 -34.5t-14.5 -35t-34.5 -15q-21 0 -36 15zM173 601q-15 15 -15 35t15 34.5
t35 14.5t35 -14.5t15 -34.5t-15 -35t-35 -15t-35 15z" />
    <glyph glyph-name="eth" unicode="&#xf0;" horiz-adv-x="526" 
d="M458.5 486.5q25.5 -90.5 25.5 -196.5q0 -137 -57 -220t-173 -83q-119 0 -165.5 71.5t-46.5 179.5q0 118 55.5 190t154.5 72q43 0 76.5 -13.5t53.5 -38.5q-15 80 -73 145l-76 -43q-18 13 -20 34l66 38q-59 48 -113 48l-23 -1q0 25 14.5 43.5t45.5 18.5q89 0 155 -64l75 43
q20 -9 20 -34l-68 -39q48 -60 73.5 -150.5zM355 100q31 59 31 172q0 178 -115 178q-65 0 -98.5 -55t-33.5 -148q0 -96 26 -151t92 -55q67 0 98 59z" />
    <glyph glyph-name="ntilde" unicode="&#xf1;" horiz-adv-x="577" 
d="M517 9q-23 -21 -52 -21q-23 0 -38 13.5t-15 36.5v266q-1 86 -23 127t-75 41q-34 0 -64.5 -24.5t-50 -76.5t-19.5 -131q0 -125 2 -164t13 -68q-8 -8 -21.5 -14t-30.5 -6q-24 0 -38.5 14.5t-14.5 39.5v359q-1 28 -7.5 39.5t-20.5 11.5q-19 0 -26 -14q-12 17 -12 33
q0 23 17 37t47 14q40 0 61.5 -27.5t21.5 -80.5v-12q21 58 65 89.5t105 31.5q161 0 161 -207v-196q2 -77 15 -111zM414 604.5q-21 -24.5 -54 -24.5q-17 0 -32 6t-33 18q-17 11 -30 17t-28 6q-44 0 -60 -42h-2q-5 0 -11.5 3t-10.5 7q6 45 30.5 66.5t57.5 21.5q18 0 32.5 -6
t33.5 -19q20 -12 32 -17.5t28 -5.5q21 0 31.5 10.5t19.5 32.5q15 0 23 -8q-6 -41 -27 -65.5z" />
    <glyph glyph-name="ograve" unicode="&#xf2;" horiz-adv-x="550" 
d="M103.5 57.5q-61.5 70.5 -61.5 196.5q0 127 61.5 198t171.5 71t171 -71t61 -198q0 -126 -61 -196.5t-171 -70.5t-171.5 70.5zM375.5 84q34.5 59 34.5 170q0 113 -34.5 172t-100.5 59q-67 0 -101.5 -59t-34.5 -172q0 -111 34.5 -170t101.5 -59q66 0 100.5 59zM167.5 718
q29.5 7 48.5 5l91 -151q-4 -3 -16 -5t-22 -2l-140 138q9 8 38.5 15z" />
    <glyph glyph-name="oacute" unicode="&#xf3;" horiz-adv-x="550" 
d="M103.5 57.5q-61.5 70.5 -61.5 196.5q0 127 61.5 198t171.5 71t171 -71t61 -198q0 -126 -61 -196.5t-171 -70.5t-171.5 70.5zM375.5 84q34.5 59 34.5 170q0 113 -34.5 172t-100.5 59q-67 0 -101.5 -59t-34.5 -172q0 -111 34.5 -170t101.5 -59q66 0 100.5 59zM280 565
q-10 0 -22 2t-16 5l91 151q19 2 48 -5t39 -15z" />
    <glyph glyph-name="ocircumflex" unicode="&#xf4;" horiz-adv-x="550" 
d="M103.5 57.5q-61.5 70.5 -61.5 196.5q0 127 61.5 198t171.5 71t171 -71t61 -198q0 -126 -61 -196.5t-171 -70.5t-171.5 70.5zM375.5 84q34.5 59 34.5 170q0 113 -34.5 172t-100.5 59q-67 0 -101.5 -59t-34.5 -172q0 -111 34.5 -170t101.5 -59q66 0 100.5 59zM137 567
q-12 4 -13 8l121 141q9 3 29 3q17 0 26 -3l121 -141q-2 -4 -13.5 -8t-19.5 -4l-115 86l-116 -86q-8 0 -20 4z" />
    <glyph glyph-name="otilde" unicode="&#xf5;" horiz-adv-x="550" 
d="M103.5 57.5q-61.5 70.5 -61.5 196.5q0 127 61.5 198t171.5 71t171 -71t61 -198q0 -126 -61 -196.5t-171 -70.5t-171.5 70.5zM375.5 84q34.5 59 34.5 170q0 113 -34.5 172t-100.5 59q-67 0 -101.5 -59t-34.5 -172q0 -111 34.5 -170t101.5 -59q66 0 100.5 59zM390 604.5
q-21 -24.5 -54 -24.5q-17 0 -32 6t-33 18q-17 11 -30 17t-28 6q-44 0 -60 -42h-2q-5 0 -11.5 3t-10.5 7q6 45 30.5 66.5t57.5 21.5q18 0 32.5 -6t33.5 -19q20 -12 32 -17.5t28 -5.5q21 0 31.5 10.5t19.5 32.5q15 0 23 -8q-6 -41 -27 -65.5z" />
    <glyph glyph-name="odieresis" unicode="&#xf6;" horiz-adv-x="550" 
d="M103.5 57.5q-61.5 70.5 -61.5 196.5q0 127 61.5 198t171.5 71t171 -71t61 -198q0 -126 -61 -196.5t-171 -70.5t-171.5 70.5zM375.5 84q34.5 59 34.5 170q0 113 -34.5 172t-100.5 59q-67 0 -101.5 -59t-34.5 -172q0 -111 34.5 -170t101.5 -59q66 0 100.5 59zM153 601
q-15 15 -15 35t15 34.5t36 14.5q20 0 34.5 -14.5t14.5 -34.5t-14.5 -35t-34.5 -15q-21 0 -36 15zM331 601q-15 15 -15 35t15 34.5t35 14.5t35 -14.5t15 -34.5t-15 -35t-35 -15t-35 15z" />
    <glyph glyph-name="divide" unicode="&#xf7;" horiz-adv-x="548" 
d="M243 483q-13 13 -13 31t13 31t32 13q18 0 31 -13t13 -31t-13 -31t-31 -13q-19 0 -32 13zM472 376q5 -11 5 -27t-5 -27h-396q-5 15 -5 27t5 27h396zM243 153q-13 13 -13 31q0 19 13 32t32 13q18 0 31 -13t13 -32q0 -18 -13 -31t-31 -13q-19 0 -32 13z" />
    <glyph glyph-name="oslash" unicode="&#xf8;" horiz-adv-x="550" 
d="M488 378q19 -54 19 -124q0 -126 -61 -196.5t-171 -70.5q-71 0 -122 30l-22 -35q-24 2 -33 20l23 38q-39 34 -59 88.5t-20 125.5q0 127 61.5 198t171.5 71q73 0 125 -32l19 30q23 0 34 -20l-21 -34q37 -35 56 -89zM163 106l205 332q-35 47 -93 47q-67 0 -101.5 -59
t-34.5 -172q0 -91 24 -148zM375.5 84q34.5 59 34.5 170q0 89 -21 144l-205 -330q35 -43 91 -43q66 0 100.5 59z" />
    <glyph glyph-name="ugrave" unicode="&#xf9;" horiz-adv-x="570" 
d="M546 40q0 -23 -16.5 -36.5t-46.5 -13.5q-40 0 -61.5 27t-21.5 80v13q-20 -59 -63.5 -91.5t-103.5 -32.5q-82 0 -119.5 48t-37.5 161v196q0 70 -14 111q25 21 52 21q23 0 37.5 -13.5t14.5 -36.5v-266q0 -94 21 -133.5t73 -39.5q34 0 63.5 25t48.5 78t19 134
q0 125 -2 163.5t-13 68.5q23 20 52 20q22 0 37 -14.5t15 -39.5l1 -359q0 -28 6.5 -39.5t20.5 -11.5q19 0 27 14q11 -15 11 -33zM161.5 718q29.5 7 48.5 5l91 -151q-4 -3 -16 -5t-22 -2l-140 138q9 8 38.5 15z" />
    <glyph glyph-name="uacute" unicode="&#xfa;" horiz-adv-x="570" 
d="M546 40q0 -23 -16.5 -36.5t-46.5 -13.5q-40 0 -61.5 27t-21.5 80v13q-20 -59 -63.5 -91.5t-103.5 -32.5q-82 0 -119.5 48t-37.5 161v196q0 70 -14 111q25 21 52 21q23 0 37.5 -13.5t14.5 -36.5v-266q0 -94 21 -133.5t73 -39.5q34 0 63.5 25t48.5 78t19 134
q0 125 -2 163.5t-13 68.5q23 20 52 20q22 0 37 -14.5t15 -39.5l1 -359q0 -28 6.5 -39.5t20.5 -11.5q19 0 27 14q11 -15 11 -33zM275 565q-10 0 -22 2t-16 5l91 151q19 2 48 -5t39 -15z" />
    <glyph glyph-name="ucircumflex" unicode="&#xfb;" horiz-adv-x="570" 
d="M546 40q0 -23 -16.5 -36.5t-46.5 -13.5q-40 0 -61.5 27t-21.5 80v13q-20 -59 -63.5 -91.5t-103.5 -32.5q-82 0 -119.5 48t-37.5 161v196q0 70 -14 111q25 21 52 21q23 0 37.5 -13.5t14.5 -36.5v-266q0 -94 21 -133.5t73 -39.5q34 0 63.5 25t48.5 78t19 134
q0 125 -2 163.5t-13 68.5q23 20 52 20q22 0 37 -14.5t15 -39.5l1 -359q0 -28 6.5 -39.5t20.5 -11.5q19 0 27 14q11 -15 11 -33zM131 567q-12 4 -13 8l121 141q9 3 29 3q17 0 26 -3l121 -141q-2 -4 -13.5 -8t-19.5 -4l-115 86l-116 -86q-8 0 -20 4z" />
    <glyph glyph-name="udieresis" unicode="&#xfc;" horiz-adv-x="570" 
d="M546 40q0 -23 -16.5 -36.5t-46.5 -13.5q-40 0 -61.5 27t-21.5 80v13q-20 -59 -63.5 -91.5t-103.5 -32.5q-82 0 -119.5 48t-37.5 161v196q0 70 -14 111q25 21 52 21q23 0 37.5 -13.5t14.5 -36.5v-266q0 -94 21 -133.5t73 -39.5q34 0 63.5 25t48.5 78t19 134
q0 125 -2 163.5t-13 68.5q23 20 52 20q22 0 37 -14.5t15 -39.5l1 -359q0 -28 6.5 -39.5t20.5 -11.5q19 0 27 14q11 -15 11 -33zM147 601q-15 15 -15 35t15 34.5t36 14.5q20 0 34.5 -14.5t14.5 -34.5t-14.5 -35t-34.5 -15q-21 0 -36 15zM325 601q-15 15 -15 35t15 34.5
t35 14.5t35 -14.5t15 -34.5t-15 -35t-35 -15t-35 15z" />
    <glyph glyph-name="yacute" unicode="&#xfd;" horiz-adv-x="549" 
d="M481 50q0 -281 -240 -281q-75 0 -125 25.5t-50 81.5q0 29 18.5 48.5t48.5 19.5t42 -17q-13 -9 -19 -22.5t-6 -25.5q0 -37 26.5 -56t64.5 -19q155 0 155 241q0 20 4 74q-21 -61 -64.5 -94t-107.5 -33q-77 0 -114.5 48t-37.5 160v191q0 70 -14 111q25 21 52 21
q23 0 37.5 -13.5t14.5 -36.5v-261q0 -90 20 -131t68 -41q59 0 98 58.5t39 177.5q0 122 -2 160t-13 67q23 20 52 20q22 0 37 -14.5t15 -39.5zM284 565q-10 0 -22 2t-16 5l91 151q19 2 48 -5t39 -15z" />
    <glyph glyph-name="thorn" unicode="&#xfe;" horiz-adv-x="556" 
d="M475 451.5q39 -71.5 39 -174.5q0 -138 -55.5 -213.5t-156.5 -75.5q-49 0 -83.5 19.5t-49.5 54.5v-106q0 -103 15 -157q-22 -20 -52 -20q-24 0 -38.5 13t-14.5 36v853q0 25 12.5 37t35.5 12q17 0 32 -6.5t23 -13.5q-9 -29 -12 -68.5t-4 -103.5v-149q24 64 67.5 99
t106.5 35q96 0 135 -71.5zM383.5 100q34.5 60 34.5 177q0 87 -21 139.5t-81 52.5q-46 0 -79 -35.5t-50 -95t-17 -128.5q0 -80 24.5 -125t86.5 -45q68 0 102.5 60z" />
    <glyph glyph-name="ydieresis" unicode="&#xff;" horiz-adv-x="549" 
d="M481 50q0 -281 -240 -281q-75 0 -125 25.5t-50 81.5q0 29 18.5 48.5t48.5 19.5t42 -17q-13 -9 -19 -22.5t-6 -25.5q0 -37 26.5 -56t64.5 -19q155 0 155 241q0 20 4 74q-21 -61 -64.5 -94t-107.5 -33q-77 0 -114.5 48t-37.5 160v191q0 70 -14 111q25 21 52 21
q23 0 37.5 -13.5t14.5 -36.5v-261q0 -90 20 -131t68 -41q59 0 98 58.5t39 177.5q0 122 -2 160t-13 67q23 20 52 20q22 0 37 -14.5t15 -39.5zM157 601q-15 15 -15 35t15 34.5t36 14.5q20 0 34.5 -14.5t14.5 -34.5t-14.5 -35t-34.5 -15q-21 0 -36 15zM335 601q-15 15 -15 35
t15 34.5t35 14.5t35 -14.5t15 -34.5t-15 -35t-35 -15t-35 15z" />
    <glyph glyph-name="Amacron" unicode="&#x100;" horiz-adv-x="599" 
d="M591 10q-19 -21 -54 -21q-22 0 -37.5 9.5t-19.5 26.5l-57 192h-255l-46 -159q-6 -24 -6 -35q0 -17 7 -25q-25 -9 -50 -9q-27 0 -39.5 9.5t-12.5 30.5q0 17 11 50l208 614q36 14 76 14q44 0 53 -32l196 -615q10 -33 26 -50zM407 270l-113 378l-110 -378h223zM434 821
q4 -11 4 -23q0 -13 -4 -24h-262q-4 11 -4 24q0 12 4 23h262z" />
    <glyph glyph-name="amacron" unicode="&#x101;" horiz-adv-x="553" 
d="M544 45q0 -23 -21.5 -39t-52.5 -16q-46 0 -69 32t-23 100v16q-31 -68 -86 -108.5t-123 -40.5q-58 0 -92 31.5t-34 84.5q0 60 46 101.5t121 62.5q80 21 163 18v25q0 89 -27.5 131t-91.5 42q-41 0 -69 -19t-28 -61q0 -22 10.5 -42.5t31.5 -28.5q-18 -21 -53 -21
q-36 0 -58 26.5t-22 62.5q0 58 52.5 89.5t143.5 31.5q105 0 154.5 -52t49.5 -164v-194q0 -53 35 -53q8 0 17 5t15 14q11 -16 11 -34zM284 79.5q39 28.5 65 75t27 98.5q-37 2 -78 -3.5t-69 -17.5q-42 -16 -64.5 -43t-22.5 -64q0 -32 16 -53t50 -21q37 0 76 28.5zM396 647
q4 -11 4 -24q0 -12 -4 -23h-262q-4 11 -4 23q0 13 4 24h262z" />
    <glyph glyph-name="Abreve" unicode="&#x102;" horiz-adv-x="599" 
d="M591 10q-19 -21 -54 -21q-22 0 -37.5 9.5t-19.5 26.5l-57 192h-255l-46 -159q-6 -24 -6 -35q0 -17 7 -25q-25 -9 -50 -9q-27 0 -39.5 9.5t-12.5 30.5q0 17 11 50l208 614q36 14 76 14q44 0 53 -32l196 -615q10 -33 26 -50zM407 270l-113 378l-110 -378h223zM387 770.5
q-33 -30.5 -86 -30.5q-54 0 -86.5 31t-45.5 78l35 12q12 -34 38.5 -50.5t63.5 -16.5q35 0 60.5 17.5t37.5 48.5l31 -9q-15 -50 -48 -80.5z" />
    <glyph glyph-name="abreve" unicode="&#x103;" horiz-adv-x="553" 
d="M544 45q0 -23 -21.5 -39t-52.5 -16q-46 0 -69 32t-23 100v16q-31 -68 -86 -108.5t-123 -40.5q-58 0 -92 31.5t-34 84.5q0 60 46 101.5t121 62.5q80 21 163 18v25q0 89 -27.5 131t-91.5 42q-41 0 -69 -19t-28 -61q0 -22 10.5 -42.5t31.5 -28.5q-18 -21 -53 -21
q-36 0 -58 26.5t-22 62.5q0 58 52.5 89.5t143.5 31.5q105 0 154.5 -52t49.5 -164v-194q0 -53 35 -53q8 0 17 5t15 14q11 -16 11 -34zM284 79.5q39 28.5 65 75t27 98.5q-37 2 -78 -3.5t-69 -17.5q-42 -16 -64.5 -43t-22.5 -64q0 -32 16 -53t50 -21q37 0 76 28.5zM377 710
q17 -3 32 -11q-15 -58 -50.5 -93.5t-93.5 -35.5q-64 0 -100 37t-48 90q13 11 35 14q13 -35 42.5 -57t71.5 -22q76 0 111 78z" />
    <glyph glyph-name="Aogonek" unicode="&#x104;" horiz-adv-x="599" 
d="M643 -102q0 -3 -2 -9q-13 -30 -43.5 -49t-71.5 -19q-36 0 -64.5 19t-28.5 58q0 60 73 97q-20 9 -26 30l-57 192h-255l-46 -159q-6 -24 -6 -35q0 -17 7 -25q-25 -9 -50 -9q-27 0 -39.5 9.5t-12.5 30.5q0 17 11 50l208 614q36 14 76 14q44 0 53 -32l196 -615q10 -33 26 -50
q-9 -11 -22 -16q-36 -18 -54 -38t-18 -47q0 -21 12 -34.5t37 -13.5q29 0 50.5 16t34.5 39q12 -9 12 -18zM407 270l-113 378l-110 -378h223z" />
    <glyph glyph-name="aogonek" unicode="&#x105;" horiz-adv-x="553" 
d="M580 -100q0 -3 -2 -9q-13 -30 -43.5 -49t-71.5 -19q-36 0 -64.5 19t-28.5 58q0 59 68 94q-60 20 -60 128v16q-31 -68 -86 -108.5t-123 -40.5q-58 0 -92 31.5t-34 84.5q0 60 46 101.5t121 62.5q80 21 163 18v25q0 89 -27.5 131t-91.5 42q-41 0 -69 -19t-28 -61
q0 -22 10.5 -42.5t31.5 -28.5q-18 -21 -53 -21q-36 0 -58 26.5t-22 62.5q0 58 52.5 89.5t143.5 31.5q105 0 154.5 -52t49.5 -164v-194q0 -53 35 -53q8 0 17 5t15 14q11 -16 11 -34q0 -16 -9.5 -28t-27.5 -20q-36 -19 -54.5 -39t-18.5 -47q0 -21 12 -34.5t37 -13.5
q29 0 50.5 16t34.5 39q12 -9 12 -18zM284 79.5q39 28.5 65 75t27 98.5q-37 2 -78 -3.5t-69 -17.5q-42 -16 -64.5 -43t-22.5 -64q0 -32 16 -53t50 -21q37 0 76 28.5z" />
    <glyph glyph-name="Cacute" unicode="&#x106;" horiz-adv-x="600" 
d="M127 80q-70 93 -70 267q0 173 72 266.5t202 93.5q53 0 100 -13.5t75.5 -37.5t28.5 -54q0 -22 -20 -37t-53 -14q-8 57 -41.5 87t-88.5 30q-86 0 -130 -80.5t-44 -240.5q0 -159 43.5 -240t128.5 -81q55 0 95.5 35.5t52.5 100.5l12 1q27 0 45.5 -12t18.5 -35
q0 -35 -32.5 -65t-85.5 -47t-111 -17q-128 0 -198 93zM300 739q-6 2 -12 11t-6 13l138 118q15 -7 33 -25t25 -36z" />
    <glyph glyph-name="cacute" unicode="&#x107;" horiz-adv-x="507" 
d="M104 55.5q-62 68.5 -62 197.5q0 126 63.5 198t179.5 72q82 0 127.5 -35.5t45.5 -91.5q0 -36 -20 -58t-52 -22q-34 0 -51 21q32 15 32 66q0 42 -25 62t-66 20q-62 0 -99.5 -56.5t-37.5 -161.5q0 -114 44.5 -167t119.5 -53q55 0 94 27t51 76q15 -7 15 -28q0 -11 -4 -26
q-16 -52 -64 -80.5t-117 -28.5q-112 0 -174 68.5zM280 565q-10 0 -22 2t-16 5l91 151q19 2 48 -5t39 -15z" />
    <glyph glyph-name="Ccircumflex" unicode="&#x108;" horiz-adv-x="600" 
d="M127 80q-70 93 -70 267q0 173 72 266.5t202 93.5q53 0 100 -13.5t75.5 -37.5t28.5 -54q0 -22 -20 -37t-53 -14q-8 57 -41.5 87t-88.5 30q-86 0 -130 -80.5t-44 -240.5q0 -159 43.5 -240t128.5 -81q55 0 95.5 35.5t52.5 100.5l12 1q27 0 45.5 -12t18.5 -35
q0 -35 -32.5 -65t-85.5 -47t-111 -17q-128 0 -198 93zM482 757q-1 -5 -8 -13t-12 -10l-135 78l-136 -78q-5 2 -11.5 10t-8.5 13l128 118q9 3 27 3q19 0 28 -3z" />
    <glyph glyph-name="ccircumflex" unicode="&#x109;" horiz-adv-x="507" 
d="M104 55.5q-62 68.5 -62 197.5q0 126 63.5 198t179.5 72q82 0 127.5 -35.5t45.5 -91.5q0 -36 -20 -58t-52 -22q-34 0 -51 21q32 15 32 66q0 42 -25 62t-66 20q-62 0 -99.5 -56.5t-37.5 -161.5q0 -114 44.5 -167t119.5 -53q55 0 94 27t51 76q15 -7 15 -28q0 -11 -4 -26
q-16 -52 -64 -80.5t-117 -28.5q-112 0 -174 68.5zM137 567q-12 4 -13 8l121 141q9 3 29 3q17 0 26 -3l121 -141q-2 -4 -13.5 -8t-19.5 -4l-115 86l-116 -86q-8 0 -20 4z" />
    <glyph glyph-name="Cdotaccent" unicode="&#x10a;" horiz-adv-x="600" 
d="M127 80q-70 93 -70 267q0 173 72 266.5t202 93.5q53 0 100 -13.5t75.5 -37.5t28.5 -54q0 -22 -20 -37t-53 -14q-8 57 -41.5 87t-88.5 30q-86 0 -130 -80.5t-44 -240.5q0 -159 43.5 -240t128.5 -81q55 0 95.5 35.5t52.5 100.5l12 1q27 0 45.5 -12t18.5 -35
q0 -35 -32.5 -65t-85.5 -47t-111 -17q-128 0 -198 93zM291 769.5q-16 16.5 -16 38.5q0 23 16 39t39 16q22 0 38 -16t16 -39q0 -22 -16 -38.5t-38 -16.5q-23 0 -39 16.5z" />
    <glyph glyph-name="cdotaccent" unicode="&#x10b;" horiz-adv-x="507" 
d="M104 55.5q-62 68.5 -62 197.5q0 126 63.5 198t179.5 72q82 0 127.5 -35.5t45.5 -91.5q0 -36 -20 -58t-52 -22q-34 0 -51 21q32 15 32 66q0 42 -25 62t-66 20q-62 0 -99.5 -56.5t-37.5 -161.5q0 -114 44.5 -167t119.5 -53q55 0 94 27t51 76q15 -7 15 -28q0 -11 -4 -26
q-16 -52 -64 -80.5t-117 -28.5q-112 0 -174 68.5zM234 590q-16 16 -16 38q0 23 16 39t39 16q22 0 38.5 -16t16.5 -39q0 -22 -16 -38t-39 -16t-39 16z" />
    <glyph glyph-name="Ccaron" unicode="&#x10c;" horiz-adv-x="600" 
d="M127 80q-70 93 -70 267q0 173 72 266.5t202 93.5q53 0 100 -13.5t75.5 -37.5t28.5 -54q0 -22 -20 -37t-53 -14q-8 57 -41.5 87t-88.5 30q-86 0 -130 -80.5t-44 -240.5q0 -159 43.5 -240t128.5 -81q55 0 95.5 35.5t52.5 100.5l12 1q27 0 45.5 -12t18.5 -35
q0 -35 -32.5 -65t-85.5 -47t-111 -17q-128 0 -198 93zM329 740q-15 0 -27 4l-129 118q1 4 8.5 12t12.5 11l135 -79l135 79q5 -3 12 -11t8 -12l-128 -118q-12 -4 -27 -4z" />
    <glyph glyph-name="ccaron" unicode="&#x10d;" horiz-adv-x="507" 
d="M104 55.5q-62 68.5 -62 197.5q0 126 63.5 198t179.5 72q82 0 127.5 -35.5t45.5 -91.5q0 -36 -20 -58t-52 -22q-34 0 -51 21q32 15 32 66q0 42 -25 62t-66 20q-62 0 -99.5 -56.5t-37.5 -161.5q0 -114 44.5 -167t119.5 -53q55 0 94 27t51 76q15 -7 15 -28q0 -11 -4 -26
q-16 -52 -64 -80.5t-117 -28.5q-112 0 -174 68.5zM275 637l115 87q7 0 19 -4t14 -8l-121 -142q-9 -3 -28 -3q-18 0 -27 3l-121 142q1 4 13.5 8t19.5 4z" />
    <glyph glyph-name="Dcaron" unicode="&#x10e;" horiz-adv-x="643" 
d="M106 13q-14 13 -14 36l-2 523q0 48 -1.5 76t-8.5 49q62 7 211 7q143 0 219 -88.5t76 -263.5q0 -181 -74.5 -266.5t-216.5 -85.5h-150q-25 0 -39 13zM291 39q98 0 146 72t48 236t-48.5 241t-145.5 77h-110l1 -626h109zM310 740q-15 0 -27 4l-129 118q1 4 8.5 12t12.5 11
l135 -79l135 79q5 -3 12 -11t8 -12l-128 -118q-12 -4 -27 -4z" />
    <glyph glyph-name="dcaron" unicode="&#x10f;" horiz-adv-x="628" 
d="M588 585h-42q2 26 2 43q0 66 -15 115q20 6 43 6t41 -6q1 -78 -29 -158zM535 76q11 -16 11 -34q0 -22 -19 -36t-48 -14q-85 0 -88 131q-23 -65 -67.5 -100.5t-108.5 -35.5q-94 0 -133.5 70.5t-39.5 174.5q0 138 55 214.5t156 76.5q50 0 84.5 -20t49.5 -56v116
q0 93 -15 147q21 21 52 21q23 0 38 -13.5t15 -36.5l-1 -568q0 -52 32 -52q19 0 27 15zM318.5 77q33.5 36 50.5 97t17 133q0 165 -116 165q-64 0 -97.5 -60.5t-33.5 -176.5q0 -90 21 -142t80 -52q45 0 78.5 36z" />
    <glyph glyph-name="Dcroat" unicode="&#x110;" horiz-adv-x="641" 
d="M510 615.5q76 -88.5 76 -263.5q0 -181 -74.5 -266.5t-216.5 -85.5h-150q-25 0 -39 13t-14 36l-1 280h-67q-4 14 -4 20q0 8 4 20h67l-1 203q0 48 -1.5 76t-8.5 49q62 7 211 7q143 0 219 -88.5zM437 111q48 72 48 236t-48.5 241t-145.5 77h-110v-296h146q4 -8 4 -20
q0 -11 -4 -20h-145v-290h109q98 0 146 72z" />
    <glyph glyph-name="dcroat" unicode="&#x111;" horiz-adv-x="573" 
d="M477 581l-1 -468q0 -52 32 -52q19 0 27 15q11 -16 11 -34q0 -22 -19 -36t-48 -14q-85 0 -88 131q-23 -65 -67.5 -100.5t-108.5 -35.5q-94 0 -133.5 70.5t-39.5 174.5q0 138 55 214.5t156 76.5q50 0 84.5 -20t49.5 -56v116v18h-109q-4 14 -4 20q0 8 4 20h107q-3 51 -13 89
q21 21 52 21q23 0 38 -13.5t15 -36.5v-60h70q4 -8 4 -20q0 -11 -4 -20h-70zM318.5 77q33.5 36 50.5 97t17 133q0 165 -116 165q-64 0 -97.5 -60.5t-33.5 -176.5q0 -90 21 -142t80 -52q45 0 78.5 36z" />
    <glyph glyph-name="Emacron" unicode="&#x112;" horiz-adv-x="540" 
d="M482.5 64q4.5 -13 4.5 -27q0 -16 -6 -26.5t-17 -10.5h-317q-24 0 -38.5 13t-14.5 37v512q0 67 -14 108q15 14 32 19t47 5h300q16 0 16 -26q0 -16 -7.5 -32.5t-18.5 -21.5q-130 28 -265 31l1 -255h239q3 -13 3 -26q0 -15 -3 -27h-239l1 -289q67 1 144.5 11t138.5 23
q9 -5 13.5 -18zM409 821q4 -11 4 -23q0 -13 -4 -24h-262q-4 11 -4 24q0 12 4 23h262z" />
    <glyph glyph-name="emacron" unicode="&#x113;" horiz-adv-x="514" 
d="M467 109q0 -11 -7 -28q-18 -46 -66 -70t-114 -24q-111 0 -174.5 69t-63.5 197q0 126 63 198t179 72q84 0 135.5 -38t51.5 -108q0 -74 -60 -113t-165 -39q-53 0 -106 6q12 -184 163 -184q54 0 93.5 22.5t55.5 62.5q15 -6 15 -23zM177.5 429q-37.5 -56 -38.5 -161
q21 -2 67 -4q76 0 122 27.5t46 98.5q0 52 -27 73.5t-67 21.5q-65 0 -102.5 -56zM401 647q4 -11 4 -24q0 -12 -4 -23h-262q-4 11 -4 23q0 13 4 24h262z" />
    <glyph glyph-name="Ebreve" unicode="&#x114;" horiz-adv-x="540" 
d="M482.5 64q4.5 -13 4.5 -27q0 -16 -6 -26.5t-17 -10.5h-317q-24 0 -38.5 13t-14.5 37v512q0 67 -14 108q15 14 32 19t47 5h300q16 0 16 -26q0 -16 -7.5 -32.5t-18.5 -21.5q-130 28 -265 31l1 -255h239q3 -13 3 -26q0 -15 -3 -27h-239l1 -289q67 1 144.5 11t138.5 23
q9 -5 13.5 -18zM363 770.5q-33 -30.5 -86 -30.5q-54 0 -86.5 31t-45.5 78l35 12q12 -34 38.5 -50.5t63.5 -16.5q35 0 60.5 17.5t37.5 48.5l31 -9q-15 -50 -48 -80.5z" />
    <glyph glyph-name="ebreve" unicode="&#x115;" horiz-adv-x="514" 
d="M467 109q0 -11 -7 -28q-18 -46 -66 -70t-114 -24q-111 0 -174.5 69t-63.5 197q0 126 63 198t179 72q84 0 135.5 -38t51.5 -108q0 -74 -60 -113t-165 -39q-53 0 -106 6q12 -184 163 -184q54 0 93.5 22.5t55.5 62.5q15 -6 15 -23zM177.5 429q-37.5 -56 -38.5 -161
q21 -2 67 -4q76 0 122 27.5t46 98.5q0 52 -27 73.5t-67 21.5q-65 0 -102.5 -56zM382 710q17 -3 32 -11q-15 -58 -50.5 -93.5t-93.5 -35.5q-64 0 -100 37t-48 90q13 11 35 14q13 -35 42.5 -57t71.5 -22q76 0 111 78z" />
    <glyph glyph-name="Edotaccent" unicode="&#x116;" horiz-adv-x="540" 
d="M482.5 64q4.5 -13 4.5 -27q0 -16 -6 -26.5t-17 -10.5h-317q-24 0 -38.5 13t-14.5 37v512q0 67 -14 108q15 14 32 19t47 5h300q16 0 16 -26q0 -16 -7.5 -32.5t-18.5 -21.5q-130 28 -265 31l1 -255h239q3 -13 3 -26q0 -15 -3 -27h-239l1 -289q67 1 144.5 11t138.5 23
q9 -5 13.5 -18zM240 769.5q-16 16.5 -16 38.5q0 23 16 39t39 16q22 0 38 -16t16 -39q0 -22 -16 -38.5t-38 -16.5q-23 0 -39 16.5z" />
    <glyph glyph-name="edotaccent" unicode="&#x117;" horiz-adv-x="514" 
d="M467 109q0 -11 -7 -28q-18 -46 -66 -70t-114 -24q-111 0 -174.5 69t-63.5 197q0 126 63 198t179 72q84 0 135.5 -38t51.5 -108q0 -74 -60 -113t-165 -39q-53 0 -106 6q12 -184 163 -184q54 0 93.5 22.5t55.5 62.5q15 -6 15 -23zM177.5 429q-37.5 -56 -38.5 -161
q21 -2 67 -4q76 0 122 27.5t46 98.5q0 52 -27 73.5t-67 21.5q-65 0 -102.5 -56zM230 590q-16 16 -16 38q0 23 16 39t39 16q22 0 38.5 -16t16.5 -39q0 -22 -16 -38t-39 -16t-39 16z" />
    <glyph glyph-name="Eogonek" unicode="&#x118;" horiz-adv-x="540" 
d="M508 -98q0 -3 -2 -9q-13 -30 -43.5 -49t-71.5 -19q-36 0 -64.5 19t-28.5 58q0 60 75 98h-226q-24 0 -38.5 13t-14.5 37v512q0 67 -14 108q15 14 32 19t47 5h300q16 0 16 -26q0 -16 -7.5 -32.5t-18.5 -21.5q-130 28 -265 31l1 -255h239q3 -13 3 -26q0 -15 -3 -27h-239
l1 -289q67 1 144.5 11t138.5 23q9 -5 13.5 -18t4.5 -27q0 -16 -6 -26.5t-17 -10.5h-27q-38 -19 -56.5 -39.5t-18.5 -47.5q0 -21 12 -34.5t37 -13.5q29 0 50.5 16t34.5 39q12 -9 12 -18z" />
    <glyph glyph-name="eogonek" unicode="&#x119;" horiz-adv-x="514" 
d="M470 -84q0 -3 -2 -9q-13 -30 -43.5 -49t-71.5 -19q-36 0 -64.5 19t-28.5 58q0 42 34 71h-14q-111 0 -174.5 69t-63.5 197q0 126 63 198t179 72q84 0 135.5 -38t51.5 -108q0 -74 -60 -113t-165 -39q-53 0 -106 6q12 -184 163 -184q54 0 93.5 22.5t55.5 62.5q15 -6 15 -23
q0 -11 -7 -28q-16 -40 -59 -66l-2 -1l-8 -4q-34 -18 -50.5 -37.5t-16.5 -45.5q0 -21 12 -34.5t37 -13.5q29 0 50.5 16t34.5 39q12 -9 12 -18zM177.5 429q-37.5 -56 -38.5 -161q21 -2 67 -4q76 0 122 27.5t46 98.5q0 52 -27 73.5t-67 21.5q-65 0 -102.5 -56z" />
    <glyph glyph-name="Ecaron" unicode="&#x11a;" horiz-adv-x="540" 
d="M482.5 64q4.5 -13 4.5 -27q0 -16 -6 -26.5t-17 -10.5h-317q-24 0 -38.5 13t-14.5 37v512q0 67 -14 108q15 14 32 19t47 5h300q16 0 16 -26q0 -16 -7.5 -32.5t-18.5 -21.5q-130 28 -265 31l1 -255h239q3 -13 3 -26q0 -15 -3 -27h-239l1 -289q67 1 144.5 11t138.5 23
q9 -5 13.5 -18zM278 740q-15 0 -27 4l-129 118q1 4 8.5 12t12.5 11l135 -79l135 79q5 -3 12 -11t8 -12l-128 -118q-12 -4 -27 -4z" />
    <glyph glyph-name="ecaron" unicode="&#x11b;" horiz-adv-x="514" 
d="M467 109q0 -11 -7 -28q-18 -46 -66 -70t-114 -24q-111 0 -174.5 69t-63.5 197q0 126 63 198t179 72q84 0 135.5 -38t51.5 -108q0 -74 -60 -113t-165 -39q-53 0 -106 6q12 -184 163 -184q54 0 93.5 22.5t55.5 62.5q15 -6 15 -23zM177.5 429q-37.5 -56 -38.5 -161
q21 -2 67 -4q76 0 122 27.5t46 98.5q0 52 -27 73.5t-67 21.5q-65 0 -102.5 -56zM270 637l115 87q7 0 19 -4t14 -8l-121 -142q-9 -3 -28 -3q-18 0 -27 3l-121 142q1 4 13.5 8t19.5 4z" />
    <glyph glyph-name="Gcircumflex" unicode="&#x11c;" horiz-adv-x="631" 
d="M130 79.5q-73 92.5 -73 266.5t74 267.5t210 93.5q51 0 97.5 -13.5t74.5 -37.5t28 -52q0 -23 -20 -38.5t-54 -14.5q-7 57 -40 87t-84 30q-185 0 -185 -321t184 -321q81 0 111 59t30 136q0 118 -71 137q5 16 21 24t38 8q46 0 76 -36.5t30 -113.5q0 -71 -27 -128.5t-81 -91
t-131 -33.5q-135 0 -208 92.5zM487 757q-1 -5 -8 -13t-12 -10l-135 78l-136 -78q-5 2 -11.5 10t-8.5 13l128 118q9 3 27 3q19 0 28 -3z" />
    <glyph glyph-name="gcircumflex" unicode="&#x11d;" horiz-adv-x="539" 
d="M95.5 -201q-49.5 30 -49.5 89q0 34 19.5 55t48.5 21q32 0 44 -17q-28 -22 -28 -62q0 -39 25 -60t68 -21q80 0 119.5 61t39.5 176v70q-18 -55 -60 -84.5t-103 -29.5q-85 0 -131 60.5t-46 190.5q0 118 52.5 196.5t179.5 78.5q57 0 110.5 -16t87.5 -50v-412
q0 -276 -252 -276q-75 0 -124.5 30zM347.5 103q33.5 59 33.5 145l1 202q-16 17 -45 26t-63 9q-79 0 -107.5 -66.5t-28.5 -179.5q0 -104 25.5 -149.5t80.5 -45.5q70 0 103.5 59zM139 570q-12 4 -13 8l121 141q9 3 29 3q17 0 26 -3l121 -141q-2 -4 -13.5 -8t-19.5 -4l-115 86
l-116 -86q-8 0 -20 4z" />
    <glyph glyph-name="Gbreve" unicode="&#x11e;" horiz-adv-x="631" 
d="M130 79.5q-73 92.5 -73 266.5t74 267.5t210 93.5q51 0 97.5 -13.5t74.5 -37.5t28 -52q0 -23 -20 -38.5t-54 -14.5q-7 57 -40 87t-84 30q-185 0 -185 -321t184 -321q81 0 111 59t30 136q0 118 -71 137q5 16 21 24t38 8q46 0 76 -36.5t30 -113.5q0 -71 -27 -128.5t-81 -91
t-131 -33.5q-135 0 -208 92.5zM419 770.5q-33 -30.5 -86 -30.5q-54 0 -86.5 31t-45.5 78l35 12q12 -34 38.5 -50.5t63.5 -16.5q35 0 60.5 17.5t37.5 48.5l31 -9q-15 -50 -48 -80.5z" />
    <glyph glyph-name="gbreve" unicode="&#x11f;" horiz-adv-x="539" 
d="M95.5 -201q-49.5 30 -49.5 89q0 34 19.5 55t48.5 21q32 0 44 -17q-28 -22 -28 -62q0 -39 25 -60t68 -21q80 0 119.5 61t39.5 176v70q-18 -55 -60 -84.5t-103 -29.5q-85 0 -131 60.5t-46 190.5q0 118 52.5 196.5t179.5 78.5q57 0 110.5 -16t87.5 -50v-412
q0 -276 -252 -276q-75 0 -124.5 30zM347.5 103q33.5 59 33.5 145l1 202q-16 17 -45 26t-63 9q-79 0 -107.5 -66.5t-28.5 -179.5q0 -104 25.5 -149.5t80.5 -45.5q70 0 103.5 59zM389 713q17 -3 32 -11q-15 -58 -50.5 -93.5t-93.5 -35.5q-64 0 -100 37t-48 90q13 11 35 14
q13 -35 42.5 -57t71.5 -22q76 0 111 78z" />
    <glyph glyph-name="Gdotaccent" unicode="&#x120;" horiz-adv-x="631" 
d="M130 79.5q-73 92.5 -73 266.5t74 267.5t210 93.5q51 0 97.5 -13.5t74.5 -37.5t28 -52q0 -23 -20 -38.5t-54 -14.5q-7 57 -40 87t-84 30q-185 0 -185 -321t184 -321q81 0 111 59t30 136q0 118 -71 137q5 16 21 24t38 8q46 0 76 -36.5t30 -113.5q0 -71 -27 -128.5t-81 -91
t-131 -33.5q-135 0 -208 92.5zM296 769.5q-16 16.5 -16 38.5q0 23 16 39t39 16q22 0 38 -16t16 -39q0 -22 -16 -38.5t-38 -16.5q-23 0 -39 16.5z" />
    <glyph glyph-name="gdotaccent" unicode="&#x121;" horiz-adv-x="539" 
d="M95.5 -201q-49.5 30 -49.5 89q0 34 19.5 55t48.5 21q32 0 44 -17q-28 -22 -28 -62q0 -39 25 -60t68 -21q80 0 119.5 61t39.5 176v70q-18 -55 -60 -84.5t-103 -29.5q-85 0 -131 60.5t-46 190.5q0 118 52.5 196.5t179.5 78.5q57 0 110.5 -16t87.5 -50v-412
q0 -276 -252 -276q-75 0 -124.5 30zM347.5 103q33.5 59 33.5 145l1 202q-16 17 -45 26t-63 9q-79 0 -107.5 -66.5t-28.5 -179.5q0 -104 25.5 -149.5t80.5 -45.5q70 0 103.5 59zM236 593q-16 16 -16 38q0 23 16 39t39 16q22 0 38.5 -16t16.5 -39q0 -22 -16 -38t-39 -16
t-39 16z" />
    <glyph glyph-name="Gcommaaccent" unicode="&#x122;" horiz-adv-x="631" 
d="M130 79.5q-73 92.5 -73 266.5t74 267.5t210 93.5q51 0 97.5 -13.5t74.5 -37.5t28 -52q0 -23 -20 -38.5t-54 -14.5q-7 57 -40 87t-84 30q-185 0 -185 -321t184 -321q81 0 111 59t30 136q0 118 -71 137q5 16 21 24t38 8q46 0 76 -36.5t30 -113.5q0 -71 -27 -128.5t-81 -91
t-131 -33.5q-135 0 -208 92.5zM298 -219q32 37 32 69q0 27 -14 39t-36 18q0 23 17 41t44 18q25 0 43 -17.5t18 -56.5q0 -68 -71 -131q-19 4 -33 20z" />
    <glyph glyph-name="gcommaaccent" unicode="&#x123;" horiz-adv-x="539" 
d="M315 747q-27 -40 -27 -71q0 -39 41 -47q0 -22 -16 -38.5t-39 -16.5t-40.5 15.5t-17.5 49.5q0 27 14.5 56t49.5 70q22 -3 35 -18zM95.5 -201q-49.5 30 -49.5 89q0 34 19.5 55t48.5 21q32 0 44 -17q-28 -22 -28 -62q0 -39 25 -60t68 -21q80 0 119.5 61t39.5 176v70
q-18 -55 -60 -84.5t-103 -29.5q-85 0 -131 60.5t-46 190.5q0 118 52.5 196.5t179.5 78.5q57 0 110.5 -16t87.5 -50v-412q0 -276 -252 -276q-75 0 -124.5 30zM347.5 103q33.5 59 33.5 145l1 202q-16 17 -45 26t-63 9q-79 0 -107.5 -66.5t-28.5 -179.5q0 -104 25.5 -149.5
t80.5 -45.5q70 0 103.5 59z" />
    <glyph glyph-name="Hcircumflex" unicode="&#x124;" horiz-adv-x="684" 
d="M604 9q-8 -8 -22 -14.5t-31 -6.5q-23 0 -37.5 13.5t-14.5 36.5l-1 301h-312v-219q0 -74 14 -111q-24 -21 -53 -21q-24 0 -38.5 13.5t-14.5 36.5v534q0 70 -14 112q8 8 21.5 14t30.5 6q24 0 39 -13t15 -36v-263h312v180q0 74 -14 112q22 20 53 20q23 0 38 -13t15 -36v-535
q0 -74 14 -111zM495 757q-1 -5 -8 -13t-12 -10l-135 78l-136 -78q-5 2 -11.5 10t-8.5 13l128 118q9 3 27 3q19 0 28 -3z" />
    <glyph glyph-name="hcircumflex" unicode="&#x125;" horiz-adv-x="564" 
d="M504 9q-23 -21 -51 -21q-23 0 -37.5 13.5t-14.5 36.5l-1 266q0 87 -22 129t-76 42q-34 0 -64.5 -24.5t-50 -77.5t-19.5 -133q0 -125 2.5 -164t13.5 -68q-22 -20 -52 -20q-23 0 -38 14.5t-15 39.5v639q-1 24 13 36.5t36 12.5q17 0 32.5 -6.5t23.5 -13.5q-9 -28 -12 -66.5
t-4 -105.5l-1 -128q22 54 64 83.5t99 29.5q160 0 160 -207v-196q0 -70 14 -111zM-3 741q-12 4 -13 8l121 141q9 3 29 3q17 0 26 -3l121 -141q-2 -4 -14 -8t-19 -4l-115 86l-116 -86q-8 0 -20 4z" />
    <glyph glyph-name="Hbar" unicode="&#x126;" horiz-adv-x="684" 
d="M590 532v-412q0 -74 14 -111q-8 -8 -22 -14.5t-31 -6.5q-23 0 -37.5 13.5t-14.5 36.5l-1 301h-312v-219q0 -74 14 -111q-24 -21 -53 -21q-24 0 -38.5 13.5t-14.5 36.5v494h-51q-4 9 -4 20t4 19h51v1q0 70 -14 112q8 8 21.5 14t30.5 6q24 0 39 -13t15 -36v-84h312v1
q0 74 -14 112q22 20 53 20q23 0 38 -13t15 -36v-84h46q5 -10 5 -19q0 -8 -5 -20h-46zM498 532h-312v-140h312v140z" />
    <glyph glyph-name="hbar" unicode="&#x127;" horiz-adv-x="569" 
d="M504 9q-23 -21 -51 -21q-23 0 -37.5 13.5t-14.5 36.5l-1 266q0 87 -22 129t-76 42q-34 0 -64.5 -24.5t-50 -77.5t-19.5 -133q0 -125 2.5 -164t13.5 -68q-22 -20 -52 -20q-23 0 -38 14.5t-15 39.5v534h-68q-3 11 -3 20q0 10 3 19h68v66q-1 24 13 36.5t36 12.5
q17 0 32.5 -6.5t23.5 -13.5q-11 -36 -14 -95h117q4 -8 4 -19t-4 -20h-118q-1 -12 -1 -38l-1 -128q22 54 64 83.5t99 29.5q160 0 160 -207v-196q0 -70 14 -111z" />
    <glyph glyph-name="Itilde" unicode="&#x128;" horiz-adv-x="279" 
d="M108.5 1.5q-14.5 13.5 -14.5 36.5v534q0 70 -14 112q8 8 21.5 14t30.5 6q24 0 39 -13t15 -36v-535q0 -74 14 -111q-24 -21 -53 -21q-24 0 -38.5 13.5zM247.5 778.5q-21.5 -23.5 -54.5 -23.5q-17 0 -33 5.5t-36 16.5q-21 10 -33.5 15t-26.5 5q-44 0 -59 -41h-3
q-5 0 -11.5 3t-10.5 7q6 46 30 67t58 21q17 0 30.5 -4.5t38.5 -16.5q19 -10 33.5 -15.5t30.5 -5.5q21 0 30.5 9t20.5 28q17 0 25 -8q-8 -39 -29.5 -62.5z" />
    <glyph glyph-name="itilde" unicode="&#x129;" horiz-adv-x="249" 
d="M184 9q-21 -21 -52 -21q-22 0 -36.5 13.5t-14.5 36.5l-1 353q0 75 -14 112q26 20 51 20q24 0 38 -13t14 -36l1 -354q0 -74 14 -111zM233 604.5q-21 -24.5 -54 -24.5q-17 0 -32 6t-33 18q-17 11 -30 17t-28 6q-44 0 -60 -42h-2q-5 0 -11.5 3t-10.5 7q6 45 30.5 66.5
t57.5 21.5q18 0 32.5 -6t33.5 -19q20 -12 32 -17.5t28 -5.5q21 0 31.5 10.5t19.5 32.5q15 0 23 -8q-6 -41 -27 -65.5z" />
    <glyph glyph-name="Imacron" unicode="&#x12a;" horiz-adv-x="279" 
d="M108.5 1.5q-14.5 13.5 -14.5 36.5v534q0 70 -14 112q8 8 21.5 14t30.5 6q24 0 39 -13t15 -36v-535q0 -74 14 -111q-24 -21 -53 -21q-24 0 -38.5 13.5zM261 821q4 -11 4 -23q0 -13 -4 -24h-262q-4 11 -4 24q0 12 4 23h262z" />
    <glyph glyph-name="imacron" unicode="&#x12b;" horiz-adv-x="249" 
d="M184 9q-21 -21 -52 -21q-22 0 -36.5 13.5t-14.5 36.5l-1 353q0 75 -14 112q26 20 51 20q24 0 38 -13t14 -36l1 -354q0 -74 14 -111zM249 647q4 -11 4 -24q0 -12 -4 -23h-262q-4 11 -4 23q0 13 4 24h262z" />
    <glyph glyph-name="Iogonek" unicode="&#x12e;" horiz-adv-x="279" 
d="M257 -98q0 -3 -2 -9q-13 -30 -43.5 -49t-71.5 -19q-36 0 -64.5 19t-28.5 58q0 59 68 94q-21 15 -21 42v534q0 70 -14 112q8 8 21.5 14t30.5 6q24 0 39 -13t15 -36v-535q0 -74 14 -111q-15 -13 -29 -17q-30 -17 -45 -36t-15 -43q0 -21 12 -34.5t37 -13.5q29 0 50.5 16
t34.5 39q12 -9 12 -18z" />
    <glyph glyph-name="iogonek" unicode="&#x12f;" horiz-adv-x="263" 
d="M87 612q-17 17 -17 41q0 25 17 42t42 17q24 0 41 -17t17 -42q0 -24 -17 -41t-41 -17q-25 0 -42 17zM246 -96q0 -5 -1 -8q-13 -30 -44 -49t-71 -19q-36 0 -64.5 19t-28.5 59q0 57 68 94q-16 14 -16 38l-1 353q0 75 -14 112q26 20 52 20q23 0 37 -13t14 -36l1 -354
q0 -74 14 -111q-17 -17 -44 -21q-47 -30 -47 -72q0 -21 11.5 -34.5t37.5 -13.5q29 0 50.5 16t33.5 39q12 -6 12 -19z" />
    <glyph glyph-name="Idotaccent" unicode="&#x130;" horiz-adv-x="279" 
d="M108.5 1.5q-14.5 13.5 -14.5 36.5v534q0 70 -14 112q8 8 21.5 14t30.5 6q24 0 39 -13t15 -36v-535q0 -74 14 -111q-24 -21 -53 -21q-24 0 -38.5 13.5zM92 769.5q-16 16.5 -16 38.5q0 23 16 39t39 16q22 0 38 -16t16 -39q0 -22 -16 -38.5t-38 -16.5q-23 0 -39 16.5z" />
    <glyph glyph-name="dotlessi" unicode="&#x131;" horiz-adv-x="249" 
d="M184 9q-21 -21 -52 -21q-22 0 -36.5 13.5t-14.5 36.5l-1 353q0 75 -14 112q26 20 51 20q24 0 38 -13t14 -36l1 -354q0 -74 14 -111z" />
    <glyph glyph-name="Jcircumflex" unicode="&#x134;" horiz-adv-x="464" 
d="M82 19q-38 32 -38 78q0 26 14.5 45t41.5 19q24 0 34 -17q-10 -21 -10 -45q0 -33 22 -53t50 -20q51 0 69 38t18 110v435q0 40 5 54q-35 0 -99 4q-20 1 -35 -8t-15 -31q0 -36 30 -52q-15 -11 -40 -11q-24 0 -43 19t-19 50q0 33 24.5 53t68.5 20l56 -2q56 -4 91 -4
q40 0 73 5q-5 -30 -5 -74v-450q0 -195 -179 -195q-76 0 -114 32zM387 757q-1 -5 -8 -13t-12 -10l-135 78l-136 -78q-5 2 -11.5 10t-8.5 13l128 118q9 3 27 3q19 0 28 -3z" />
    <glyph glyph-name="jcircumflex" unicode="&#x135;" horiz-adv-x="253" 
d="M-57.5 -209q-28.5 22 -28.5 59q0 21 13 36.5t38 15.5q10 0 17 -4t12 -13q-10 -17 -10 -36q0 -24 13 -34t32 -10q38 0 50.5 41.5t12.5 122.5l1 422q0 70 -14 111q21 21 51 21q23 0 37 -13t14 -37l1 -519q0 -80 -36 -132.5t-120 -52.5q-55 0 -83.5 22zM-7 567q-12 4 -13 8
l121 141q9 3 29 3q17 0 26 -3l121 -141q-2 -4 -13.5 -8t-19.5 -4l-115 86l-116 -86q-8 0 -20 4z" />
    <glyph glyph-name="Kcommaaccent" unicode="&#x136;" horiz-adv-x="592" 
d="M575 41q0 -24 -20 -40t-49 -16q-39 0 -64 30.5t-41 78.5l-39 123q-12 33 -27 54.5t-45 36.5t-81 15h-24l1 -203q0 -74 14 -111q-24 -21 -53 -21q-24 0 -38.5 13.5t-14.5 36.5v534q0 70 -14 112q8 8 21.5 14t30.5 6q24 0 38 -13t14 -36l1 -293l28 4q63 9 108.5 49.5
t69 94.5t23.5 104q0 49 -18 77q13 6 21.5 9t19.5 3q27 0 47 -20.5t20 -70.5q0 -78 -50 -150t-151 -110q58 -8 90.5 -35t50.5 -74l47 -129q13 -31 24 -43t25 -13h4q14 0 24 11q7 -14 7 -28zM274 -219q32 37 32 69q0 27 -14 39t-36 18q0 23 17 41t44 18q25 0 43 -17.5
t18 -56.5q0 -68 -71 -131q-19 4 -33 20z" />
    <glyph glyph-name="kcommaaccent" unicode="&#x137;" horiz-adv-x="547" 
d="M522 46q0 -25 -22 -41.5t-51 -16.5q-27 0 -49 16.5t-35 46.5l-81 166q-53 -19 -115 -34q0 -90 2.5 -118.5t12.5 -56.5q-11 -9 -23 -14.5t-31 -5.5q-29 0 -40 14t-11 40v639q-1 23 14 36.5t38 13.5q31 0 52 -21q-7 -36 -9.5 -62.5t-4.5 -71.5q0 -25 -1 -39l-1 -159
q23 67 73.5 106t120.5 39q61 0 93 -31t32 -83q0 -57 -39.5 -100t-100.5 -71q12 -4 21.5 -14.5t20.5 -28.5l53 -94q11 -21 19 -28.5t21 -7.5q17 0 28 12q13 -14 13 -31zM394 404q0 36 -17.5 52t-47.5 16q-47 0 -83.5 -32.5t-56.5 -89.5t-20 -128q225 65 225 182zM236 -219
q32 37 32 69q0 27 -14 39t-36 18q0 23 17 41t44 18q25 0 43 -17.5t18 -56.5q0 -68 -71 -131q-19 4 -33 20z" />
    <glyph glyph-name="kgreenlandic" unicode="&#x138;" horiz-adv-x="582" 
d="M544 41q0 -23 -17.5 -37.5t-45.5 -14.5q-34 0 -59 21t-35 56l-23 81q-13 43 -41 68t-90 25h-56v-120q0 -74 14 -111q-8 -8 -22 -14.5t-31 -6.5q-23 0 -38 13.5t-15 36.5v353q0 70 -14 111q24 21 54 21q24 0 38 -13t14 -37v-194l54 4q53 6 91.5 30t58 57.5t19.5 69.5
q0 21 -5.5 41t-11.5 29q19 13 40 13q24 0 45 -21t21 -60q0 -57 -40 -103.5t-106 -66.5q37 -7 63 -34t39 -68l17 -60q18 -52 47 -52h4q16 0 24 11q7 -14 7 -28z" />
    <glyph glyph-name="Lacute" unicode="&#x139;" horiz-adv-x="485" 
d="M186 53q63 1 132.5 10t124.5 23q9 -5 13.5 -18.5t4.5 -29.5t-5.5 -27t-16.5 -11h-292q-24 0 -38.5 13t-14.5 37v522q0 70 -14 112q8 8 21.5 14t30.5 6q24 0 38 -13t14 -36zM123 738q-6 2 -12 11t-6 13l138 118q15 -7 33 -25t25 -36z" />
    <glyph glyph-name="lacute" unicode="&#x13a;" horiz-adv-x="274" 
d="M103.5 21q-26.5 31 -26.5 86v574q0 24 14.5 37t38.5 13q31 0 52 -21q-9 -29 -11.5 -70t-2.5 -125l-1 -402q0 -53 38 -53q11 0 21 5t14 14q12 -16 12 -34q0 -24 -22 -39.5t-53 -15.5q-47 0 -73.5 31z" />
    <glyph glyph-name="Lcommaaccent" unicode="&#x13b;" horiz-adv-x="485" 
d="M186 53q63 1 132.5 10t124.5 23q9 -5 13.5 -18.5t4.5 -29.5t-5.5 -27t-16.5 -11h-292q-24 0 -38.5 13t-14.5 37v522q0 70 -14 112q8 8 21.5 14t30.5 6q24 0 38 -13t14 -36zM236 -219q32 37 32 69q0 27 -14 39t-36 18q0 23 17 41t44 18q25 0 43 -17.5t18 -56.5
q0 -68 -71 -131q-19 4 -33 20z" />
    <glyph glyph-name="lcommaaccent" unicode="&#x13c;" horiz-adv-x="274" 
d="M103.5 21q-26.5 31 -26.5 86v574q0 24 14.5 37t38.5 13q31 0 52 -21q-9 -29 -11.5 -70t-2.5 -125l-1 -402q0 -53 38 -53q11 0 21 5t14 14q12 -16 12 -34q0 -24 -22 -39.5t-53 -15.5q-47 0 -73.5 31zM129 -219q32 37 32 69q0 27 -14 39t-36 18q0 23 17 41t44 18
q25 0 43 -17.5t18 -56.5q0 -68 -71 -131q-19 4 -33 20z" />
    <glyph glyph-name="Lcaron" unicode="&#x13d;" horiz-adv-x="485" 
d="M287 628q0 -32 -2 -46h42q30 80 29 157q-18 6 -41 6t-43 -6q15 -48 15 -111zM186 53q63 1 132.5 10t124.5 23q9 -5 13.5 -18.5t4.5 -29.5t-5.5 -27t-16.5 -11h-292q-24 0 -38.5 13t-14.5 37v522q0 70 -14 112q8 8 21.5 14t30.5 6q24 0 38 -13t14 -36z" />
    <glyph glyph-name="lcaron" unicode="&#x13e;" horiz-adv-x="339" 
d="M247 632q0 -33 -2 -47h43q30 85 29 158q-18 6 -41 6t-43 -6q14 -49 14 -111zM103.5 21q-26.5 31 -26.5 86v574q0 24 14.5 37t38.5 13q31 0 52 -21q-9 -29 -11.5 -70t-2.5 -125l-1 -402q0 -53 38 -53q11 0 21 5t14 14q12 -16 12 -34q0 -24 -22 -39.5t-53 -15.5
q-47 0 -73.5 31z" />
    <glyph glyph-name="Ldot" unicode="&#x13f;" horiz-adv-x="485" 
d="M186 53q63 1 132.5 10t124.5 23q9 -5 13.5 -18.5t4.5 -29.5t-5.5 -27t-16.5 -11h-292q-24 0 -38.5 13t-14.5 37v522q0 70 -14 112q8 8 21.5 14t30.5 6q24 0 38 -13t14 -36zM330 284q-17 17 -17 41t17 41t42 17q24 0 41 -17t17 -41t-17 -41t-41 -17q-25 0 -42 17z" />
    <glyph glyph-name="ldot" unicode="&#x140;" horiz-adv-x="348" 
d="M103.5 21q-26.5 31 -26.5 86v574q0 24 14.5 37t38.5 13q31 0 52 -21q-9 -29 -11.5 -70t-2.5 -125l-1 -402q0 -53 38 -53q11 0 21 5t14 14q12 -16 12 -34q0 -24 -22 -39.5t-53 -15.5q-47 0 -73.5 31zM257 299q-17 17 -17 41t17 41t42 17q24 0 41 -17t17 -41t-17 -41
t-41 -17q-25 0 -42 17z" />
    <glyph glyph-name="Lslash" unicode="&#x141;" horiz-adv-x="485" 
d="M456.5 67.5q4.5 -13.5 4.5 -29.5t-5.5 -27t-16.5 -11h-292q-24 0 -38.5 13t-14.5 37v148l-51 -51q-21 5 -27 27l78 78v320q0 70 -14 112q8 8 21.5 14t30.5 6q24 0 38 -13t14 -36l1 -311l107 107q23 -6 28 -28l-135 -134l1 -236q63 1 132.5 10t124.5 23q9 -5 13.5 -18.5z
" />
    <glyph glyph-name="lslash" unicode="&#x142;" horiz-adv-x="275" 
d="M226 65q10 5 14 14q12 -16 12 -34q0 -24 -22 -39.5t-53 -15.5q-47 0 -73.5 31t-26.5 86v116l-54 -72l-32 23l86 115v392q0 24 14.5 37t38.5 13q31 0 52 -21q-9 -29 -11.5 -70t-2.5 -125v-105l66 89l32 -23l-98 -132l-1 -231q0 -53 38 -53q11 0 21 5z" />
    <glyph glyph-name="Nacute" unicode="&#x143;" horiz-adv-x="687" 
d="M81 2q13 38 13 118v449q0 80 -7 122q11 11 42 11q21 0 26 -5l72 -103q119 -170 197.5 -284.5t118.5 -185.5l-21 487q-2 35 6.5 58.5t27.5 30.5q4 1 12 1q15 0 28 -6q-2 -20 -2 -35l1 -48v-494q0 -35 1 -65.5t4 -50.5q-5 -6 -17 -9t-26 -3q-13 0 -21 3
q-109 132 -213.5 287t-173.5 275l18 -512q1 -24 -13.5 -39.5t-33.5 -15.5q-22 0 -39 14zM314 739q-6 2 -12 11t-6 13l138 118q15 -7 33 -25t25 -36z" />
    <glyph glyph-name="nacute" unicode="&#x144;" horiz-adv-x="577" 
d="M517 9q-23 -21 -52 -21q-23 0 -38 13.5t-15 36.5v266q-1 86 -23 127t-75 41q-34 0 -64.5 -24.5t-50 -76.5t-19.5 -131q0 -125 2 -164t13 -68q-8 -8 -21.5 -14t-30.5 -6q-24 0 -38.5 14.5t-14.5 39.5v359q-1 28 -7.5 39.5t-20.5 11.5q-19 0 -26 -14q-12 17 -12 33
q0 23 17 37t47 14q40 0 61.5 -27.5t21.5 -80.5v-12q21 58 65 89.5t105 31.5q161 0 161 -207v-196q2 -77 15 -111zM305 565q-10 0 -22 2t-16 5l91 151q19 2 48 -5t39 -15z" />
    <glyph glyph-name="Ncommaaccent" unicode="&#x145;" horiz-adv-x="687" 
d="M81 2q13 38 13 118v449q0 80 -7 122q11 11 42 11q21 0 26 -5l72 -103q119 -170 197.5 -284.5t118.5 -185.5l-21 487q-2 35 6.5 58.5t27.5 30.5q4 1 12 1q15 0 28 -6q-2 -20 -2 -35l1 -48v-494q0 -35 1 -65.5t4 -50.5q-5 -6 -17 -9t-26 -3q-13 0 -21 3
q-109 132 -213.5 287t-173.5 275l18 -512q1 -24 -13.5 -39.5t-33.5 -15.5q-22 0 -39 14zM307 -219q32 37 32 69q0 27 -14 39t-36 18q0 23 17 41t44 18q25 0 43 -17.5t18 -56.5q0 -68 -71 -131q-19 4 -33 20z" />
    <glyph glyph-name="ncommaaccent" unicode="&#x146;" horiz-adv-x="577" 
d="M517 9q-23 -21 -52 -21q-23 0 -38 13.5t-15 36.5v266q-1 86 -23 127t-75 41q-34 0 -64.5 -24.5t-50 -76.5t-19.5 -131q0 -125 2 -164t13 -68q-8 -8 -21.5 -14t-30.5 -6q-24 0 -38.5 14.5t-14.5 39.5v359q-1 28 -7.5 39.5t-20.5 11.5q-19 0 -26 -14q-12 17 -12 33
q0 23 17 37t47 14q40 0 61.5 -27.5t21.5 -80.5v-12q21 58 65 89.5t105 31.5q161 0 161 -207v-196q2 -77 15 -111zM262 -219q32 37 32 69q0 27 -14 39t-36 18q0 23 17 41t44 18q25 0 43 -17.5t18 -56.5q0 -68 -71 -131q-19 4 -33 20z" />
    <glyph glyph-name="Ncaron" unicode="&#x147;" horiz-adv-x="687" 
d="M81 2q13 38 13 118v449q0 80 -7 122q11 11 42 11q21 0 26 -5l72 -103q119 -170 197.5 -284.5t118.5 -185.5l-21 487q-2 35 6.5 58.5t27.5 30.5q4 1 12 1q15 0 28 -6q-2 -20 -2 -35l1 -48v-494q0 -35 1 -65.5t4 -50.5q-5 -6 -17 -9t-26 -3q-13 0 -21 3
q-109 132 -213.5 287t-173.5 275l18 -512q1 -24 -13.5 -39.5t-33.5 -15.5q-22 0 -39 14zM343 740q-15 0 -27 4l-129 118q1 4 8.5 12t12.5 11l135 -79l135 79q5 -3 12 -11t8 -12l-128 -118q-12 -4 -27 -4z" />
    <glyph glyph-name="ncaron" unicode="&#x148;" horiz-adv-x="577" 
d="M517 9q-23 -21 -52 -21q-23 0 -38 13.5t-15 36.5v266q-1 86 -23 127t-75 41q-34 0 -64.5 -24.5t-50 -76.5t-19.5 -131q0 -125 2 -164t13 -68q-8 -8 -21.5 -14t-30.5 -6q-24 0 -38.5 14.5t-14.5 39.5v359q-1 28 -7.5 39.5t-20.5 11.5q-19 0 -26 -14q-12 17 -12 33
q0 23 17 37t47 14q40 0 61.5 -27.5t21.5 -80.5v-12q21 58 65 89.5t105 31.5q161 0 161 -207v-196q2 -77 15 -111zM299 637l115 87q7 0 19 -4t14 -8l-121 -142q-9 -3 -28 -3q-18 0 -27 3l-121 142q1 4 13.5 8t19.5 4z" />
    <glyph glyph-name="napostrophe" unicode="&#x149;" horiz-adv-x="684" 
d="M27 449h42l22 159q-18 6 -41 6q-22 0 -43 -6zM601 9q-23 -21 -52 -21q-23 0 -38 13.5t-15 36.5v266q-1 86 -23 127t-75 41q-34 0 -64.5 -24.5t-50 -76.5t-19.5 -131q0 -125 2 -164t13 -68q-8 -8 -21.5 -14t-30.5 -6q-24 0 -38.5 14.5t-14.5 39.5v359q-1 28 -7.5 39.5
t-20.5 11.5q-19 0 -26 -14q-12 17 -12 33q0 23 17 37t47 14q40 0 61.5 -27.5t21.5 -80.5v-12q21 58 65 89.5t105 31.5q161 0 161 -207v-196q2 -77 15 -111z" />
    <glyph glyph-name="Omacron" unicode="&#x14c;" horiz-adv-x="654" 
d="M125.5 77q-68.5 90 -68.5 270t69 270t201 90t201 -90t69 -270t-69 -270t-201 -90q-133 0 -201.5 90zM454 104q42 78 42 243t-42 243t-127 78q-84 0 -126.5 -78t-42.5 -243t42.5 -243t126.5 -78q85 0 127 78zM458 821q4 -11 4 -23q0 -13 -4 -24h-262q-4 11 -4 24
q0 12 4 23h262z" />
    <glyph glyph-name="omacron" unicode="&#x14d;" horiz-adv-x="550" 
d="M103.5 57.5q-61.5 70.5 -61.5 196.5q0 127 61.5 198t171.5 71t171 -71t61 -198q0 -126 -61 -196.5t-171 -70.5t-171.5 70.5zM375.5 84q34.5 59 34.5 170q0 113 -34.5 172t-100.5 59q-67 0 -101.5 -59t-34.5 -172q0 -111 34.5 -170t101.5 -59q66 0 100.5 59zM406 647
q4 -11 4 -24q0 -12 -4 -23h-262q-4 11 -4 23q0 13 4 24h262z" />
    <glyph glyph-name="Ohungarumlaut" unicode="&#x150;" horiz-adv-x="654" 
d="M125.5 77q-68.5 90 -68.5 270t69 270t201 90t201 -90t69 -270t-69 -270t-201 -90q-133 0 -201.5 90zM454 104q42 78 42 243t-42 243t-127 78q-84 0 -126.5 -78t-42.5 -243t42.5 -243t126.5 -78q85 0 127 78zM249 733q-5 1 -13 8t-10 11l104 144q17 -2 38.5 -15.5
t32.5 -29.5zM385 730q-6 1 -13 8.5t-9 11.5l104 144q18 -3 39 -16.5t32 -28.5z" />
    <glyph glyph-name="ohungarumlaut" unicode="&#x151;" horiz-adv-x="550" 
d="M103.5 57.5q-61.5 70.5 -61.5 196.5q0 127 61.5 198t171.5 71t171 -71t61 -198q0 -126 -61 -196.5t-171 -70.5t-171.5 70.5zM375.5 84q34.5 59 34.5 170q0 113 -34.5 172t-100.5 59q-67 0 -101.5 -59t-34.5 -172q0 -111 34.5 -170t101.5 -59q66 0 100.5 59zM192 546
q-6 1 -14.5 8t-10.5 11l116 164q17 -2 36 -11.5t31 -24.5zM340 546q-5 2 -13 8.5t-12 10.5l116 164q17 -2 36 -11.5t31 -24.5z" />
    <glyph glyph-name="OE" unicode="&#x152;" horiz-adv-x="898" 
d="M840.5 64q4.5 -13 4.5 -27q0 -16 -6 -26.5t-17 -10.5h-317q-20 0 -34 10t-18 28q-45 -51 -126 -51q-133 0 -201.5 90t-68.5 270t69 270t201 90q71 0 113 -34q15 12 31.5 16.5t45.5 4.5h300q15 0 15 -25q0 -17 -7 -33.5t-18 -21.5q-131 28 -265 31l1 -255h239q3 -13 3 -26
q0 -15 -3 -27h-239l1 -289q67 1 144.5 11t138.5 23q9 -5 13.5 -18zM402 50q31 24 50 77l-1 432q-17 59 -47 84t-77 25q-84 0 -126.5 -78t-42.5 -243t42.5 -243t126.5 -78q44 0 75 24z" />
    <glyph glyph-name="oe" unicode="&#x153;" horiz-adv-x="882" 
d="M103.5 57.5q-61.5 70.5 -61.5 196.5q0 127 61.5 198t171.5 71q63 0 111.5 -30t73.5 -82q24 52 74.5 82t117.5 30q84 0 135 -38t51 -108q0 -74 -59 -113t-165 -39q-47 0 -106 7q11 -185 163 -185q54 0 94 22.5t55 62.5q15 -5 15 -24q0 -10 -6 -27q-19 -46 -67 -70
t-114 -24q-65 0 -114.5 28.5t-73.5 80.5q-25 -52 -73 -80.5t-112 -28.5q-110 0 -171.5 70.5zM375.5 84q34.5 59 34.5 170q0 113 -34.5 172t-100.5 59q-67 0 -101.5 -59t-34.5 -172q0 -111 34.5 -170t101.5 -59q66 0 100.5 59zM583 264q74 0 117 31.5t43 94.5q0 52 -27 73.5
t-67 21.5q-64 0 -103 -58t-38 -157q36 -6 75 -6z" />
    <glyph glyph-name="Racute" unicode="&#x154;" horiz-adv-x="605" 
d="M590 44q0 -26 -21 -40.5t-43 -14.5q-41 0 -63.5 25.5t-45.5 82.5l-43 111q-13 33 -24.5 52t-35 32.5t-62.5 13.5h-66v-190q0 -26 3 -56.5t11 -50.5q-8 -8 -22 -14.5t-31 -6.5q-24 0 -38.5 13.5t-14.5 36.5v534q0 23 -3.5 56.5t-10.5 55.5q48 23 154 23q144 0 213.5 -44
t69.5 -143q0 -73 -41.5 -123t-113.5 -68q35 -10 56 -33.5t41 -63.5l48 -114q13 -31 24 -44t25 -14q17 0 28 12q6 -12 6 -28zM256 344q72 2 116.5 48t44.5 120q0 79 -42 118t-135 39q-42 0 -54 -2v-322zM255 739q-6 2 -12 11t-6 13l138 118q15 -7 33 -25t25 -36z" />
    <glyph glyph-name="racute" unicode="&#x155;" horiz-adv-x="447" 
d="M387.5 494.5q32.5 -28.5 32.5 -77.5q0 -35 -20 -57t-48 -22q-25 0 -36 13q11 17 15 31t4 33q0 60 -55 60q-43 0 -71.5 -58t-28.5 -177q0 -123 2 -161.5t13 -67.5q-8 -8 -21.5 -14t-31.5 -7q-22 0 -37 14.5t-15 39.5v357q0 27 -6.5 39t-21.5 12q-19 0 -26 -14
q-12 17 -12 33q0 23 17 37t47 14q40 0 61.5 -28.5t20.5 -83.5q17 55 51 84t82 29q52 0 84.5 -28.5zM209 565q-10 0 -22 2t-16 5l91 151q19 2 48 -5t39 -15z" />
    <glyph glyph-name="Rcommaaccent" unicode="&#x156;" horiz-adv-x="605" 
d="M590 44q0 -26 -21 -40.5t-43 -14.5q-41 0 -63.5 25.5t-45.5 82.5l-43 111q-13 33 -24.5 52t-35 32.5t-62.5 13.5h-66v-190q0 -26 3 -56.5t11 -50.5q-8 -8 -22 -14.5t-31 -6.5q-24 0 -38.5 13.5t-14.5 36.5v534q0 23 -3.5 56.5t-10.5 55.5q48 23 154 23q144 0 213.5 -44
t69.5 -143q0 -73 -41.5 -123t-113.5 -68q35 -10 56 -33.5t41 -63.5l48 -114q13 -31 24 -44t25 -14q17 0 28 12q6 -12 6 -28zM256 344q72 2 116.5 48t44.5 120q0 79 -42 118t-135 39q-42 0 -54 -2v-322zM281 -219q32 37 32 69q0 27 -14 39t-36 18q0 23 17 41t44 18
q25 0 43 -17.5t18 -56.5q0 -68 -71 -131q-19 4 -33 20z" />
    <glyph glyph-name="rcommaaccent" unicode="&#x157;" horiz-adv-x="447" 
d="M387.5 494.5q32.5 -28.5 32.5 -77.5q0 -35 -20 -57t-48 -22q-25 0 -36 13q11 17 15 31t4 33q0 60 -55 60q-43 0 -71.5 -58t-28.5 -177q0 -123 2 -161.5t13 -67.5q-8 -8 -21.5 -14t-31.5 -7q-22 0 -37 14.5t-15 39.5v357q0 27 -6.5 39t-21.5 12q-19 0 -26 -14
q-12 17 -12 33q0 23 17 37t47 14q40 0 61.5 -28.5t20.5 -83.5q17 55 51 84t82 29q52 0 84.5 -28.5zM105 -219q32 37 32 69q0 27 -14 39t-36 18q0 23 17 41t44 18q25 0 43 -17.5t18 -56.5q0 -68 -71 -131q-19 4 -33 20z" />
    <glyph glyph-name="Rcaron" unicode="&#x158;" horiz-adv-x="605" 
d="M590 44q0 -26 -21 -40.5t-43 -14.5q-41 0 -63.5 25.5t-45.5 82.5l-43 111q-13 33 -24.5 52t-35 32.5t-62.5 13.5h-66v-190q0 -26 3 -56.5t11 -50.5q-8 -8 -22 -14.5t-31 -6.5q-24 0 -38.5 13.5t-14.5 36.5v534q0 23 -3.5 56.5t-10.5 55.5q48 23 154 23q144 0 213.5 -44
t69.5 -143q0 -73 -41.5 -123t-113.5 -68q35 -10 56 -33.5t41 -63.5l48 -114q13 -31 24 -44t25 -14q17 0 28 12q6 -12 6 -28zM256 344q72 2 116.5 48t44.5 120q0 79 -42 118t-135 39q-42 0 -54 -2v-322zM284 740q-15 0 -27 4l-129 118q1 4 8.5 12t12.5 11l135 -79l135 79
q5 -3 12 -11t8 -12l-128 -118q-12 -4 -27 -4z" />
    <glyph glyph-name="rcaron" unicode="&#x159;" horiz-adv-x="447" 
d="M387.5 494.5q32.5 -28.5 32.5 -77.5q0 -35 -20 -57t-48 -22q-25 0 -36 13q11 17 15 31t4 33q0 60 -55 60q-43 0 -71.5 -58t-28.5 -177q0 -123 2 -161.5t13 -67.5q-8 -8 -21.5 -14t-31.5 -7q-22 0 -37 14.5t-15 39.5v357q0 27 -6.5 39t-21.5 12q-19 0 -26 -14
q-12 17 -12 33q0 23 17 37t47 14q40 0 61.5 -28.5t20.5 -83.5q17 55 51 84t82 29q52 0 84.5 -28.5zM203 637l115 87q7 0 19 -4t14 -8l-121 -142q-9 -3 -28 -3q-18 0 -27 3l-121 142q1 4 13.5 8t19.5 4z" />
    <glyph glyph-name="Sacute" unicode="&#x15a;" horiz-adv-x="557" 
d="M105 27.5q-57 41.5 -57 105.5q0 62 60 62q5 0 21 -2q-3 -12 -3 -27q0 -11 1 -17q4 -55 45.5 -89t112.5 -34q62 0 100 30.5t38 87.5q0 37 -17 65t-49 51.5t-89 55.5q-70 39 -109.5 68t-62.5 66.5t-23 89.5q0 84 61 125.5t156 41.5q91 0 146.5 -32.5t55.5 -89.5
q0 -46 -46 -50q-4 -1 -14 -1q-12 0 -18 2q1 5 1 16q0 16 -3 29q-5 41 -40.5 64t-91.5 23q-50 0 -85.5 -23t-35.5 -75q0 -37 17.5 -64.5t50 -50.5t91.5 -56q62 -33 103.5 -63t66.5 -71t25 -94q0 -50 -24.5 -92t-78.5 -67.5t-136 -25.5q-112 0 -169 41.5zM252 739q-6 2 -12 11
t-6 13l138 118q15 -7 33 -25t25 -36z" />
    <glyph glyph-name="sacute" unicode="&#x15b;" horiz-adv-x="470" 
d="M83 20q-47 33 -47 87q0 26 13.5 43t42.5 17q5 0 17 -2q-3 -13 -3 -25t1 -19q3 -43 36 -68.5t90 -25.5q53 0 85.5 19.5t32.5 55.5q0 25 -13.5 42.5t-34 29.5t-57.5 29l-31 14q-55 26 -85 44.5t-52 50.5t-22 79q0 67 51.5 100t131.5 33q83 0 130 -26t47 -74
q0 -20 -10.5 -33.5t-32.5 -15.5q-5 -1 -14 -1q-10 0 -16 2q1 5 1 18q0 16 -4 27q-4 31 -31.5 47.5t-72.5 16.5q-42 0 -69.5 -16t-27.5 -50q0 -29 16.5 -50t39.5 -34.5t71 -36.5l19 -9q50 -24 79.5 -42t50.5 -46t21 -68q0 -60 -50.5 -103t-161.5 -43q-94 0 -141 33zM240 566
q-10 0 -22 2t-16 5l91 151q19 2 48 -5t39 -15z" />
    <glyph glyph-name="Scircumflex" unicode="&#x15c;" horiz-adv-x="557" 
d="M105 27.5q-57 41.5 -57 105.5q0 62 60 62q5 0 21 -2q-3 -12 -3 -27q0 -11 1 -17q4 -55 45.5 -89t112.5 -34q62 0 100 30.5t38 87.5q0 37 -17 65t-49 51.5t-89 55.5q-70 39 -109.5 68t-62.5 66.5t-23 89.5q0 84 61 125.5t156 41.5q91 0 146.5 -32.5t55.5 -89.5
q0 -46 -46 -50q-4 -1 -14 -1q-12 0 -18 2q1 5 1 16q0 16 -3 29q-5 41 -40.5 64t-91.5 23q-50 0 -85.5 -23t-35.5 -75q0 -37 17.5 -64.5t50 -50.5t91.5 -56q62 -33 103.5 -63t66.5 -71t25 -94q0 -50 -24.5 -92t-78.5 -67.5t-136 -25.5q-112 0 -169 41.5zM434 757
q-1 -5 -8 -13t-12 -10l-135 78l-136 -78q-5 2 -11.5 10t-8.5 13l128 118q9 3 27 3q19 0 28 -3z" />
    <glyph glyph-name="scircumflex" unicode="&#x15d;" horiz-adv-x="470" 
d="M83 20q-47 33 -47 87q0 26 13.5 43t42.5 17q5 0 17 -2q-3 -13 -3 -25t1 -19q3 -43 36 -68.5t90 -25.5q53 0 85.5 19.5t32.5 55.5q0 25 -13.5 42.5t-34 29.5t-57.5 29l-31 14q-55 26 -85 44.5t-52 50.5t-22 79q0 67 51.5 100t131.5 33q83 0 130 -26t47 -74
q0 -20 -10.5 -33.5t-32.5 -15.5q-5 -1 -14 -1q-10 0 -16 2q1 5 1 18q0 16 -4 27q-4 31 -31.5 47.5t-72.5 16.5q-42 0 -69.5 -16t-27.5 -50q0 -29 16.5 -50t39.5 -34.5t71 -36.5l19 -9q50 -24 79.5 -42t50.5 -46t21 -68q0 -60 -50.5 -103t-161.5 -43q-94 0 -141 33zM96 568
q-12 4 -13 8l121 141q9 3 29 3q17 0 26 -3l121 -141q-2 -4 -13.5 -8t-19.5 -4l-115 86l-116 -86q-8 0 -20 4z" />
    <glyph glyph-name="Scedilla" unicode="&#x15e;" horiz-adv-x="557" 
d="M460 44q-53 -52 -163 -57l-7 -37q46 1 72 -18.5t26 -54.5q0 -39 -29.5 -63t-78.5 -24q-61 0 -91 32q-1 7 3 18.5t9 14.5q2 -1 9.5 -7.5t21 -11t29.5 -4.5q23 0 35.5 11.5t12.5 32.5q0 20 -13 33t-42 13l-14 -1l12 65q-101 4 -152.5 45t-51.5 102q0 62 60 62q5 0 21 -2
q-3 -12 -3 -27q0 -11 1 -17q4 -55 45.5 -89t112.5 -34q62 0 100 30.5t38 87.5q0 37 -17 65t-49 51.5t-89 55.5q-70 39 -109.5 68t-62.5 66.5t-23 89.5q0 84 61 125.5t156 41.5q91 0 146.5 -32.5t55.5 -89.5q0 -46 -46 -50q-4 -1 -14 -1q-12 0 -18 2q1 5 1 16q0 16 -3 29
q-5 41 -40.5 64t-91.5 23q-50 0 -85.5 -23t-35.5 -75q0 -37 17.5 -64.5t50 -50.5t91.5 -56q62 -33 103.5 -63t66.5 -71t25 -94q0 -75 -53 -127z" />
    <glyph glyph-name="scedilla" unicode="&#x15f;" horiz-adv-x="470" 
d="M392 35.5q-44 -41.5 -140 -47.5l-7 -38q46 1 72 -18.5t26 -54.5q0 -39 -29.5 -63t-78.5 -24q-61 0 -91 32q-1 7 3 18.5t9 14.5q2 -1 9.5 -7.5t21 -11t29.5 -4.5q23 0 35.5 11.5t12.5 32.5q0 20 -13 33t-42 13l-14 -1l13 66q-87 4 -129.5 36.5t-42.5 83.5q0 26 13.5 43
t42.5 17q5 0 17 -2q-3 -13 -3 -25t1 -19q3 -43 36 -68.5t90 -25.5q53 0 85.5 19.5t32.5 55.5q0 25 -13.5 42.5t-34 29.5t-57.5 29l-31 14q-55 26 -85 44.5t-52 50.5t-22 79q0 67 51.5 100t131.5 33q83 0 130 -26t47 -74q0 -20 -10.5 -33.5t-32.5 -15.5q-5 -1 -14 -1
q-10 0 -16 2q1 5 1 18q0 16 -4 27q-4 31 -31.5 47.5t-72.5 16.5q-42 0 -69.5 -16t-27.5 -50q0 -29 16.5 -50t39.5 -34.5t71 -36.5l19 -9q50 -24 79.5 -42t50.5 -46t21 -68q0 -56 -44 -97.5z" />
    <glyph glyph-name="Scaron" unicode="&#x160;" horiz-adv-x="557" 
d="M105 27.5q-57 41.5 -57 105.5q0 62 60 62q5 0 21 -2q-3 -12 -3 -27q0 -11 1 -17q4 -55 45.5 -89t112.5 -34q62 0 100 30.5t38 87.5q0 37 -17 65t-49 51.5t-89 55.5q-70 39 -109.5 68t-62.5 66.5t-23 89.5q0 84 61 125.5t156 41.5q91 0 146.5 -32.5t55.5 -89.5
q0 -46 -46 -50q-4 -1 -14 -1q-12 0 -18 2q1 5 1 16q0 16 -3 29q-5 41 -40.5 64t-91.5 23q-50 0 -85.5 -23t-35.5 -75q0 -37 17.5 -64.5t50 -50.5t91.5 -56q62 -33 103.5 -63t66.5 -71t25 -94q0 -50 -24.5 -92t-78.5 -67.5t-136 -25.5q-112 0 -169 41.5zM281 740q-15 0 -27 4
l-129 118q1 4 8.5 12t12.5 11l135 -79l135 79q5 -3 12 -11t8 -12l-128 -118q-12 -4 -27 -4z" />
    <glyph glyph-name="scaron" unicode="&#x161;" horiz-adv-x="470" 
d="M83 20q-47 33 -47 87q0 26 13.5 43t42.5 17q5 0 17 -2q-3 -13 -3 -25t1 -19q3 -43 36 -68.5t90 -25.5q53 0 85.5 19.5t32.5 55.5q0 25 -13.5 42.5t-34 29.5t-57.5 29l-31 14q-55 26 -85 44.5t-52 50.5t-22 79q0 67 51.5 100t131.5 33q83 0 130 -26t47 -74
q0 -20 -10.5 -33.5t-32.5 -15.5q-5 -1 -14 -1q-10 0 -16 2q1 5 1 18q0 16 -4 27q-4 31 -31.5 47.5t-72.5 16.5q-42 0 -69.5 -16t-27.5 -50q0 -29 16.5 -50t39.5 -34.5t71 -36.5l19 -9q50 -24 79.5 -42t50.5 -46t21 -68q0 -60 -50.5 -103t-161.5 -43q-94 0 -141 33zM234 638
l115 87q7 0 19 -4t14 -8l-121 -142q-9 -3 -28 -3q-18 0 -27 3l-121 142q1 4 13.5 8t19.5 4z" />
    <glyph glyph-name="uni0162" unicode="&#x162;" horiz-adv-x="533" 
d="M518 669q0 -17 -7.5 -33.5t-18.5 -21.5l-23 6q-50 14 -85.5 22t-71.5 11l1 -533q0 -74 14 -111q-12 -12 -29 -17l-8 -42q46 1 72 -18.5t26 -54.5q0 -39 -29.5 -63t-78.5 -24q-61 0 -91 32q-1 7 3 18.5t9 14.5q2 -1 9.5 -7.5t21 -11t29.5 -4.5q23 0 35.5 11.5t12.5 32.5
q0 20 -13 33t-42 13l-14 -1l13 71q-14 5 -22.5 17t-8.5 29l-1 616q-66 -7 -179 -40q-11 5 -18.5 21.5t-7.5 33.5q0 11 4 18t12 7h471q15 0 15 -25z" />
    <glyph glyph-name="uni0163" unicode="&#x163;" horiz-adv-x="342" 
d="M262 510q29 1 46 2l-1 -24q-1 -12 -8 -18.5t-17 -6.5h-99v-36l-1 -314q0 -54 48 -54q14 0 27.5 5t17.5 14q12 -16 12 -34q0 -23 -21.5 -38t-57.5 -17l-7 -39q46 1 72 -18.5t26 -54.5q0 -39 -29.5 -63t-78.5 -24q-61 0 -91 32q-1 7 3 18.5t9 14.5q2 -1 9.5 -7.5t21 -11
t29.5 -4.5q23 0 35.5 11.5t12.5 32.5q0 20 -13 33t-42 13l-14 -1l14 72q-35 9 -54 38.5t-19 74.5v357h-15q-40 0 -60 -3l1 25q1 12 8 18t18 6h48v84q0 23 14.5 36t38.5 13q28 0 51 -20q-11 -38 -12 -113h32q17 0 46 1z" />
    <glyph glyph-name="Tcaron" unicode="&#x164;" horiz-adv-x="533" 
d="M518 669q0 -17 -7.5 -33.5t-18.5 -21.5l-23 6q-50 14 -85.5 22t-71.5 11l1 -533q0 -74 14 -111q-8 -8 -21.5 -14.5t-30.5 -6.5q-24 0 -38.5 13.5t-14.5 36.5l-1 616q-66 -7 -179 -40q-11 5 -18.5 21.5t-7.5 33.5q0 11 4 18t12 7h471q15 0 15 -25zM267 740q-15 0 -27 4
l-129 118q1 4 8.5 12t12.5 11l135 -79l135 79q5 -3 12 -11t8 -12l-128 -118q-12 -4 -27 -4z" />
    <glyph glyph-name="tcaron" unicode="&#x165;" horiz-adv-x="370" 
d="M248 604q0 64 -15 112q20 6 43 6t41 -6q1 -76 -29 -158h-42q2 14 2 46zM216 509q17 0 46 1t46 2l-1 -24q-1 -12 -8 -18.5t-17 -6.5h-99v-36l-1 -314q0 -54 48 -54q14 0 27.5 5t17.5 14q12 -16 12 -34q0 -25 -25 -40t-65 -15q-49 0 -77 31t-28 86v357h-15q-40 0 -60 -3
l1 25q1 12 8 18t18 6h48v84q0 23 14.5 36t38.5 13q28 0 51 -20q-11 -38 -12 -113h32z" />
    <glyph glyph-name="Utilde" unicode="&#x168;" horiz-adv-x="661" 
d="M578 306q0 -158 -62 -238.5t-186 -80.5q-122 0 -181.5 77.5t-59.5 241.5v266q0 74 -14 112q22 20 53 20q23 0 37.5 -13t14.5 -36v-353q0 -144 36 -210t114 -66q158 0 158 276v270q0 74 -14 112q23 20 53 20q22 0 36.5 -13t14.5 -36v-349zM447.5 778.5
q-21.5 -23.5 -54.5 -23.5q-17 0 -33 5.5t-36 16.5q-21 10 -33.5 15t-26.5 5q-44 0 -59 -41h-3q-5 0 -11.5 3t-10.5 7q6 46 30 67t58 21q17 0 30.5 -4.5t38.5 -16.5q19 -10 33.5 -15.5t30.5 -5.5q21 0 30.5 9t20.5 28q17 0 25 -8q-8 -39 -29.5 -62.5z" />
    <glyph glyph-name="utilde" unicode="&#x169;" horiz-adv-x="570" 
d="M546 40q0 -23 -16.5 -36.5t-46.5 -13.5q-40 0 -61.5 27t-21.5 80v13q-20 -59 -63.5 -91.5t-103.5 -32.5q-82 0 -119.5 48t-37.5 161v196q0 70 -14 111q25 21 52 21q23 0 37.5 -13.5t14.5 -36.5v-266q0 -94 21 -133.5t73 -39.5q34 0 63.5 25t48.5 78t19 134
q0 125 -2 163.5t-13 68.5q23 20 52 20q22 0 37 -14.5t15 -39.5l1 -359q0 -28 6.5 -39.5t20.5 -11.5q19 0 27 14q11 -15 11 -33zM385 604.5q-21 -24.5 -54 -24.5q-17 0 -32 6t-33 18q-17 11 -30 17t-28 6q-44 0 -60 -42h-2q-5 0 -11.5 3t-10.5 7q6 45 30.5 66.5t57.5 21.5
q18 0 32.5 -6t33.5 -19q20 -12 32 -17.5t28 -5.5q21 0 31.5 10.5t19.5 32.5q15 0 23 -8q-6 -41 -27 -65.5z" />
    <glyph glyph-name="Umacron" unicode="&#x16a;" horiz-adv-x="661" 
d="M578 306q0 -158 -62 -238.5t-186 -80.5q-122 0 -181.5 77.5t-59.5 241.5v266q0 74 -14 112q22 20 53 20q23 0 37.5 -13t14.5 -36v-353q0 -144 36 -210t114 -66q158 0 158 276v270q0 74 -14 112q23 20 53 20q22 0 36.5 -13t14.5 -36v-349zM462 821q4 -11 4 -23
q0 -13 -4 -24h-262q-4 11 -4 24q0 12 4 23h262z" />
    <glyph glyph-name="umacron" unicode="&#x16b;" horiz-adv-x="570" 
d="M546 40q0 -23 -16.5 -36.5t-46.5 -13.5q-40 0 -61.5 27t-21.5 80v13q-20 -59 -63.5 -91.5t-103.5 -32.5q-82 0 -119.5 48t-37.5 161v196q0 70 -14 111q25 21 52 21q23 0 37.5 -13.5t14.5 -36.5v-266q0 -94 21 -133.5t73 -39.5q34 0 63.5 25t48.5 78t19 134
q0 125 -2 163.5t-13 68.5q23 20 52 20q22 0 37 -14.5t15 -39.5l1 -359q0 -28 6.5 -39.5t20.5 -11.5q19 0 27 14q11 -15 11 -33zM401 647q4 -11 4 -24q0 -12 -4 -23h-262q-4 11 -4 23q0 13 4 24h262z" />
    <glyph glyph-name="Ubreve" unicode="&#x16c;" horiz-adv-x="661" 
d="M578 306q0 -158 -62 -238.5t-186 -80.5q-122 0 -181.5 77.5t-59.5 241.5v266q0 74 -14 112q22 20 53 20q23 0 37.5 -13t14.5 -36v-353q0 -144 36 -210t114 -66q158 0 158 276v270q0 74 -14 112q23 20 53 20q22 0 36.5 -13t14.5 -36v-349zM415 770.5q-33 -30.5 -86 -30.5
q-54 0 -86.5 31t-45.5 78l35 12q12 -34 38.5 -50.5t63.5 -16.5q35 0 60.5 17.5t37.5 48.5l31 -9q-15 -50 -48 -80.5z" />
    <glyph glyph-name="ubreve" unicode="&#x16d;" horiz-adv-x="570" 
d="M546 40q0 -23 -16.5 -36.5t-46.5 -13.5q-40 0 -61.5 27t-21.5 80v13q-20 -59 -63.5 -91.5t-103.5 -32.5q-82 0 -119.5 48t-37.5 161v196q0 70 -14 111q25 21 52 21q23 0 37.5 -13.5t14.5 -36.5v-266q0 -94 21 -133.5t73 -39.5q34 0 63.5 25t48.5 78t19 134
q0 125 -2 163.5t-13 68.5q23 20 52 20q22 0 37 -14.5t15 -39.5l1 -359q0 -28 6.5 -39.5t20.5 -11.5q19 0 27 14q11 -15 11 -33zM381 710q17 -3 32 -11q-15 -58 -50.5 -93.5t-93.5 -35.5q-64 0 -100 37t-48 90q13 11 35 14q13 -35 42.5 -57t71.5 -22q76 0 111 78z" />
    <glyph glyph-name="Uring" unicode="&#x16e;" horiz-adv-x="661" 
d="M578 306q0 -158 -62 -238.5t-186 -80.5q-122 0 -181.5 77.5t-59.5 241.5v266q0 74 -14 112q22 20 53 20q23 0 37.5 -13t14.5 -36v-353q0 -144 36 -210t114 -66q158 0 158 276v270q0 74 -14 112q23 20 53 20q22 0 36.5 -13t14.5 -36v-349zM401 887q25 -23 25 -60
q-1 -39 -27 -62t-68 -23q-41 0 -66 22t-25 59q0 39 26.5 63t68.5 24q41 0 66 -23zM300 864.5q-12 -14.5 -12 -39.5t12 -39t33 -14t33 14t12 39t-12 39.5t-33 14.5t-33 -14.5z" />
    <glyph glyph-name="uring" unicode="&#x16f;" horiz-adv-x="570" 
d="M546 40q0 -23 -16.5 -36.5t-46.5 -13.5q-40 0 -61.5 27t-21.5 80v13q-20 -59 -63.5 -91.5t-103.5 -32.5q-82 0 -119.5 48t-37.5 161v196q0 70 -14 111q25 21 52 21q23 0 37.5 -13.5t14.5 -36.5v-266q0 -94 21 -133.5t73 -39.5q34 0 63.5 25t48.5 78t19 134
q0 125 -2 163.5t-13 68.5q23 20 52 20q22 0 37 -14.5t15 -39.5l1 -359q0 -28 6.5 -39.5t20.5 -11.5q19 0 27 14q11 -15 11 -33zM339 702q25 -23 25 -60q-1 -39 -27 -62t-68 -23q-41 0 -66 22t-25 59q0 39 26.5 63t68.5 24q41 0 66 -23zM238 679.5q-12 -14.5 -12 -39.5
t12 -39t33 -14t33 14t12 39t-12 39.5t-33 14.5t-33 -14.5z" />
    <glyph glyph-name="Uhungarumlaut" unicode="&#x170;" horiz-adv-x="661" 
d="M578 306q0 -158 -62 -238.5t-186 -80.5q-122 0 -181.5 77.5t-59.5 241.5v266q0 74 -14 112q22 20 53 20q23 0 37.5 -13t14.5 -36v-353q0 -144 36 -210t114 -66q158 0 158 276v270q0 74 -14 112q23 20 53 20q22 0 36.5 -13t14.5 -36v-349zM253 733q-5 1 -13 8t-10 11
l104 144q17 -2 38.5 -15.5t32.5 -29.5zM389 730q-6 1 -13 8.5t-9 11.5l104 144q18 -3 39 -16.5t32 -28.5z" />
    <glyph glyph-name="uhungarumlaut" unicode="&#x171;" horiz-adv-x="570" 
d="M546 40q0 -23 -16.5 -36.5t-46.5 -13.5q-40 0 -61.5 27t-21.5 80v13q-20 -59 -63.5 -91.5t-103.5 -32.5q-82 0 -119.5 48t-37.5 161v196q0 70 -14 111q25 21 52 21q23 0 37.5 -13.5t14.5 -36.5v-266q0 -94 21 -133.5t73 -39.5q34 0 63.5 25t48.5 78t19 134
q0 125 -2 163.5t-13 68.5q23 20 52 20q22 0 37 -14.5t15 -39.5l1 -359q0 -28 6.5 -39.5t20.5 -11.5q19 0 27 14q11 -15 11 -33zM187 546q-6 1 -14.5 8t-10.5 11l116 164q17 -2 36 -11.5t31 -24.5zM335 546q-5 2 -13 8.5t-12 10.5l116 164q17 -2 36 -11.5t31 -24.5z" />
    <glyph glyph-name="Uogonek" unicode="&#x172;" horiz-adv-x="661" 
d="M431 4q-39 -19 -58 -39.5t-19 -48.5q0 -21 12 -34.5t37 -13.5q29 0 50.5 16t34.5 39q12 -9 12 -18q0 -3 -2 -9q-13 -30 -43.5 -49t-71.5 -19q-36 0 -64.5 19t-28.5 58q0 48 48 82h-8q-122 0 -181.5 77.5t-59.5 241.5v266q0 74 -14 112q22 20 53 20q23 0 37.5 -13
t14.5 -36v-353q0 -144 36 -210t114 -66q158 0 158 276v270q0 74 -14 112q23 20 53 20q22 0 36.5 -13t14.5 -36v-349q0 -245 -147 -302z" />
    <glyph glyph-name="uogonek" unicode="&#x173;" horiz-adv-x="570" 
d="M588 -101q0 -3 -2 -9q-13 -30 -43.5 -49t-71.5 -19q-36 0 -64.5 19t-28.5 58q0 61 72 96q-50 20 -50 102v13q-20 -59 -63.5 -91.5t-103.5 -32.5q-82 0 -119.5 48t-37.5 161v196q0 70 -14 111q25 21 52 21q23 0 37.5 -13.5t14.5 -36.5v-266q0 -94 21 -133.5t73 -39.5
q34 0 63.5 25t48.5 78t19 134q0 125 -2 163.5t-13 68.5q23 20 52 20q22 0 37 -14.5t15 -39.5l1 -359q0 -28 6.5 -39.5t20.5 -11.5q19 0 27 14q11 -15 11 -33q0 -17 -9 -29t-26 -17q-35 -18 -52 -38t-17 -46q0 -21 12 -34.5t37 -13.5q29 0 50.5 16t34.5 39q12 -9 12 -18z" />
    <glyph glyph-name="Wcircumflex" unicode="&#x174;" horiz-adv-x="929" 
d="M905 665q0 -14 -10 -50l-171 -613q-34 -14 -62 -14q-22 0 -36.5 7.5t-18.5 21.5l-137 496l-144 -511q-34 -14 -60 -14q-53 0 -60 29l-162 619q-8 31 -25 50q19 21 55 21q24 0 39.5 -9t19.5 -27l144 -605l139 501q3 14 3 25q0 15 -6 29q13 7 31.5 11t32.5 4q17 0 29 -5.5
t16 -16.5l152 -548l131 570q1 5 3.5 16t2.5 19q0 15 -7 25q23 9 48 9q54 0 53 -40zM623 757q-1 -5 -8 -13t-12 -10l-135 78l-136 -78q-5 2 -11.5 10t-8.5 13l128 118q9 3 27 3q19 0 28 -3z" />
    <glyph glyph-name="wcircumflex" unicode="&#x175;" horiz-adv-x="791" 
d="M173 21l-133 425q-12 36 -24 49q18 22 52 22q22 0 36 -9.5t18 -27.5l117 -428l99 396q5 17 5 35q0 16 -6 25q20 9 61 11q49 0 58 -31l112 -436l105 396q6 22 6 35q0 16 -6 25q23 9 46 9q52 0 51 -41q0 -24 -10 -50l-143 -423q-31 -15 -61 -15q-19 0 -34 8t-18 25
l-106 403l-108 -421q-33 -15 -66 -15q-40 0 -51 33zM257 567q-12 4 -13 8l121 141q9 3 29 3q17 0 26 -3l121 -141q-2 -4 -13.5 -8t-19.5 -4l-115 86l-116 -86q-8 0 -20 4z" />
    <glyph glyph-name="Ycircumflex" unicode="&#x176;" horiz-adv-x="561" 
d="M535 635q-6 -16 -16 -31l-193 -353l1 -131q0 -74 14 -111q-8 -8 -21.5 -14.5t-30.5 -6.5q-24 0 -38.5 13.5t-14.5 36.5v214q-2 3 -13 22l-174 350q-14 28 -38 52q10 10 27.5 19t38.5 9q24 0 37.5 -12t25.5 -37l157 -339l147 315q11 23 11 37q0 18 -9 28q22 8 51 8
q21 0 32.5 -12t11.5 -30q0 -11 -6 -27zM451 757q-1 -5 -8 -13t-12 -10l-135 78l-136 -78q-5 2 -11.5 10t-8.5 13l128 118q9 3 27 3q19 0 28 -3z" />
    <glyph glyph-name="ycircumflex" unicode="&#x177;" horiz-adv-x="549" 
d="M481 50q0 -281 -240 -281q-75 0 -125 25.5t-50 81.5q0 29 18.5 48.5t48.5 19.5t42 -17q-13 -9 -19 -22.5t-6 -25.5q0 -37 26.5 -56t64.5 -19q155 0 155 241q0 20 4 74q-21 -61 -64.5 -94t-107.5 -33q-77 0 -114.5 48t-37.5 160v191q0 70 -14 111q25 21 52 21
q23 0 37.5 -13.5t14.5 -36.5v-261q0 -90 20 -131t68 -41q59 0 98 58.5t39 177.5q0 122 -2 160t-13 67q23 20 52 20q22 0 37 -14.5t15 -39.5zM141 567q-12 4 -13 8l121 141q9 3 29 3q17 0 26 -3l121 -141q-2 -4 -13.5 -8t-19.5 -4l-115 86l-116 -86q-8 0 -20 4z" />
    <glyph glyph-name="Ydieresis" unicode="&#x178;" horiz-adv-x="561" 
d="M535 635q-6 -16 -16 -31l-193 -353l1 -131q0 -74 14 -111q-8 -8 -21.5 -14.5t-30.5 -6.5q-24 0 -38.5 13.5t-14.5 36.5v214q-2 3 -13 22l-174 350q-14 28 -38 52q10 10 27.5 19t38.5 9q24 0 37.5 -12t25.5 -37l157 -339l147 315q11 23 11 37q0 18 -9 28q22 8 51 8
q21 0 32.5 -12t11.5 -30q0 -11 -6 -27zM166 774q-16 16 -16 39t16 39t38 16t38.5 -16t16.5 -39q0 -22 -16.5 -38.5t-38.5 -16.5t-38 16zM357 774q-16 16 -16 39t16 39t38 16t38.5 -16t16.5 -39q0 -22 -16.5 -38.5t-38.5 -16.5t-38 16z" />
    <glyph glyph-name="Zacute" unicode="&#x179;" horiz-adv-x="578" 
d="M528.5 171.5q21.5 -29.5 21.5 -67.5q0 -48 -36 -77t-107 -28l-239 4q-36 0 -58 -1.5t-48 -7.5l-14 25q0 24 6 42.5t21 37.5l365 525l-235 -9q-34 -1 -55.5 -13.5t-27.5 -33.5q-2 -7 -2 -19q0 -25 19 -45q-25 0 -44 11q-21 6 -34 28.5t-13 50.5q0 45 38.5 74t110.5 28
l190 -4h30q62 0 91 8l17 -27q0 -27 -5.5 -45.5t-20.5 -37.5l-369 -520l252 10q53 1 75 22t22 51q0 28 -18 48h10q36 0 57.5 -29.5zM263 739q-6 2 -12 11t-6 13l138 118q15 -7 33 -25t25 -36z" />
    <glyph glyph-name="zacute" unicode="&#x17a;" horiz-adv-x="493" 
d="M458 138.5q13 -24.5 13 -48.5q0 -42 -34 -68t-93 -25l-202 3q-59 2 -95 -8l-12 21q0 21 5 36t18 29l304 368l-189 -9q-26 -1 -42 -12t-23 -27q-5 -12 -5 -20q0 -14 8 -27l-8 -1q-10 0 -17 4q-26 8 -40 29.5t-14 43.5q0 39 33 63.5t97 23.5l176 -4q37 0 57.5 1t35.5 6
l12 -22q0 -23 -4.5 -38.5t-18.5 -33.5l-287 -351l190 5q32 1 50.5 14t24.5 34q3 9 3 18q0 17 -9 31q14 0 26 -3q27 -8 40 -32.5zM252 566q-10 0 -22 2t-16 5l91 151q19 2 48 -5t39 -15z" />
    <glyph glyph-name="Zdotaccent" unicode="&#x17b;" horiz-adv-x="578" 
d="M528.5 171.5q21.5 -29.5 21.5 -67.5q0 -48 -36 -77t-107 -28l-239 4q-36 0 -58 -1.5t-48 -7.5l-14 25q0 24 6 42.5t21 37.5l365 525l-235 -9q-34 -1 -55.5 -13.5t-27.5 -33.5q-2 -7 -2 -19q0 -25 19 -45q-25 0 -44 11q-21 6 -34 28.5t-13 50.5q0 45 38.5 74t110.5 28
l190 -4h30q62 0 91 8l17 -27q0 -27 -5.5 -45.5t-20.5 -37.5l-369 -520l252 10q53 1 75 22t22 51q0 28 -18 48h10q36 0 57.5 -29.5zM253 769.5q-16 16.5 -16 38.5q0 23 16 39t39 16q22 0 38 -16t16 -39q0 -22 -16 -38.5t-38 -16.5q-23 0 -39 16.5z" />
    <glyph glyph-name="zdotaccent" unicode="&#x17c;" horiz-adv-x="493" 
d="M458 138.5q13 -24.5 13 -48.5q0 -42 -34 -68t-93 -25l-202 3q-59 2 -95 -8l-12 21q0 21 5 36t18 29l304 368l-189 -9q-26 -1 -42 -12t-23 -27q-5 -12 -5 -20q0 -14 8 -27l-8 -1q-10 0 -17 4q-26 8 -40 29.5t-14 43.5q0 39 33 63.5t97 23.5l176 -4q37 0 57.5 1t35.5 6
l12 -22q0 -23 -4.5 -38.5t-18.5 -33.5l-287 -351l190 5q32 1 50.5 14t24.5 34q3 9 3 18q0 17 -9 31q14 0 26 -3q27 -8 40 -32.5zM206 591q-16 16 -16 38q0 23 16 39t39 16q22 0 38.5 -16t16.5 -39q0 -22 -16 -38t-39 -16t-39 16z" />
    <glyph glyph-name="Zcaron" unicode="&#x17d;" horiz-adv-x="578" 
d="M528.5 171.5q21.5 -29.5 21.5 -67.5q0 -48 -36 -77t-107 -28l-239 4q-36 0 -58 -1.5t-48 -7.5l-14 25q0 24 6 42.5t21 37.5l365 525l-235 -9q-34 -1 -55.5 -13.5t-27.5 -33.5q-2 -7 -2 -19q0 -25 19 -45q-25 0 -44 11q-21 6 -34 28.5t-13 50.5q0 45 38.5 74t110.5 28
l190 -4h30q62 0 91 8l17 -27q0 -27 -5.5 -45.5t-20.5 -37.5l-369 -520l252 10q53 1 75 22t22 51q0 28 -18 48h10q36 0 57.5 -29.5zM292 740q-15 0 -27 4l-129 118q1 4 8.5 12t12.5 11l135 -79l135 79q5 -3 12 -11t8 -12l-128 -118q-12 -4 -27 -4z" />
    <glyph glyph-name="zcaron" unicode="&#x17e;" horiz-adv-x="493" 
d="M458 138.5q13 -24.5 13 -48.5q0 -42 -34 -68t-93 -25l-202 3q-59 2 -95 -8l-12 21q0 21 5 36t18 29l304 368l-189 -9q-26 -1 -42 -12t-23 -27q-5 -12 -5 -20q0 -14 8 -27l-8 -1q-10 0 -17 4q-26 8 -40 29.5t-14 43.5q0 39 33 63.5t97 23.5l176 -4q37 0 57.5 1t35.5 6
l12 -22q0 -23 -4.5 -38.5t-18.5 -33.5l-287 -351l190 5q32 1 50.5 14t24.5 34q3 9 3 18q0 17 -9 31q14 0 26 -3q27 -8 40 -32.5zM247 638l115 87q7 0 19 -4t14 -8l-121 -142q-9 -3 -28 -3q-18 0 -27 3l-121 142q1 4 13.5 8t19.5 4z" />
    <glyph glyph-name="uni018F" unicode="&#x18f;" horiz-adv-x="607" 
d="M482.5 613.5q73.5 -93.5 73.5 -267.5q0 -168 -73 -263.5t-208 -95.5q-101 0 -162.5 49.5t-61.5 141.5q0 97 64 149t175 52q104 0 169 -11q-5 149 -58.5 213.5t-145.5 64.5q-63 0 -112 -25t-68 -71q-15 6 -15 24q0 13 7 28q22 50 79 77.5t131 27.5q132 0 205.5 -93.5z
M409.5 103.5q48.5 79.5 49.5 226.5q-57 9 -115 9q-84 0 -140 -41.5t-56 -134.5q0 -75 37.5 -107t92.5 -32q83 0 131.5 79.5z" />
    <glyph glyph-name="florin" unicode="&#x192;" horiz-adv-x="386" 
d="M380.5 720.5q35.5 -21.5 35.5 -60.5q0 -31 -20 -50.5t-45 -19.5q-27 0 -37 13q21 26 21 57q0 46 -55 46q-35 0 -53.5 -23t-25.5 -58t-10 -89l-1 -27h52q17 0 44 1t44 2l-3 -24q-1 -12 -7.5 -18.5t-17.5 -6.5h-115l-26 -498q-1 -11 -1 -35q0 -49 9 -77q-26 -20 -53 -20
q-24 0 -37 13t-12 36l29 581h-13q-40 0 -60 -3l2 25q1 12 8.5 18t17.5 6h48l2 43q4 83 45.5 136.5t136.5 53.5q62 0 97.5 -21.5z" />
    <glyph glyph-name="Ohorn" unicode="&#x1a0;" horiz-adv-x="654" 
d="M583.5 664q-22.5 -24 -60.5 -40q74 -92 74 -277q0 -180 -69 -270t-201 -90q-133 0 -201.5 90t-68.5 270t69 270t201 90q103 0 167 -54q41 19 41 55q0 13 -5.5 27t-15.5 25q12 8 32.5 18t33.5 13q11 -12 18.5 -32.5t7.5 -40.5q0 -30 -22.5 -54zM454 104q42 78 42 243
t-42 243t-127 78q-84 0 -126.5 -78t-42.5 -243t42.5 -243t126.5 -78q85 0 127 78z" />
    <glyph glyph-name="ohorn" unicode="&#x1a1;" horiz-adv-x="550" 
d="M508 488.5q-22 -23.5 -59 -39.5q58 -70 58 -195q0 -126 -61 -196.5t-171 -70.5t-171.5 70.5t-61.5 196.5q0 127 61.5 198t171.5 71q87 0 144 -45q40 19 40 54q0 13 -5.5 27t-15.5 25q12 8 32.5 18t33.5 13q11 -12 18.5 -32.5t7.5 -40.5q0 -30 -22 -53.5zM375.5 84
q34.5 59 34.5 170q0 113 -34.5 172t-100.5 59q-67 0 -101.5 -59t-34.5 -172q0 -111 34.5 -170t101.5 -59q66 0 100.5 59z" />
    <glyph glyph-name="Uhorn" unicode="&#x1af;" horiz-adv-x="661" 
d="M568 686q10 -13 10 -31v-349q0 -158 -62 -238.5t-186 -80.5q-122 0 -181.5 77.5t-59.5 241.5v266q0 74 -14 112q22 20 53 20q23 0 37.5 -13t14.5 -36v-353q0 -144 36 -210t114 -66q158 0 158 276v270q0 74 -14 112q17 14 38 19q51 20 51 59q0 13 -5.5 27t-15.5 25
q12 8 32.5 18t33.5 13q11 -12 18.5 -32.5t7.5 -40.5q0 -52 -66 -86z" />
    <glyph glyph-name="uhorn" unicode="&#x1b0;" horiz-adv-x="570" 
d="M546 40q0 -23 -16.5 -36.5t-46.5 -13.5q-40 0 -61.5 27t-21.5 80v13q-20 -59 -63.5 -91.5t-103.5 -32.5q-82 0 -119.5 48t-37.5 161v196q0 70 -14 111q25 21 52 21q23 0 37.5 -13.5t14.5 -36.5v-266q0 -94 21 -133.5t73 -39.5q34 0 63.5 25t48.5 78t19 134
q0 125 -2 163.5t-13 68.5q23 20 52 20q22 0 37 -14.5t15 -39.5l1 -359q0 -28 6.5 -39.5t20.5 -11.5q19 0 27 14q11 -15 11 -33zM520 516q55 20 55 61q0 13 -5.5 27t-15.5 25q12 8 32.5 18t33.5 13q11 -12 18.5 -32.5t7.5 -40.5q0 -36 -30.5 -62.5t-81.5 -42.5z" />
    <glyph glyph-name="uni01CD" unicode="&#x1cd;" horiz-adv-x="599" 
d="M591 10q-19 -21 -54 -21q-22 0 -37.5 9.5t-19.5 26.5l-57 192h-255l-46 -159q-6 -24 -6 -35q0 -17 7 -25q-25 -9 -50 -9q-27 0 -39.5 9.5t-12.5 30.5q0 17 11 50l208 614q36 14 76 14q44 0 53 -32l196 -615q10 -33 26 -50zM407 270l-113 378l-110 -378h223zM302 740
q-15 0 -27 4l-129 118q1 4 8.5 12t12.5 11l135 -79l135 79q5 -3 12 -11t8 -12l-128 -118q-12 -4 -27 -4z" />
    <glyph glyph-name="uni01CE" unicode="&#x1ce;" horiz-adv-x="553" 
d="M544 45q0 -23 -21.5 -39t-52.5 -16q-46 0 -69 32t-23 100v16q-31 -68 -86 -108.5t-123 -40.5q-58 0 -92 31.5t-34 84.5q0 60 46 101.5t121 62.5q80 21 163 18v25q0 89 -27.5 131t-91.5 42q-41 0 -69 -19t-28 -61q0 -22 10.5 -42.5t31.5 -28.5q-18 -21 -53 -21
q-36 0 -58 26.5t-22 62.5q0 58 52.5 89.5t143.5 31.5q105 0 154.5 -52t49.5 -164v-194q0 -53 35 -53q8 0 17 5t15 14q11 -16 11 -34zM284 79.5q39 28.5 65 75t27 98.5q-37 2 -78 -3.5t-69 -17.5q-42 -16 -64.5 -43t-22.5 -64q0 -32 16 -53t50 -21q37 0 76 28.5zM265 637
l115 87q7 0 19 -4t14 -8l-121 -142q-9 -3 -28 -3q-18 0 -27 3l-121 142q1 4 13.5 8t19.5 4z" />
    <glyph glyph-name="uni01CF" unicode="&#x1cf;" horiz-adv-x="279" 
d="M108.5 1.5q-14.5 13.5 -14.5 36.5v534q0 70 -14 112q8 8 21.5 14t30.5 6q24 0 39 -13t15 -36v-535q0 -74 14 -111q-24 -21 -53 -21q-24 0 -38.5 13.5zM130 740q-15 0 -27 4l-129 118q1 4 8.5 12t12.5 11l135 -79l135 79q5 -3 12 -11t8 -12l-128 -118q-12 -4 -27 -4z" />
    <glyph glyph-name="uni01D0" unicode="&#x1d0;" horiz-adv-x="249" 
d="M184 9q-21 -21 -52 -21q-22 0 -36.5 13.5t-14.5 36.5l-1 353q0 75 -14 112q26 20 51 20q24 0 38 -13t14 -36l1 -354q0 -74 14 -111zM117 637l115 87q7 0 19 -4t14 -8l-121 -142q-9 -3 -28 -3q-18 0 -27 3l-121 142q1 4 13.5 8t19.5 4z" />
    <glyph glyph-name="uni01D1" unicode="&#x1d1;" horiz-adv-x="654" 
d="M125.5 77q-68.5 90 -68.5 270t69 270t201 90t201 -90t69 -270t-69 -270t-201 -90q-133 0 -201.5 90zM454 104q42 78 42 243t-42 243t-127 78q-84 0 -126.5 -78t-42.5 -243t42.5 -243t126.5 -78q85 0 127 78zM327 740q-15 0 -27 4l-129 118q1 4 8.5 12t12.5 11l135 -79
l135 79q5 -3 12 -11t8 -12l-128 -118q-12 -4 -27 -4z" />
    <glyph glyph-name="uni01D2" unicode="&#x1d2;" horiz-adv-x="550" 
d="M103.5 57.5q-61.5 70.5 -61.5 196.5q0 127 61.5 198t171.5 71t171 -71t61 -198q0 -126 -61 -196.5t-171 -70.5t-171.5 70.5zM375.5 84q34.5 59 34.5 170q0 113 -34.5 172t-100.5 59q-67 0 -101.5 -59t-34.5 -172q0 -111 34.5 -170t101.5 -59q66 0 100.5 59zM275 637
l115 87q7 0 19 -4t14 -8l-121 -142q-9 -3 -28 -3q-18 0 -27 3l-121 142q1 4 13.5 8t19.5 4z" />
    <glyph glyph-name="uni01D3" unicode="&#x1d3;" horiz-adv-x="661" 
d="M578 306q0 -158 -62 -238.5t-186 -80.5q-122 0 -181.5 77.5t-59.5 241.5v266q0 74 -14 112q22 20 53 20q23 0 37.5 -13t14.5 -36v-353q0 -144 36 -210t114 -66q158 0 158 276v270q0 74 -14 112q23 20 53 20q22 0 36.5 -13t14.5 -36v-349zM330 740q-15 0 -27 4l-129 118
q1 4 8.5 12t12.5 11l135 -79l135 79q5 -3 12 -11t8 -12l-128 -118q-12 -4 -27 -4z" />
    <glyph glyph-name="uni01D4" unicode="&#x1d4;" horiz-adv-x="570" 
d="M546 40q0 -23 -16.5 -36.5t-46.5 -13.5q-40 0 -61.5 27t-21.5 80v13q-20 -59 -63.5 -91.5t-103.5 -32.5q-82 0 -119.5 48t-37.5 161v196q0 70 -14 111q25 21 52 21q23 0 37.5 -13.5t14.5 -36.5v-266q0 -94 21 -133.5t73 -39.5q34 0 63.5 25t48.5 78t19 134
q0 125 -2 163.5t-13 68.5q23 20 52 20q22 0 37 -14.5t15 -39.5l1 -359q0 -28 6.5 -39.5t20.5 -11.5q19 0 27 14q11 -15 11 -33zM269 637l115 87q7 0 19 -4t14 -8l-121 -142q-9 -3 -28 -3q-18 0 -27 3l-121 142q1 4 13.5 8t19.5 4z" />
    <glyph glyph-name="uni01D5" unicode="&#x1d5;" horiz-adv-x="661" 
d="M578 306q0 -158 -62 -238.5t-186 -80.5q-122 0 -181.5 77.5t-59.5 241.5v266q0 74 -14 112q22 20 53 20q23 0 37.5 -13t14.5 -36v-353q0 -144 36 -210t114 -66q158 0 158 276v270q0 74 -14 112q23 20 53 20q22 0 36.5 -13t14.5 -36v-349zM198 774q-16 16 -16 39t16 39
t38 16t38.5 -16t16.5 -39q0 -22 -16.5 -38.5t-38.5 -16.5t-38 16zM389 774q-16 16 -16 39t16 39t38 16t38.5 -16t16.5 -39q0 -22 -16.5 -38.5t-38.5 -16.5t-38 16zM462 964q4 -11 4 -23q0 -13 -4 -24h-262q-4 11 -4 24q0 12 4 23h262z" />
    <glyph glyph-name="uni01D6" unicode="&#x1d6;" horiz-adv-x="570" 
d="M546 40q0 -23 -16.5 -36.5t-46.5 -13.5q-40 0 -61.5 27t-21.5 80v13q-20 -59 -63.5 -91.5t-103.5 -32.5q-82 0 -119.5 48t-37.5 161v196q0 70 -14 111q25 21 52 21q23 0 37.5 -13.5t14.5 -36.5v-266q0 -94 21 -133.5t73 -39.5q34 0 63.5 25t48.5 78t19 134
q0 125 -2 163.5t-13 68.5q23 20 52 20q22 0 37 -14.5t15 -39.5l1 -359q0 -28 6.5 -39.5t20.5 -11.5q19 0 27 14q11 -15 11 -33zM147 601q-15 15 -15 35t15 34.5t36 14.5q20 0 34.5 -14.5t14.5 -34.5t-14.5 -35t-34.5 -15q-21 0 -36 15zM325 601q-15 15 -15 35t15 34.5
t35 14.5t35 -14.5t15 -34.5t-15 -35t-35 -15t-35 15zM401 790q4 -11 4 -24q0 -12 -4 -23h-262q-4 11 -4 23q0 13 4 24h262z" />
    <glyph glyph-name="uni01D7" unicode="&#x1d7;" horiz-adv-x="661" 
d="M578 306q0 -158 -62 -238.5t-186 -80.5q-122 0 -181.5 77.5t-59.5 241.5v266q0 74 -14 112q22 20 53 20q23 0 37.5 -13t14.5 -36v-353q0 -144 36 -210t114 -66q158 0 158 276v270q0 74 -14 112q23 20 53 20q22 0 36.5 -13t14.5 -36v-349zM198 774q-16 16 -16 39t16 39
t38 16t38.5 -16t16.5 -39q0 -22 -16.5 -38.5t-38.5 -16.5t-38 16zM389 774q-16 16 -16 39t16 39t38 16t38.5 -16t16.5 -39q0 -22 -16.5 -38.5t-38.5 -16.5t-38 16zM301 882q-6 2 -12 11t-6 13l138 118q15 -7 33 -25t25 -36z" />
    <glyph glyph-name="uni01D8" unicode="&#x1d8;" horiz-adv-x="570" 
d="M546 40q0 -23 -16.5 -36.5t-46.5 -13.5q-40 0 -61.5 27t-21.5 80v13q-20 -59 -63.5 -91.5t-103.5 -32.5q-82 0 -119.5 48t-37.5 161v196q0 70 -14 111q25 21 52 21q23 0 37.5 -13.5t14.5 -36.5v-266q0 -94 21 -133.5t73 -39.5q34 0 63.5 25t48.5 78t19 134
q0 125 -2 163.5t-13 68.5q23 20 52 20q22 0 37 -14.5t15 -39.5l1 -359q0 -28 6.5 -39.5t20.5 -11.5q19 0 27 14q11 -15 11 -33zM147 601q-15 15 -15 35t15 34.5t36 14.5q20 0 34.5 -14.5t14.5 -34.5t-14.5 -35t-34.5 -15q-21 0 -36 15zM325 601q-15 15 -15 35t15 34.5
t35 14.5t35 -14.5t15 -34.5t-15 -35t-35 -15t-35 15zM275 708q-10 0 -22 2t-16 5l91 151q19 2 48 -5t39 -15z" />
    <glyph glyph-name="uni01D9" unicode="&#x1d9;" horiz-adv-x="661" 
d="M578 306q0 -158 -62 -238.5t-186 -80.5q-122 0 -181.5 77.5t-59.5 241.5v266q0 74 -14 112q22 20 53 20q23 0 37.5 -13t14.5 -36v-353q0 -144 36 -210t114 -66q158 0 158 276v270q0 74 -14 112q23 20 53 20q22 0 36.5 -13t14.5 -36v-349zM198 774q-16 16 -16 39t16 39
t38 16t38.5 -16t16.5 -39q0 -22 -16.5 -38.5t-38.5 -16.5t-38 16zM389 774q-16 16 -16 39t16 39t38 16t38.5 -16t16.5 -39q0 -22 -16.5 -38.5t-38.5 -16.5t-38 16zM330 883q-15 0 -27 4l-129 118q1 4 8.5 12t12.5 11l135 -79l135 79q5 -3 12 -11t8 -12l-128 -118
q-12 -4 -27 -4z" />
    <glyph glyph-name="uni01DA" unicode="&#x1da;" horiz-adv-x="570" 
d="M546 40q0 -23 -16.5 -36.5t-46.5 -13.5q-40 0 -61.5 27t-21.5 80v13q-20 -59 -63.5 -91.5t-103.5 -32.5q-82 0 -119.5 48t-37.5 161v196q0 70 -14 111q25 21 52 21q23 0 37.5 -13.5t14.5 -36.5v-266q0 -94 21 -133.5t73 -39.5q34 0 63.5 25t48.5 78t19 134
q0 125 -2 163.5t-13 68.5q23 20 52 20q22 0 37 -14.5t15 -39.5l1 -359q0 -28 6.5 -39.5t20.5 -11.5q19 0 27 14q11 -15 11 -33zM147 601q-15 15 -15 35t15 34.5t36 14.5q20 0 34.5 -14.5t14.5 -34.5t-14.5 -35t-34.5 -15q-21 0 -36 15zM325 601q-15 15 -15 35t15 34.5
t35 14.5t35 -14.5t15 -34.5t-15 -35t-35 -15t-35 15zM269 780l115 87q7 0 19 -4t14 -8l-121 -142q-9 -3 -28 -3q-18 0 -27 3l-121 142q1 4 13.5 8t19.5 4z" />
    <glyph glyph-name="uni01DB" unicode="&#x1db;" horiz-adv-x="661" 
d="M578 306q0 -158 -62 -238.5t-186 -80.5q-122 0 -181.5 77.5t-59.5 241.5v266q0 74 -14 112q22 20 53 20q23 0 37.5 -13t14.5 -36v-353q0 -144 36 -210t114 -66q158 0 158 276v270q0 74 -14 112q23 20 53 20q22 0 36.5 -13t14.5 -36v-349zM198 774q-16 16 -16 39t16 39
t38 16t38.5 -16t16.5 -39q0 -22 -16.5 -38.5t-38.5 -16.5t-38 16zM389 774q-16 16 -16 39t16 39t38 16t38.5 -16t16.5 -39q0 -22 -16.5 -38.5t-38.5 -16.5t-38 16zM204 999q18 18 33 25l138 -118q0 -4 -6 -13t-12 -11l-178 81q7 18 25 36z" />
    <glyph glyph-name="uni01DC" unicode="&#x1dc;" horiz-adv-x="570" 
d="M546 40q0 -23 -16.5 -36.5t-46.5 -13.5q-40 0 -61.5 27t-21.5 80v13q-20 -59 -63.5 -91.5t-103.5 -32.5q-82 0 -119.5 48t-37.5 161v196q0 70 -14 111q25 21 52 21q23 0 37.5 -13.5t14.5 -36.5v-266q0 -94 21 -133.5t73 -39.5q34 0 63.5 25t48.5 78t19 134
q0 125 -2 163.5t-13 68.5q23 20 52 20q22 0 37 -14.5t15 -39.5l1 -359q0 -28 6.5 -39.5t20.5 -11.5q19 0 27 14q11 -15 11 -33zM147 601q-15 15 -15 35t15 34.5t36 14.5q20 0 34.5 -14.5t14.5 -34.5t-14.5 -35t-34.5 -15q-21 0 -36 15zM325 601q-15 15 -15 35t15 34.5
t35 14.5t35 -14.5t15 -34.5t-15 -35t-35 -15t-35 15zM161.5 861q29.5 7 48.5 5l91 -151q-4 -3 -16 -5t-22 -2l-140 138q9 8 38.5 15z" />
    <glyph glyph-name="Gcaron" unicode="&#x1e6;" horiz-adv-x="631" 
d="M130 79.5q-73 92.5 -73 266.5t74 267.5t210 93.5q51 0 97.5 -13.5t74.5 -37.5t28 -52q0 -23 -20 -38.5t-54 -14.5q-7 57 -40 87t-84 30q-185 0 -185 -321t184 -321q81 0 111 59t30 136q0 118 -71 137q5 16 21 24t38 8q46 0 76 -36.5t30 -113.5q0 -71 -27 -128.5t-81 -91
t-131 -33.5q-135 0 -208 92.5zM334 740q-15 0 -27 4l-129 118q1 4 8.5 12t12.5 11l135 -79l135 79q5 -3 12 -11t8 -12l-128 -118q-12 -4 -27 -4z" />
    <glyph glyph-name="gcaron" unicode="&#x1e7;" horiz-adv-x="539" 
d="M95.5 -201q-49.5 30 -49.5 89q0 34 19.5 55t48.5 21q32 0 44 -17q-28 -22 -28 -62q0 -39 25 -60t68 -21q80 0 119.5 61t39.5 176v70q-18 -55 -60 -84.5t-103 -29.5q-85 0 -131 60.5t-46 190.5q0 118 52.5 196.5t179.5 78.5q57 0 110.5 -16t87.5 -50v-412
q0 -276 -252 -276q-75 0 -124.5 30zM347.5 103q33.5 59 33.5 145l1 202q-16 17 -45 26t-63 9q-79 0 -107.5 -66.5t-28.5 -179.5q0 -104 25.5 -149.5t80.5 -45.5q70 0 103.5 59zM277 640l115 87q7 0 19 -4t14 -8l-121 -142q-9 -3 -28 -3q-18 0 -27 3l-121 142q1 4 13.5 8
t19.5 4z" />
    <glyph glyph-name="Scommaaccent" unicode="&#x218;" horiz-adv-x="557" 
d="M105 27.5q-57 41.5 -57 105.5q0 62 60 62q5 0 21 -2q-3 -12 -3 -27q0 -11 1 -17q4 -55 45.5 -89t112.5 -34q62 0 100 30.5t38 87.5q0 37 -17 65t-49 51.5t-89 55.5q-70 39 -109.5 68t-62.5 66.5t-23 89.5q0 84 61 125.5t156 41.5q91 0 146.5 -32.5t55.5 -89.5
q0 -46 -46 -50q-4 -1 -14 -1q-12 0 -18 2q1 5 1 16q0 16 -3 29q-5 41 -40.5 64t-91.5 23q-50 0 -85.5 -23t-35.5 -75q0 -37 17.5 -64.5t50 -50.5t91.5 -56q62 -33 103.5 -63t66.5 -71t25 -94q0 -50 -24.5 -92t-78.5 -67.5t-136 -25.5q-112 0 -169 41.5zM242 -219
q32 37 32 69q0 27 -14 39t-36 18q0 23 17 41t44 18q25 0 43 -17.5t18 -56.5q0 -68 -71 -131q-19 4 -33 20z" />
    <glyph glyph-name="scommaaccent" unicode="&#x219;" horiz-adv-x="470" 
d="M83 20q-47 33 -47 87q0 26 13.5 43t42.5 17q5 0 17 -2q-3 -13 -3 -25t1 -19q3 -43 36 -68.5t90 -25.5q53 0 85.5 19.5t32.5 55.5q0 25 -13.5 42.5t-34 29.5t-57.5 29l-31 14q-55 26 -85 44.5t-52 50.5t-22 79q0 67 51.5 100t131.5 33q83 0 130 -26t47 -74
q0 -20 -10.5 -33.5t-32.5 -15.5q-5 -1 -14 -1q-10 0 -16 2q1 5 1 18q0 16 -4 27q-4 31 -31.5 47.5t-72.5 16.5q-42 0 -69.5 -16t-27.5 -50q0 -29 16.5 -50t39.5 -34.5t71 -36.5l19 -9q50 -24 79.5 -42t50.5 -46t21 -68q0 -60 -50.5 -103t-161.5 -43q-94 0 -141 33zM198 -219
q32 37 32 69q0 27 -14 39t-36 18q0 23 17 41t44 18q25 0 43 -17.5t18 -56.5q0 -68 -71 -131q-19 4 -33 20z" />
    <glyph glyph-name="uni021A" unicode="&#x21a;" horiz-adv-x="533" 
d="M518 669q0 -17 -7.5 -33.5t-18.5 -21.5l-23 6q-50 14 -85.5 22t-71.5 11l1 -533q0 -74 14 -111q-8 -8 -21.5 -14.5t-30.5 -6.5q-24 0 -38.5 13.5t-14.5 36.5l-1 616q-66 -7 -179 -40q-11 5 -18.5 21.5t-7.5 33.5q0 11 4 18t12 7h471q15 0 15 -25zM242 -219q32 37 32 69
q0 27 -14 39t-36 18q0 23 17 41t44 18q25 0 43 -17.5t18 -56.5q0 -68 -71 -131q-19 4 -33 20z" />
    <glyph glyph-name="uni021B" unicode="&#x21b;" horiz-adv-x="342" 
d="M262 510q29 1 46 2l-1 -24q-1 -12 -8 -18.5t-17 -6.5h-99v-36l-1 -314q0 -54 48 -54q14 0 27.5 5t17.5 14q12 -16 12 -34q0 -25 -25 -40t-65 -15q-49 0 -77 31t-28 86v357h-15q-40 0 -60 -3l1 25q1 12 8 18t18 6h48v84q0 23 14.5 36t38.5 13q28 0 51 -20
q-11 -38 -12 -113h32q17 0 46 1zM153 -219q32 37 32 69q0 27 -14 39t-36 18q0 23 17 41t44 18q25 0 43 -17.5t18 -56.5q0 -68 -71 -131q-19 4 -33 20z" />
    <glyph glyph-name="uni0237" unicode="&#x237;" horiz-adv-x="253" 
d="M-57.5 -209q-28.5 22 -28.5 59q0 21 13 36.5t38 15.5q10 0 17 -4t12 -13q-10 -17 -10 -36q0 -24 13 -34t32 -10q38 0 50.5 41.5t12.5 122.5l1 422q0 70 -14 111q21 21 51 21q23 0 37 -13t14 -37l1 -519q0 -80 -36 -132.5t-120 -52.5q-55 0 -83.5 22z" />
    <glyph glyph-name="uni0251" unicode="&#x251;" horiz-adv-x="571" 
d="M546 42q0 -22 -19 -36t-48 -14q-85 0 -88 131q-23 -65 -67.5 -100.5t-108.5 -35.5q-94 0 -133.5 70.5t-39.5 174.5q0 138 54.5 213.5t157.5 75.5q50 0 84 -18.5t49 -53.5q5 25 5 62q11 11 30 11q26 0 40.5 -13.5t14.5 -36.5l-1 -359q0 -52 32 -52q19 0 27 15
q11 -16 11 -34zM318 77q33 36 50.5 96.5t17.5 131.5q0 72 -23.5 118.5t-89.5 46.5q-134 0 -134 -235q0 -90 21 -142t80 -52q45 0 78 36z" />
    <glyph glyph-name="uni0259" unicode="&#x259;" horiz-adv-x="518" 
d="M412.5 454q63.5 -69 63.5 -198q0 -126 -63 -197.5t-179 -71.5q-84 0 -135 37.5t-51 107.5q0 74 59 113t165 39q64 0 106 -6q-12 184 -163 184q-54 0 -94 -22.5t-55 -62.5q-15 8 -15 24q0 13 7 28q19 45 66.5 69.5t113.5 24.5q111 0 174.5 -69zM340.5 80q37.5 56 38.5 161
q-20 2 -66 4q-77 0 -123 -27.5t-46 -98.5q0 -52 27 -73.5t67 -21.5q65 0 102.5 56z" />
    <glyph glyph-name="uni0261" unicode="&#x261;" horiz-adv-x="539" 
d="M95.5 -201q-49.5 30 -49.5 89q0 34 19.5 55t48.5 21q32 0 44 -17q-28 -22 -28 -62q0 -39 25 -60t68 -21q80 0 119.5 61t39.5 176v70q-18 -55 -60 -84.5t-103 -29.5q-85 0 -131 60.5t-46 190.5q0 118 52.5 196.5t179.5 78.5q57 0 110.5 -16t87.5 -50v-412
q0 -276 -252 -276q-75 0 -124.5 30zM347.5 103q33.5 59 33.5 145l1 202q-16 17 -45 26t-63 9q-79 0 -107.5 -66.5t-28.5 -179.5q0 -104 25.5 -149.5t80.5 -45.5q70 0 103.5 59z" />
    <glyph glyph-name="uni02BC" unicode="&#x2bc;" horiz-adv-x="600" 
d="M208 530h42l22 159q-18 6 -41 6q-22 0 -43 -6z" />
    <glyph glyph-name="circumflex" unicode="&#x2c6;" horiz-adv-x="600" 
d="M164 567q-12 4 -13 8l121 141q9 3 29 3q17 0 26 -3l121 -141q-2 -4 -14 -8t-19 -4l-115 86l-116 -86q-8 0 -20 4z" />
    <glyph glyph-name="caron" unicode="&#x2c7;" horiz-adv-x="600" 
d="M300 637l115 87q7 0 19 -4t14 -8l-121 -142q-9 -3 -28 -3q-18 0 -27 3l-121 142q1 4 13.5 8t19.5 4z" />
    <glyph glyph-name="breve" unicode="&#x2d8;" horiz-adv-x="600" 
d="M407 710q17 -3 32 -11q-15 -58 -50.5 -93.5t-93.5 -35.5q-64 0 -100 37t-48 90q13 11 35 14q13 -35 42.5 -57t71.5 -22q76 0 111 78z" />
    <glyph glyph-name="dotaccent" unicode="&#x2d9;" horiz-adv-x="600" 
d="M259 590q-16 16 -16 38q0 23 16 39t39 16q22 0 38.5 -16t16.5 -39q0 -22 -16 -38t-39 -16t-39 16z" />
    <glyph glyph-name="ring" unicode="&#x2da;" horiz-adv-x="600" 
d="M368 702q25 -23 25 -60q-1 -39 -27 -62t-68 -23q-41 0 -66 22t-25 59q0 39 26.5 63t68.5 24q41 0 66 -23zM267 679.5q-12 -14.5 -12 -39.5t12 -39t33 -14t33 14t12 39t-12 39.5t-33 14.5t-33 -14.5z" />
    <glyph glyph-name="ogonek" unicode="&#x2db;" horiz-adv-x="600" 
d="M239.5 -151q-28.5 19 -28.5 58q0 45 37.5 74t95.5 45l8 -20q-39 -19 -58 -39.5t-19 -48.5q0 -21 12 -34.5t37 -13.5q29 0 50.5 16t34.5 39q12 -9 12 -18q0 -3 -2 -9q-13 -30 -43.5 -49t-71.5 -19q-36 0 -64.5 19z" />
    <glyph glyph-name="tilde" unicode="&#x2dc;" horiz-adv-x="600" 
d="M414 607.5q-21 -24.5 -54 -24.5q-17 0 -32 6t-33 18q-17 11 -30 17t-28 6q-44 0 -60 -42h-2q-5 0 -11.5 3t-10.5 7q6 45 30.5 66.5t57.5 21.5q18 0 32.5 -6t33.5 -19q20 -12 32 -17.5t28 -5.5q21 0 31.5 10.5t19.5 32.5q15 0 23 -8q-6 -41 -27 -65.5z" />
    <glyph glyph-name="hungarumlaut" unicode="&#x2dd;" horiz-adv-x="600" 
d="M166 546q-6 1 -14.5 8t-10.5 11l116 164q17 -2 36 -11.5t31 -24.5zM314 546q-5 2 -13 8.5t-12 10.5l116 164q17 -2 36 -11.5t31 -24.5z" />
    <glyph glyph-name="gravecomb" unicode="&#x300;" 
d="M-386.5 718q29.5 7 48.5 5l91 -151q-4 -3 -16 -5t-22 -2l-140 138q9 8 38.5 15z" />
    <glyph glyph-name="acutecomb" unicode="&#x301;" 
d="M-350 565q-10 0 -22 2t-16 5l91 151q19 2 48 -5t39 -15z" />
    <glyph glyph-name="uni0302" unicode="&#x302;" 
d="M-436 567q-12 4 -13 8l121 141q9 3 29 3q17 0 26 -3l121 -141q-2 -4 -13.5 -8t-19.5 -4l-115 86l-116 -86q-8 0 -20 4z" />
    <glyph glyph-name="tildecomb" unicode="&#x303;" 
d="M-186 607.5q-21 -24.5 -54 -24.5q-17 0 -32 6t-33 18q-17 11 -30 17t-28 6q-44 0 -60 -42h-2q-5 0 -11.5 3t-10.5 7q6 45 30.5 66.5t57.5 21.5q18 0 32.5 -6t33.5 -19q20 -12 32 -17.5t28 -5.5q21 0 31.5 10.5t19.5 32.5q15 0 23 -8q-6 -41 -27 -65.5z" />
    <glyph glyph-name="uni0304" unicode="&#x304;" 
d="M-189 647q4 -11 4 -24q0 -12 -4 -23h-262q-4 11 -4 23q0 13 4 24h262z" />
    <glyph glyph-name="uni0306" unicode="&#x306;" 
d="M-193 710q17 -3 32 -11q-15 -58 -50.5 -93.5t-93.5 -35.5q-64 0 -100 37t-48 90q13 11 35 14q13 -35 42.5 -57t71.5 -22q76 0 111 78z" />
    <glyph glyph-name="uni0307" unicode="&#x307;" 
d="M-341 590q-16 16 -16 38q0 23 16 39t39 16q22 0 38.5 -16t16.5 -39q0 -22 -16 -38t-39 -16t-39 16z" />
    <glyph glyph-name="uni0308" unicode="&#x308;" 
d="M-432 601q-15 15 -15 35t15 34.5t36 14.5q20 0 34.5 -14.5t14.5 -34.5t-14.5 -35t-34.5 -15q-21 0 -36 15zM-254 601q-15 15 -15 35t15 34.5t35 14.5t35 -14.5t15 -34.5t-15 -35t-35 -15t-35 15z" />
    <glyph glyph-name="hookabovecomb" unicode="&#x309;" 
d="M-419 584q28 9 39 17.5t11 22.5q0 17 -21 23t-47 6l-2 39q54 2 94 -12t40 -52q0 -29 -25 -47t-81 -26z" />
    <glyph glyph-name="uni030A" unicode="&#x30a;" 
d="M-232 702q25 -23 25 -60q-1 -39 -27 -62t-68 -23q-41 0 -66 22t-25 59q0 39 26.5 63t68.5 24q41 0 66 -23zM-333 679.5q-12 -14.5 -12 -39.5t12 -39t33 -14t33 14t12 39t-12 39.5t-33 14.5t-33 -14.5z" />
    <glyph glyph-name="uni030B" unicode="&#x30b;" 
d="M-434 546q-6 1 -14.5 8t-10.5 11l116 164q17 -2 36 -11.5t31 -24.5zM-286 546q-5 2 -13 8.5t-12 10.5l116 164q17 -2 36 -11.5t31 -24.5z" />
    <glyph glyph-name="uni030C" unicode="&#x30c;" 
d="M-300 637l115 87q7 0 19 -4t14 -8l-121 -142q-9 -3 -28 -3q-18 0 -27 3l-121 142q1 4 13.5 8t19.5 4z" />
    <glyph glyph-name="uni031B" unicode="&#x31b;" 
d="M-435 516q55 20 55 61q0 13 -5.5 27t-15.5 25q12 8 32.5 18t33.5 13q11 -12 18.5 -32.5t7.5 -40.5q0 -36 -30.5 -62.5t-81.5 -42.5z" />
    <glyph glyph-name="dotbelowcomb" unicode="&#x323;" 
d="M-342 -139q-17 17 -17 41q0 25 17 42t42 17q24 0 41 -17t17 -42q0 -24 -17 -41t-41 -17q-25 0 -42 17z" />
    <glyph glyph-name="uni0324" unicode="&#x324;" 
d="M-439 -162q-17 17 -17 41t17 41.5t42 17.5q24 0 41 -17.5t17 -41.5t-17 -41t-41 -17q-25 0 -42 17zM-244 -162q-17 17 -17 41t17 41.5t42 17.5q24 0 41 -17.5t17 -41.5t-17 -41t-41 -17q-25 0 -42 17z" />
    <glyph glyph-name="uni0326" unicode="&#x326;" 
d="M-340 -219q32 37 32 69q0 27 -14 39t-36 18q0 23 17 41t44 18q25 0 43 -17.5t18 -56.5q0 -68 -71 -131q-19 4 -33 20z" />
    <glyph glyph-name="uni0327" unicode="&#x327;" 
d="M-304 -50q46 1 72 -18.5t26 -54.5q0 -39 -29.5 -63t-78.5 -24q-61 0 -91 32q-1 7 3 18.5t9 14.5q2 -1 9.5 -7.5t21 -11t29.5 -4.5q23 0 35.5 11.5t12.5 32.5q0 20 -13 33t-42 13l-14 -1l17 89h44z" />
    <glyph glyph-name="uni0328" unicode="&#x328;" 
d="M-360.5 -151q-28.5 19 -28.5 58q0 45 37.5 74t95.5 45l8 -20q-39 -19 -58 -39.5t-19 -48.5q0 -21 12 -34.5t37 -13.5q29 0 50.5 16t34.5 39q12 -9 12 -18q0 -3 -2 -9q-13 -30 -43.5 -49t-71.5 -19q-36 0 -64.5 19z" />
    <glyph glyph-name="uni032E" unicode="&#x32e;" 
d="M-228.5 -112.5q26.5 21.5 37.5 54.5l32 -5q-11 -54 -47.5 -89.5t-95.5 -35.5q-62 0 -97 37t-43 86l35 9q9 -34 38 -56t72 -22q42 0 68.5 21.5z" />
    <glyph glyph-name="uni0331" unicode="&#x331;" 
d="M-169 -65q4 -14 4 -21t-4 -21h-262q-5 12 -5 21t5 21h262z" />
    <glyph glyph-name="uni03A9" unicode="&#x3a9;" horiz-adv-x="652" 
d="M628 42q0 -17 -9.5 -29.5t-22.5 -12.5h-232v22q65 34 98 127t33 237q0 145 -42.5 213.5t-126.5 68.5t-126.5 -68.5t-42.5 -213.5q0 -138 36 -233t95 -131v-22h-232q-13 0 -22.5 12.5t-9.5 29.5q0 19 11 34l190 -40q-75 41 -122 137.5t-47 212.5q0 160 69 240.5t201 80.5
t201 -80.5t69 -240.5q0 -118 -43.5 -213t-119.5 -136l184 39q11 -15 11 -34z" />
    <glyph glyph-name="pi" unicode="&#x3c0;" horiz-adv-x="606" 
d="M480.5 510q69.5 1 105.5 2l-1 -24q-1 -12 -7.5 -18.5t-17.5 -6.5h-72l-1 -350q0 -53 38 -53q11 0 21 5t15 14q11 -16 11 -34q0 -24 -22 -39.5t-52 -15.5q-48 0 -74.5 31t-26.5 86v356h-212l1 -343q0 -74 14 -111q-24 -21 -52 -21q-22 0 -36.5 13.5t-14.5 36.5l-1 425h-15
q-41 0 -60 -3l1 25q1 12 7.5 18t17.5 6h328q36 0 105.5 1z" />
    <glyph glyph-name="uni0964" unicode="&#x964;" horiz-adv-x="258" 
d="M86 730h85v-862l-85 -10v872z" />
    <glyph glyph-name="uni0965" unicode="&#x965;" horiz-adv-x="470" 
d="M298 730h85v-862l-85 -10v872zM86 730h85v-862l-85 -10v872z" />
    <glyph glyph-name="uni0B82" unicode="&#xb82;" 
d="M-76.5 655q-28.5 28 -28.5 73t28.5 73t76.5 28t76.5 -28t28.5 -73t-28.5 -73t-76.5 -28t-76.5 28zM46 681.5q17 17.5 17 46.5t-17 47t-46 18t-46 -18t-17 -47q0 -28 17.5 -46t45.5 -18q29 0 46 17.5z" />
    <glyph glyph-name="uni0B83" unicode="&#xb83;" horiz-adv-x="732" 
d="M262 322.5q-38 37.5 -38 99.5q0 60 38 95.5t104 35.5q68 0 106 -35.5t38 -95.5q0 -62 -38.5 -99.5t-105.5 -37.5q-66 0 -104 37.5zM418 343.5q18 28.5 18 78.5q0 48 -18 74.5t-52 26.5q-33 0 -51 -26.5t-18 -74.5q0 -50 18 -78.5t51 -28.5q34 0 52 28.5zM82 21
q-38 36 -38 97t38 97.5t105 36.5t105 -36.5t38 -97.5t-38 -97t-105 -36t-105 36zM439 21q-38 36 -38 97q0 62 38 98t105 36t105 -36.5t38 -97.5t-38 -97t-105 -36t-105 36zM239 41.5q18 27.5 18 76.5t-18 77t-52 28q-33 0 -51 -28t-18 -77t18 -76.5t51 -27.5q34 0 52 27.5z
M596 41.5q18 27.5 18 76.5t-18.5 77t-51.5 28t-51 -28t-18 -77t18 -76.5t51 -27.5q34 0 52 27.5z" />
    <glyph glyph-name="uni0B85" unicode="&#xb85;" horiz-adv-x="1077" 
d="M976 -11q0 -45 2 -58t9 -16q-21 -20 -55 -20q-27 0 -39 17.5t-12 61.5v175h-142q-51 -110 -171 -166t-269 -56q-130 0 -199.5 41t-69.5 108q0 112 209 112h417q15 45 15 101q0 105 -45.5 159.5t-124.5 54.5q-44 0 -79 -18t-52 -53q25 26 70 26q50 0 80.5 -28.5
t30.5 -75.5q0 -51 -34 -81.5t-88 -30.5q-59 0 -87 36t-28 90q0 53 26 95t75.5 66t117.5 24q101 0 169 -59.5t68 -196.5q0 -56 -16 -109h127v164q0 72 -2 106.5t-12 68.5q7 7 22 15t33 8q24 0 39 -14.5t15 -40.5v-400v-106zM371.5 402.5q-16.5 -20.5 -16.5 -53.5
q0 -32 16 -52.5t46 -20.5q31 0 48 22.5t17 52.5t-16.5 51t-46.5 21q-31 0 -47.5 -20.5zM496.5 17q98.5 40 144.5 132h-381q-88 0 -130.5 -18t-42.5 -57q0 -46 55.5 -71.5t144.5 -25.5q111 0 209.5 40z" />
    <glyph glyph-name="uni0B86" unicode="&#xb86;" horiz-adv-x="1232" 
d="M1171.5 134.5q27.5 -44.5 27.5 -119.5q0 -124 -90.5 -218t-235.5 -144t-305 -50q-110 0 -178 21.5t-97.5 55.5t-29.5 73q0 69 73.5 104.5t172.5 35.5q56 0 94 -11t56 -27.5t18 -32.5q0 -33 -38 -43q-11 26 -42.5 45.5t-95.5 19.5q-69 0 -115 -25t-46 -68q0 -45 55.5 -74
t174.5 -29q132 0 253.5 40.5t199.5 122.5t78 200q0 46 -11 75t-37 29q-40 0 -65 -44t-26 -118q1 -11 3 -15t6 -5q-21 -20 -54 -20q-27 0 -39.5 17.5t-12.5 61.5v157h-130q-50 -111 -168 -166.5t-267 -55.5q-130 0 -200 41t-70 108q0 112 209 112h412q15 53 15 107
q0 101 -45.5 154.5t-123.5 53.5q-45 0 -80 -18t-52 -53q25 26 70 26q51 0 81 -28.5t30 -75.5q0 -51 -33.5 -81.5t-87.5 -30.5q-59 0 -87.5 36t-28.5 90q0 53 26.5 95t76 66t117.5 24q102 0 169 -61.5t67 -191.5q0 -58 -16 -112h115v164q0 74 -2 106.5t-12 68.5q28 23 55 23
q24 0 39.5 -14.5t15.5 -40.5v-397q20 37 53 59t76 22q55 0 82.5 -44.5zM367 402.5q-17 -20.5 -17 -53.5q0 -32 16.5 -52.5t46.5 -20.5q31 0 48 22.5t17 52.5t-16.5 51t-46.5 21q-31 0 -48 -20.5zM493 16q98 39 143 133h-376q-88 0 -130.5 -18t-42.5 -57q0 -46 55 -71.5
t145 -25.5q108 0 206 39z" />
    <glyph glyph-name="uni0B87" unicode="&#xb87;" horiz-adv-x="966" 
d="M719.5 653.5q88.5 -41.5 136.5 -123.5t48 -199q0 -66 -13 -118q-13 -46 -54 -46q-18 0 -43 11q11 42 18 77.5t7 81.5q0 102 -41 174t-110.5 108.5t-154.5 36.5t-151.5 -36t-103.5 -104t-37 -160q0 -95 39 -181q85 23 182 23q90 0 170 -20q23 63 23 132q0 96 -44 154
t-117 58q-19 0 -39 -6h15q42 0 72.5 -31t30.5 -79q0 -50 -34 -81t-87 -31q-54 0 -85.5 32t-31.5 82q0 45 25.5 78.5t67 51t89.5 17.5q57 0 109.5 -26t86 -80t33.5 -133q0 -80 -37 -164q74 -31 117 -79.5t43 -105.5q0 -55 -42.5 -91.5t-136.5 -36.5q-115 0 -226 58
q-107 -58 -214 -58q-82 0 -134 35t-52 102q0 58 38.5 101.5t104.5 72.5q-52 99 -52 198q0 73 30 151t114 137t233 59q119 0 207.5 -41.5zM468.5 463.5q-17.5 20.5 -46.5 20.5t-47 -20.5t-18 -54.5t18 -54.5t47 -20.5t46.5 20t17.5 55q0 34 -17.5 54.5zM280 134
q60 -109 164 -181q47 35 85.5 81.5t64.5 100.5q-71 26 -151 26q-89 0 -163 -27zM399 -77q-112 70 -184 178q-34 -23 -53.5 -55.5t-19.5 -72.5q0 -48 30 -72t78 -24q71 0 149 46zM727.5 36q-23.5 37 -65.5 65q-65 -106 -172 -177q86 -47 160 -47q48 0 74.5 20.5t26.5 61.5
q0 40 -23.5 77z" />
    <glyph glyph-name="uni0B88" unicode="&#xb88;" horiz-adv-x="723" 
d="M692 523q0 -15 -9 -18.5t-28 -3.5h-170v-392q0 -40 3 -60.5t9 -39.5q-25 -17 -53 -17t-41 14.5t-13 51.5v443h-262v-501h-43v539h605q2 -6 2 -16zM293 288q14 -15 14 -35q0 -21 -14 -36t-35 -15q-19 0 -33.5 15.5t-14.5 36.5q0 20 14 34.5t34 14.5q21 0 35 -15z
M636.5 288q14.5 -15 14.5 -35q0 -21 -14 -36t-34 -15q-21 0 -35.5 15t-14.5 36q0 20 14.5 35t35.5 15q19 0 33.5 -15z" />
    <glyph glyph-name="uni0B89" unicode="&#xb89;" horiz-adv-x="967" 
d="M67 20.5q-27 20.5 -27 59.5q0 50 39.5 69t131.5 21q101 2 152.5 38t51.5 130q0 87 -41 126t-111 39q-54 0 -90.5 -19.5t-52.5 -53.5q23 23 66 23q51 0 80.5 -28.5t29.5 -73.5q0 -49 -32 -79t-89 -30q-58 0 -87 35.5t-29 89.5q0 52 27 94t78.5 67t123.5 25q93 0 159 -47
t66 -154q0 -108 -73 -163t-225 -58q-50 -1 -74 -4.5t-34.5 -14t-10.5 -31.5q0 -19 15 -31t61 -12l781 2v-38l-786 -2q-73 0 -100 20.5zM211.5 301q16.5 19 16.5 47q0 30 -15.5 50t-45.5 20q-29 0 -46 -19.5t-16 -50.5q0 -30 15.5 -48t43.5 -18q31 0 47.5 19z" />
    <glyph glyph-name="uni0B8A" unicode="&#xb8a;" horiz-adv-x="1450" 
d="M1429 40v-38l-1260 -2q-73 0 -100 20.5t-27 59.5q0 50 40 69t132 21q100 2 151.5 39t51.5 130q0 86 -41 125t-111 39q-54 0 -90.5 -19.5t-52.5 -53.5q24 23 66 23q51 0 81 -29t30 -73q0 -49 -32.5 -79t-89.5 -30q-58 0 -87 35.5t-29 89.5q0 52 27 94t78.5 67t123.5 25
q93 0 159 -46.5t66 -153.5q0 -108 -73 -163.5t-225 -58.5q-50 -1 -74 -4.5t-34.5 -14t-10.5 -31.5q0 -19 15 -31t61 -12zM642 151.5q-49 49.5 -49 161.5q0 124 60.5 182t160.5 58q77 -1 129.5 -36t68.5 -89q0 64 28 90t96 26h264l2 -12q0 -23 -38 -23h-42l1 -302
q1 -58 9 -83q-22 -14 -46 -14t-35 12t-11 44v343h-89q-41 0 -53 -17t-12 -66l1 -224q1 -34 2.5 -50t6.5 -28q-20 -14 -50 -14q-21 0 -30.5 12t-9.5 44v148q0 42 -19 88.5t-61.5 79.5t-109.5 33q-72 0 -123.5 -46t-51.5 -163q0 -81 24.5 -122t63.5 -49q-21 19 -29.5 47.5
t-8.5 57.5q0 62 30 97.5t83 35.5q56 0 87.5 -37t31.5 -97q0 -70 -41 -103.5t-106 -33.5q-85 0 -134 49.5zM123.5 398.5q-16.5 -19.5 -16.5 -50.5q1 -30 16 -48t43 -18q32 0 48 19t16 47q0 30 -15.5 50t-45.5 20q-29 0 -45.5 -19.5zM746.5 305.5q-14.5 -27.5 -14.5 -72.5
t14 -69.5t39 -24.5t39.5 25t14.5 73q0 42 -12.5 69t-39.5 27q-26 0 -40.5 -27.5z" />
    <glyph glyph-name="uni0B8E" unicode="&#xb8e;" horiz-adv-x="826" 
d="M825 523q0 -15 -9.5 -18.5t-29.5 -3.5h-124v-387q0 -44 3 -65t9 -40q-25 -17 -53 -17t-41 15.5t-13 55.5v438h-153q-141 0 -227.5 -61.5t-86.5 -214.5q0 -90 32 -140t81 -60q-51 44 -51 137q0 79 38 122.5t106 43.5q73 0 112 -46t39 -122q0 -89 -51.5 -131.5
t-130.5 -42.5q-100 0 -161.5 60t-61.5 185q0 162 96.5 235t272.5 73h401q3 -9 3 -16zM228 60q20 -33 54 -33q37 0 57.5 33t20.5 97q0 56 -18 91t-56 35t-58 -36t-20 -95t20 -92z" />
    <glyph glyph-name="uni0B8F" unicode="&#xb8f;" horiz-adv-x="825" 
d="M824 523q0 -15 -9 -18.5t-28 -3.5h-126l1 -385q0 -107 -63 -177.5t-146.5 -103t-144.5 -33.5q-13 0 -22 10t-11 23q14 -1 37 5q254 76 254 285v376h-152q-141 0 -227.5 -61.5t-86.5 -214.5q0 -90 32 -140.5t80 -60.5q-48 44 -48 136q0 78 37.5 123t104.5 45q73 0 112 -46
t39 -122q0 -89 -51.5 -131.5t-129.5 -42.5q-101 0 -162.5 59t-61.5 182q0 165 95.5 238.5t273.5 73.5h401q2 -12 2 -16zM228 59.5q20 -33.5 54 -33.5q37 0 57.5 33.5t20.5 96.5q0 56 -18 91.5t-56 35.5t-58 -36t-20 -95t20 -92.5z" />
    <glyph glyph-name="uni0B90" unicode="&#xb90;" horiz-adv-x="850" 
d="M88 -120q-44 42 -44 112q0 101 95 151t284 68q148 14 217 58.5t69 129.5q0 54 -26.5 80t-71.5 26q-61 0 -90 -52.5t-37 -156.5h-101q2 212 -154 212q-45 0 -78.5 -18t-44.5 -56q25 24 66 24q49 0 79 -27t30 -70q0 -46 -33 -74t-87 -28q-60 0 -87 33t-27 84q0 52 24.5 92
t70.5 63t109 23q80 0 129 -39t63 -117q13 71 59 113.5t130 42.5t129.5 -41t45.5 -118t-46 -122t-122.5 -65.5t-190.5 -31.5q-114 -10 -181.5 -33.5t-96.5 -60t-29 -91.5q0 -52 27.5 -77.5t71.5 -25.5q66 0 101.5 60t38.5 145h101q0 -89 29.5 -149.5t100.5 -60.5
q46 0 71.5 28.5t25.5 78.5q0 44 -22.5 76.5t-63.5 43.5q8 15 24.5 26.5t39.5 11.5q28 0 55 -18t45 -51.5t18 -77.5q0 -77 -51.5 -120t-133.5 -43q-92 0 -136.5 46t-56.5 113q-20 -76 -77 -117.5t-134 -41.5q-83 0 -127 42zM190.5 312q14.5 20 14.5 47q0 28 -14 46.5
t-42 18.5q-27 0 -41.5 -18.5t-14.5 -48.5q0 -28 14.5 -46.5t40.5 -18.5q28 0 42.5 20z" />
    <glyph glyph-name="uni0B92" unicode="&#xb92;" horiz-adv-x="773" 
d="M500 179q-33 30 -33 77q0 20 5.5 38.5t15.5 28.5q-15 -4 -33.5 -19.5t-32 -43t-13.5 -63.5q0 -65 44 -100.5t119 -35.5q50 0 82 11l9 -11q-19 -66 -64 -116.5t-104.5 -78t-120.5 -27.5q-66 0 -110 31.5t-44 86.5q0 31 14 45.5t33 14.5q13 0 20 -6l-1 -21q0 -50 28.5 -76
t81.5 -26q63 0 112.5 33t74.5 76q-22 -3 -45 -3q-86 0 -141.5 46.5t-55.5 126.5q0 62 33 105.5t79.5 65t85.5 21.5l10 -17q-18 -9 -25.5 -29.5t-7.5 -42.5q0 -34 15 -51.5t38 -17.5q31 0 49 30.5t18 77.5q0 96 -77.5 147t-198.5 51q-112 0 -183.5 -45t-91.5 -122
q28 26 79 26q52 0 82 -26.5t30 -69.5q0 -46 -33 -74t-88 -28q-62 0 -90 35t-28 91q0 71 37 130t112.5 94t185.5 35q97 0 179.5 -28t132 -83t49.5 -133q0 -71 -39 -115.5t-106 -44.5q-55 0 -88 30zM102.5 314q-14.5 -18 -14.5 -48q0 -29 14.5 -47t40.5 -18q28 0 42.5 20
t14.5 47q0 28 -14 46t-42 18q-27 0 -41.5 -18z" />
    <glyph glyph-name="uni0B93" unicode="&#xb93;" horiz-adv-x="779" 
d="M506 179q-33 30 -33 77q0 20 5.5 38.5t15.5 28.5q-15 -3 -33.5 -19t-32 -43t-13.5 -63q0 -67 46.5 -102t119.5 -35q42 0 79 11l9 -11q-41 -101 -132 -165t-211 -64q-89 0 -144.5 37t-55.5 102q0 51 32 84.5t89 33.5q47 0 75 -24t28 -64q0 -35 -21 -63.5t-66 -28.5
q-30 0 -47 14q31 -43 125 -43q89 0 150.5 34.5t97.5 82.5q-21 -3 -43 -3q-54 0 -99.5 20t-72.5 60t-27 95q0 63 33.5 106t80 63.5t84.5 20.5l11 -18q-18 -9 -26 -30.5t-8 -44.5q0 -31 15 -48t39 -17q32 0 49 33t17 77q0 94 -76.5 145.5t-199.5 51.5q-112 0 -183.5 -44.5
t-92.5 -122.5q28 26 79 26q52 0 82 -26t30 -69q0 -47 -32.5 -75t-87.5 -28q-62 0 -90 35t-28 91q0 72 37 130.5t112 93.5t186 35q98 0 180.5 -28t131.5 -83.5t49 -133.5q0 -69 -38.5 -114.5t-106.5 -45.5q-55 0 -88 30zM108.5 315.5q-14.5 -18.5 -14.5 -48.5q0 -29 14 -47
t41 -18q28 0 42.5 20t14.5 47t-14.5 46t-41.5 19t-41.5 -18.5zM232 37.5q-11 -15.5 -11 -41.5q0 -27 12 -42t32 -15q21 0 33.5 15.5t12.5 42.5q0 25 -12 40.5t-34 15.5t-33 -15.5zM218 38l19 11q-11 -3 -19 -11z" />
    <glyph glyph-name="uni0B94" unicode="&#xb94;" horiz-adv-x="1919" 
d="M500 179q-33 30 -33 77q0 20 5.5 38.5t15.5 28.5q-15 -4 -33.5 -19.5t-32 -43t-13.5 -63.5q0 -65 44 -100.5t119 -35.5q50 0 82 11l9 -11q-19 -66 -64 -116.5t-104.5 -78t-120.5 -27.5q-66 0 -110 31.5t-44 86.5q0 31 14 45.5t33 14.5q13 0 20 -6l-1 -21q0 -50 28.5 -76
t81.5 -26q63 0 112.5 33t74.5 76q-22 -3 -45 -3q-86 0 -141.5 46.5t-55.5 126.5q0 62 33 105.5t79.5 65t85.5 21.5l10 -17q-18 -9 -25.5 -29.5t-7.5 -42.5q0 -34 15 -51.5t38 -17.5q31 0 49 30.5t18 77.5q0 96 -77.5 147t-198.5 51q-112 0 -183.5 -45t-91.5 -122
q28 26 79 26q52 0 82 -26.5t30 -69.5q0 -46 -33 -74t-88 -28q-62 0 -90 35t-28 91q0 71 37 130t112.5 94t185.5 35q97 0 179.5 -28t132 -83t49.5 -133q0 -71 -39 -115.5t-106 -44.5q-55 0 -88 30zM102.5 314q-14.5 -18 -14.5 -48q0 -29 14.5 -47t40.5 -18q28 0 42.5 20
t14.5 47q0 28 -14 46t-42 18q-27 0 -41.5 -18zM1917 524q0 -15 -10 -19t-28 -4h-124v-387q1 -45 3.5 -66t8.5 -39q-25 -17 -54 -17q-27 0 -40 15.5t-13 55.5v438h-128q-51 0 -71 -22t-20 -83l1 -288q1 -42 3.5 -62t7.5 -37q-25 -17 -56 -17q-25 0 -37 15.5t-11 55.5v204
q0 53 -24.5 110t-81 97t-144.5 40q-93 0 -160 -60.5t-67 -212.5q0 -103 33.5 -154.5t86.5 -61.5q-27 24 -38 61t-11 74q0 79 37.5 123.5t104.5 44.5q72 0 111.5 -46t39.5 -122q0 -89 -52 -131.5t-133 -42.5q-104 0 -165 62t-61 201q0 156 75 230t198 74q101 0 169 -45
t88 -115q0 81 35.5 113.5t121.5 32.5h402q3 -6 3 -15zM1006.5 60q20.5 -33 55.5 -33t55.5 33t20.5 96q0 57 -17.5 92t-55.5 35t-58.5 -36t-20.5 -95t20.5 -92z" />
    <glyph glyph-name="uni0B95" unicode="&#xb95;" horiz-adv-x="819" 
d="M712 283q57 -40 57 -123q0 -79 -51 -126.5t-139 -47.5q-30 0 -47.5 7.5t-17.5 21.5q0 6 3 12t7 8q15 -3 33 -3q115 0 115 122q0 64 -33.5 97.5t-115.5 33.5h-30v-52q0 -123 -67.5 -185t-174.5 -62q-64 0 -109 23t-68.5 63t-23.5 89q0 55 28.5 97t91.5 57v183q0 41 38 41
h453q3 -6 3 -16q0 -15 -9.5 -18.5t-28.5 -3.5h-133v-178h43q119 0 176 -40zM208 321q22 2 34 2h156v178h-173q-17 0 -17 -18v-162zM398 285h-158q-72 0 -107.5 -35t-35.5 -89q0 -56 39.5 -89.5t105.5 -33.5q77 0 116.5 48t39.5 139v60z" />
    <glyph glyph-name="uni0B99" unicode="&#xb99;" horiz-adv-x="1022" 
d="M930 501l-1 -501h-587v32q107 16 193 67.5t86 148.5q0 43 -19.5 71t-62.5 28q-51 0 -80.5 -42t-30.5 -115v-23q-18 -16 -51 -16q-20 0 -32.5 4.5t-12.5 12.5v333h-207v-501h-40v539h503q4 -8 4 -16q0 -15 -10.5 -18.5t-30.5 -3.5h-123v-164q44 75 138 75q77 0 114.5 -44
t37.5 -113q0 -78 -50 -135.5t-123 -83.5h287v443q0 13 -1 31.5t-6 28.5q25 9 52 9q53 0 53 -47z" />
    <glyph glyph-name="uni0B9A" unicode="&#xb9a;" horiz-adv-x="712" 
d="M671 313q0 -11 -6.5 -19.5t-18.5 -8.5h-159v-52q0 -83 -31.5 -138.5t-84.5 -82t-119 -26.5q-61 0 -107 23.5t-70.5 63.5t-24.5 89q0 54 29 96.5t91 57.5v182q0 22 9 31.5t28 9.5h449q3 -7 3 -13q0 -13 -11 -19t-37 -6h-124v-178h182q2 -6 2 -10zM206 322q9 1 29 1h157
v177h-169q-17 0 -17 -17v-161zM392 285h-146q-78 -1 -113.5 -34t-35.5 -88q0 -61 41 -93.5t103 -32.5q74 0 112.5 49t38.5 139v60z" />
    <glyph glyph-name="uni0B9C" unicode="&#xb9c;" horiz-adv-x="852" 
d="M760.5 92q44.5 -40 44.5 -107q0 -69 -44.5 -106.5t-118.5 -38.5q-76 0 -111 40.5t-35 100.5q0 28 7 50q-20 -14 -40.5 -37t-24.5 -27q-34 -40 -62 -65.5t-68 -43.5t-92 -18q-76 0 -123 38.5t-47 113.5q0 76 51.5 118.5t121.5 61t194 39.5q110 19 172 39.5t93.5 55.5
t31.5 94q0 52 -26 77.5t-70 25.5q-61 0 -90.5 -49.5t-39.5 -158.5h-100q-2 106 -38.5 158.5t-114.5 52.5q-48 0 -79 -19t-43 -53q21 22 63 22q49 0 79 -26.5t30 -69.5q0 -46 -33 -74t-88 -28q-59 0 -86 33.5t-27 84.5t24.5 91t71 63t109.5 23q80 0 129.5 -39t61.5 -117
q29 156 191 156q84 0 128.5 -40.5t44.5 -116.5q0 -75 -42.5 -117t-106 -59.5t-176.5 -35.5l-43 -7q-107 -17 -169.5 -38t-94 -55.5t-31.5 -91.5q0 -51 25.5 -76t64.5 -25q44 0 78 25.5t82 77.5q40 44 71 71.5t74.5 47t98.5 19.5q78 0 122.5 -40zM108 403.5
q-15 -18.5 -15 -48.5q0 -28 14.5 -46t40.5 -18q28 0 43 20.5t15 47.5t-14.5 45t-41.5 18t-42 -18.5zM689.5 -88.5q20.5 30.5 20.5 73.5q0 49 -19.5 74t-56.5 25q-42 0 -60.5 -28.5t-18.5 -71.5q0 -49 20 -76t57 -27t57.5 30.5z" />
    <glyph glyph-name="uni0B9E" unicode="&#xb9e;" horiz-adv-x="1241" 
d="M1157.5 339.5q33.5 -60.5 33.5 -148.5q0 -195 -147 -283.5t-422 -88.5q-214 0 -341 56.5t-178 145t-51 193.5q0 92 32.5 162.5t81 111.5t95.5 50q4 1 11 1q9 0 14.5 -4t11.5 -14q-64 -35 -109.5 -108t-45.5 -196q0 -176 118 -267t359 -91q234 0 353.5 74t119.5 254
q0 74 -20.5 111t-64.5 37q-54 0 -84.5 -51.5t-31.5 -122.5v-51q1 -44 3.5 -65t7.5 -36q-23 -17 -54 -17q-28 0 -41 15.5t-13 55.5v438h-137q-143 0 -229 -61t-86 -214q0 -91 31.5 -141.5t82.5 -59.5q-46 45 -46 135q0 79 36.5 123.5t104.5 44.5q71 0 110 -46t39 -122
q0 -89 -52 -131.5t-136 -42.5q-102 0 -169 61t-67 190q0 156 99.5 229t288.5 73h378q3 -9 3 -17q0 -15 -10.5 -18.5t-30.5 -3.5h-114l1 -196q19 43 54 69.5t91 26.5q87 0 120.5 -60.5zM472 59.5q20 -32.5 56 -32.5q35 0 55.5 33.5t20.5 96.5q0 56 -18 91t-56 35t-58 -35.5
t-20 -95.5t20 -92.5z" />
    <glyph glyph-name="uni0B9F" unicode="&#xb9f;" horiz-adv-x="807" 
d="M797 0h-675q-17 0 -23.5 10.5t-6.5 28.5v433q0 48 -7 66q9 4 23.5 6.5t23.5 2.5q29 0 42.5 -11.5t13.5 -35.5v-462h609v-38z" />
    <glyph glyph-name="uni0BA3" unicode="&#xba3;" horiz-adv-x="1634" 
d="M1632 522q0 -14 -10 -17.5t-30 -3.5h-121v-387q0 -73 12 -105q-25 -17 -54 -17q-27 0 -40 15.5t-13 55.5v438h-82q-77 0 -145 -26q55 -45 84.5 -113t29.5 -156q0 -101 -44 -160t-127 -59t-122.5 54t-39.5 151q0 93 32 163t92 113q-65 44 -162 44q-98 0 -169 -37
q67 -46 103 -115t36 -157q0 -97 -45 -157t-129 -60q-79 0 -118.5 54.5t-39.5 153.5q0 86 27.5 154t79.5 115q-81 49 -207 49q-144 0 -237.5 -66.5t-93.5 -217.5q0 -91 34.5 -143t84.5 -60q-25 23 -37 60.5t-12 74.5q0 80 37.5 124t104.5 44q71 0 110 -46t39 -122
q0 -89 -52 -131.5t-132 -42.5q-99 0 -161.5 61t-62.5 186q0 158 102.5 238.5t281.5 80.5q144 0 249 -54q88 53 216 53q123 0 209 -49q85 37 193 37h326q3 -6 3 -17zM1087 441q-113 -80 -113 -247q0 -145 95 -145q96 0 96 153q0 161 -78 239zM669 439q-95 -82 -95 -244
q0 -146 94 -146q50 0 73 39.5t23 108.5q0 162 -95 242zM232.5 60q19.5 -33 54.5 -33t55 33t20 97q0 56 -17.5 91t-54.5 35t-57 -36t-20 -95t19.5 -92z" />
    <glyph glyph-name="uni0BA4" unicode="&#xba4;" horiz-adv-x="770" 
d="M720 108q0 -117 -82 -182.5t-223 -65.5h-159q-54 0 -85 -16.5t-32 -47.5q-2 -26 20 -44q-2 -15 -15 -26t-34 -11q-27 0 -38.5 17.5t-11.5 45.5q0 58 50.5 89.5t144.5 31.5h132q122 0 179 58t57 153q0 88 -32 131.5t-104 43.5v-52q0 -82 -32 -138t-86 -82.5t-119 -26.5
q-60 0 -105.5 23.5t-70 63.5t-24.5 89q0 52 27 93.5t87 58.5v184q0 22 9 31.5t28 9.5h453q3 -6 3 -17q0 -15 -9.5 -18t-30.5 -3h-130v-178h16q217 -2 217 -215zM203 321q24 2 37 2h152v177h-172q-17 0 -17 -17v-162zM392 285h-141q-82 0 -118 -33.5t-36 -88.5
q0 -60 40.5 -92.5t102.5 -32.5q72 0 112 45.5t40 129.5v72z" />
    <glyph glyph-name="uni0BA8" unicode="&#xba8;" horiz-adv-x="796" 
d="M711.5 336q32.5 -64 32.5 -168q0 -108 -28.5 -175t-95.5 -100t-182 -33h-164q-53 0 -84 -16.5t-32 -47.5q-1 -13 3 -23.5t17 -20.5q-2 -15 -15.5 -26t-34.5 -11q-26 0 -38 18t-12 45q0 58 50.5 89.5t145.5 31.5h164q81 0 126.5 28.5t64 85.5t18.5 151q0 81 -18 126
t-64 45q-30 0 -54.5 -23.5t-39 -62.5t-14.5 -82v-44q0 -83 12 -114q-25 -17 -55 -17q-26 0 -39 15.5t-13 55.5v438h-207v-501h-42v539h497q4 -8 4 -16q0 -15 -9.5 -18.5t-29.5 -3.5h-118v-186q43 85 135 85q87 0 119.5 -64z" />
    <glyph glyph-name="uni0BA9" unicode="&#xba9;" horiz-adv-x="1235" 
d="M1233 522q0 -14 -10 -17.5t-30 -3.5h-123v-387q0 -43 2.5 -65.5t9.5 -39.5q-25 -17 -54 -17q-27 0 -40 15.5t-13 55.5v438h-73q-92 0 -166 -33q61 -46 93.5 -112.5t32.5 -150.5q0 -99 -45.5 -159t-129.5 -60q-79 0 -118.5 54t-39.5 152q0 88 30 155.5t86 111.5
q-83 55 -218 55q-143 0 -235.5 -67.5t-92.5 -220.5q0 -91 34.5 -142t84.5 -59q-27 25 -38 61t-11 75q0 78 37.5 122.5t104.5 44.5q71 0 110 -46t39 -122q0 -89 -52 -131.5t-132 -42.5q-99 0 -161.5 60.5t-62.5 184.5q0 160 100.5 242t279.5 82q157 0 267 -62q88 46 211 46
h320q3 -6 3 -17zM678 433q-105 -81 -105 -239q0 -75 25 -110t70 -35q50 0 73 40t23 111q0 153 -86 233zM232.5 60q19.5 -33 54.5 -33t55 33t20 97q0 56 -17.5 91t-54.5 35t-57 -36t-20 -95t19.5 -92z" />
    <glyph glyph-name="uni0BAA" unicode="&#xbaa;" horiz-adv-x="837" 
d="M98.5 10.5q-6.5 10.5 -6.5 28.5v439q0 13 -1 31.5t-6 28.5q9 4 23.5 6.5t23.5 2.5q29 0 42.5 -11.5t13.5 -35.5v-462h461v440q0 13 -1 31.5t-6 28.5q9 4 23.5 6.5t23.5 2.5q29 0 42 -11.5t13 -35.5v-461q0 -18 -6 -28.5t-23 -10.5h-593q-17 0 -23.5 10.5z" />
    <glyph glyph-name="uni0BAE" unicode="&#xbae;" horiz-adv-x="862" 
d="M706.5 512q52.5 -41 79 -109.5t26.5 -149.5q0 -112 -39.5 -182.5t-152.5 -70.5h-498q-17 0 -23.5 10.5t-6.5 28.5v433q0 48 -7 66q21 9 52 9q28 0 39.5 -12t11.5 -35v-462h238v332q0 101 39.5 142t113.5 41q75 0 127.5 -41zM521 39h88q65 0 100 23t47.5 66t12.5 111
q0 76 -20.5 138t-59 97.5t-90.5 35.5q-40 0 -59 -27t-19 -99v-345z" />
    <glyph glyph-name="uni0BAF" unicode="&#xbaf;" horiz-adv-x="990" 
d="M898 500v-461q0 -19 -6 -29t-23 -10h-439q-17 0 -23.5 10.5t-6.5 28.5v3q-61 -56 -154 -56q-82 0 -118 38t-36 110v344q0 13 -1 31.5t-6 28.5q21 9 51 9q27 0 39.5 -12.5t12.5 -34.5v-343q0 -62 17.5 -89t70.5 -27q72 0 124 61v376q0 13 -1 31.5t-6 28.5q21 9 51 9
q52 0 52 -47v-464h307v442q0 13 -1 31.5t-6 28.5q9 4 24 6.5t27 2.5q51 0 51 -47z" />
    <glyph glyph-name="uni0BB0" unicode="&#xbb0;" horiz-adv-x="639" 
d="M637 522q0 -15 -10 -18t-31 -3h-123l1 -402q0 -104 -57 -170.5t-133 -96t-137 -30.5q-13 0 -22.5 10t-10.5 23q14 -1 36 5q100 30 164 89.5t64 177.5v394l-248 -1v-500h-42v539h546q3 -6 3 -17z" />
    <glyph glyph-name="uni0BB1" unicode="&#xbb1;" horiz-adv-x="821" 
d="M93 0v333q0 98 35 159t133 61q60 0 97.5 -34.5t44.5 -106.5q30 141 167 141q76 0 118 -39t57.5 -108.5t15.5 -171.5q0 -148 -30 -227.5t-101 -113t-204 -33.5h-157q-53 0 -84 -16.5t-32 -47.5q-1 -13 3 -23.5t17 -20.5q-2 -15 -15.5 -26t-34.5 -11q-26 0 -38 18t-12 45
q0 57 50.5 88.5t145.5 31.5h166q98 0 146 29t65 95.5t17 196.5q0 96 -9 156.5t-32 93t-65 32.5q-53 0 -80.5 -49.5t-27.5 -148.5v-195q0 -31 3.5 -59t8.5 -40q-25 -17 -54 -17q-27 0 -39.5 15.5t-12.5 55.5v277q0 161 -82 161q-39 0 -57.5 -24.5t-23 -61t-4.5 -98.5v-317
h-95z" />
    <glyph glyph-name="uni0BB2" unicode="&#xbb2;" horiz-adv-x="937" 
d="M113.5 49q-61.5 62 -61.5 198q0 153 82 229.5t236 76.5q92 0 144.5 -31.5t74.5 -94.5t22 -166q0 -79 4 -121t24 -73t65 -31q70 0 103.5 70.5t33.5 167.5q0 180 -117 236q-2 6 2.5 16.5t14.5 18.5t25 8q27 0 55 -30t47.5 -91t19.5 -150q0 -123 -46.5 -209.5t-159.5 -86.5
q-74 0 -110.5 38.5t-46.5 93t-10 128.5q0 90 -9.5 144t-48 89t-119.5 35q-103 0 -171 -63.5t-68 -209.5q0 -100 33 -153t86 -63q-26 21 -37.5 59t-11.5 79q0 75 37.5 119t107.5 44q73 0 110 -44.5t37 -119.5q0 -91 -51.5 -133t-133.5 -42q-101 0 -162.5 62zM343.5 60.5
q20.5 33.5 20.5 96.5q0 56 -18 91.5t-55 35.5q-38 0 -58 -36t-20 -95q0 -60 20 -93t55 -33t55.5 33.5z" />
    <glyph glyph-name="uni0BB3" unicode="&#xbb3;" horiz-adv-x="1146" 
d="M1144 524q0 -15 -10 -19t-28 -4h-124v-387q1 -45 3.5 -66t8.5 -39q-25 -17 -54 -17q-27 0 -40 15.5t-13 55.5v438h-128q-51 0 -71 -22t-20 -83l1 -288q1 -42 3.5 -62t7.5 -37q-25 -17 -56 -17q-25 0 -37 15.5t-11 55.5v204q0 53 -24.5 110t-81 97t-144.5 40
q-93 0 -160 -60.5t-67 -212.5q0 -103 33.5 -154.5t86.5 -61.5q-27 24 -38 61t-11 74q0 79 37.5 123.5t104.5 44.5q72 0 111.5 -46t39.5 -122q0 -89 -52 -131.5t-133 -42.5q-104 0 -165 62t-61 201q0 156 75 230t198 74q101 0 169 -45t88 -115q0 81 35.5 113.5t121.5 32.5
h402q3 -6 3 -15zM233.5 60q20.5 -33 55.5 -33t55.5 33t20.5 96q0 57 -17.5 92t-55.5 35t-58.5 -36t-20.5 -95t20.5 -92z" />
    <glyph glyph-name="uni0BB4" unicode="&#xbb4;" horiz-adv-x="870" 
d="M130.5 -252.5q-30.5 36.5 -30.5 83.5q0 45 24.5 69t57.5 24q24 0 38.5 -14t14.5 -32q0 -15 -8 -26q-7 3 -21 3q-16 -2 -27 -12.5t-11 -33.5q0 -26 17 -41.5t53 -15.5q38 0 72 16t77 45q28 18 45.5 28t33.5 13q-21 8 -26.5 35.5t-5.5 85.5v25h-304q-17 0 -23 10t-6 29v433
q0 48 -7 66q9 4 24 6.5t27 2.5q28 0 39.5 -12t11.5 -35v-462h238v334q0 99 39.5 140t111.5 41q76 0 129 -40.5t79.5 -110t26.5 -156.5q0 -106 -40 -176t-152 -70h-98v-25q0 -48 4.5 -71.5t19.5 -34.5t48 -11h113v-40h-213q-28 0 -51 -11t-56 -35q-43 -30 -78 -45.5
t-83 -15.5q-73 0 -103.5 36.5zM617 38q92 0 126.5 48t34.5 143q0 84 -20.5 147.5t-59 98.5t-90.5 35q-41 0 -59.5 -26.5t-18.5 -98.5v-347h87z" />
    <glyph glyph-name="uni0BB5" unicode="&#xbb5;" horiz-adv-x="1081" 
d="M114.5 47.5q-62.5 61.5 -62.5 191.5q0 153 89 233t243 80q100 0 171 -34t108 -97t37 -149q0 -72 -23.5 -132t-64.5 -102h281v435q0 13 -1 31.5t-6 28.5q22 8 51 8q27 0 39.5 -12.5t12.5 -33.5l-1 -495h-498v27q48 33 80 98.5t32 151.5q0 107 -56 170.5t-175 63.5
q-117 0 -194.5 -64.5t-77.5 -212.5q0 -96 34.5 -148t89.5 -61q-27 22 -38 59t-11 77q0 79 37 123t105 44q71 0 110 -46.5t39 -122.5q0 -92 -52 -134t-134 -39q-102 0 -164.5 61.5zM346.5 57.5q20.5 34.5 20.5 98.5q0 57 -17.5 92t-54.5 35q-38 0 -58 -36t-20 -95
q0 -61 20.5 -95t54.5 -30q34 -4 54.5 30.5z" />
    <glyph glyph-name="uni0BB6" unicode="&#xbb6;" horiz-adv-x="1099" 
d="M1001 539v-38l-2 -320q0 -64 -29 -108t-73.5 -65.5t-93.5 -21.5q-99 0 -142.5 54.5t-44.5 153.5l-1 306h-132l-1 -319q-1 -64 -30 -108t-74 -65.5t-94 -21.5q-101 0 -145 54.5t-45 153.5l-2 289q0 37 -7 50q9 3 23.5 5.5t22.5 2.5q30 0 43 -11t13 -35l1 -290
q1 -80 21 -123.5t79 -43.5q60 0 80 43.5t20 119.5v338h613zM906 501h-197l1 -296q1 -79 21 -123t77 -44q58 0 78 43.5t20 119.5v300z" />
    <glyph glyph-name="uni0BB7" unicode="&#xbb7;" horiz-adv-x="1401" 
d="M1316 393v-393h-258v-246h-86v246h-484v27q48 33 79.5 98.5t31.5 152.5q0 110 -56 172t-174 62q-117 0 -193.5 -64.5t-76.5 -212.5q0 -97 34.5 -149t89.5 -61q-49 42 -49 136q0 79 37 123t105 44q71 0 110 -46.5t39 -122.5q0 -89 -50.5 -131t-132.5 -42q-103 0 -166.5 61
t-63.5 193q0 154 89 233.5t248 79.5q149 0 229 -72t80 -206q0 -143 -89 -237h363v163h-3q-99 0 -153 43t-54 129q0 76 42 117t110 41q75 0 109.5 -54.5t34.5 -178.5v-42q50 17 88 51t74 86q1 0 1 0.5v0.5l1 -1h94zM972 243v48q0 75 -7.5 117t-24.5 60t-46 18
q-41 0 -64.5 -29.5t-23.5 -81.5q0 -69 43 -100.5t118 -31.5h5zM1220 38v276q-64 -80 -162 -103v-173h162zM237 58.5q20 -33.5 55 -31.5q35 -2 55 31.5t20 97.5q0 57 -17.5 92t-54.5 35q-38 0 -58 -36t-20 -95q0 -60 20 -93.5z" />
    <glyph glyph-name="uni0BB8" unicode="&#xbb8;" horiz-adv-x="1258" 
d="M112 48q-60 62 -60 201q0 105 35 174t95 101t135 32q94 -1 157 -49t97 -129q0 76 37 127t144 51q83 0 123.5 -34.5t52 -90.5t11.5 -148v-31v-41q0 -63 5.5 -99t23 -56t53.5 -20q45 0 77 35.5t47.5 92.5t15.5 120q3 101 -34 156t-78 73q-2 6 2 16.5t13.5 18.5t24.5 8
q26 0 54.5 -31t47.5 -90t17 -138q0 -80 -20.5 -150t-68 -115.5t-124.5 -45.5q-70 0 -102.5 34t-40 87t-7.5 148v71q0 89 -18 136t-76 47q-95 0 -95 -132l1 -269q1 -41 3.5 -62t7.5 -37q-23 -17 -55 -17q-25 0 -37 15t-12 56v165q0 66 -25.5 132.5t-80.5 111.5t-138 45
q-91 0 -158.5 -62t-67.5 -215q0 -103 33 -154t86 -61q-46 44 -46 137q0 78 36.5 121t104.5 43q71 0 110 -45.5t39 -121.5q0 -88 -52 -130.5t-134 -42.5q-99 0 -159 62zM338.5 60q20.5 33 20.5 96q0 56 -18 91.5t-55 35.5q-38 0 -58.5 -36t-20.5 -95t20.5 -92t55.5 -33
t55.5 33z" />
    <glyph glyph-name="uni0BB9" unicode="&#xbb9;" horiz-adv-x="1567" 
d="M108.5 -289.5q-11.5 17.5 -11.5 44.5q0 58 50.5 89.5t144.5 31.5h886q96 0 144 27t66.5 95t18.5 204q0 105 -9 169.5t-33 97t-67 32.5q-52 0 -78 -46.5t-26 -134.5v-212q0 -31 3.5 -59t8.5 -40q-25 -17 -53 -17t-40.5 15.5t-12.5 55.5v274q0 78 -21.5 121t-65.5 43
q-36 0 -53.5 -24.5t-22.5 -65t-5 -106.5v-305h-448v27q48 34 79.5 99t31.5 151q0 109 -57.5 173t-178.5 64q-117 0 -188 -66t-71 -211q0 -100 33 -151t85 -61q-48 38 -48 124q0 74 37 114.5t105 40.5q72 0 110.5 -43t38.5 -113q0 -84 -52 -123t-135 -39q-101 0 -161.5 61
t-60.5 198q0 155 83 231.5t243 76.5q155 0 235.5 -71.5t80.5 -206.5q0 -76 -24 -136.5t-65 -102.5h232v311q0 87 35.5 146.5t128.5 59.5q57 0 97.5 -33t50.5 -110q15 72 56 107.5t110 35.5q77 0 118 -40t56 -113t15 -187q0 -155 -31 -235.5t-99.5 -111t-195.5 -30.5h-885
q-54 0 -85 -16t-32 -46q-2 -27 20 -45q-2 -15 -15 -25.5t-34 -10.5q-27 0 -38.5 17.5zM343.5 57.5q20.5 30.5 20.5 87.5q0 51 -18 83.5t-55 32.5q-38 0 -58 -33t-20 -88q0 -53 20 -83t55 -30t55.5 30.5z" />
    <glyph glyph-name="uni0BBE" unicode="&#xbbe;" horiz-adv-x="655" 
d="M653 521q0 -14 -10.5 -17t-34.5 -3h-117v-391q0 -41 2.5 -62t8.5 -38q-21 -17 -53 -17q-28 0 -40.5 14.5t-12.5 51.5v442h-248v-501h-43v539h545q3 -10 3 -18z" />
    <glyph glyph-name="uni0BBF" unicode="&#xbbf;" horiz-adv-x="304" 
d="M117 7q-12 15 -12 56v370q0 158 -46 250.5t-166 92.5q-67 0 -102 -32.5t-35 -87.5q0 -54 26 -82.5t67 -34.5q1 -6 -7 -15.5t-15 -10.5q-70 9 -109.5 45.5t-39.5 96.5q0 72 57.5 117.5t162.5 45.5q146 0 224 -97t78 -285v-328q0 -59 11 -99q-23 -17 -54 -17q-28 0 -40 15z
" />
    <glyph glyph-name="uni0BC0" unicode="&#xbc0;" 
d="M-366 538q-44 17 -72.5 53.5t-28.5 91.5q0 79 59.5 121t151.5 42q87 -1 129 -39t42 -92q0 -49 -31.5 -75.5t-81.5 -26.5q-51 0 -80 28t-29 73q0 36 22 63.5t60 32.5q-15 3 -30 3q-64 -1 -102.5 -32t-38.5 -90q0 -71 41 -108t92 -44l-10 -18q-49 0 -93 17zM-140 662.5
q15 18.5 15 51.5q0 31 -14 49.5t-42 18.5q-29 0 -44.5 -19.5t-15.5 -49.5t15 -49.5t44 -19.5q27 0 42 18.5z" />
    <glyph glyph-name="uni0BC1" unicode="&#xbc1;" horiz-adv-x="396" 
d="M93.5 306.5q-34.5 36.5 -34.5 90.5q0 33 13 60.5t39 43.5h-276v38h324q87 0 132 -38.5t45 -98.5q0 -63 -42.5 -97.5t-101.5 -34.5q-64 0 -98.5 36.5zM232.5 330q20.5 25 20.5 68q0 40 -20 64.5t-55 24.5q-37 0 -58.5 -25t-21.5 -66t21 -66t55 -25q38 0 58.5 25z" />
    <glyph glyph-name="uni0BC2" unicode="&#xbc2;" horiz-adv-x="608" 
d="M110 308.5q-34 38.5 -34 98.5q0 50 23 94h-268v38h293q37 45 91 70t123 25q87 0 148.5 -45.5t61.5 -140.5q0 -63 -27.5 -103t-61.5 -57.5t-52 -17.5q-11 0 -16 6t-4 14q47 11 69 53t22 96q0 74 -39 116t-109 42q-42 0 -83.5 -14.5t-69.5 -43.5h22q79 0 116.5 -37.5
t37.5 -96.5q0 -66 -42 -100.5t-102 -34.5q-65 0 -99 38.5zM249.5 330.5q20.5 25.5 20.5 70.5q0 43 -20 68t-56 25q-37 0 -58 -26t-21 -69t21 -68.5t57 -25.5t56.5 25.5z" />
    <glyph glyph-name="uni0BC6" unicode="&#xbc6;" horiz-adv-x="804" 
d="M54 320q0 171 80 286.5t266 115.5q147 0 223 -73.5t76 -210.5v-332q0 -40 3 -61t9 -38q-23 -17 -53 -17q-28 0 -40.5 15.5t-12.5 55.5l1 370q0 104 -49 180.5t-169 76.5q-100 0 -164.5 -51.5t-93.5 -135t-29 -183.5q0 -152 45 -217.5t117 -75.5q-51 44 -51 137
q0 80 38 123t107 43q72 0 111.5 -46.5t39.5 -122.5q0 -89 -52.5 -131t-138.5 -42q-263 0 -263 334zM389.5 60q20.5 33 20.5 96q0 56 -18 91.5t-55 35.5q-38 0 -58.5 -36t-20.5 -95t20.5 -92t55.5 -33t55.5 33z" />
    <glyph glyph-name="uni0BC7" unicode="&#xbc7;" horiz-adv-x="663" 
d="M155 76.5q-93 90.5 -93 274.5q0 178 89.5 275t251.5 97q86 0 137.5 -41.5t51.5 -129.5q0 -70 -39.5 -113.5t-111.5 -43.5q-68 0 -105 40t-37 114q0 91 48 135q-87 -13 -139.5 -92t-52.5 -233q0 -299 199 -335q-49 44 -49 134q0 75 37.5 117t105.5 42q72 0 111 -44.5
t39 -116.5q0 -87 -51 -128.5t-137 -41.5q-162 0 -255 90.5zM476 471q18 33 18 83q0 62 -20.5 95.5t-55.5 33.5t-55 -33t-20 -91q0 -54 20 -87.5t57 -33.5q38 0 56 33zM480.5 58.5q20.5 33.5 20.5 96.5q0 51 -17.5 84.5t-54.5 33.5t-58.5 -34.5t-21.5 -89.5q0 -58 20.5 -91
t55.5 -33t55.5 33.5z" />
    <glyph glyph-name="uni0BC8" unicode="&#xbc8;" horiz-adv-x="1202" 
d="M1006 514q70 -39 108 -109.5t38 -162.5q0 -80 -29.5 -138t-79 -88t-107.5 -30q-10 1 -16 8t-8 17q63 11 104.5 70t41.5 157q0 92 -30 154t-80.5 92t-114.5 30q-66 0 -125 -34q68 -45 104.5 -115t36.5 -160q0 -99 -44.5 -159t-127.5 -60q-152 0 -152 209q0 87 25.5 156
t72.5 115q-78 46 -197 46q-141 0 -234 -68t-93 -218q0 -89 34 -140.5t85 -60.5q-26 24 -37.5 60.5t-11.5 75.5q0 76 37.5 120.5t104.5 44.5q71 0 110 -46t39 -122q0 -88 -51.5 -130t-133.5 -42q-98 0 -160.5 60.5t-62.5 184.5q0 159 101.5 240.5t277.5 81.5q139 0 237 -50
q74 50 176 50q92 0 162 -39zM657 442q-41 -41 -64.5 -102t-23.5 -142q0 -149 89 -149q48 0 70.5 40t22.5 110q0 164 -94 243zM232.5 59.5q19.5 -32.5 54.5 -32.5t55 33t20 95q0 56 -17.5 91.5t-54.5 35.5t-57 -36.5t-20 -95.5q0 -58 19.5 -90.5z" />
    <glyph glyph-name="uni0BCA" unicode="&#xbca;" horiz-adv-x="2059" 
d="M686 106q0 -40 3 -61t9 -38q-23 -17 -53 -17q-27 0 -39.5 15.5t-12.5 55.5v370q0 104 -49 180.5t-168 76.5q-100 0 -164.5 -51.5t-93.5 -135t-29 -183.5q0 -152 44.5 -217.5t116.5 -75.5q-28 25 -39.5 61.5t-11.5 75.5q0 80 38 123t107 43q72 0 111.5 -46.5t39.5 -122.5
q0 -89 -52 -131t-139 -42q-262 0 -262 334q0 171 79.5 286.5t265.5 115.5q147 0 223 -73.5t76 -210.5v-332zM1106 547q8 -8 8 -20t-8 -20t-19 -8q-12 0 -20 8t-8 20t8 20t20 8q11 0 19 -8zM2061 521q0 -14 -10.5 -17t-34.5 -3h-117v-391q0 -42 3 -63t9 -37q-23 -17 -54 -17
q-27 0 -40 14.5t-13 51.5v442h-248v-501h-43v539h545q3 -10 3 -18zM968 488q-8 8 -8 20t8 20t19 8q12 0 20 -8t8 -20t-8 -20t-20 -8q-11 0 -19 8zM1206 528q8 -8 8 -20t-8 -20t-19 -8q-12 0 -20 8t-8 20t8 20t20 8q11 0 19 -8zM924 472q8 -8 8 -20t-8 -20t-20 -8
q-11 0 -19 8t-8 20t8 20t19 8q12 0 20 -8zM1250 432q-8 8 -8 20t8 20t20 8q11 0 19 -8t8 -20t-8 -20t-19 -8q-12 0 -20 8zM828 348q-8 8 -8 20t8 20t19 8q12 0 20 -8t8 -20t-8 -20t-20 -8q-11 0 -19 8zM1307 348q-8 8 -8 20t8 20t20 8q11 0 19 -8t8 -20t-8 -20t-19 -8
q-12 0 -20 8zM848 248q-8 -8 -20 -8q-11 0 -19 8t-8 20t8 20t19 8q12 0 20 -8t8 -20t-8 -20zM1365 288q8 -8 8 -20t-8 -20t-19 -8q-12 0 -20 8t-8 20t8 20t20 8q11 0 19 -8zM266 60q20 -33 55 -33t55.5 33t20.5 96q0 57 -17.5 92t-55.5 35t-58 -36t-20 -95t20 -92zM869 190
q8 -8 8 -20t-8 -20t-20 -8q-11 0 -19 8t-8 20t8 20t19 8q12 0 20 -8zM1344 190q8 -8 8 -20t-8 -20t-19 -8q-12 0 -20 8t-8 20t8 20t20 8q11 0 19 -8zM924 107q8 -8 8 -20t-8 -20t-20 -8q-11 0 -19 8t-8 20t8 20t19 8q12 0 20 -8zM1289 107q8 -8 8 -20t-8 -20t-19 -8
q-12 0 -20 8t-8 20t8 20t20 8q11 0 19 -8zM1009 50q8 -8 8 -20t-8 -20t-20 -8q-11 0 -19 8t-8 20t8 20t19 8q12 0 20 -8zM1204 50q8 -8 8 -20t-8 -20t-19 -8q-12 0 -20 8t-8 20t8 20t20 8q11 0 19 -8zM1106 31q8 -8 8 -20t-8 -20t-19 -8q-12 0 -20 8t-8 20t8 20t20 8
q11 0 19 -8z" />
    <glyph glyph-name="uni0BCB" unicode="&#xbcb;" horiz-adv-x="1919" 
d="M559 272.5q39 -44.5 39 -116.5q0 -87 -51 -128.5t-137 -41.5q-162 0 -255 90.5t-93 274.5q0 178 89.5 275t251.5 97q86 0 137.5 -41.5t51.5 -129.5q0 -70 -39.5 -113.5t-111.5 -43.5q-68 0 -105 40t-37 114q0 91 48 135q-87 -13 -139.5 -92t-52.5 -233q0 -299 199 -335
q-49 44 -49 134q0 75 37.5 117t105.5 42q72 0 111 -44.5zM363 650q-20 -33 -20 -91q0 -54 20 -87.5t57 -33.5q38 0 56 33t18 83q0 62 -20.5 95.5t-55.5 33.5t-55 -33zM968 545q8 -8 8 -20t-8 -20t-19 -8q-12 0 -20 8t-8 20t8 20t20 8q11 0 19 -8zM1911 521
q0 -13 -10.5 -16.5t-34.5 -3.5h-117v-391q0 -41 2.5 -62t8.5 -38q-23 -17 -53 -17q-28 0 -41 14.5t-13 51.5v442h-247v-501h-44v539h546q3 -10 3 -18zM830 486q-8 8 -8 20t8 20t19 8q12 0 20 -8t8 -20t-8 -20t-20 -8q-11 0 -19 8zM1068 526q8 -8 8 -20t-8 -20t-19 -8
q-12 0 -20 8t-8 20t8 20t20 8q11 0 19 -8zM786 470q8 -8 8 -20t-8 -20t-20 -8q-11 0 -19 8t-8 20t8 20t19 8q12 0 20 -8zM1112 430q-8 8 -8 20t8 20t20 8q11 0 19 -8t8 -20t-8 -20t-19 -8q-12 0 -20 8zM690 346q-8 8 -8 20t8 20t19 8q12 0 20 -8t8 -20t-8 -20t-20 -8
q-11 0 -19 8zM1169 346q-8 8 -8 20t8 20t20 8q11 0 19 -8t8 -20t-8 -20t-19 -8q-12 0 -20 8zM710 246q-8 -8 -20 -8q-11 0 -19 8t-8 20t8 20t19 8q12 0 20 -8t8 -20t-8 -20zM1227 286q8 -8 8 -20t-8 -20t-19 -8q-12 0 -20 8t-8 20t8 20t20 8q11 0 19 -8zM480.5 58.5
q20.5 33.5 20.5 96.5q0 51 -17.5 84.5t-54.5 33.5t-58.5 -34.5t-21.5 -89.5q0 -58 20.5 -91t55.5 -33t55.5 33.5zM731 188q8 -8 8 -20t-8 -20t-20 -8q-11 0 -19 8t-8 20t8 20t19 8q12 0 20 -8zM1206 188q8 -8 8 -20t-8 -20t-19 -8q-12 0 -20 8t-8 20t8 20t20 8q11 0 19 -8z
M786 105q8 -8 8 -20t-8 -20t-20 -8q-11 0 -19 8t-8 20t8 20t19 8q12 0 20 -8zM1151 105q8 -8 8 -20t-8 -20t-19 -8q-12 0 -20 8t-8 20t8 20t20 8q11 0 19 -8zM871 48q8 -8 8 -20t-8 -20t-20 -8q-11 0 -19 8t-8 20t8 20t19 8q12 0 20 -8zM1066 48q8 -8 8 -20t-8 -20t-19 -8
q-12 0 -20 8t-8 20t8 20t20 8q11 0 19 -8zM968 29q8 -8 8 -20t-8 -20t-19 -8q-12 0 -20 8t-8 20t8 20t20 8q11 0 19 -8z" />
    <glyph glyph-name="uni0BCC" unicode="&#xbcc;" horiz-adv-x="2538" 
d="M684 106q0 -40 3 -61t9 -38q-23 -17 -53 -17q-28 0 -40.5 15.5t-12.5 55.5l1 370q0 104 -49 180.5t-169 76.5q-100 0 -164 -51.5t-93 -134.5t-29 -184q0 -152 44.5 -217.5t116.5 -75.5q-51 44 -51 137q0 80 38 123t107 43q72 0 111.5 -46.5t39.5 -122.5q0 -89 -52.5 -131
t-138.5 -42q-263 0 -263 334q0 171 80 286.5t266 115.5q147 0 223 -73.5t76 -210.5v-332zM1080 545q8 -8 8 -20t-8 -20t-19 -8q-12 0 -20 8t-8 20t8 20t20 8q11 0 19 -8zM2536 524q0 -15 -10 -19t-29 -4h-124v-387q1 -45 3.5 -66t8.5 -39q-25 -17 -53 -17t-41 15.5t-13 55.5
v438h-128q-51 0 -71 -22t-20 -83l1 -288q1 -42 3.5 -62t7.5 -37q-25 -17 -56 -17q-25 0 -37 15.5t-11 55.5v204q0 53 -24.5 110t-81 97t-144.5 40q-93 0 -160 -60.5t-67 -212.5q0 -103 33.5 -154.5t86.5 -61.5q-26 24 -37.5 61t-11.5 74q0 79 37.5 123.5t104.5 44.5
q72 0 111.5 -46t39.5 -122q0 -89 -52 -131.5t-133 -42.5q-104 0 -165 62t-61 201q0 156 75 230t198 74q101 0 169 -45t88 -115q0 81 35.5 113.5t121.5 32.5h402q4 -8 4 -15zM942 486q-8 8 -8 20t8 20t19 8q12 0 20 -8t8 -20t-8 -20t-20 -8q-11 0 -19 8zM1180 526q8 -8 8 -20
t-8 -20t-19 -8q-12 0 -20 8t-8 20t8 20t20 8q11 0 19 -8zM898 470q8 -8 8 -20t-8 -20t-20 -8q-11 0 -19 8t-8 20t8 20t19 8q12 0 20 -8zM1224 430q-8 8 -8 20t8 20t20 8q11 0 19 -8t8 -20t-8 -20t-19 -8q-12 0 -20 8zM802 346q-8 8 -8 20t8 20t19 8q12 0 20 -8t8 -20t-8 -20
t-20 -8q-11 0 -19 8zM1281 346q-8 8 -8 20t8 20t20 8q11 0 19 -8t8 -20t-8 -20t-19 -8q-12 0 -20 8zM822 246q-8 -8 -20 -8q-11 0 -19 8t-8 20t8 20t19 8q12 0 20 -8t8 -20t-8 -20zM1339 286q8 -8 8 -20t-8 -20t-19 -8q-12 0 -20 8t-8 20t8 20t20 8q11 0 19 -8zM263.5 60
q20.5 -33 55.5 -33t55.5 33t20.5 96q0 57 -17.5 92t-55.5 35t-58.5 -36t-20.5 -95t20.5 -92zM1625 60q20 -33 55 -33q36 0 56.5 33t20.5 96q0 56 -18 91.5t-56 35.5t-58 -36t-20 -95t20 -92zM843 188q8 -8 8 -20t-8 -20t-20 -8q-11 0 -19 8t-8 20t8 20t19 8q12 0 20 -8z
M1318 188q8 -8 8 -20t-8 -20t-19 -8q-12 0 -20 8t-8 20t8 20t20 8q11 0 19 -8zM898 105q8 -8 8 -20t-8 -20t-20 -8q-11 0 -19 8t-8 20t8 20t19 8q12 0 20 -8zM1263 105q8 -8 8 -20t-8 -20t-19 -8q-12 0 -20 8t-8 20t8 20t20 8q11 0 19 -8zM983 48q8 -8 8 -20t-8 -20t-20 -8
q-11 0 -19 8t-8 20t8 20t19 8q12 0 20 -8zM1178 48q8 -8 8 -20t-8 -20t-19 -8q-12 0 -20 8t-8 20t8 20t20 8q11 0 19 -8zM1080 29q8 -8 8 -20t-8 -20t-19 -8q-12 0 -20 8t-8 20t8 20t20 8q11 0 19 -8z" />
    <glyph glyph-name="uni0BCD" unicode="&#xbcd;" 
d="M-126 688q-15 15 -15 37t15 37t37 15t37 -15t15 -37t-15 -37t-37 -15t-37 15z" />
    <glyph glyph-name="uni0BD0" unicode="&#xbd0;" horiz-adv-x="779" 
d="M506 179q-33 30 -33 77q0 20 5.5 38.5t15.5 28.5q-15 -4 -33.5 -19.5t-32 -43t-13.5 -63.5q0 -65 44 -100.5t119 -35.5q50 0 82 11l9 -11q-50 -102 -150 -162t-213 -60q-68 0 -115.5 22t-71 58.5t-23.5 80.5q0 33 11.5 54.5t27.5 31.5t30 11h6q16 0 21 -11
q-11 -17 -17.5 -34.5t-6.5 -45.5q0 -59 33.5 -90t121.5 -31q93 0 164 34t103 78q-22 -3 -46 -3q-86 0 -141.5 46.5t-55.5 126.5q0 62 33 105.5t79.5 65t85.5 21.5l10 -17q-18 -9 -25.5 -29.5t-7.5 -42.5q0 -34 15.5 -51.5t38.5 -17.5q30 0 48 30.5t18 77.5q0 97 -77.5 147.5
t-198.5 50.5q-112 0 -183.5 -44.5t-91.5 -121.5q27 25 78 25q52 0 82 -26.5t30 -69.5q0 -47 -32.5 -74.5t-87.5 -27.5q-62 0 -90 35t-28 91q0 72 36.5 130.5t112 93.5t185.5 35q97 0 179.5 -27.5t132.5 -82.5t50 -134q0 -71 -39 -115.5t-106 -44.5q-55 0 -88 30zM108.5 314
q-14.5 -18 -14.5 -48q0 -29 14 -47t41 -18q28 0 42.5 20t14.5 47t-14.5 45.5t-41.5 18.5t-41.5 -18zM296 80q-4 -4 -10 -4t-10 4t-4 10t4 10t10 4t10 -4t4 -10t-4 -10zM252 56v-95h39v64q0 21 11 29.5t28 8.5q28 0 40.5 -19.5t12.5 -48.5q0 -22 -7.5 -37.5t-35.5 -15.5h-105
q-8 0 -9.5 3t-1.5 7v5v87q0 11 -2 15q10 2 16 2q14 0 14 -5zM321 -39h17q9 0 12 8t3 24q0 50 -21 50q-11 0 -11 -16v-66z" />
    <glyph glyph-name="uni0BD7" unicode="&#xbd7;" horiz-adv-x="1146" 
d="M1144 524q0 -15 -10 -19t-28 -4h-124v-387q1 -45 3.5 -66t8.5 -39q-25 -17 -54 -17q-27 0 -40 15.5t-13 55.5v438h-128q-51 0 -71 -22t-20 -83l1 -288q1 -42 3.5 -62t7.5 -37q-25 -17 -56 -17q-25 0 -37 15.5t-11 55.5v204q0 53 -24.5 110t-81 97t-144.5 40
q-93 0 -160 -60.5t-67 -212.5q0 -103 33.5 -154.5t86.5 -61.5q-27 24 -38 61t-11 74q0 79 37.5 123.5t104.5 44.5q72 0 111.5 -46t39.5 -122q0 -89 -52 -131.5t-133 -42.5q-104 0 -165 62t-61 201q0 156 75 230t198 74q101 0 169 -45t88 -115q0 81 35.5 113.5t121.5 32.5
h402q3 -6 3 -15zM233.5 60q20.5 -33 55.5 -33t55.5 33t20.5 96q0 57 -17.5 92t-55.5 35t-58.5 -36t-20.5 -95t20.5 -92z" />
    <glyph glyph-name="uni0BE6" unicode="&#xbe6;" horiz-adv-x="616" 
d="M128.5 61.5q-64.5 75.5 -64.5 209.5q0 133 64.5 208t179.5 75t179.5 -75t64.5 -208q0 -134 -64.5 -209.5t-179.5 -75.5t-179.5 75.5zM417 88.5q36 62.5 36 178.5q0 123 -39.5 185.5t-108.5 62.5q-70 0 -106 -62.5t-36 -181.5q0 -122 37 -183.5t109 -61.5t108 62.5z" />
    <glyph glyph-name="uni0BE7" unicode="&#xbe7;" horiz-adv-x="820" 
d="M729.5 286q56.5 -43 56.5 -118q0 -57 -33 -98.5t-85 -63t-108 -21.5q-13 0 -21 9.5t-7 19.5q157 34 157 155q0 51 -33.5 86t-114.5 35h-53v-57q0 -83 -32 -138.5t-85 -82t-119 -26.5q-62 0 -107.5 23t-70 63.5t-24.5 91.5q0 53 28 96t87 60v178q0 22 9 31.5t28 9.5h463
q4 -8 4 -16q0 -15 -12.5 -18.5t-42.5 -3.5h-126v-172h62q123 0 179.5 -43zM202 327q22 2 34 2h157v171h-174q-17 0 -17 -17v-156zM393 290h-147q-78 0 -113.5 -34.5t-35.5 -90.5q0 -63 41 -95t103 -32q74 0 113 48.5t39 138.5v65z" />
    <glyph glyph-name="uni0BE8" unicode="&#xbe8;" horiz-adv-x="978" 
d="M964 40v-38l-786 -2q-72 0 -99.5 20.5t-27.5 58.5q0 42 31.5 62t94.5 22q23 0 36 2q-43 6 -75.5 34.5t-50 68t-17.5 79.5q0 94 59 151.5t169 57.5q58 0 109.5 -19.5t84.5 -64.5t33 -116q0 -109 -72 -164.5t-227 -60.5q-51 -2 -73 -4.5t-34 -12.5t-12 -32q0 -20 15 -32
t61 -12zM133 264q18 -37 53.5 -60t83.5 -23q75 0 115.5 43.5t40.5 118.5q0 83 -43 123t-111 40q-39 0 -74.5 -17t-59 -53.5t-23.5 -92.5q0 -42 18 -79z" />
    <glyph glyph-name="uni0BE9" unicode="&#xbe9;" horiz-adv-x="878" 
d="M853 35v-36h-502v32q107 16 191.5 67.5t84.5 149.5q0 43 -20 71t-63 28q-52 0 -83 -42t-31 -115v-5q-19 -17 -52 -17q-19 0 -31.5 5t-12.5 13v315h-209v-501h-40v539h510q4 -8 4 -16q0 -15 -12.5 -18.5t-42.5 -3.5h-114v-164q44 75 140 75q77 0 115.5 -44.5t38.5 -112.5
q0 -79 -46.5 -136.5t-116.5 -83.5h292z" />
    <glyph glyph-name="uni0BEA" unicode="&#xbea;" horiz-adv-x="772" 
d="M703 539v-208q0 -16 -11 -27t-27 -11h-172v-65q0 -81 -32.5 -135.5t-86.5 -80.5t-120 -26q-64 0 -110 23t-70 63t-24 90q0 56 28 100t91 61v175q0 41 38 41h408q3 -9 3 -16q0 -15 -12 -18.5t-45 -3.5h-68v-170h160q5 0 9 3.5t4 9.5v195h37zM206 329q22 2 35 2h157v170
l-170 -1q-11 0 -16.5 -3.5t-5.5 -13.5v-154zM398 293h-145q-82 0 -119 -35.5t-37 -94.5q0 -62 40 -93.5t106 -31.5q75 0 115 47t40 134v74z" />
    <glyph glyph-name="uni0BEB" unicode="&#xbeb;" horiz-adv-x="1045" 
d="M960.5 340q33.5 -60 33.5 -149q0 -124 -58 -209t-159 -126.5t-231 -41.5q-169 0 -280 62.5t-162.5 163.5t-51.5 220q0 129 49 235t160 171t289 65q107 0 194.5 -30t128.5 -66q3 -12 -8.5 -21t-23.5 -9q-66 50 -135 68.5t-157 18.5q-204 0 -305 -111t-101 -320
q0 -189 100.5 -297.5t306.5 -108.5q154 0 250.5 80t96.5 251q0 75 -21 112t-65 37q-55 0 -85 -52.5t-31 -122.5v-42q0 -81 12 -114q-24 -18 -54 -18q-27 0 -40 15.5t-13 55.5v444h-247v-501h-42v539h547q2 -6 2 -16q0 -15 -8.5 -18.5t-27.5 -3.5h-129v-197q41 96 145 96
q87 0 120.5 -60z" />
    <glyph glyph-name="uni0BEC" unicode="&#xbec;" horiz-adv-x="1165" 
d="M1155 36v-36h-272v36q50 20 73 62t23 91q0 111 -103 109q-73 -3 -103 -56t-30 -125v-57q0 -40 -13.5 -55t-41.5 -15q-32 0 -53 17q7 28 10 46q6 62 6 101q0 136 -125 136h-38v-57q0 -83 -32 -138.5t-85 -82t-119 -26.5q-62 0 -107.5 23t-70 63.5t-24.5 91.5q0 53 28 96
t87 60v178q0 22 9 31.5t28 9.5h449q3 -6 3 -16q0 -15 -12 -18.5t-42 -3.5h-112v-172h62q66 0 110 -24t65 -63q22 43 64.5 69t109.5 26q83 0 130 -40t47 -108q0 -45 -23.5 -88t-67.5 -65h170zM202 327q22 2 34 2h157v171h-174q-17 0 -17 -17v-156zM393 290h-147
q-78 0 -113.5 -34.5t-35.5 -91.5q0 -62 40.5 -94t103.5 -32q74 0 113 48.5t39 138.5v65z" />
    <glyph glyph-name="uni0BED" unicode="&#xbed;" horiz-adv-x="826" 
d="M825 523q0 -15 -9.5 -18.5t-29.5 -3.5h-124v-387q0 -44 3 -65t9 -40q-25 -17 -53 -17t-41 15.5t-13 55.5v438h-153q-141 0 -227.5 -61.5t-86.5 -214.5q0 -90 32 -140t81 -60q-51 44 -51 137q0 79 38 122.5t106 43.5q73 0 112 -46t39 -122q0 -89 -51.5 -131.5
t-130.5 -42.5q-100 0 -161.5 60t-61.5 185q0 162 96.5 235t272.5 73h401q3 -9 3 -16zM228 60q20 -33 54 -33q37 0 57.5 33t20.5 97q0 56 -18 91t-56 35t-58 -36t-20 -95t20 -92z" />
    <glyph glyph-name="uni0BEE" unicode="&#xbee;" horiz-adv-x="1072" 
d="M977 9q0 -57 2 -72.5t9 -19.5q-22 -19 -54 -19q-27 0 -39.5 17t-12.5 61v175h-145q-53 -113 -175.5 -167.5t-266.5 -54.5q-93 0 -152.5 21t-86 55.5t-26.5 74.5q0 58 56.5 84t185.5 26h152q-54 28 -81 75.5t-27 99.5q0 84 58.5 136t165.5 52q100 0 164.5 -59t64.5 -188
q0 -62 -17 -116h129v162q0 76 -2 108.5t-11 66.5q8 8 25 16.5t38 5.5q20 -2 33 -16t13 -38v-398v-88zM387 284q19 -40 62.5 -67t113.5 -27h93q15 45 15 103q0 100 -40 155t-122 55q-60 0 -100.5 -36t-40.5 -101q0 -42 19 -82zM494.5 19.5q98.5 40.5 145.5 131.5h-357
q-106 0 -151 -16t-45 -56q0 -47 53.5 -73.5t146.5 -26.5q109 0 207.5 40.5z" />
    <glyph glyph-name="uni0BEF" unicode="&#xbef;" horiz-adv-x="1135" 
d="M1026.5 353.5q62.5 -61.5 62.5 -159.5q0 -52 -22 -100.5t-56.5 -78t-69.5 -29.5q-11 0 -17 7.5t-5 17.5q34 21 55.5 66.5t21.5 113.5q0 75 -43 127t-130 52q-82 0 -137 -42q100 -7 148 -55t48 -118q0 -46 -21 -84.5t-61.5 -61.5t-95.5 -23q-68 0 -107 46.5t-39 122.5
q0 72 37 135h-107v-57q0 -83 -32 -138.5t-85 -82t-119 -26.5q-62 0 -107.5 23t-70 63.5t-24.5 91.5q0 53 28 96t87 60v178q0 22 9 31.5t28 9.5h449q3 -6 3 -16q0 -15 -12 -18.5t-42 -3.5h-112v-172h137q37 40 91.5 63t124.5 23q123 0 185.5 -61.5zM202 327q22 2 34 2h157
v171h-174q-17 0 -17 -17v-156zM393 290h-147q-78 0 -113.5 -34.5t-35.5 -90.5q0 -63 41 -95t103 -32q74 0 113 48.5t39 138.5v65zM754.5 247.5q-32.5 41.5 -106.5 42.5q-21 -29 -32 -63.5t-11 -70.5q0 -46 21.5 -82.5t66.5 -36.5q46 0 70 35.5t24 82.5q0 51 -32.5 92.5z" />
    </font>
</defs>
</svg>
