<svg width="207" height="54" viewBox="0 0 207 54" fill="none" xmlns="http://www.w3.org/2000/svg">
<path d="M73.3005 10.49C74.8766 10.4384 76.4526 10.4384 78.0545 10.4642C78.2354 17.3886 78.0804 24.313 78.132 31.2632C78.1837 33.6144 77.822 36.4307 75.5742 37.7484C72.4995 39.5312 68.6239 39.4795 65.2909 38.6527C62.0871 37.7742 60.821 34.2604 60.7435 31.2632C60.6402 27.5685 60.2009 23.2795 62.7847 20.2565C65.4201 17.3628 69.8383 17.4661 73.2488 18.7321C73.223 15.9934 73.1971 13.2288 73.3005 10.49ZM67.5129 22.4527C64.6966 24.7522 65.8076 29.0412 65.911 32.2192C66.066 35.9915 72.8612 36.3015 73.0938 32.4776C73.3263 29.713 73.3263 26.9226 73.0421 24.158C72.6545 21.7293 69.3215 21.4451 67.5129 22.4527ZM139.935 10.49C141.511 10.4384 143.113 10.4125 144.689 10.4384C144.818 13.358 144.792 16.2776 144.715 19.1972C147.66 17.647 151.51 17.1819 154.43 19.0422C157.143 21.0058 157.272 24.6747 157.375 27.7235C157.349 30.7982 157.478 34.2345 155.437 36.7666C153.68 38.9111 150.709 39.1953 148.151 39.1953C145.722 39.1695 142.932 38.9628 141.253 36.9733C139.754 35.2422 139.857 32.8135 139.832 30.669C139.935 23.9513 139.806 17.2336 139.935 10.49ZM145.981 22.5302C144.482 23.5379 144.896 25.6049 144.766 27.1293C144.896 29.4288 144.379 31.9092 145.361 34.0795C146.756 35.5522 149.262 35.3714 150.942 34.5446C152.724 33.046 152.208 30.3848 152.389 28.3178C152.233 26.38 152.647 23.9254 150.993 22.5302C149.417 21.7551 147.557 21.7551 145.981 22.5302ZM105.287 12.7379C106.889 12.6604 108.491 12.6862 110.067 12.7637C110.093 14.5723 110.119 16.4068 110.144 18.2154C111.746 18.2412 113.348 18.2671 114.95 18.2929C115.002 19.6623 115.028 21.0575 115.002 22.4269C113.374 22.4527 111.746 22.4786 110.119 22.4786C110.119 25.6049 110.041 28.7312 110.119 31.8833C110.222 32.7618 110.067 34.0537 111.152 34.3896C112.573 34.6738 114.072 34.6221 115.519 34.6996C115.493 36.069 115.467 37.4125 115.415 38.7819C112.909 38.7561 110.274 39.1436 107.897 38.2393C106.088 37.5159 105.313 35.4747 105.261 33.6661C105.055 29.9714 105.261 26.2766 105.21 22.5561C104.099 22.4785 102.988 22.401 101.877 22.3235C101.902 21.2384 101.928 20.1532 101.954 19.0939C103.013 18.8872 104.073 18.6805 105.132 18.4738C105.184 16.5618 105.235 14.6498 105.287 12.7379ZM83.9454 19.0164C87.7952 17.9829 92.0584 17.2077 95.8823 18.7063C98.0268 19.5848 98.9311 21.9876 98.8536 24.158C98.9311 28.9896 98.8277 33.8211 98.9053 38.6527C97.7942 38.7302 96.7091 38.7819 95.5981 38.8594C95.3397 38.3943 95.1072 37.9034 94.8488 37.4384C92.5751 39.6345 89.2421 39.4537 86.3483 38.9628C84.1521 38.5752 82.6277 36.4307 82.4986 34.2604C82.266 31.6766 82.266 28.3178 84.8239 26.8451C87.6402 25.3465 90.9732 25.8632 94.0478 25.8374C93.7895 24.6747 94.1512 22.9436 92.7818 22.3752C90.0431 21.5484 87.2009 22.5044 84.488 22.9436C84.2555 21.6259 84.0746 20.3341 83.9454 19.0164ZM88.2086 30.1264C87.0976 31.1082 87.3301 32.8652 87.666 34.1312C88.5703 35.6297 90.7665 35.1905 92.2392 35.0355C94.5646 34.5446 93.8153 31.5991 94.0478 29.868C92.11 29.8164 90.0689 29.4546 88.2086 30.1264ZM119.73 19.068C123.683 17.9312 128.179 17.1302 132.08 18.8872C134.483 20.0498 134.819 22.9436 134.767 25.3207C134.664 29.8422 134.974 34.3896 134.561 38.9111C133.114 38.8336 131.254 39.1953 130.633 37.49C128.515 39.6087 125.337 39.402 122.598 39.0403C120.247 38.7561 118.516 36.5599 118.412 34.2604C118.18 31.7542 118.154 28.5245 120.557 26.9742C123.373 25.3207 126.835 25.8891 129.962 25.8374C129.703 24.623 130.091 22.7628 128.541 22.3235C125.828 21.6259 123.089 22.5044 120.402 22.9436C120.092 21.6259 119.885 20.3341 119.73 19.068ZM123.347 33.6144C123.735 35.6297 126.396 35.2163 127.921 35.0872C130.401 34.7254 129.703 31.625 129.858 29.8422C128.05 29.7905 126.189 29.558 124.407 29.9714C122.96 30.5398 123.218 32.4001 123.347 33.6144ZM166.108 18.3704C169.002 17.5695 172.387 17.5695 174.996 19.2489C177.528 20.98 178.226 24.2355 178.303 27.1293C178.381 30.2556 178.433 33.7436 176.469 36.4049C174.324 39.1953 170.32 39.557 167.09 38.9369C164.429 38.446 162.258 36.4824 161.587 33.847C160.786 30.6948 160.837 27.3618 161.354 24.158C161.819 21.5484 163.524 19.1197 166.108 18.3704ZM168.537 21.9876C166.961 22.246 166.315 23.9254 166.186 25.3207C165.979 27.8785 165.824 30.5398 166.496 33.0719C167.064 35.268 170.01 35.6297 171.741 34.6479C173.058 33.7953 173.11 32.0642 173.265 30.6431C173.368 28.3436 173.472 25.9666 172.8 23.7446C172.232 22.0135 170.113 21.6259 168.537 21.9876ZM180.164 18.2929C181.895 18.2671 183.626 18.2671 185.383 18.2929C186.649 21.0317 187.837 23.8221 189.258 26.5092C191.196 24.0546 192.126 21.0575 193.522 18.2929C195.227 18.2671 196.958 18.2671 198.663 18.2671V18.8355C196.958 21.9618 195.149 25.0623 193.573 28.2661C195.201 31.4958 196.88 34.6996 198.663 37.8259V38.7302C196.984 38.7561 195.304 38.7561 193.625 38.7561C192.152 35.8364 191.144 32.6585 189.31 29.9197C187.682 32.6843 186.804 35.8106 185.099 38.5235C183.419 39.0144 181.662 38.7561 179.957 38.7561C181.3 35.0613 183.497 31.78 185.124 28.2144C183.522 24.9073 181.585 21.7293 180.164 18.2929Z" fill="#2C3137"/>
<path d="M9.76652 38.3424L10.1282 38.1098L10.6708 37.7998L11.2134 37.4381L11.7302 37.128L11.8593 37.0505L12.0144 36.973L12.2469 36.818L12.7895 36.4821L13.2546 36.2237L13.5904 36.017L14.3914 35.5261L15.1407 35.061L15.4507 34.8802L15.5541 34.8285L15.9933 34.5701L16.7943 34.105L16.8976 34.0275L17.0785 33.9242L17.6211 33.6141L18.1636 33.3041L18.5254 33.0715L19.1971 32.6581L19.2488 32.6323L19.9464 32.2189L19.9981 32.1931L20.2306 32.0381L20.6182 31.8055L20.7215 31.7538L21.5225 31.2629L22.3235 30.7979L22.6077 30.617L22.9177 30.4361L23.4086 30.1519L23.9254 29.8419L24.7005 29.3768L24.8814 29.2735L25.0622 29.1701L25.6048 28.8601L25.9665 28.6275L26.3282 28.4208L27.1292 27.9299L27.3876 27.7749L27.7493 27.5682L28.1885 27.3098L28.7053 26.9998V4.10791C28.4469 4.13375 28.1627 4.15959 27.9043 4.21126L27.4651 4.31461C27.3359 4.34045 27.2067 4.36628 27.1034 4.4438L26.845 4.52131L26.3024 4.80552L25.5014 5.24475L24.7005 5.68399L23.9254 6.12322L23.1244 6.56246L22.3235 7.00169L21.5225 7.44093L20.7215 7.88016L19.9206 8.31939L19.1196 8.75863L18.3187 9.19787L17.5177 9.6371L16.7168 10.0763L15.9158 10.5414L15.1148 10.9806L14.3139 11.4457L13.5129 11.9108L12.712 12.3759L11.911 12.8409L11.1101 13.3318C10.9809 13.3835 10.8775 13.461 10.8 13.5127C10.645 13.616 10.4641 13.7194 10.3349 13.8486C10.0766 14.0553 9.81819 14.2878 9.58566 14.5204L9.53398 14.572C9.22394 14.9079 8.96556 15.2955 8.73303 15.7089C8.29379 16.5357 8.00958 17.4658 7.93207 18.3959V36.172C7.93207 36.5854 8.00958 36.9988 8.13877 37.3864C8.26795 37.7998 8.47465 38.1873 8.73303 38.5232C8.81054 38.6266 8.88805 38.7299 8.96556 38.8074L9.53398 38.4715L9.76652 38.3424Z" fill="url(#paint0_linear_59_635)"/>
<path d="M48.6775 16.1226C48.4966 15.7609 48.2899 15.3991 48.0574 15.0633C47.9282 14.9082 47.799 14.7532 47.6698 14.5982L47.4115 14.3657C47.2048 14.159 46.9981 13.9781 46.7655 13.8231C46.6105 13.7197 46.4813 13.6164 46.4038 13.5647L46.1454 13.4097L45.5253 13.0221L44.9052 12.6604L44.2593 12.2728L43.6392 11.9111L42.9933 11.5494L42.3473 11.1877L41.7272 10.8259L41.0813 10.4642L40.4612 10.1025L39.8153 9.74077L39.1693 9.37905L38.5493 9.01732L37.9033 8.6556L37.2832 8.29388L36.6631 7.95799L36.0172 7.62211L35.3713 7.26039L34.7512 6.89866L34.1311 6.56278L33.4851 6.20106L32.865 5.83933L32.2191 5.47761L31.599 5.11589L30.9789 4.75416L30.333 4.41828C30.1521 4.34077 29.9454 4.28909 29.7387 4.21158C29.532 4.15991 29.3253 4.10823 29.1186 4.0824C28.9119 4.05656 28.6794 4.03072 28.4985 4.00488V27.1293L28.6019 27.181L29.1186 27.5168L29.5062 27.7494L29.7646 27.8786L30.0229 28.0336L30.2296 28.1628L30.7722 28.4728L31.1081 28.6795L31.5215 28.9379L31.8315 29.1188L32.3741 29.4288L32.9167 29.7389L33.4593 30.0747L34.0019 30.4106L34.5445 30.7207L34.9579 30.979L35.4488 31.2633L35.7071 31.4183L36.1205 31.6767L36.5856 31.935L36.689 32.0125L37.2832 32.3743L37.7225 32.6326L38.265 32.9685L38.4459 33.0719L38.6009 33.1494L39.0143 33.3819L39.376 33.5886L39.9186 33.9245L40.4612 34.2345L40.6421 34.3379L41.1588 34.6479L41.7789 35.0355L42.0373 35.1905H42.089L42.3732 35.3455L42.9933 35.7331L43.6392 36.0948L44.2593 36.4824L44.8019 36.8183L44.9052 36.87L45.4995 37.2317L45.577 37.2833L45.7837 37.4125L45.9904 37.5417L46.1454 37.6451L46.7655 38.0068L47.0756 38.1877L47.3856 38.3685L47.7215 38.5494L48.0315 38.7302L48.4191 38.9886L48.6516 38.6527L48.7292 38.5235C48.91 38.2393 49.0134 37.9034 49.065 37.5676C49.1684 37.1542 49.2459 36.7408 49.2717 36.3274V18.4479C49.2717 17.6728 49.0392 16.846 48.6775 16.1226Z" fill="url(#paint1_linear_59_635)"/>
<path d="M48.0057 38.2392L47.6957 38.0584L47.3857 37.8258L47.1531 37.6966L46.5847 37.3866L46.2488 37.1799L45.8612 36.9474L45.5254 36.7407L45.1895 36.534L45.112 36.4823L45.0086 36.4048L44.466 36.0947L43.9235 35.7588L43.4067 35.423L42.8641 35.1129L42.3732 34.8287L42.0632 34.6478L41.779 34.4928L41.2364 34.1828L40.8746 33.9761L40.7455 33.8986L40.1254 33.511L39.4794 33.1234L39.2469 32.9943L39.066 32.8909L38.6526 32.71L38.1617 32.4258L37.5416 32.0383L37.4383 31.9349L36.8957 31.6249L36.8182 31.5732L36.3014 31.2632L35.9397 31.0565L35.8105 30.9789L35.2679 30.6431L35.1646 30.5914L35.0096 30.5139L34.3895 30.1263L33.7694 29.7388L33.1493 29.3512L32.5034 28.9636L31.8574 28.6019L31.7024 28.4986L31.4699 28.3694L31.2632 28.2402H31.2115L30.5656 27.8526L30.178 27.6201L29.8938 27.3876L29.7388 27.2842L29.3512 27.0517L28.7311 26.6899L28.2919 26.9483L28.2144 27L27.9301 27.155L27.4134 27.4651L27.2325 27.5684L26.69 27.9043L26.1474 28.2402L25.9665 28.3435L25.5273 28.6019L24.8813 28.9895L24.5196 29.222L23.977 29.5579L23.4345 29.8938H23.4086L23.1244 30.0746L22.6077 30.3847L22.3751 30.5139L21.8325 30.8498L21.29 31.1856L20.7474 31.4957L20.5923 31.599L19.9723 31.9866L19.6622 32.1675L19.1971 32.4775L19.1196 32.5033L18.6029 32.8134L18.422 32.9167L18.2928 32.9943L17.4919 33.4852L16.8201 33.8986L16.4584 34.1311L15.9158 34.467L15.4766 34.7254L15.1148 34.9579L14.8306 35.1387L14.288 35.4746L13.7455 35.8105L13.2029 36.1206L13.1254 36.1722L12.6603 36.4306L11.8593 36.9215L11.6785 37.0249L11.0325 37.4383L10.2316 37.9292L9.55981 38.3426L9.37895 38.4459L8.83636 38.7818L9.24976 39.1952L9.37895 39.2986C9.55981 39.4536 9.74067 39.6086 9.92153 39.7636C10.1024 39.9187 10.2833 40.022 10.4641 40.1512L11.0067 40.5129L11.5493 40.823C11.7301 40.9263 11.911 41.0038 12.0919 41.1072L12.3761 41.2364L12.6345 41.3914L13.177 41.7273L13.7196 42.0373L14.2622 42.3732L14.8048 42.7091L15.3474 43.0191L15.89 43.3292L16.4325 43.6651L16.9493 43.9751L17.4919 44.2852L18.0345 44.5952L18.577 44.9311L19.1196 45.2411L19.6622 45.5512L20.2048 45.8612L20.7474 46.1713L21.29 46.4813L21.8325 46.8172L22.3751 47.1273L22.8919 47.4373L23.4345 47.7474L23.977 48.0574L24.5196 48.3675L25.0622 48.6775L25.6048 49.0134L26.1215 49.3234L26.6383 49.6335L27.1809 49.7885C27.3617 49.8402 27.5426 49.8919 27.7234 49.9177L28.266 49.9952H29.3254C29.5062 49.9952 29.6871 49.9694 29.8679 49.9435L30.4105 49.8402L30.9531 49.6852L31.1598 49.6077L31.4699 49.4268L32.0124 49.1167L32.555 48.8067L33.0976 48.4966L33.6402 48.1866L34.1828 47.8765L34.7254 47.5665L35.2679 47.2565L35.8105 46.9464L36.3531 46.6364L36.8957 46.3263L37.4383 46.0163L37.9809 45.7062L38.5235 45.3962L39.066 45.0861L39.6086 44.7761L40.1512 44.466L40.6938 44.156L41.2364 43.8459L41.779 43.5359L42.3215 43.2258L42.8641 42.9158L43.4067 42.6057L43.9493 42.2957L44.4919 41.9856L45.0345 41.6756L45.577 41.3655L46.1196 41.0555L46.6622 40.7455L46.9464 40.5646L47.179 40.4096C47.3598 40.2804 47.5407 40.1512 47.7215 39.9962C47.8766 39.8411 48.0316 39.6861 48.1866 39.5311C48.2124 39.5053 48.2383 39.4536 48.2641 39.4277C48.4708 39.1952 48.6517 38.9627 48.8067 38.7043L48.2641 38.3684L48.0057 38.2392Z" fill="url(#paint2_linear_59_635)"/>
<path d="M15.1407 35.087H15.1924L15.5541 34.8545L15.4507 34.9062L15.1407 35.087Z" fill="url(#paint3_linear_59_635)"/>
<path d="M15.1407 35.087H15.1924L15.5541 34.8545L15.4507 34.9062L15.1407 35.087Z" fill="url(#paint4_linear_59_635)"/>
<path d="M11.1876 37.4642L10.645 37.8001L10.1024 38.136L9.74066 38.3685L10.3866 37.981L11.1876 37.4642L11.8593 37.0767L11.7301 37.1542L11.1876 37.4642Z" fill="url(#paint5_linear_59_635)"/>
<path d="M11.1876 37.4642L10.645 37.8001L10.1024 38.136L9.74066 38.3685L10.3866 37.981L11.1876 37.4642L11.8593 37.0767L11.7301 37.1542L11.1876 37.4642Z" fill="url(#paint6_linear_59_635)"/>
<path d="M12.2728 36.8438L12.0402 36.973L12.8412 36.5079L13.2804 36.2495L12.8153 36.5079L12.2728 36.8438Z" fill="url(#paint7_linear_59_635)"/>
<path d="M12.2728 36.8438L12.0402 36.973L12.8412 36.5079L13.2804 36.2495L12.8153 36.5079L12.2728 36.8438Z" fill="url(#paint8_linear_59_635)"/>
<path d="M17.5952 33.6144L17.0526 33.9503L16.8718 34.0536L17.5694 33.6402L18.3703 33.1752L18.4995 33.0977L18.1378 33.3302L17.5952 33.6144Z" fill="url(#paint9_linear_59_635)"/>
<path d="M17.5952 33.6144L17.0526 33.9503L16.8718 34.0536L17.5694 33.6402L18.3703 33.1752L18.4995 33.0977L18.1378 33.3302L17.5952 33.6144Z" fill="url(#paint10_linear_59_635)"/>
<path d="M25.0622 29.1183L24.8813 29.2216L25.5014 28.8341L25.9407 28.5757L25.579 28.8082L25.0622 29.1183Z" fill="url(#paint11_linear_59_635)"/>
<path d="M25.0622 29.1183L24.8813 29.2216L25.5014 28.8341L25.9407 28.5757L25.579 28.8082L25.0622 29.1183Z" fill="url(#paint12_linear_59_635)"/>
<path d="M20.0239 32.1673L20.644 31.7798L20.2565 32.0123L20.0239 32.1673Z" fill="url(#paint13_linear_59_635)"/>
<path d="M20.0239 32.1673L20.644 31.7798L20.2565 32.0123L20.0239 32.1673Z" fill="url(#paint14_linear_59_635)"/>
<path d="M27.3617 27.7234L27.8784 27.4133L28.1368 27.2583L27.6976 27.5167L27.3617 27.7234Z" fill="url(#paint15_linear_59_635)"/>
<path d="M27.3617 27.7234L27.8784 27.4133L28.1368 27.2583L27.6976 27.5167L27.3617 27.7234Z" fill="url(#paint16_linear_59_635)"/>
<path d="M22.6077 30.591L23.1244 30.281L23.4086 30.1001L22.9177 30.4101L22.6077 30.591Z" fill="url(#paint17_linear_59_635)"/>
<path d="M22.6077 30.591L23.1244 30.281L23.4086 30.1001L22.9177 30.4101L22.6077 30.591Z" fill="url(#paint18_linear_59_635)"/>
<path d="M47.7474 38.3163L47.4374 38.1355L47.1273 37.9546L47.4374 38.1613L47.7474 38.3163Z" fill="url(#paint19_linear_59_635)"/>
<path d="M47.7474 38.3163L47.4374 38.1355L47.1273 37.9546L47.4374 38.1613L47.7474 38.3163Z" fill="url(#paint20_linear_59_635)"/>
<path d="M45.0086 36.663L44.9052 36.5854L44.9827 36.6371L45.0086 36.663Z" fill="url(#paint21_linear_59_635)"/>
<path d="M45.0086 36.663L44.9052 36.5854L44.9827 36.6371L45.0086 36.663Z" fill="url(#paint22_linear_59_635)"/>
<path d="M39.9445 33.6398C40.1512 33.769 40.3579 33.8982 40.5646 34.0016L40.6938 34.0791L40.5129 33.9757L39.9703 33.6657L39.4278 33.3556L39.066 33.1489L39.2986 33.2781L39.9445 33.6398Z" fill="url(#paint23_linear_59_635)"/>
<path d="M39.9445 33.6398C40.1512 33.769 40.3579 33.8982 40.5646 34.0016L40.6938 34.0791L40.5129 33.9757L39.9703 33.6657L39.4278 33.3556L39.066 33.1489L39.2986 33.2781L39.9445 33.6398Z" fill="url(#paint24_linear_59_635)"/>
<path d="M45.7838 37.18L45.5771 37.0508L45.9646 37.2833L45.7838 37.18Z" fill="url(#paint25_linear_59_635)"/>
<path d="M45.7838 37.18L45.5771 37.0508L45.9646 37.2833L45.7838 37.18Z" fill="url(#paint26_linear_59_635)"/>
<path d="M29.6871 27.5167L29.3254 27.2841L28.7828 26.9999L28.6794 26.9482L29.2995 27.31L29.6871 27.5167Z" fill="url(#paint27_linear_59_635)"/>
<path d="M29.6871 27.5167L29.3254 27.2841L28.7828 26.9999L28.6794 26.9482L29.2995 27.31L29.6871 27.5167Z" fill="url(#paint28_linear_59_635)"/>
<path d="M42.089 34.9578L41.8306 34.8027L42.1407 34.9836L42.089 34.9578Z" fill="url(#paint29_linear_59_635)"/>
<path d="M42.089 34.9578L41.8306 34.8027L42.1407 34.9836L42.089 34.9578Z" fill="url(#paint30_linear_59_635)"/>
<path d="M32.4259 29.1706L33.0459 29.5323L33.666 29.9199L34.2861 30.2816L34.9062 30.6433L35.0354 30.7208L34.5962 30.4625L34.0536 30.1524L33.5369 29.8165L32.9943 29.5065L32.4517 29.1964L31.9091 28.8864L31.5991 28.6797L31.7541 28.783L32.4259 29.1706Z" fill="url(#paint31_linear_59_635)"/>
<path d="M32.4259 29.1706L33.0459 29.5323L33.666 29.9199L34.2861 30.2816L34.9062 30.6433L35.0354 30.7208L34.5962 30.4625L34.0536 30.1524L33.5369 29.8165L32.9943 29.5065L32.4517 29.1964L31.9091 28.8864L31.5991 28.6797L31.7541 28.783L32.4259 29.1706Z" fill="url(#paint32_linear_59_635)"/>
<path d="M31.1857 28.4204H31.2373L30.9014 28.2395L30.3589 27.9295L30.1522 27.8003L30.5397 28.0328L31.1857 28.4204Z" fill="url(#paint33_linear_59_635)"/>
<path d="M31.1857 28.4204H31.2373L30.9014 28.2395L30.3589 27.9295L30.1522 27.8003L30.5397 28.0328L31.1857 28.4204Z" fill="url(#paint34_linear_59_635)"/>
<path d="M38.0584 32.5292L38.5493 32.8134L38.3685 32.6842L37.8517 32.4L37.4125 32.1416L38.0584 32.5292Z" fill="url(#paint35_linear_59_635)"/>
<path d="M38.0584 32.5292L38.5493 32.8134L38.3685 32.6842L37.8517 32.4L37.4125 32.1416L38.0584 32.5292Z" fill="url(#paint36_linear_59_635)"/>
<path d="M36.689 31.7287L36.2756 31.4703L35.8622 31.2119L36.2239 31.4186L36.689 31.7287Z" fill="url(#paint37_linear_59_635)"/>
<path d="M36.689 31.7287L36.2756 31.4703L35.8622 31.2119L36.2239 31.4186L36.689 31.7287Z" fill="url(#paint38_linear_59_635)"/>
<path d="M21.2641 37.5413H18.6804V30.4102C18.7062 29.3767 19.5588 28.5241 20.5923 28.5499H23.1761V35.681C23.1502 36.7145 22.2976 37.5671 21.2641 37.5413Z" fill="white"/>
<path d="M36.9732 37.5416H34.3895V22.6334C34.4153 21.5741 35.2163 20.6956 36.2498 20.5923H38.8593V35.5004C38.756 35.9655 38.5493 36.3789 38.2392 36.7406C37.9292 37.1282 37.4899 37.4124 36.9732 37.5416Z" fill="white"/>
<path d="M29.0153 37.5415H26.4316V16.9233C26.4833 16.2515 26.8708 15.6315 27.4392 15.2956C27.7234 15.1664 28.0077 15.0889 28.3177 15.0889H30.9014V35.7071C30.8498 36.1721 30.6172 36.6114 30.2813 36.9472C29.9455 37.2831 29.5062 37.4898 29.0153 37.5415Z" fill="white"/>
<defs>
<linearGradient id="paint0_linear_59_635" x1="8.04834" y1="21.4099" x2="28.6794" y2="21.4099" gradientUnits="userSpaceOnUse">
<stop stop-color="#4045A2"/>
<stop offset="1" stop-color="#365FB3"/>
</linearGradient>
<linearGradient id="paint1_linear_59_635" x1="28.4727" y1="21.5626" x2="49.295" y2="21.5626" gradientUnits="userSpaceOnUse">
<stop stop-color="#1D75C0"/>
<stop offset="1" stop-color="#0F95D6"/>
</linearGradient>
<linearGradient id="paint2_linear_59_635" x1="8.9423" y1="38.3193" x2="48.7188" y2="38.3193" gradientUnits="userSpaceOnUse">
<stop stop-color="#3164BC"/>
<stop offset="1" stop-color="#1BA2D9"/>
</linearGradient>
<linearGradient id="paint3_linear_59_635" x1="8.04835" y1="34.963" x2="28.6794" y2="34.963" gradientUnits="userSpaceOnUse">
<stop stop-color="#4045A2"/>
<stop offset="1" stop-color="#365FB3"/>
</linearGradient>
<linearGradient id="paint4_linear_59_635" x1="9.06375" y1="34.963" x2="48.4915" y2="34.963" gradientUnits="userSpaceOnUse">
<stop stop-color="#3164BC"/>
<stop offset="1" stop-color="#1BA2D9"/>
</linearGradient>
<linearGradient id="paint5_linear_59_635" x1="8.04832" y1="37.6968" x2="28.6794" y2="37.6968" gradientUnits="userSpaceOnUse">
<stop stop-color="#4045A2"/>
<stop offset="1" stop-color="#365FB3"/>
</linearGradient>
<linearGradient id="paint6_linear_59_635" x1="9.06372" y1="37.6968" x2="48.4915" y2="37.6968" gradientUnits="userSpaceOnUse">
<stop stop-color="#3164BC"/>
<stop offset="1" stop-color="#1BA2D9"/>
</linearGradient>
<linearGradient id="paint7_linear_59_635" x1="8.04835" y1="36.6229" x2="28.6795" y2="36.6229" gradientUnits="userSpaceOnUse">
<stop stop-color="#4045A2"/>
<stop offset="1" stop-color="#365FB3"/>
</linearGradient>
<linearGradient id="paint8_linear_59_635" x1="9.06376" y1="36.6229" x2="48.4915" y2="36.6229" gradientUnits="userSpaceOnUse">
<stop stop-color="#3164BC"/>
<stop offset="1" stop-color="#1BA2D9"/>
</linearGradient>
<linearGradient id="paint9_linear_59_635" x1="8.04833" y1="33.5666" x2="28.6794" y2="33.5666" gradientUnits="userSpaceOnUse">
<stop stop-color="#4045A2"/>
<stop offset="1" stop-color="#365FB3"/>
</linearGradient>
<linearGradient id="paint10_linear_59_635" x1="9.06373" y1="33.5666" x2="48.4915" y2="33.5666" gradientUnits="userSpaceOnUse">
<stop stop-color="#3164BC"/>
<stop offset="1" stop-color="#1BA2D9"/>
</linearGradient>
<linearGradient id="paint11_linear_59_635" x1="8.04837" y1="28.9051" x2="28.6794" y2="28.9051" gradientUnits="userSpaceOnUse">
<stop stop-color="#4045A2"/>
<stop offset="1" stop-color="#365FB3"/>
</linearGradient>
<linearGradient id="paint12_linear_59_635" x1="9.06377" y1="28.9051" x2="48.4914" y2="28.9051" gradientUnits="userSpaceOnUse">
<stop stop-color="#3164BC"/>
<stop offset="1" stop-color="#1BA2D9"/>
</linearGradient>
<linearGradient id="paint13_linear_59_635" x1="8.04832" y1="31.9761" x2="28.6794" y2="31.9761" gradientUnits="userSpaceOnUse">
<stop stop-color="#4045A2"/>
<stop offset="1" stop-color="#365FB3"/>
</linearGradient>
<linearGradient id="paint14_linear_59_635" x1="9.06373" y1="31.9761" x2="48.4915" y2="31.9761" gradientUnits="userSpaceOnUse">
<stop stop-color="#3164BC"/>
<stop offset="1" stop-color="#1BA2D9"/>
</linearGradient>
<linearGradient id="paint15_linear_59_635" x1="8.0483" y1="27.4844" x2="28.6794" y2="27.4844" gradientUnits="userSpaceOnUse">
<stop stop-color="#4045A2"/>
<stop offset="1" stop-color="#365FB3"/>
</linearGradient>
<linearGradient id="paint16_linear_59_635" x1="9.0637" y1="27.4844" x2="48.4915" y2="27.4844" gradientUnits="userSpaceOnUse">
<stop stop-color="#3164BC"/>
<stop offset="1" stop-color="#1BA2D9"/>
</linearGradient>
<linearGradient id="paint17_linear_59_635" x1="8.04831" y1="30.3481" x2="28.6794" y2="30.3481" gradientUnits="userSpaceOnUse">
<stop stop-color="#4045A2"/>
<stop offset="1" stop-color="#365FB3"/>
</linearGradient>
<linearGradient id="paint18_linear_59_635" x1="9.06372" y1="30.3481" x2="48.4915" y2="30.3481" gradientUnits="userSpaceOnUse">
<stop stop-color="#3164BC"/>
<stop offset="1" stop-color="#1BA2D9"/>
</linearGradient>
<linearGradient id="paint19_linear_59_635" x1="28.6795" y1="38.1355" x2="49.3107" y2="38.1355" gradientUnits="userSpaceOnUse">
<stop stop-color="#1D75C0"/>
<stop offset="1" stop-color="#0F95D6"/>
</linearGradient>
<linearGradient id="paint20_linear_59_635" x1="9.06363" y1="38.1354" x2="48.4915" y2="38.1354" gradientUnits="userSpaceOnUse">
<stop stop-color="#3164BC"/>
<stop offset="1" stop-color="#1BA2D9"/>
</linearGradient>
<linearGradient id="paint21_linear_59_635" x1="28.6796" y1="36.6242" x2="49.3104" y2="36.6242" gradientUnits="userSpaceOnUse">
<stop stop-color="#1D75C0"/>
<stop offset="1" stop-color="#0F95D6"/>
</linearGradient>
<linearGradient id="paint22_linear_59_635" x1="9.06423" y1="36.6242" x2="48.4914" y2="36.6242" gradientUnits="userSpaceOnUse">
<stop stop-color="#3164BC"/>
<stop offset="1" stop-color="#1BA2D9"/>
</linearGradient>
<linearGradient id="paint23_linear_59_635" x1="28.6794" y1="33.6217" x2="49.3105" y2="33.6217" gradientUnits="userSpaceOnUse">
<stop stop-color="#1D75C0"/>
<stop offset="1" stop-color="#0F95D6"/>
</linearGradient>
<linearGradient id="paint24_linear_59_635" x1="9.06373" y1="33.6217" x2="48.4915" y2="33.6217" gradientUnits="userSpaceOnUse">
<stop stop-color="#3164BC"/>
<stop offset="1" stop-color="#1BA2D9"/>
</linearGradient>
<linearGradient id="paint25_linear_59_635" x1="28.6795" y1="37.1851" x2="49.3106" y2="37.1851" gradientUnits="userSpaceOnUse">
<stop stop-color="#1D75C0"/>
<stop offset="1" stop-color="#0F95D6"/>
</linearGradient>
<linearGradient id="paint26_linear_59_635" x1="9.06379" y1="37.1851" x2="48.4915" y2="37.1851" gradientUnits="userSpaceOnUse">
<stop stop-color="#3164BC"/>
<stop offset="1" stop-color="#1BA2D9"/>
</linearGradient>
<linearGradient id="paint27_linear_59_635" x1="28.6794" y1="27.2273" x2="49.3105" y2="27.2273" gradientUnits="userSpaceOnUse">
<stop stop-color="#1D75C0"/>
<stop offset="1" stop-color="#0F95D6"/>
</linearGradient>
<linearGradient id="paint28_linear_59_635" x1="9.06378" y1="27.2273" x2="48.4915" y2="27.2273" gradientUnits="userSpaceOnUse">
<stop stop-color="#3164BC"/>
<stop offset="1" stop-color="#1BA2D9"/>
</linearGradient>
<linearGradient id="paint29_linear_59_635" x1="28.6793" y1="34.8867" x2="49.3106" y2="34.8867" gradientUnits="userSpaceOnUse">
<stop stop-color="#1D75C0"/>
<stop offset="1" stop-color="#0F95D6"/>
</linearGradient>
<linearGradient id="paint30_linear_59_635" x1="9.0634" y1="34.8867" x2="48.4916" y2="34.8867" gradientUnits="userSpaceOnUse">
<stop stop-color="#3164BC"/>
<stop offset="1" stop-color="#1BA2D9"/>
</linearGradient>
<linearGradient id="paint31_linear_59_635" x1="28.6794" y1="29.7209" x2="49.3105" y2="29.7209" gradientUnits="userSpaceOnUse">
<stop stop-color="#1D75C0"/>
<stop offset="1" stop-color="#0F95D6"/>
</linearGradient>
<linearGradient id="paint32_linear_59_635" x1="9.06374" y1="29.7209" x2="48.4915" y2="29.7209" gradientUnits="userSpaceOnUse">
<stop stop-color="#3164BC"/>
<stop offset="1" stop-color="#1BA2D9"/>
</linearGradient>
<linearGradient id="paint33_linear_59_635" x1="28.6794" y1="28.1181" x2="49.3105" y2="28.1181" gradientUnits="userSpaceOnUse">
<stop stop-color="#1D75C0"/>
<stop offset="1" stop-color="#0F95D6"/>
</linearGradient>
<linearGradient id="paint34_linear_59_635" x1="9.06375" y1="28.1181" x2="48.4915" y2="28.1181" gradientUnits="userSpaceOnUse">
<stop stop-color="#3164BC"/>
<stop offset="1" stop-color="#1BA2D9"/>
</linearGradient>
<linearGradient id="paint35_linear_59_635" x1="28.6795" y1="32.4852" x2="49.3105" y2="32.4852" gradientUnits="userSpaceOnUse">
<stop stop-color="#1D75C0"/>
<stop offset="1" stop-color="#0F95D6"/>
</linearGradient>
<linearGradient id="paint36_linear_59_635" x1="9.06381" y1="32.4852" x2="48.4915" y2="32.4852" gradientUnits="userSpaceOnUse">
<stop stop-color="#3164BC"/>
<stop offset="1" stop-color="#1BA2D9"/>
</linearGradient>
<linearGradient id="paint37_linear_59_635" x1="28.6794" y1="31.46" x2="49.3105" y2="31.46" gradientUnits="userSpaceOnUse">
<stop stop-color="#1D75C0"/>
<stop offset="1" stop-color="#0F95D6"/>
</linearGradient>
<linearGradient id="paint38_linear_59_635" x1="9.06374" y1="31.46" x2="48.4915" y2="31.46" gradientUnits="userSpaceOnUse">
<stop stop-color="#3164BC"/>
<stop offset="1" stop-color="#1BA2D9"/>
</linearGradient>
</defs>
</svg>
