<svg width="180" height="80" viewBox="0 0 180 80" fill="none" xmlns="http://www.w3.org/2000/svg">
<path d="M125.368 29.6759V35.7238C127.399 34.8022 129.711 34.6997 131.816 35.4381C132.611 35.7469 133.293 36.2893 133.77 36.9927C134.246 37.6962 134.495 38.5273 134.483 39.3748C134.674 41.6837 134.6 44.0066 134.264 46.2991C133.901 48.7958 132.381 50.0002 129.473 50.1991C127.907 50.2855 126.336 50.1995 124.789 49.9429C123.962 49.8245 123.205 49.4144 122.658 48.7878C122.11 48.1611 121.809 47.3599 121.808 46.5307C121.664 41.2931 121.616 36.0528 121.535 30.8134C121.522 29.9839 121.897 29.5959 122.783 29.6632C123.58 29.7237 124.385 29.6759 125.368 29.6759ZM130.776 42.5045C130.776 41.7845 130.823 41.0608 130.766 40.3454C130.754 39.7555 130.522 39.191 130.115 38.7606C129.709 38.3302 129.156 38.0644 128.563 38.0144C126.681 37.8772 125.807 38.3104 125.587 39.8984C125.327 41.5974 125.273 43.3213 125.427 45.0331C125.621 46.8404 126.588 47.4019 128.381 47.2381C128.718 47.2198 129.048 47.1349 129.351 46.9885C129.655 46.8421 129.926 46.6371 130.148 46.3854C130.371 46.1338 130.54 45.8407 130.647 45.5232C130.754 45.2057 130.795 44.8702 130.77 44.5365C130.811 43.8617 130.777 43.1821 130.776 42.5045Z" fill="#343434"/>
<path d="M72.7256 35.346C72.7256 33.7746 72.7494 32.2513 72.7154 30.7289C72.6987 29.9815 72.9474 29.6276 73.7458 29.667C74.5977 29.7089 75.4534 29.6765 76.5147 29.6765V31.0549C76.5147 35.6313 76.4726 40.2083 76.5291 44.7835C76.5711 48.2242 75.2277 49.5692 72.3849 50.0873C70.3438 50.5506 68.2107 50.4124 66.2476 49.6897C65.582 49.3639 65.01 48.8767 64.5846 48.2733C64.1592 47.6698 63.8941 46.9697 63.814 46.2376C63.2455 43.6034 63.32 40.8725 64.0312 38.2726C64.3626 37.386 64.9403 36.6106 65.6975 36.0361C66.4546 35.4617 67.3602 35.1117 68.3096 35.0266C69.0357 34.9875 69.7634 34.9894 70.4893 35.0323C71.197 35.083 71.8992 35.2262 72.7256 35.346ZM72.7249 42.554C72.7249 41.8767 72.7268 41.1993 72.7249 40.522C72.7196 38.8935 72.0812 38.0952 70.7208 38.0142C68.8602 37.9033 67.6567 38.7019 67.5515 40.297C67.4479 41.8607 67.4487 43.4294 67.554 44.9929C67.6607 46.5626 68.7662 47.3406 70.4647 47.2397C72.0803 47.1439 72.6987 46.4566 72.7234 44.713C72.7334 43.9935 72.7249 43.2737 72.7249 42.554Z" fill="#343434"/>
<path d="M114.279 40.622C114.353 38.435 113.181 37.6248 110.783 38.0328C110.083 38.1518 109.4 38.4105 108.699 38.4718C108.135 38.5212 107.229 38.869 107.192 37.8751C107.161 37.0697 106.074 35.9258 107.878 35.4894C110.17 34.8718 112.576 34.7918 114.904 35.2558C117.435 35.8178 117.954 36.9174 118.092 39.5405C118.25 42.5431 118.157 45.5607 118.099 48.5704C118.09 49.0402 117.66 49.9104 117.468 49.899C116.592 49.8448 115.348 50.6155 114.965 49.0768C113.875 49.7366 112.647 50.138 111.375 50.2499C110.104 50.3618 108.824 50.1812 107.634 49.7221C106.085 48.8602 105.333 46.2507 105.922 43.7838C106.5 41.3645 107.747 40.8518 110.121 40.6432C111.472 40.5247 112.843 40.622 114.279 40.622ZM114.334 43.6137C113.838 43.6137 113.464 43.6137 113.09 43.6137C112.371 43.5434 111.646 43.5597 110.93 43.6624C110.667 43.7378 110.423 43.867 110.213 44.0417C110.003 44.2164 109.832 44.4327 109.711 44.6767C109.607 44.9169 109.554 45.1758 109.554 45.4374C109.555 45.6989 109.611 45.9575 109.716 46.197C109.822 46.4365 109.977 46.6519 110.17 46.8297C110.363 47.0075 110.592 47.1439 110.84 47.2305C112.902 47.6527 114.155 47.0347 114.324 45.4734C114.359 44.8542 114.362 44.2332 114.334 43.6137Z" fill="#343434"/>
<path d="M91.5571 49.978C90.5463 49.7494 89.3683 50.5767 88.6139 49.196C86.818 50.8422 84.598 50.217 82.5335 50.1717C81.7415 50.0217 81.0251 49.6076 80.503 48.998C79.981 48.3885 79.6847 47.6202 79.6634 46.8206C79.649 46.1002 79.7272 45.3719 79.649 44.6596C79.3575 42.0133 81.6745 40.6554 83.7783 40.6254C85.0965 40.6066 86.4154 40.6219 87.6951 40.6219C88.5329 38.1276 86.5344 37.7572 84.3152 38.1009C83.281 38.2612 82.2499 38.4419 81.1501 38.6246C81.0107 38.1727 80.8945 37.8339 80.8017 37.4887C80.4259 36.091 80.6227 35.537 82.0197 35.4139C84.2731 35.1339 86.5511 35.1043 88.8111 35.3257C90.8908 35.6096 91.6707 37.0022 91.6701 39.1166C91.6693 42.5928 91.6649 46.0692 91.657 49.5459C91.6343 49.6921 91.6009 49.8366 91.5571 49.978ZM87.8803 43.6209C86.8217 43.5516 85.7591 43.5689 84.7033 43.6724C84.4301 43.7458 84.1792 43.884 83.9721 44.0753C83.765 44.2666 83.6081 44.5051 83.515 44.7702C83.406 45.6284 83.0137 46.7627 84.379 47.1834C86.7532 47.9154 87.9016 47.103 87.8812 44.6897C87.8782 44.397 87.8803 44.1053 87.8803 43.6209Z" fill="#343434"/>
<path d="M150.089 42.6059C149.964 43.771 149.922 44.9524 149.695 46.0979C149.517 47.1612 148.991 48.1367 148.198 48.8736C147.405 49.6106 146.39 50.0678 145.309 50.1747C144.042 50.3327 142.758 50.2899 141.506 50.0477C140.32 49.8725 139.239 49.2761 138.463 48.3693C137.687 47.4625 137.27 46.3071 137.288 45.1179C137.138 42.9024 137.3 40.677 137.77 38.506C138.014 37.4492 138.635 36.5154 139.518 35.8763C140.4 35.2372 141.486 34.9358 142.575 35.0274C143.679 34.9541 144.787 35.0047 145.879 35.1783C148.663 35.8421 149.727 37.9473 149.972 40.6867C150.029 41.3178 149.98 41.9581 149.98 42.5944L150.089 42.6059ZM146.296 42.6226C146.218 41.6147 146.086 40.6117 145.899 39.618C145.796 39.1193 145.51 38.6767 145.095 38.3766C144.681 38.0765 144.168 37.9406 143.658 37.9954C142.434 37.9796 141.419 38.4346 141.31 39.6097C141.136 41.594 141.133 43.5892 141.299 45.5741C141.393 46.7646 142.354 47.2546 143.587 47.2566C144.117 47.3284 144.654 47.1941 145.087 46.8817C145.519 46.5693 145.813 46.1032 145.907 45.5807C146.12 44.6093 146.174 43.6028 146.296 42.6226Z" fill="#343434"/>
<path d="M151.156 35.4258C151.282 35.3813 151.411 35.3445 151.542 35.3156C152.696 35.3047 154.055 34.9208 154.944 35.3974C155.758 35.8336 156.081 37.1918 156.59 38.1591C157.063 39.058 157.497 39.9773 158.097 41.1877C158.944 39.4811 159.738 38.1438 160.275 36.7113C160.684 35.6197 161.24 35.1363 162.416 35.2601C163.206 35.3434 164.013 35.276 165.065 35.276C164.555 36.3188 164.171 37.1854 163.717 38.0138C163.035 39.259 162.257 40.455 161.623 41.7224C161.536 41.9374 161.494 42.1675 161.498 42.3991C161.502 42.6306 161.553 42.859 161.647 43.0708C162.554 44.9077 163.556 46.6976 164.499 48.517C164.702 48.9912 164.874 49.4776 165.016 49.9733C163.734 49.9733 162.637 50.0293 161.551 49.9377C161.243 49.9117 160.858 49.5091 160.703 49.1874C160.015 47.7613 159.411 46.2958 158.745 44.8588C158.577 44.5938 158.375 44.3516 158.144 44.1383C157.918 44.3501 157.606 44.5208 157.481 44.7811C156.662 46.4746 155.884 48.1873 155.081 49.9181H150.907C151.561 48.597 152.136 47.4063 152.738 46.2296C153.01 45.6193 153.346 45.0391 153.741 44.4988C155.148 42.7873 154.415 41.2938 153.442 39.7184C152.615 38.3788 151.953 36.9396 151.156 35.4258Z" fill="#343434"/>
<path d="M103.355 35.2286C103.507 35.6307 103.632 36.0423 103.73 36.4608C103.939 37.828 103.546 38.2643 102.149 38.2672C101.467 38.2686 100.784 38.2672 99.7871 38.2672C99.9095 40.8243 100.01 43.3213 100.162 45.8156C100.154 45.9529 100.178 46.0901 100.232 46.2166C100.286 46.3432 100.369 46.4556 100.474 46.5452C100.58 46.6348 100.704 46.6993 100.838 46.7335C100.973 46.7677 101.113 46.7708 101.249 46.7426C104.415 46.5682 104.069 46.7163 103.916 50.062C102.167 49.9559 100.399 49.9486 98.663 49.7133C98.0035 49.6161 97.404 49.2788 96.9814 48.7671C96.5588 48.2553 96.3433 47.6059 96.377 46.9452C96.2186 44.5529 96.1832 42.1523 96.1023 39.755C96.087 39.3013 96.1001 38.8466 96.1001 38.3246L93.7884 38.2188C93.8105 37.7641 93.8076 37.3085 93.7797 36.8542C93.6772 35.9466 94.0494 35.4712 94.9735 35.5399C95.9217 35.6098 96.1178 35.1366 96.1111 34.3113C96.0833 30.5982 95.7865 31.2542 99.462 31.2185C99.6069 31.2405 99.7498 31.2742 99.8892 31.3193V35.2286H103.355Z" fill="#343434"/>
<path d="M54.2016 40.0457C54.2016 42.4595 54.2016 44.8734 54.2016 47.2873C54.2372 48.2562 53.9958 49.2154 53.5053 50.054C53.0149 50.8927 52.2953 51.5766 51.4298 52.0268C47.32 54.3814 43.2025 56.7227 39.1054 59.0983C38.1903 59.6866 37.1231 59.9996 36.0327 59.9994C34.9423 59.9992 33.8752 59.6859 32.9603 59.0973C29.6799 57.188 26.364 55.3384 23.071 53.4503C21.9614 52.8563 20.8855 52.2024 19.848 51.4917C19.2032 51.0262 18.683 50.4113 18.3326 49.7006C17.9822 48.9899 17.8124 48.205 17.8379 47.4143C17.8246 42.6801 17.8779 37.9454 17.8154 33.2121C17.7607 32.0575 18.0556 30.913 18.6624 29.9261C19.2691 28.9393 20.1598 28.1553 21.2197 27.6751C23.7304 26.3137 26.1794 24.841 28.6696 23.4418C30.5361 22.3933 32.3836 21.2977 34.3178 20.3863C35.0255 20.0841 35.7981 19.9623 36.5654 20.032C37.3326 20.1018 38.0701 20.3607 38.7107 20.7854C42.1631 22.7395 45.6102 24.7028 49.052 26.6754C49.932 27.1778 50.818 27.672 51.6766 28.2088C52.4496 28.6502 53.0903 29.2878 53.5329 30.056C53.9755 30.8242 54.204 31.6955 54.195 32.5803C54.2199 35.0683 54.2016 37.5571 54.2016 40.0457ZM33.9676 40.3104V42.3303C33.9676 44.6303 33.9761 46.9313 33.9617 49.2315C33.9584 49.7583 34.1606 49.9954 34.6961 49.965C35.0343 49.9458 35.3746 49.962 35.7139 49.9617C37.329 49.9604 38.0527 49.241 38.0532 47.629C38.0543 41.9433 38.0543 36.2575 38.0532 30.5718C38.0532 30.441 38.0509 30.3101 38.0512 30.1791C38.0646 30.0949 38.0578 30.0087 38.0314 29.9276C38.0049 29.8465 37.9596 29.7727 37.8989 29.7122C37.8383 29.6518 37.7642 29.6064 37.6825 29.5798C37.6009 29.5532 37.514 29.546 37.4291 29.559C36.9959 29.5813 36.5619 29.5789 36.129 29.5518C35.8335 29.5182 35.5342 29.5513 35.2534 29.6488C34.9727 29.7464 34.7179 29.9057 34.5081 30.1149C34.2984 30.3242 34.1391 30.5778 34.0423 30.8568C33.9455 31.1358 33.9136 31.433 33.9492 31.726C34.0094 34.5865 33.9677 37.4488 33.9676 40.3104ZM40.881 42.7545C40.881 43.6526 40.881 44.5508 40.881 45.449C40.881 46.7214 40.8865 47.9937 40.8795 49.266C40.8769 49.7493 41.0599 50.0045 41.5859 49.966C41.9433 49.9352 42.3027 49.9352 42.6602 49.966C42.9741 50.0022 43.2922 49.9674 43.5907 49.8644C43.8891 49.7614 44.1603 49.5928 44.3838 49.3711C44.6073 49.1495 44.7774 48.8806 44.8813 48.5845C44.9853 48.2884 45.0204 47.9728 44.984 47.6614C44.9345 44.238 44.9667 40.8134 44.9667 37.39C44.9667 36.679 44.9724 35.968 44.9643 35.257C44.9571 34.616 44.8108 34.4791 44.1519 34.472C43.7559 34.4677 43.3599 34.4694 42.9637 34.472C42.6846 34.4445 42.4029 34.4786 42.1386 34.5717C41.8743 34.6649 41.6341 34.815 41.4352 35.011C41.2362 35.2071 41.0834 35.4444 40.9877 35.706C40.892 35.9675 40.8558 36.2468 40.8816 36.5238C40.8776 38.6007 40.8777 40.6776 40.881 42.7545ZM27.0913 46.2285V48.1943C27.0913 50.1431 27.1895 50.23 29.164 50.0323C29.6885 50.0129 30.1861 49.797 30.5564 49.428C30.9267 49.0591 31.1422 48.5645 31.1595 48.0441C31.1812 46.0417 31.1646 44.039 31.1665 42.0364C31.1665 41.5761 30.9545 41.3421 30.4785 41.3497C29.988 41.3574 29.4974 41.3464 29.0069 41.3518C28.7511 41.3353 28.4947 41.3732 28.2548 41.463C28.0149 41.5527 27.7971 41.6923 27.616 41.8723C27.4349 42.0523 27.2946 42.2687 27.2046 42.5068C27.1146 42.745 27.0769 42.9995 27.094 43.2533C27.0831 44.2451 27.0917 45.2371 27.0913 46.2285Z" fill="#343434"/>
</svg>
