<svg width="180" height="80" viewBox="0 0 180 80" fill="none" xmlns="http://www.w3.org/2000/svg">
<path d="M26.1397 21.6999V23.7934C26.1409 23.8226 26.1359 23.8518 26.1252 23.879C26.1144 23.9063 26.0981 23.9311 26.0772 23.9517C26.0564 23.9724 26.0314 23.9886 26.0039 23.9993C25.9764 24.0099 25.947 24.0148 25.9176 24.0137H16.848V28.2924H24.3445C24.374 28.2912 24.4034 28.2961 24.4309 28.3068C24.4583 28.3174 24.4833 28.3336 24.5042 28.3543C24.525 28.375 24.5414 28.3997 24.5521 28.427C24.5629 28.4542 24.5678 28.4834 24.5667 28.5127V30.6061C24.5678 30.6353 24.5629 30.6645 24.5521 30.6918C24.5414 30.719 24.525 30.7438 24.5042 30.7645C24.4833 30.7851 24.4583 30.8013 24.4309 30.812C24.4034 30.8226 24.374 30.8275 24.3445 30.8264H16.848V37.1617C16.8492 37.1909 16.8442 37.2201 16.8334 37.2474C16.8227 37.2746 16.8064 37.2994 16.7855 37.3201C16.7646 37.3408 16.7397 37.357 16.7122 37.3676C16.6847 37.3783 16.6553 37.3832 16.6258 37.3821H14.3303C14.3008 37.3832 14.2714 37.3783 14.244 37.3676C14.2165 37.357 14.1915 37.3408 14.1707 37.3201C14.1498 37.2994 14.1335 37.2746 14.1228 37.2473C14.112 37.2201 14.1071 37.1909 14.1083 37.1617V21.6999C14.1071 21.6707 14.1121 21.6416 14.1228 21.6143C14.1336 21.5871 14.1499 21.5623 14.1707 21.5416C14.1916 21.5209 14.2165 21.5048 14.244 21.4941C14.2715 21.4834 14.3008 21.4785 14.3303 21.4797H25.9176C25.947 21.4785 25.9764 21.4834 26.0039 21.4941C26.0314 21.5047 26.0564 21.5209 26.0772 21.5416C26.0981 21.5623 26.1144 21.587 26.1252 21.6143C26.1359 21.6415 26.1409 21.6707 26.1397 21.6999Z" fill="#343434"/>
<path d="M44.6688 37.4364H42.1694C42.1092 37.4382 42.0503 37.419 42.0029 37.382C41.9555 37.3451 41.9227 37.2929 41.9102 37.2344C41.577 35.9307 41.1698 34.5352 40.7069 33.1579H33.007C32.5442 34.5534 32.1369 35.9307 31.8223 37.2344C31.8097 37.2929 31.7769 37.3451 31.7296 37.382C31.6822 37.4189 31.6233 37.4382 31.5631 37.4364H29.1569C28.9902 37.4364 28.8977 37.3447 28.9532 37.1793C30.503 31.8978 32.4712 26.7462 34.8395 21.7726C34.8696 21.6812 34.9297 21.6026 35.0103 21.5493C35.0909 21.496 35.1872 21.4712 35.2838 21.4789H38.5415C38.6384 21.4687 38.7359 21.4925 38.8171 21.5461C38.8982 21.5998 38.9579 21.6799 38.9857 21.7726C41.354 26.7463 43.3222 31.8979 44.8719 37.1794C44.8837 37.2101 44.8872 37.2434 44.8823 37.2758C44.8773 37.3083 44.864 37.339 44.8435 37.3649C44.8231 37.3907 44.7963 37.4109 44.7657 37.4235C44.7351 37.436 44.7017 37.4405 44.6688 37.4364ZM39.8562 30.6793C39.0233 28.3839 38.0792 26.0702 37.1353 23.9767H36.5985C35.636 26.0702 34.7105 28.3839 33.859 30.6793H39.8562Z" fill="#343434"/>
<path d="M48.7774 29.5953C48.7774 24.6556 52.0723 21.185 56.755 21.185H57.1067C58.4073 21.1531 59.6922 21.4729 60.8236 22.1102C61.9549 22.7475 62.8902 23.6782 63.5291 24.8026C63.6031 24.9312 63.5846 25.0598 63.455 25.1148L61.4375 26.1063C61.4043 26.1288 61.3667 26.1439 61.3271 26.1505C61.2875 26.1572 61.2469 26.1552 61.2082 26.1447C61.1694 26.1342 61.1334 26.1155 61.1027 26.0899C61.072 26.0642 61.0473 26.0323 61.0302 25.9962C60.6438 25.2833 60.061 24.6941 59.3498 24.2975C58.6386 23.9008 57.8284 23.713 57.0136 23.7559H56.6618C53.7003 23.7559 51.6828 26.088 51.6828 29.4485C51.6828 32.8272 53.6818 35.1042 56.6618 35.1042H57.0136C57.7508 35.1537 58.4894 35.0317 59.1707 34.7479C59.8519 34.4642 60.457 34.0266 60.9376 33.4699C60.9777 33.4124 61.0387 33.3726 61.1078 33.3589C61.1769 33.3452 61.2486 33.3587 61.3079 33.3965L63.3815 34.4065C63.4131 34.4217 63.4401 34.4451 63.4596 34.4741C63.4791 34.5032 63.4905 34.5369 63.4925 34.5718C63.4924 34.6029 63.4858 34.6337 63.473 34.6621C63.4603 34.6906 63.4417 34.7161 63.4185 34.737C62.6836 35.7178 61.7165 36.5038 60.6028 37.0259C59.489 37.5479 58.2628 37.7898 57.0325 37.7302H56.6993C51.9427 37.7302 48.7774 34.4799 48.7774 29.5953Z" fill="#343434"/>
<path d="M81.8363 35.1042V37.1977C81.8375 37.2269 81.8326 37.2561 81.8218 37.2833C81.8111 37.3106 81.7948 37.3354 81.7739 37.3561C81.7531 37.3768 81.7281 37.393 81.7006 37.4036C81.6732 37.4143 81.6438 37.4192 81.6143 37.4181H69.5456C69.5162 37.4192 69.4868 37.4143 69.4593 37.4036C69.4318 37.393 69.4069 37.3768 69.386 37.3561C69.3652 37.3354 69.3488 37.3106 69.3381 37.2833C69.3274 37.2561 69.3224 37.2269 69.3236 37.1977V21.6999C69.3224 21.6707 69.3274 21.6415 69.3381 21.6143C69.3489 21.5871 69.3652 21.5623 69.3861 21.5416C69.4069 21.5209 69.4319 21.5048 69.4593 21.4941C69.4868 21.4834 69.5162 21.4785 69.5456 21.4797H81.4112C81.4407 21.4785 81.4701 21.4834 81.4976 21.4941C81.525 21.5048 81.55 21.5209 81.5708 21.5416C81.5917 21.5623 81.608 21.5871 81.6187 21.6143C81.6295 21.6415 81.6344 21.6707 81.6333 21.6999V23.7934C81.6344 23.8226 81.6295 23.8518 81.6187 23.879C81.608 23.9062 81.5917 23.931 81.5708 23.9517C81.55 23.9724 81.525 23.9886 81.4976 23.9992C81.4701 24.0099 81.4407 24.0148 81.4112 24.0137H72.0631V28.1638H79.6519C79.6813 28.1626 79.7107 28.1675 79.7382 28.1782C79.7657 28.1888 79.7907 28.205 79.8115 28.2257C79.8324 28.2464 79.8487 28.2712 79.8595 28.2984C79.8702 28.3257 79.8752 28.3548 79.874 28.3841V30.4591C79.8752 30.4883 79.8702 30.5175 79.8595 30.5448C79.8487 30.572 79.8324 30.5968 79.8115 30.6175C79.7907 30.6382 79.7657 30.6544 79.7382 30.6651C79.7107 30.6757 79.6813 30.6807 79.6519 30.6795H72.0445V34.8479H81.6143C81.675 34.8596 81.7299 34.8913 81.7702 34.9378C81.8105 34.9843 81.8338 35.0429 81.8363 35.1042Z" fill="#343434"/>
<path d="M102.605 33.0477C102.605 35.8388 100.439 37.4181 96.6259 37.4181H88.7222C88.6927 37.4192 88.6633 37.4143 88.6358 37.4036C88.6083 37.393 88.5834 37.3768 88.5625 37.3561C88.5416 37.3354 88.5253 37.3106 88.5145 37.2834C88.5038 37.2561 88.4988 37.2269 88.5 37.1977V21.6999C88.4988 21.6707 88.5038 21.6415 88.5145 21.6143C88.5253 21.587 88.5416 21.5623 88.5625 21.5416C88.5834 21.5209 88.6083 21.5047 88.6358 21.4941C88.6633 21.4834 88.6927 21.4785 88.7222 21.4797H95.9222C99.6427 21.4797 101.66 22.9302 101.66 25.6112C101.701 26.4152 101.449 27.2068 100.949 27.841C100.449 28.4751 99.7357 28.9092 98.9394 29.0635C99.9487 29.135 100.892 29.5882 101.574 30.3297C102.256 31.0711 102.625 32.0441 102.605 33.0477ZM95.867 23.9579H91.221V28.2365H95.867C97.9406 28.2365 98.9027 27.5571 98.9027 26.0879C98.9027 24.6188 97.9586 23.9579 95.867 23.9579ZM99.8096 32.8089C99.8096 31.3215 98.8285 30.6604 96.6443 30.6604H91.2394V34.9391H96.6443C98.8471 34.9391 99.8096 34.3142 99.8096 32.8089Z" fill="#343434"/>
<path d="M107.417 29.4486C107.351 28.3502 107.519 27.2504 107.911 26.2208C108.302 25.1913 108.908 24.2552 109.689 23.4737C110.47 22.6921 111.408 22.0827 112.442 21.6852C113.476 21.2877 114.583 21.1111 115.691 21.1668H116.043C117.151 21.1111 118.258 21.2877 119.292 21.6852C120.326 22.0827 121.264 22.6921 122.045 23.4737C122.826 24.2552 123.432 25.1913 123.823 26.2208C124.215 27.2504 124.383 28.3502 124.317 29.4486C124.383 30.547 124.215 31.6469 123.823 32.6764C123.432 33.706 122.826 34.642 122.045 35.4235C121.264 36.2051 120.326 36.8145 119.292 37.2119C118.258 37.6094 117.151 37.7861 116.043 37.7303H115.691C114.583 37.7861 113.476 37.6094 112.442 37.2119C111.408 36.8145 110.47 36.2051 109.689 35.4235C108.908 34.642 108.302 33.706 107.911 32.6764C107.519 31.6469 107.351 30.547 107.417 29.4486ZM116.043 35.1228C119.338 35.1228 121.429 32.8825 121.429 29.4486C121.429 26.0148 119.356 23.7743 116.043 23.7743H115.691C112.396 23.7743 110.305 26.0146 110.305 29.4486C110.305 32.8826 112.378 35.1228 115.691 35.1228H116.043Z" fill="#343434"/>
<path d="M128.981 29.4486C128.915 28.3502 129.083 27.2504 129.474 26.2208C129.866 25.1913 130.472 24.2552 131.252 23.4737C132.033 22.6921 132.971 22.0827 134.006 21.6852C135.04 21.2877 136.147 21.1111 137.255 21.1668H137.606C138.714 21.1111 139.821 21.2877 140.856 21.6852C141.89 22.0827 142.828 22.6921 143.609 23.4737C144.389 24.2552 144.995 25.1913 145.387 26.2208C145.778 27.2504 145.946 28.3502 145.88 29.4486C145.946 30.547 145.778 31.6469 145.387 32.6764C144.995 33.706 144.389 34.642 143.609 35.4236C142.828 36.2051 141.89 36.8145 140.855 37.2119C139.821 37.6094 138.714 37.7861 137.606 37.7303H137.255C136.147 37.7861 135.04 37.6094 134.006 37.2119C132.971 36.8145 132.033 36.2051 131.252 35.4235C130.472 34.642 129.866 33.706 129.474 32.6764C129.083 31.6469 128.915 30.547 128.981 29.4486ZM137.606 35.1228C140.901 35.1228 142.993 32.8825 142.993 29.4486C142.993 26.0148 140.919 23.7743 137.606 23.7743H137.255C133.96 23.7743 131.868 26.0146 131.868 29.4486C131.868 32.8826 133.942 35.1228 137.255 35.1228H137.606Z" fill="#343434"/>
<path d="M165.705 37.4364H162.744C162.663 37.446 162.582 37.4319 162.509 37.396C162.437 37.3601 162.377 37.3039 162.336 37.2344C160.297 34.8639 158.082 32.6482 155.71 30.6059H154.377V37.1981C154.378 37.2274 154.373 37.2566 154.363 37.2838C154.352 37.3111 154.336 37.3358 154.315 37.3565C154.294 37.3772 154.269 37.3934 154.241 37.4041C154.214 37.4148 154.185 37.4197 154.155 37.4186H151.878C151.849 37.4197 151.819 37.4148 151.792 37.4041C151.764 37.3934 151.739 37.3773 151.719 37.3565C151.698 37.3358 151.681 37.3111 151.671 37.2838C151.66 37.2566 151.655 37.2274 151.656 37.1981V21.7C151.655 21.6707 151.66 21.6416 151.671 21.6143C151.681 21.5871 151.698 21.5623 151.719 21.5416C151.739 21.5209 151.764 21.5048 151.792 21.4941C151.819 21.4834 151.849 21.4785 151.878 21.4797H154.155C154.184 21.4786 154.214 21.4835 154.241 21.4941C154.269 21.5048 154.294 21.521 154.315 21.5417C154.335 21.5624 154.352 21.5871 154.363 21.6144C154.373 21.6416 154.378 21.6708 154.377 21.7V27.9986H155.728C157.917 26.0655 159.925 23.9388 161.726 21.6448C161.762 21.5872 161.815 21.541 161.877 21.5118C161.94 21.4826 162.009 21.4714 162.077 21.4797H164.872C165.002 21.4797 165.076 21.5531 165.076 21.6448C165.072 21.7071 165.046 21.7658 165.002 21.8101C162.838 24.4929 160.435 26.9759 157.82 29.2288C160.704 31.6528 163.385 34.3058 165.835 37.1617C165.946 37.2896 165.89 37.4364 165.705 37.4364Z" fill="#343434"/>
<path d="M15.9294 58.6V50.3143H14.1083V48.9904H15.9294V47.7754C15.8643 46.8272 16.1805 45.8919 16.8087 45.1744C17.131 44.8684 17.5135 44.6315 17.9321 44.4786C18.3508 44.3257 18.7968 44.26 19.2422 44.2857C19.7832 44.2737 20.3229 44.342 20.8436 44.4881V45.8428C20.6033 45.7704 20.356 45.7234 20.1057 45.7027C19.8869 45.6768 19.6665 45.6664 19.4462 45.6715C19.1739 45.6362 18.8969 45.6642 18.6374 45.7535C18.3779 45.8427 18.1428 45.9906 17.9509 46.1856C17.759 46.3805 17.6154 46.6171 17.5316 46.8766C17.4478 47.1361 17.4261 47.4114 17.4681 47.6807V48.9891H20.7657V50.313H17.4681V58.5987L15.9294 58.6Z" fill="#343434"/>
<path d="M26.9038 58.8177C26.0208 58.841 25.1494 58.614 24.3919 58.1634C23.6894 57.7318 23.1193 57.1178 22.7433 56.3878C22.3606 55.576 22.1623 54.6907 22.1623 53.7945C22.1623 52.8983 22.3606 52.0131 22.7433 51.2013C23.1145 50.468 23.6857 49.8527 24.3919 49.4255C25.1495 48.975 26.0208 48.7481 26.9038 48.7714H27.0921C27.9752 48.7481 28.8466 48.975 29.6042 49.4255C30.3066 49.8573 30.8767 50.4713 31.2527 51.2013C31.6353 52.0131 31.8336 52.8984 31.8336 53.7945C31.8336 54.6907 31.6353 55.576 31.2527 56.3878C30.8815 57.121 30.3104 57.7362 29.6042 58.1634C28.8458 58.6121 27.9749 58.8389 27.0921 58.8177H26.9038ZM26.9195 57.4158H27.0923C27.5244 57.4356 27.9554 57.3575 28.3526 57.1875C28.7497 57.0175 29.1027 56.76 29.3846 56.4345C29.9359 55.6716 30.2323 54.7566 30.2323 53.8179C30.2323 52.8792 29.9359 51.9642 29.3846 51.2013C29.1017 50.877 28.7485 50.6204 28.3516 50.4505C27.9547 50.2805 27.5242 50.2018 27.0923 50.22H26.9195C26.4874 50.2002 26.0564 50.2782 25.6593 50.4482C25.2621 50.6183 24.9092 50.8758 24.6273 51.2013C24.0759 51.9641 23.7794 52.8792 23.7794 53.8179C23.7794 54.7566 24.0759 55.6717 24.6273 56.4345C24.9115 56.7572 25.2648 57.0128 25.6614 57.1826C26.058 57.3524 26.4878 57.4321 26.9195 57.4158Z" fill="#343434"/>
<path d="M34.7852 58.6V48.99H36.3239V50.6566C36.5837 50.0983 36.9838 49.6156 37.4856 49.2547C37.9705 48.9261 38.5472 48.7572 39.1342 48.7719C39.4248 48.7713 39.7145 48.8026 39.9982 48.8653V50.3917C39.8412 50.3762 39.6841 50.3606 39.5114 50.345C39.3388 50.3294 39.1658 50.3294 39.009 50.3294C38.6929 50.3176 38.3776 50.3679 38.0812 50.4775C37.7848 50.5871 37.5132 50.7538 37.282 50.968C36.8129 51.4455 36.4774 52.036 36.3086 52.6813V58.6H34.7852Z" fill="#343434"/>
<path d="M47.4395 58.5999V45.08H53.0446C54.2372 44.9985 55.4223 45.3226 56.4044 45.9989C56.7865 46.307 57.0896 46.7005 57.2888 47.1473C57.488 47.594 57.5777 48.0812 57.5505 48.5689C57.5685 49.2243 57.3879 49.87 57.0321 50.4224C56.6039 50.9958 55.9878 51.4033 55.2897 51.575C56.1797 51.6962 56.9975 52.1267 57.5975 52.7899C58.0787 53.4146 58.3282 54.1847 58.304 54.9705C58.329 55.48 58.2324 55.9881 58.0223 56.4536C57.8121 56.9191 57.4942 57.3288 57.0944 57.6495C56.0713 58.3554 54.8369 58.6958 53.5933 58.6151L47.4395 58.5999ZM52.9345 46.5601H49.0409V51.1082H53.0603C54.9599 51.1082 55.902 50.3449 55.902 48.8341C55.9264 48.5107 55.8721 48.1863 55.7437 47.8881C55.6152 47.5899 55.4164 47.3268 55.1639 47.1208C54.5032 46.6956 53.7197 46.4988 52.9345 46.5601ZM53.4997 52.5714H49.0409V57.12H53.5784C55.6193 57.12 56.6398 56.3567 56.6398 54.8458C56.6627 54.5279 56.6108 54.209 56.4882 53.9144C56.3656 53.6198 56.1756 53.3574 55.9333 53.1481C55.2098 52.6917 54.3531 52.4887 53.4997 52.5714Z" fill="#343434"/>
<path d="M64.5371 58.8178C64.0517 58.8492 63.5658 58.7668 63.1185 58.5774C62.6712 58.388 62.2751 58.0969 61.9622 57.7275C61.3181 56.8254 61.0076 55.7305 61.0829 54.6276V48.9897H62.6216V54.3944C62.565 55.1826 62.7629 55.9682 63.1868 56.6373C63.3931 56.8951 63.6595 57.0993 63.963 57.2322C64.2666 57.3651 64.5981 57.4229 64.9292 57.4004H65.102C65.7876 57.4133 66.4516 57.1621 66.9545 56.6996C67.4789 56.2201 67.8684 55.6136 68.0849 54.9395V48.9741H69.624V58.5841H68.0852V56.7618C67.7534 57.3639 67.2793 57.877 66.7035 58.2571C66.1164 58.6234 65.4346 58.8128 64.7411 58.8023L64.5371 58.8178Z" fill="#343434"/>
<path d="M76.5161 58.8178C75.7109 58.8871 74.9011 58.7502 74.1644 58.4202C73.4278 58.0902 72.7888 57.5782 72.3086 56.9331L73.3762 55.9985C73.7279 56.4868 74.1996 56.8776 74.7466 57.1339C75.2936 57.3902 75.8975 57.5034 76.501 57.4627H76.6738C77.2528 57.4944 77.8293 57.3649 78.338 57.0888C78.5226 56.984 78.6754 56.8319 78.7803 56.6485C78.8853 56.465 78.9386 56.2569 78.9346 56.046C78.9405 55.8699 78.9069 55.6948 78.8363 55.5332C78.7657 55.3716 78.6599 55.2275 78.5264 55.1114C78.1213 54.8245 77.653 54.6376 77.1605 54.5662L75.402 54.2079C73.5494 53.8342 72.6228 52.9775 72.6228 51.6222C72.6137 51.2173 72.7032 50.8162 72.8837 50.4528C73.0642 50.0895 73.3304 49.7748 73.6596 49.5352C74.4545 48.9737 75.4167 48.6939 76.3914 48.7408H76.5792C77.3003 48.6952 78.021 48.8363 78.6705 49.1503C79.3201 49.4643 79.8762 49.9404 80.2843 50.5319L79.2167 51.3891C78.9273 50.9647 78.5326 50.6214 78.0706 50.3922C77.5973 50.1801 77.0827 50.0737 76.5634 50.0808H76.3906C75.827 50.0543 75.2672 50.1837 74.7734 50.4545C74.5865 50.5542 74.4306 50.7027 74.3226 50.884C74.2147 51.0654 74.1589 51.2725 74.1612 51.4831C74.1552 51.638 74.1862 51.7921 74.2517 51.9329C74.3172 52.0737 74.4153 52.1971 74.538 52.2931C74.9206 52.5456 75.3549 52.7105 75.8097 52.7759L77.7249 53.1652C78.4705 53.2965 79.1686 53.6187 79.7502 54.0998C79.9957 54.3341 80.1873 54.6182 80.3119 54.9327C80.4366 55.2472 80.4913 55.5847 80.4724 55.9221C80.4816 56.3177 80.3969 56.71 80.2251 57.0671C80.0533 57.4243 79.7992 57.7363 79.4834 57.9781C78.677 58.5527 77.6952 58.8334 76.7042 58.7725H76.5157L76.5161 58.8178Z" fill="#343434"/>
<path d="M84.0679 46.9646C83.9234 46.9735 83.7786 46.9517 83.6432 46.9007C83.5079 46.8497 83.385 46.7705 83.283 46.6686C83.084 46.4582 82.9767 46.1784 82.9846 45.8899C82.9785 45.7468 83.0018 45.604 83.0531 45.4702C83.1044 45.3363 83.1826 45.2142 83.283 45.1112C83.4993 44.9207 83.7785 44.8154 84.0678 44.8154C84.357 44.8154 84.6363 44.9207 84.8526 45.1112C85.0515 45.3217 85.1586 45.6015 85.1508 45.8899C85.1568 46.033 85.1335 46.1758 85.0822 46.3097C85.031 46.4435 84.9528 46.5656 84.8526 46.6686C84.7505 46.7705 84.6277 46.8496 84.4924 46.9006C84.3571 46.9517 84.2124 46.9735 84.0679 46.9646ZM83.2986 58.5999V48.9899H84.8373V58.5999H83.2986Z" fill="#343434"/>
<path d="M88.3384 58.6V48.99H89.877V50.8123C90.2088 50.2103 90.6828 49.6971 91.2586 49.317C91.8458 48.9507 92.5275 48.7613 93.2211 48.7719H93.4095C93.8919 48.7453 94.374 48.8299 94.818 49.0191C95.262 49.2082 95.6558 49.4968 95.9686 49.8621C96.6237 50.7603 96.9454 51.8555 96.8793 52.9621V58.6H95.3407V53.1949C95.3937 52.409 95.2019 51.626 94.7912 50.952C94.5837 50.6964 94.3167 50.4948 94.0131 50.3645C93.7095 50.2343 93.3786 50.1793 93.0488 50.2044H92.8603C92.1746 50.1916 91.5106 50.4428 91.0077 50.9053C90.494 51.3873 90.106 51.9859 89.8773 52.6497V58.6151L88.3384 58.6Z" fill="#343434"/>
<path d="M104.305 58.8177C103.452 58.8377 102.609 58.622 101.872 58.1947C101.176 57.7715 100.615 57.1612 100.255 56.4345C99.8573 55.6139 99.6584 54.7126 99.6738 53.8022C99.6524 52.9014 99.8517 52.0088 100.255 51.2012C100.604 50.4682 101.16 49.8514 101.856 49.4255C102.572 48.9864 103.401 48.7644 104.243 48.787H104.431C105.227 48.7717 106.009 48.9942 106.676 49.4255C107.331 49.8629 107.844 50.4798 108.152 51.2012C108.516 52.0581 108.693 52.9818 108.67 53.9114V54.441H101.26C101.32 55.2622 101.664 56.0377 102.233 56.6371C102.514 56.9098 102.849 57.1223 103.216 57.2616C103.583 57.4009 103.975 57.464 104.368 57.447H104.541C105.04 57.4491 105.533 57.3428 105.985 57.1355C106.422 56.9376 106.809 56.6446 107.116 56.2784L108.105 57.2752C107.672 57.7639 107.136 58.152 106.535 58.4122C105.893 58.6961 105.197 58.8395 104.494 58.8328L104.305 58.8177ZM104.211 50.1577C103.84 50.1452 103.47 50.211 103.127 50.3506C102.783 50.4902 102.473 50.7004 102.217 50.9675C101.661 51.566 101.328 52.3357 101.275 53.1481H107.116C107.099 52.3729 106.829 51.6241 106.346 51.0142C106.113 50.7298 105.814 50.5039 105.476 50.355C105.138 50.2061 104.769 50.1383 104.4 50.1571L104.211 50.1577Z" fill="#343434"/>
<path d="M114.966 58.8178C114.16 58.8871 113.351 58.7502 112.614 58.4202C111.877 58.0902 111.238 57.5782 110.758 56.9331L111.826 55.9985C112.177 56.4868 112.649 56.8776 113.196 57.1339C113.743 57.3902 114.347 57.5034 114.951 57.4627H115.123C115.702 57.4944 116.279 57.3649 116.788 57.0888C116.972 56.984 117.125 56.8319 117.23 56.6485C117.335 56.465 117.388 56.2569 117.384 56.046C117.39 55.8699 117.356 55.6948 117.286 55.5332C117.215 55.3716 117.109 55.2275 116.976 55.1114C116.571 54.8245 116.103 54.6376 115.61 54.5662L113.852 54.2079C111.999 53.8342 111.072 52.9775 111.072 51.6222C111.063 51.2173 111.153 50.8162 111.333 50.4528C111.514 50.0895 111.78 49.7748 112.109 49.5352C112.904 48.9737 113.866 48.6939 114.841 48.7408H115.03C115.751 48.6952 116.471 48.8363 117.121 49.1503C117.77 49.4643 118.326 49.9404 118.735 50.5319L117.667 51.3891C117.378 50.9647 116.983 50.6214 116.521 50.3922C116.048 50.1801 115.533 50.0737 115.014 50.0808H114.841C114.277 50.0543 113.717 50.1837 113.224 50.4545C113.037 50.5542 112.881 50.7027 112.773 50.884C112.665 51.0654 112.609 51.2725 112.611 51.4831C112.605 51.638 112.637 51.7921 112.702 51.9329C112.768 52.0737 112.866 52.1971 112.988 52.2931C113.371 52.5456 113.805 52.7105 114.26 52.7759L116.175 53.1652C116.921 53.2965 117.619 53.6187 118.201 54.0998C118.446 54.3341 118.638 54.6182 118.762 54.9327C118.887 55.2472 118.942 55.5847 118.923 55.9221C118.932 56.3177 118.847 56.71 118.675 57.0671C118.504 57.4243 118.25 57.7363 117.934 57.9781C117.127 58.5527 116.146 58.8334 115.155 58.7725H114.966L114.966 58.8178Z" fill="#343434"/>
<path d="M125.139 58.8178C124.334 58.8871 123.524 58.7502 122.788 58.4202C122.051 58.0902 121.412 57.5782 120.932 56.9331L121.999 55.9985C122.351 56.4868 122.823 56.8776 123.37 57.1339C123.917 57.3902 124.521 57.5034 125.124 57.4627H125.297C125.876 57.4944 126.452 57.3649 126.961 57.0888C127.146 56.9841 127.299 56.832 127.404 56.6485C127.509 56.465 127.562 56.2569 127.558 56.0459C127.564 55.8699 127.53 55.6948 127.46 55.5332C127.389 55.3716 127.283 55.2275 127.15 55.1114C126.744 54.8246 126.276 54.6377 125.784 54.5662L124.025 54.2079C122.173 53.8342 121.246 52.9775 121.246 51.6222C121.237 51.2173 121.327 50.8161 121.507 50.4528C121.688 50.0895 121.954 49.7748 122.283 49.5352C123.078 48.9737 124.04 48.6939 125.015 48.7408H125.203C125.924 48.6952 126.645 48.8363 127.294 49.1503C127.944 49.4643 128.5 49.9404 128.908 50.5319L127.841 51.3891C127.551 50.9647 127.157 50.6214 126.695 50.3922C126.221 50.1801 125.707 50.0737 125.187 50.0808H125.015C124.451 50.0543 123.891 50.1837 123.397 50.4545C123.211 50.5542 123.055 50.7027 122.947 50.884C122.839 51.0654 122.783 51.2725 122.785 51.4831C122.779 51.638 122.81 51.7921 122.876 51.9329C122.941 52.0736 123.039 52.1971 123.162 52.2931C123.545 52.5455 123.979 52.7105 124.434 52.7759L126.349 53.1652C127.095 53.2965 127.793 53.6186 128.374 54.0998C128.62 54.3341 128.811 54.6182 128.936 54.9327C129.061 55.2472 129.115 55.5847 129.096 55.9221C129.106 56.3177 129.021 56.71 128.849 57.0671C128.677 57.4243 128.423 57.7363 128.107 57.9781C127.301 58.5528 126.319 58.8334 125.328 58.7725H125.14L125.139 58.8178Z" fill="#343434"/>
</svg>
