<svg width="94" height="94" viewBox="0 0 94 94" fill="none" xmlns="http://www.w3.org/2000/svg">
<path d="M48.3014 65.4431C48.1487 65.4431 47.9915 65.4182 47.8373 65.3667L42.1562 63.4735C41.3865 63.218 40.9709 62.3867 41.2279 61.6156C41.4849 60.8474 42.3118 60.4288 43.0859 60.6873L48.767 62.5805C49.5366 62.8361 49.9523 63.6674 49.6952 64.4385C49.4896 65.0539 48.9168 65.4431 48.3014 65.4431Z" fill="white"/>
<path d="M31.9188 52.8456C31.3034 52.8456 30.7306 52.4564 30.5249 51.841L28.6317 46.1613C28.3747 45.3917 28.7903 44.5589 29.56 44.3033C30.3325 44.0419 31.1624 44.462 31.4179 45.2316L33.3111 50.9112C33.5682 51.6809 33.1525 52.5136 32.3829 52.7692C32.2301 52.8221 32.073 52.8456 31.9188 52.8456Z" fill="white"/>
<path d="M42.6217 63.5497C42.469 63.5497 42.3118 63.5248 42.1576 63.4734C36.6953 61.6536 32.3478 57.3046 30.528 51.8423C30.271 51.0727 30.6881 50.2399 31.4578 49.9829C32.2259 49.7303 33.0587 50.143 33.3157 50.9126C34.8447 55.5039 38.4975 59.1567 43.0888 60.6871C43.8584 60.9427 44.2741 61.774 44.017 62.5451C43.8099 63.1605 43.2371 63.5497 42.6217 63.5497Z" fill="white"/>
<path d="M11.7502 65.4433C11.1347 65.4433 10.5619 65.054 10.3563 64.4386C10.0993 63.669 10.5149 62.8362 11.286 62.5807L16.9672 60.6875C17.7353 60.429 18.5681 60.8461 18.8251 61.6157C19.0822 62.3853 18.6665 63.2181 17.8954 63.4737L12.2143 65.3669C12.0601 65.4183 11.9029 65.4433 11.7502 65.4433Z" fill="white"/>
<path d="M28.1325 52.8456C27.9783 52.8456 27.8226 52.8207 27.6684 52.7692C26.8987 52.5137 26.4831 51.6824 26.7401 50.9113L28.6348 45.2316C28.8918 44.4635 29.7275 44.0478 30.4928 44.3034C31.2624 44.5589 31.678 45.3902 31.421 46.1613L29.5263 51.841C29.3207 52.4579 28.7479 52.8456 28.1325 52.8456Z" fill="white"/>
<path d="M17.4313 63.5501C16.8159 63.5501 16.2431 63.1609 16.0375 62.5455C15.7804 61.7758 16.1961 60.9431 16.9657 60.6875C21.5556 59.1571 25.2083 55.5043 26.7373 50.913C26.9929 50.1448 27.8213 49.7306 28.5953 49.9832C29.3649 50.2403 29.782 51.0716 29.525 51.8427C27.7052 57.3064 23.3577 61.6539 17.8954 63.4737C17.7427 63.5251 17.5855 63.5501 17.4313 63.5501Z" fill="white"/>
<path d="M17.4311 67.3362C17.2784 67.3362 17.1212 67.3112 16.967 67.2598L11.2859 65.3666C10.5163 65.111 10.0991 64.2797 10.3562 63.5086C10.6117 62.7405 11.4445 62.3219 12.2141 62.5804L17.8953 64.4736C18.6649 64.7292 19.082 65.5605 18.825 66.3316C18.6194 66.947 18.0465 67.3362 17.4311 67.3362Z" fill="white"/>
<path d="M30.0257 83.7186C29.4103 83.7186 28.8375 83.3293 28.6319 82.7139L26.7372 77.0313C26.4801 76.2617 26.8958 75.4289 27.6654 75.1734C28.4395 74.9134 29.2664 75.332 29.5234 76.1016L31.4181 81.7842C31.6751 82.5538 31.2595 83.3866 30.4898 83.6422C30.3371 83.6936 30.1799 83.7186 30.0257 83.7186Z" fill="white"/>
<path d="M28.1326 78.0364C27.5172 78.0364 26.9444 77.6471 26.7388 77.0317C25.2083 72.4419 21.557 68.7906 16.9672 67.2601C16.1976 67.0046 15.7819 66.1733 16.0389 65.4022C16.296 64.634 17.1258 64.2154 17.8969 64.4739C23.3577 66.2937 27.7052 70.6412 29.5265 76.102C29.7835 76.8716 29.3678 77.7044 28.5982 77.96C28.4425 78.0114 28.2854 78.0364 28.1326 78.0364Z" fill="white"/>
<path d="M26.6973 27.9062C25.8865 27.9062 25.2285 27.2497 25.2285 26.4375V11.75C25.2285 10.9378 25.8865 10.2812 26.6973 10.2812C27.508 10.2812 28.166 10.9378 28.166 11.75V26.4375C28.166 27.2497 27.508 27.9062 26.6973 27.9062Z" fill="white"/>
<path d="M34.041 20.5625H19.3535C18.5428 20.5625 17.8848 19.906 17.8848 19.0938C17.8848 18.2815 18.5428 17.625 19.3535 17.625H34.041C34.8518 17.625 35.5098 18.2815 35.5098 19.0938C35.5098 19.906 34.8518 20.5625 34.041 20.5625Z" fill="white"/>
<path d="M48.9536 39.9117C48.1429 39.9117 47.4849 39.2552 47.4849 38.443V29.043C47.4849 28.2308 48.1429 27.5742 48.9536 27.5742C49.7644 27.5742 50.4224 28.2308 50.4224 29.043V38.443C50.4224 39.2552 49.7644 39.9117 48.9536 39.9117Z" fill="white"/>
<path d="M53.6534 35.2134H44.2534C43.4427 35.2134 42.7847 34.5568 42.7847 33.7446C42.7847 32.9324 43.4427 32.2759 44.2534 32.2759H53.6534C54.4642 32.2759 55.1222 32.9324 55.1222 33.7446C55.1222 34.5568 54.4642 35.2134 53.6534 35.2134Z" fill="white"/>
<path d="M82.2498 48.4687C82.0956 48.4687 81.9399 48.4438 81.7857 48.3923L77.6952 47.0264C76.9256 46.7694 76.5099 45.9381 76.767 45.1684C77.024 44.3988 77.8524 43.9817 78.6249 44.2402L82.7154 45.6061C83.485 45.8632 83.9007 46.6945 83.6437 47.4641C83.438 48.0795 82.8637 48.4687 82.2498 48.4687Z" fill="white"/>
<path d="M70.4545 39.4008C69.8391 39.4008 69.2663 39.0116 69.0606 38.3962L67.6976 34.3058C67.4406 33.5361 67.8563 32.7033 68.6259 32.4478C69.3984 32.1878 70.2283 32.6064 70.4838 33.376L71.8468 37.4665C72.1039 38.2361 71.6882 39.0689 70.9186 39.3245C70.7658 39.3773 70.6087 39.4008 70.4545 39.4008Z" fill="white"/>
<path d="M78.1593 47.1028C78.0066 47.1028 77.8494 47.0778 77.6952 47.0279C73.6414 45.6781 70.4131 42.4512 69.0619 38.396C68.8049 37.6264 69.2205 36.7936 69.9901 36.538C70.7612 36.2795 71.5911 36.6967 71.8481 37.4663C72.9085 40.6491 75.4421 43.1812 78.6234 44.2387C79.3931 44.4957 79.8087 45.327 79.5532 46.0967C79.3475 46.715 78.7747 47.1028 78.1593 47.1028Z" fill="white"/>
<path d="M55.9328 48.4689C55.3188 48.4689 54.7446 48.0796 54.5389 47.4642C54.2819 46.6961 54.6976 45.8633 55.4672 45.6063L59.5577 44.2403C60.3273 43.9818 61.1586 44.3975 61.4171 45.1686C61.6741 45.9367 61.2585 46.7695 60.4888 47.0265L56.3984 48.3925C56.2427 48.4439 56.087 48.4689 55.9328 48.4689Z" fill="white"/>
<path d="M67.7287 39.4007C67.5759 39.4007 67.4188 39.3757 67.2646 39.3243C66.4949 39.0688 66.0793 38.2375 66.3363 37.4664L67.6993 33.3759C67.9563 32.6077 68.7862 32.1877 69.5573 32.4476C70.3269 32.7032 70.7426 33.5345 70.4855 34.3056L69.1225 38.3961C68.9169 39.013 68.3441 39.4007 67.7287 39.4007Z" fill="white"/>
<path d="M60.0234 47.1026C59.408 47.1026 58.8337 46.7134 58.6295 46.0965C58.374 45.3284 58.7896 44.4956 59.5592 44.2386C62.742 43.1796 65.2742 40.6489 66.3346 37.4661C66.5902 36.698 67.42 36.2794 68.1926 36.5379C68.9622 36.7935 69.3778 37.6248 69.1208 38.3959C67.7696 42.4511 64.5398 45.6779 60.486 47.0277C60.3333 47.0791 60.1761 47.1026 60.0234 47.1026Z" fill="white"/>
<path d="M78.1597 49.8319C77.5443 49.8319 76.9715 49.4427 76.7658 48.8273C76.5088 48.0576 76.9259 47.2249 77.6956 46.9678L81.786 45.6048C82.5556 45.3551 83.387 45.7649 83.644 46.5345C83.901 47.3042 83.4839 48.1369 82.7143 48.394L78.6238 49.757C78.4696 49.8069 78.3124 49.8319 78.1597 49.8319Z" fill="white"/>
<path d="M69.0915 61.6273C68.9387 61.6273 68.7816 61.6023 68.6273 61.5509C67.8577 61.2953 67.4421 60.464 67.6991 59.6929L69.0621 55.6025C69.3177 54.8343 70.1475 54.4142 70.9201 54.6742C71.6897 54.9298 72.1053 55.7611 71.8483 56.5322L70.4853 60.6226C70.2797 61.2381 69.7069 61.6273 69.0915 61.6273Z" fill="white"/>
<path d="M70.4543 57.5366C70.3015 57.5366 70.1444 57.5117 69.9901 57.4602C69.2205 57.2047 68.8049 56.3734 69.0619 55.6023C70.4131 51.5485 73.6414 48.3217 77.6952 46.969C78.4663 46.7149 79.2976 47.1276 79.5532 47.8972C79.8102 48.6654 79.3945 49.4981 78.6249 49.7552C75.4421 50.8171 72.91 53.3507 71.8496 56.532C71.6425 57.1474 71.0697 57.5366 70.4543 57.5366Z" fill="white"/>
<path d="M60.0236 49.8317C59.8708 49.8317 59.7137 49.8068 59.5595 49.7568L55.469 48.3938C54.6994 48.1368 54.2822 47.3055 54.5393 46.5344C54.7948 45.7662 55.6291 45.355 56.3972 45.6047L60.4877 46.9677C61.2573 47.2247 61.6745 48.056 61.4174 48.8271C61.2118 49.4425 60.639 49.8317 60.0236 49.8317Z" fill="white"/>
<path d="M69.0917 61.6274C68.4763 61.6274 67.9035 61.2382 67.6978 60.6228L66.3348 56.5323C66.0778 55.7627 66.4935 54.9299 67.2631 54.6743C68.0342 54.4144 68.864 54.833 69.1211 55.6026L70.484 59.6931C70.7411 60.4627 70.3254 61.2955 69.5558 61.551C69.4016 61.6024 69.2459 61.6274 69.0917 61.6274Z" fill="white"/>
<path d="M67.7287 57.5366C67.1133 57.5366 66.5404 57.1474 66.3348 56.532C65.2744 53.3507 62.7408 50.8156 59.558 49.7552C58.7884 49.4981 58.3727 48.6668 58.6298 47.8972C58.8868 47.1276 59.7225 46.7149 60.4877 46.969C64.5429 48.3202 67.7698 51.5485 69.121 55.6023C69.3781 56.3719 68.9624 57.2047 68.1928 57.4602C68.0386 57.5117 67.8814 57.5366 67.7287 57.5366Z" fill="white"/>
<path d="M65.4458 79.9864C64.6351 79.9864 63.9771 79.3299 63.9771 78.5177V69.1206C63.9771 68.3084 64.6351 67.6519 65.4458 67.6519C66.2566 67.6519 66.9146 68.3084 66.9146 69.1206V78.5177C66.9146 79.3299 66.2566 79.9864 65.4458 79.9864Z" fill="white"/>
<path d="M70.1461 75.2881H60.7461C59.9353 75.2881 59.2773 74.6316 59.2773 73.8193C59.2773 73.0071 59.9353 72.3506 60.7461 72.3506H70.1461C70.9568 72.3506 71.6148 73.0071 71.6148 73.8193C71.6148 74.6316 70.9583 75.2881 70.1461 75.2881Z" fill="white"/>
<path d="M37.5708 70.0432C37.1742 70.0432 36.8071 69.8831 36.528 69.6172C36.2489 69.3396 36.1021 68.9578 36.1021 68.5744C36.1021 68.1925 36.2489 67.8107 36.528 67.5316C37.0714 66.9882 38.0555 66.9882 38.5989 67.5316C38.878 67.8107 39.0396 68.1925 39.0396 68.5744C39.0396 68.9578 38.878 69.3396 38.6136 69.6172C38.3346 69.8831 37.9527 70.0432 37.5708 70.0432Z" fill="white"/>
<path d="M42.7289 67.2982C42.1135 67.2982 41.5407 66.909 41.3351 66.2936C41.0795 65.5239 41.4952 64.6912 42.2648 64.4341L47.8373 62.5776C48.6083 62.325 49.4382 62.7377 49.6952 63.5073C49.9508 64.277 49.5351 65.1097 48.7655 65.3668L43.1931 67.2233C43.0388 67.2747 42.8817 67.2982 42.7289 67.2982Z" fill="white"/>
<path d="M30.0259 83.7185C29.8731 83.7185 29.716 83.6936 29.5618 83.6422C28.7921 83.3866 28.375 82.5553 28.632 81.7842L30.5253 76.1016C30.9909 74.7063 31.6239 73.3697 32.4023 72.1301C32.8356 71.4413 33.7418 71.2386 34.4277 71.6689C35.1136 72.1007 35.3207 73.0084 34.8889 73.6943C34.2339 74.7357 33.7022 75.8593 33.3115 77.0313L31.4183 82.7139C31.2141 83.3293 30.6413 83.7185 30.0259 83.7185Z" fill="white"/>
</svg>
