<svg width="180" height="80" viewBox="0 0 180 80" fill="none" xmlns="http://www.w3.org/2000/svg">
<path d="M102.35 54.6467C102.113 54.6161 101.873 54.594 101.637 54.5539C100.696 54.4175 99.8045 54.0461 99.0475 53.4744C98.2905 52.9028 97.6924 52.1496 97.3093 51.2857C97.3006 51.2574 97.2944 51.2284 97.2907 51.199L99.4681 50.2599C99.6691 50.5863 99.8877 50.9018 100.123 51.205C100.41 51.552 100.771 51.8304 101.182 52.0193C101.592 52.2082 102.04 52.3028 102.492 52.2961C103.208 52.3328 103.916 52.1357 104.508 51.7351C104.831 51.4963 105.1 51.1924 105.297 50.8433C105.493 50.4942 105.613 50.1078 105.649 49.7094C105.719 49.1733 105.71 48.6267 105.73 48.0844C105.719 48.0259 105.698 47.9698 105.666 47.9193C105.608 47.9397 105.554 47.9686 105.504 48.005C105.026 48.4968 104.435 48.8662 103.781 49.0814C103.128 49.2967 102.431 49.3514 101.751 49.2409C100.584 49.0706 99.4974 48.552 98.6348 47.7539C97.7723 46.9558 97.1751 45.9162 96.9226 44.7731C96.6041 43.4282 96.7646 42.0153 97.3769 40.7744C97.9891 39.5334 99.0155 38.541 100.282 37.9656C100.95 37.6489 101.682 37.488 102.423 37.4951C102.992 37.4815 103.559 37.5803 104.089 37.7859C104.62 37.9915 105.104 38.2997 105.514 38.6926C105.553 38.7313 105.625 38.7373 105.681 38.7586C105.705 38.7091 105.722 38.6567 105.731 38.6027C105.737 38.3891 105.737 38.1754 105.733 37.9619C105.73 37.8533 105.756 37.7939 105.884 37.7946C106.596 37.7985 107.308 37.7985 108.021 37.7946C108.129 37.7946 108.179 37.8343 108.174 37.942C108.171 37.9937 108.174 38.0456 108.174 38.0974C108.174 41.2507 108.181 44.404 108.168 47.5573C108.178 48.3135 108.139 49.0696 108.052 49.821C107.972 50.9831 107.493 52.0829 106.695 52.9377C105.898 53.7925 104.829 54.3508 103.668 54.5197C103.373 54.5683 103.072 54.584 102.775 54.6169C102.75 54.6232 102.725 54.6332 102.703 54.6464L102.35 54.6467ZM103.024 46.9686C103.434 46.932 103.83 46.8091 104.188 46.6082C104.546 46.4073 104.856 46.1329 105.099 45.8034C105.597 45.1535 105.886 44.3699 105.928 43.5546C105.971 42.7394 105.765 41.9303 105.337 41.2329C105.088 40.8019 104.736 40.4381 104.313 40.1734C103.889 39.9086 103.406 39.751 102.907 39.7144C102.408 39.6777 101.907 39.7631 101.449 39.9631C100.99 40.1631 100.588 40.4715 100.278 40.8614C99.8302 41.3944 99.5348 42.037 99.423 42.722C99.3112 43.4071 99.3871 44.1093 99.6427 44.7553C99.8846 45.4404 100.346 46.0279 100.957 46.4276C101.568 46.8274 102.294 47.0174 103.024 46.9686Z" fill="#343434"/>
<path d="M66.3941 41.8C66.2835 41.7924 66.1951 41.7811 66.1061 41.781C64.2698 41.7799 62.4335 41.7796 60.5974 41.7801C60.3286 41.7801 60.3284 41.7801 60.3284 41.5168C60.3284 40.8757 60.3322 40.2347 60.3255 39.5937C60.3239 39.4403 60.361 39.3761 60.5307 39.3763C63.236 39.3805 65.9413 39.3802 68.6467 39.3751C68.8807 39.3751 68.8779 39.5214 68.8843 39.6641C68.9051 40.1227 68.9237 40.5817 68.9263 41.0405C68.9305 42.0046 68.7848 42.9634 68.4943 43.8834C68.2183 44.8112 67.7538 45.6732 67.1295 46.4164C66.424 47.1944 65.5647 47.82 64.605 48.2544C63.6298 48.7239 62.5783 49.0181 61.4995 49.1233C60.1641 49.2918 58.8077 49.1736 57.5223 48.7768C56.2368 48.38 55.0524 47.7137 54.0491 46.8232C53.083 46.0111 52.3008 45.0054 51.7541 43.8722C51.2073 42.739 50.9082 41.504 50.8764 40.248C50.8447 38.9921 51.0809 37.7437 51.5697 36.5848C52.0585 35.4258 52.7888 34.3825 53.7127 33.5233C55.4144 31.8872 57.6781 30.9522 60.0473 30.9065C62.4165 30.8609 64.715 31.7081 66.4795 33.2774C66.5272 33.3138 66.5788 33.345 66.6334 33.3703L64.8562 35.1274C64.6348 34.9587 64.3994 34.764 64.1487 34.5907C63.2572 33.9771 62.2291 33.5871 61.1524 33.454C60.0757 33.321 58.9826 33.4488 57.9666 33.8266C56.9506 34.2043 56.0421 34.8208 55.3188 35.6232C54.5956 36.4255 54.0792 37.3898 53.8138 38.4335C53.4474 39.814 53.5288 41.2739 54.0464 42.6059C54.5639 43.9379 55.4914 45.0742 56.697 45.8535C57.6718 46.466 58.792 46.8129 59.9449 46.8594C61.1353 46.942 62.3262 46.7052 63.3925 46.1737C64.1732 45.8014 64.8496 45.2443 65.3619 44.5514C65.8742 43.8585 66.2068 43.0511 66.3301 42.2005C66.3514 42.0744 66.3705 41.9485 66.3941 41.8Z" fill="#343434"/>
<path d="M145.799 48.8393C145.718 48.843 145.655 48.8484 145.592 48.8486C144.985 48.8486 144.377 48.843 143.77 48.8527C143.7 48.8643 143.629 48.8488 143.571 48.8095C143.513 48.7702 143.473 48.7101 143.459 48.6419C142.992 47.3187 142.513 45.9997 142.046 44.677C142.033 44.6055 141.993 44.5416 141.934 44.4988C141.874 44.456 141.801 44.4375 141.728 44.4472C139.572 44.4551 137.416 44.4556 135.26 44.4487C135.191 44.4381 135.121 44.4543 135.063 44.4938C135.006 44.5334 134.966 44.5933 134.952 44.6611C134.477 45.9883 133.989 47.3106 133.512 48.637C133.499 48.7053 133.459 48.7659 133.402 48.8061C133.345 48.8463 133.274 48.8632 133.204 48.8532C132.597 48.8423 131.989 48.849 131.382 48.849H131.153C131.274 48.5317 131.383 48.2436 131.493 47.9556C133.403 42.9317 135.312 37.9074 137.22 32.8827C137.234 32.8114 137.276 32.7481 137.335 32.7059C137.395 32.6636 137.468 32.6454 137.541 32.6552C138.175 32.6677 138.808 32.6652 139.442 32.6564C139.508 32.647 139.576 32.6626 139.631 32.7003C139.686 32.738 139.725 32.795 139.74 32.8599C141.346 37.0928 142.954 41.3247 144.565 45.5554C144.961 46.5952 145.355 47.6352 145.749 48.6757C145.767 48.7224 145.778 48.7713 145.799 48.8393ZM135.739 42.5284H141.221C141.203 42.4593 141.193 42.4034 141.174 42.351C140.32 40.0134 139.465 37.6764 138.608 35.34C138.573 35.2778 138.529 35.2215 138.476 35.173C138.437 35.2274 138.397 35.2813 138.359 35.3367C138.349 35.3536 138.342 35.3717 138.337 35.3904C137.527 37.6062 136.717 39.8221 135.907 42.0379C135.851 42.1937 135.8 42.3517 135.739 42.5284Z" fill="#343434"/>
<path d="M155.702 39.2925C155.68 38.8744 155.659 38.4563 155.637 38.0381C155.631 37.9349 155.616 37.8321 155.616 37.7291C155.614 36.1171 155.618 34.5051 155.61 32.8931C155.61 32.7012 155.67 32.6524 155.855 32.6562C156.384 32.6671 156.914 32.6654 157.443 32.6562C157.608 32.6535 157.669 32.6946 157.669 32.8718C157.665 38.1289 157.665 43.3857 157.669 48.6421C157.669 48.8039 157.619 48.8541 157.457 48.8514C156.955 48.8428 156.451 48.8418 155.948 48.8514C155.771 48.8548 155.704 48.8034 155.71 48.6221C155.721 48.2534 155.716 47.8841 155.71 47.5152C155.698 47.4505 155.677 47.3879 155.647 47.3295C155.589 47.3621 155.535 47.4026 155.489 47.4499C155.149 47.9119 154.718 48.3008 154.223 48.5932C153.728 48.8856 153.178 49.0755 152.607 49.1514C151.284 49.3354 149.939 49.0184 148.841 48.2634C147.743 47.5084 146.972 46.3709 146.681 45.0772C146.444 44.2504 146.376 43.3848 146.481 42.5315C146.586 41.6782 146.862 40.8544 147.294 40.1086C147.636 39.471 148.112 38.9133 148.689 38.4728C149.266 38.0322 149.932 37.719 150.641 37.5541C151.425 37.3488 152.249 37.35 153.033 37.5576C153.816 37.7652 154.531 38.172 155.108 38.7378C155.245 38.8853 155.374 39.0396 155.495 39.1999C155.539 39.2455 155.586 39.2881 155.636 39.3274L155.702 39.2925ZM155.699 43.3279L155.749 43.3216C155.705 42.8542 155.629 42.3902 155.522 41.9328C155.365 41.2403 154.992 40.6144 154.457 40.1433C153.922 39.6722 153.251 39.3798 152.539 39.3072C151.877 39.1976 151.197 39.2946 150.592 39.5849C149.988 39.8752 149.489 40.3445 149.165 40.9279C148.706 41.6365 148.46 42.4603 148.457 43.3025C148.453 44.1448 148.692 44.9706 149.145 45.6831C149.436 46.1785 149.848 46.5933 150.343 46.8894C150.838 47.1854 151.4 47.3532 151.978 47.3773C152.556 47.4015 153.13 47.2811 153.648 47.0274C154.167 46.7736 154.613 46.3946 154.945 45.9252C155.481 45.1675 155.747 44.2528 155.699 43.3279Z" fill="#343434"/>
<path d="M117.225 45.1678C117.542 45.8718 118.117 46.4302 118.833 46.7299C119.521 47.0019 120.278 47.0488 120.995 46.8638C121.711 46.6788 122.35 46.2715 122.817 45.7013C122.925 45.5763 123.03 45.3812 123.159 45.3599C123.277 45.3406 123.429 45.5112 123.563 45.6028C124.06 45.9466 124.556 46.2926 125.076 46.6545C124.971 46.7953 124.876 46.9315 124.772 47.0596C124.089 47.927 123.172 48.5841 122.127 48.9544C121.082 49.3247 119.953 49.393 118.871 49.1513C117.788 48.9096 116.797 48.3678 116.013 47.5891C115.229 46.8104 114.685 45.8268 114.442 44.7528C114.24 43.9132 114.216 43.0411 114.371 42.1918C114.527 41.3424 114.858 40.5344 115.345 39.8189C115.851 39.0803 116.539 38.4815 117.342 38.0788C118.146 37.6761 119.04 37.4826 119.939 37.5165C120.839 37.5504 121.715 37.8107 122.486 38.2728C123.256 38.7349 123.896 39.3837 124.344 40.1583C124.632 40.6796 124.892 41.2152 125.124 41.763C125.201 41.9202 125.081 41.9363 124.988 41.9745C123.982 42.387 122.975 42.799 121.969 43.2106C120.45 43.832 118.931 44.4536 117.412 45.0752C117.354 45.0999 117.298 45.1318 117.225 45.1678ZM116.801 43.0836L116.879 43.1139L122.267 40.9365C122.216 40.8344 122.158 40.7354 122.095 40.64C121.823 40.2635 121.45 39.9705 121.018 39.7948C120.586 39.6191 120.113 39.5677 119.653 39.6465C118.989 39.7383 118.369 40.03 117.878 40.4822C117.386 40.9344 117.047 41.5253 116.904 42.175C116.854 42.4759 116.819 42.7792 116.801 43.0836Z" fill="#343434"/>
<path d="M82.0639 43.2954C82.098 44.4397 81.784 45.5677 81.1628 46.5324C80.5415 47.4972 79.6418 48.2539 78.5808 48.7041C77.672 49.111 76.6701 49.2692 75.6789 49.1625C74.3487 49.065 73.0953 48.5072 72.1374 47.5865C71.1794 46.6658 70.5777 45.4407 70.4373 44.1248C70.2404 42.7952 70.5003 41.4386 71.1752 40.2734C71.5915 39.5272 72.1769 38.8871 72.8851 38.4036C73.5933 37.9201 74.405 37.6063 75.2563 37.487C76.0403 37.3496 76.8445 37.3741 77.6187 37.5588C78.3928 37.7436 79.1202 38.0846 79.7555 38.5607C80.3909 39.0368 80.9204 39.6377 81.3112 40.3259C81.702 41.0141 81.9456 41.7748 82.0269 42.5605C82.0404 42.6823 82.0557 42.8043 82.0614 42.9265C82.0672 43.0488 82.0639 43.1724 82.0639 43.2954ZM72.9157 43.3395C72.9279 43.479 72.9384 43.6724 72.9624 43.8643C73.04 44.6371 73.3858 45.3592 73.9407 45.907C74.4956 46.4548 75.2251 46.7944 76.0045 46.8677C76.5155 46.929 77.0338 46.8583 77.5093 46.6626C77.9847 46.4668 78.4012 46.1526 78.7183 45.7504C79.1191 45.2438 79.3886 44.6474 79.5031 44.0135C79.6175 43.3796 79.5736 42.7275 79.375 42.1144C79.244 41.609 78.9903 41.1432 78.6362 40.7574C78.282 40.3716 77.8381 40.0776 77.3431 39.9011C76.8481 39.7245 76.3172 39.6708 75.7965 39.7446C75.2758 39.8184 74.7812 40.0175 74.3558 40.3244C73.8869 40.6731 73.5107 41.1299 73.2598 41.6552C73.0089 42.1806 72.8908 42.7587 72.9157 43.3395Z" fill="#343434"/>
<path d="M95.3169 43.59C95.2678 45.0055 94.6981 46.3542 93.7153 47.3815C92.7325 48.4087 91.4047 49.0436 89.9824 49.166C88.5601 49.2885 87.1418 48.8902 85.9952 48.0463C84.8487 47.2024 84.0532 45.9713 83.759 44.5854C83.5029 43.5363 83.5464 42.437 83.8847 41.411C84.2229 40.385 84.8426 39.4728 85.6742 38.7766C86.5403 38.0249 87.6206 37.559 88.7655 37.4434C90.1291 37.28 91.5072 37.5989 92.6572 38.3441C93.8071 39.0893 94.6553 40.213 95.0525 41.5174C95.2506 42.1901 95.3399 42.8896 95.3169 43.59ZM89.4882 39.7127C89.0727 39.7087 88.6605 39.7867 88.2756 39.9422C87.8908 40.0978 87.5409 40.3277 87.2466 40.6187C86.8126 41.0476 86.4917 41.5758 86.3121 42.1569C86.1326 42.7379 86.1 43.3538 86.2173 43.9503C86.3111 44.7045 86.6615 45.4045 87.2105 45.9345C87.7594 46.4646 88.4742 46.7931 89.2368 46.8657C89.7384 46.9214 90.246 46.8507 90.7127 46.6604C91.1795 46.47 91.5904 46.1661 91.9076 45.7766C92.3051 45.3014 92.5819 44.7385 92.7147 44.1352C92.8475 43.5319 92.8324 42.9058 92.6708 42.3094C92.5262 41.5776 92.1296 40.9184 91.549 40.4447C90.9685 39.971 90.2399 39.7122 89.4882 39.7127Z" fill="#343434"/>
<path d="M159.443 46.0856L161.27 45.3337C161.335 45.4578 161.393 45.5712 161.453 45.6835C161.715 46.2291 162.135 46.6844 162.66 46.9908C163.184 47.2972 163.789 47.4406 164.397 47.4025C164.995 47.4182 165.581 47.2415 166.069 46.8988C166.239 46.7702 166.376 46.6034 166.469 46.412C166.562 46.2206 166.608 46.0102 166.603 45.7978C166.598 45.5855 166.542 45.3773 166.441 45.1904C166.339 45.0035 166.194 44.8432 166.018 44.7225C165.595 44.4777 165.133 44.3074 164.652 44.2191C163.881 44.0276 163.103 43.8595 162.346 43.6265C161.629 43.4084 160.982 43.0097 160.467 42.4694C160.029 41.969 159.79 41.3265 159.797 40.6634C159.804 40.0004 160.055 39.3628 160.504 38.8712C161.166 38.1708 162.041 37.7036 162.995 37.5406C164.157 37.2869 165.371 37.4058 166.461 37.8802C167.33 38.2469 168.031 38.9201 168.429 39.7698C168.456 39.8269 168.478 39.8872 168.513 39.9698L166.753 40.6905C166.734 40.6688 166.716 40.6454 166.7 40.6206C166.544 40.2726 166.301 39.9697 165.994 39.7399C165.687 39.5101 165.327 39.3609 164.947 39.3064C164.274 39.1562 163.571 39.2065 162.926 39.4509C162.661 39.558 162.42 39.715 162.215 39.9132C162.1 40.0294 162.012 40.1696 161.959 40.3235C161.906 40.4775 161.888 40.6413 161.907 40.803C161.925 40.9647 161.98 41.1202 162.067 41.2581C162.155 41.396 162.272 41.5129 162.41 41.6001C162.801 41.8353 163.233 41.9952 163.684 42.0715C164.569 42.2891 165.464 42.4757 166.334 42.7401C166.833 42.8698 167.293 43.1181 167.674 43.4636C168.056 43.8091 168.346 44.2413 168.522 44.7231C168.764 45.3833 168.773 46.1059 168.546 46.7716C168.319 47.4373 167.87 48.0064 167.273 48.3849C166.558 48.8685 165.723 49.1493 164.859 49.1971C163.987 49.2884 163.104 49.1802 162.281 48.8809C161.644 48.6257 161.065 48.247 160.578 47.767C160.091 47.287 159.705 46.7154 159.443 46.0856Z" fill="#343434"/>
<path d="M110.207 40.1345V31.7226C110.207 31.4655 110.207 31.4655 110.46 31.4655C111.14 31.4655 111.82 31.4723 112.499 31.4611C112.692 31.4579 112.739 31.5182 112.739 31.7026C112.734 34.3381 112.733 36.9737 112.735 39.6093C112.735 42.5816 112.735 45.5539 112.735 48.5262C112.735 48.8022 112.735 48.8023 112.46 48.8023C111.781 48.8023 111.101 48.7965 110.422 48.8065C110.244 48.8091 110.204 48.7518 110.204 48.5848C110.209 45.7681 110.21 42.9513 110.207 40.1345Z" fill="#343434"/>
<path d="M11.8936 44.8531L21.6948 28.0103L30.1877 32.875L20.3877 49.7178" fill="#333333"/>
<path d="M40.0711 44.7943L30.2637 27.9456C29.9641 27.3784 29.5546 26.8756 29.0586 26.4658C28.5626 26.056 27.99 25.7474 27.3736 25.5576C26.7571 25.3679 26.109 25.3007 25.4663 25.36C24.8236 25.4193 24.1991 25.6039 23.6285 25.9032C23.0578 26.2024 22.5524 26.6105 22.1411 27.104C21.7298 27.5975 21.4208 28.1667 21.2317 28.7789C21.0426 29.3911 20.9773 30.0344 21.0393 30.6717C21.1014 31.3091 21.2897 31.928 21.5934 32.493C21.6489 32.5972 21.7086 32.6989 21.7708 32.7994L31.578 49.6483C31.8926 50.2058 32.3147 50.6963 32.8203 51.092C33.326 51.4876 33.9052 51.7806 34.525 51.9541C35.1447 52.1277 35.7929 52.1784 36.4324 52.1035C37.072 52.0285 37.6903 51.8293 38.2523 51.5173C38.8142 51.2053 39.3087 50.7865 39.7075 50.2848C40.1063 49.7832 40.4016 49.2086 40.5765 48.5937C40.7515 47.9789 40.8026 47.3359 40.7271 46.7014C40.6515 46.067 40.4508 45.4535 40.1362 44.896C40.1145 44.8577 40.093 44.8206 40.0711 44.7834V44.7943Z" fill="#4D4D4D"/>
<path d="M16.1889 52.1122C18.8971 52.1122 21.0925 49.9342 21.0925 47.2475C21.0925 44.5608 18.8971 42.3828 16.1889 42.3828C13.4807 42.3828 11.2853 44.5608 11.2853 47.2475C11.2853 49.9342 13.4807 52.1122 16.1889 52.1122Z" fill="#4D4D4D"/>
</svg>
