<svg width="180" height="80" viewBox="0 0 180 80" fill="none" xmlns="http://www.w3.org/2000/svg">
<path fill-rule="evenodd" clip-rule="evenodd" d="M41.2258 29.0686V39.1272H32.0501V29.0686H27.6941V53.0757H32.0501V43.3457H41.2258V53.0757H45.5818V29.0686H41.2258Z" fill="#343434"/>
<path fill-rule="evenodd" clip-rule="evenodd" d="M59.522 45.3164C59.5294 45.7905 59.4417 46.2613 59.2639 46.7014C59.0862 47.1416 58.8219 47.5422 58.4866 47.8801C58.1513 48.2179 57.7515 48.4863 57.3107 48.6694C56.8698 48.8525 56.3967 48.9469 55.9187 48.9469C55.4408 48.9469 54.9676 48.8525 54.5267 48.6694C54.0859 48.4863 53.6862 48.2179 53.3508 47.8801C53.0155 47.5422 52.7513 47.1416 52.5735 46.7014C52.3957 46.2613 52.308 45.7905 52.3154 45.3164V35.0339H48.1892V45.3164C48.1739 46.3329 48.3625 47.3423 48.744 48.2859C49.1255 49.2294 49.6924 50.0883 50.4116 50.8125C51.1308 51.5368 51.9879 52.1119 52.9332 52.5044C53.8785 52.897 54.8931 53.0992 55.9178 53.0992C56.9426 53.0992 57.9572 52.897 58.9025 52.5044C59.8478 52.1119 60.7049 51.5368 61.4241 50.8125C62.1433 50.0883 62.7102 49.2294 63.0917 48.2859C63.4732 47.3423 63.6618 46.3329 63.6465 45.3164V35.0339H59.522V45.3164Z" fill="#343434"/>
<path fill-rule="evenodd" clip-rule="evenodd" d="M90.1357 36.0929C90.0989 35.7101 90.1497 35.3239 90.2842 34.9632C90.4187 34.6025 90.6336 34.2766 90.9127 34.0098C91.1919 33.7429 91.5281 33.542 91.8964 33.4219C92.2647 33.3019 92.6556 33.2658 93.0399 33.3165C94.5516 33.5057 95.9389 34.2445 96.9333 35.3899L99.6388 32.1798C98.8704 31.2397 97.9065 30.4751 96.8131 29.9383C95.7196 29.4015 94.5223 29.1051 93.3028 29.0693C88.8143 29.0693 85.5801 31.7122 85.5801 36.0929C85.5801 44.2192 95.4487 41.6432 95.4487 46.1929C95.3971 46.9181 95.0673 47.5961 94.5271 48.0874C93.987 48.5787 93.2776 48.8459 92.5449 48.8342C90.1023 48.8342 89.3094 47.6302 88.1878 46.3595L85.1841 49.5023C86.004 50.614 87.0772 51.5178 88.3161 52.1398C89.555 52.7618 90.9246 53.0846 92.3131 53.0818C96.5707 53.0818 100.003 50.4061 100.003 46.2246C100.003 37.1961 90.1357 40.0055 90.1357 36.0929Z" fill="#343434"/>
<path fill-rule="evenodd" clip-rule="evenodd" d="M151.187 49.2407C148.746 49.2407 148.053 48.178 148.053 46.5497V39.3403H151.847V35.6865H148.053V30.8682L143.862 32.762V47.4467C143.862 51.2013 146.435 53.0956 149.966 53.0956C150.519 53.1058 151.072 53.0613 151.617 52.9629L152.64 49.1753C152.178 49.2073 151.65 49.2407 151.187 49.2407Z" fill="#343434"/>
<path fill-rule="evenodd" clip-rule="evenodd" d="M75.2221 48.9023C74.2771 48.916 73.3492 48.6504 72.5567 48.1395C71.7642 47.6285 71.1427 46.8953 70.7715 46.0329C70.4002 45.1706 70.296 44.2182 70.4719 43.2969C70.6478 42.3756 71.096 41.5271 71.7595 40.8592C72.4229 40.1913 73.2717 39.7344 74.1977 39.5464C75.1237 39.3584 76.0851 39.448 76.9596 39.8037C77.8342 40.1594 78.5823 40.7651 79.1089 41.5438C79.6354 42.3225 79.9166 43.239 79.9165 44.1767C79.9256 45.4209 79.4361 46.6177 78.5558 47.5039C77.6754 48.3901 76.4763 48.8931 75.2221 48.9023ZM75.2481 35.1543C74.3444 35.1159 73.443 35.2712 72.6053 35.6096C71.7676 35.948 71.0133 36.4616 70.3937 37.1153V29.2124H66.2544V43.8588C66.2544 49.3407 70.1914 53.0953 74.6153 53.0953C75.8153 53.109 77.0062 52.8877 78.1199 52.4441C79.2335 52.0004 80.248 51.3431 81.1051 50.5098C81.9622 49.6766 82.6452 48.6837 83.1149 47.5881C83.5845 46.4925 83.8317 45.3158 83.8421 44.1253C83.9006 41.8052 83.0282 39.557 81.4167 37.8748C79.8051 36.1925 77.5866 35.2143 75.2481 35.1543Z" fill="#343434"/>
<path fill-rule="evenodd" clip-rule="evenodd" d="M111.562 48.5831C110.617 48.5968 109.689 48.3313 108.896 47.8204C108.104 47.3094 107.482 46.5761 107.111 45.7138C106.74 44.8515 106.636 43.8991 106.812 42.9778C106.988 42.0565 107.436 41.208 108.099 40.5401C108.763 39.8722 109.611 39.4153 110.537 39.2273C111.463 39.0393 112.425 39.1288 113.299 39.4845C114.174 39.8402 114.922 40.4459 115.448 41.2246C115.975 42.0032 116.256 42.9197 116.256 43.8574C116.265 45.1016 115.776 46.2984 114.895 47.1846C114.015 48.0708 112.816 48.5739 111.562 48.5831ZM120.182 43.9088C120.171 42.7183 119.924 41.5416 119.455 40.446C118.985 39.3504 118.302 38.3575 117.445 37.5243C116.588 36.691 115.573 36.0337 114.46 35.59C113.346 35.1464 112.155 34.9251 110.955 34.9388C106.531 34.9388 102.594 38.6934 102.594 44.1753V58.8221H106.733V50.9188C107.352 51.5727 108.107 52.0864 108.944 52.4249C109.782 52.7633 110.684 52.9187 111.587 52.8803C113.926 52.8201 116.145 51.8414 117.756 50.1592C119.368 48.477 120.24 46.2289 120.182 43.9088Z" fill="#343434"/>
<path fill-rule="evenodd" clip-rule="evenodd" d="M132.156 48.4991C131.215 48.5127 130.292 48.2483 129.503 47.7396C128.714 47.2309 128.095 46.5008 127.726 45.6423C127.356 44.7838 127.252 43.8356 127.427 42.9184C127.603 42.0012 128.049 41.1565 128.709 40.4916C129.37 39.8268 130.215 39.3718 131.137 39.1848C132.059 38.9977 133.016 39.0869 133.886 39.441C134.757 39.7951 135.502 40.3982 136.026 41.1735C136.55 41.9487 136.83 42.8612 136.83 43.7947C136.839 45.0333 136.351 46.2248 135.475 47.107C134.599 47.9892 133.405 48.4899 132.156 48.4991ZM133.555 34.7371V30.5514C134.108 30.289 134.574 29.8772 134.9 29.3635C135.227 28.8498 135.4 28.255 135.401 27.6477V27.5511C135.405 26.7045 135.07 25.8909 134.471 25.2879C133.872 24.6849 133.057 24.3416 132.204 24.3328H132.109C131.255 24.3415 130.44 24.6849 129.841 25.2879C129.242 25.8909 128.908 26.7045 128.912 27.5511V27.6477C128.912 28.255 129.086 28.8499 129.412 29.3637C129.739 29.8775 130.205 30.2894 130.757 30.5518V34.7371C129.175 34.9819 127.687 35.6411 126.448 36.6467L115.032 27.7077C115.113 27.4122 115.157 27.1078 115.161 26.8017C115.151 26.0963 114.932 25.4094 114.53 24.8274C114.128 24.2454 113.562 23.7942 112.903 23.5305C112.243 23.2669 111.52 23.2025 110.823 23.3456C110.127 23.4886 109.489 23.8326 108.989 24.3345C108.489 24.8363 108.15 25.4734 108.014 26.1659C107.879 26.8583 107.952 27.5752 108.226 28.2263C108.499 28.8774 108.961 29.4337 109.552 29.8253C110.144 30.2169 110.839 30.4263 111.55 30.4272C112.175 30.4243 112.788 30.2567 113.326 29.9415L124.555 38.7351C123.544 40.2751 123.017 42.0787 123.041 43.9166C123.066 45.7545 123.641 47.5436 124.694 49.0562L121.28 52.494C121.006 52.4061 120.721 52.3594 120.433 52.3554C119.785 52.3356 119.148 52.5205 118.613 52.8835C118.078 53.2464 117.673 53.7686 117.456 54.3748C117.24 54.9809 117.223 55.6395 117.409 56.2556C117.594 56.8717 117.972 57.4134 118.488 57.8024C119.005 58.1915 119.632 58.4079 120.28 58.4202C120.928 58.4326 121.563 58.2404 122.094 57.8714C122.625 57.5023 123.023 56.9755 123.233 56.3669C123.442 55.7584 123.451 55.0996 123.258 54.4857L126.636 51.0857C128.213 52.3064 130.156 52.9701 132.156 52.9714C134.465 52.937 136.677 52.0478 138.359 50.4782C140.041 48.9086 141.07 46.7721 141.245 44.4881C141.421 42.2041 140.729 39.9376 139.306 38.1335C137.883 36.3295 135.832 35.1178 133.555 34.7371Z" fill="#343434"/>
</svg>
