<svg width="160" height="45" viewBox="0 0 160 45" fill="none" xmlns="http://www.w3.org/2000/svg">
<mask id="mask0_59_648" style="mask-type:luminance" maskUnits="userSpaceOnUse" x="0" y="0" width="160" height="45">
<path d="M159.105 0H0.388306V45H159.105V0Z" fill="white"/>
</mask>
<g mask="url(#mask0_59_648)">
<path d="M17.5594 7.46729V20.1647H5.91462V7.46729H0.388306V37.7633H5.91462V25.4936H17.5594V37.7633H23.1186V7.46729H17.5594Z" fill="#010202"/>
</g>
<mask id="mask1_59_648" style="mask-type:luminance" maskUnits="userSpaceOnUse" x="0" y="0" width="160" height="45">
<path d="M159.105 0H0.388306V45H159.105V0Z" fill="white"/>
</mask>
<g mask="url(#mask1_59_648)">
<path d="M40.8159 27.9605C40.8159 29.1776 40.3224 30.3289 39.4672 31.1842C38.6119 32.0395 37.4277 32.5329 36.2435 32.5329C35.0264 32.5329 33.8751 32.0395 33.0198 31.1842C32.1645 30.3289 31.6711 29.1776 31.6711 27.9605V15H26.408V27.9605C26.408 30.5592 27.4277 33.0592 29.2698 34.9013C31.1119 36.7434 33.6119 37.7632 36.2106 37.7632C38.8093 37.7632 41.3093 36.7434 43.1514 34.9013C44.9935 33.0592 46.0132 30.5592 46.0132 27.9605V15H40.783V27.9605H40.8159Z" fill="#010202"/>
</g>
<mask id="mask2_59_648" style="mask-type:luminance" maskUnits="userSpaceOnUse" x="0" y="0" width="160" height="45">
<path d="M159.105 0H0.388306V45H159.105V0Z" fill="white"/>
</mask>
<g mask="url(#mask2_59_648)">
<path d="M79.6976 16.3158C79.6976 13.6513 81.4739 12.8289 83.3818 12.8289C84.9278 12.8289 87.0002 14.0132 88.316 15.4605L91.7699 11.4145C90.0594 9.07895 86.5726 7.5 83.7107 7.5C78.0199 7.5 73.9081 10.8224 73.9081 16.3487C73.9081 26.6118 86.441 23.3553 86.441 29.0789C86.441 30.8553 84.7305 32.4013 82.7568 32.4013C79.6647 32.4013 78.6449 30.8882 77.2305 29.2763L73.4147 33.2237C75.8489 36.2171 78.8752 37.7303 82.4607 37.7303C87.8555 37.7303 92.2305 34.3421 92.2305 29.0789C92.2305 17.7303 79.6976 21.25 79.6976 16.3158Z" fill="#010202"/>
</g>
<mask id="mask3_59_648" style="mask-type:luminance" maskUnits="userSpaceOnUse" x="0" y="0" width="160" height="45">
<path d="M159.105 0H0.388306V45H159.105V0Z" fill="white"/>
</mask>
<g mask="url(#mask3_59_648)">
<path d="M157.23 32.8952C154.138 32.8952 153.25 31.5465 153.25 29.507V20.4281H158.086V15.8228H153.25V9.7373L147.921 12.1386V30.6584C147.921 35.3952 151.178 37.7965 155.684 37.7965C156.375 37.7965 157.099 37.7636 157.79 37.632L159.072 32.8623C158.513 32.8623 157.822 32.8952 157.23 32.8952Z" fill="#010202"/>
</g>
<mask id="mask4_59_648" style="mask-type:luminance" maskUnits="userSpaceOnUse" x="0" y="0" width="160" height="45">
<path d="M159.105 0H0.388306V45H159.105V0Z" fill="white"/>
</mask>
<g mask="url(#mask4_59_648)">
<path d="M60.7829 15.1313C58.1843 15.1313 56.375 15.8879 54.5987 17.5985V7.63135H49.3356V26.1182C49.3356 33.0261 54.3356 37.7629 59.9606 37.7629C66.2106 37.7629 71.6711 32.9274 71.6711 26.4471C71.704 20.0327 66.6711 15.1313 60.7829 15.1313ZM60.75 32.4998C59.5658 32.4998 58.4145 32.1379 57.4277 31.48C56.4408 30.8221 55.6843 29.9011 55.2237 28.8156C54.7632 27.73 54.6645 26.5129 54.8948 25.3616C55.125 24.2103 55.6843 23.1577 56.5395 22.3024C57.3619 21.48 58.4474 20.8879 59.5987 20.6577C60.75 20.4274 61.9672 20.559 63.0527 20.9866C64.1382 21.4471 65.0593 22.2037 65.7172 23.1906C66.375 24.1774 66.7369 25.3287 66.7369 26.5129C66.7369 28.0919 66.1119 29.605 64.9935 30.7235C63.8422 31.8419 62.329 32.4998 60.75 32.4998Z" fill="#010202"/>
</g>
<mask id="mask5_59_648" style="mask-type:luminance" maskUnits="userSpaceOnUse" x="0" y="0" width="160" height="45">
<path d="M159.105 0H0.388306V45H159.105V0Z" fill="white"/>
</mask>
<g mask="url(#mask5_59_648)">
<path d="M117.855 26.1844C117.855 19.6713 112.395 14.8687 106.145 14.8687C100.52 14.8687 95.5199 19.6055 95.5199 26.5134V45.0002H100.783V35.0002C102.526 36.7108 104.336 37.4673 106.934 37.4673C112.823 37.5002 117.855 32.5989 117.855 26.1844ZM112.888 26.1187C112.888 27.3029 112.526 28.4542 111.869 29.441C111.211 30.4279 110.29 31.1844 109.204 31.645C108.119 32.1055 106.901 32.2042 105.75 31.9739C104.599 31.7437 103.546 31.1844 102.691 30.3292C101.869 29.5068 101.276 28.4213 101.046 27.27C100.816 26.1187 100.948 24.9015 101.375 23.816C101.836 22.7305 102.592 21.8094 103.579 21.1515C104.566 20.4937 105.717 20.1318 106.901 20.1318C108.48 20.1318 109.994 20.7568 111.112 21.8752C112.263 23.0265 112.888 24.5397 112.888 26.1187Z" fill="#010202"/>
</g>
<mask id="mask6_59_648" style="mask-type:luminance" maskUnits="userSpaceOnUse" x="0" y="0" width="160" height="45">
<path d="M159.105 0H0.388306V45H159.105V0Z" fill="white"/>
</mask>
<g mask="url(#mask6_59_648)">
<path d="M134.829 14.6051V9.30903C135.52 8.98009 136.112 8.45377 136.54 7.82877C136.967 7.17087 137.165 6.41429 137.165 5.65771V5.52614C137.165 4.44061 136.737 3.42088 135.98 2.6643C135.224 1.90772 134.171 1.48008 133.119 1.48008H132.987C131.901 1.48008 130.882 1.90772 130.125 2.6643C129.369 3.42088 128.941 4.47351 128.941 5.52614V5.65771C128.941 6.41429 129.171 7.17087 129.566 7.82877C129.994 8.48666 130.586 8.98009 131.276 9.30903V14.6051C129.27 14.9011 127.395 15.7564 125.816 17.0064L111.342 5.7235C111.441 5.36166 111.507 4.96692 111.507 4.57219C111.507 3.65113 111.244 2.79587 110.75 2.03929C110.257 1.28271 109.533 0.690612 108.711 0.361665C107.888 -0.000177533 106.967 -0.065968 106.079 0.0985057C105.191 0.262979 104.369 0.723507 103.744 1.34851C103.119 1.97351 102.658 2.79587 102.494 3.68403C102.329 4.57219 102.395 5.49324 102.757 6.31561C103.086 7.13798 103.678 7.86166 104.434 8.38798C105.191 8.8814 106.079 9.17745 106.967 9.17745C107.757 9.17745 108.546 8.94719 109.237 8.55245L123.513 19.638C122.23 21.5788 121.572 23.8485 121.605 26.184C121.638 28.5196 122.362 30.7564 123.711 32.6643L119.369 37.0064C119.007 36.9077 118.645 36.8419 118.283 36.8419C117.526 36.8419 116.803 37.0722 116.178 37.4669C115.553 37.8946 115.092 38.4538 114.796 39.1446C114.5 39.8354 114.434 40.5919 114.599 41.3156C114.73 42.0393 115.092 42.7301 115.619 43.2564C116.145 43.7827 116.803 44.1446 117.559 44.2761C118.283 44.4077 119.04 44.3419 119.73 44.0788C120.421 43.7827 121.013 43.3222 121.408 42.6972C121.836 42.0722 122.033 41.3485 122.033 40.5919C122.033 40.2301 121.967 39.8682 121.869 39.5064L126.145 35.2301C127.559 36.3156 129.171 37.0393 130.915 37.4011C132.658 37.763 134.434 37.6972 136.145 37.2696C137.855 36.809 139.434 35.9867 140.783 34.8353C142.132 33.684 143.184 32.2367 143.875 30.6248C144.566 29.013 144.895 27.2367 144.796 25.4603C144.697 23.684 144.204 21.9735 143.349 20.4275C142.494 18.8814 141.276 17.5656 139.829 16.5459C138.25 15.5261 136.605 14.8682 134.829 14.6051ZM133.053 31.9735C131.869 31.9735 130.717 31.6117 129.763 30.9867C128.776 30.3288 128.02 29.4077 127.592 28.3222C127.132 27.2367 127.033 26.0525 127.263 24.9011C127.494 23.7498 128.053 22.6972 128.875 21.8748C129.697 21.0525 130.75 20.4932 131.901 20.263C133.053 20.0327 134.237 20.1643 135.322 20.5919C136.408 21.0525 137.329 21.809 137.987 22.763C138.645 23.7498 138.974 24.9011 138.974 26.0525C138.974 27.6314 138.349 29.1446 137.23 30.263C136.145 31.3485 134.632 31.9735 133.053 31.9735Z" fill="#EF785C"/>
</g>
</svg>
