<svg width="182" height="45" viewBox="0 0 182 45" fill="none" xmlns="http://www.w3.org/2000/svg">
<path d="M0.698608 6.67334H7.65835V31.9382H20.4814V38.3259H0.698608V6.67334Z" fill="black"/>
<path d="M23.5324 16.8747H30.2061V38.326H23.5324V16.8747ZM26.8692 6.19678C29.0144 6.19678 30.7305 7.91287 30.7305 10.058C30.7305 12.2031 29.0144 13.9192 26.8692 13.9192C24.7241 13.9192 23.008 12.2031 23.008 10.058C23.008 7.91287 24.7718 6.19678 26.8692 6.19678Z" fill="black"/>
<path d="M58.0927 6.67334H64.7664V25.5981L72.3458 16.8746H80.4973L71.7738 26.7899L80.3066 38.3259H71.9645L64.8617 27.7433H64.7664V38.3259H58.0927V6.67334Z" fill="black"/>
<path d="M33.9243 16.8745H40.312V19.83H40.4073C41.313 18.1615 43.4582 16.3501 46.6997 16.3501C53.4687 16.3501 54.7082 20.7834 54.7082 26.599V38.3734H48.0344V27.9338C48.0344 25.455 47.9868 22.2611 44.5545 22.2611C41.0747 22.2611 40.5503 24.9783 40.5503 27.7908V38.4211H33.8766V16.8745H33.9243Z" fill="black"/>
<path d="M94.5598 25.1212C94.6075 22.8808 92.8914 21.0216 90.4603 21.0216C87.5048 21.0216 85.9317 23.0238 85.741 25.1212H94.5598ZM100.185 34.6074C98.0397 37.3246 94.5598 38.8977 91.08 38.8977C84.4062 38.8977 79.0673 34.4644 79.0673 27.5524C79.0673 20.6403 84.4062 16.207 91.08 16.207C97.3247 16.207 101.234 20.6403 101.234 27.5524V29.6498H85.741C86.2654 32.1763 88.1721 33.8447 90.7463 33.8447C92.9391 33.8447 94.3692 32.7483 95.5132 31.2229L100.185 34.6074Z" fill="black"/>
<path d="M115.105 22.0704C111.769 22.0704 109.766 24.3109 109.766 27.5524C109.766 30.7939 111.769 33.0344 115.105 33.0344C118.442 33.0344 120.444 30.7939 120.444 27.5524C120.444 24.2632 118.442 22.0704 115.105 22.0704ZM126.594 38.3257H120.444V35.4655H120.349C119.3 37.0386 116.726 38.8501 113.723 38.8501C107.335 38.8501 103.093 34.2261 103.093 27.6954C103.093 21.689 106.811 16.1594 112.96 16.1594C115.725 16.1594 118.299 16.9221 119.825 19.0196H119.92V6.62549H126.594V38.3257Z" fill="black"/>
<path d="M174.931 0H136.604C134.793 0 133.267 1.43009 133.267 3.24153V41.7585C133.267 43.5699 134.745 45 136.604 45H174.931C176.79 45 178.267 43.5222 178.267 41.7585V3.24153C178.267 1.47776 176.79 0 174.931 0Z" fill="#007BB5"/>
<path d="M139.941 16.8752H146.615V38.3265H139.941V16.8752ZM143.278 6.19727C145.423 6.19727 147.139 7.91336 147.139 10.0585C147.139 12.2036 145.423 13.9197 143.278 13.9197C141.133 13.9197 139.417 12.2036 139.417 10.0585C139.417 7.91336 141.133 6.19727 143.278 6.19727Z" fill="white"/>
<path d="M150.81 16.8749H157.198V19.8305H157.293C158.199 18.162 160.344 16.3506 163.585 16.3506C170.354 16.3506 171.594 20.7838 171.594 26.5995V38.3739H164.92V27.9343C164.92 25.4555 164.872 22.2616 161.44 22.2616C157.96 22.2616 157.436 24.9788 157.436 27.7913V38.4216H150.762V16.8749H150.81Z" fill="white"/>
<path d="M179.364 37.2297H179.745V38.3261H179.936V37.2297H180.27V37.0391H179.364V37.2297Z" fill="black"/>
<path d="M181.557 37.0391L181.175 37.9925L180.794 37.0391H180.508V38.3261H180.699V37.3251L181.128 38.3261H181.223L181.652 37.3251V38.3261H181.843V37.0391H181.557Z" fill="black"/>
</svg>
