<svg width="24" height="23" viewBox="0 0 24 23" fill="none" xmlns="http://www.w3.org/2000/svg">
<path d="M21.6 20.4365V13.7833C21.6 10.5134 20.856 8.01562 16.824 8.01562C14.88 8.01562 13.584 9.01475 13.056 9.96845H13.008V8.31082H9.19202V20.4365H13.176V14.4191C13.176 12.8296 13.488 11.3082 15.552 11.3082C17.592 11.3082 17.616 13.1021 17.616 14.5099V20.4138H21.6V20.4365Z" fill="white"/>
<path d="M2.71204 8.31055H6.69604V20.4362H2.71204V8.31055Z" fill="white"/>
<path d="M4.70402 2.27051C3.43202 2.27051 2.40002 3.24692 2.40002 4.4504C2.40002 5.65389 3.43202 6.65301 4.70402 6.65301C5.97602 6.65301 7.00802 5.65389 7.00802 4.4504C7.00802 3.24692 5.97602 2.27051 4.70402 2.27051Z" fill="white"/>
</svg>
