<svg width="180" height="80" viewBox="0 0 180 80" fill="none" xmlns="http://www.w3.org/2000/svg">
<path d="M30.198 50.6117H43.3357V46.3323H34.9533V30.0076H30.198V50.6117ZM49.9872 50.6117V36.42H45.2325V50.6117H49.9872ZM47.6102 34.4832C48.3115 34.4791 48.9827 34.1993 49.4764 33.7051C49.9702 33.211 50.2463 32.5427 50.2442 31.8469C50.2422 31.1511 49.9621 30.4845 49.4654 29.9932C48.9688 29.502 48.296 29.2261 47.5946 29.2261C46.8933 29.2261 46.2205 29.502 45.7238 29.9932C45.2272 30.4845 44.9471 31.1511 44.945 31.8469C44.943 32.5427 45.2191 33.211 45.7129 33.7051C46.2066 34.1993 46.8777 34.4791 47.5791 34.4832H47.6102ZM52.1947 50.6117H56.9496V42.6856C56.9311 42.2959 56.9841 41.9061 57.1061 41.5352C57.2839 41.0332 57.6137 40.5981 58.0504 40.2892C58.487 39.9803 59.0092 39.8129 59.5455 39.8097C61.2664 39.8097 61.9549 41.1115 61.9549 43.0182V50.6113H66.7089V42.4743C66.7089 38.1149 64.363 36.0866 61.2345 36.0866C60.3627 36.0521 59.4982 36.2572 58.7365 36.6792C57.9747 37.1012 57.3453 37.7237 56.9175 38.478H56.9496V36.42H52.1947C52.2576 37.7517 52.1947 50.6117 52.1947 50.6117ZM73.4169 30.0076H68.6621V50.6117H73.4169V46.0105L74.6051 44.5262L78.328 50.6119H84.1773L77.9216 41.8022L83.3952 35.8089H77.6715C77.6715 35.8089 73.7613 41.1706 73.4169 41.807V30.0076Z" fill="#343434"/>
<path d="M96.8923 44.692C96.9949 44.0792 97.0473 43.4591 97.049 42.8379C97.049 39.1695 95.1718 35.4449 90.2295 35.4449C89.1876 35.4227 88.1523 35.6139 87.1883 36.0068C86.2244 36.3997 85.3525 36.9857 84.6272 37.7281C83.902 38.4706 83.339 39.3535 82.9734 40.3217C82.6079 41.2899 82.4477 42.3225 82.5028 43.3549C82.5028 48.0076 85.4747 50.9132 90.6676 50.9132C92.5568 50.9546 94.4365 50.6362 96.2048 49.9755L95.5786 46.86C94.216 47.3018 92.7888 47.5159 91.3555 47.4936C89.1347 47.4936 87.1956 46.5889 87.0391 44.6615L96.8923 44.692ZM87.0078 41.5008C87.028 40.7204 87.3461 39.9768 87.8978 39.4203C88.4496 38.8638 89.1937 38.536 89.9798 38.503C90.3586 38.5095 90.7319 38.5943 91.0758 38.7521C91.4196 38.9099 91.7265 39.1371 91.9768 39.4192C92.2271 39.7014 92.4153 40.0323 92.5293 40.3907C92.6433 40.7491 92.6807 41.1272 92.639 41.5008H87.0078ZM108.785 30.0078V37.1403H108.722C108.233 36.5629 107.612 36.1104 106.909 35.8208C106.207 35.5312 105.446 35.4129 104.688 35.4759C101.028 35.4759 97.806 38.3818 97.8366 43.3462C97.8366 47.9479 100.746 50.9449 104.374 50.9449C105.322 50.9865 106.264 50.7788 107.104 50.3427C107.945 49.9066 108.654 49.2578 109.161 48.4619H109.254L109.442 50.6119H113.665C113.603 49.6128 113.539 47.8873 113.539 46.1919V30.0073L108.785 30.0078ZM108.785 44.0428C108.788 44.3879 108.756 44.7324 108.691 45.0713C108.558 45.7033 108.208 46.2696 107.7 46.6729C107.192 47.0762 106.558 47.2912 105.908 47.281C103.937 47.281 102.654 45.7073 102.654 43.2252C102.654 40.8946 103.75 39.0175 105.939 39.0175C106.593 39.011 107.229 39.2312 107.738 39.64C108.246 40.0489 108.594 40.6208 108.723 41.2572C108.774 41.5369 108.795 41.8213 108.785 42.1055V44.0428Z" fill="#343434"/>
<path d="M147.475 24.2858H120.648C120.039 24.2785 119.451 24.5116 119.015 24.9338C118.579 25.3559 118.329 25.9327 118.321 26.5372V53.4638C118.329 54.0683 118.579 54.6449 119.015 55.0669C119.451 55.4889 120.039 55.7218 120.648 55.7144H147.475C148.085 55.7219 148.672 55.489 149.108 55.0669C149.545 54.6447 149.794 54.068 149.802 53.4634V26.5372C149.794 25.9326 149.545 25.3559 149.108 24.9337C148.672 24.5115 148.085 24.2785 147.475 24.2858ZM123.109 50.5945V36.403H127.864V50.5945H123.109ZM125.488 34.466H125.456C124.737 34.4619 124.049 34.1751 123.543 33.6685C123.037 33.1618 122.753 32.4767 122.755 31.7633C122.758 31.0499 123.045 30.3664 123.554 29.8626C124.063 29.3589 124.753 29.076 125.472 29.076C126.191 29.076 126.881 29.3589 127.39 29.8626C127.899 30.3664 128.187 31.0499 128.189 31.7633C128.191 32.4767 127.907 33.1618 127.401 33.6685C126.895 34.1751 126.207 34.4619 125.488 34.466ZM145.01 50.5945H140.256V43.0032C140.256 41.0952 139.567 39.794 137.847 39.794C137.311 39.7971 136.789 39.9645 136.352 40.2734C135.915 40.5822 135.585 41.0174 135.408 41.5194C135.286 41.8905 135.233 42.2804 135.251 42.6702V50.5945H130.496C130.496 50.586 130.558 37.7342 130.496 36.4032H135.25V38.4144C135.68 37.6722 136.307 37.0612 137.063 36.6478C137.818 36.2345 138.674 36.0347 139.536 36.0702C142.664 36.0702 145.01 38.0988 145.01 42.4575L145.01 50.5945Z" fill="#343434"/>
</svg>
