<svg width="183" height="41" viewBox="0 0 183 41" fill="none" xmlns="http://www.w3.org/2000/svg">
<g clip-path="url(#clip0_4004_554)">
<path d="M0 5.7854H5.52376V27.4242H11.6731V5.7854H17.1968V0.373754H0V5.7854Z" fill="#FFAD00"/>
<path d="M27.9217 18.3762L24.8766 0.373754H18.5896L23.9009 27.3852H31.5649L36.8762 0.373754H30.9629L27.9217 18.3762Z" fill="#FFAD00"/>
<path d="M51.98 0.373754L46.3185 27.4203H52.2318L53.1012 22.6666H58.326L59.1955 27.4203H65.4864L59.825 0.373754H51.98ZM57.3385 17.3328H54.0848L55.6979 8.41335L57.3385 17.3328Z" fill="#FFAD00"/>
<path d="M81.9869 0C76.7621 0 73.7681 2.90827 73.7681 7.98509V19.8128C73.7681 24.8858 76.7661 27.7979 81.9869 27.7979C87.2077 27.7979 90.1663 24.8897 90.1663 19.8128V16.7333H84.3199V19.9997C84.3199 21.6816 83.5724 22.5342 82.097 22.5342C80.2912 22.5342 79.9135 21.156 79.9135 19.9997V7.79821C79.9135 6.64191 80.2912 5.2637 82.097 5.2637C83.5724 5.2637 84.3199 6.11632 84.3199 7.79821V10.3172H90.1663V7.98509C90.1663 2.91216 87.1841 0 81.9869 0Z" fill="#FFAD00"/>
<path d="M100.785 0C95.4186 0 92.338 2.90827 92.338 7.98509V19.8128C92.338 24.8858 95.4146 27.7979 100.785 27.7979C106.155 27.7979 109.232 24.8897 109.232 19.8128V7.98509C109.232 2.91216 106.155 0 100.785 0ZM98.4913 7.79821C98.4913 6.7081 98.8886 5.41164 100.789 5.41164C102.689 5.41164 103.087 6.7081 103.087 7.79821V19.9997C103.087 21.0898 102.689 22.3863 100.789 22.3863C98.8886 22.3863 98.4913 21.0898 98.4913 19.9997V7.79821Z" fill="#FFAD00"/>
<path d="M118.273 0.373754H112.124V27.4242H126.976V22.0125H118.273V0.373754Z" fill="#FFAD00"/>
<path d="M135.222 0.373754H129.073V27.4242H143.921V22.0125H135.222V0.373754Z" fill="#FFAD00"/>
<path d="M150.412 0.373754L144.751 27.4203H150.664L151.533 22.6666H156.758L157.628 27.4203H163.919L158.257 0.373754H150.412ZM155.771 17.3328H152.517L154.13 8.41335L155.771 17.3328Z" fill="#FFAD00"/>
<path d="M179.62 13.0775C181.536 12.0964 182.473 10.3756 182.473 7.83325V7.3466C182.473 2.65521 179.77 0.373754 174.215 0.373754H165.807V27.4203H174.707C180.289 27.4203 183 24.9208 183 19.7739V19.3262C183 16.1804 181.891 14.1287 179.62 13.0775ZM171.953 16.231H173.872C176.209 16.231 176.851 16.8423 176.851 19.0653V19.7778C176.851 21.4285 176.288 22.0125 174.707 22.0125H171.956V16.231H171.953ZM176.32 8.47175C176.32 10.1381 175.521 10.8194 173.57 10.8194H171.953V5.7854H174.061C175.71 5.7854 176.32 6.38107 176.32 7.98509V8.47175Z" fill="#FFAD00"/>
<path d="M44.3868 0.41658H38.2689V27.4242H44.3868V0.41658Z" fill="#FFAD00"/>
<path d="M19.3528 33.1667C19.6912 33.3419 19.9548 33.6028 20.1476 33.9454C20.3403 34.288 20.4387 34.7046 20.4387 35.1912V38.3526H19.3292V35.3548C19.3292 34.8759 19.2073 34.506 18.9633 34.2491C18.7194 33.9921 18.3889 33.8636 17.9719 33.8636C17.5549 33.8636 17.2204 33.9921 16.9726 34.2491C16.7287 34.506 16.6028 34.872 16.6028 35.3548V38.3526H15.4933V35.3548C15.4933 34.8759 15.3713 34.506 15.1274 34.2491C14.8835 33.9921 14.553 33.8636 14.1359 33.8636C13.7189 33.8636 13.3845 33.9921 13.1366 34.2491C12.8927 34.506 12.7668 34.872 12.7668 35.3548V38.3526H11.6455V32.9915H12.7668V33.6028C12.9517 33.3809 13.1838 33.2096 13.4671 33.0889C13.7504 32.9643 14.0494 32.902 14.372 32.902C14.8048 32.902 15.1903 32.9915 15.5326 33.1745C15.8749 33.3575 16.1346 33.6184 16.3195 33.961C16.4847 33.6378 16.7405 33.377 17.0867 33.1862C17.4329 32.9954 17.8067 32.8981 18.2079 32.8981C18.6329 32.8981 19.0145 32.9877 19.3528 33.159V33.1667Z" fill="white"/>
<path d="M21.8275 34.2179C22.0557 33.8013 22.3626 33.4782 22.7521 33.2485C23.1416 33.0188 23.5743 32.902 24.0465 32.902C24.4714 32.902 24.8451 32.9838 25.1638 33.1512C25.4825 33.3147 25.7343 33.521 25.9271 33.7702V32.9915H27.0601V38.3526H25.9271V37.5545C25.7382 37.8075 25.4785 38.0178 25.1481 38.1852C24.8215 38.3526 24.4478 38.4382 24.0268 38.4382C23.5625 38.4382 23.1337 38.3214 22.7481 38.0839C22.3626 37.8465 22.0557 37.5155 21.8275 37.0912C21.6033 36.6668 21.4892 36.184 21.4892 35.6468C21.4892 35.1095 21.6033 34.6306 21.8275 34.2179ZM25.6949 34.7046C25.5415 34.4321 25.3408 34.2257 25.0891 34.0817C24.8412 33.9376 24.5697 33.8675 24.2825 33.8675C23.9953 33.8675 23.7238 33.9376 23.476 34.0778C23.2281 34.2179 23.0235 34.4204 22.8701 34.689C22.7167 34.9576 22.638 35.2769 22.638 35.6468C22.638 36.0166 22.7167 36.3398 22.8701 36.6201C23.0235 36.9004 23.2281 37.1106 23.4799 37.2586C23.7317 37.4065 23.9993 37.4766 24.2825 37.4766C24.5658 37.4766 24.8412 37.4065 25.0891 37.2625C25.3369 37.1184 25.5415 36.9121 25.6949 36.6356C25.8484 36.3592 25.9271 36.0361 25.9271 35.6662C25.9271 35.2964 25.8484 34.9771 25.6949 34.7007V34.7046Z" fill="white"/>
<path d="M30.3099 33.1317C30.5813 32.9799 30.9039 32.902 31.2777 32.902V34.0505H30.9944C30.5538 34.0505 30.2233 34.1595 29.9951 34.3814C29.7669 34.6034 29.6568 34.9849 29.6568 35.53V38.3526H28.5355V32.9915H29.6568V33.7702C29.822 33.4977 30.0384 33.2835 30.3099 33.1317Z" fill="white"/>
<path d="M33.6186 33.8948V36.8615C33.6186 37.0639 33.6658 37.208 33.7602 37.2936C33.8547 37.3832 34.016 37.426 34.2481 37.426H34.9366V38.3526H34.0514C33.5478 38.3526 33.1583 38.2358 32.8908 38.0022C32.6232 37.7686 32.4895 37.387 32.4895 36.8615V33.8948H31.8521V32.9915H32.4895V31.6562H33.6225V32.9915H34.9405V33.8948H33.6225H33.6186Z" fill="white"/>
<path d="M40.8971 36.0867H36.7542C36.7857 36.515 36.947 36.8576 37.2342 37.1184C37.5214 37.3793 37.8755 37.5077 38.2965 37.5077C38.8984 37.5077 39.3273 37.2586 39.5751 36.7563H40.7869C40.6217 37.2508 40.3266 37.6518 39.8978 37.9671C39.4689 38.2825 38.9338 38.4382 38.3004 38.4382C37.7811 38.4382 37.3168 38.3214 36.9077 38.0917C36.4985 37.862 36.1759 37.5389 35.9438 37.1184C35.7117 36.7018 35.5936 36.2152 35.5936 35.6623C35.5936 35.1095 35.7077 34.6267 35.932 34.2062C36.1602 33.7897 36.4749 33.4665 36.888 33.2368C37.2972 33.011 37.7693 32.8942 38.3004 32.8942C38.8316 32.8942 39.2683 33.0032 39.6696 33.2251C40.0709 33.4471 40.3817 33.7546 40.6059 34.1556C40.8302 34.5566 40.9403 35.0122 40.9403 35.5339C40.9403 35.7363 40.9285 35.9154 40.901 36.0789L40.8971 36.0867ZM39.764 35.1912C39.7561 34.7825 39.6105 34.4554 39.3233 34.2101C39.0361 33.9649 38.6781 33.8403 38.2493 33.8403C37.8637 33.8403 37.5293 33.961 37.2578 34.2062C36.9824 34.4476 36.8172 34.7786 36.766 35.1951H39.764V35.1912Z" fill="white"/>
<path d="M42.0026 34.214C42.2308 33.7975 42.5416 33.4743 42.9429 33.2446C43.3442 33.0188 43.8006 32.902 44.3199 32.902C44.9769 32.902 45.5199 33.0577 45.9487 33.3653C46.3775 33.6729 46.6687 34.1128 46.8182 34.6851H45.6064C45.5081 34.4204 45.3507 34.2101 45.1343 34.0622C44.9179 33.9143 44.6464 33.8364 44.316 33.8364C43.8556 33.8364 43.4898 33.996 43.2183 34.3192C42.9468 34.6384 42.8091 35.09 42.8091 35.6662C42.8091 36.2424 42.9468 36.694 43.2183 37.0211C43.4898 37.3442 43.8556 37.5077 44.316 37.5077C44.9651 37.5077 45.394 37.2235 45.6064 36.659H46.8182C46.6608 37.2041 46.3657 37.6362 45.933 37.9594C45.5002 38.2825 44.9612 38.4421 44.3199 38.4421C43.8006 38.4421 43.3442 38.3253 42.9429 38.0956C42.5416 37.8659 42.2308 37.5428 42.0026 37.1223C41.7783 36.7057 41.6642 36.2191 41.6642 35.6662C41.6642 35.1134 41.7783 34.6306 42.0026 34.2101V34.214Z" fill="white"/>
<path d="M51.8462 33.1667C52.1728 33.3419 52.4246 33.6028 52.6134 33.9454C52.7983 34.288 52.8927 34.7046 52.8927 35.1912V38.3526H51.7833V35.3548C51.7833 34.8759 51.6613 34.506 51.4174 34.2491C51.1734 33.9921 50.843 33.8636 50.4259 33.8636C50.0089 33.8636 49.6745 33.9921 49.4266 34.2491C49.1827 34.506 49.0568 34.872 49.0568 35.3548V38.3526H47.9355V31.15H49.0568V33.6145C49.2456 33.3887 49.4896 33.2135 49.7807 33.0889C50.0718 32.9643 50.3905 32.902 50.7407 32.902C51.1538 32.902 51.5236 32.9915 51.8462 33.1629V33.1667Z" fill="white"/>
<path d="M57.7004 38.2124C57.3621 38.0606 57.0946 37.8503 56.8978 37.5895C56.7011 37.3248 56.5949 37.0328 56.5831 36.7096H57.7437C57.7634 36.9354 57.8735 37.1262 58.0742 37.278C58.2748 37.4299 58.5266 37.5077 58.8256 37.5077C59.1247 37.5077 59.3843 37.4493 59.5574 37.3286C59.7305 37.208 59.8171 37.0561 59.8171 36.8654C59.8171 36.6629 59.7187 36.515 59.526 36.4176C59.3332 36.3203 59.0263 36.2152 58.6053 36.0984C58.2001 35.9894 57.8657 35.8804 57.6099 35.7752C57.3542 35.6701 57.1339 35.5144 56.9451 35.2964C56.7601 35.0822 56.6657 34.8019 56.6657 34.4515C56.6657 34.1673 56.7523 33.9065 56.9214 33.669C57.0906 33.4315 57.3345 33.2446 57.6532 33.1083C57.9719 32.9721 58.3378 32.9059 58.7509 32.9059C59.3686 32.9059 59.8643 33.0616 60.242 33.3692C60.6197 33.6768 60.8203 34.0972 60.8479 34.6306H59.7266C59.7069 34.3892 59.6086 34.1985 59.4315 34.0583C59.2545 33.9181 59.0145 33.8442 58.7116 33.8442C58.4086 33.8442 58.1883 33.8987 58.0349 34.0116C57.8775 34.1206 57.7988 34.2685 57.7988 34.4476C57.7988 34.5917 57.8499 34.7085 57.9562 34.8058C58.0624 34.9031 58.1883 34.981 58.3378 35.0355C58.4873 35.09 58.7116 35.1601 59.0066 35.2458C59.4001 35.3509 59.7227 35.456 59.9745 35.5611C60.2263 35.6662 60.4466 35.8259 60.6276 36.0322C60.8125 36.2385 60.9069 36.515 60.9148 36.8576C60.9148 37.1612 60.8282 37.4338 60.659 37.6751C60.4899 37.9165 60.2459 38.1034 59.9351 38.2397C59.6243 38.3759 59.2584 38.4421 58.8375 38.4421C58.4165 38.4421 58.0309 38.3643 57.6926 38.2124H57.7004Z" fill="white"/>
<path d="M63.0944 38.0956C62.6813 37.8659 62.3547 37.5428 62.1187 37.1223C61.8826 36.7057 61.7646 36.2191 61.7646 35.6662C61.7646 35.1134 61.8865 34.6384 62.1265 34.214C62.3705 33.7936 62.7009 33.4665 63.1219 33.2407C63.5429 33.0149 64.0111 32.8981 64.5265 32.8981C65.0419 32.8981 65.514 33.011 65.9349 33.2407C66.3559 33.4665 66.6864 33.7936 66.9303 34.214C67.1742 34.6345 67.2923 35.1212 67.2923 35.6662C67.2923 36.2113 67.1664 36.694 66.9185 37.1184C66.6707 37.5428 66.3284 37.8659 65.8995 38.0956C65.4707 38.3253 64.9946 38.4421 64.4793 38.4421C63.9639 38.4421 63.5075 38.3253 63.0944 38.0956ZM65.2937 37.2741C65.5454 37.1379 65.75 36.9315 65.9074 36.659C66.0648 36.3865 66.1435 36.0556 66.1435 35.6662C66.1435 35.2769 66.0687 34.946 65.9153 34.6773C65.7658 34.4087 65.5651 34.2063 65.3133 34.07C65.0655 33.9337 64.794 33.8675 64.5068 33.8675C64.2196 33.8675 63.9521 33.9337 63.7042 34.07C63.4563 34.2063 63.2636 34.4087 63.118 34.6773C62.9724 34.946 62.9016 35.2769 62.9016 35.6662C62.9016 36.2424 63.0511 36.6902 63.3501 37.0055C63.6491 37.3209 64.0229 37.4766 64.4753 37.4766C64.7625 37.4766 65.034 37.4104 65.2858 37.2741H65.2937Z" fill="white"/>
<path d="M69.5269 31.15V38.3526H68.4057V31.15H69.5269Z" fill="white"/>
<path d="M75.9084 32.9915V38.3526H74.7871V37.7219C74.6101 37.9438 74.3779 38.1151 74.0947 38.2436C73.8114 38.372 73.5045 38.4343 73.1859 38.4343C72.761 38.4343 72.3793 38.3448 72.041 38.1696C71.7026 37.9944 71.439 37.7336 71.2423 37.3909C71.0495 37.0483 70.9512 36.6318 70.9512 36.1451V32.9915H72.0646V35.9777C72.0646 36.4566 72.1865 36.8264 72.4265 37.0834C72.6705 37.3403 73.0009 37.4688 73.4219 37.4688C73.8429 37.4688 74.1734 37.3403 74.4212 37.0834C74.6652 36.8264 74.7911 36.4605 74.7911 35.9777V32.9915H75.9123H75.9084Z" fill="white"/>
<path d="M78.6939 33.8948V36.8615C78.6939 37.0639 78.7411 37.208 78.8355 37.2936C78.9299 37.3832 79.0912 37.426 79.3234 37.426H80.0119V38.3526H79.1266C78.623 38.3526 78.2336 38.2358 77.966 38.0022C77.6985 37.7686 77.5647 37.387 77.5647 36.8615V33.8948H76.9274V32.9915H77.5647V31.6562H78.6978V32.9915H80.0158V33.8948H78.6978H78.6939Z" fill="white"/>
<path d="M81.1056 32.0766C80.9679 31.9404 80.8971 31.773 80.8971 31.5705C80.8971 31.3681 80.9639 31.2006 81.1056 31.0644C81.2433 30.9281 81.4125 30.8619 81.617 30.8619C81.8216 30.8619 81.979 30.9281 82.1167 31.0644C82.2544 31.2006 82.3252 31.3681 82.3252 31.5705C82.3252 31.773 82.2583 31.9404 82.1167 32.0766C81.979 32.2129 81.8138 32.2791 81.617 32.2791C81.4203 32.2791 81.2433 32.2129 81.1056 32.0766ZM82.1639 32.9915V38.3526H81.0426V32.9915H82.1639Z" fill="white"/>
<path d="M84.6071 38.0956C84.194 37.8659 83.8675 37.5428 83.6314 37.1223C83.3953 36.7057 83.2773 36.2191 83.2773 35.6662C83.2773 35.1134 83.3993 34.6384 83.6393 34.214C83.8832 33.7936 84.2137 33.4665 84.6346 33.2407C85.0556 33.0149 85.5238 32.8981 86.0392 32.8981C86.5546 32.8981 87.0267 33.011 87.4477 33.2407C87.8686 33.4665 88.1991 33.7936 88.4431 34.214C88.687 34.6345 88.805 35.1212 88.805 35.6662C88.805 36.2113 88.6791 36.694 88.4312 37.1184C88.1834 37.5428 87.8411 37.8659 87.4123 38.0956C86.9834 38.3253 86.5074 38.4421 85.992 38.4421C85.4766 38.4421 85.0202 38.3253 84.6071 38.0956ZM86.8024 37.2741C87.0542 37.1379 87.2588 36.9315 87.4162 36.659C87.5736 36.3865 87.6523 36.0556 87.6523 35.6662C87.6523 35.2769 87.5775 34.946 87.4241 34.6773C87.2746 34.4087 87.0739 34.2063 86.8221 34.07C86.5743 33.9337 86.3028 33.8675 86.0156 33.8675C85.7284 33.8675 85.4608 33.9337 85.213 34.07C84.9651 34.2063 84.7724 34.4087 84.6268 34.6773C84.4812 34.946 84.4104 35.2769 84.4104 35.6662C84.4104 36.2424 84.5599 36.6902 84.8589 37.0055C85.1579 37.3209 85.5317 37.4766 85.9841 37.4766C86.2713 37.4766 86.5428 37.4104 86.7946 37.2741H86.8024Z" fill="white"/>
<path d="M93.7976 33.1667C94.136 33.3419 94.3996 33.6028 94.5884 33.9454C94.7773 34.288 94.8717 34.7046 94.8717 35.1912V38.3526H93.7622V35.3548C93.7622 34.8759 93.6403 34.506 93.3963 34.2491C93.1524 33.9921 92.8219 33.8636 92.4049 33.8636C91.9879 33.8636 91.6535 33.9921 91.4056 34.2491C91.1617 34.506 91.0358 34.872 91.0358 35.3548V38.3526H89.9145V32.9915H91.0358V33.6028C91.2207 33.3809 91.4528 33.2096 91.74 33.0889C92.0233 32.9643 92.3302 32.902 92.6488 32.902C93.0737 32.902 93.4554 32.9915 93.7937 33.1629L93.7976 33.1667Z" fill="white"/>
<path d="M98.8217 34.214C99.0499 33.7975 99.3607 33.4743 99.762 33.2446C100.163 33.0188 100.62 32.902 101.139 32.902C101.796 32.902 102.339 33.0577 102.768 33.3653C103.197 33.6729 103.488 34.1128 103.637 34.6851H102.426C102.327 34.4204 102.17 34.2101 101.953 34.0622C101.737 33.9143 101.466 33.8364 101.135 33.8364C100.675 33.8364 100.309 33.996 100.037 34.3192C99.766 34.6384 99.6283 35.09 99.6283 35.6662C99.6283 36.2424 99.766 36.694 100.037 37.0211C100.309 37.3442 100.675 37.5077 101.135 37.5077C101.784 37.5077 102.213 37.2235 102.426 36.659H103.637C103.48 37.2041 103.185 37.6362 102.752 37.9594C102.319 38.2825 101.78 38.4421 101.139 38.4421C100.62 38.4421 100.163 38.3253 99.762 38.0956C99.3607 37.8659 99.0499 37.5428 98.8217 37.1223C98.5975 36.7057 98.4834 36.2191 98.4834 35.6662C98.4834 35.1134 98.5975 34.6306 98.8217 34.2101V34.214Z" fill="white"/>
<path d="M105.722 38.0956C105.309 37.8659 104.983 37.5428 104.747 37.1223C104.511 36.7057 104.393 36.2191 104.393 35.6662C104.393 35.1134 104.515 34.6384 104.755 34.214C104.999 33.7936 105.329 33.4665 105.75 33.2407C106.171 33.0149 106.639 32.8981 107.155 32.8981C107.67 32.8981 108.142 33.011 108.563 33.2407C108.984 33.4665 109.315 33.7936 109.558 34.214C109.802 34.6345 109.92 35.1212 109.92 35.6662C109.92 36.2113 109.794 36.694 109.547 37.1184C109.299 37.5428 108.956 37.8659 108.528 38.0956C108.099 38.3253 107.623 38.4421 107.107 38.4421C106.592 38.4421 106.136 38.3253 105.722 38.0956ZM107.922 37.2741C108.174 37.1379 108.378 36.9315 108.536 36.659C108.693 36.3865 108.772 36.0556 108.772 35.6662C108.772 35.2769 108.697 34.946 108.543 34.6773C108.394 34.4087 108.193 34.2063 107.941 34.07C107.694 33.9337 107.422 33.8675 107.135 33.8675C106.848 33.8675 106.58 33.9337 106.332 34.07C106.084 34.2063 105.892 34.4087 105.746 34.6773C105.601 34.946 105.53 35.2769 105.53 35.6662C105.53 36.2424 105.679 36.6902 105.978 37.0055C106.277 37.3209 106.651 37.4766 107.103 37.4766C107.391 37.4766 107.662 37.4104 107.914 37.2741H107.922Z" fill="white"/>
<path d="M114.913 33.1667C115.251 33.3419 115.515 33.6028 115.704 33.9454C115.893 34.288 115.987 34.7046 115.987 35.1912V38.3526H114.878V35.3548C114.878 34.8759 114.756 34.506 114.512 34.2491C114.268 33.9921 113.937 33.8636 113.52 33.8636C113.103 33.8636 112.769 33.9921 112.521 34.2491C112.277 34.506 112.151 34.872 112.151 35.3548V38.3526H111.03V32.9915H112.151V33.6028C112.336 33.3809 112.568 33.2096 112.855 33.0889C113.139 32.9643 113.446 32.902 113.764 32.902C114.189 32.902 114.571 32.9915 114.909 33.1629L114.913 33.1667Z" fill="white"/>
<path d="M118.238 38.2124C117.899 38.0606 117.632 37.8503 117.435 37.5895C117.238 37.3248 117.132 37.0328 117.12 36.7096H118.281C118.3 36.9354 118.411 37.1262 118.611 37.278C118.812 37.4299 119.064 37.5077 119.363 37.5077C119.662 37.5077 119.921 37.4493 120.095 37.3286C120.268 37.208 120.354 37.0561 120.354 36.8654C120.354 36.6629 120.256 36.515 120.063 36.4176C119.87 36.3203 119.563 36.2152 119.142 36.0984C118.737 35.9894 118.403 35.8804 118.147 35.7752C117.891 35.6701 117.671 35.5144 117.482 35.2964C117.297 35.0822 117.203 34.8019 117.203 34.4515C117.203 34.1673 117.289 33.9065 117.459 33.669C117.628 33.4315 117.872 33.2446 118.19 33.1083C118.509 32.9721 118.875 32.9059 119.288 32.9059C119.906 32.9059 120.401 33.0616 120.779 33.3692C121.157 33.6768 121.357 34.0972 121.385 34.6306H120.264C120.244 34.3892 120.146 34.1985 119.969 34.0583C119.792 33.9181 119.552 33.8442 119.249 33.8442C118.946 33.8442 118.725 33.8987 118.572 34.0116C118.415 34.1206 118.336 34.2685 118.336 34.4476C118.336 34.5917 118.387 34.7085 118.493 34.8058C118.599 34.9031 118.725 34.981 118.875 35.0355C119.024 35.09 119.249 35.1601 119.544 35.2458C119.937 35.3509 120.26 35.456 120.512 35.5611C120.763 35.6662 120.984 35.8259 121.165 36.0322C121.35 36.2385 121.444 36.515 121.452 36.8576C121.452 37.1612 121.365 37.4338 121.196 37.6751C121.027 37.9165 120.783 38.1034 120.472 38.2397C120.161 38.3759 119.796 38.4421 119.375 38.4421C118.954 38.4421 118.568 38.3643 118.23 38.2124H118.238Z" fill="white"/>
<path d="M127.578 32.9915V38.3526H126.456V37.7219C126.279 37.9438 126.047 38.1151 125.764 38.2436C125.481 38.372 125.174 38.4343 124.855 38.4343C124.43 38.4343 124.048 38.3448 123.71 38.1696C123.372 37.9944 123.108 37.7336 122.911 37.3909C122.719 37.0483 122.62 36.6318 122.62 36.1451V32.9915H123.734V35.9777C123.734 36.4566 123.856 36.8264 124.096 37.0834C124.34 37.3403 124.67 37.4688 125.091 37.4688C125.512 37.4688 125.843 37.3403 126.09 37.0834C126.334 36.8264 126.46 36.4605 126.46 35.9777V32.9915H127.581H127.578Z" fill="white"/>
<path d="M130.174 31.15V38.3526H129.053V31.15H130.174Z" fill="white"/>
<path d="M132.956 33.8948V36.8615C132.956 37.0639 133.003 37.208 133.097 37.2936C133.192 37.3832 133.353 37.426 133.585 37.426H134.274V38.3526H133.388C132.885 38.3526 132.495 38.2358 132.228 38.0022C131.96 37.7686 131.827 37.387 131.827 36.8615V33.8948H131.189V32.9915H131.827V31.6562H132.96V32.9915H134.278V33.8948H132.96H132.956Z" fill="white"/>
<path d="M135.367 32.0766C135.23 31.9404 135.159 31.773 135.159 31.5705C135.159 31.3681 135.226 31.2006 135.367 31.0644C135.505 30.9281 135.674 30.8619 135.879 30.8619C136.083 30.8619 136.241 30.9281 136.379 31.0644C136.516 31.2006 136.587 31.3681 136.587 31.5705C136.587 31.773 136.52 31.9404 136.379 32.0766C136.241 32.2129 136.076 32.2791 135.879 32.2791C135.682 32.2791 135.505 32.2129 135.367 32.0766ZM136.43 32.9915V38.3526H135.308V32.9915H136.43Z" fill="white"/>
<path d="M141.784 33.1667C142.123 33.3419 142.386 33.6028 142.575 33.9454C142.764 34.288 142.858 34.7046 142.858 35.1912V38.3526H141.749V35.3548C141.749 34.8759 141.627 34.506 141.383 34.2491C141.139 33.9921 140.809 33.8636 140.392 33.8636C139.974 33.8636 139.64 33.9921 139.392 34.2491C139.148 34.506 139.022 34.872 139.022 35.3548V38.3526H137.901V32.9915H139.022V33.6028C139.207 33.3809 139.439 33.2096 139.727 33.0889C140.01 32.9643 140.317 32.902 140.635 32.902C141.06 32.902 141.442 32.9915 141.78 33.1629L141.784 33.1667Z" fill="white"/>
<path d="M147.587 33.1512C147.914 33.3147 148.166 33.521 148.351 33.7702V32.9915H149.484V38.4421C149.484 38.9366 149.377 39.3765 149.169 39.7619C148.96 40.1474 148.658 40.4511 148.26 40.673C147.863 40.8949 147.391 41.0039 146.84 41.0039C146.104 41.0039 145.494 40.8326 145.01 40.4939C144.527 40.1552 144.251 39.6919 144.184 39.1079H145.298C145.384 39.3882 145.565 39.614 145.845 39.7853C146.124 39.9566 146.454 40.0423 146.844 40.0423C147.296 40.0423 147.662 39.906 147.941 39.6335C148.221 39.3609 148.359 38.9638 148.359 38.446V37.5506C148.17 37.8036 147.91 38.0178 147.587 38.1891C147.265 38.3604 146.895 38.446 146.482 38.446C146.01 38.446 145.577 38.3292 145.187 38.0917C144.798 37.8542 144.487 37.5233 144.263 37.0989C144.039 36.6746 143.925 36.1918 143.925 35.6545C143.925 35.1173 144.039 34.6384 144.263 34.2257C144.491 33.8091 144.798 33.486 145.187 33.2563C145.577 33.0266 146.01 32.9098 146.482 32.9098C146.903 32.9098 147.273 32.9915 147.599 33.159L147.587 33.1512ZM148.119 34.7046C147.965 34.4321 147.764 34.2257 147.513 34.0817C147.265 33.9376 146.993 33.8675 146.706 33.8675C146.419 33.8675 146.147 33.9376 145.9 34.0778C145.652 34.2179 145.447 34.4204 145.294 34.689C145.14 34.9576 145.062 35.2769 145.062 35.6468C145.062 36.0166 145.14 36.3398 145.294 36.6201C145.447 36.9004 145.652 37.1106 145.904 37.2586C146.155 37.4065 146.423 37.4766 146.706 37.4766C146.989 37.4766 147.265 37.4065 147.513 37.2625C147.761 37.1184 147.965 36.9121 148.119 36.6356C148.272 36.3592 148.351 36.0361 148.351 35.6662C148.351 35.2964 148.272 34.9771 148.119 34.7007V34.7046Z" fill="white"/>
<path d="M155.786 33.8948H154.783V38.3526H153.65V33.8948H153.013V32.9915H153.65V32.61C153.65 31.9949 153.815 31.5433 154.146 31.2629C154.476 30.9826 154.996 30.8386 155.704 30.8386V31.7652C155.362 31.7652 155.122 31.8275 154.984 31.9559C154.846 32.0844 154.775 32.3024 154.775 32.6139V32.9954H155.779V33.8987L155.786 33.8948Z" fill="white"/>
<path d="M156.837 32.0766C156.699 31.9404 156.628 31.773 156.628 31.5705C156.628 31.3681 156.695 31.2006 156.837 31.0644C156.975 30.9281 157.144 30.8619 157.348 30.8619C157.553 30.8619 157.71 30.9281 157.848 31.0644C157.986 31.2006 158.057 31.3681 158.057 31.5705C158.057 31.773 157.99 31.9404 157.848 32.0766C157.71 32.2129 157.545 32.2791 157.348 32.2791C157.152 32.2791 156.975 32.2129 156.837 32.0766ZM157.899 32.9915V38.3526H156.778V32.9915H157.899Z" fill="white"/>
<path d="M161.149 33.1317C161.42 32.9799 161.743 32.902 162.117 32.902V34.0505H161.833C161.393 34.0505 161.062 34.1595 160.834 34.3814C160.606 34.6034 160.496 34.9849 160.496 35.53V38.3526H159.375V32.9915H160.496V33.7702C160.661 33.4977 160.877 33.2835 161.149 33.1317Z" fill="white"/>
<path d="M170.859 33.1667C171.197 33.3419 171.461 33.6028 171.653 33.9454C171.846 34.288 171.945 34.7046 171.945 35.1912V38.3526H170.835V35.3548C170.835 34.8759 170.713 34.506 170.469 34.2491C170.225 33.9921 169.895 33.8636 169.478 33.8636C169.061 33.8636 168.726 33.9921 168.479 34.2491C168.235 34.506 168.109 34.872 168.109 35.3548V38.3526H166.999V35.3548C166.999 34.8759 166.877 34.506 166.633 34.2491C166.389 33.9921 166.059 33.8636 165.642 33.8636C165.225 33.8636 164.89 33.9921 164.643 34.2491C164.399 34.506 164.273 34.872 164.273 35.3548V38.3526H163.151V32.9915H164.273V33.6028C164.458 33.3809 164.69 33.2096 164.973 33.0889C165.256 32.9643 165.555 32.902 165.878 32.902C166.311 32.902 166.696 32.9915 167.039 33.1745C167.381 33.3575 167.64 33.6184 167.825 33.961C167.991 33.6378 168.246 33.377 168.593 33.1862C168.939 32.9954 169.313 32.8981 169.714 32.8981C170.139 32.8981 170.52 32.9877 170.859 33.159V33.1667Z" fill="white"/>
</g>
<defs>
<clipPath id="clip0_4004_554">
<rect width="183" height="41" fill="white"/>
</clipPath>
</defs>
</svg>
