<svg width="234" height="50" viewBox="0 0 234 50" fill="none" xmlns="http://www.w3.org/2000/svg">
<path d="M24.688 36.493C26.6482 36.2513 28.5279 35.6337 30.2465 34.667C34.4893 32.304 36.906 28.276 37.094 23.2814V22.8249H43.0016C42.6525 19.8442 41.4979 17.1321 39.833 14.7959L33.8448 18.6359C35.6708 21.5091 35.9125 24.624 34.4893 27.8195C32.8513 31.6595 29.0381 34.9355 24.688 36.493Z" fill="#EB1F1F"/>
<path d="M43.109 23.7383H38.007C37.6579 28.7866 35.0263 33.0562 30.703 35.4461C28.2326 36.8156 25.413 37.5138 22.5398 37.5138C20.311 37.5138 18.0553 37.111 15.8802 36.3054C18.5118 37.9166 21.4388 38.8296 24.4463 38.8296H24.5C29.9511 38.8296 34.8921 35.9563 37.6579 31.0691L37.8996 30.6663L41.283 32.8414C42.4914 30.4784 43.1359 27.8468 43.1359 25.0272C43.1359 24.5976 43.109 24.1948 43.109 23.7383Z" fill="#EB1F1F"/>
<path d="M24.5 39.7155C18.9951 39.7155 13.8662 37.0034 10.2411 32.3579C13.0069 38.2118 18.9683 42.2934 25.8694 42.2934C32.2604 42.2934 37.8727 38.8026 40.8533 33.62L38.168 31.9551C35.1874 36.7886 30.139 39.7155 24.5 39.7155Z" fill="#EB1F1F"/>
<path d="M25.8426 43.2062C15.7997 43.2062 7.63642 35.0967 7.63642 25C7.63642 14.957 15.746 6.79377 25.8426 6.79377C35.9393 6.79377 44.0489 14.9033 44.0489 25C44.0489 35.043 35.8856 43.2062 25.8426 43.2062ZM25.8426 0C12.0403 0 0.842651 11.1976 0.842651 25C0.842651 38.8024 12.0403 50 25.8426 50C39.645 50 50.8426 38.8024 50.8426 25C50.8426 11.1976 39.6719 0 25.8426 0Z" fill="#EB1F1F"/>
<path d="M225.52 34.1835V29.887H215.934V25.5906H224.527V21.6163H215.934V17.6958H225.01V13.5068H211.1V34.1835H225.52ZM199.5 21.1061C199.285 21.4552 198.99 21.7237 198.641 21.858C198.292 22.0191 197.889 22.1534 197.486 22.2071C197.029 22.2608 196.627 22.3145 196.224 22.3145H193.861V17.481H196.546C196.895 17.481 197.298 17.5347 197.701 17.5884C198.104 17.6421 198.453 17.7495 198.802 17.9375C199.097 18.0986 199.419 18.3403 199.607 18.6357C199.822 18.931 199.903 19.3338 199.903 19.7903C199.849 20.3543 199.768 20.757 199.5 21.1061ZM205.918 34.1835L200.52 25.322C201.89 24.9192 202.883 24.2211 203.689 23.2544C204.441 22.2877 204.844 21.133 204.844 19.7366C204.844 18.5283 204.629 17.5616 204.199 16.756C203.743 15.9504 203.152 15.3059 202.373 14.8494C201.621 14.3392 200.762 14.0438 199.849 13.8022C198.882 13.5873 197.942 13.5068 196.922 13.5068H189.054V34.1835H193.941V26.0202H195.66L200.144 34.2372H205.918V34.1835ZM177.722 26.3156C177.427 27.1212 177.024 27.7656 176.514 28.3295C176.004 28.8935 175.359 29.35 174.661 29.6453C173.963 29.9407 173.157 30.1555 172.298 30.1555C171.439 30.1555 170.633 29.9944 169.935 29.6453C169.237 29.35 168.565 28.8935 168.082 28.3295C167.572 27.7656 167.169 27.0675 166.874 26.3156C166.578 25.51 166.417 24.6507 166.417 23.7377C166.417 22.8247 166.578 22.0191 166.82 21.2135C167.115 20.4617 167.518 19.7635 168.028 19.1996C168.539 18.6357 169.183 18.1792 169.881 17.8838C170.579 17.5884 171.385 17.3736 172.244 17.3736C173.104 17.3736 173.909 17.5347 174.661 17.8838C175.359 18.1792 176.031 18.6357 176.514 19.1996C177.024 19.7635 177.427 20.408 177.722 21.2135C178.018 21.9654 178.179 22.8247 178.179 23.7377C178.179 24.6507 178.018 25.51 177.722 26.3156ZM182.663 19.2533C182.099 17.9375 181.294 16.7828 180.3 15.8698C179.28 14.9031 178.071 14.205 176.729 13.6947C175.359 13.1845 173.855 12.9429 172.244 12.9429C170.633 12.9429 169.129 13.1845 167.76 13.6947C166.39 14.205 165.182 14.9031 164.188 15.8698C163.168 16.8365 162.416 17.9375 161.825 19.2533C161.262 20.5691 160.966 22.0728 160.966 23.7377C160.966 25.3489 161.262 26.8526 161.825 28.2221C162.389 29.5916 163.195 30.7463 164.188 31.713C165.209 32.6797 166.364 33.4316 167.76 33.9418C169.129 34.452 170.633 34.7474 172.244 34.7474C173.855 34.7474 175.359 34.5057 176.729 33.9418C178.098 33.4316 179.307 32.6797 180.3 31.713C181.321 30.7463 182.072 29.5916 182.663 28.2221C183.227 26.8526 183.523 25.4026 183.523 23.7377C183.523 22.0728 183.227 20.5691 182.663 19.2533ZM158.012 31.3102L154.521 28.0342C154.065 28.6518 153.474 29.1351 152.749 29.5379C151.997 29.9407 151.138 30.1555 150.118 30.1555C149.258 30.1555 148.453 29.9944 147.755 29.699C147.056 29.4037 146.385 28.9472 145.902 28.3833C145.391 27.8193 144.989 27.1749 144.693 26.3693C144.398 25.6174 144.237 24.7581 144.237 23.7914C144.237 22.8784 144.398 22.0191 144.693 21.2673C144.989 20.5154 145.391 19.8441 145.902 19.2533C146.412 18.6894 147.056 18.2329 147.755 17.9375C148.453 17.6421 149.258 17.4273 150.171 17.4273C150.977 17.4273 151.729 17.5884 152.481 17.8838C153.233 18.1792 153.85 18.6894 154.307 19.307L157.69 15.9235C156.831 14.9031 155.676 14.1512 154.253 13.6679C152.83 13.1845 151.433 12.916 149.956 12.916C148.399 12.916 146.922 13.1577 145.579 13.6679C144.21 14.1781 143.002 14.8763 142.008 15.843C141.014 16.8097 140.182 17.9106 139.645 19.2801C139.108 20.6496 138.786 22.0997 138.786 23.7646C138.786 25.3757 139.081 26.8526 139.645 28.1953C140.209 29.5648 141.014 30.7194 141.954 31.6862C142.975 32.6529 144.129 33.4047 145.472 33.9149C146.815 34.4251 148.292 34.7205 149.903 34.7205C151.675 34.7205 153.179 34.4251 154.548 33.8075C155.945 33.1631 157.046 32.3575 158.012 31.3102ZM134.167 34.1835V29.887H124.581V25.5906H133.147V21.6163H124.581V17.6958H133.657V13.5068H119.747V34.1835H134.167ZM114.242 17.7495V13.4531H97.5397V17.7495H103.394V34.1298H108.388V17.7495H114.242ZM92.1154 13.5068H87.0671V34.1835H92.1154V13.5068ZM81.0252 15.5207C80.1122 14.6615 79.0649 14.0707 77.8566 13.6142C76.6482 13.2114 75.4398 12.9697 74.2851 12.9697C73.3184 12.9697 72.3786 13.0771 71.4119 13.3188C70.4452 13.5605 69.5859 13.9364 68.834 14.4735C68.0821 14.9837 67.4645 15.6819 67.008 16.4874C66.5515 17.293 66.3098 18.3134 66.3098 19.4144C66.3098 20.3811 66.471 21.133 66.7663 21.7775C67.0617 22.4219 67.4645 22.9858 67.9747 23.4423C68.4849 23.8988 69.022 24.3016 69.6933 24.5433C70.3378 24.8387 70.9554 25.1072 71.6536 25.2952C72.298 25.51 72.9694 25.698 73.4796 25.9128C74.0435 26.1276 74.4463 26.3156 74.8491 26.5304C75.1981 26.7452 75.4935 26.9869 75.7083 27.2823C75.9232 27.524 76.0037 27.8999 76.0037 28.3027C76.0037 28.7055 75.8963 29.0546 75.7621 29.35C75.6278 29.6453 75.413 29.8602 75.1444 30.0481C74.9028 30.2092 74.5805 30.3435 74.2314 30.4509C73.8823 30.5583 73.5333 30.5583 73.1842 30.5583C72.3786 30.5583 71.5193 30.3435 70.7137 29.9407C69.9081 29.5379 69.21 28.974 68.6998 28.3833L65.4237 31.713C66.3367 32.6797 67.4914 33.3779 68.8609 33.9418C70.2304 34.452 71.6804 34.6937 73.1573 34.6937C74.1777 34.6937 75.1713 34.5326 76.0843 34.2909C77.051 34.0492 77.9103 33.5927 78.6085 33.0288C79.3603 32.4649 79.9242 31.7667 80.3807 30.8537C80.8372 29.9944 81.0252 28.9472 81.0252 27.7656C81.0252 26.7452 80.8104 25.8591 80.4076 25.1878C80.0048 24.4896 79.4946 23.9257 78.8501 23.4692C78.2325 23.0127 77.5343 22.6099 76.7825 22.3682C76.0306 22.0728 75.2787 21.8043 74.6074 21.6163C74.0972 21.4552 73.6944 21.321 73.2916 21.1598C72.8888 20.9987 72.5934 20.8645 72.2712 20.6496C71.9758 20.4885 71.761 20.2468 71.6267 20.032C71.4656 19.7903 71.4119 19.5218 71.4119 19.1727C71.4119 18.7699 71.5193 18.4208 71.7073 18.1523C71.9221 17.9106 72.1101 17.6958 72.4054 17.5079C72.6471 17.3467 72.9694 17.2125 73.3184 17.1588C73.6675 17.1051 73.9629 17.0514 74.3389 17.0514C74.9833 17.0514 75.6546 17.2125 76.3528 17.5616C77.051 17.8569 77.6149 18.3134 78.0177 18.8773L81.0252 15.5207Z" fill="black"/>
<path d="M230.918 15.4134V14.7689H231.267C231.374 14.7689 231.482 14.7689 231.562 14.8226C231.643 14.8763 231.723 14.93 231.723 15.0643C231.723 15.2254 231.67 15.306 231.562 15.306C231.455 15.3597 231.347 15.3597 231.213 15.3597H230.918V15.4134ZM230.515 16.7292H230.918V15.7625H231.213L231.777 16.7292H232.287L231.67 15.7088C231.831 15.6551 231.965 15.6014 232.072 15.4939C232.18 15.3865 232.234 15.2523 232.234 15.0912C232.234 14.9837 232.234 14.8495 232.18 14.7958C232.126 14.6884 232.072 14.6347 231.965 14.5809C231.858 14.5272 231.804 14.4735 231.723 14.4735C231.643 14.4735 231.509 14.4198 231.428 14.4198H230.622V16.6755H230.515V16.7292ZM229.709 14.9032C229.817 14.6884 229.924 14.5004 230.059 14.3393C230.22 14.1782 230.408 14.0439 230.622 13.9902C230.837 13.8828 231.079 13.8291 231.267 13.8291C231.509 13.8291 231.723 13.8828 231.911 13.9902C232.126 14.0976 232.314 14.205 232.475 14.3393C232.636 14.4735 232.771 14.6884 232.824 14.9032C232.932 15.118 232.985 15.3597 232.985 15.5476C232.985 15.7893 232.932 16.0042 232.824 16.1921C232.717 16.4069 232.61 16.5949 232.475 16.756C232.314 16.9171 232.126 17.0514 231.911 17.1051C231.697 17.2125 231.455 17.2662 231.267 17.2662C231.025 17.2662 230.81 17.2125 230.622 17.1051C230.408 16.9977 230.22 16.8903 230.059 16.756C229.897 16.5949 229.763 16.4069 229.709 16.1921C229.602 15.9773 229.548 15.7356 229.548 15.5476C229.548 15.306 229.602 15.118 229.709 14.9032ZM229.414 16.3801C229.521 16.6218 229.656 16.8366 229.871 17.0246C230.085 17.2394 230.273 17.3199 230.515 17.4811C230.757 17.5885 231.025 17.6422 231.321 17.6422C231.616 17.6422 231.885 17.5885 232.126 17.4811C232.368 17.3736 232.583 17.2394 232.771 17.0246C232.985 16.8097 233.12 16.6218 233.227 16.3801C233.335 16.1384 233.388 15.8699 233.388 15.5745C233.388 15.2791 233.335 15.0106 233.227 14.7689C233.12 14.5272 232.985 14.3124 232.771 14.1244C232.556 13.9096 232.368 13.7754 232.126 13.6679C231.885 13.5605 231.616 13.5068 231.321 13.5068C231.025 13.5068 230.757 13.5605 230.515 13.6679C230.273 13.7754 230.059 13.9096 229.871 14.1244C229.656 14.3393 229.521 14.5272 229.414 14.7689C229.307 15.0106 229.253 15.2791 229.253 15.5745C229.253 15.8699 229.307 16.1384 229.414 16.3801Z" fill="black"/>
</svg>
