<svg width="183" height="41" viewBox="0 0 183 41" fill="none" xmlns="http://www.w3.org/2000/svg">
<g clip-path="url(#clip0_4061_1305)">
<path d="M0 5.78518H5.52376V27.424H11.6731V5.78518H17.1968V0.373535H0V5.78518Z" fill="#FFAD00"/>
<path d="M27.9217 18.376L24.8766 0.373535H18.5896L23.9009 27.385H31.5649L36.8762 0.373535H30.9629L27.9217 18.376Z" fill="#FFAD00"/>
<path d="M51.98 0.373535L46.3185 27.4201H52.2318L53.1012 22.6664H58.326L59.1955 27.4201H65.4864L59.825 0.373535H51.98ZM57.3385 17.3326H54.0848L55.6979 8.41313L57.3385 17.3326Z" fill="#FFAD00"/>
<path d="M81.9869 0C76.7621 0 73.7681 2.90827 73.7681 7.98509V19.8128C73.7681 24.8858 76.7661 27.7979 81.9869 27.7979C87.2077 27.7979 90.1663 24.8897 90.1663 19.8128V16.7333H84.3199V19.9997C84.3199 21.6816 83.5724 22.5342 82.097 22.5342C80.2912 22.5342 79.9135 21.156 79.9135 19.9997V7.79821C79.9135 6.64191 80.2912 5.2637 82.097 5.2637C83.5724 5.2637 84.3199 6.11632 84.3199 7.79821V10.3172H90.1663V7.98509C90.1663 2.91216 87.1841 0 81.9869 0Z" fill="#FFAD00"/>
<path d="M100.785 0C95.4186 0 92.338 2.90827 92.338 7.98509V19.8128C92.338 24.8858 95.4146 27.7979 100.785 27.7979C106.155 27.7979 109.232 24.8897 109.232 19.8128V7.98509C109.232 2.91216 106.155 0 100.785 0ZM98.4913 7.79821C98.4913 6.7081 98.8886 5.41164 100.789 5.41164C102.689 5.41164 103.087 6.7081 103.087 7.79821V19.9997C103.087 21.0898 102.689 22.3863 100.789 22.3863C98.8886 22.3863 98.4913 21.0898 98.4913 19.9997V7.79821Z" fill="#FFAD00"/>
<path d="M118.273 0.373535H112.124V27.424H126.976V22.0123H118.273V0.373535Z" fill="#FFAD00"/>
<path d="M135.222 0.373535H129.073V27.424H143.921V22.0123H135.222V0.373535Z" fill="#FFAD00"/>
<path d="M150.412 0.373535L144.751 27.4201H150.664L151.533 22.6664H156.758L157.628 27.4201H163.919L158.257 0.373535H150.412ZM155.771 17.3326H152.517L154.13 8.41313L155.771 17.3326Z" fill="#FFAD00"/>
<path d="M179.62 13.0773C181.536 12.0962 182.473 10.3753 182.473 7.83304V7.34638C182.473 2.65499 179.77 0.373535 174.215 0.373535H165.807V27.4201H174.707C180.289 27.4201 183 24.9206 183 19.7737V19.326C183 16.1802 181.891 14.1284 179.62 13.0773ZM171.953 16.2308H173.872C176.209 16.2308 176.851 16.8421 176.851 19.0651V19.7776C176.851 21.4283 176.288 22.0123 174.707 22.0123H171.956V16.2308H171.953ZM176.32 8.47153C176.32 10.1379 175.521 10.8192 173.57 10.8192H171.953V5.78518H174.061C175.71 5.78518 176.32 6.38085 176.32 7.98487V8.47153Z" fill="#FFAD00"/>
<path d="M44.3868 0.416504H38.2689V27.4241H44.3868V0.416504Z" fill="#FFAD00"/>
<path d="M19.3528 33.1666C19.6912 33.3418 19.9548 33.6026 20.1476 33.9452C20.3403 34.2878 20.4387 34.7044 20.4387 35.1911V38.3524H19.3292V35.3546C19.3292 34.8757 19.2073 34.5059 18.9633 34.2489C18.7194 33.992 18.3889 33.8635 17.9719 33.8635C17.5549 33.8635 17.2204 33.992 16.9726 34.2489C16.7287 34.5059 16.6028 34.8718 16.6028 35.3546V38.3524H15.4933V35.3546C15.4933 34.8757 15.3713 34.5059 15.1274 34.2489C14.8835 33.992 14.553 33.8635 14.1359 33.8635C13.7189 33.8635 13.3845 33.992 13.1366 34.2489C12.8927 34.5059 12.7668 34.8718 12.7668 35.3546V38.3524H11.6455V32.9914H12.7668V33.6026C12.9517 33.3807 13.1838 33.2094 13.4671 33.0887C13.7504 32.9641 14.0494 32.9018 14.372 32.9018C14.8048 32.9018 15.1903 32.9914 15.5326 33.1744C15.8749 33.3574 16.1346 33.6182 16.3195 33.9608C16.4847 33.6377 16.7405 33.3768 17.0867 33.1861C17.4329 32.9953 17.8067 32.8979 18.2079 32.8979C18.6329 32.8979 19.0145 32.9875 19.3528 33.1588V33.1666Z" fill="white"/>
<path d="M21.8275 34.2178C22.0557 33.8012 22.3626 33.4781 22.7521 33.2484C23.1416 33.0187 23.5743 32.9019 24.0465 32.9019C24.4714 32.9019 24.8451 32.9836 25.1638 33.151C25.4825 33.3145 25.7343 33.5209 25.9271 33.7701V32.9914H27.0601V38.3524H25.9271V37.5543C25.7382 37.8074 25.4785 38.0176 25.1481 38.185C24.8215 38.3524 24.4478 38.4381 24.0268 38.4381C23.5625 38.4381 23.1337 38.3213 22.7481 38.0838C22.3626 37.8463 22.0557 37.5154 21.8275 37.091C21.6033 36.6666 21.4892 36.1839 21.4892 35.6466C21.4892 35.1093 21.6033 34.6305 21.8275 34.2178ZM25.6949 34.7044C25.5415 34.4319 25.3408 34.2256 25.0891 34.0815C24.8412 33.9375 24.5697 33.8674 24.2825 33.8674C23.9953 33.8674 23.7238 33.9375 23.476 34.0776C23.2281 34.2178 23.0235 34.4202 22.8701 34.6889C22.7167 34.9575 22.638 35.2767 22.638 35.6466C22.638 36.0165 22.7167 36.3396 22.8701 36.6199C23.0235 36.9002 23.2281 37.1105 23.4799 37.2584C23.7317 37.4064 23.9993 37.4764 24.2825 37.4764C24.5658 37.4764 24.8412 37.4064 25.0891 37.2623C25.3369 37.1183 25.5415 36.9119 25.6949 36.6355C25.8484 36.3591 25.9271 36.0359 25.9271 35.6661C25.9271 35.2962 25.8484 34.977 25.6949 34.7005V34.7044Z" fill="white"/>
<path d="M30.3099 33.1316C30.5813 32.9797 30.9039 32.9019 31.2777 32.9019V34.0504H30.9944C30.5538 34.0504 30.2233 34.1594 29.9951 34.3813C29.7669 34.6032 29.6568 34.9848 29.6568 35.5298V38.3524H28.5355V32.9914H29.6568V33.7701C29.822 33.4975 30.0384 33.2834 30.3099 33.1316Z" fill="white"/>
<path d="M33.6186 33.8944V36.8611C33.6186 37.0635 33.6658 37.2076 33.7602 37.2932C33.8547 37.3828 34.016 37.4256 34.2481 37.4256H34.9366V38.3522H34.0514C33.5478 38.3522 33.1583 38.2354 32.8908 38.0018C32.6232 37.7682 32.4895 37.3867 32.4895 36.8611V33.8944H31.8521V32.9912H32.4895V31.6558H33.6225V32.9912H34.9405V33.8944H33.6225H33.6186Z" fill="white"/>
<path d="M40.8971 36.0865H36.7542C36.7857 36.5148 36.947 36.8574 37.2342 37.1182C37.5214 37.3791 37.8755 37.5076 38.2965 37.5076C38.8984 37.5076 39.3273 37.2584 39.5751 36.7562H40.7869C40.6217 37.2506 40.3266 37.6516 39.8978 37.967C39.4689 38.2823 38.9338 38.4381 38.3004 38.4381C37.7811 38.4381 37.3168 38.3213 36.9077 38.0916C36.4985 37.8619 36.1759 37.5387 35.9438 37.1182C35.7117 36.7017 35.5936 36.215 35.5936 35.6622C35.5936 35.1093 35.7077 34.6265 35.932 34.2061C36.1602 33.7895 36.4749 33.4664 36.888 33.2367C37.2972 33.0108 37.7693 32.894 38.3004 32.894C38.8316 32.894 39.2683 33.0031 39.6696 33.225C40.0709 33.4469 40.3817 33.7545 40.6059 34.1555C40.8302 34.5565 40.9403 35.012 40.9403 35.5337C40.9403 35.7361 40.9285 35.9152 40.901 36.0787L40.8971 36.0865ZM39.764 35.1911C39.7561 34.7823 39.6105 34.4552 39.3233 34.21C39.0361 33.9647 38.6781 33.8401 38.2493 33.8401C37.8637 33.8401 37.5293 33.9608 37.2578 34.2061C36.9824 34.4475 36.8172 34.7784 36.766 35.195H39.764V35.1911Z" fill="white"/>
<path d="M42.0026 34.2139C42.2308 33.7973 42.5416 33.4742 42.9429 33.2445C43.3442 33.0187 43.8006 32.9019 44.3199 32.9019C44.9769 32.9019 45.5199 33.0576 45.9487 33.3652C46.3775 33.6727 46.6687 34.1127 46.8182 34.685H45.6064C45.5081 34.4202 45.3507 34.21 45.1343 34.062C44.9179 33.9141 44.6464 33.8362 44.316 33.8362C43.8556 33.8362 43.4898 33.9959 43.2183 34.319C42.9468 34.6383 42.8091 35.0899 42.8091 35.6661C42.8091 36.2423 42.9468 36.6939 43.2183 37.0209C43.4898 37.3441 43.8556 37.5076 44.316 37.5076C44.9651 37.5076 45.394 37.2234 45.6064 36.6589H46.8182C46.6608 37.2039 46.3657 37.6361 45.933 37.9592C45.5002 38.2824 44.9612 38.442 44.3199 38.442C43.8006 38.442 43.3442 38.3252 42.9429 38.0955C42.5416 37.8658 42.2308 37.5426 42.0026 37.1222C41.7783 36.7056 41.6642 36.2189 41.6642 35.6661C41.6642 35.1132 41.7783 34.6305 42.0026 34.21V34.2139Z" fill="white"/>
<path d="M51.8462 33.1666C52.1728 33.3418 52.4246 33.6027 52.6134 33.9453C52.7983 34.2879 52.8927 34.7045 52.8927 35.1911V38.3524H51.7833V35.3546C51.7833 34.8758 51.6613 34.5059 51.4174 34.2489C51.1734 33.992 50.843 33.8635 50.4259 33.8635C50.0089 33.8635 49.6745 33.992 49.4266 34.2489C49.1827 34.5059 49.0568 34.8719 49.0568 35.3546V38.3524H47.9355V31.1499H49.0568V33.6143C49.2456 33.3885 49.4896 33.2133 49.7807 33.0887C50.0718 32.9642 50.3905 32.9019 50.7407 32.9019C51.1538 32.9019 51.5236 32.9914 51.8462 33.1627V33.1666Z" fill="white"/>
<path d="M57.7004 38.2123C57.3621 38.0604 57.0946 37.8502 56.8978 37.5894C56.7011 37.3246 56.5949 37.0326 56.5831 36.7095H57.7437C57.7634 36.9353 57.8735 37.1261 58.0742 37.2779C58.2748 37.4297 58.5266 37.5076 58.8256 37.5076C59.1247 37.5076 59.3843 37.4492 59.5574 37.3285C59.7305 37.2078 59.8171 37.056 59.8171 36.8652C59.8171 36.6628 59.7187 36.5148 59.526 36.4175C59.3332 36.3202 59.0263 36.215 58.6053 36.0982C58.2001 35.9892 57.8657 35.8802 57.6099 35.7751C57.3542 35.67 57.1339 35.5143 56.9451 35.2962C56.7601 35.0821 56.6657 34.8018 56.6657 34.4514C56.6657 34.1672 56.7523 33.9063 56.9214 33.6688C57.0906 33.4314 57.3345 33.2445 57.6532 33.1082C57.9719 32.9719 58.3378 32.9058 58.7509 32.9058C59.3686 32.9058 59.8643 33.0615 60.242 33.3691C60.6197 33.6766 60.8203 34.0971 60.8479 34.6305H59.7266C59.7069 34.3891 59.6086 34.1983 59.4315 34.0582C59.2545 33.918 59.0145 33.844 58.7116 33.844C58.4086 33.844 58.1883 33.8985 58.0349 34.0115C57.8775 34.1205 57.7988 34.2684 57.7988 34.4475C57.7988 34.5915 57.8499 34.7083 57.9562 34.8057C58.0624 34.903 58.1883 34.9809 58.3378 35.0354C58.4873 35.0899 58.7116 35.16 59.0066 35.2456C59.4001 35.3507 59.7227 35.4559 59.9745 35.561C60.2263 35.6661 60.4466 35.8257 60.6276 36.0321C60.8125 36.2384 60.9069 36.5148 60.9148 36.8574C60.9148 37.1611 60.8282 37.4336 60.659 37.675C60.4899 37.9164 60.2459 38.1033 59.9351 38.2395C59.6243 38.3758 59.2584 38.442 58.8375 38.442C58.4165 38.442 58.0309 38.3641 57.6926 38.2123H57.7004Z" fill="white"/>
<path d="M63.0944 38.0955C62.6813 37.8658 62.3547 37.5426 62.1187 37.1221C61.8826 36.7056 61.7646 36.2189 61.7646 35.6661C61.7646 35.1132 61.8865 34.6382 62.1265 34.2139C62.3705 33.7934 62.7009 33.4664 63.1219 33.2406C63.5429 33.0147 64.0111 32.8979 64.5265 32.8979C65.0419 32.8979 65.514 33.0109 65.9349 33.2406C66.3559 33.4664 66.6864 33.7934 66.9303 34.2139C67.1742 34.6343 67.2923 35.121 67.2923 35.6661C67.2923 36.2111 67.1664 36.6939 66.9185 37.1182C66.6707 37.5426 66.3284 37.8658 65.8995 38.0955C65.4707 38.3252 64.9946 38.442 64.4793 38.442C63.9639 38.442 63.5075 38.3252 63.0944 38.0955ZM65.2937 37.274C65.5454 37.1377 65.75 36.9314 65.9074 36.6588C66.0648 36.3863 66.1435 36.0554 66.1435 35.6661C66.1435 35.2767 66.0687 34.9458 65.9153 34.6772C65.7658 34.4085 65.5651 34.2061 65.3133 34.0698C65.0655 33.9336 64.794 33.8674 64.5068 33.8674C64.2196 33.8674 63.9521 33.9336 63.7042 34.0698C63.4563 34.2061 63.2636 34.4085 63.118 34.6772C62.9724 34.9458 62.9016 35.2767 62.9016 35.6661C62.9016 36.2423 63.0511 36.69 63.3501 37.0053C63.6491 37.3207 64.0229 37.4764 64.4753 37.4764C64.7625 37.4764 65.034 37.4102 65.2858 37.274H65.2937Z" fill="white"/>
<path d="M69.5269 31.1499V38.3524H68.4057V31.1499H69.5269Z" fill="white"/>
<path d="M75.9084 32.9912V38.3522H74.7871V37.7215C74.6101 37.9434 74.3779 38.1148 74.0947 38.2432C73.8114 38.3717 73.5045 38.434 73.1859 38.434C72.761 38.434 72.3793 38.3445 72.041 38.1693C71.7026 37.9941 71.439 37.7332 71.2423 37.3906C71.0495 37.048 70.9512 36.6314 70.9512 36.1448V32.9912H72.0646V35.9773C72.0646 36.4562 72.1865 36.8261 72.4265 37.083C72.6705 37.34 73.0009 37.4685 73.4219 37.4685C73.8429 37.4685 74.1734 37.34 74.4212 37.083C74.6652 36.8261 74.7911 36.4601 74.7911 35.9773V32.9912H75.9123H75.9084Z" fill="white"/>
<path d="M78.6939 33.8944V36.8611C78.6939 37.0635 78.7411 37.2076 78.8355 37.2932C78.9299 37.3828 79.0912 37.4256 79.3234 37.4256H80.0119V38.3522H79.1266C78.623 38.3522 78.2336 38.2354 77.966 38.0018C77.6985 37.7682 77.5647 37.3867 77.5647 36.8611V33.8944H76.9274V32.9912H77.5647V31.6558H78.6978V32.9912H80.0158V33.8944H78.6978H78.6939Z" fill="white"/>
<path d="M81.1056 32.0765C80.9679 31.9403 80.8971 31.7728 80.8971 31.5704C80.8971 31.3679 80.9639 31.2005 81.1056 31.0643C81.2433 30.928 81.4125 30.8618 81.617 30.8618C81.8216 30.8618 81.979 30.928 82.1167 31.0643C82.2544 31.2005 82.3252 31.3679 82.3252 31.5704C82.3252 31.7728 82.2583 31.9403 82.1167 32.0765C81.979 32.2128 81.8138 32.279 81.617 32.279C81.4203 32.279 81.2433 32.2128 81.1056 32.0765ZM82.1639 32.9914V38.3525H81.0426V32.9914H82.1639Z" fill="white"/>
<path d="M84.6071 38.0955C84.194 37.8658 83.8675 37.5426 83.6314 37.1221C83.3953 36.7056 83.2773 36.2189 83.2773 35.6661C83.2773 35.1132 83.3993 34.6382 83.6393 34.2139C83.8832 33.7934 84.2137 33.4664 84.6346 33.2406C85.0556 33.0147 85.5238 32.8979 86.0392 32.8979C86.5546 32.8979 87.0267 33.0109 87.4477 33.2406C87.8686 33.4664 88.1991 33.7934 88.4431 34.2139C88.687 34.6343 88.805 35.121 88.805 35.6661C88.805 36.2111 88.6791 36.6939 88.4312 37.1182C88.1834 37.5426 87.8411 37.8658 87.4123 38.0955C86.9834 38.3252 86.5074 38.442 85.992 38.442C85.4766 38.442 85.0202 38.3252 84.6071 38.0955ZM86.8024 37.274C87.0542 37.1377 87.2588 36.9314 87.4162 36.6588C87.5736 36.3863 87.6523 36.0554 87.6523 35.6661C87.6523 35.2767 87.5775 34.9458 87.4241 34.6772C87.2746 34.4085 87.0739 34.2061 86.8221 34.0698C86.5743 33.9336 86.3028 33.8674 86.0156 33.8674C85.7284 33.8674 85.4608 33.9336 85.213 34.0698C84.9651 34.2061 84.7724 34.4085 84.6268 34.6772C84.4812 34.9458 84.4104 35.2767 84.4104 35.6661C84.4104 36.2423 84.5599 36.69 84.8589 37.0053C85.1579 37.3207 85.5317 37.4764 85.9841 37.4764C86.2713 37.4764 86.5428 37.4102 86.7946 37.274H86.8024Z" fill="white"/>
<path d="M93.7976 33.1666C94.136 33.3418 94.3996 33.6026 94.5884 33.9453C94.7773 34.2879 94.8717 34.7044 94.8717 35.1911V38.3524H93.7622V35.3546C93.7622 34.8757 93.6403 34.5059 93.3963 34.2489C93.1524 33.992 92.8219 33.8635 92.4049 33.8635C91.9879 33.8635 91.6535 33.992 91.4056 34.2489C91.1617 34.5059 91.0358 34.8718 91.0358 35.3546V38.3524H89.9145V32.9914H91.0358V33.6026C91.2207 33.3807 91.4528 33.2094 91.74 33.0887C92.0233 32.9641 92.3302 32.9019 92.6488 32.9019C93.0737 32.9019 93.4554 32.9914 93.7937 33.1627L93.7976 33.1666Z" fill="white"/>
<path d="M98.8217 34.2139C99.0499 33.7973 99.3607 33.4742 99.762 33.2445C100.163 33.0187 100.62 32.9019 101.139 32.9019C101.796 32.9019 102.339 33.0576 102.768 33.3652C103.197 33.6727 103.488 34.1127 103.637 34.685H102.426C102.327 34.4202 102.17 34.21 101.953 34.062C101.737 33.9141 101.466 33.8362 101.135 33.8362C100.675 33.8362 100.309 33.9959 100.037 34.319C99.766 34.6383 99.6283 35.0899 99.6283 35.6661C99.6283 36.2423 99.766 36.6939 100.037 37.0209C100.309 37.3441 100.675 37.5076 101.135 37.5076C101.784 37.5076 102.213 37.2234 102.426 36.6589H103.637C103.48 37.2039 103.185 37.6361 102.752 37.9592C102.319 38.2824 101.78 38.442 101.139 38.442C100.62 38.442 100.163 38.3252 99.762 38.0955C99.3607 37.8658 99.0499 37.5426 98.8217 37.1222C98.5975 36.7056 98.4834 36.2189 98.4834 35.6661C98.4834 35.1132 98.5975 34.6305 98.8217 34.21V34.2139Z" fill="white"/>
<path d="M105.722 38.0955C105.309 37.8658 104.983 37.5426 104.747 37.1221C104.511 36.7056 104.393 36.2189 104.393 35.6661C104.393 35.1132 104.515 34.6382 104.755 34.2139C104.999 33.7934 105.329 33.4664 105.75 33.2406C106.171 33.0147 106.639 32.8979 107.155 32.8979C107.67 32.8979 108.142 33.0109 108.563 33.2406C108.984 33.4664 109.315 33.7934 109.558 34.2139C109.802 34.6343 109.92 35.121 109.92 35.6661C109.92 36.2111 109.794 36.6939 109.547 37.1182C109.299 37.5426 108.956 37.8658 108.528 38.0955C108.099 38.3252 107.623 38.442 107.107 38.442C106.592 38.442 106.136 38.3252 105.722 38.0955ZM107.922 37.274C108.174 37.1377 108.378 36.9314 108.536 36.6588C108.693 36.3863 108.772 36.0554 108.772 35.6661C108.772 35.2767 108.697 34.9458 108.543 34.6772C108.394 34.4085 108.193 34.2061 107.941 34.0698C107.694 33.9336 107.422 33.8674 107.135 33.8674C106.848 33.8674 106.58 33.9336 106.332 34.0698C106.084 34.2061 105.892 34.4085 105.746 34.6772C105.601 34.9458 105.53 35.2767 105.53 35.6661C105.53 36.2423 105.679 36.69 105.978 37.0053C106.277 37.3207 106.651 37.4764 107.103 37.4764C107.391 37.4764 107.662 37.4102 107.914 37.274H107.922Z" fill="white"/>
<path d="M114.913 33.1666C115.251 33.3418 115.515 33.6026 115.704 33.9453C115.893 34.2879 115.987 34.7044 115.987 35.1911V38.3524H114.878V35.3546C114.878 34.8757 114.756 34.5059 114.512 34.2489C114.268 33.992 113.937 33.8635 113.52 33.8635C113.103 33.8635 112.769 33.992 112.521 34.2489C112.277 34.5059 112.151 34.8718 112.151 35.3546V38.3524H111.03V32.9914H112.151V33.6026C112.336 33.3807 112.568 33.2094 112.855 33.0887C113.139 32.9641 113.446 32.9019 113.764 32.9019C114.189 32.9019 114.571 32.9914 114.909 33.1627L114.913 33.1666Z" fill="white"/>
<path d="M118.238 38.2123C117.899 38.0604 117.632 37.8502 117.435 37.5894C117.238 37.3246 117.132 37.0326 117.12 36.7095H118.281C118.3 36.9353 118.411 37.1261 118.611 37.2779C118.812 37.4297 119.064 37.5076 119.363 37.5076C119.662 37.5076 119.921 37.4492 120.095 37.3285C120.268 37.2078 120.354 37.056 120.354 36.8652C120.354 36.6628 120.256 36.5148 120.063 36.4175C119.87 36.3202 119.563 36.215 119.142 36.0982C118.737 35.9892 118.403 35.8802 118.147 35.7751C117.891 35.67 117.671 35.5143 117.482 35.2962C117.297 35.0821 117.203 34.8018 117.203 34.4514C117.203 34.1672 117.289 33.9063 117.459 33.6688C117.628 33.4314 117.872 33.2445 118.19 33.1082C118.509 32.9719 118.875 32.9058 119.288 32.9058C119.906 32.9058 120.401 33.0615 120.779 33.3691C121.157 33.6766 121.357 34.0971 121.385 34.6305H120.264C120.244 34.3891 120.146 34.1983 119.969 34.0582C119.792 33.918 119.552 33.844 119.249 33.844C118.946 33.844 118.725 33.8985 118.572 34.0115C118.415 34.1205 118.336 34.2684 118.336 34.4475C118.336 34.5915 118.387 34.7083 118.493 34.8057C118.599 34.903 118.725 34.9809 118.875 35.0354C119.024 35.0899 119.249 35.16 119.544 35.2456C119.937 35.3507 120.26 35.4559 120.512 35.561C120.763 35.6661 120.984 35.8257 121.165 36.0321C121.35 36.2384 121.444 36.5148 121.452 36.8574C121.452 37.1611 121.365 37.4336 121.196 37.675C121.027 37.9164 120.783 38.1033 120.472 38.2395C120.161 38.3758 119.796 38.442 119.375 38.442C118.954 38.442 118.568 38.3641 118.23 38.2123H118.238Z" fill="white"/>
<path d="M127.578 32.9912V38.3522H126.456V37.7215C126.279 37.9434 126.047 38.1148 125.764 38.2432C125.481 38.3717 125.174 38.434 124.855 38.434C124.43 38.434 124.048 38.3445 123.71 38.1693C123.372 37.9941 123.108 37.7332 122.911 37.3906C122.719 37.048 122.62 36.6314 122.62 36.1448V32.9912H123.734V35.9773C123.734 36.4562 123.856 36.8261 124.096 37.083C124.34 37.34 124.67 37.4685 125.091 37.4685C125.512 37.4685 125.843 37.34 126.09 37.083C126.334 36.8261 126.46 36.4601 126.46 35.9773V32.9912H127.581H127.578Z" fill="white"/>
<path d="M130.174 31.1499V38.3524H129.053V31.1499H130.174Z" fill="white"/>
<path d="M132.956 33.8944V36.8611C132.956 37.0635 133.003 37.2076 133.097 37.2932C133.192 37.3828 133.353 37.4256 133.585 37.4256H134.274V38.3522H133.388C132.885 38.3522 132.495 38.2354 132.228 38.0018C131.96 37.7682 131.827 37.3867 131.827 36.8611V33.8944H131.189V32.9912H131.827V31.6558H132.96V32.9912H134.278V33.8944H132.96H132.956Z" fill="white"/>
<path d="M135.367 32.0765C135.23 31.9403 135.159 31.7728 135.159 31.5704C135.159 31.3679 135.226 31.2005 135.367 31.0643C135.505 30.928 135.674 30.8618 135.879 30.8618C136.083 30.8618 136.241 30.928 136.379 31.0643C136.516 31.2005 136.587 31.3679 136.587 31.5704C136.587 31.7728 136.52 31.9403 136.379 32.0765C136.241 32.2128 136.076 32.279 135.879 32.279C135.682 32.279 135.505 32.2128 135.367 32.0765ZM136.43 32.9914V38.3525H135.308V32.9914H136.43Z" fill="white"/>
<path d="M141.784 33.1666C142.123 33.3418 142.386 33.6026 142.575 33.9453C142.764 34.2879 142.858 34.7044 142.858 35.1911V38.3524H141.749V35.3546C141.749 34.8757 141.627 34.5059 141.383 34.2489C141.139 33.992 140.809 33.8635 140.392 33.8635C139.974 33.8635 139.64 33.992 139.392 34.2489C139.148 34.5059 139.022 34.8718 139.022 35.3546V38.3524H137.901V32.9914H139.022V33.6026C139.207 33.3807 139.439 33.2094 139.727 33.0887C140.01 32.9641 140.317 32.9019 140.635 32.9019C141.06 32.9019 141.442 32.9914 141.78 33.1627L141.784 33.1666Z" fill="white"/>
<path d="M147.587 33.1511C147.914 33.3146 148.166 33.5209 148.351 33.7701V32.9914H149.484V38.442C149.484 38.9364 149.377 39.3764 149.169 39.7618C148.96 40.1473 148.658 40.4509 148.26 40.6728C147.863 40.8948 147.391 41.0038 146.84 41.0038C146.104 41.0038 145.494 40.8325 145.01 40.4938C144.527 40.155 144.251 39.6917 144.184 39.1077H145.298C145.384 39.3881 145.565 39.6139 145.845 39.7852C146.124 39.9565 146.454 40.0421 146.844 40.0421C147.296 40.0421 147.662 39.9059 147.941 39.6333C148.221 39.3608 148.359 38.9637 148.359 38.4459V37.5504C148.17 37.8035 147.91 38.0176 147.587 38.1889C147.265 38.3602 146.895 38.4459 146.482 38.4459C146.01 38.4459 145.577 38.3291 145.187 38.0916C144.798 37.8541 144.487 37.5232 144.263 37.0988C144.039 36.6745 143.925 36.1917 143.925 35.6544C143.925 35.1172 144.039 34.6383 144.263 34.2256C144.491 33.809 144.798 33.4859 145.187 33.2562C145.577 33.0265 146.01 32.9097 146.482 32.9097C146.903 32.9097 147.273 32.9914 147.599 33.1588L147.587 33.1511ZM148.119 34.7045C147.965 34.4319 147.764 34.2256 147.513 34.0815C147.265 33.9375 146.993 33.8674 146.706 33.8674C146.419 33.8674 146.147 33.9375 145.9 34.0776C145.652 34.2178 145.447 34.4203 145.294 34.6889C145.14 34.9575 145.062 35.2768 145.062 35.6466C145.062 36.0165 145.14 36.3396 145.294 36.62C145.447 36.9003 145.652 37.1105 145.904 37.2584C146.155 37.4064 146.423 37.4765 146.706 37.4765C146.989 37.4765 147.265 37.4064 147.513 37.2623C147.761 37.1183 147.965 36.9119 148.119 36.6355C148.272 36.3591 148.351 36.036 148.351 35.6661C148.351 35.2962 148.272 34.977 148.119 34.7006V34.7045Z" fill="white"/>
<path d="M155.786 33.8946H154.783V38.3524H153.65V33.8946H153.013V32.9914H153.65V32.6098C153.65 31.9947 153.815 31.5431 154.146 31.2627C154.476 30.9824 154.996 30.8384 155.704 30.8384V31.765C155.362 31.765 155.122 31.8273 154.984 31.9557C154.846 32.0842 154.775 32.3022 154.775 32.6137V32.9952H155.779V33.8985L155.786 33.8946Z" fill="white"/>
<path d="M156.837 32.0765C156.699 31.9403 156.628 31.7728 156.628 31.5704C156.628 31.3679 156.695 31.2005 156.837 31.0643C156.975 30.928 157.144 30.8618 157.348 30.8618C157.553 30.8618 157.71 30.928 157.848 31.0643C157.986 31.2005 158.057 31.3679 158.057 31.5704C158.057 31.7728 157.99 31.9403 157.848 32.0765C157.71 32.2128 157.545 32.279 157.348 32.279C157.152 32.279 156.975 32.2128 156.837 32.0765ZM157.899 32.9914V38.3525H156.778V32.9914H157.899Z" fill="white"/>
<path d="M161.149 33.1316C161.42 32.9797 161.743 32.9019 162.117 32.9019V34.0504H161.833C161.393 34.0504 161.062 34.1594 160.834 34.3813C160.606 34.6032 160.496 34.9848 160.496 35.5298V38.3524H159.375V32.9914H160.496V33.7701C160.661 33.4975 160.877 33.2834 161.149 33.1316Z" fill="white"/>
<path d="M170.859 33.1666C171.197 33.3418 171.461 33.6026 171.653 33.9452C171.846 34.2878 171.945 34.7044 171.945 35.1911V38.3524H170.835V35.3546C170.835 34.8757 170.713 34.5059 170.469 34.2489C170.225 33.992 169.895 33.8635 169.478 33.8635C169.061 33.8635 168.726 33.992 168.479 34.2489C168.235 34.5059 168.109 34.8718 168.109 35.3546V38.3524H166.999V35.3546C166.999 34.8757 166.877 34.5059 166.633 34.2489C166.389 33.992 166.059 33.8635 165.642 33.8635C165.225 33.8635 164.89 33.992 164.643 34.2489C164.399 34.5059 164.273 34.8718 164.273 35.3546V38.3524H163.151V32.9914H164.273V33.6026C164.458 33.3807 164.69 33.2094 164.973 33.0887C165.256 32.9641 165.555 32.9018 165.878 32.9018C166.311 32.9018 166.696 32.9914 167.039 33.1744C167.381 33.3574 167.64 33.6182 167.825 33.9608C167.991 33.6377 168.246 33.3768 168.593 33.1861C168.939 32.9953 169.313 32.8979 169.714 32.8979C170.139 32.8979 170.52 32.9875 170.859 33.1588V33.1666Z" fill="white"/>
</g>
<defs>
<clipPath id="clip0_4061_1305">
<rect width="183" height="41" fill="white"/>
</clipPath>
</defs>
</svg>
