<svg width="180" height="80" viewBox="0 0 180 80" fill="none" xmlns="http://www.w3.org/2000/svg">
<path fill-rule="evenodd" clip-rule="evenodd" d="M41.5309 28.0858C38.6527 25.2281 34.8257 23.5057 30.7625 23.2394C26.6993 22.9731 22.6771 24.181 19.445 26.6382C16.2128 29.0954 13.9912 32.6343 13.1938 36.5958C12.3965 40.5573 13.0778 44.6713 15.1108 48.1715L12.7296 56.798L21.6281 54.4837C24.0881 55.8145 26.8454 56.5115 29.6473 56.5108H29.6571C32.9761 56.5094 36.2202 55.5322 38.9796 53.7026C41.7389 51.873 43.8898 49.273 45.1604 46.2313C46.4311 43.1895 46.7644 39.8423 46.1184 36.6127C45.4724 33.383 43.876 30.4158 41.5309 28.0858ZM24.0286 47.9174C24.3267 48.0016 24.6387 48.0259 24.9464 47.9888C27.3087 47.9839 29.3474 47.9792 30.7967 47.9792C37.5696 47.9792 37.3909 40.9054 34.2267 40.0235C34.6903 39.2092 36.8015 37.6752 35.4972 34.5121C34.2025 31.3827 28.6469 32.092 24.8451 32.092C23.4392 32.092 23.647 33.1271 23.6566 34.7278C23.6663 37.2678 23.6566 44.1404 23.6566 47.1118C23.6566 47.7108 23.8402 47.8071 24.0286 47.9174ZM26.9559 45.324H30.4004C31.8642 45.3191 33.1685 44.6434 33.1347 43.1954C33.1105 41.8344 32.1974 41.3838 30.9269 41.2592C29.7192 41.2735 28.3376 41.2735 26.9559 41.2735V45.324ZM26.9559 38.5382C28.6008 38.6468 30.2529 38.5648 31.8786 38.2938C32.1469 38.1192 32.3672 37.8812 32.5199 37.6012C32.6726 37.3212 32.7527 37.008 32.7532 36.6896C32.7537 36.3713 32.6745 36.0578 32.5227 35.7774C32.3709 35.4969 32.1512 35.2582 31.8835 35.0828C30.2661 34.7314 28.602 34.6424 26.9559 34.8192V38.5382ZM29.6567 53.7001H29.6469C27.1499 53.7016 24.6986 53.036 22.5504 51.7734L22.0384 51.4714L16.7582 52.8468L18.1694 47.7428L17.836 47.2157C16.1915 44.6162 15.4644 41.5482 15.769 38.4941C16.0736 35.44 17.3926 32.5729 19.5187 30.3435C21.6448 28.1141 24.4574 26.6489 27.5144 26.1781C30.5713 25.7073 33.6993 26.2577 36.4066 27.7427C39.114 29.2277 41.247 31.5632 42.4706 34.382C43.6942 37.2008 43.9388 40.343 43.1661 43.3148C42.3934 46.2865 40.6471 48.9193 38.2018 50.7991C35.7565 52.679 32.7503 53.6996 29.6567 53.7001Z" fill="#343434"/>
<path fill-rule="evenodd" clip-rule="evenodd" d="M23.9616 47.903C24.2598 47.9868 24.5718 48.011 24.8795 47.9744C27.2411 47.9697 29.2804 47.9648 30.7296 47.9648C37.5025 47.9648 37.3287 40.8911 34.1596 40.0093C34.6234 39.195 36.7344 37.6608 35.4301 34.4978C34.1354 31.3683 28.5798 32.0775 24.778 32.0775C23.3722 32.0775 23.5848 33.1127 23.5895 34.7134C23.5993 37.2535 23.5944 44.126 23.5895 47.0974C23.5895 47.6965 23.7731 47.7928 23.9616 47.903ZM26.8938 45.3173H30.3333C31.7971 45.3125 33.1014 44.6367 33.0676 43.1887C33.0434 41.8275 32.1305 41.3771 30.8599 41.2525C29.657 41.2668 28.2754 41.2668 26.8938 41.2668V45.3173ZM26.8938 38.5243C28.5371 38.6327 30.1875 38.5506 31.8116 38.2798C32.0799 38.1052 32.3002 37.8671 32.4528 37.5871C32.6055 37.3071 32.6856 36.9939 32.6861 36.6756C32.6866 36.3573 32.6073 36.0438 32.4555 35.7634C32.3037 35.4829 32.0841 35.2443 31.8164 35.0688C30.2007 34.7174 28.5382 34.6284 26.8938 34.8053V38.5243Z" fill="#343434"/>
<path d="M62.7552 37.3472L58.9248 21.4285H62.2408L64.66 32.3632L67.5936 21.4285H71.4456L74.2592 32.5479L76.7219 21.4285H79.9837L76.0866 37.3472H72.6494L69.4539 25.446L66.2688 37.3472H62.7552ZM84.455 21.4285V27.2813C85.09 26.4895 85.9717 25.9289 86.9621 25.6871C87.9525 25.4454 88.9957 25.5361 89.9286 25.9452C90.4386 26.1603 90.8822 26.5052 91.2145 26.9452C91.5018 27.3495 91.703 27.8077 91.8058 28.2918C91.9319 29.0488 91.9849 29.8161 91.9642 30.5832V37.348H88.8888V31.2555C88.9299 30.4839 88.8709 29.7104 88.7134 28.9538C88.6011 28.6335 88.3834 28.36 88.0953 28.1775C87.7616 27.9753 87.3752 27.8752 86.9845 27.8896C86.5025 27.8819 86.0282 28.0099 85.6165 28.2588C85.2036 28.5193 84.8928 28.912 84.7357 29.3718C84.5193 30.0839 84.425 30.827 84.4567 31.5702V37.3472H81.3807V21.4285H84.455ZM97.1568 29.3336L94.3659 28.8336C94.5959 27.8451 95.1694 26.9685 95.9859 26.3578C97.0165 25.7541 98.2072 25.4741 99.4012 25.5546C100.446 25.4979 101.491 25.6624 102.466 26.0372C103.057 26.2886 103.553 26.7179 103.884 27.2643C104.223 28.1334 104.363 29.0663 104.294 29.9958L104.262 33.557C104.242 34.3076 104.292 35.0583 104.41 35.7999C104.528 36.3366 104.713 36.8564 104.962 37.347H101.919C101.839 37.1446 101.74 36.8443 101.624 36.4463C101.573 36.2648 101.537 36.1455 101.515 36.0876C101.029 36.5678 100.458 36.9544 99.8299 37.2278C99.224 37.4827 98.5719 37.6119 97.9138 37.6076C96.8797 37.6651 95.864 37.3183 95.0846 36.6415C94.7469 36.3307 94.48 35.9521 94.3016 35.5308C94.1232 35.1096 94.0375 34.6554 94.0502 34.1986C94.0397 33.5855 94.2027 32.9817 94.5206 32.4558C94.8348 31.945 95.2934 31.5371 95.8395 31.283C96.6219 30.9462 97.4435 30.7072 98.2853 30.5713C99.3025 30.4131 100.303 30.1622 101.274 29.8218V29.5183C101.297 29.2902 101.27 29.0599 101.194 28.8432C101.118 28.6266 100.996 28.4289 100.836 28.2638C100.342 27.9609 99.7607 27.8291 99.1832 27.889C98.7332 27.8633 98.2862 27.9752 97.9024 28.2096C97.5434 28.4992 97.2826 28.8919 97.1568 29.3336ZM101.273 31.8093C100.879 31.9393 100.255 32.0951 99.4011 32.2766C98.8183 32.3658 98.2533 32.5453 97.7268 32.8085C97.543 32.9226 97.3915 33.081 97.2862 33.269C97.1808 33.4569 97.1253 33.6683 97.1246 33.8833C97.123 34.091 97.165 34.2968 97.2479 34.4875C97.3308 34.6782 97.4529 34.8497 97.6062 34.991C97.7685 35.1467 97.9606 35.2683 98.1713 35.3486C98.3819 35.429 98.6067 35.4664 98.8322 35.4586C99.4062 35.4517 99.9625 35.2614 100.419 34.9158C100.77 34.6699 101.029 34.3144 101.153 33.9059C101.255 33.4169 101.296 32.9172 101.274 32.4183L101.273 31.8093ZM112.432 25.8155V28.2482H110.331V32.8953C110.311 33.4445 110.331 33.9945 110.392 34.5408C110.432 34.6982 110.529 34.8355 110.665 34.9265C110.818 35.0305 111 35.0837 111.185 35.0782C111.61 35.0468 112.028 34.948 112.422 34.7855L112.684 37.152C111.914 37.4668 111.088 37.622 110.255 37.6082C109.741 37.6158 109.231 37.5218 108.755 37.3316C108.367 37.1892 108.027 36.9409 107.776 36.6153C107.543 36.2563 107.395 35.8497 107.344 35.4259C107.258 34.7125 107.225 33.9938 107.245 33.2756V28.2482H105.834V25.8152H107.245V23.524L110.331 21.7428V25.8142L112.432 25.8155ZM113.258 34.0573L116.345 33.5903C116.439 34.1213 116.723 34.601 117.144 34.9418C117.639 35.277 118.232 35.4395 118.83 35.4036C119.459 35.4469 120.086 35.295 120.625 34.9688C120.754 34.8762 120.859 34.7536 120.93 34.6117C121 34.4697 121.035 34.3127 121.03 34.1545C121.034 34.049 121.016 33.9438 120.979 33.8451C120.941 33.7463 120.884 33.6559 120.811 33.579C120.503 33.3687 120.151 33.2311 119.782 33.1769C118.143 32.9181 116.553 32.4167 115.064 31.6893C114.627 31.4123 114.271 31.0275 114.029 30.5726C113.787 30.1178 113.669 29.6084 113.685 29.0945C113.679 28.6125 113.784 28.1356 113.991 27.6993C114.197 27.263 114.5 26.8787 114.878 26.575C115.95 25.8106 117.261 25.4489 118.577 25.5542C119.809 25.4694 121.04 25.7372 122.124 26.3256C122.917 26.8681 123.485 27.6784 123.722 28.6056L120.822 29.1378C120.72 28.7209 120.469 28.3547 120.116 28.1065C119.67 27.8412 119.153 27.7161 118.633 27.7478C118.033 27.7024 117.432 27.8187 116.893 28.0845C116.786 28.149 116.697 28.2399 116.636 28.3483C116.575 28.4568 116.542 28.5791 116.543 28.7035C116.544 28.8135 116.573 28.9215 116.626 29.018C116.68 29.1145 116.756 29.1965 116.849 29.2568C117.765 29.6659 118.731 29.9545 119.722 30.1153C120.952 30.3144 122.123 30.7776 123.154 31.4725C123.477 31.7539 123.731 32.1043 123.898 32.4974C124.065 32.8904 124.14 33.3159 124.117 33.7418C124.116 34.2665 123.995 34.7842 123.764 35.2562C123.532 35.7282 123.197 36.1421 122.781 36.4672C121.644 37.3046 120.242 37.7092 118.83 37.6073C117.508 37.677 116.196 37.3437 115.07 36.6522C114.164 36.0392 113.518 35.1145 113.258 34.0573ZM141.077 37.3472H137.553L136.152 33.7313H129.739L128.414 37.3472H124.977L131.227 21.4285H134.653L141.077 37.3472ZM135.111 31.0496L132.901 25.1428L130.733 31.0503L135.111 31.0496ZM142.462 25.8155H145.33V27.5098C145.709 26.9235 146.228 26.4388 146.84 26.098C147.483 25.7341 148.212 25.5467 148.953 25.5552C149.607 25.5496 150.255 25.688 150.849 25.9603C151.443 26.2326 151.969 26.6321 152.389 27.13C153.395 28.3665 153.898 29.9309 153.802 31.5166C153.903 33.1363 153.396 34.7359 152.379 36.0068C151.96 36.5109 151.433 36.9161 150.837 37.1931C150.24 37.47 149.589 37.6118 148.931 37.608C148.327 37.6168 147.729 37.4868 147.185 37.228C146.56 36.896 146.002 36.4547 145.536 35.9253V41.7345H142.462L142.462 25.8155ZM145.504 31.386C145.423 32.4037 145.698 33.418 146.282 34.2585C146.504 34.5477 146.791 34.782 147.119 34.9431C147.448 35.1042 147.81 35.1877 148.176 35.187C148.52 35.1914 148.859 35.1166 149.169 34.9686C149.479 34.8206 149.749 34.6034 149.96 34.334C150.508 33.5081 150.758 32.523 150.672 31.538C150.746 30.5833 150.487 29.6323 149.937 28.8452C149.724 28.5691 149.448 28.346 149.133 28.1934C148.818 28.0408 148.471 27.9628 148.12 27.9656C147.763 27.9595 147.408 28.034 147.084 28.1836C146.76 28.3331 146.474 28.5538 146.248 28.8289C145.701 29.5661 145.437 30.4729 145.504 31.386ZM155.93 25.8155H158.798V27.5098C159.177 26.9235 159.696 26.4388 160.308 26.098C160.951 25.7341 161.681 25.5467 162.421 25.5552C163.075 25.5496 163.723 25.688 164.317 25.9603C164.912 26.2326 165.438 26.632 165.858 27.13C166.863 28.3666 167.367 29.931 167.27 31.5166C167.371 33.1363 166.864 34.7359 165.847 36.0068C165.428 36.5109 164.901 36.9162 164.305 37.1932C163.709 37.4702 163.057 37.6119 162.399 37.608C161.795 37.6168 161.198 37.4868 160.653 37.228C160.029 36.896 159.471 36.4547 159.005 35.9253V41.7345H155.93L155.93 25.8155ZM158.973 31.386C158.892 32.4037 159.166 33.4181 159.751 34.2585C159.973 34.5476 160.259 34.7818 160.588 34.9429C160.916 35.104 161.278 35.1875 161.644 35.187C161.988 35.1914 162.327 35.1167 162.637 34.9687C162.947 34.8207 163.217 34.6034 163.428 34.334C163.976 33.5081 164.227 32.5229 164.14 31.538C164.214 30.5835 163.955 29.6325 163.406 28.8452C163.193 28.5692 162.917 28.3461 162.602 28.1934C162.287 28.0408 161.94 27.9628 161.589 27.9656C161.232 27.9594 160.877 28.0339 160.553 28.1834C160.229 28.333 159.943 28.5537 159.717 28.8289C159.171 29.5661 158.906 30.4732 158.973 31.386Z" fill="#343434"/>
<path d="M60.7121 58.3689V51.1901H59.1343V50.0428H60.7121V48.9902C60.6557 48.1687 60.9296 47.3585 61.4738 46.7368C61.7532 46.4718 62.0845 46.2667 62.4473 46.1344C62.81 46.0021 63.1963 45.9453 63.5822 45.9676C64.0509 45.9573 64.5185 46.0164 64.9696 46.1431V47.3171C64.7614 47.2543 64.5471 47.2135 64.3302 47.1955C64.1407 47.1731 63.9498 47.1642 63.759 47.1686C63.523 47.138 63.2831 47.1624 63.0583 47.2397C62.8335 47.317 62.6299 47.4452 62.4636 47.6141C62.2973 47.7829 62.173 47.9879 62.1004 48.2127C62.0278 48.4376 62.009 48.6761 62.0454 48.9093V50.0428H64.9018V51.1898H62.0451V58.3686L60.7121 58.3689Z" fill="#343434"/>
<path d="M70.22 58.5579C69.4549 58.5781 68.6999 58.3815 68.0435 57.9911C67.435 57.617 66.9412 57.0851 66.6153 56.4528C66.2839 55.7494 66.1121 54.9824 66.1121 54.206C66.1121 53.4295 66.2839 52.6626 66.6153 51.9592C66.937 51.324 67.4318 50.7911 68.0435 50.4209C68.6999 50.0306 69.4549 49.834 70.22 49.8542H70.3831C71.1481 49.834 71.903 50.0306 72.5594 50.4209C73.1679 50.7949 73.6619 51.3268 73.9877 51.9592C74.3192 52.6626 74.491 53.4295 74.491 54.206C74.491 54.9824 74.3192 55.7494 73.9877 56.4528C73.666 57.088 73.1712 57.6209 72.5594 57.9911C71.9023 58.3798 71.1479 58.5763 70.3831 58.5579H70.22ZM70.2335 57.3436H70.3831C70.7575 57.3608 71.1308 57.2932 71.4749 57.1459C71.819 56.9986 72.1248 56.7755 72.369 56.4935C72.8467 55.8326 73.1036 55.0397 73.1036 54.2265C73.1036 53.4132 72.8467 52.6204 72.369 51.9595C72.1239 51.6786 71.8179 51.4563 71.4741 51.3091C71.1302 51.1619 70.7573 51.0936 70.3831 51.1093H70.2335C69.8591 51.0922 69.4858 51.1599 69.1417 51.3072C68.7976 51.4545 68.4918 51.6775 68.2476 51.9595C67.7699 52.6204 67.513 53.4132 67.513 54.2265C67.513 55.0397 67.7699 55.8326 68.2476 56.4935C68.4939 56.7729 68.8 56.9942 69.1436 57.1411C69.4872 57.2881 69.8596 57.3578 70.2335 57.3436Z" fill="#343434"/>
<path d="M77.0482 58.3689V50.0428H78.3812V51.4866C78.6063 51.003 78.9529 50.5848 79.3878 50.2723C79.8078 49.9876 80.3074 49.8412 80.816 49.854C81.0678 49.8535 81.319 49.8807 81.5648 49.9351V51.2571C81.4287 51.2436 81.2928 51.2302 81.1431 51.2166C80.9935 51.203 80.8439 51.2032 80.7078 51.2032C80.434 51.1929 80.1608 51.2365 79.904 51.3314C79.6472 51.4264 79.4119 51.5708 79.2117 51.7563C78.8052 52.17 78.5145 52.6816 78.3683 53.2408V58.3685L77.0482 58.3689Z" fill="#343434"/>
<path d="M88.0114 58.3691V46.6562H92.8673C93.9006 46.5856 94.9273 46.8664 95.7781 47.4523C96.1094 47.7191 96.3721 48.0601 96.5448 48.4471C96.7175 48.8341 96.7953 49.2563 96.7717 49.6789C96.7874 50.2466 96.6311 50.806 96.3229 51.2846C95.9519 51.7815 95.418 52.1346 94.813 52.2832C95.5841 52.3883 96.2926 52.7612 96.8125 53.3358C97.2294 53.877 97.4455 54.5441 97.4246 55.2249C97.4463 55.6662 97.3628 56.1064 97.1808 56.5097C96.9988 56.913 96.7234 57.268 96.3772 57.5459C95.4908 58.1576 94.4214 58.4526 93.344 58.3826L88.0114 58.3691ZM92.7721 47.9382H89.3988V51.8785H92.8809C94.5268 51.8785 95.3433 51.2172 95.3433 49.9083C95.3645 49.6282 95.3175 49.3471 95.2062 49.0888C95.095 48.8304 94.9227 48.6024 94.704 48.4239C94.1315 48.0556 93.4524 47.8849 92.7721 47.9382ZM93.2617 53.1469H89.3988V57.0872H93.33C95.0982 57.0872 95.9823 56.4259 95.9823 55.1171C96.0023 54.8415 95.9573 54.5651 95.8511 54.3098C95.7449 54.0544 95.5802 53.827 95.3702 53.6456C94.7432 53.2505 94.001 53.0749 93.2617 53.1469Z" fill="#343434"/>
<path d="M102.824 58.5581C102.404 58.5852 101.983 58.5139 101.595 58.3498C101.208 58.1857 100.864 57.9334 100.593 57.6134C100.035 56.8319 99.7662 55.8832 99.8317 54.9276V50.0429H101.165V54.7254C101.116 55.4081 101.287 56.0887 101.654 56.6682C101.833 56.8916 102.064 57.0686 102.327 57.1838C102.59 57.299 102.877 57.349 103.164 57.3295H103.314C103.908 57.3406 104.483 57.123 104.919 56.7222C105.373 56.3068 105.71 55.7813 105.898 55.1974V50.0298H107.231V58.3556H105.898V56.7768C105.61 57.2984 105.2 57.7429 104.701 58.0722C104.192 58.3896 103.601 58.5537 103.001 58.5445L102.824 58.5581Z" fill="#343434"/>
<path d="M113.202 58.5581C112.505 58.618 111.803 58.4994 111.165 58.2135C110.527 57.9276 109.973 57.4841 109.557 56.9252L110.482 56.1156C110.787 56.5386 111.195 56.8772 111.669 57.0992C112.143 57.3213 112.666 57.4193 113.189 57.3841H113.339C113.841 57.4115 114.34 57.2994 114.781 57.0602C114.941 56.9694 115.073 56.8375 115.164 56.6784C115.255 56.5193 115.301 56.3389 115.298 56.1561C115.303 56.0035 115.274 55.8518 115.212 55.7118C115.151 55.5718 115.06 55.447 114.944 55.3463C114.593 55.0978 114.187 54.9359 113.76 54.8741L112.237 54.5638C110.632 54.2399 109.829 53.4978 109.829 52.3238C109.821 51.973 109.899 51.6254 110.055 51.3106C110.211 50.9958 110.442 50.7231 110.727 50.5155C111.416 50.0291 112.249 49.7867 113.094 49.8273H113.257C113.882 49.7878 114.506 49.91 115.069 50.1821C115.632 50.4541 116.114 50.8667 116.467 51.3792L115.542 52.1221C115.292 51.7543 114.95 51.4569 114.549 51.2583C114.139 51.0746 113.693 50.9824 113.244 50.9885H113.094C112.606 50.9656 112.121 51.0777 111.693 51.3123C111.531 51.3987 111.396 51.5274 111.303 51.6844C111.209 51.8413 111.161 52.0207 111.162 52.2031C111.157 52.3373 111.184 52.4708 111.241 52.5927C111.298 52.7146 111.383 52.8215 111.489 52.9046C111.82 53.1235 112.197 53.2664 112.591 53.3231L114.25 53.6603C114.896 53.7741 115.501 54.0532 116.005 54.4701C116.217 54.673 116.383 54.9191 116.491 55.1916C116.599 55.4641 116.647 55.7565 116.63 56.0488C116.638 56.3916 116.565 56.7314 116.416 57.0408C116.267 57.3502 116.047 57.6206 115.773 57.8301C115.075 58.3278 114.224 58.5709 113.366 58.5182H113.203L113.202 58.5581Z" fill="#343434"/>
<path d="M119.745 48.289C119.62 48.2966 119.494 48.2776 119.377 48.2333C119.26 48.1889 119.153 48.1203 119.065 48.0319C118.893 47.8495 118.8 47.607 118.806 47.3572C118.801 47.2332 118.821 47.1095 118.866 46.9935C118.91 46.8775 118.978 46.7717 119.065 46.6825C119.252 46.5173 119.494 46.426 119.745 46.426C119.996 46.426 120.238 46.5173 120.425 46.6825C120.598 46.8647 120.691 47.1072 120.684 47.3572C120.689 47.4812 120.669 47.605 120.625 47.721C120.58 47.8369 120.512 47.9427 120.425 48.0319C120.337 48.1203 120.23 48.189 120.113 48.2333C119.996 48.2777 119.87 48.2967 119.745 48.289ZM119.078 58.369V50.0429H120.412V58.3687L119.078 58.369Z" fill="#343434"/>
<path d="M123.445 58.369V50.0429H124.778V51.6217C125.065 51.1002 125.476 50.6556 125.975 50.3263C126.483 50.0089 127.074 49.8448 127.675 49.854H127.838C128.256 49.8309 128.674 49.9042 129.059 50.0681C129.443 50.232 129.785 50.482 130.056 50.7986C130.623 51.5767 130.902 52.5256 130.845 53.4843V58.3692H129.512V53.6866C129.558 53.0058 129.391 52.3276 129.036 51.7437C128.856 51.5223 128.624 51.3475 128.361 51.2347C128.098 51.1218 127.812 51.0742 127.526 51.096H127.363C126.768 51.0849 126.193 51.3025 125.757 51.7033C125.312 52.1208 124.976 52.6395 124.778 53.2146V58.3829L123.445 58.369Z" fill="#343434"/>
<path d="M137.278 58.5581C136.538 58.5755 135.808 58.3886 135.17 58.0182C134.567 57.6517 134.081 57.1229 133.769 56.4934C133.424 55.7825 133.251 55.0017 133.265 54.213C133.246 53.4324 133.419 52.659 133.769 51.9594C134.071 51.3243 134.553 50.79 135.156 50.4211C135.776 50.0406 136.495 49.8483 137.223 49.8678H137.387C138.076 49.8546 138.754 50.0473 139.332 50.4211C139.899 50.7999 140.344 51.3344 140.61 51.9594C140.926 52.7017 141.079 53.502 141.059 54.3074V54.7662H134.639C134.692 55.4777 134.989 56.1496 135.483 56.6688C135.726 56.905 136.016 57.0892 136.334 57.2099C136.652 57.3306 136.992 57.3852 137.332 57.3705H137.482C137.914 57.3724 138.341 57.2803 138.733 57.1007C139.112 56.9291 139.446 56.6752 139.713 56.3578L140.569 57.2214C140.194 57.645 139.73 57.9815 139.209 58.2071C138.653 58.453 138.05 58.5773 137.441 58.5715L137.278 58.5581ZM137.196 51.0554C136.875 51.0445 136.554 51.1014 136.256 51.2224C135.959 51.3433 135.69 51.5255 135.468 51.757C134.986 52.2754 134.698 52.9424 134.652 53.6462H139.712C139.698 52.9746 139.464 52.3258 139.046 51.7975C138.843 51.551 138.585 51.3553 138.292 51.2263C137.999 51.0972 137.679 51.0384 137.359 51.0547L137.196 51.0554Z" fill="#343434"/>
<path d="M146.514 58.558C145.816 58.618 145.115 58.4994 144.476 58.2135C143.838 57.9276 143.284 57.484 142.868 56.9252L143.793 56.1156C144.098 56.5386 144.507 56.8772 144.981 57.0992C145.454 57.3212 145.978 57.4193 146.501 57.384H146.65C147.152 57.4115 147.651 57.2993 148.092 57.0602C148.252 56.9693 148.384 56.8375 148.475 56.6784C148.566 56.5193 148.612 56.3389 148.609 56.156C148.614 56.0035 148.585 55.8518 148.524 55.7118C148.463 55.5717 148.371 55.4469 148.255 55.3463C147.904 55.0979 147.498 54.936 147.072 54.874L145.548 54.5638C143.943 54.2399 143.141 53.4978 143.141 52.3238C143.133 51.9729 143.21 51.6254 143.367 51.3106C143.523 50.9958 143.753 50.7231 144.039 50.5155C144.727 50.0291 145.561 49.7867 146.405 49.8273H146.569C147.193 49.7878 147.818 49.9101 148.381 50.1821C148.943 50.4542 149.425 50.8667 149.779 51.3792L148.854 52.122C148.603 51.7543 148.261 51.4568 147.86 51.2583C147.45 51.0745 147.004 50.9824 146.554 50.9885H146.405C145.917 50.9656 145.431 51.0777 145.004 51.3123C144.842 51.3987 144.707 51.5273 144.613 51.6843C144.52 51.8413 144.471 52.0207 144.473 52.203C144.468 52.3372 144.495 52.4707 144.552 52.5927C144.608 52.7146 144.693 52.8215 144.8 52.9046C145.131 53.1234 145.507 53.2664 145.901 53.323L147.561 53.6603C148.207 53.774 148.812 54.0532 149.316 54.47C149.528 54.673 149.694 54.9191 149.802 55.1916C149.91 55.4641 149.958 55.7564 149.941 56.0488C149.949 56.3915 149.876 56.7314 149.727 57.0408C149.578 57.3502 149.358 57.6206 149.084 57.83C148.386 58.3278 147.535 58.5709 146.677 58.5182H146.514L146.514 58.558Z" fill="#343434"/>
<path d="M155.328 58.558C154.63 58.618 153.929 58.4994 153.29 58.2135C152.652 57.9276 152.099 57.484 151.682 56.9252L152.607 56.1156C152.912 56.5386 153.321 56.8772 153.795 57.0992C154.269 57.3212 154.792 57.4193 155.315 57.384H155.464C155.966 57.4115 156.465 57.2993 156.906 57.0602C157.066 56.9693 157.198 56.8375 157.289 56.6784C157.38 56.5193 157.426 56.3389 157.423 56.156C157.428 56.0035 157.399 55.8518 157.338 55.7118C157.277 55.5717 157.185 55.4469 157.069 55.3463C156.718 55.0979 156.313 54.936 155.886 54.874L154.362 54.5638C152.757 54.2399 151.955 53.4978 151.955 52.3238C151.947 51.9729 152.024 51.6254 152.181 51.3106C152.337 50.9958 152.567 50.7231 152.853 50.5155C153.541 50.0291 154.375 49.7867 155.219 49.8273H155.383C156.007 49.7878 156.632 49.9101 157.195 50.1821C157.757 50.4542 158.239 50.8667 158.593 51.3792L157.668 52.122C157.417 51.7543 157.075 51.4568 156.674 51.2583C156.264 51.0745 155.818 50.9824 155.368 50.9885H155.219C154.731 50.9656 154.246 51.0777 153.818 51.3123C153.656 51.3987 153.521 51.5273 153.427 51.6843C153.334 51.8413 153.286 52.0207 153.287 52.203C153.282 52.3372 153.309 52.4707 153.366 52.5926C153.423 52.7146 153.508 52.8215 153.614 52.9046C153.945 53.1234 154.322 53.2664 154.716 53.323L156.375 53.6603C157.021 53.774 157.626 54.0532 158.13 54.47C158.342 54.673 158.508 54.9191 158.616 55.1916C158.724 55.4641 158.772 55.7564 158.755 56.0488C158.763 56.3915 158.69 56.7314 158.541 57.0408C158.392 57.3503 158.172 57.6206 157.898 57.83C157.2 58.3278 156.349 58.5709 155.491 58.5182H155.328L155.328 58.558Z" fill="#343434"/>
</svg>
